%TF.GenerationSoftware,KiCad,Pcbnew,10.0.5-unknown-202607221313~667fa36054~ubuntu25.10.1*%
%TF.CreationDate,Date%
%TF.ProjectId,bms_slave,626d735f-736c-4617-9665-2e6b69636164,+ (Unreleased)*%
%TF.SameCoordinates,Original*%
%TF.FileFunction,Copper,L2,Inr*%
%TF.FilePolarity,Positive*%
%FSLAX46Y46*%
G04 Gerber Fmt 4.6, Leading zero omitted, Abs format (unit mm)*
G04 Created by KiCad*
%MOMM*%
%LPD*%
G01*
G04 APERTURE LIST*
%TA.AperFunction,ComponentPad*%
%ADD10C,1.574800*%
%TD*%
%TA.AperFunction,ComponentPad*%
%ADD11C,2.971800*%
%TD*%
%TA.AperFunction,ComponentPad*%
%ADD12C,0.499999*%
%TD*%
%TA.AperFunction,ViaPad*%
%ADD13C,0.600000*%
%TD*%
%TA.AperFunction,ViaPad*%
%ADD14C,0.500000*%
%TD*%
G04 APERTURE END LIST*
D10*
%TO.N,/Project Architecture/VMODULE*%
%TO.C,J3*%
X107000000Y-95000000D03*
%TO.N,unconnected-(J3-Pad2)*%
X107000000Y-92000001D03*
%TO.N,/Project Architecture/Cell Sense & Balance/TAP8*%
X107000000Y-89000002D03*
%TO.N,/Project Architecture/Cell Sense & Balance/TAP7*%
X107000000Y-86000002D03*
%TO.N,/Project Architecture/Cell Sense & Balance/TAP6*%
X107000000Y-83000003D03*
%TO.N,/Project Architecture/Cell Sense & Balance/TAP5*%
X107000000Y-80000004D03*
%TO.N,/Project Architecture/Cell Sense & Balance/TAP4*%
X109999999Y-95000000D03*
%TO.N,/Project Architecture/Cell Sense & Balance/TAP3*%
X109999999Y-92000001D03*
%TO.N,/Project Architecture/Cell Sense & Balance/TAP2*%
X109999999Y-89000002D03*
%TO.N,/Project Architecture/Cell Sense & Balance/TAP1*%
X109999999Y-86000002D03*
%TO.N,/Project Architecture/Cell Sense & Balance/TAP0*%
X109999999Y-83000003D03*
%TO.N,/Project Architecture/GND*%
X109999999Y-80000004D03*
%TD*%
%TO.N,/Project Architecture/Connectors/COML.P*%
%TO.C,J1*%
X170750000Y-97000000D03*
%TO.N,/Project Architecture/Connectors/COML.N*%
X170750000Y-94000001D03*
%TD*%
%TO.N,/Project Architecture/Connectors/COMH.P*%
%TO.C,J2*%
X170750000Y-83000000D03*
%TO.N,/Project Architecture/Connectors/COMH.N*%
X170750000Y-85999999D03*
%TD*%
%TO.N,/Project Architecture/Connectors/T_P8*%
%TO.C,J4*%
X160397500Y-70930400D03*
%TO.N,/Project Architecture/Connectors/T_P7*%
X157400300Y-70930400D03*
%TO.N,/Project Architecture/Connectors/T_P6*%
X154403100Y-70930400D03*
%TO.N,/Project Architecture/Connectors/T_P5*%
X151405900Y-70930400D03*
%TO.N,/Project Architecture/Connectors/T_P4*%
X148408700Y-70930400D03*
%TO.N,/Project Architecture/Connectors/T_P3*%
X160397500Y-67933200D03*
%TO.N,/Project Architecture/Connectors/T_P2*%
X157400300Y-67933200D03*
%TO.N,/Project Architecture/Connectors/T_P1*%
X154403100Y-67933200D03*
%TO.N,/Project Architecture/GND*%
X151405900Y-67933200D03*
X148408700Y-67933200D03*
D11*
%TO.N,N/C*%
X146249700Y-69431800D03*
X162556500Y-69431800D03*
%TD*%
D12*
%TO.N,/Project Architecture/GND*%
%TO.C,U1*%
X132799998Y-86899998D03*
X132799998Y-88199998D03*
X132799998Y-89500000D03*
X132799998Y-90800000D03*
X132799998Y-92100000D03*
X132799998Y-93400000D03*
X134099998Y-86899998D03*
X134099998Y-88199998D03*
X134099998Y-89500000D03*
X134099998Y-90800000D03*
X134099998Y-92100000D03*
X134099998Y-93400000D03*
X135399998Y-86899998D03*
X135399998Y-88199998D03*
X135399998Y-89500000D03*
X135399998Y-90800000D03*
X135399998Y-92100000D03*
X135399998Y-93400000D03*
X136700000Y-86899998D03*
X136700000Y-88199998D03*
X136700000Y-89500000D03*
X136700000Y-90800000D03*
X136700000Y-92100000D03*
X136700000Y-93400000D03*
X138000000Y-86899998D03*
X138000000Y-88199998D03*
X138000000Y-89500000D03*
X138000000Y-90800000D03*
X138000000Y-92100000D03*
X138000000Y-93400000D03*
X139300000Y-86899998D03*
X139300000Y-88199998D03*
X139300000Y-89500000D03*
X139300000Y-90800000D03*
X139300000Y-92100000D03*
X139300000Y-93400000D03*
%TD*%
D13*
%TO.N,/Project Architecture/Cell Sense & Balance/CB5*%
X134750000Y-99000000D03*
D14*
%TO.N,/Project Architecture/GND*%
X144350000Y-93020989D03*
X145378014Y-90517354D03*
X144450000Y-86696700D03*
X144350000Y-94220989D03*
X144546267Y-89614394D03*
X143250000Y-91000000D03*
X144350000Y-92420989D03*
X146426543Y-94083039D03*
X144160247Y-91920907D03*
X146250000Y-91777485D03*
X144596642Y-94940147D03*
X146350000Y-86140204D03*
X145532663Y-83923833D03*
X144318450Y-87220890D03*
X144450000Y-85496700D03*
X146350000Y-86740204D03*
X145802278Y-90941618D03*
X144350000Y-93620989D03*
X146350000Y-87340204D03*
X146250000Y-92977485D03*
X145819059Y-88341601D03*
X143894186Y-87645154D03*
X143469922Y-88069418D03*
X144450000Y-86096700D03*
X146514035Y-85629470D03*
X145445171Y-95788675D03*
X146250000Y-93577485D03*
X145108399Y-84348097D03*
X145869435Y-96212939D03*
X144684135Y-84772361D03*
X144970531Y-89190129D03*
X145394795Y-88765865D03*
X146250000Y-92377485D03*
X144953750Y-90093089D03*
X143735983Y-91496643D03*
X145020907Y-95364411D03*
D13*
%TO.N,/Project Architecture/Cell Sense & Balance/CB0*%
X143100000Y-93700000D03*
%TO.N,/Project Architecture/Cell Sense & Balance/CB1*%
X140750000Y-99000000D03*
%TO.N,/Project Architecture/Cell Sense & Balance/CB4*%
X136741076Y-98925115D03*
%TO.N,/Project Architecture/Cell Sense & Balance/CB7*%
X131750000Y-99000000D03*
%TO.N,/Project Architecture/Cell Sense & Balance/CB6*%
X133250000Y-99000000D03*
%TO.N,/Project Architecture/Cell Sense & Balance/CB2*%
X139550000Y-98927437D03*
%TO.N,/Project Architecture/Cell Sense & Balance/CB8*%
X131716798Y-97846193D03*
%TO.N,/Project Architecture/Cell Sense & Balance/CB3*%
X137995168Y-98989041D03*
%TD*%
M02*
