%TF.GenerationSoftware,KiCad,Pcbnew,10.0.5-unknown-202607221313~667fa36054~ubuntu25.10.1*%
%TF.CreationDate,Date%
%TF.ProjectId,bms_slave,626d735f-736c-4617-9665-2e6b69636164,+ (Unreleased)*%
%TF.SameCoordinates,Original*%
%TF.FileFunction,Copper,L3,Inr*%
%TF.FilePolarity,Positive*%
%FSLAX46Y46*%
G04 Gerber Fmt 4.6, Leading zero omitted, Abs format (unit mm)*
G04 Created by KiCad*
%MOMM*%
%LPD*%
G01*
G04 APERTURE LIST*
%TA.AperFunction,ComponentPad*%
%ADD10C,1.574800*%
%TD*%
%TA.AperFunction,ComponentPad*%
%ADD11C,0.499999*%
%TD*%
%TA.AperFunction,ViaPad*%
%ADD12C,0.600000*%
%TD*%
%TA.AperFunction,ViaPad*%
%ADD13C,0.500000*%
%TD*%
G04 APERTURE END LIST*
D10*
%TO.N,/Project Architecture/Connectors/COML.P*%
%TO.C,J1*%
X170750000Y-97000000D03*
%TO.N,/Project Architecture/Connectors/COML.N*%
X170750000Y-94000001D03*
%TD*%
%TO.N,/Project Architecture/Connectors/T_P8*%
%TO.C,J3*%
X154000000Y-71999999D03*
%TO.N,/Project Architecture/Connectors/T_P7*%
X151000001Y-71999999D03*
%TO.N,/Project Architecture/Connectors/T_P6*%
X148000002Y-71999999D03*
%TO.N,/Project Architecture/Connectors/T_P5*%
X145000002Y-71999999D03*
%TO.N,/Project Architecture/Connectors/T_P4*%
X142000003Y-71999999D03*
%TO.N,/Project Architecture/Connectors/T_P3*%
X139000004Y-71999999D03*
%TO.N,/Project Architecture/Connectors/T_P2*%
X136000005Y-71999999D03*
%TO.N,/Project Architecture/Connectors/T_P1*%
X133000006Y-71999999D03*
%TO.N,/Project Architecture/GND*%
X154000000Y-69000000D03*
X151000001Y-69000000D03*
X148000002Y-69000000D03*
X145000002Y-69000000D03*
X142000003Y-69000000D03*
X139000004Y-69000000D03*
X136000005Y-69000000D03*
X133000006Y-69000000D03*
%TD*%
%TO.N,/Project Architecture/VMODULE*%
%TO.C,J4*%
X93814301Y-95339598D03*
%TO.N,unconnected-(J4-Pad2)*%
X93814301Y-92339599D03*
%TO.N,/Project Architecture/Cell Sense & Balance/TAP8*%
X93814301Y-89339600D03*
%TO.N,/Project Architecture/Cell Sense & Balance/TAP7*%
X93814301Y-86339600D03*
%TO.N,/Project Architecture/Cell Sense & Balance/TAP6*%
X93814301Y-83339601D03*
%TO.N,/Project Architecture/Cell Sense & Balance/TAP5*%
X93814301Y-80339602D03*
%TO.N,/Project Architecture/Cell Sense & Balance/TAP4*%
X96814300Y-95339598D03*
%TO.N,/Project Architecture/Cell Sense & Balance/TAP3*%
X96814300Y-92339599D03*
%TO.N,/Project Architecture/Cell Sense & Balance/TAP2*%
X96814300Y-89339600D03*
%TO.N,/Project Architecture/Cell Sense & Balance/TAP1*%
X96814300Y-86339600D03*
%TO.N,/Project Architecture/Cell Sense & Balance/TAP0*%
X96814300Y-83339601D03*
%TO.N,/Project Architecture/GND*%
X96814300Y-80339602D03*
%TD*%
%TO.N,/Project Architecture/GND*%
%TO.C,J4*%
X76223000Y-102339594D03*
%TO.N,/Project Architecture/Cell Sense & Balance/TAP0*%
X76223000Y-99339595D03*
%TO.N,/Project Architecture/Cell Sense & Balance/TAP1*%
X76223000Y-96339596D03*
%TO.N,/Project Architecture/Cell Sense & Balance/TAP2*%
X76223000Y-93339597D03*
%TO.N,/Project Architecture/Cell Sense & Balance/TAP3*%
X76223000Y-90339598D03*
%TO.N,/Project Architecture/Cell Sense & Balance/TAP4*%
X76223000Y-87339599D03*
%TO.N,/Project Architecture/Cell Sense & Balance/TAP5*%
X76223000Y-84339600D03*
%TO.N,/Project Architecture/Cell Sense & Balance/TAP6*%
X76223000Y-81339601D03*
%TO.N,/Project Architecture/Cell Sense & Balance/TAP7*%
X76223000Y-78339602D03*
%TO.N,/Project Architecture/Cell Sense & Balance/TAP8*%
X76223000Y-75339603D03*
%TO.N,unconnected-(J4-Pad11)*%
X76223000Y-72339604D03*
%TO.N,/Project Architecture/VMODULE*%
X76223000Y-69339605D03*
%TD*%
%TO.N,/Project Architecture/Connectors/COMH.P*%
%TO.C,J2*%
X170750000Y-83000000D03*
%TO.N,/Project Architecture/Connectors/COMH.N*%
X170750000Y-85999999D03*
%TD*%
D11*
%TO.N,/Project Architecture/GND*%
%TO.C,U1*%
X132799998Y-86899998D03*
X132799998Y-88199998D03*
X132799998Y-89500000D03*
X132799998Y-90800000D03*
X132799998Y-92100000D03*
X132799998Y-93400000D03*
X134099998Y-86899998D03*
X134099998Y-88199998D03*
X134099998Y-89500000D03*
X134099998Y-90800000D03*
X134099998Y-92100000D03*
X134099998Y-93400000D03*
X135399998Y-86899998D03*
X135399998Y-88199998D03*
X135399998Y-89500000D03*
X135399998Y-90800000D03*
X135399998Y-92100000D03*
X135399998Y-93400000D03*
X136700000Y-86899998D03*
X136700000Y-88199998D03*
X136700000Y-89500000D03*
X136700000Y-90800000D03*
X136700000Y-92100000D03*
X136700000Y-93400000D03*
X138000000Y-86899998D03*
X138000000Y-88199998D03*
X138000000Y-89500000D03*
X138000000Y-90800000D03*
X138000000Y-92100000D03*
X138000000Y-93400000D03*
X139300000Y-86899998D03*
X139300000Y-88199998D03*
X139300000Y-89500000D03*
X139300000Y-90800000D03*
X139300000Y-92100000D03*
X139300000Y-93400000D03*
%TD*%
D12*
%TO.N,/Project Architecture/Cell Sense & Balance/CB5*%
X135500291Y-97710291D03*
D13*
%TO.N,/Project Architecture/GND*%
X144350000Y-93020989D03*
X145378014Y-90517354D03*
X144450000Y-86696700D03*
X144350000Y-94220989D03*
X144546267Y-89614394D03*
X144350000Y-92420989D03*
X146426543Y-94083039D03*
X144160247Y-91920907D03*
X146250000Y-91777485D03*
X144596642Y-94940147D03*
X146350000Y-86140204D03*
X145532663Y-83923833D03*
X144318450Y-87220890D03*
X144450000Y-85496700D03*
X146350000Y-86740204D03*
X145802278Y-90941618D03*
X144350000Y-93620989D03*
X146350000Y-87340204D03*
X146250000Y-92977485D03*
X145819059Y-88341601D03*
X143894186Y-87645154D03*
X143469922Y-88069418D03*
X144450000Y-86096700D03*
X146514035Y-85629470D03*
X145445171Y-95788675D03*
X146250000Y-93577485D03*
X145108399Y-84348097D03*
X145869435Y-96212939D03*
X143321599Y-91099999D03*
X144684135Y-84772361D03*
X144970531Y-89190129D03*
X145394795Y-88765865D03*
X146250000Y-92377485D03*
X144953750Y-90093089D03*
X143735983Y-91496643D03*
X145020907Y-95364411D03*
D12*
%TO.N,/Project Architecture/Cell Sense & Balance/CB0*%
X118500000Y-106000000D03*
X143100000Y-93700000D03*
X117750000Y-106000000D03*
%TO.N,/Project Architecture/Cell Sense & Balance/CB1*%
X140376927Y-96913986D03*
%TO.N,/Project Architecture/Cell Sense & Balance/CB4*%
X136808716Y-97725000D03*
%TO.N,/Project Architecture/Cell Sense & Balance/CB7*%
X132803985Y-97813454D03*
%TO.N,/Project Architecture/Cell Sense & Balance/CB6*%
X134347061Y-97809670D03*
%TO.N,/Project Architecture/Cell Sense & Balance/CB2*%
X139400059Y-97786910D03*
%TO.N,/Project Architecture/Cell Sense & Balance/CB3*%
X138016981Y-97740269D03*
%TD*%
%TA.AperFunction,Conductor*%
%TO.N,/Project Architecture/GND*%
G36*
X158193039Y-65320185D02*
G01*
X158238794Y-65372989D01*
X158250000Y-65424500D01*
X158250000Y-109575500D01*
X158230315Y-109642539D01*
X158177511Y-109688294D01*
X158126000Y-109699500D01*
X102004428Y-109699500D01*
X101995582Y-109699184D01*
X101766980Y-109682834D01*
X101749468Y-109680316D01*
X101529865Y-109632545D01*
X101512889Y-109627561D01*
X101302308Y-109549018D01*
X101286215Y-109541668D01*
X101088963Y-109433960D01*
X101074080Y-109424395D01*
X100894163Y-109289711D01*
X100880792Y-109278125D01*
X100721874Y-109119207D01*
X100710288Y-109105836D01*
X100575604Y-108925919D01*
X100566039Y-108911036D01*
X100458331Y-108713784D01*
X100450984Y-108697698D01*
X100372435Y-108487102D01*
X100367456Y-108470143D01*
X100319682Y-108250525D01*
X100317165Y-108233019D01*
X100300816Y-108004418D01*
X100300500Y-107995572D01*
X100300500Y-106131995D01*
X101949500Y-106131995D01*
X101949500Y-106368004D01*
X101949501Y-106368020D01*
X101980306Y-106602010D01*
X102041394Y-106829993D01*
X102131714Y-107048045D01*
X102131719Y-107048056D01*
X102202677Y-107170957D01*
X102249727Y-107252450D01*
X102249729Y-107252453D01*
X102249730Y-107252454D01*
X102393406Y-107439697D01*
X102393412Y-107439704D01*
X102560295Y-107606587D01*
X102560301Y-107606592D01*
X102747550Y-107750273D01*
X102878918Y-107826118D01*
X102951943Y-107868280D01*
X102951948Y-107868282D01*
X102951951Y-107868284D01*
X103170007Y-107958606D01*
X103397986Y-108019693D01*
X103631989Y-108050500D01*
X103631996Y-108050500D01*
X103868004Y-108050500D01*
X103868011Y-108050500D01*
X104102014Y-108019693D01*
X104329993Y-107958606D01*
X104548049Y-107868284D01*
X104752450Y-107750273D01*
X104939699Y-107606592D01*
X105106592Y-107439699D01*
X105250273Y-107252450D01*
X105368284Y-107048049D01*
X105458606Y-106829993D01*
X105519693Y-106602014D01*
X105550500Y-106368011D01*
X105550500Y-106131989D01*
X105522715Y-105920943D01*
X117149500Y-105920943D01*
X117149500Y-106079057D01*
X117163681Y-106131979D01*
X117190423Y-106231783D01*
X117190426Y-106231790D01*
X117269475Y-106368709D01*
X117269479Y-106368714D01*
X117269480Y-106368716D01*
X117381284Y-106480520D01*
X117381286Y-106480521D01*
X117381290Y-106480524D01*
X117436999Y-106512687D01*
X117518216Y-106559577D01*
X117670943Y-106600500D01*
X117670945Y-106600500D01*
X117829055Y-106600500D01*
X117829057Y-106600500D01*
X117981784Y-106559577D01*
X118063001Y-106512686D01*
X118130900Y-106496214D01*
X118186998Y-106512686D01*
X118268216Y-106559577D01*
X118420943Y-106600500D01*
X118420945Y-106600500D01*
X118579055Y-106600500D01*
X118579057Y-106600500D01*
X118731784Y-106559577D01*
X118868716Y-106480520D01*
X118980520Y-106368716D01*
X119059577Y-106231784D01*
X119100500Y-106079057D01*
X119100500Y-105920943D01*
X119059577Y-105768216D01*
X119002876Y-105670006D01*
X118980524Y-105631290D01*
X118980518Y-105631282D01*
X118868717Y-105519481D01*
X118868709Y-105519475D01*
X118731790Y-105440426D01*
X118731786Y-105440424D01*
X118731784Y-105440423D01*
X118579057Y-105399500D01*
X118420943Y-105399500D01*
X118268216Y-105440423D01*
X118268215Y-105440423D01*
X118186999Y-105487313D01*
X118119099Y-105503784D01*
X118063001Y-105487313D01*
X117981784Y-105440423D01*
X117829057Y-105399500D01*
X117670943Y-105399500D01*
X117518216Y-105440423D01*
X117518209Y-105440426D01*
X117381290Y-105519475D01*
X117381282Y-105519481D01*
X117269481Y-105631282D01*
X117269475Y-105631290D01*
X117190426Y-105768209D01*
X117190423Y-105768216D01*
X117149500Y-105920943D01*
X105522715Y-105920943D01*
X105519693Y-105897986D01*
X105458606Y-105670007D01*
X105368284Y-105451951D01*
X105368282Y-105451948D01*
X105368280Y-105451943D01*
X105326118Y-105378918D01*
X105250273Y-105247550D01*
X105106592Y-105060301D01*
X105106587Y-105060295D01*
X104939704Y-104893412D01*
X104939697Y-104893406D01*
X104752454Y-104749730D01*
X104752453Y-104749729D01*
X104752450Y-104749727D01*
X104670957Y-104702677D01*
X104548056Y-104631719D01*
X104548045Y-104631714D01*
X104329993Y-104541394D01*
X104102010Y-104480306D01*
X103868020Y-104449501D01*
X103868017Y-104449500D01*
X103868011Y-104449500D01*
X103631989Y-104449500D01*
X103631983Y-104449500D01*
X103631979Y-104449501D01*
X103397989Y-104480306D01*
X103170006Y-104541394D01*
X102951954Y-104631714D01*
X102951943Y-104631719D01*
X102747545Y-104749730D01*
X102560302Y-104893406D01*
X102560295Y-104893412D01*
X102393412Y-105060295D01*
X102393406Y-105060302D01*
X102249730Y-105247545D01*
X102131719Y-105451943D01*
X102131714Y-105451954D01*
X102041394Y-105670006D01*
X101980306Y-105897989D01*
X101949501Y-106131979D01*
X101949500Y-106131995D01*
X100300500Y-106131995D01*
X100300500Y-97734397D01*
X132203485Y-97734397D01*
X132203485Y-97892511D01*
X132237296Y-98018693D01*
X132244408Y-98045237D01*
X132244411Y-98045244D01*
X132323460Y-98182163D01*
X132323464Y-98182168D01*
X132323465Y-98182170D01*
X132435269Y-98293974D01*
X132435271Y-98293975D01*
X132435275Y-98293978D01*
X132489872Y-98325499D01*
X132572201Y-98373031D01*
X132724928Y-98413954D01*
X132724930Y-98413954D01*
X132883040Y-98413954D01*
X132883042Y-98413954D01*
X133035769Y-98373031D01*
X133172701Y-98293974D01*
X133284505Y-98182170D01*
X133363562Y-98045238D01*
X133404485Y-97892511D01*
X133404485Y-97734397D01*
X133403471Y-97730613D01*
X133746561Y-97730613D01*
X133746561Y-97888727D01*
X133781386Y-98018694D01*
X133787484Y-98041453D01*
X133787487Y-98041460D01*
X133866536Y-98178379D01*
X133866540Y-98178384D01*
X133866541Y-98178386D01*
X133978345Y-98290190D01*
X133978347Y-98290191D01*
X133978351Y-98290194D01*
X134039504Y-98325500D01*
X134115277Y-98369247D01*
X134268004Y-98410170D01*
X134268006Y-98410170D01*
X134426116Y-98410170D01*
X134426118Y-98410170D01*
X134578845Y-98369247D01*
X134715777Y-98290190D01*
X134827581Y-98178386D01*
X134853503Y-98133486D01*
X134904066Y-98085273D01*
X134972673Y-98072048D01*
X135037538Y-98098014D01*
X135048570Y-98107806D01*
X135131575Y-98190811D01*
X135131577Y-98190812D01*
X135131581Y-98190815D01*
X135264281Y-98267428D01*
X135268507Y-98269868D01*
X135421234Y-98310791D01*
X135421236Y-98310791D01*
X135579346Y-98310791D01*
X135579348Y-98310791D01*
X135732075Y-98269868D01*
X135869007Y-98190811D01*
X135980811Y-98079007D01*
X136042870Y-97971515D01*
X136093436Y-97923301D01*
X136162043Y-97910077D01*
X136226908Y-97936045D01*
X136257644Y-97971516D01*
X136328193Y-98093712D01*
X136328195Y-98093715D01*
X136328196Y-98093716D01*
X136440000Y-98205520D01*
X136440002Y-98205521D01*
X136440006Y-98205524D01*
X136547229Y-98267428D01*
X136576932Y-98284577D01*
X136729659Y-98325500D01*
X136729661Y-98325500D01*
X136887771Y-98325500D01*
X136887773Y-98325500D01*
X137040500Y-98284577D01*
X137177432Y-98205520D01*
X137289236Y-98093716D01*
X137301054Y-98073247D01*
X137351616Y-98025033D01*
X137420223Y-98011808D01*
X137485089Y-98037774D01*
X137515827Y-98073247D01*
X137536458Y-98108981D01*
X137536460Y-98108984D01*
X137536461Y-98108985D01*
X137648265Y-98220789D01*
X137648267Y-98220790D01*
X137648271Y-98220793D01*
X137729050Y-98267430D01*
X137785197Y-98299846D01*
X137937924Y-98340769D01*
X137937926Y-98340769D01*
X138096036Y-98340769D01*
X138096038Y-98340769D01*
X138248765Y-98299846D01*
X138385697Y-98220789D01*
X138497501Y-98108985D01*
X138576558Y-97972053D01*
X138582496Y-97949888D01*
X138618860Y-97890229D01*
X138681706Y-97859699D01*
X138751082Y-97867993D01*
X138804960Y-97912477D01*
X138822044Y-97949885D01*
X138827841Y-97971516D01*
X138840482Y-98018695D01*
X138840485Y-98018700D01*
X138919534Y-98155619D01*
X138919538Y-98155624D01*
X138919539Y-98155626D01*
X139031343Y-98267430D01*
X139031345Y-98267431D01*
X139031349Y-98267434D01*
X139106445Y-98310790D01*
X139168275Y-98346487D01*
X139321002Y-98387410D01*
X139321004Y-98387410D01*
X139479114Y-98387410D01*
X139479116Y-98387410D01*
X139631843Y-98346487D01*
X139768775Y-98267430D01*
X139880579Y-98155626D01*
X139959636Y-98018694D01*
X140000559Y-97865967D01*
X140000559Y-97707853D01*
X139976971Y-97619821D01*
X139978634Y-97549978D01*
X140017796Y-97492115D01*
X140082024Y-97464610D01*
X140137095Y-97472192D01*
X140137292Y-97471459D01*
X140143130Y-97473023D01*
X140144195Y-97473170D01*
X140145136Y-97473559D01*
X140145143Y-97473563D01*
X140297870Y-97514486D01*
X140297872Y-97514486D01*
X140455982Y-97514486D01*
X140455984Y-97514486D01*
X140608711Y-97473563D01*
X140745643Y-97394506D01*
X140857447Y-97282702D01*
X140936504Y-97145770D01*
X140977427Y-96993043D01*
X140977427Y-96834929D01*
X140936504Y-96682202D01*
X140886612Y-96595785D01*
X140857451Y-96545276D01*
X140857445Y-96545268D01*
X140745644Y-96433467D01*
X140745636Y-96433461D01*
X140608717Y-96354412D01*
X140608713Y-96354410D01*
X140608711Y-96354409D01*
X140455984Y-96313486D01*
X140297870Y-96313486D01*
X140145143Y-96354409D01*
X140145136Y-96354412D01*
X140008217Y-96433461D01*
X140008209Y-96433467D01*
X139896408Y-96545268D01*
X139896402Y-96545276D01*
X139817353Y-96682195D01*
X139817350Y-96682202D01*
X139776427Y-96834929D01*
X139776427Y-96993043D01*
X139800013Y-97081070D01*
X139798351Y-97150918D01*
X139759189Y-97208781D01*
X139694960Y-97236285D01*
X139639890Y-97228704D01*
X139639694Y-97229437D01*
X139633864Y-97227874D01*
X139632797Y-97227728D01*
X139631845Y-97227334D01*
X139631844Y-97227333D01*
X139631843Y-97227333D01*
X139479116Y-97186410D01*
X139321002Y-97186410D01*
X139168275Y-97227333D01*
X139168268Y-97227336D01*
X139031349Y-97306385D01*
X139031341Y-97306391D01*
X138919540Y-97418192D01*
X138919534Y-97418200D01*
X138840485Y-97555119D01*
X138840481Y-97555129D01*
X138834542Y-97577292D01*
X138798176Y-97636952D01*
X138735328Y-97667480D01*
X138665953Y-97659183D01*
X138612076Y-97614696D01*
X138594995Y-97577293D01*
X138576558Y-97508485D01*
X138567107Y-97492115D01*
X138497505Y-97371559D01*
X138497499Y-97371551D01*
X138385698Y-97259750D01*
X138385690Y-97259744D01*
X138248771Y-97180695D01*
X138248767Y-97180693D01*
X138248765Y-97180692D01*
X138096038Y-97139769D01*
X137937924Y-97139769D01*
X137785197Y-97180692D01*
X137785190Y-97180695D01*
X137648271Y-97259744D01*
X137648263Y-97259750D01*
X137536462Y-97371551D01*
X137536456Y-97371559D01*
X137524642Y-97392022D01*
X137474075Y-97440237D01*
X137405468Y-97453459D01*
X137340603Y-97427491D01*
X137309869Y-97392021D01*
X137289238Y-97356287D01*
X137289234Y-97356282D01*
X137177433Y-97244481D01*
X137177425Y-97244475D01*
X137040506Y-97165426D01*
X137040502Y-97165424D01*
X137040500Y-97165423D01*
X136887773Y-97124500D01*
X136729659Y-97124500D01*
X136576932Y-97165423D01*
X136576925Y-97165426D01*
X136440006Y-97244475D01*
X136439998Y-97244481D01*
X136328197Y-97356282D01*
X136328193Y-97356287D01*
X136266136Y-97463774D01*
X136215569Y-97511990D01*
X136146962Y-97525213D01*
X136082097Y-97499244D01*
X136051361Y-97463773D01*
X135980811Y-97341575D01*
X135869007Y-97229771D01*
X135869005Y-97229770D01*
X135869000Y-97229766D01*
X135732081Y-97150717D01*
X135732077Y-97150715D01*
X135732075Y-97150714D01*
X135579348Y-97109791D01*
X135421234Y-97109791D01*
X135268507Y-97150714D01*
X135268500Y-97150717D01*
X135131581Y-97229766D01*
X135131573Y-97229772D01*
X135019772Y-97341573D01*
X135019768Y-97341578D01*
X134993849Y-97386473D01*
X134943283Y-97434688D01*
X134874676Y-97447912D01*
X134809811Y-97421944D01*
X134798781Y-97412154D01*
X134715778Y-97329151D01*
X134715770Y-97329145D01*
X134578851Y-97250096D01*
X134578847Y-97250094D01*
X134578845Y-97250093D01*
X134426118Y-97209170D01*
X134268004Y-97209170D01*
X134115277Y-97250093D01*
X134115270Y-97250096D01*
X133978351Y-97329145D01*
X133978343Y-97329151D01*
X133866542Y-97440952D01*
X133866536Y-97440960D01*
X133787487Y-97577879D01*
X133787484Y-97577886D01*
X133746561Y-97730613D01*
X133403471Y-97730613D01*
X133363562Y-97581670D01*
X133321309Y-97508485D01*
X133284509Y-97444744D01*
X133284503Y-97444736D01*
X133172702Y-97332935D01*
X133172694Y-97332929D01*
X133035775Y-97253880D01*
X133035771Y-97253878D01*
X133035769Y-97253877D01*
X132883042Y-97212954D01*
X132724928Y-97212954D01*
X132572201Y-97253877D01*
X132572194Y-97253880D01*
X132435275Y-97332929D01*
X132435267Y-97332935D01*
X132323466Y-97444736D01*
X132323460Y-97444744D01*
X132244411Y-97581663D01*
X132244408Y-97581670D01*
X132203485Y-97734397D01*
X100300500Y-97734397D01*
X100300500Y-94077576D01*
X132475971Y-94077576D01*
X132581230Y-94121176D01*
X132581238Y-94121178D01*
X132726125Y-94149998D01*
X132726129Y-94149999D01*
X132873867Y-94149999D01*
X132873870Y-94149998D01*
X133018757Y-94121178D01*
X133018765Y-94121176D01*
X133124023Y-94077576D01*
X133775971Y-94077576D01*
X133881230Y-94121176D01*
X133881238Y-94121178D01*
X134026125Y-94149998D01*
X134026129Y-94149999D01*
X134173867Y-94149999D01*
X134173870Y-94149998D01*
X134318757Y-94121178D01*
X134318765Y-94121176D01*
X134424023Y-94077576D01*
X135075971Y-94077576D01*
X135181230Y-94121176D01*
X135181238Y-94121178D01*
X135326125Y-94149998D01*
X135326129Y-94149999D01*
X135473867Y-94149999D01*
X135473870Y-94149998D01*
X135618757Y-94121178D01*
X135618765Y-94121176D01*
X135724023Y-94077576D01*
X136375973Y-94077576D01*
X136481232Y-94121176D01*
X136481240Y-94121178D01*
X136626127Y-94149998D01*
X136626131Y-94149999D01*
X136773869Y-94149999D01*
X136773872Y-94149998D01*
X136918759Y-94121178D01*
X136918767Y-94121176D01*
X137024025Y-94077576D01*
X137675973Y-94077576D01*
X137781232Y-94121176D01*
X137781240Y-94121178D01*
X137926127Y-94149998D01*
X137926131Y-94149999D01*
X138073869Y-94149999D01*
X138073872Y-94149998D01*
X138218759Y-94121178D01*
X138218767Y-94121176D01*
X138324025Y-94077576D01*
X138975973Y-94077576D01*
X139081232Y-94121176D01*
X139081240Y-94121178D01*
X139226127Y-94149998D01*
X139226131Y-94149999D01*
X139373869Y-94149999D01*
X139373872Y-94149998D01*
X139518759Y-94121178D01*
X139518767Y-94121176D01*
X139624025Y-94077576D01*
X139300001Y-93753552D01*
X139300000Y-93753552D01*
X138975973Y-94077576D01*
X138324025Y-94077576D01*
X138000001Y-93753552D01*
X138000000Y-93753552D01*
X137675973Y-94077576D01*
X137024025Y-94077576D01*
X136700001Y-93753552D01*
X136700000Y-93753552D01*
X136375973Y-94077576D01*
X135724023Y-94077576D01*
X135399999Y-93753552D01*
X135399998Y-93753552D01*
X135075971Y-94077576D01*
X134424023Y-94077576D01*
X134099999Y-93753552D01*
X134099998Y-93753552D01*
X133775971Y-94077576D01*
X133124023Y-94077576D01*
X132799999Y-93753552D01*
X132799998Y-93753552D01*
X132475971Y-94077576D01*
X100300500Y-94077576D01*
X100300500Y-93326127D01*
X132049999Y-93326127D01*
X132049999Y-93473872D01*
X132078818Y-93618759D01*
X132078821Y-93618768D01*
X132122419Y-93724024D01*
X132446446Y-93400000D01*
X132426237Y-93379791D01*
X132698398Y-93379791D01*
X132698398Y-93420209D01*
X132713866Y-93457552D01*
X132742446Y-93486132D01*
X132779789Y-93501600D01*
X132820207Y-93501600D01*
X132857550Y-93486132D01*
X132886130Y-93457552D01*
X132901598Y-93420209D01*
X132901598Y-93400000D01*
X133153550Y-93400000D01*
X133449998Y-93696448D01*
X133746446Y-93400000D01*
X133726237Y-93379791D01*
X133998398Y-93379791D01*
X133998398Y-93420209D01*
X134013866Y-93457552D01*
X134042446Y-93486132D01*
X134079789Y-93501600D01*
X134120207Y-93501600D01*
X134157550Y-93486132D01*
X134186130Y-93457552D01*
X134201598Y-93420209D01*
X134201598Y-93400000D01*
X134453550Y-93400000D01*
X134749998Y-93696448D01*
X135046446Y-93400000D01*
X135026237Y-93379791D01*
X135298398Y-93379791D01*
X135298398Y-93420209D01*
X135313866Y-93457552D01*
X135342446Y-93486132D01*
X135379789Y-93501600D01*
X135420207Y-93501600D01*
X135457550Y-93486132D01*
X135486130Y-93457552D01*
X135501598Y-93420209D01*
X135501598Y-93400000D01*
X135753550Y-93400000D01*
X136049999Y-93696449D01*
X136346448Y-93400000D01*
X136326239Y-93379791D01*
X136598400Y-93379791D01*
X136598400Y-93420209D01*
X136613868Y-93457552D01*
X136642448Y-93486132D01*
X136679791Y-93501600D01*
X136720209Y-93501600D01*
X136757552Y-93486132D01*
X136786132Y-93457552D01*
X136801600Y-93420209D01*
X136801600Y-93400000D01*
X137053552Y-93400000D01*
X137350000Y-93696448D01*
X137646448Y-93400000D01*
X137626239Y-93379791D01*
X137898400Y-93379791D01*
X137898400Y-93420209D01*
X137913868Y-93457552D01*
X137942448Y-93486132D01*
X137979791Y-93501600D01*
X138020209Y-93501600D01*
X138057552Y-93486132D01*
X138086132Y-93457552D01*
X138101600Y-93420209D01*
X138101600Y-93400000D01*
X138353552Y-93400000D01*
X138650000Y-93696448D01*
X138946448Y-93400000D01*
X138926239Y-93379791D01*
X139198400Y-93379791D01*
X139198400Y-93420209D01*
X139213868Y-93457552D01*
X139242448Y-93486132D01*
X139279791Y-93501600D01*
X139320209Y-93501600D01*
X139357552Y-93486132D01*
X139386132Y-93457552D01*
X139401600Y-93420209D01*
X139401600Y-93399999D01*
X139653552Y-93399999D01*
X139653552Y-93400001D01*
X139977576Y-93724025D01*
X140020275Y-93620943D01*
X142499500Y-93620943D01*
X142499500Y-93779056D01*
X142540423Y-93931783D01*
X142540426Y-93931790D01*
X142619475Y-94068709D01*
X142619479Y-94068714D01*
X142619480Y-94068716D01*
X142731284Y-94180520D01*
X142731286Y-94180521D01*
X142731290Y-94180524D01*
X142868209Y-94259573D01*
X142868216Y-94259577D01*
X143020943Y-94300500D01*
X143020945Y-94300500D01*
X143179055Y-94300500D01*
X143179057Y-94300500D01*
X143331784Y-94259577D01*
X143468716Y-94180520D01*
X143580520Y-94068716D01*
X143659577Y-93931784D01*
X143700500Y-93779057D01*
X143700500Y-93620943D01*
X143659577Y-93468216D01*
X143643927Y-93441109D01*
X143580524Y-93331290D01*
X143580518Y-93331282D01*
X143468717Y-93219481D01*
X143468709Y-93219475D01*
X143331790Y-93140426D01*
X143331786Y-93140424D01*
X143331784Y-93140423D01*
X143179057Y-93099500D01*
X143020943Y-93099500D01*
X142868216Y-93140423D01*
X142868209Y-93140426D01*
X142731290Y-93219475D01*
X142731282Y-93219481D01*
X142619481Y-93331282D01*
X142619475Y-93331290D01*
X142540426Y-93468209D01*
X142540423Y-93468216D01*
X142499500Y-93620943D01*
X140020275Y-93620943D01*
X140021176Y-93618767D01*
X140021178Y-93618759D01*
X140027173Y-93588625D01*
X140049998Y-93473872D01*
X140049999Y-93473869D01*
X140049999Y-93326131D01*
X140049998Y-93326127D01*
X140021178Y-93181240D01*
X140021176Y-93181232D01*
X139977576Y-93075973D01*
X139653552Y-93399999D01*
X139401600Y-93399999D01*
X139401600Y-93379791D01*
X139386132Y-93342448D01*
X139357552Y-93313868D01*
X139320209Y-93298400D01*
X139279791Y-93298400D01*
X139242448Y-93313868D01*
X139213868Y-93342448D01*
X139198400Y-93379791D01*
X138926239Y-93379791D01*
X138650000Y-93103552D01*
X138353552Y-93400000D01*
X138101600Y-93400000D01*
X138101600Y-93379791D01*
X138086132Y-93342448D01*
X138057552Y-93313868D01*
X138020209Y-93298400D01*
X137979791Y-93298400D01*
X137942448Y-93313868D01*
X137913868Y-93342448D01*
X137898400Y-93379791D01*
X137626239Y-93379791D01*
X137350000Y-93103552D01*
X137053552Y-93400000D01*
X136801600Y-93400000D01*
X136801600Y-93379791D01*
X136786132Y-93342448D01*
X136757552Y-93313868D01*
X136720209Y-93298400D01*
X136679791Y-93298400D01*
X136642448Y-93313868D01*
X136613868Y-93342448D01*
X136598400Y-93379791D01*
X136326239Y-93379791D01*
X136049999Y-93103551D01*
X135753550Y-93400000D01*
X135501598Y-93400000D01*
X135501598Y-93379791D01*
X135486130Y-93342448D01*
X135457550Y-93313868D01*
X135420207Y-93298400D01*
X135379789Y-93298400D01*
X135342446Y-93313868D01*
X135313866Y-93342448D01*
X135298398Y-93379791D01*
X135026237Y-93379791D01*
X134749998Y-93103552D01*
X134453550Y-93400000D01*
X134201598Y-93400000D01*
X134201598Y-93379791D01*
X134186130Y-93342448D01*
X134157550Y-93313868D01*
X134120207Y-93298400D01*
X134079789Y-93298400D01*
X134042446Y-93313868D01*
X134013866Y-93342448D01*
X133998398Y-93379791D01*
X133726237Y-93379791D01*
X133449998Y-93103552D01*
X133153550Y-93400000D01*
X132901598Y-93400000D01*
X132901598Y-93379791D01*
X132886130Y-93342448D01*
X132857550Y-93313868D01*
X132820207Y-93298400D01*
X132779789Y-93298400D01*
X132742446Y-93313868D01*
X132713866Y-93342448D01*
X132698398Y-93379791D01*
X132426237Y-93379791D01*
X132122420Y-93075974D01*
X132078820Y-93181236D01*
X132078818Y-93181240D01*
X132049999Y-93326127D01*
X100300500Y-93326127D01*
X100300500Y-92750000D01*
X132503550Y-92750000D01*
X132799998Y-93046448D01*
X133096446Y-92750000D01*
X133803550Y-92750000D01*
X134099998Y-93046448D01*
X134396446Y-92750000D01*
X135103550Y-92750000D01*
X135399998Y-93046448D01*
X135696446Y-92750000D01*
X136403552Y-92750000D01*
X136700000Y-93046448D01*
X136996448Y-92750000D01*
X137703552Y-92750000D01*
X138000000Y-93046448D01*
X138296448Y-92750000D01*
X139003552Y-92750000D01*
X139300000Y-93046448D01*
X139596448Y-92750000D01*
X139300000Y-92453552D01*
X139003552Y-92750000D01*
X138296448Y-92750000D01*
X138000000Y-92453552D01*
X137703552Y-92750000D01*
X136996448Y-92750000D01*
X136700000Y-92453552D01*
X136403552Y-92750000D01*
X135696446Y-92750000D01*
X135399998Y-92453552D01*
X135103550Y-92750000D01*
X134396446Y-92750000D01*
X134099998Y-92453552D01*
X133803550Y-92750000D01*
X133096446Y-92750000D01*
X132799998Y-92453552D01*
X132503550Y-92750000D01*
X100300500Y-92750000D01*
X100300500Y-92026127D01*
X132049999Y-92026127D01*
X132049999Y-92173872D01*
X132078818Y-92318759D01*
X132078821Y-92318768D01*
X132122419Y-92424024D01*
X132446446Y-92100000D01*
X132426237Y-92079791D01*
X132698398Y-92079791D01*
X132698398Y-92120209D01*
X132713866Y-92157552D01*
X132742446Y-92186132D01*
X132779789Y-92201600D01*
X132820207Y-92201600D01*
X132857550Y-92186132D01*
X132886130Y-92157552D01*
X132901598Y-92120209D01*
X132901598Y-92100000D01*
X133153550Y-92100000D01*
X133449998Y-92396448D01*
X133746446Y-92100000D01*
X133726237Y-92079791D01*
X133998398Y-92079791D01*
X133998398Y-92120209D01*
X134013866Y-92157552D01*
X134042446Y-92186132D01*
X134079789Y-92201600D01*
X134120207Y-92201600D01*
X134157550Y-92186132D01*
X134186130Y-92157552D01*
X134201598Y-92120209D01*
X134201598Y-92100000D01*
X134453550Y-92100000D01*
X134749998Y-92396448D01*
X135046446Y-92100000D01*
X135026237Y-92079791D01*
X135298398Y-92079791D01*
X135298398Y-92120209D01*
X135313866Y-92157552D01*
X135342446Y-92186132D01*
X135379789Y-92201600D01*
X135420207Y-92201600D01*
X135457550Y-92186132D01*
X135486130Y-92157552D01*
X135501598Y-92120209D01*
X135501598Y-92100000D01*
X135753550Y-92100000D01*
X136049999Y-92396449D01*
X136346448Y-92100000D01*
X136326239Y-92079791D01*
X136598400Y-92079791D01*
X136598400Y-92120209D01*
X136613868Y-92157552D01*
X136642448Y-92186132D01*
X136679791Y-92201600D01*
X136720209Y-92201600D01*
X136757552Y-92186132D01*
X136786132Y-92157552D01*
X136801600Y-92120209D01*
X136801600Y-92100000D01*
X137053552Y-92100000D01*
X137350000Y-92396448D01*
X137646448Y-92100000D01*
X137626239Y-92079791D01*
X137898400Y-92079791D01*
X137898400Y-92120209D01*
X137913868Y-92157552D01*
X137942448Y-92186132D01*
X137979791Y-92201600D01*
X138020209Y-92201600D01*
X138057552Y-92186132D01*
X138086132Y-92157552D01*
X138101600Y-92120209D01*
X138101600Y-92100000D01*
X138353552Y-92100000D01*
X138650000Y-92396448D01*
X138946448Y-92100000D01*
X138926239Y-92079791D01*
X139198400Y-92079791D01*
X139198400Y-92120209D01*
X139213868Y-92157552D01*
X139242448Y-92186132D01*
X139279791Y-92201600D01*
X139320209Y-92201600D01*
X139357552Y-92186132D01*
X139386132Y-92157552D01*
X139401600Y-92120209D01*
X139401600Y-92099999D01*
X139653552Y-92099999D01*
X139653552Y-92100001D01*
X139977576Y-92424025D01*
X140021176Y-92318767D01*
X140021178Y-92318759D01*
X140049998Y-92173872D01*
X140049999Y-92173869D01*
X140049999Y-92026131D01*
X140049998Y-92026127D01*
X140021178Y-91881240D01*
X140021176Y-91881232D01*
X139977576Y-91775973D01*
X139653552Y-92099999D01*
X139401600Y-92099999D01*
X139401600Y-92079791D01*
X139386132Y-92042448D01*
X139357552Y-92013868D01*
X139320209Y-91998400D01*
X139279791Y-91998400D01*
X139242448Y-92013868D01*
X139213868Y-92042448D01*
X139198400Y-92079791D01*
X138926239Y-92079791D01*
X138650000Y-91803552D01*
X138353552Y-92100000D01*
X138101600Y-92100000D01*
X138101600Y-92079791D01*
X138086132Y-92042448D01*
X138057552Y-92013868D01*
X138020209Y-91998400D01*
X137979791Y-91998400D01*
X137942448Y-92013868D01*
X137913868Y-92042448D01*
X137898400Y-92079791D01*
X137626239Y-92079791D01*
X137350000Y-91803552D01*
X137053552Y-92100000D01*
X136801600Y-92100000D01*
X136801600Y-92079791D01*
X136786132Y-92042448D01*
X136757552Y-92013868D01*
X136720209Y-91998400D01*
X136679791Y-91998400D01*
X136642448Y-92013868D01*
X136613868Y-92042448D01*
X136598400Y-92079791D01*
X136326239Y-92079791D01*
X136049999Y-91803551D01*
X135753550Y-92100000D01*
X135501598Y-92100000D01*
X135501598Y-92079791D01*
X135486130Y-92042448D01*
X135457550Y-92013868D01*
X135420207Y-91998400D01*
X135379789Y-91998400D01*
X135342446Y-92013868D01*
X135313866Y-92042448D01*
X135298398Y-92079791D01*
X135026237Y-92079791D01*
X134749998Y-91803552D01*
X134453550Y-92100000D01*
X134201598Y-92100000D01*
X134201598Y-92079791D01*
X134186130Y-92042448D01*
X134157550Y-92013868D01*
X134120207Y-91998400D01*
X134079789Y-91998400D01*
X134042446Y-92013868D01*
X134013866Y-92042448D01*
X133998398Y-92079791D01*
X133726237Y-92079791D01*
X133449998Y-91803552D01*
X133153550Y-92100000D01*
X132901598Y-92100000D01*
X132901598Y-92079791D01*
X132886130Y-92042448D01*
X132857550Y-92013868D01*
X132820207Y-91998400D01*
X132779789Y-91998400D01*
X132742446Y-92013868D01*
X132713866Y-92042448D01*
X132698398Y-92079791D01*
X132426237Y-92079791D01*
X132122420Y-91775974D01*
X132078820Y-91881236D01*
X132078818Y-91881240D01*
X132049999Y-92026127D01*
X100300500Y-92026127D01*
X100300500Y-91450000D01*
X132503550Y-91450000D01*
X132799998Y-91746448D01*
X133096446Y-91450000D01*
X133803550Y-91450000D01*
X134099998Y-91746448D01*
X134396446Y-91450000D01*
X135103550Y-91450000D01*
X135399998Y-91746448D01*
X135696446Y-91450000D01*
X136403552Y-91450000D01*
X136700000Y-91746448D01*
X136996448Y-91450000D01*
X137703552Y-91450000D01*
X138000000Y-91746448D01*
X138296448Y-91450000D01*
X139003552Y-91450000D01*
X139300000Y-91746448D01*
X139596448Y-91450000D01*
X139300000Y-91153552D01*
X139003552Y-91450000D01*
X138296448Y-91450000D01*
X138000000Y-91153552D01*
X137703552Y-91450000D01*
X136996448Y-91450000D01*
X136700000Y-91153552D01*
X136403552Y-91450000D01*
X135696446Y-91450000D01*
X135399998Y-91153552D01*
X135103550Y-91450000D01*
X134396446Y-91450000D01*
X134099998Y-91153552D01*
X133803550Y-91450000D01*
X133096446Y-91450000D01*
X132799998Y-91153552D01*
X132503550Y-91450000D01*
X100300500Y-91450000D01*
X100300500Y-90726127D01*
X132049999Y-90726127D01*
X132049999Y-90873872D01*
X132078818Y-91018759D01*
X132078821Y-91018768D01*
X132122419Y-91124024D01*
X132446446Y-90800000D01*
X132426237Y-90779791D01*
X132698398Y-90779791D01*
X132698398Y-90820209D01*
X132713866Y-90857552D01*
X132742446Y-90886132D01*
X132779789Y-90901600D01*
X132820207Y-90901600D01*
X132857550Y-90886132D01*
X132886130Y-90857552D01*
X132901598Y-90820209D01*
X132901598Y-90800000D01*
X133153550Y-90800000D01*
X133449998Y-91096448D01*
X133746446Y-90800000D01*
X133726237Y-90779791D01*
X133998398Y-90779791D01*
X133998398Y-90820209D01*
X134013866Y-90857552D01*
X134042446Y-90886132D01*
X134079789Y-90901600D01*
X134120207Y-90901600D01*
X134157550Y-90886132D01*
X134186130Y-90857552D01*
X134201598Y-90820209D01*
X134201598Y-90800000D01*
X134453550Y-90800000D01*
X134749998Y-91096448D01*
X135046446Y-90800000D01*
X135026237Y-90779791D01*
X135298398Y-90779791D01*
X135298398Y-90820209D01*
X135313866Y-90857552D01*
X135342446Y-90886132D01*
X135379789Y-90901600D01*
X135420207Y-90901600D01*
X135457550Y-90886132D01*
X135486130Y-90857552D01*
X135501598Y-90820209D01*
X135501598Y-90800000D01*
X135753550Y-90800000D01*
X136049999Y-91096449D01*
X136346448Y-90800000D01*
X136326239Y-90779791D01*
X136598400Y-90779791D01*
X136598400Y-90820209D01*
X136613868Y-90857552D01*
X136642448Y-90886132D01*
X136679791Y-90901600D01*
X136720209Y-90901600D01*
X136757552Y-90886132D01*
X136786132Y-90857552D01*
X136801600Y-90820209D01*
X136801600Y-90800000D01*
X137053552Y-90800000D01*
X137350000Y-91096448D01*
X137646448Y-90800000D01*
X137626239Y-90779791D01*
X137898400Y-90779791D01*
X137898400Y-90820209D01*
X137913868Y-90857552D01*
X137942448Y-90886132D01*
X137979791Y-90901600D01*
X138020209Y-90901600D01*
X138057552Y-90886132D01*
X138086132Y-90857552D01*
X138101600Y-90820209D01*
X138101600Y-90800000D01*
X138353552Y-90800000D01*
X138650000Y-91096448D01*
X138946448Y-90800000D01*
X138926239Y-90779791D01*
X139198400Y-90779791D01*
X139198400Y-90820209D01*
X139213868Y-90857552D01*
X139242448Y-90886132D01*
X139279791Y-90901600D01*
X139320209Y-90901600D01*
X139357552Y-90886132D01*
X139386132Y-90857552D01*
X139401600Y-90820209D01*
X139401600Y-90799999D01*
X139653552Y-90799999D01*
X139653552Y-90800001D01*
X139977576Y-91124025D01*
X140021176Y-91018767D01*
X140021178Y-91018759D01*
X140049998Y-90873872D01*
X140049999Y-90873869D01*
X140049999Y-90726131D01*
X140049998Y-90726127D01*
X140021178Y-90581240D01*
X140021176Y-90581232D01*
X139977576Y-90475973D01*
X139653552Y-90799999D01*
X139401600Y-90799999D01*
X139401600Y-90779791D01*
X139386132Y-90742448D01*
X139357552Y-90713868D01*
X139320209Y-90698400D01*
X139279791Y-90698400D01*
X139242448Y-90713868D01*
X139213868Y-90742448D01*
X139198400Y-90779791D01*
X138926239Y-90779791D01*
X138650000Y-90503552D01*
X138353552Y-90800000D01*
X138101600Y-90800000D01*
X138101600Y-90779791D01*
X138086132Y-90742448D01*
X138057552Y-90713868D01*
X138020209Y-90698400D01*
X137979791Y-90698400D01*
X137942448Y-90713868D01*
X137913868Y-90742448D01*
X137898400Y-90779791D01*
X137626239Y-90779791D01*
X137350000Y-90503552D01*
X137053552Y-90800000D01*
X136801600Y-90800000D01*
X136801600Y-90779791D01*
X136786132Y-90742448D01*
X136757552Y-90713868D01*
X136720209Y-90698400D01*
X136679791Y-90698400D01*
X136642448Y-90713868D01*
X136613868Y-90742448D01*
X136598400Y-90779791D01*
X136326239Y-90779791D01*
X136049999Y-90503551D01*
X135753550Y-90800000D01*
X135501598Y-90800000D01*
X135501598Y-90779791D01*
X135486130Y-90742448D01*
X135457550Y-90713868D01*
X135420207Y-90698400D01*
X135379789Y-90698400D01*
X135342446Y-90713868D01*
X135313866Y-90742448D01*
X135298398Y-90779791D01*
X135026237Y-90779791D01*
X134749998Y-90503552D01*
X134453550Y-90800000D01*
X134201598Y-90800000D01*
X134201598Y-90779791D01*
X134186130Y-90742448D01*
X134157550Y-90713868D01*
X134120207Y-90698400D01*
X134079789Y-90698400D01*
X134042446Y-90713868D01*
X134013866Y-90742448D01*
X133998398Y-90779791D01*
X133726237Y-90779791D01*
X133449998Y-90503552D01*
X133153550Y-90800000D01*
X132901598Y-90800000D01*
X132901598Y-90779791D01*
X132886130Y-90742448D01*
X132857550Y-90713868D01*
X132820207Y-90698400D01*
X132779789Y-90698400D01*
X132742446Y-90713868D01*
X132713866Y-90742448D01*
X132698398Y-90779791D01*
X132426237Y-90779791D01*
X132122420Y-90475974D01*
X132078820Y-90581236D01*
X132078818Y-90581240D01*
X132049999Y-90726127D01*
X100300500Y-90726127D01*
X100300500Y-90150000D01*
X132503550Y-90150000D01*
X132799998Y-90446448D01*
X133096446Y-90150000D01*
X133803550Y-90150000D01*
X134099998Y-90446448D01*
X134396446Y-90150000D01*
X135103550Y-90150000D01*
X135399998Y-90446448D01*
X135696446Y-90150000D01*
X136403552Y-90150000D01*
X136700000Y-90446448D01*
X136996448Y-90150000D01*
X137703552Y-90150000D01*
X138000000Y-90446448D01*
X138296448Y-90150000D01*
X139003552Y-90150000D01*
X139300000Y-90446448D01*
X139596448Y-90150000D01*
X139300000Y-89853552D01*
X139003552Y-90150000D01*
X138296448Y-90150000D01*
X138000000Y-89853552D01*
X137703552Y-90150000D01*
X136996448Y-90150000D01*
X136700000Y-89853552D01*
X136403552Y-90150000D01*
X135696446Y-90150000D01*
X135399998Y-89853552D01*
X135103550Y-90150000D01*
X134396446Y-90150000D01*
X134099998Y-89853552D01*
X133803550Y-90150000D01*
X133096446Y-90150000D01*
X132799998Y-89853552D01*
X132503550Y-90150000D01*
X100300500Y-90150000D01*
X100300500Y-89426127D01*
X132049999Y-89426127D01*
X132049999Y-89573872D01*
X132078818Y-89718759D01*
X132078821Y-89718768D01*
X132122419Y-89824024D01*
X132446446Y-89500000D01*
X132426237Y-89479791D01*
X132698398Y-89479791D01*
X132698398Y-89520209D01*
X132713866Y-89557552D01*
X132742446Y-89586132D01*
X132779789Y-89601600D01*
X132820207Y-89601600D01*
X132857550Y-89586132D01*
X132886130Y-89557552D01*
X132901598Y-89520209D01*
X132901598Y-89500000D01*
X133153550Y-89500000D01*
X133449998Y-89796448D01*
X133746446Y-89500000D01*
X133726237Y-89479791D01*
X133998398Y-89479791D01*
X133998398Y-89520209D01*
X134013866Y-89557552D01*
X134042446Y-89586132D01*
X134079789Y-89601600D01*
X134120207Y-89601600D01*
X134157550Y-89586132D01*
X134186130Y-89557552D01*
X134201598Y-89520209D01*
X134201598Y-89500000D01*
X134453550Y-89500000D01*
X134749998Y-89796448D01*
X135046446Y-89500000D01*
X135026237Y-89479791D01*
X135298398Y-89479791D01*
X135298398Y-89520209D01*
X135313866Y-89557552D01*
X135342446Y-89586132D01*
X135379789Y-89601600D01*
X135420207Y-89601600D01*
X135457550Y-89586132D01*
X135486130Y-89557552D01*
X135501598Y-89520209D01*
X135501598Y-89500000D01*
X135753550Y-89500000D01*
X136049999Y-89796449D01*
X136346448Y-89500000D01*
X136326239Y-89479791D01*
X136598400Y-89479791D01*
X136598400Y-89520209D01*
X136613868Y-89557552D01*
X136642448Y-89586132D01*
X136679791Y-89601600D01*
X136720209Y-89601600D01*
X136757552Y-89586132D01*
X136786132Y-89557552D01*
X136801600Y-89520209D01*
X136801600Y-89500000D01*
X137053552Y-89500000D01*
X137350000Y-89796448D01*
X137646448Y-89500000D01*
X137626239Y-89479791D01*
X137898400Y-89479791D01*
X137898400Y-89520209D01*
X137913868Y-89557552D01*
X137942448Y-89586132D01*
X137979791Y-89601600D01*
X138020209Y-89601600D01*
X138057552Y-89586132D01*
X138086132Y-89557552D01*
X138101600Y-89520209D01*
X138101600Y-89500000D01*
X138353552Y-89500000D01*
X138650000Y-89796448D01*
X138946448Y-89500000D01*
X138926239Y-89479791D01*
X139198400Y-89479791D01*
X139198400Y-89520209D01*
X139213868Y-89557552D01*
X139242448Y-89586132D01*
X139279791Y-89601600D01*
X139320209Y-89601600D01*
X139357552Y-89586132D01*
X139386132Y-89557552D01*
X139401600Y-89520209D01*
X139401600Y-89499999D01*
X139653552Y-89499999D01*
X139653552Y-89500001D01*
X139977576Y-89824025D01*
X140021176Y-89718767D01*
X140021178Y-89718759D01*
X140049998Y-89573872D01*
X140049999Y-89573869D01*
X140049999Y-89426131D01*
X140049998Y-89426127D01*
X140021178Y-89281240D01*
X140021176Y-89281232D01*
X139977576Y-89175973D01*
X139653552Y-89499999D01*
X139401600Y-89499999D01*
X139401600Y-89479791D01*
X139386132Y-89442448D01*
X139357552Y-89413868D01*
X139320209Y-89398400D01*
X139279791Y-89398400D01*
X139242448Y-89413868D01*
X139213868Y-89442448D01*
X139198400Y-89479791D01*
X138926239Y-89479791D01*
X138650000Y-89203552D01*
X138353552Y-89500000D01*
X138101600Y-89500000D01*
X138101600Y-89479791D01*
X138086132Y-89442448D01*
X138057552Y-89413868D01*
X138020209Y-89398400D01*
X137979791Y-89398400D01*
X137942448Y-89413868D01*
X137913868Y-89442448D01*
X137898400Y-89479791D01*
X137626239Y-89479791D01*
X137350000Y-89203552D01*
X137053552Y-89500000D01*
X136801600Y-89500000D01*
X136801600Y-89479791D01*
X136786132Y-89442448D01*
X136757552Y-89413868D01*
X136720209Y-89398400D01*
X136679791Y-89398400D01*
X136642448Y-89413868D01*
X136613868Y-89442448D01*
X136598400Y-89479791D01*
X136326239Y-89479791D01*
X136049999Y-89203551D01*
X135753550Y-89500000D01*
X135501598Y-89500000D01*
X135501598Y-89479791D01*
X135486130Y-89442448D01*
X135457550Y-89413868D01*
X135420207Y-89398400D01*
X135379789Y-89398400D01*
X135342446Y-89413868D01*
X135313866Y-89442448D01*
X135298398Y-89479791D01*
X135026237Y-89479791D01*
X134749998Y-89203552D01*
X134453550Y-89500000D01*
X134201598Y-89500000D01*
X134201598Y-89479791D01*
X134186130Y-89442448D01*
X134157550Y-89413868D01*
X134120207Y-89398400D01*
X134079789Y-89398400D01*
X134042446Y-89413868D01*
X134013866Y-89442448D01*
X133998398Y-89479791D01*
X133726237Y-89479791D01*
X133449998Y-89203552D01*
X133153550Y-89500000D01*
X132901598Y-89500000D01*
X132901598Y-89479791D01*
X132886130Y-89442448D01*
X132857550Y-89413868D01*
X132820207Y-89398400D01*
X132779789Y-89398400D01*
X132742446Y-89413868D01*
X132713866Y-89442448D01*
X132698398Y-89479791D01*
X132426237Y-89479791D01*
X132122420Y-89175974D01*
X132078820Y-89281236D01*
X132078818Y-89281240D01*
X132049999Y-89426127D01*
X100300500Y-89426127D01*
X100300500Y-88849999D01*
X132503549Y-88849999D01*
X132799998Y-89146448D01*
X133096447Y-88849999D01*
X133803549Y-88849999D01*
X134099998Y-89146448D01*
X134396447Y-88849999D01*
X135103549Y-88849999D01*
X135399998Y-89146448D01*
X135696447Y-88849999D01*
X136403551Y-88849999D01*
X136700000Y-89146448D01*
X136996449Y-88849999D01*
X137703551Y-88849999D01*
X138000000Y-89146448D01*
X138296449Y-88849999D01*
X139003551Y-88849999D01*
X139300000Y-89146448D01*
X139596449Y-88849999D01*
X139300000Y-88553550D01*
X139003551Y-88849999D01*
X138296449Y-88849999D01*
X138000000Y-88553550D01*
X137703551Y-88849999D01*
X136996449Y-88849999D01*
X136700000Y-88553550D01*
X136403551Y-88849999D01*
X135696447Y-88849999D01*
X135399998Y-88553550D01*
X135103549Y-88849999D01*
X134396447Y-88849999D01*
X134099998Y-88553550D01*
X133803549Y-88849999D01*
X133096447Y-88849999D01*
X132799998Y-88553550D01*
X132503549Y-88849999D01*
X100300500Y-88849999D01*
X100300500Y-88126125D01*
X132049999Y-88126125D01*
X132049999Y-88273870D01*
X132078818Y-88418757D01*
X132078821Y-88418766D01*
X132122419Y-88524022D01*
X132446446Y-88199998D01*
X132426237Y-88179789D01*
X132698398Y-88179789D01*
X132698398Y-88220207D01*
X132713866Y-88257550D01*
X132742446Y-88286130D01*
X132779789Y-88301598D01*
X132820207Y-88301598D01*
X132857550Y-88286130D01*
X132886130Y-88257550D01*
X132901598Y-88220207D01*
X132901598Y-88199998D01*
X133153550Y-88199998D01*
X133449998Y-88496446D01*
X133746446Y-88199998D01*
X133726237Y-88179789D01*
X133998398Y-88179789D01*
X133998398Y-88220207D01*
X134013866Y-88257550D01*
X134042446Y-88286130D01*
X134079789Y-88301598D01*
X134120207Y-88301598D01*
X134157550Y-88286130D01*
X134186130Y-88257550D01*
X134201598Y-88220207D01*
X134201598Y-88199998D01*
X134453550Y-88199998D01*
X134749998Y-88496446D01*
X135046446Y-88199998D01*
X135026237Y-88179789D01*
X135298398Y-88179789D01*
X135298398Y-88220207D01*
X135313866Y-88257550D01*
X135342446Y-88286130D01*
X135379789Y-88301598D01*
X135420207Y-88301598D01*
X135457550Y-88286130D01*
X135486130Y-88257550D01*
X135501598Y-88220207D01*
X135501598Y-88199998D01*
X135753550Y-88199998D01*
X136049999Y-88496447D01*
X136346448Y-88199998D01*
X136326239Y-88179789D01*
X136598400Y-88179789D01*
X136598400Y-88220207D01*
X136613868Y-88257550D01*
X136642448Y-88286130D01*
X136679791Y-88301598D01*
X136720209Y-88301598D01*
X136757552Y-88286130D01*
X136786132Y-88257550D01*
X136801600Y-88220207D01*
X136801600Y-88199998D01*
X137053552Y-88199998D01*
X137350000Y-88496446D01*
X137646448Y-88199998D01*
X137626239Y-88179789D01*
X137898400Y-88179789D01*
X137898400Y-88220207D01*
X137913868Y-88257550D01*
X137942448Y-88286130D01*
X137979791Y-88301598D01*
X138020209Y-88301598D01*
X138057552Y-88286130D01*
X138086132Y-88257550D01*
X138101600Y-88220207D01*
X138101600Y-88199998D01*
X138353552Y-88199998D01*
X138650000Y-88496446D01*
X138946448Y-88199998D01*
X138926239Y-88179789D01*
X139198400Y-88179789D01*
X139198400Y-88220207D01*
X139213868Y-88257550D01*
X139242448Y-88286130D01*
X139279791Y-88301598D01*
X139320209Y-88301598D01*
X139357552Y-88286130D01*
X139386132Y-88257550D01*
X139401600Y-88220207D01*
X139401600Y-88199997D01*
X139653552Y-88199997D01*
X139653552Y-88199999D01*
X139977576Y-88524023D01*
X140021176Y-88418765D01*
X140021178Y-88418757D01*
X140049998Y-88273870D01*
X140049999Y-88273867D01*
X140049999Y-88126129D01*
X140049998Y-88126125D01*
X140021178Y-87981238D01*
X140021176Y-87981230D01*
X139977576Y-87875971D01*
X139653552Y-88199997D01*
X139401600Y-88199997D01*
X139401600Y-88179789D01*
X139386132Y-88142446D01*
X139357552Y-88113866D01*
X139320209Y-88098398D01*
X139279791Y-88098398D01*
X139242448Y-88113866D01*
X139213868Y-88142446D01*
X139198400Y-88179789D01*
X138926239Y-88179789D01*
X138650000Y-87903550D01*
X138353552Y-88199998D01*
X138101600Y-88199998D01*
X138101600Y-88179789D01*
X138086132Y-88142446D01*
X138057552Y-88113866D01*
X138020209Y-88098398D01*
X137979791Y-88098398D01*
X137942448Y-88113866D01*
X137913868Y-88142446D01*
X137898400Y-88179789D01*
X137626239Y-88179789D01*
X137350000Y-87903550D01*
X137053552Y-88199998D01*
X136801600Y-88199998D01*
X136801600Y-88179789D01*
X136786132Y-88142446D01*
X136757552Y-88113866D01*
X136720209Y-88098398D01*
X136679791Y-88098398D01*
X136642448Y-88113866D01*
X136613868Y-88142446D01*
X136598400Y-88179789D01*
X136326239Y-88179789D01*
X136049999Y-87903549D01*
X135753550Y-88199998D01*
X135501598Y-88199998D01*
X135501598Y-88179789D01*
X135486130Y-88142446D01*
X135457550Y-88113866D01*
X135420207Y-88098398D01*
X135379789Y-88098398D01*
X135342446Y-88113866D01*
X135313866Y-88142446D01*
X135298398Y-88179789D01*
X135026237Y-88179789D01*
X134749998Y-87903550D01*
X134453550Y-88199998D01*
X134201598Y-88199998D01*
X134201598Y-88179789D01*
X134186130Y-88142446D01*
X134157550Y-88113866D01*
X134120207Y-88098398D01*
X134079789Y-88098398D01*
X134042446Y-88113866D01*
X134013866Y-88142446D01*
X133998398Y-88179789D01*
X133726237Y-88179789D01*
X133449998Y-87903550D01*
X133153550Y-88199998D01*
X132901598Y-88199998D01*
X132901598Y-88179789D01*
X132886130Y-88142446D01*
X132857550Y-88113866D01*
X132820207Y-88098398D01*
X132779789Y-88098398D01*
X132742446Y-88113866D01*
X132713866Y-88142446D01*
X132698398Y-88179789D01*
X132426237Y-88179789D01*
X132122420Y-87875972D01*
X132078820Y-87981234D01*
X132078818Y-87981238D01*
X132049999Y-88126125D01*
X100300500Y-88126125D01*
X100300500Y-87549998D01*
X132503550Y-87549998D01*
X132799998Y-87846446D01*
X133096446Y-87549998D01*
X133803550Y-87549998D01*
X134099998Y-87846446D01*
X134396446Y-87549998D01*
X135103550Y-87549998D01*
X135399998Y-87846446D01*
X135696446Y-87549998D01*
X136403552Y-87549998D01*
X136700000Y-87846446D01*
X136996448Y-87549998D01*
X137703552Y-87549998D01*
X138000000Y-87846446D01*
X138296448Y-87549998D01*
X139003552Y-87549998D01*
X139300000Y-87846446D01*
X139596448Y-87549998D01*
X139300000Y-87253550D01*
X139003552Y-87549998D01*
X138296448Y-87549998D01*
X138000000Y-87253550D01*
X137703552Y-87549998D01*
X136996448Y-87549998D01*
X136700000Y-87253550D01*
X136403552Y-87549998D01*
X135696446Y-87549998D01*
X135399998Y-87253550D01*
X135103550Y-87549998D01*
X134396446Y-87549998D01*
X134099998Y-87253550D01*
X133803550Y-87549998D01*
X133096446Y-87549998D01*
X132799998Y-87253550D01*
X132503550Y-87549998D01*
X100300500Y-87549998D01*
X100300500Y-86826125D01*
X132049999Y-86826125D01*
X132049999Y-86973870D01*
X132078818Y-87118757D01*
X132078821Y-87118766D01*
X132122419Y-87224022D01*
X132446446Y-86899998D01*
X132426237Y-86879789D01*
X132698398Y-86879789D01*
X132698398Y-86920207D01*
X132713866Y-86957550D01*
X132742446Y-86986130D01*
X132779789Y-87001598D01*
X132820207Y-87001598D01*
X132857550Y-86986130D01*
X132886130Y-86957550D01*
X132901598Y-86920207D01*
X132901598Y-86899998D01*
X133153550Y-86899998D01*
X133449998Y-87196446D01*
X133746446Y-86899998D01*
X133726237Y-86879789D01*
X133998398Y-86879789D01*
X133998398Y-86920207D01*
X134013866Y-86957550D01*
X134042446Y-86986130D01*
X134079789Y-87001598D01*
X134120207Y-87001598D01*
X134157550Y-86986130D01*
X134186130Y-86957550D01*
X134201598Y-86920207D01*
X134201598Y-86899998D01*
X134453550Y-86899998D01*
X134749998Y-87196446D01*
X135046446Y-86899998D01*
X135026237Y-86879789D01*
X135298398Y-86879789D01*
X135298398Y-86920207D01*
X135313866Y-86957550D01*
X135342446Y-86986130D01*
X135379789Y-87001598D01*
X135420207Y-87001598D01*
X135457550Y-86986130D01*
X135486130Y-86957550D01*
X135501598Y-86920207D01*
X135501598Y-86899998D01*
X135753550Y-86899998D01*
X136049999Y-87196447D01*
X136346448Y-86899998D01*
X136326239Y-86879789D01*
X136598400Y-86879789D01*
X136598400Y-86920207D01*
X136613868Y-86957550D01*
X136642448Y-86986130D01*
X136679791Y-87001598D01*
X136720209Y-87001598D01*
X136757552Y-86986130D01*
X136786132Y-86957550D01*
X136801600Y-86920207D01*
X136801600Y-86899998D01*
X137053552Y-86899998D01*
X137350000Y-87196446D01*
X137646448Y-86899998D01*
X137626239Y-86879789D01*
X137898400Y-86879789D01*
X137898400Y-86920207D01*
X137913868Y-86957550D01*
X137942448Y-86986130D01*
X137979791Y-87001598D01*
X138020209Y-87001598D01*
X138057552Y-86986130D01*
X138086132Y-86957550D01*
X138101600Y-86920207D01*
X138101600Y-86899998D01*
X138353552Y-86899998D01*
X138650000Y-87196446D01*
X138946448Y-86899998D01*
X138926239Y-86879789D01*
X139198400Y-86879789D01*
X139198400Y-86920207D01*
X139213868Y-86957550D01*
X139242448Y-86986130D01*
X139279791Y-87001598D01*
X139320209Y-87001598D01*
X139357552Y-86986130D01*
X139386132Y-86957550D01*
X139401600Y-86920207D01*
X139401600Y-86899997D01*
X139653552Y-86899997D01*
X139653552Y-86899999D01*
X139977576Y-87224023D01*
X140021176Y-87118765D01*
X140021178Y-87118757D01*
X140049998Y-86973870D01*
X140049999Y-86973867D01*
X140049999Y-86826129D01*
X140049998Y-86826125D01*
X140021178Y-86681238D01*
X140021176Y-86681230D01*
X139977576Y-86575971D01*
X139653552Y-86899997D01*
X139401600Y-86899997D01*
X139401600Y-86879789D01*
X139386132Y-86842446D01*
X139357552Y-86813866D01*
X139320209Y-86798398D01*
X139279791Y-86798398D01*
X139242448Y-86813866D01*
X139213868Y-86842446D01*
X139198400Y-86879789D01*
X138926239Y-86879789D01*
X138650000Y-86603550D01*
X138353552Y-86899998D01*
X138101600Y-86899998D01*
X138101600Y-86879789D01*
X138086132Y-86842446D01*
X138057552Y-86813866D01*
X138020209Y-86798398D01*
X137979791Y-86798398D01*
X137942448Y-86813866D01*
X137913868Y-86842446D01*
X137898400Y-86879789D01*
X137626239Y-86879789D01*
X137350000Y-86603550D01*
X137053552Y-86899998D01*
X136801600Y-86899998D01*
X136801600Y-86879789D01*
X136786132Y-86842446D01*
X136757552Y-86813866D01*
X136720209Y-86798398D01*
X136679791Y-86798398D01*
X136642448Y-86813866D01*
X136613868Y-86842446D01*
X136598400Y-86879789D01*
X136326239Y-86879789D01*
X136049999Y-86603549D01*
X135753550Y-86899998D01*
X135501598Y-86899998D01*
X135501598Y-86879789D01*
X135486130Y-86842446D01*
X135457550Y-86813866D01*
X135420207Y-86798398D01*
X135379789Y-86798398D01*
X135342446Y-86813866D01*
X135313866Y-86842446D01*
X135298398Y-86879789D01*
X135026237Y-86879789D01*
X134749998Y-86603550D01*
X134453550Y-86899998D01*
X134201598Y-86899998D01*
X134201598Y-86879789D01*
X134186130Y-86842446D01*
X134157550Y-86813866D01*
X134120207Y-86798398D01*
X134079789Y-86798398D01*
X134042446Y-86813866D01*
X134013866Y-86842446D01*
X133998398Y-86879789D01*
X133726237Y-86879789D01*
X133449998Y-86603550D01*
X133153550Y-86899998D01*
X132901598Y-86899998D01*
X132901598Y-86879789D01*
X132886130Y-86842446D01*
X132857550Y-86813866D01*
X132820207Y-86798398D01*
X132779789Y-86798398D01*
X132742446Y-86813866D01*
X132713866Y-86842446D01*
X132698398Y-86879789D01*
X132426237Y-86879789D01*
X132122420Y-86575972D01*
X132078820Y-86681234D01*
X132078818Y-86681238D01*
X132049999Y-86826125D01*
X100300500Y-86826125D01*
X100300500Y-86222420D01*
X132475972Y-86222420D01*
X132799998Y-86546446D01*
X132799999Y-86546446D01*
X133124023Y-86222420D01*
X133775972Y-86222420D01*
X134099998Y-86546446D01*
X134099999Y-86546446D01*
X134424023Y-86222420D01*
X135075972Y-86222420D01*
X135399998Y-86546446D01*
X135399999Y-86546446D01*
X135724023Y-86222420D01*
X136375974Y-86222420D01*
X136700000Y-86546446D01*
X136700001Y-86546446D01*
X137024025Y-86222420D01*
X137675974Y-86222420D01*
X138000000Y-86546446D01*
X138000001Y-86546446D01*
X138324025Y-86222420D01*
X138975974Y-86222420D01*
X139300000Y-86546446D01*
X139300001Y-86546446D01*
X139624025Y-86222420D01*
X139518768Y-86178821D01*
X139518759Y-86178818D01*
X139373872Y-86149999D01*
X139226127Y-86149999D01*
X139081240Y-86178818D01*
X139081236Y-86178820D01*
X138975974Y-86222420D01*
X138324025Y-86222420D01*
X138218768Y-86178821D01*
X138218759Y-86178818D01*
X138073872Y-86149999D01*
X137926127Y-86149999D01*
X137781240Y-86178818D01*
X137781236Y-86178820D01*
X137675974Y-86222420D01*
X137024025Y-86222420D01*
X136918768Y-86178821D01*
X136918759Y-86178818D01*
X136773872Y-86149999D01*
X136626127Y-86149999D01*
X136481240Y-86178818D01*
X136481236Y-86178820D01*
X136375974Y-86222420D01*
X135724023Y-86222420D01*
X135618766Y-86178821D01*
X135618757Y-86178818D01*
X135473870Y-86149999D01*
X135326125Y-86149999D01*
X135181238Y-86178818D01*
X135181234Y-86178820D01*
X135075972Y-86222420D01*
X134424023Y-86222420D01*
X134318766Y-86178821D01*
X134318757Y-86178818D01*
X134173870Y-86149999D01*
X134026125Y-86149999D01*
X133881238Y-86178818D01*
X133881234Y-86178820D01*
X133775972Y-86222420D01*
X133124023Y-86222420D01*
X133018766Y-86178821D01*
X133018757Y-86178818D01*
X132873870Y-86149999D01*
X132726125Y-86149999D01*
X132581238Y-86178818D01*
X132581234Y-86178820D01*
X132475972Y-86222420D01*
X100300500Y-86222420D01*
X100300500Y-71902694D01*
X132012106Y-71902694D01*
X132012106Y-72097303D01*
X132050068Y-72288151D01*
X132050070Y-72288159D01*
X132124538Y-72467942D01*
X132124543Y-72467951D01*
X132232653Y-72629748D01*
X132232656Y-72629752D01*
X132370252Y-72767348D01*
X132370256Y-72767351D01*
X132532053Y-72875461D01*
X132532059Y-72875464D01*
X132532060Y-72875465D01*
X132711846Y-72949935D01*
X132902701Y-72987898D01*
X132902705Y-72987899D01*
X132902706Y-72987899D01*
X133097307Y-72987899D01*
X133097308Y-72987898D01*
X133288166Y-72949935D01*
X133467952Y-72875465D01*
X133629756Y-72767351D01*
X133767358Y-72629749D01*
X133875472Y-72467945D01*
X133949942Y-72288159D01*
X133987906Y-72097299D01*
X133987906Y-71902699D01*
X133987905Y-71902694D01*
X135012105Y-71902694D01*
X135012105Y-72097303D01*
X135050067Y-72288151D01*
X135050069Y-72288159D01*
X135124537Y-72467942D01*
X135124542Y-72467951D01*
X135232652Y-72629748D01*
X135232655Y-72629752D01*
X135370251Y-72767348D01*
X135370255Y-72767351D01*
X135532052Y-72875461D01*
X135532058Y-72875464D01*
X135532059Y-72875465D01*
X135711845Y-72949935D01*
X135902700Y-72987898D01*
X135902704Y-72987899D01*
X135902705Y-72987899D01*
X136097306Y-72987899D01*
X136097307Y-72987898D01*
X136288165Y-72949935D01*
X136467951Y-72875465D01*
X136629755Y-72767351D01*
X136767357Y-72629749D01*
X136875471Y-72467945D01*
X136949941Y-72288159D01*
X136987905Y-72097299D01*
X136987905Y-71902699D01*
X136987904Y-71902694D01*
X138012104Y-71902694D01*
X138012104Y-72097303D01*
X138050066Y-72288151D01*
X138050068Y-72288159D01*
X138124536Y-72467942D01*
X138124541Y-72467951D01*
X138232651Y-72629748D01*
X138232654Y-72629752D01*
X138370250Y-72767348D01*
X138370254Y-72767351D01*
X138532051Y-72875461D01*
X138532057Y-72875464D01*
X138532058Y-72875465D01*
X138711844Y-72949935D01*
X138902699Y-72987898D01*
X138902703Y-72987899D01*
X138902704Y-72987899D01*
X139097305Y-72987899D01*
X139097306Y-72987898D01*
X139288164Y-72949935D01*
X139467950Y-72875465D01*
X139629754Y-72767351D01*
X139767356Y-72629749D01*
X139875470Y-72467945D01*
X139949940Y-72288159D01*
X139987904Y-72097299D01*
X139987904Y-71902699D01*
X139987903Y-71902694D01*
X141012103Y-71902694D01*
X141012103Y-72097303D01*
X141050065Y-72288151D01*
X141050067Y-72288159D01*
X141124535Y-72467942D01*
X141124540Y-72467951D01*
X141232650Y-72629748D01*
X141232653Y-72629752D01*
X141370249Y-72767348D01*
X141370253Y-72767351D01*
X141532050Y-72875461D01*
X141532056Y-72875464D01*
X141532057Y-72875465D01*
X141711843Y-72949935D01*
X141902698Y-72987898D01*
X141902702Y-72987899D01*
X141902703Y-72987899D01*
X142097304Y-72987899D01*
X142097305Y-72987898D01*
X142288163Y-72949935D01*
X142467949Y-72875465D01*
X142629753Y-72767351D01*
X142767355Y-72629749D01*
X142875469Y-72467945D01*
X142949939Y-72288159D01*
X142987903Y-72097299D01*
X142987903Y-71902699D01*
X142987902Y-71902694D01*
X144012102Y-71902694D01*
X144012102Y-72097303D01*
X144050064Y-72288151D01*
X144050066Y-72288159D01*
X144124534Y-72467942D01*
X144124539Y-72467951D01*
X144232649Y-72629748D01*
X144232652Y-72629752D01*
X144370248Y-72767348D01*
X144370252Y-72767351D01*
X144532049Y-72875461D01*
X144532055Y-72875464D01*
X144532056Y-72875465D01*
X144711842Y-72949935D01*
X144902697Y-72987898D01*
X144902701Y-72987899D01*
X144902702Y-72987899D01*
X145097303Y-72987899D01*
X145097304Y-72987898D01*
X145288162Y-72949935D01*
X145467948Y-72875465D01*
X145629752Y-72767351D01*
X145767354Y-72629749D01*
X145875468Y-72467945D01*
X145949938Y-72288159D01*
X145987902Y-72097299D01*
X145987902Y-71902699D01*
X145987901Y-71902694D01*
X147012102Y-71902694D01*
X147012102Y-72097303D01*
X147050064Y-72288151D01*
X147050066Y-72288159D01*
X147124534Y-72467942D01*
X147124539Y-72467951D01*
X147232649Y-72629748D01*
X147232652Y-72629752D01*
X147370248Y-72767348D01*
X147370252Y-72767351D01*
X147532049Y-72875461D01*
X147532055Y-72875464D01*
X147532056Y-72875465D01*
X147711842Y-72949935D01*
X147902697Y-72987898D01*
X147902701Y-72987899D01*
X147902702Y-72987899D01*
X148097303Y-72987899D01*
X148097304Y-72987898D01*
X148288162Y-72949935D01*
X148467948Y-72875465D01*
X148629752Y-72767351D01*
X148767354Y-72629749D01*
X148875468Y-72467945D01*
X148949938Y-72288159D01*
X148987902Y-72097299D01*
X148987902Y-71902699D01*
X148987901Y-71902694D01*
X150012101Y-71902694D01*
X150012101Y-72097303D01*
X150050063Y-72288151D01*
X150050065Y-72288159D01*
X150124533Y-72467942D01*
X150124538Y-72467951D01*
X150232648Y-72629748D01*
X150232651Y-72629752D01*
X150370247Y-72767348D01*
X150370251Y-72767351D01*
X150532048Y-72875461D01*
X150532054Y-72875464D01*
X150532055Y-72875465D01*
X150711841Y-72949935D01*
X150902696Y-72987898D01*
X150902700Y-72987899D01*
X150902701Y-72987899D01*
X151097302Y-72987899D01*
X151097303Y-72987898D01*
X151288161Y-72949935D01*
X151467947Y-72875465D01*
X151629751Y-72767351D01*
X151767353Y-72629749D01*
X151875467Y-72467945D01*
X151949937Y-72288159D01*
X151987901Y-72097299D01*
X151987901Y-71902699D01*
X151987900Y-71902694D01*
X153012100Y-71902694D01*
X153012100Y-72097303D01*
X153050062Y-72288151D01*
X153050064Y-72288159D01*
X153124532Y-72467942D01*
X153124537Y-72467951D01*
X153232647Y-72629748D01*
X153232650Y-72629752D01*
X153370246Y-72767348D01*
X153370250Y-72767351D01*
X153532047Y-72875461D01*
X153532053Y-72875464D01*
X153532054Y-72875465D01*
X153711840Y-72949935D01*
X153902695Y-72987898D01*
X153902699Y-72987899D01*
X153902700Y-72987899D01*
X154097301Y-72987899D01*
X154097302Y-72987898D01*
X154288160Y-72949935D01*
X154467946Y-72875465D01*
X154629750Y-72767351D01*
X154767352Y-72629749D01*
X154875466Y-72467945D01*
X154949936Y-72288159D01*
X154987900Y-72097299D01*
X154987900Y-71902699D01*
X154949936Y-71711839D01*
X154875466Y-71532053D01*
X154875465Y-71532052D01*
X154875462Y-71532046D01*
X154767352Y-71370249D01*
X154767349Y-71370245D01*
X154629753Y-71232649D01*
X154629749Y-71232646D01*
X154467952Y-71124536D01*
X154467943Y-71124531D01*
X154288160Y-71050063D01*
X154288152Y-71050061D01*
X154097304Y-71012099D01*
X154097300Y-71012099D01*
X153902700Y-71012099D01*
X153902695Y-71012099D01*
X153711847Y-71050061D01*
X153711839Y-71050063D01*
X153532056Y-71124531D01*
X153532047Y-71124536D01*
X153370250Y-71232646D01*
X153370246Y-71232649D01*
X153232650Y-71370245D01*
X153232647Y-71370249D01*
X153124537Y-71532046D01*
X153124532Y-71532055D01*
X153050064Y-71711838D01*
X153050062Y-71711846D01*
X153012100Y-71902694D01*
X151987900Y-71902694D01*
X151949937Y-71711839D01*
X151875467Y-71532053D01*
X151875466Y-71532052D01*
X151875463Y-71532046D01*
X151767353Y-71370249D01*
X151767350Y-71370245D01*
X151629754Y-71232649D01*
X151629750Y-71232646D01*
X151467953Y-71124536D01*
X151467944Y-71124531D01*
X151288161Y-71050063D01*
X151288153Y-71050061D01*
X151097305Y-71012099D01*
X151097301Y-71012099D01*
X150902701Y-71012099D01*
X150902696Y-71012099D01*
X150711848Y-71050061D01*
X150711840Y-71050063D01*
X150532057Y-71124531D01*
X150532048Y-71124536D01*
X150370251Y-71232646D01*
X150370247Y-71232649D01*
X150232651Y-71370245D01*
X150232648Y-71370249D01*
X150124538Y-71532046D01*
X150124533Y-71532055D01*
X150050065Y-71711838D01*
X150050063Y-71711846D01*
X150012101Y-71902694D01*
X148987901Y-71902694D01*
X148949938Y-71711839D01*
X148875468Y-71532053D01*
X148875467Y-71532052D01*
X148875464Y-71532046D01*
X148767354Y-71370249D01*
X148767351Y-71370245D01*
X148629755Y-71232649D01*
X148629751Y-71232646D01*
X148467954Y-71124536D01*
X148467945Y-71124531D01*
X148288162Y-71050063D01*
X148288154Y-71050061D01*
X148097306Y-71012099D01*
X148097302Y-71012099D01*
X147902702Y-71012099D01*
X147902697Y-71012099D01*
X147711849Y-71050061D01*
X147711841Y-71050063D01*
X147532058Y-71124531D01*
X147532049Y-71124536D01*
X147370252Y-71232646D01*
X147370248Y-71232649D01*
X147232652Y-71370245D01*
X147232649Y-71370249D01*
X147124539Y-71532046D01*
X147124534Y-71532055D01*
X147050066Y-71711838D01*
X147050064Y-71711846D01*
X147012102Y-71902694D01*
X145987901Y-71902694D01*
X145949938Y-71711839D01*
X145875468Y-71532053D01*
X145875467Y-71532052D01*
X145875464Y-71532046D01*
X145767354Y-71370249D01*
X145767351Y-71370245D01*
X145629755Y-71232649D01*
X145629751Y-71232646D01*
X145467954Y-71124536D01*
X145467945Y-71124531D01*
X145288162Y-71050063D01*
X145288154Y-71050061D01*
X145097306Y-71012099D01*
X145097302Y-71012099D01*
X144902702Y-71012099D01*
X144902697Y-71012099D01*
X144711849Y-71050061D01*
X144711841Y-71050063D01*
X144532058Y-71124531D01*
X144532049Y-71124536D01*
X144370252Y-71232646D01*
X144370248Y-71232649D01*
X144232652Y-71370245D01*
X144232649Y-71370249D01*
X144124539Y-71532046D01*
X144124534Y-71532055D01*
X144050066Y-71711838D01*
X144050064Y-71711846D01*
X144012102Y-71902694D01*
X142987902Y-71902694D01*
X142949939Y-71711839D01*
X142875469Y-71532053D01*
X142875468Y-71532052D01*
X142875465Y-71532046D01*
X142767355Y-71370249D01*
X142767352Y-71370245D01*
X142629756Y-71232649D01*
X142629752Y-71232646D01*
X142467955Y-71124536D01*
X142467946Y-71124531D01*
X142288163Y-71050063D01*
X142288155Y-71050061D01*
X142097307Y-71012099D01*
X142097303Y-71012099D01*
X141902703Y-71012099D01*
X141902698Y-71012099D01*
X141711850Y-71050061D01*
X141711842Y-71050063D01*
X141532059Y-71124531D01*
X141532050Y-71124536D01*
X141370253Y-71232646D01*
X141370249Y-71232649D01*
X141232653Y-71370245D01*
X141232650Y-71370249D01*
X141124540Y-71532046D01*
X141124535Y-71532055D01*
X141050067Y-71711838D01*
X141050065Y-71711846D01*
X141012103Y-71902694D01*
X139987903Y-71902694D01*
X139949940Y-71711839D01*
X139875470Y-71532053D01*
X139875469Y-71532052D01*
X139875466Y-71532046D01*
X139767356Y-71370249D01*
X139767353Y-71370245D01*
X139629757Y-71232649D01*
X139629753Y-71232646D01*
X139467956Y-71124536D01*
X139467947Y-71124531D01*
X139288164Y-71050063D01*
X139288156Y-71050061D01*
X139097308Y-71012099D01*
X139097304Y-71012099D01*
X138902704Y-71012099D01*
X138902699Y-71012099D01*
X138711851Y-71050061D01*
X138711843Y-71050063D01*
X138532060Y-71124531D01*
X138532051Y-71124536D01*
X138370254Y-71232646D01*
X138370250Y-71232649D01*
X138232654Y-71370245D01*
X138232651Y-71370249D01*
X138124541Y-71532046D01*
X138124536Y-71532055D01*
X138050068Y-71711838D01*
X138050066Y-71711846D01*
X138012104Y-71902694D01*
X136987904Y-71902694D01*
X136949941Y-71711839D01*
X136875471Y-71532053D01*
X136875470Y-71532052D01*
X136875467Y-71532046D01*
X136767357Y-71370249D01*
X136767354Y-71370245D01*
X136629758Y-71232649D01*
X136629754Y-71232646D01*
X136467957Y-71124536D01*
X136467948Y-71124531D01*
X136288165Y-71050063D01*
X136288157Y-71050061D01*
X136097309Y-71012099D01*
X136097305Y-71012099D01*
X135902705Y-71012099D01*
X135902700Y-71012099D01*
X135711852Y-71050061D01*
X135711844Y-71050063D01*
X135532061Y-71124531D01*
X135532052Y-71124536D01*
X135370255Y-71232646D01*
X135370251Y-71232649D01*
X135232655Y-71370245D01*
X135232652Y-71370249D01*
X135124542Y-71532046D01*
X135124537Y-71532055D01*
X135050069Y-71711838D01*
X135050067Y-71711846D01*
X135012105Y-71902694D01*
X133987905Y-71902694D01*
X133949942Y-71711839D01*
X133875472Y-71532053D01*
X133875471Y-71532052D01*
X133875468Y-71532046D01*
X133767358Y-71370249D01*
X133767355Y-71370245D01*
X133629759Y-71232649D01*
X133629755Y-71232646D01*
X133467958Y-71124536D01*
X133467949Y-71124531D01*
X133288166Y-71050063D01*
X133288158Y-71050061D01*
X133097310Y-71012099D01*
X133097306Y-71012099D01*
X132902706Y-71012099D01*
X132902701Y-71012099D01*
X132711853Y-71050061D01*
X132711845Y-71050063D01*
X132532062Y-71124531D01*
X132532053Y-71124536D01*
X132370256Y-71232646D01*
X132370252Y-71232649D01*
X132232656Y-71370245D01*
X132232653Y-71370249D01*
X132124543Y-71532046D01*
X132124538Y-71532055D01*
X132050070Y-71711838D01*
X132050068Y-71711846D01*
X132012106Y-71902694D01*
X100300500Y-71902694D01*
X100300500Y-68631995D01*
X101949500Y-68631995D01*
X101949500Y-68868004D01*
X101949501Y-68868020D01*
X101980306Y-69102010D01*
X102041394Y-69329993D01*
X102131714Y-69548045D01*
X102131719Y-69548056D01*
X102202677Y-69670957D01*
X102249727Y-69752450D01*
X102249729Y-69752453D01*
X102249730Y-69752454D01*
X102393406Y-69939697D01*
X102393412Y-69939704D01*
X102560295Y-70106587D01*
X102560301Y-70106592D01*
X102747550Y-70250273D01*
X102878918Y-70326118D01*
X102951943Y-70368280D01*
X102951948Y-70368282D01*
X102951951Y-70368284D01*
X103170007Y-70458606D01*
X103397986Y-70519693D01*
X103631989Y-70550500D01*
X103631996Y-70550500D01*
X103868004Y-70550500D01*
X103868011Y-70550500D01*
X104102014Y-70519693D01*
X104329993Y-70458606D01*
X104548049Y-70368284D01*
X104752450Y-70250273D01*
X104939699Y-70106592D01*
X105106592Y-69939699D01*
X105250273Y-69752450D01*
X105368284Y-69548049D01*
X105458606Y-69329993D01*
X105519693Y-69102014D01*
X105546462Y-68898679D01*
X131712606Y-68898679D01*
X131712606Y-69101320D01*
X131744305Y-69301463D01*
X131806927Y-69494192D01*
X131898922Y-69674744D01*
X131929551Y-69716899D01*
X131929552Y-69716900D01*
X132489771Y-69156680D01*
X132502956Y-69205885D01*
X132573180Y-69327515D01*
X132672491Y-69426826D01*
X132794121Y-69497050D01*
X132843325Y-69510234D01*
X132283105Y-70070453D01*
X132283105Y-70070454D01*
X132325260Y-70101082D01*
X132505813Y-70193078D01*
X132698542Y-70255700D01*
X132698541Y-70255700D01*
X132898686Y-70287400D01*
X133101326Y-70287400D01*
X133301469Y-70255700D01*
X133494198Y-70193078D01*
X133674753Y-70101081D01*
X133674757Y-70101079D01*
X133716905Y-70070454D01*
X133716906Y-70070454D01*
X133156686Y-69510234D01*
X133205891Y-69497050D01*
X133327521Y-69426826D01*
X133426832Y-69327515D01*
X133497056Y-69205885D01*
X133510240Y-69156680D01*
X134070459Y-69716900D01*
X134070460Y-69716899D01*
X134101085Y-69674751D01*
X134101087Y-69674747D01*
X134193084Y-69494192D01*
X134255706Y-69301463D01*
X134287406Y-69101320D01*
X134287406Y-68898679D01*
X134712605Y-68898679D01*
X134712605Y-69101320D01*
X134744304Y-69301463D01*
X134806926Y-69494192D01*
X134898921Y-69674744D01*
X134929550Y-69716899D01*
X134929551Y-69716900D01*
X135489770Y-69156680D01*
X135502955Y-69205885D01*
X135573179Y-69327515D01*
X135672490Y-69426826D01*
X135794120Y-69497050D01*
X135843324Y-69510234D01*
X135283104Y-70070453D01*
X135283104Y-70070454D01*
X135325259Y-70101082D01*
X135505812Y-70193078D01*
X135698541Y-70255700D01*
X135698540Y-70255700D01*
X135898685Y-70287400D01*
X136101325Y-70287400D01*
X136301468Y-70255700D01*
X136494197Y-70193078D01*
X136674752Y-70101081D01*
X136674756Y-70101079D01*
X136716904Y-70070454D01*
X136716905Y-70070454D01*
X136156685Y-69510234D01*
X136205890Y-69497050D01*
X136327520Y-69426826D01*
X136426831Y-69327515D01*
X136497055Y-69205885D01*
X136510239Y-69156680D01*
X137070458Y-69716900D01*
X137070459Y-69716899D01*
X137101084Y-69674751D01*
X137101086Y-69674747D01*
X137193083Y-69494192D01*
X137255705Y-69301463D01*
X137287405Y-69101320D01*
X137287405Y-68898679D01*
X137712604Y-68898679D01*
X137712604Y-69101320D01*
X137744303Y-69301463D01*
X137806925Y-69494192D01*
X137898920Y-69674744D01*
X137929549Y-69716899D01*
X137929550Y-69716900D01*
X138489769Y-69156680D01*
X138502954Y-69205885D01*
X138573178Y-69327515D01*
X138672489Y-69426826D01*
X138794119Y-69497050D01*
X138843323Y-69510234D01*
X138283103Y-70070453D01*
X138283103Y-70070454D01*
X138325258Y-70101082D01*
X138505811Y-70193078D01*
X138698540Y-70255700D01*
X138698539Y-70255700D01*
X138898684Y-70287400D01*
X139101324Y-70287400D01*
X139301467Y-70255700D01*
X139494196Y-70193078D01*
X139674751Y-70101081D01*
X139674755Y-70101079D01*
X139716903Y-70070454D01*
X139716904Y-70070454D01*
X139156684Y-69510234D01*
X139205889Y-69497050D01*
X139327519Y-69426826D01*
X139426830Y-69327515D01*
X139497054Y-69205885D01*
X139510238Y-69156680D01*
X140070457Y-69716900D01*
X140070458Y-69716899D01*
X140101083Y-69674751D01*
X140101085Y-69674747D01*
X140193082Y-69494192D01*
X140255704Y-69301463D01*
X140287404Y-69101320D01*
X140287404Y-68898679D01*
X140712603Y-68898679D01*
X140712603Y-69101320D01*
X140744302Y-69301463D01*
X140806924Y-69494192D01*
X140898919Y-69674744D01*
X140929548Y-69716899D01*
X140929549Y-69716900D01*
X141489768Y-69156680D01*
X141502953Y-69205885D01*
X141573177Y-69327515D01*
X141672488Y-69426826D01*
X141794118Y-69497050D01*
X141843322Y-69510234D01*
X141283102Y-70070453D01*
X141283102Y-70070454D01*
X141325257Y-70101082D01*
X141505810Y-70193078D01*
X141698539Y-70255700D01*
X141698538Y-70255700D01*
X141898683Y-70287400D01*
X142101323Y-70287400D01*
X142301466Y-70255700D01*
X142494195Y-70193078D01*
X142674750Y-70101081D01*
X142674754Y-70101079D01*
X142716902Y-70070454D01*
X142716903Y-70070454D01*
X142156683Y-69510234D01*
X142205888Y-69497050D01*
X142327518Y-69426826D01*
X142426829Y-69327515D01*
X142497053Y-69205885D01*
X142510237Y-69156680D01*
X143070456Y-69716900D01*
X143070457Y-69716899D01*
X143101082Y-69674751D01*
X143101084Y-69674747D01*
X143193081Y-69494192D01*
X143255703Y-69301463D01*
X143287403Y-69101320D01*
X143287403Y-68898679D01*
X143712602Y-68898679D01*
X143712602Y-69101320D01*
X143744301Y-69301463D01*
X143806923Y-69494192D01*
X143898918Y-69674744D01*
X143929547Y-69716899D01*
X143929548Y-69716900D01*
X144489767Y-69156680D01*
X144502952Y-69205885D01*
X144573176Y-69327515D01*
X144672487Y-69426826D01*
X144794117Y-69497050D01*
X144843321Y-69510234D01*
X144283101Y-70070453D01*
X144283101Y-70070454D01*
X144325256Y-70101082D01*
X144505809Y-70193078D01*
X144698538Y-70255700D01*
X144698537Y-70255700D01*
X144898682Y-70287400D01*
X145101322Y-70287400D01*
X145301465Y-70255700D01*
X145494194Y-70193078D01*
X145674749Y-70101081D01*
X145674753Y-70101079D01*
X145716901Y-70070454D01*
X145716902Y-70070454D01*
X145156682Y-69510234D01*
X145205887Y-69497050D01*
X145327517Y-69426826D01*
X145426828Y-69327515D01*
X145497052Y-69205885D01*
X145510236Y-69156680D01*
X146070455Y-69716900D01*
X146070456Y-69716899D01*
X146101081Y-69674751D01*
X146101083Y-69674747D01*
X146193080Y-69494192D01*
X146255702Y-69301463D01*
X146287402Y-69101320D01*
X146287402Y-68898679D01*
X146712602Y-68898679D01*
X146712602Y-69101320D01*
X146744301Y-69301463D01*
X146806923Y-69494192D01*
X146898918Y-69674744D01*
X146929547Y-69716899D01*
X146929548Y-69716900D01*
X147489767Y-69156680D01*
X147502952Y-69205885D01*
X147573176Y-69327515D01*
X147672487Y-69426826D01*
X147794117Y-69497050D01*
X147843321Y-69510234D01*
X147283101Y-70070453D01*
X147283101Y-70070454D01*
X147325256Y-70101082D01*
X147505809Y-70193078D01*
X147698538Y-70255700D01*
X147698537Y-70255700D01*
X147898682Y-70287400D01*
X148101322Y-70287400D01*
X148301465Y-70255700D01*
X148494194Y-70193078D01*
X148674749Y-70101081D01*
X148674753Y-70101079D01*
X148716901Y-70070454D01*
X148716902Y-70070454D01*
X148156682Y-69510234D01*
X148205887Y-69497050D01*
X148327517Y-69426826D01*
X148426828Y-69327515D01*
X148497052Y-69205885D01*
X148510236Y-69156680D01*
X149070455Y-69716900D01*
X149070456Y-69716899D01*
X149101081Y-69674751D01*
X149101083Y-69674747D01*
X149193080Y-69494192D01*
X149255702Y-69301463D01*
X149287402Y-69101320D01*
X149287402Y-68898679D01*
X149712601Y-68898679D01*
X149712601Y-69101320D01*
X149744300Y-69301463D01*
X149806922Y-69494192D01*
X149898917Y-69674744D01*
X149929546Y-69716899D01*
X149929547Y-69716900D01*
X150489766Y-69156680D01*
X150502951Y-69205885D01*
X150573175Y-69327515D01*
X150672486Y-69426826D01*
X150794116Y-69497050D01*
X150843320Y-69510234D01*
X150283100Y-70070453D01*
X150283100Y-70070454D01*
X150325255Y-70101082D01*
X150505808Y-70193078D01*
X150698537Y-70255700D01*
X150698536Y-70255700D01*
X150898681Y-70287400D01*
X151101321Y-70287400D01*
X151301464Y-70255700D01*
X151494193Y-70193078D01*
X151674748Y-70101081D01*
X151674752Y-70101079D01*
X151716900Y-70070454D01*
X151716901Y-70070454D01*
X151156681Y-69510234D01*
X151205886Y-69497050D01*
X151327516Y-69426826D01*
X151426827Y-69327515D01*
X151497051Y-69205885D01*
X151510235Y-69156680D01*
X152070454Y-69716900D01*
X152070455Y-69716899D01*
X152101080Y-69674751D01*
X152101082Y-69674747D01*
X152193079Y-69494192D01*
X152255701Y-69301463D01*
X152287401Y-69101320D01*
X152287401Y-68898679D01*
X152712600Y-68898679D01*
X152712600Y-69101320D01*
X152744299Y-69301463D01*
X152806921Y-69494192D01*
X152898916Y-69674744D01*
X152929545Y-69716899D01*
X152929546Y-69716900D01*
X153489765Y-69156680D01*
X153502950Y-69205885D01*
X153573174Y-69327515D01*
X153672485Y-69426826D01*
X153794115Y-69497050D01*
X153843319Y-69510234D01*
X153283099Y-70070453D01*
X153283099Y-70070454D01*
X153325254Y-70101082D01*
X153505807Y-70193078D01*
X153698536Y-70255700D01*
X153698535Y-70255700D01*
X153898680Y-70287400D01*
X154101320Y-70287400D01*
X154301463Y-70255700D01*
X154494192Y-70193078D01*
X154674747Y-70101081D01*
X154674751Y-70101079D01*
X154716899Y-70070454D01*
X154716900Y-70070454D01*
X154156680Y-69510234D01*
X154205885Y-69497050D01*
X154327515Y-69426826D01*
X154426826Y-69327515D01*
X154497050Y-69205885D01*
X154510234Y-69156680D01*
X155070453Y-69716900D01*
X155070454Y-69716899D01*
X155101079Y-69674751D01*
X155101081Y-69674747D01*
X155193078Y-69494192D01*
X155255700Y-69301463D01*
X155287400Y-69101320D01*
X155287400Y-68898679D01*
X155255700Y-68698536D01*
X155193078Y-68505807D01*
X155101082Y-68325254D01*
X155070453Y-68283099D01*
X154510233Y-68843318D01*
X154497050Y-68794115D01*
X154426826Y-68672485D01*
X154327515Y-68573174D01*
X154205885Y-68502950D01*
X154156680Y-68489765D01*
X154658735Y-67987711D01*
X156266101Y-67987711D01*
X156266101Y-68132286D01*
X156294302Y-68274062D01*
X156294304Y-68274070D01*
X156349625Y-68407628D01*
X156429943Y-68527832D01*
X156429946Y-68527836D01*
X156532163Y-68630053D01*
X156532167Y-68630056D01*
X156652369Y-68710373D01*
X156785930Y-68765696D01*
X156927713Y-68793898D01*
X156927717Y-68793899D01*
X156927718Y-68793899D01*
X157072285Y-68793899D01*
X157072286Y-68793898D01*
X157214072Y-68765696D01*
X157347633Y-68710373D01*
X157467835Y-68630056D01*
X157570058Y-68527833D01*
X157650375Y-68407631D01*
X157705698Y-68274070D01*
X157733901Y-68132282D01*
X157733901Y-67987716D01*
X157705698Y-67845928D01*
X157650375Y-67712367D01*
X157570058Y-67592165D01*
X157570055Y-67592161D01*
X157467838Y-67489944D01*
X157467834Y-67489941D01*
X157347630Y-67409623D01*
X157214072Y-67354302D01*
X157214064Y-67354300D01*
X157072288Y-67326099D01*
X157072284Y-67326099D01*
X156927718Y-67326099D01*
X156927713Y-67326099D01*
X156785937Y-67354300D01*
X156785929Y-67354302D01*
X156652371Y-67409623D01*
X156532167Y-67489941D01*
X156532163Y-67489944D01*
X156429946Y-67592161D01*
X156429943Y-67592165D01*
X156349625Y-67712369D01*
X156294304Y-67845927D01*
X156294302Y-67845935D01*
X156266101Y-67987711D01*
X154658735Y-67987711D01*
X154716900Y-67929546D01*
X154716899Y-67929545D01*
X154674744Y-67898916D01*
X154494192Y-67806921D01*
X154301463Y-67744299D01*
X154301464Y-67744299D01*
X154101320Y-67712600D01*
X153898680Y-67712600D01*
X153698536Y-67744299D01*
X153505807Y-67806921D01*
X153325250Y-67898919D01*
X153283099Y-67929544D01*
X153283098Y-67929545D01*
X153843319Y-68489765D01*
X153794115Y-68502950D01*
X153672485Y-68573174D01*
X153573174Y-68672485D01*
X153502950Y-68794115D01*
X153489766Y-68843319D01*
X152929545Y-68283098D01*
X152929544Y-68283099D01*
X152898919Y-68325250D01*
X152806921Y-68505807D01*
X152744299Y-68698536D01*
X152712600Y-68898679D01*
X152287401Y-68898679D01*
X152255701Y-68698536D01*
X152193079Y-68505807D01*
X152101083Y-68325254D01*
X152070454Y-68283099D01*
X151510234Y-68843318D01*
X151497051Y-68794115D01*
X151426827Y-68672485D01*
X151327516Y-68573174D01*
X151205886Y-68502950D01*
X151156681Y-68489765D01*
X151716901Y-67929546D01*
X151716900Y-67929545D01*
X151674745Y-67898916D01*
X151494193Y-67806921D01*
X151301464Y-67744299D01*
X151301465Y-67744299D01*
X151101321Y-67712600D01*
X150898681Y-67712600D01*
X150698537Y-67744299D01*
X150505808Y-67806921D01*
X150325251Y-67898919D01*
X150283100Y-67929544D01*
X150283099Y-67929545D01*
X150843320Y-68489765D01*
X150794116Y-68502950D01*
X150672486Y-68573174D01*
X150573175Y-68672485D01*
X150502951Y-68794115D01*
X150489767Y-68843319D01*
X149929546Y-68283098D01*
X149929545Y-68283099D01*
X149898920Y-68325250D01*
X149806922Y-68505807D01*
X149744300Y-68698536D01*
X149712601Y-68898679D01*
X149287402Y-68898679D01*
X149255702Y-68698536D01*
X149193080Y-68505807D01*
X149101084Y-68325254D01*
X149070455Y-68283099D01*
X148510235Y-68843318D01*
X148497052Y-68794115D01*
X148426828Y-68672485D01*
X148327517Y-68573174D01*
X148205887Y-68502950D01*
X148156682Y-68489765D01*
X148716902Y-67929546D01*
X148716901Y-67929545D01*
X148674746Y-67898916D01*
X148494194Y-67806921D01*
X148301465Y-67744299D01*
X148301466Y-67744299D01*
X148101322Y-67712600D01*
X147898682Y-67712600D01*
X147698538Y-67744299D01*
X147505809Y-67806921D01*
X147325252Y-67898919D01*
X147283101Y-67929544D01*
X147283100Y-67929545D01*
X147843321Y-68489765D01*
X147794117Y-68502950D01*
X147672487Y-68573174D01*
X147573176Y-68672485D01*
X147502952Y-68794115D01*
X147489768Y-68843319D01*
X146929547Y-68283098D01*
X146929546Y-68283099D01*
X146898921Y-68325250D01*
X146806923Y-68505807D01*
X146744301Y-68698536D01*
X146712602Y-68898679D01*
X146287402Y-68898679D01*
X146255702Y-68698536D01*
X146193080Y-68505807D01*
X146101084Y-68325254D01*
X146070455Y-68283099D01*
X145510235Y-68843318D01*
X145497052Y-68794115D01*
X145426828Y-68672485D01*
X145327517Y-68573174D01*
X145205887Y-68502950D01*
X145156682Y-68489765D01*
X145716902Y-67929546D01*
X145716901Y-67929545D01*
X145674746Y-67898916D01*
X145494194Y-67806921D01*
X145301465Y-67744299D01*
X145301466Y-67744299D01*
X145101322Y-67712600D01*
X144898682Y-67712600D01*
X144698538Y-67744299D01*
X144505809Y-67806921D01*
X144325252Y-67898919D01*
X144283101Y-67929544D01*
X144283100Y-67929545D01*
X144843321Y-68489765D01*
X144794117Y-68502950D01*
X144672487Y-68573174D01*
X144573176Y-68672485D01*
X144502952Y-68794115D01*
X144489768Y-68843319D01*
X143929547Y-68283098D01*
X143929546Y-68283099D01*
X143898921Y-68325250D01*
X143806923Y-68505807D01*
X143744301Y-68698536D01*
X143712602Y-68898679D01*
X143287403Y-68898679D01*
X143255703Y-68698536D01*
X143193081Y-68505807D01*
X143101085Y-68325254D01*
X143070456Y-68283099D01*
X142510236Y-68843318D01*
X142497053Y-68794115D01*
X142426829Y-68672485D01*
X142327518Y-68573174D01*
X142205888Y-68502950D01*
X142156683Y-68489765D01*
X142716903Y-67929546D01*
X142716902Y-67929545D01*
X142674747Y-67898916D01*
X142494195Y-67806921D01*
X142301466Y-67744299D01*
X142301467Y-67744299D01*
X142101323Y-67712600D01*
X141898683Y-67712600D01*
X141698539Y-67744299D01*
X141505810Y-67806921D01*
X141325253Y-67898919D01*
X141283102Y-67929544D01*
X141283101Y-67929545D01*
X141843322Y-68489765D01*
X141794118Y-68502950D01*
X141672488Y-68573174D01*
X141573177Y-68672485D01*
X141502953Y-68794115D01*
X141489769Y-68843319D01*
X140929548Y-68283098D01*
X140929547Y-68283099D01*
X140898922Y-68325250D01*
X140806924Y-68505807D01*
X140744302Y-68698536D01*
X140712603Y-68898679D01*
X140287404Y-68898679D01*
X140255704Y-68698536D01*
X140193082Y-68505807D01*
X140101086Y-68325254D01*
X140070457Y-68283099D01*
X139510237Y-68843318D01*
X139497054Y-68794115D01*
X139426830Y-68672485D01*
X139327519Y-68573174D01*
X139205889Y-68502950D01*
X139156684Y-68489765D01*
X139716904Y-67929546D01*
X139716903Y-67929545D01*
X139674748Y-67898916D01*
X139494196Y-67806921D01*
X139301467Y-67744299D01*
X139301468Y-67744299D01*
X139101324Y-67712600D01*
X138898684Y-67712600D01*
X138698540Y-67744299D01*
X138505811Y-67806921D01*
X138325254Y-67898919D01*
X138283103Y-67929544D01*
X138283102Y-67929545D01*
X138843323Y-68489765D01*
X138794119Y-68502950D01*
X138672489Y-68573174D01*
X138573178Y-68672485D01*
X138502954Y-68794115D01*
X138489770Y-68843319D01*
X137929549Y-68283098D01*
X137929548Y-68283099D01*
X137898923Y-68325250D01*
X137806925Y-68505807D01*
X137744303Y-68698536D01*
X137712604Y-68898679D01*
X137287405Y-68898679D01*
X137255705Y-68698536D01*
X137193083Y-68505807D01*
X137101087Y-68325254D01*
X137070458Y-68283099D01*
X136510238Y-68843318D01*
X136497055Y-68794115D01*
X136426831Y-68672485D01*
X136327520Y-68573174D01*
X136205890Y-68502950D01*
X136156685Y-68489765D01*
X136716905Y-67929546D01*
X136716904Y-67929545D01*
X136674749Y-67898916D01*
X136494197Y-67806921D01*
X136301468Y-67744299D01*
X136301469Y-67744299D01*
X136101325Y-67712600D01*
X135898685Y-67712600D01*
X135698541Y-67744299D01*
X135505812Y-67806921D01*
X135325255Y-67898919D01*
X135283104Y-67929544D01*
X135283103Y-67929545D01*
X135843324Y-68489765D01*
X135794120Y-68502950D01*
X135672490Y-68573174D01*
X135573179Y-68672485D01*
X135502955Y-68794115D01*
X135489771Y-68843319D01*
X134929550Y-68283098D01*
X134929549Y-68283099D01*
X134898924Y-68325250D01*
X134806926Y-68505807D01*
X134744304Y-68698536D01*
X134712605Y-68898679D01*
X134287406Y-68898679D01*
X134255706Y-68698536D01*
X134193084Y-68505807D01*
X134101088Y-68325254D01*
X134070459Y-68283099D01*
X133510239Y-68843318D01*
X133497056Y-68794115D01*
X133426832Y-68672485D01*
X133327521Y-68573174D01*
X133205891Y-68502950D01*
X133156686Y-68489765D01*
X133716906Y-67929546D01*
X133716905Y-67929545D01*
X133674750Y-67898916D01*
X133494198Y-67806921D01*
X133301469Y-67744299D01*
X133301470Y-67744299D01*
X133101326Y-67712600D01*
X132898686Y-67712600D01*
X132698542Y-67744299D01*
X132505813Y-67806921D01*
X132325256Y-67898919D01*
X132283105Y-67929544D01*
X132283104Y-67929545D01*
X132843325Y-68489765D01*
X132794121Y-68502950D01*
X132672491Y-68573174D01*
X132573180Y-68672485D01*
X132502956Y-68794115D01*
X132489772Y-68843319D01*
X131929551Y-68283098D01*
X131929550Y-68283099D01*
X131898925Y-68325250D01*
X131806927Y-68505807D01*
X131744305Y-68698536D01*
X131712606Y-68898679D01*
X105546462Y-68898679D01*
X105550500Y-68868011D01*
X105550500Y-68631989D01*
X105519693Y-68397986D01*
X105458606Y-68170007D01*
X105439244Y-68123263D01*
X105400231Y-68029076D01*
X105383097Y-67987711D01*
X129266105Y-67987711D01*
X129266105Y-68132286D01*
X129294306Y-68274062D01*
X129294308Y-68274070D01*
X129349629Y-68407628D01*
X129429947Y-68527832D01*
X129429950Y-68527836D01*
X129532167Y-68630053D01*
X129532171Y-68630056D01*
X129652373Y-68710373D01*
X129785934Y-68765696D01*
X129927717Y-68793898D01*
X129927721Y-68793899D01*
X129927722Y-68793899D01*
X130072289Y-68793899D01*
X130072290Y-68793898D01*
X130109448Y-68786507D01*
X130181430Y-68772190D01*
X130197822Y-68768928D01*
X130214076Y-68765696D01*
X130347637Y-68710373D01*
X130467839Y-68630056D01*
X130570062Y-68527833D01*
X130650379Y-68407631D01*
X130705702Y-68274070D01*
X130733905Y-68132282D01*
X130733905Y-67987716D01*
X130705702Y-67845928D01*
X130650379Y-67712367D01*
X130570062Y-67592165D01*
X130570059Y-67592161D01*
X130467842Y-67489944D01*
X130467838Y-67489941D01*
X130347634Y-67409623D01*
X130214076Y-67354302D01*
X130214068Y-67354300D01*
X130072292Y-67326099D01*
X130072288Y-67326099D01*
X129927722Y-67326099D01*
X129927717Y-67326099D01*
X129785941Y-67354300D01*
X129785933Y-67354302D01*
X129652375Y-67409623D01*
X129532171Y-67489941D01*
X129532167Y-67489944D01*
X129429950Y-67592161D01*
X129429947Y-67592165D01*
X129349629Y-67712369D01*
X129294308Y-67845927D01*
X129294306Y-67845935D01*
X129266105Y-67987711D01*
X105383097Y-67987711D01*
X105368285Y-67951954D01*
X105368280Y-67951943D01*
X105326118Y-67878918D01*
X105250273Y-67747550D01*
X105106592Y-67560301D01*
X105106587Y-67560295D01*
X104939704Y-67393412D01*
X104939697Y-67393406D01*
X104752454Y-67249730D01*
X104752453Y-67249729D01*
X104752450Y-67249727D01*
X104670957Y-67202677D01*
X104548056Y-67131719D01*
X104548045Y-67131714D01*
X104329993Y-67041394D01*
X104102010Y-66980306D01*
X103868020Y-66949501D01*
X103868017Y-66949500D01*
X103868011Y-66949500D01*
X103631989Y-66949500D01*
X103631983Y-66949500D01*
X103631979Y-66949501D01*
X103397989Y-66980306D01*
X103170006Y-67041394D01*
X102951954Y-67131714D01*
X102951943Y-67131719D01*
X102747545Y-67249730D01*
X102560302Y-67393406D01*
X102560295Y-67393412D01*
X102393412Y-67560295D01*
X102393406Y-67560302D01*
X102249730Y-67747545D01*
X102131719Y-67951943D01*
X102131714Y-67951954D01*
X102041394Y-68170006D01*
X101980306Y-68397989D01*
X101949501Y-68631979D01*
X101949500Y-68631995D01*
X100300500Y-68631995D01*
X100300500Y-67004427D01*
X100300816Y-66995581D01*
X100301908Y-66980307D01*
X100317165Y-66766973D01*
X100319681Y-66749476D01*
X100367457Y-66529852D01*
X100372434Y-66512901D01*
X100450986Y-66302295D01*
X100458325Y-66286226D01*
X100566043Y-66088955D01*
X100575599Y-66074086D01*
X100710293Y-65894156D01*
X100721867Y-65880799D01*
X100880799Y-65721867D01*
X100894156Y-65710293D01*
X101074086Y-65575599D01*
X101088955Y-65566043D01*
X101286226Y-65458325D01*
X101302295Y-65450986D01*
X101512901Y-65372434D01*
X101529852Y-65367457D01*
X101749476Y-65319681D01*
X101766973Y-65317165D01*
X101995582Y-65300816D01*
X102004428Y-65300500D01*
X102047594Y-65300500D01*
X158126000Y-65300500D01*
X158193039Y-65320185D01*
G37*
%TD.AperFunction*%
%TD*%
M02*
