%TF.GenerationSoftware,KiCad,Pcbnew,10.0.5-unknown-202607221313~667fa36054~ubuntu25.10.1*%
%TF.CreationDate,Date%
%TF.ProjectId,bms_slave,626d735f-736c-4617-9665-2e6b69636164,+ (Unreleased)*%
%TF.SameCoordinates,Original*%
%TF.FileFunction,Copper,L1,Top*%
%TF.FilePolarity,Positive*%
%FSLAX46Y46*%
G04 Gerber Fmt 4.6, Leading zero omitted, Abs format (unit mm)*
G04 Created by KiCad*
%MOMM*%
%LPD*%
G01*
G04 APERTURE LIST*
G04 Aperture macros list*
%AMRoundRect*
0 Rectangle with rounded corners*
0 $1 Rounding radius*
0 $2 $3 $4 $5 $6 $7 $8 $9 X,Y pos of 4 corners*
0 Add a 4 corners polygon primitive as box body*
4,1,4,$2,$3,$4,$5,$6,$7,$8,$9,$2,$3,0*
0 Add four circle primitives for the rounded corners*
1,1,$1+$1,$2,$3*
1,1,$1+$1,$4,$5*
1,1,$1+$1,$6,$7*
1,1,$1+$1,$8,$9*
0 Add four rect primitives between the rounded corners*
20,1,$1+$1,$2,$3,$4,$5,0*
20,1,$1+$1,$4,$5,$6,$7,0*
20,1,$1+$1,$6,$7,$8,$9,0*
20,1,$1+$1,$8,$9,$2,$3,0*%
G04 Aperture macros list end*
%TA.AperFunction,SMDPad,CuDef*%
%ADD10RoundRect,0.200000X-0.200000X-0.275000X0.200000X-0.275000X0.200000X0.275000X-0.200000X0.275000X0*%
%TD*%
%TA.AperFunction,SMDPad,CuDef*%
%ADD11RoundRect,0.135000X-0.185000X0.135000X-0.185000X-0.135000X0.185000X-0.135000X0.185000X0.135000X0*%
%TD*%
%TA.AperFunction,SMDPad,CuDef*%
%ADD12RoundRect,0.250000X-0.362500X-1.425000X0.362500X-1.425000X0.362500X1.425000X-0.362500X1.425000X0*%
%TD*%
%TA.AperFunction,SMDPad,CuDef*%
%ADD13RoundRect,0.140000X0.170000X-0.140000X0.170000X0.140000X-0.170000X0.140000X-0.170000X-0.140000X0*%
%TD*%
%TA.AperFunction,SMDPad,CuDef*%
%ADD14RoundRect,0.225000X0.225000X0.250000X-0.225000X0.250000X-0.225000X-0.250000X0.225000X-0.250000X0*%
%TD*%
%TA.AperFunction,SMDPad,CuDef*%
%ADD15R,0.609600X0.304800*%
%TD*%
%TA.AperFunction,ComponentPad*%
%ADD16C,1.574800*%
%TD*%
%TA.AperFunction,SMDPad,CuDef*%
%ADD17RoundRect,0.140000X0.140000X0.170000X-0.140000X0.170000X-0.140000X-0.170000X0.140000X-0.170000X0*%
%TD*%
%TA.AperFunction,SMDPad,CuDef*%
%ADD18RoundRect,0.200000X0.275000X-0.200000X0.275000X0.200000X-0.275000X0.200000X-0.275000X-0.200000X0*%
%TD*%
%TA.AperFunction,SMDPad,CuDef*%
%ADD19C,0.500000*%
%TD*%
%TA.AperFunction,SMDPad,CuDef*%
%ADD20C,2.000000*%
%TD*%
%TA.AperFunction,SMDPad,CuDef*%
%ADD21R,0.901700X0.482600*%
%TD*%
%TA.AperFunction,SMDPad,CuDef*%
%ADD22RoundRect,0.218750X0.218750X0.256250X-0.218750X0.256250X-0.218750X-0.256250X0.218750X-0.256250X0*%
%TD*%
%TA.AperFunction,SMDPad,CuDef*%
%ADD23R,1.308100X0.685800*%
%TD*%
%TA.AperFunction,SMDPad,CuDef*%
%ADD24RoundRect,0.140000X-0.140000X-0.170000X0.140000X-0.170000X0.140000X0.170000X-0.140000X0.170000X0*%
%TD*%
%TA.AperFunction,SMDPad,CuDef*%
%ADD25RoundRect,0.225000X-0.225000X-0.250000X0.225000X-0.250000X0.225000X0.250000X-0.225000X0.250000X0*%
%TD*%
%TA.AperFunction,SMDPad,CuDef*%
%ADD26RoundRect,0.250000X-0.475000X0.250000X-0.475000X-0.250000X0.475000X-0.250000X0.475000X0.250000X0*%
%TD*%
%TA.AperFunction,SMDPad,CuDef*%
%ADD27RoundRect,0.250000X-1.075000X0.312500X-1.075000X-0.312500X1.075000X-0.312500X1.075000X0.312500X0*%
%TD*%
%TA.AperFunction,SMDPad,CuDef*%
%ADD28RoundRect,0.200000X-0.275000X0.200000X-0.275000X-0.200000X0.275000X-0.200000X0.275000X0.200000X0*%
%TD*%
%TA.AperFunction,SMDPad,CuDef*%
%ADD29RoundRect,0.135000X-0.135000X-0.185000X0.135000X-0.185000X0.135000X0.185000X-0.135000X0.185000X0*%
%TD*%
%TA.AperFunction,SMDPad,CuDef*%
%ADD30RoundRect,0.250000X-0.250000X-0.475000X0.250000X-0.475000X0.250000X0.475000X-0.250000X0.475000X0*%
%TD*%
%TA.AperFunction,SMDPad,CuDef*%
%ADD31RoundRect,0.250000X1.075000X-0.312500X1.075000X0.312500X-1.075000X0.312500X-1.075000X-0.312500X0*%
%TD*%
%TA.AperFunction,SMDPad,CuDef*%
%ADD32R,1.500000X0.299999*%
%TD*%
%TA.AperFunction,SMDPad,CuDef*%
%ADD33R,0.299999X1.500000*%
%TD*%
%TA.AperFunction,ComponentPad*%
%ADD34C,0.499999*%
%TD*%
%TA.AperFunction,SMDPad,CuDef*%
%ADD35R,8.000000X8.000000*%
%TD*%
%TA.AperFunction,SMDPad,CuDef*%
%ADD36RoundRect,0.140000X-0.170000X0.140000X-0.170000X-0.140000X0.170000X-0.140000X0.170000X0.140000X0*%
%TD*%
%TA.AperFunction,SMDPad,CuDef*%
%ADD37R,5.511800X5.918200*%
%TD*%
%TA.AperFunction,SMDPad,CuDef*%
%ADD38R,0.939800X2.489200*%
%TD*%
%TA.AperFunction,ComponentPad*%
%ADD39C,2.971800*%
%TD*%
%TA.AperFunction,ViaPad*%
%ADD40C,0.500000*%
%TD*%
%TA.AperFunction,ViaPad*%
%ADD41C,0.600000*%
%TD*%
%TA.AperFunction,ViaPad*%
%ADD42C,0.550000*%
%TD*%
%TA.AperFunction,Conductor*%
%ADD43C,0.500000*%
%TD*%
%TA.AperFunction,Conductor*%
%ADD44C,0.200000*%
%TD*%
%TA.AperFunction,Conductor*%
%ADD45C,0.300000*%
%TD*%
%TA.AperFunction,Conductor*%
%ADD46C,0.400000*%
%TD*%
G04 APERTURE END LIST*
D10*
%TO.P,R2,1*%
%TO.N,/Project Architecture/Cell Sense & Balance/TAP8*%
X122937500Y-71312500D03*
%TO.P,R2,2*%
%TO.N,/Project Architecture/Cell Sense & Balance/VC8*%
X124587500Y-71312500D03*
%TD*%
D11*
%TO.P,R34,1*%
%TO.N,/Project Architecture/Connectors/T_P4*%
X154175998Y-75588399D03*
%TO.P,R34,2*%
%TO.N,/Project Architecture/Temperature Sense/GPIO4*%
X154175998Y-76608399D03*
%TD*%
D12*
%TO.P,R9,1*%
%TO.N,/Project Architecture/Cell Sense & Balance/TAP5*%
X115475000Y-82875000D03*
%TO.P,R9,2*%
%TO.N,/Project Architecture/Cell Sense & Balance/CB5*%
X121400000Y-82875000D03*
%TD*%
D13*
%TO.P,C39,1*%
%TO.N,/Project Architecture/Daisy Chain/U1_COMHP*%
X149000000Y-85018500D03*
%TO.P,C39,2*%
%TO.N,/Project Architecture/GND*%
X149000000Y-84058500D03*
%TD*%
D14*
%TO.P,C1,1*%
%TO.N,/Project Architecture/Cell Sense & Balance/BAT*%
X130350000Y-85250000D03*
%TO.P,C1,2*%
%TO.N,/Project Architecture/GND*%
X128800000Y-85250000D03*
%TD*%
D15*
%TO.P,D2,1,C_1*%
%TO.N,/Project Architecture/Temperature Sense/TBIAS*%
X136357000Y-81000000D03*
%TO.P,D2,2,A_2*%
%TO.N,/Project Architecture/Power & Reference/TSREF*%
X138643000Y-81000000D03*
%TD*%
D13*
%TO.P,C27,1*%
%TO.N,/Project Architecture/GND*%
X140125000Y-78655000D03*
%TO.P,C27,2*%
%TO.N,/Project Architecture/Power & Reference/LDOIN*%
X140125000Y-77695000D03*
%TD*%
D16*
%TO.P,J3,1,1_1*%
%TO.N,/Project Architecture/Cell Sense & Balance/TAP0*%
X108900000Y-95000000D03*
%TO.P,J3,2,2_2*%
%TO.N,/Project Architecture/Cell Sense & Balance/TAP2*%
X108900000Y-92000001D03*
%TO.P,J3,3,3_3*%
%TO.N,/Project Architecture/GND*%
X108900000Y-89000002D03*
%TO.P,J3,4,4_4*%
X108900000Y-86000002D03*
%TO.P,J3,5,5_5*%
%TO.N,/Project Architecture/Cell Sense & Balance/TAP8*%
X108900000Y-83000003D03*
%TO.P,J3,6,6_6*%
%TO.N,/Project Architecture/VMODULE*%
X108900000Y-80000004D03*
%TO.P,J3,7,7_7*%
%TO.N,/Project Architecture/Cell Sense & Balance/TAP1*%
X111899999Y-95000000D03*
%TO.P,J3,8,8_8*%
%TO.N,/Project Architecture/Cell Sense & Balance/TAP3*%
X111899999Y-92000001D03*
%TO.P,J3,9,9_9*%
%TO.N,/Project Architecture/Cell Sense & Balance/TAP4*%
X111899999Y-89000002D03*
%TO.P,J3,10,10_10*%
%TO.N,/Project Architecture/Cell Sense & Balance/TAP5*%
X111899999Y-86000002D03*
%TO.P,J3,11,11_11*%
%TO.N,/Project Architecture/Cell Sense & Balance/TAP6*%
X111899999Y-83000003D03*
%TO.P,J3,12,12_12*%
%TO.N,/Project Architecture/Cell Sense & Balance/TAP7*%
X111899999Y-80000004D03*
%TD*%
D17*
%TO.P,C29,1*%
%TO.N,/Project Architecture/Temperature Sense/GPIO1*%
X143176001Y-77558400D03*
%TO.P,C29,2*%
%TO.N,/Project Architecture/GND*%
X142216001Y-77558400D03*
%TD*%
D18*
%TO.P,R25,1*%
%TO.N,/Project Architecture/Temperature Sense/TBIAS*%
X151375998Y-77238399D03*
%TO.P,R25,2*%
%TO.N,/Project Architecture/Connectors/T_P3*%
X151375998Y-75588399D03*
%TD*%
D19*
%TO.P,FID2,*%
%TO.N,*%
X108000000Y-68750000D03*
%TD*%
D11*
%TO.P,R32,1*%
%TO.N,/Project Architecture/Connectors/T_P2*%
X147251001Y-75588399D03*
%TO.P,R32,2*%
%TO.N,/Project Architecture/Temperature Sense/GPIO2*%
X147251001Y-76608399D03*
%TD*%
%TO.P,R38,1*%
%TO.N,/Project Architecture/Connectors/T_P8*%
X168020998Y-75588399D03*
%TO.P,R38,2*%
%TO.N,/Project Architecture/Temperature Sense/GPIO8*%
X168020998Y-76608399D03*
%TD*%
D16*
%TO.P,J1,1,1_1*%
%TO.N,/Project Architecture/Connectors/COML.P*%
X171300000Y-105500000D03*
%TO.P,J1,2,2_2*%
%TO.N,/Project Architecture/Connectors/COML.N*%
X171300000Y-102500001D03*
%TD*%
D20*
%TO.P,TP8,1,1_1*%
%TO.N,/Project Architecture/GND*%
X107150000Y-147100000D03*
%TD*%
D10*
%TO.P,R16,1*%
%TO.N,/Project Architecture/Cell Sense & Balance/TAP1*%
X122937500Y-103687500D03*
%TO.P,R16,2*%
%TO.N,/Project Architecture/Cell Sense & Balance/VC1*%
X124587500Y-103687500D03*
%TD*%
D17*
%TO.P,C33,1*%
%TO.N,/Project Architecture/Temperature Sense/GPIO5*%
X157021001Y-77528400D03*
%TO.P,C33,2*%
%TO.N,/Project Architecture/GND*%
X156061001Y-77528400D03*
%TD*%
D12*
%TO.P,R19,1*%
%TO.N,/Project Architecture/Cell Sense & Balance/TAP0*%
X115475000Y-106000000D03*
%TO.P,R19,2*%
%TO.N,/Project Architecture/Cell Sense & Balance/CB0*%
X121400000Y-106000000D03*
%TD*%
D21*
%TO.P,CR1,1*%
%TO.N,/Project Architecture/Daisy Chain/COML_WP*%
X152154100Y-103100000D03*
%TO.P,CR1,2*%
X152154100Y-105000002D03*
%TO.P,CR1,3*%
%TO.N,/Project Architecture/GND*%
X154452800Y-104050001D03*
%TD*%
D20*
%TO.P,TP12,1,1_1*%
%TO.N,/Project Architecture/Daisy Chain/U1_COMLN*%
X88950000Y-137000000D03*
%TD*%
D12*
%TO.P,R17,1*%
%TO.N,/Project Architecture/Cell Sense & Balance/TAP1*%
X115475000Y-101375000D03*
%TO.P,R17,2*%
%TO.N,/Project Architecture/Cell Sense & Balance/CB1*%
X121400000Y-101375000D03*
%TD*%
D18*
%TO.P,R23,1*%
%TO.N,/Project Architecture/Temperature Sense/TBIAS*%
X144450998Y-77238399D03*
%TO.P,R23,2*%
%TO.N,/Project Architecture/Connectors/T_P1*%
X144450998Y-75588399D03*
%TD*%
D22*
%TO.P,D1,1,K_1*%
%TO.N,/Project Architecture/GND*%
X145325000Y-59500000D03*
%TO.P,D1,2,A_2*%
%TO.N,Net-(D1-A)*%
X143750000Y-59500000D03*
%TD*%
D19*
%TO.P,FID3,*%
%TO.N,*%
X167000000Y-68750000D03*
%TD*%
D23*
%TO.P,U2,1*%
%TO.N,/Project Architecture/Daisy Chain/COML_WP*%
X158103450Y-101510001D03*
%TO.P,U2,2*%
%TO.N,/Project Architecture/Daisy Chain/COML_CT*%
X158103450Y-104050001D03*
%TO.P,U2,3*%
%TO.N,/Project Architecture/Daisy Chain/COML_WP*%
X158103450Y-106590001D03*
%TO.P,U2,4*%
%TO.N,/Project Architecture/Connectors/COML.P*%
X166396550Y-106590001D03*
%TO.P,U2,5*%
%TO.N,unconnected-(U2-Pad5)*%
X166396550Y-104050001D03*
%TO.P,U2,6*%
%TO.N,/Project Architecture/Connectors/COML.N*%
X166396550Y-101510001D03*
%TD*%
D17*
%TO.P,C31,1*%
%TO.N,/Project Architecture/Temperature Sense/GPIO3*%
X150095998Y-77553399D03*
%TO.P,C31,2*%
%TO.N,/Project Architecture/GND*%
X149135998Y-77553399D03*
%TD*%
D24*
%TO.P,C36,1*%
%TO.N,/Project Architecture/Temperature Sense/GPIO8*%
X168020998Y-77528399D03*
%TO.P,C36,2*%
%TO.N,/Project Architecture/GND*%
X168980998Y-77528399D03*
%TD*%
D20*
%TO.P,TP7,1,1_1*%
%TO.N,/Project Architecture/Power & Reference/TSREF*%
X107150000Y-143050000D03*
%TD*%
%TO.P,TP6,1,1_1*%
%TO.N,/Project Architecture/Power & Reference/LDOIN*%
X103100000Y-147100000D03*
%TD*%
D18*
%TO.P,R30,1*%
%TO.N,/Project Architecture/Temperature Sense/TBIAS*%
X166750998Y-77238399D03*
%TO.P,R30,2*%
%TO.N,/Project Architecture/Connectors/T_P8*%
X166750998Y-75588399D03*
%TD*%
D23*
%TO.P,U3,1*%
%TO.N,/Project Architecture/Daisy Chain/COMH_WP*%
X158103450Y-83428501D03*
%TO.P,U3,2*%
%TO.N,/Project Architecture/Daisy Chain/COMH_CT*%
X158103450Y-85968501D03*
%TO.P,U3,3*%
%TO.N,/Project Architecture/Daisy Chain/COMH_WN*%
X158103450Y-88508501D03*
%TO.P,U3,4*%
%TO.N,/Project Architecture/Connectors/COMH.N*%
X166396550Y-88508501D03*
%TO.P,U3,5*%
%TO.N,unconnected-(U3-Pad5)*%
X166396550Y-85968501D03*
%TO.P,U3,6*%
%TO.N,/Project Architecture/Connectors/COMH.P*%
X166396550Y-83428501D03*
%TD*%
D25*
%TO.P,C11,1*%
%TO.N,/Project Architecture/Cell Sense & Balance/VC1*%
X141650000Y-101500000D03*
%TO.P,C11,2*%
%TO.N,/Project Architecture/Cell Sense & Balance/VC0*%
X143200000Y-101500000D03*
%TD*%
D20*
%TO.P,TP5,1,1_1*%
%TO.N,/Project Architecture/Power & Reference/VCOLL*%
X103100000Y-143050000D03*
%TD*%
D10*
%TO.P,R18,1*%
%TO.N,/Project Architecture/Cell Sense & Balance/TAP0*%
X122937500Y-108000000D03*
%TO.P,R18,2*%
%TO.N,/Project Architecture/Cell Sense & Balance/VC0*%
X124587500Y-108000000D03*
%TD*%
D26*
%TO.P,C28,1*%
%TO.N,/Project Architecture/Power & Reference/VCOLL*%
X141250000Y-66800000D03*
%TO.P,C28,2*%
%TO.N,/Project Architecture/GND*%
X141250000Y-68700000D03*
%TD*%
D25*
%TO.P,C6,1*%
%TO.N,/Project Architecture/Cell Sense & Balance/VC6*%
X133900000Y-100000000D03*
%TO.P,C6,2*%
%TO.N,/Project Architecture/Cell Sense & Balance/VC5*%
X135450000Y-100000000D03*
%TD*%
D27*
%TO.P,R21,1*%
%TO.N,/Project Architecture/Power & Reference/VCOLL_R*%
X131250000Y-66787500D03*
%TO.P,R21,2*%
%TO.N,/Project Architecture/Power & Reference/VCOLL*%
X131250000Y-69712500D03*
%TD*%
D11*
%TO.P,R31,1*%
%TO.N,/Project Architecture/Connectors/T_P1*%
X143176001Y-75588399D03*
%TO.P,R31,2*%
%TO.N,/Project Architecture/Temperature Sense/GPIO1*%
X143176001Y-76608399D03*
%TD*%
%TO.P,R33,1*%
%TO.N,/Project Architecture/Connectors/T_P3*%
X150095998Y-75588399D03*
%TO.P,R33,2*%
%TO.N,/Project Architecture/Temperature Sense/GPIO3*%
X150095998Y-76608399D03*
%TD*%
D10*
%TO.P,R10,1*%
%TO.N,/Project Architecture/Cell Sense & Balance/TAP4*%
X122937500Y-89812500D03*
%TO.P,R10,2*%
%TO.N,/Project Architecture/Cell Sense & Balance/VC4*%
X124587500Y-89812500D03*
%TD*%
D11*
%TO.P,R40,1*%
%TO.N,/Project Architecture/Daisy Chain/U1_COMHP*%
X148000000Y-85358501D03*
%TO.P,R40,2*%
%TO.N,/Project Architecture/Daisy Chain/U1_COMHN*%
X148000000Y-86378501D03*
%TD*%
D25*
%TO.P,C12,1*%
%TO.N,/Project Architecture/Cell Sense & Balance/VC0*%
X143200000Y-100000000D03*
%TO.P,C12,2*%
%TO.N,/Project Architecture/GND*%
X144750000Y-100000000D03*
%TD*%
D28*
%TO.P,R1,1*%
%TO.N,/Project Architecture/VMODULE*%
X130350000Y-82175000D03*
%TO.P,R1,2*%
%TO.N,/Project Architecture/Cell Sense & Balance/BAT*%
X130350000Y-83825000D03*
%TD*%
D20*
%TO.P,TP11,1,1_1*%
%TO.N,/Project Architecture/Daisy Chain/U1_COMLP*%
X88950000Y-132950000D03*
%TD*%
D25*
%TO.P,C7,1*%
%TO.N,/Project Architecture/Cell Sense & Balance/VC5*%
X135450000Y-101500000D03*
%TO.P,C7,2*%
%TO.N,/Project Architecture/Cell Sense & Balance/VC4*%
X137000000Y-101500000D03*
%TD*%
D12*
%TO.P,R11,1*%
%TO.N,/Project Architecture/Cell Sense & Balance/TAP4*%
X115475000Y-87500000D03*
%TO.P,R11,2*%
%TO.N,/Project Architecture/Cell Sense & Balance/CB4*%
X121400000Y-87500000D03*
%TD*%
D29*
%TO.P,R43,1*%
%TO.N,/Project Architecture/Daisy Chain/U1_COMHP*%
X149940000Y-85018500D03*
%TO.P,R43,2*%
%TO.N,/Project Architecture/Daisy Chain/COMH_WP*%
X150960000Y-85018500D03*
%TD*%
D25*
%TO.P,C8,1*%
%TO.N,/Project Architecture/Cell Sense & Balance/VC4*%
X137000000Y-100000000D03*
%TO.P,C8,2*%
%TO.N,/Project Architecture/Cell Sense & Balance/VC3*%
X138550000Y-100000000D03*
%TD*%
D10*
%TO.P,R14,1*%
%TO.N,/Project Architecture/Cell Sense & Balance/TAP2*%
X122937500Y-99062500D03*
%TO.P,R14,2*%
%TO.N,/Project Architecture/Cell Sense & Balance/VC2*%
X124587500Y-99062500D03*
%TD*%
%TO.P,R12,1*%
%TO.N,/Project Architecture/Cell Sense & Balance/TAP3*%
X122937500Y-94437500D03*
%TO.P,R12,2*%
%TO.N,/Project Architecture/Cell Sense & Balance/VC3*%
X124587500Y-94437500D03*
%TD*%
D13*
%TO.P,C25,1*%
%TO.N,/Project Architecture/Power & Reference/NEG5V*%
X145775000Y-81230000D03*
%TO.P,C25,2*%
%TO.N,/Project Architecture/GND*%
X145775000Y-80270000D03*
%TD*%
D11*
%TO.P,R35,1*%
%TO.N,/Project Architecture/Connectors/T_P5*%
X157021001Y-75588400D03*
%TO.P,R35,2*%
%TO.N,/Project Architecture/Temperature Sense/GPIO5*%
X157021001Y-76608400D03*
%TD*%
D30*
%TO.P,C21,1*%
%TO.N,/Project Architecture/GND*%
X139800000Y-82500000D03*
%TO.P,C21,2*%
%TO.N,/Project Architecture/Power & Reference/DVDD*%
X141700000Y-82500000D03*
%TD*%
D20*
%TO.P,TP1,1,1_1*%
%TO.N,/Project Architecture/CVDD*%
X95000000Y-143050000D03*
%TD*%
D18*
%TO.P,R29,1*%
%TO.N,/Project Architecture/Temperature Sense/TBIAS*%
X165211001Y-77238399D03*
%TO.P,R29,2*%
%TO.N,/Project Architecture/Connectors/T_P7*%
X165211001Y-75588399D03*
%TD*%
D20*
%TO.P,TP9,1,1_1*%
%TO.N,/Project Architecture/Connectors/T_P1*%
X95000000Y-132950000D03*
%TD*%
D24*
%TO.P,C32,1*%
%TO.N,/Project Architecture/Temperature Sense/GPIO4*%
X154175998Y-77528399D03*
%TO.P,C32,2*%
%TO.N,/Project Architecture/GND*%
X155135998Y-77528399D03*
%TD*%
D20*
%TO.P,TP13,1,1_1*%
%TO.N,/Project Architecture/Daisy Chain/U1_COMHP*%
X88950000Y-141050000D03*
%TD*%
%TO.P,TP10,1,1_1*%
%TO.N,/Project Architecture/GND*%
X95000000Y-137000000D03*
%TD*%
D12*
%TO.P,R5,1*%
%TO.N,/Project Architecture/Cell Sense & Balance/TAP7*%
X115475000Y-73625000D03*
%TO.P,R5,2*%
%TO.N,/Project Architecture/Cell Sense & Balance/CB7*%
X121400000Y-73625000D03*
%TD*%
D29*
%TO.P,R44,1*%
%TO.N,/Project Architecture/Daisy Chain/U1_COMHN*%
X149940000Y-86918502D03*
%TO.P,R44,2*%
%TO.N,/Project Architecture/Daisy Chain/COMH_WN*%
X150960000Y-86918502D03*
%TD*%
D10*
%TO.P,R8,1*%
%TO.N,/Project Architecture/Cell Sense & Balance/TAP5*%
X122937500Y-85187500D03*
%TO.P,R8,2*%
%TO.N,/Project Architecture/Cell Sense & Balance/VC5*%
X124587500Y-85187500D03*
%TD*%
D11*
%TO.P,R36,1*%
%TO.N,/Project Architecture/Connectors/T_P6*%
X161090998Y-75588400D03*
%TO.P,R36,2*%
%TO.N,/Project Architecture/Temperature Sense/GPIO6*%
X161090998Y-76608400D03*
%TD*%
D18*
%TO.P,R27,1*%
%TO.N,/Project Architecture/Temperature Sense/TBIAS*%
X158290998Y-77238400D03*
%TO.P,R27,2*%
%TO.N,/Project Architecture/Connectors/T_P5*%
X158290998Y-75588400D03*
%TD*%
D20*
%TO.P,TP4,1,1_1*%
%TO.N,/Project Architecture/Power & Reference/LDOIN*%
X99050000Y-147100000D03*
%TD*%
D25*
%TO.P,C2,1*%
%TO.N,/Project Architecture/Cell Sense & Balance/VC8*%
X130800000Y-100000000D03*
%TO.P,C2,2*%
%TO.N,/Project Architecture/Cell Sense & Balance/VC7*%
X132350000Y-100000000D03*
%TD*%
%TO.P,C10,1*%
%TO.N,/Project Architecture/Cell Sense & Balance/VC2*%
X140100000Y-100000000D03*
%TO.P,C10,2*%
%TO.N,/Project Architecture/Cell Sense & Balance/VC1*%
X141650000Y-100000000D03*
%TD*%
%TO.P,C5,1*%
%TO.N,/Project Architecture/Cell Sense & Balance/VC7*%
X132350000Y-101500000D03*
%TO.P,C5,2*%
%TO.N,/Project Architecture/Cell Sense & Balance/VC6*%
X133900000Y-101500000D03*
%TD*%
D31*
%TO.P,R20,1*%
%TO.N,/Project Architecture/VMODULE*%
X128000000Y-69712500D03*
%TO.P,R20,2*%
%TO.N,/Project Architecture/Power & Reference/VCOLL_R*%
X128000000Y-66787500D03*
%TD*%
D16*
%TO.P,J2,1,1_1*%
%TO.N,/Project Architecture/Connectors/COMH.P*%
X171300000Y-84500001D03*
%TO.P,J2,2,2_2*%
%TO.N,/Project Architecture/Connectors/COMH.N*%
X171300000Y-87500000D03*
%TD*%
D12*
%TO.P,R7,1*%
%TO.N,/Project Architecture/Cell Sense & Balance/TAP6*%
X115475000Y-78250000D03*
%TO.P,R7,2*%
%TO.N,/Project Architecture/Cell Sense & Balance/CB6*%
X121400000Y-78250000D03*
%TD*%
D13*
%TO.P,C37,1*%
%TO.N,/Project Architecture/Daisy Chain/U1_COMLN*%
X149003450Y-103100000D03*
%TO.P,C37,2*%
%TO.N,/Project Architecture/GND*%
X149003450Y-102140000D03*
%TD*%
D29*
%TO.P,R41,1*%
%TO.N,/Project Architecture/Daisy Chain/U1_COMLN*%
X149893450Y-103100000D03*
%TO.P,R41,2*%
%TO.N,/Project Architecture/Daisy Chain/COML_WP*%
X150913450Y-103100000D03*
%TD*%
D20*
%TO.P,TP2,1,1_1*%
%TO.N,/Project Architecture/Power & Reference/DVDD*%
X95000000Y-147100000D03*
%TD*%
D11*
%TO.P,R39,1*%
%TO.N,/Project Architecture/Daisy Chain/U1_COMLN*%
X148003450Y-103540001D03*
%TO.P,R39,2*%
%TO.N,/Project Architecture/Daisy Chain/U1_COMLP*%
X148003450Y-104560001D03*
%TD*%
D24*
%TO.P,C34,1*%
%TO.N,/Project Architecture/Temperature Sense/GPIO6*%
X161090998Y-77528400D03*
%TO.P,C34,2*%
%TO.N,/Project Architecture/GND*%
X162050998Y-77528400D03*
%TD*%
D18*
%TO.P,R24,1*%
%TO.N,/Project Architecture/Temperature Sense/TBIAS*%
X145975998Y-77238399D03*
%TO.P,R24,2*%
%TO.N,/Project Architecture/Connectors/T_P2*%
X145975998Y-75588399D03*
%TD*%
D11*
%TO.P,R37,1*%
%TO.N,/Project Architecture/Connectors/T_P7*%
X163931001Y-75588399D03*
%TO.P,R37,2*%
%TO.N,/Project Architecture/Temperature Sense/GPIO7*%
X163931001Y-76608399D03*
%TD*%
D12*
%TO.P,R15,1*%
%TO.N,/Project Architecture/Cell Sense & Balance/TAP2*%
X115475000Y-96750000D03*
%TO.P,R15,2*%
%TO.N,/Project Architecture/Cell Sense & Balance/CB2*%
X121400000Y-96750000D03*
%TD*%
D18*
%TO.P,R26,1*%
%TO.N,/Project Architecture/Temperature Sense/TBIAS*%
X152900998Y-77238399D03*
%TO.P,R26,2*%
%TO.N,/Project Architecture/Connectors/T_P4*%
X152900998Y-75588399D03*
%TD*%
D32*
%TO.P,U1,1,BAT_1*%
%TO.N,/Project Architecture/Cell Sense & Balance/BAT*%
X130350002Y-86399999D03*
%TO.P,U1,2,CB16_2*%
X130350002Y-86899998D03*
%TO.P,U1,3,VC16_3*%
X130350002Y-87399999D03*
%TO.P,U1,4,CB15_4*%
X130350002Y-87899998D03*
%TO.P,U1,5,VC15_5*%
X130350002Y-88400000D03*
%TO.P,U1,6,CB14_6*%
X130350002Y-88899999D03*
%TO.P,U1,7,VC14_7*%
X130350002Y-89399998D03*
%TO.P,U1,8,CB13_8*%
X130350002Y-89899999D03*
%TO.P,U1,9,VC13_9*%
X130350002Y-90399999D03*
%TO.P,U1,10,CB12_10*%
X130350002Y-90900000D03*
%TO.P,U1,11,VC12_11*%
X130350002Y-91399999D03*
%TO.P,U1,12,CB11_12*%
X130350002Y-91899998D03*
%TO.P,U1,13,VC11_13*%
X130350002Y-92400000D03*
%TO.P,U1,14,CB10_14*%
X130350002Y-92899999D03*
%TO.P,U1,15,VC10_15*%
X130350002Y-93400000D03*
%TO.P,U1,16,CB9_16*%
X130350002Y-93899999D03*
D33*
%TO.P,U1,17,VC9_17*%
X132300001Y-95849998D03*
%TO.P,U1,18,CB8_18*%
%TO.N,/Project Architecture/Cell Sense & Balance/CB8*%
X132800000Y-95849998D03*
%TO.P,U1,19,VC8_19*%
%TO.N,/Project Architecture/Cell Sense & Balance/VC8*%
X133300001Y-95849998D03*
%TO.P,U1,20,CB7_20*%
%TO.N,/Project Architecture/Cell Sense & Balance/CB7*%
X133800000Y-95849998D03*
%TO.P,U1,21,VC7_21*%
%TO.N,/Project Architecture/Cell Sense & Balance/VC7*%
X134300002Y-95849998D03*
%TO.P,U1,22,CB6_22*%
%TO.N,/Project Architecture/Cell Sense & Balance/CB6*%
X134800001Y-95849998D03*
%TO.P,U1,23,VC6_23*%
%TO.N,/Project Architecture/Cell Sense & Balance/VC6*%
X135300000Y-95849998D03*
%TO.P,U1,24,CB5_24*%
%TO.N,/Project Architecture/Cell Sense & Balance/CB5*%
X135800001Y-95849998D03*
%TO.P,U1,25,VC5_25*%
%TO.N,/Project Architecture/Cell Sense & Balance/VC5*%
X136300001Y-95849998D03*
%TO.P,U1,26,CB4_26*%
%TO.N,/Project Architecture/Cell Sense & Balance/CB4*%
X136800002Y-95849998D03*
%TO.P,U1,27,VC4_27*%
%TO.N,/Project Architecture/Cell Sense & Balance/VC4*%
X137300001Y-95849998D03*
%TO.P,U1,28,CB3_28*%
%TO.N,/Project Architecture/Cell Sense & Balance/CB3*%
X137800000Y-95849998D03*
%TO.P,U1,29,VC3_29*%
%TO.N,/Project Architecture/Cell Sense & Balance/VC3*%
X138300002Y-95849998D03*
%TO.P,U1,30,CB2_30*%
%TO.N,/Project Architecture/Cell Sense & Balance/CB2*%
X138800001Y-95849998D03*
%TO.P,U1,31,VC2_31*%
%TO.N,/Project Architecture/Cell Sense & Balance/VC2*%
X139300002Y-95849998D03*
%TO.P,U1,32,CB1_32*%
%TO.N,/Project Architecture/Cell Sense & Balance/CB1*%
X139800001Y-95849998D03*
D32*
%TO.P,U1,33,VC1_33*%
%TO.N,/Project Architecture/Cell Sense & Balance/VC1*%
X141750000Y-93899999D03*
%TO.P,U1,34,CB0_34*%
%TO.N,/Project Architecture/Cell Sense & Balance/CB0*%
X141750000Y-93400000D03*
%TO.P,U1,35,VC0_35*%
%TO.N,/Project Architecture/Cell Sense & Balance/VC0*%
X141750000Y-92899999D03*
%TO.P,U1,36,REFHM_36*%
%TO.N,/Project Architecture/GND*%
X141750000Y-92400000D03*
%TO.P,U1,37,REFHP_37*%
%TO.N,/Project Architecture/Power & Reference/REFHP*%
X141750000Y-91899998D03*
%TO.P,U1,38,AVDD_38*%
%TO.N,/Project Architecture/Power & Reference/AVDD*%
X141750000Y-91399999D03*
%TO.P,U1,39,AVSS_39*%
%TO.N,/Project Architecture/GND*%
X141750000Y-90900000D03*
%TO.P,U1,40,COMLP_40*%
%TO.N,/Project Architecture/Daisy Chain/U1_COMLP*%
X141750000Y-90399999D03*
%TO.P,U1,41,COMLN_41*%
%TO.N,/Project Architecture/Daisy Chain/U1_COMLN*%
X141750000Y-89899999D03*
%TO.P,U1,42,COMHN_42*%
%TO.N,/Project Architecture/Daisy Chain/U1_COMHN*%
X141750000Y-89399998D03*
%TO.P,U1,43,COMHP_43*%
%TO.N,/Project Architecture/Daisy Chain/U1_COMHP*%
X141750000Y-88899999D03*
%TO.P,U1,44,NEG5V_44*%
%TO.N,/Project Architecture/Power & Reference/NEG5V*%
X141750000Y-88400000D03*
%TO.P,U1,45,CVDD_45*%
%TO.N,/Project Architecture/CVDD*%
X141750000Y-87899998D03*
%TO.P,U1,46,CVSS_46*%
%TO.N,/Project Architecture/GND*%
X141750000Y-87399999D03*
%TO.P,U1,47,LDOIN_47*%
%TO.N,/Project Architecture/Power & Reference/LDOIN*%
X141750000Y-86899998D03*
%TO.P,U1,48,NPNB_48*%
%TO.N,/Project Architecture/Power & Reference/NPNB*%
X141750000Y-86399999D03*
D33*
%TO.P,U1,49,DVDD_49*%
%TO.N,/Project Architecture/Power & Reference/DVDD*%
X139800001Y-84450000D03*
%TO.P,U1,50,DVSS_50*%
%TO.N,/Project Architecture/GND*%
X139300002Y-84450000D03*
%TO.P,U1,51,TSREF_51*%
%TO.N,/Project Architecture/Power & Reference/TSREF*%
X138800001Y-84450000D03*
%TO.P,U1,52,RX_52*%
%TO.N,/Project Architecture/CVDD*%
X138300002Y-84450000D03*
%TO.P,U1,53,TX_53*%
%TO.N,unconnected-(U1Communication-TX-Pad53)*%
X137800000Y-84450000D03*
%TO.P,U1,54,GPIO8_54*%
%TO.N,/Project Architecture/Temperature Sense/GPIO8*%
X137300001Y-84450000D03*
%TO.P,U1,55,GPIO7_55*%
%TO.N,/Project Architecture/Temperature Sense/GPIO7*%
X136800002Y-84450000D03*
%TO.P,U1,56,GPIO6_56*%
%TO.N,/Project Architecture/Temperature Sense/GPIO6*%
X136300001Y-84450000D03*
%TO.P,U1,57,GPIO5_57*%
%TO.N,/Project Architecture/Temperature Sense/GPIO5*%
X135800001Y-84450000D03*
%TO.P,U1,58,GPIO4_58*%
%TO.N,/Project Architecture/Temperature Sense/GPIO4*%
X135300000Y-84450000D03*
%TO.P,U1,59,GPIO3_59*%
%TO.N,/Project Architecture/Temperature Sense/GPIO3*%
X134800001Y-84450000D03*
%TO.P,U1,60,GPIO2_60*%
%TO.N,/Project Architecture/Temperature Sense/GPIO2*%
X134300002Y-84450000D03*
%TO.P,U1,61,GPIO1_61*%
%TO.N,/Project Architecture/Temperature Sense/GPIO1*%
X133800000Y-84450000D03*
%TO.P,U1,62,FAULT_N_62*%
%TO.N,unconnected-(U1Communication-FAULT_N-Pad62)*%
X133300001Y-84450000D03*
%TO.P,U1,63,BBN_63*%
%TO.N,unconnected-(U1Aux inputs-BBN-Pad63)*%
X132800000Y-84450000D03*
%TO.P,U1,64,BBP_64*%
%TO.N,unconnected-(U1Aux inputs-BBP-Pad64)*%
X132300001Y-84450000D03*
D34*
%TO.P,U1,65,PAD_65*%
%TO.N,/Project Architecture/GND*%
X132800000Y-86899998D03*
X132800000Y-88199998D03*
X132800000Y-89500000D03*
X132800000Y-90800000D03*
X132800000Y-92100000D03*
X132800000Y-93400000D03*
X134100000Y-86899998D03*
X134100000Y-88199998D03*
X134100000Y-89500000D03*
X134100000Y-90800000D03*
X134100000Y-92100000D03*
X134100000Y-93400000D03*
X135400000Y-86899998D03*
X135400000Y-88199998D03*
X135400000Y-89500000D03*
X135400000Y-90800000D03*
X135400000Y-92100000D03*
X135400000Y-93400000D03*
D35*
X136050001Y-90149999D03*
D34*
X136700002Y-86899998D03*
X136700002Y-88199998D03*
X136700002Y-89500000D03*
X136700002Y-90800000D03*
X136700002Y-92100000D03*
X136700002Y-93400000D03*
X138000002Y-86899998D03*
X138000002Y-88199998D03*
X138000002Y-89500000D03*
X138000002Y-90800000D03*
X138000002Y-92100000D03*
X138000002Y-93400000D03*
X139300002Y-86899998D03*
X139300002Y-88199998D03*
X139300002Y-89500000D03*
X139300002Y-90800000D03*
X139300002Y-92100000D03*
X139300002Y-93400000D03*
%TD*%
D36*
%TO.P,C40,1*%
%TO.N,/Project Architecture/Daisy Chain/U1_COMHN*%
X149000000Y-86918502D03*
%TO.P,C40,2*%
%TO.N,/Project Architecture/GND*%
X149000000Y-87878502D03*
%TD*%
D29*
%TO.P,R22,1*%
%TO.N,/Project Architecture/CVDD*%
X144782116Y-58287400D03*
%TO.P,R22,2*%
%TO.N,Net-(D1-A)*%
X145802116Y-58287400D03*
%TD*%
D19*
%TO.P,FID1,*%
%TO.N,*%
X108000000Y-106250000D03*
%TD*%
D18*
%TO.P,R28,1*%
%TO.N,/Project Architecture/Temperature Sense/TBIAS*%
X159815998Y-77238400D03*
%TO.P,R28,2*%
%TO.N,/Project Architecture/Connectors/T_P6*%
X159815998Y-75588400D03*
%TD*%
D21*
%TO.P,CR2,1*%
%TO.N,/Project Architecture/Daisy Chain/COMH_WP*%
X152154100Y-85018500D03*
%TO.P,CR2,2*%
%TO.N,/Project Architecture/Daisy Chain/COMH_WN*%
X152154100Y-86918502D03*
%TO.P,CR2,3*%
%TO.N,/Project Architecture/GND*%
X154452800Y-85968501D03*
%TD*%
D24*
%TO.P,C30,1*%
%TO.N,/Project Architecture/Temperature Sense/GPIO2*%
X147251001Y-77558400D03*
%TO.P,C30,2*%
%TO.N,/Project Architecture/GND*%
X148211001Y-77558400D03*
%TD*%
D37*
%TO.P,Q1,1,C_1*%
%TO.N,/Project Architecture/Power & Reference/VCOLL*%
X136500000Y-69172600D03*
D38*
%TO.P,Q1,2,B_2*%
%TO.N,/Project Architecture/Power & Reference/NPNB*%
X134219999Y-77541900D03*
%TO.P,Q1,3,E_3*%
%TO.N,/Project Architecture/Power & Reference/LDOIN*%
X138780001Y-77541900D03*
%TD*%
D36*
%TO.P,C38,1*%
%TO.N,/Project Architecture/Daisy Chain/U1_COMLP*%
X149003450Y-105000002D03*
%TO.P,C38,2*%
%TO.N,/Project Architecture/GND*%
X149003450Y-105960002D03*
%TD*%
D16*
%TO.P,J4,1,1_1*%
%TO.N,/Project Architecture/Connectors/T_P8*%
X161500000Y-72000000D03*
%TO.P,J4,2,2_2*%
%TO.N,/Project Architecture/Connectors/T_P7*%
X158500001Y-72000000D03*
%TO.P,J4,3,3_3*%
%TO.N,/Project Architecture/Connectors/T_P6*%
X155500002Y-72000000D03*
%TO.P,J4,4,4_4*%
%TO.N,/Project Architecture/Connectors/T_P5*%
X152500003Y-72000000D03*
%TO.P,J4,5,5_5*%
%TO.N,/Project Architecture/Connectors/T_P4*%
X149500004Y-72000000D03*
%TO.P,J4,6,6_6*%
%TO.N,/Project Architecture/Connectors/T_P3*%
X161500000Y-69000001D03*
%TO.P,J4,7,7_7*%
%TO.N,/Project Architecture/Connectors/T_P2*%
X158500001Y-69000001D03*
%TO.P,J4,8,8_8*%
%TO.N,/Project Architecture/Connectors/T_P1*%
X155500002Y-69000001D03*
%TO.P,J4,9,9_9*%
%TO.N,/Project Architecture/GND*%
X152500003Y-69000001D03*
%TO.P,J4,10,10_10*%
X149500004Y-69000001D03*
D39*
%TO.P,J4,11,11_11*%
X147350003Y-70500000D03*
%TO.P,J4,12,12_12*%
X163650001Y-70500000D03*
%TD*%
D17*
%TO.P,C41,1*%
%TO.N,/Project Architecture/Daisy Chain/COML_CT*%
X156683450Y-104050001D03*
%TO.P,C41,2*%
%TO.N,/Project Architecture/GND*%
X155723450Y-104050001D03*
%TD*%
D12*
%TO.P,R13,1*%
%TO.N,/Project Architecture/Cell Sense & Balance/TAP3*%
X115475000Y-92125000D03*
%TO.P,R13,2*%
%TO.N,/Project Architecture/Cell Sense & Balance/CB3*%
X121400000Y-92125000D03*
%TD*%
D14*
%TO.P,C26,1*%
%TO.N,/Project Architecture/Power & Reference/TSREF*%
X138275000Y-82700000D03*
%TO.P,C26,2*%
%TO.N,/Project Architecture/GND*%
X136725000Y-82700000D03*
%TD*%
D17*
%TO.P,C42,1*%
%TO.N,/Project Architecture/Daisy Chain/COMH_CT*%
X156730000Y-85968501D03*
%TO.P,C42,2*%
%TO.N,/Project Architecture/GND*%
X155770000Y-85968501D03*
%TD*%
%TO.P,C35,1*%
%TO.N,/Project Architecture/Temperature Sense/GPIO7*%
X163931001Y-77528399D03*
%TO.P,C35,2*%
%TO.N,/Project Architecture/GND*%
X162971001Y-77528399D03*
%TD*%
D10*
%TO.P,R4,1*%
%TO.N,/Project Architecture/Cell Sense & Balance/TAP7*%
X122937500Y-75937500D03*
%TO.P,R4,2*%
%TO.N,/Project Architecture/Cell Sense & Balance/VC7*%
X124587500Y-75937500D03*
%TD*%
D25*
%TO.P,C9,1*%
%TO.N,/Project Architecture/Cell Sense & Balance/VC3*%
X138550000Y-101500000D03*
%TO.P,C9,2*%
%TO.N,/Project Architecture/Cell Sense & Balance/VC2*%
X140100000Y-101500000D03*
%TD*%
D20*
%TO.P,TP3,1,1_1*%
%TO.N,/Project Architecture/Power & Reference/AVDD*%
X99050000Y-143050000D03*
%TD*%
D10*
%TO.P,R6,1*%
%TO.N,/Project Architecture/Cell Sense & Balance/TAP6*%
X122937500Y-80562500D03*
%TO.P,R6,2*%
%TO.N,/Project Architecture/Cell Sense & Balance/VC6*%
X124587500Y-80562500D03*
%TD*%
D29*
%TO.P,R42,1*%
%TO.N,/Project Architecture/Daisy Chain/U1_COMLP*%
X149893450Y-105000002D03*
%TO.P,R42,2*%
%TO.N,/Project Architecture/Daisy Chain/COML_WP*%
X150913450Y-105000002D03*
%TD*%
D12*
%TO.P,R3,1*%
%TO.N,/Project Architecture/Cell Sense & Balance/TAP8*%
X115475000Y-69000000D03*
%TO.P,R3,2*%
%TO.N,/Project Architecture/Cell Sense & Balance/CB8*%
X121400000Y-69000000D03*
%TD*%
D20*
%TO.P,TP14,1,1_1*%
%TO.N,/Project Architecture/Daisy Chain/U1_COMHN*%
X88950000Y-145100000D03*
%TD*%
D40*
%TO.N,/Project Architecture/Temperature Sense/GPIO4*%
X135000000Y-85684180D03*
D41*
%TO.N,/Project Architecture/Cell Sense & Balance/CB5*%
X135500000Y-98000000D03*
D40*
X123150000Y-82875000D03*
X123900000Y-82875000D03*
%TO.N,/Project Architecture/GND*%
X142925000Y-92400000D03*
X140600000Y-90775000D03*
D42*
%TO.N,/Project Architecture/Cell Sense & Balance/BAT*%
X131500000Y-96500000D03*
D40*
%TO.N,/Project Architecture/Temperature Sense/GPIO2*%
X134108006Y-85621349D03*
%TO.N,/Project Architecture/Temperature Sense/GPIO8*%
X137715983Y-85684180D03*
X168000000Y-78400000D03*
%TO.N,/Project Architecture/Temperature Sense/GPIO5*%
X135626967Y-83228089D03*
%TO.N,/Project Architecture/Cell Sense & Balance/CB0*%
X123150000Y-106000000D03*
D41*
X143100000Y-93700000D03*
D40*
X123900000Y-106000000D03*
%TO.N,/Project Architecture/Cell Sense & Balance/CB1*%
X123900000Y-101375000D03*
D41*
X140750000Y-97500000D03*
D40*
X123150000Y-101375000D03*
%TO.N,/Project Architecture/Temperature Sense/GPIO3*%
X134900000Y-83228089D03*
D41*
%TO.N,/Project Architecture/Cell Sense & Balance/CB4*%
X136750000Y-98500000D03*
D40*
X123150000Y-87500000D03*
X123900000Y-87500000D03*
%TO.N,/Project Architecture/Cell Sense & Balance/CB7*%
X123150000Y-73625000D03*
D41*
X132581315Y-98453180D03*
D40*
X123900000Y-73625000D03*
%TO.N,/Project Architecture/Temperature Sense/GPIO6*%
X135900000Y-85684180D03*
%TO.N,/Project Architecture/Cell Sense & Balance/CB6*%
X123150000Y-78250000D03*
D41*
X133926052Y-98176052D03*
D40*
X123900000Y-78250000D03*
%TO.N,/Project Architecture/Temperature Sense/GPIO7*%
X136800001Y-85684180D03*
D41*
%TO.N,/Project Architecture/Cell Sense & Balance/CB2*%
X139250000Y-97500000D03*
D40*
X123900000Y-96750000D03*
X123150000Y-96750000D03*
D41*
%TO.N,/Project Architecture/Cell Sense & Balance/CB8*%
X131750000Y-97500000D03*
D40*
X123900000Y-69000000D03*
X123150000Y-69000000D03*
D41*
%TO.N,/Project Architecture/Cell Sense & Balance/CB3*%
X138000000Y-98250000D03*
D40*
X123150000Y-92125000D03*
X123900000Y-92125000D03*
%TO.N,/Project Architecture/Power & Reference/REFHP*%
X142942997Y-91629086D03*
%TO.N,/Project Architecture/Power & Reference/AVDD*%
X140577091Y-91596216D03*
%TD*%
%TO.N,/Project Architecture/Cell Sense & Balance/TAP8*%
D43*
X115475000Y-69000000D02*
X114400000Y-69000000D01*
X116400000Y-69000000D02*
X115475000Y-69000000D01*
X110400000Y-81500000D02*
X109774972Y-82125028D01*
X109774972Y-82125031D02*
X108900000Y-83000003D01*
X122937500Y-71312500D02*
X118712500Y-71312500D01*
X118712500Y-71312500D02*
X116400000Y-69000000D01*
X110400000Y-73000000D02*
X110400000Y-81500000D01*
X109774972Y-82125028D02*
X109774972Y-82125031D01*
X114400000Y-69000000D02*
X110400000Y-73000000D01*
%TO.N,/Project Architecture/Cell Sense & Balance/VC8*%
D44*
X129700000Y-100000000D02*
X127900000Y-98200000D01*
X130800000Y-99245838D02*
X130800000Y-100000000D01*
X127212500Y-71312500D02*
X124587500Y-71312500D01*
X127900000Y-72000000D02*
X127212500Y-71312500D01*
X130800000Y-100000000D02*
X129700000Y-100000000D01*
X133299999Y-96745838D02*
X130800000Y-99245838D01*
X127900000Y-98200000D02*
X127900000Y-72000000D01*
X133299999Y-95849998D02*
X133299999Y-96745838D01*
%TO.N,/Project Architecture/Connectors/T_P4*%
X154091004Y-75503405D02*
X154175998Y-75588399D01*
X152900998Y-75588399D02*
X154175998Y-75588399D01*
%TO.N,/Project Architecture/Temperature Sense/GPIO4*%
X135300000Y-84450000D02*
X135300000Y-85384180D01*
X135000000Y-85684180D02*
X135000000Y-85699997D01*
X154175998Y-76608399D02*
X154175998Y-77528399D01*
X135300000Y-85384180D02*
X135000000Y-85684180D01*
%TO.N,/Project Architecture/Cell Sense & Balance/TAP5*%
D43*
X115475000Y-82875000D02*
X115025000Y-82875000D01*
X116525000Y-82875000D02*
X115475000Y-82875000D01*
X115475000Y-82875000D02*
X115475000Y-84174949D01*
X118837500Y-85187500D02*
X116525000Y-82875000D01*
X115025000Y-82875000D02*
X111899999Y-86000002D01*
X122937500Y-85187500D02*
X118837500Y-85187500D01*
%TO.N,/Project Architecture/Cell Sense & Balance/CB5*%
D45*
X135799999Y-95849998D02*
X135799999Y-97700001D01*
D43*
X121400000Y-82875000D02*
X123900000Y-82875000D01*
D45*
X135799999Y-97700001D02*
X135500000Y-98000000D01*
%TO.N,/Project Architecture/Daisy Chain/U1_COMHP*%
D44*
X146000000Y-87000000D02*
X146000000Y-86000000D01*
X147640000Y-85668501D02*
X147950000Y-85358501D01*
X141800000Y-88949999D02*
X144050001Y-88949999D01*
X148000000Y-85358501D02*
X148659999Y-85358501D01*
X141799998Y-88949999D02*
X141749998Y-88899999D01*
X148659999Y-85358501D02*
X149000000Y-85018500D01*
X147950000Y-85358501D02*
X148000000Y-85358501D01*
X149000000Y-85018500D02*
X149940000Y-85018500D01*
X146000000Y-86000000D02*
X146331499Y-85668501D01*
X144050001Y-88949999D02*
X146000000Y-87000000D01*
X141750000Y-88899999D02*
X141800000Y-88949999D01*
%TO.N,/Project Architecture/GND*%
D45*
X140725000Y-90900000D02*
X140600000Y-90775000D01*
D46*
X155723450Y-104050001D02*
X154452800Y-104050001D01*
D45*
X141750000Y-92400000D02*
X142925000Y-92400000D01*
D46*
X155770000Y-85968501D02*
X154452800Y-85968501D01*
D45*
X141750000Y-90900000D02*
X140725000Y-90900000D01*
X139300002Y-82999998D02*
X139800000Y-82500000D01*
X139300002Y-84450000D02*
X139300002Y-82999998D01*
%TO.N,/Project Architecture/Cell Sense & Balance/BAT*%
D44*
X132299999Y-95849998D02*
X131649997Y-96500000D01*
X131649997Y-96500000D02*
X131500000Y-96500000D01*
%TO.N,/Project Architecture/Power & Reference/TSREF*%
X138800001Y-83225001D02*
X138275000Y-82700000D01*
X138643000Y-81000000D02*
X138643000Y-81857000D01*
X138643000Y-81857000D02*
X138275000Y-82225000D01*
X138275000Y-82225000D02*
X138275000Y-82700000D01*
X138275000Y-82700000D02*
X138328500Y-82646500D01*
X138800001Y-84450000D02*
X138800001Y-83225001D01*
%TO.N,/Project Architecture/Power & Reference/LDOIN*%
D45*
X140125000Y-77695000D02*
X138933101Y-77695000D01*
%TO.N,/Project Architecture/Cell Sense & Balance/TAP0*%
D43*
X122937500Y-108000000D02*
X122862500Y-108075000D01*
X114400000Y-106000000D02*
X110900000Y-102500000D01*
X118725000Y-108075000D02*
X116650000Y-106000000D01*
X110900000Y-97000000D02*
X108900000Y-95000000D01*
X110900000Y-102500000D02*
X110900000Y-97000000D01*
X115475000Y-106000000D02*
X114400000Y-106000000D01*
X122862500Y-108075000D02*
X118725000Y-108075000D01*
X116650000Y-106000000D02*
X115475000Y-106000000D01*
%TO.N,/Project Architecture/Cell Sense & Balance/TAP2*%
X113650000Y-94500000D02*
X112650000Y-93500000D01*
X114400000Y-96750000D02*
X113650000Y-96000000D01*
X116400000Y-96750000D02*
X115475000Y-96750000D01*
X115475000Y-96750000D02*
X114400000Y-96750000D01*
X110400000Y-93500000D02*
X108900001Y-92000001D01*
X113650000Y-96000000D02*
X113650000Y-94500000D01*
X118712500Y-99062500D02*
X116400000Y-96750000D01*
X108900001Y-92000001D02*
X108900000Y-92000001D01*
X122937500Y-99062500D02*
X118712500Y-99062500D01*
X112650000Y-93500000D02*
X110400000Y-93500000D01*
%TO.N,/Project Architecture/VMODULE*%
X114362500Y-66787500D02*
X123975000Y-66787500D01*
X108900000Y-80000004D02*
X108900000Y-72250000D01*
X108900000Y-72250000D02*
X114362500Y-66787500D01*
%TO.N,/Project Architecture/Cell Sense & Balance/TAP1*%
X111899999Y-99249999D02*
X111899999Y-95000000D01*
X118837500Y-103687500D02*
X116525000Y-101375000D01*
X122937500Y-103687500D02*
X118837500Y-103687500D01*
X115475000Y-101375000D02*
X114025000Y-101375000D01*
X116525000Y-101375000D02*
X115475000Y-101375000D01*
X114025000Y-101375000D02*
X111899999Y-99249999D01*
%TO.N,/Project Architecture/Cell Sense & Balance/TAP3*%
X122937500Y-94437500D02*
X118837500Y-94437500D01*
X112024998Y-92125000D02*
X111899999Y-92000001D01*
X116525000Y-92125000D02*
X115475000Y-92125000D01*
X115475000Y-92125000D02*
X112024998Y-92125000D01*
X118837500Y-94437500D02*
X116525000Y-92125000D01*
%TO.N,/Project Architecture/Cell Sense & Balance/TAP4*%
X113149998Y-89000002D02*
X114650000Y-87500000D01*
X122937500Y-89812500D02*
X118962500Y-89812500D01*
X118962500Y-89812500D02*
X116650000Y-87500000D01*
X111899999Y-89000002D02*
X113149998Y-89000002D01*
X116650000Y-87500000D02*
X115475000Y-87500000D01*
X114650000Y-87500000D02*
X115475000Y-87500000D01*
%TO.N,/Project Architecture/Cell Sense & Balance/TAP6*%
X113650000Y-81750000D02*
X112399997Y-83000003D01*
X112399997Y-83000003D02*
X111899999Y-83000003D01*
X118712500Y-80562500D02*
X116400000Y-78250000D01*
X115475000Y-78250000D02*
X114400000Y-78250000D01*
X114400000Y-78250000D02*
X113650000Y-79000000D01*
X113650000Y-79000000D02*
X113650000Y-81750000D01*
X116400000Y-78250000D02*
X115475000Y-78250000D01*
X122937500Y-80562500D02*
X118712500Y-80562500D01*
%TO.N,/Project Architecture/Cell Sense & Balance/TAP7*%
X111899999Y-75500001D02*
X111899999Y-80000004D01*
X116275000Y-73625000D02*
X115475000Y-73625000D01*
X113775000Y-73625000D02*
X111899999Y-75500001D01*
X118587500Y-75937500D02*
X116275000Y-73625000D01*
X122937500Y-75937500D02*
X118587500Y-75937500D01*
X115475000Y-73625000D02*
X113775000Y-73625000D01*
%TO.N,/Project Architecture/Temperature Sense/GPIO1*%
D44*
X143176001Y-76608399D02*
X143176001Y-77558400D01*
%TO.N,/Project Architecture/Connectors/T_P3*%
X151375998Y-75588399D02*
X150095998Y-75588399D01*
%TO.N,/Project Architecture/Connectors/T_P2*%
X145975998Y-75588399D02*
X147251001Y-75588399D01*
%TO.N,/Project Architecture/Temperature Sense/GPIO2*%
X134300002Y-84450000D02*
X134300002Y-85429353D01*
X147251001Y-76608399D02*
X147251001Y-77558400D01*
X134300002Y-85429353D02*
X134108006Y-85621349D01*
%TO.N,/Project Architecture/Connectors/T_P8*%
X166750998Y-75588399D02*
X168020998Y-75588399D01*
%TO.N,/Project Architecture/Temperature Sense/GPIO8*%
X137300001Y-85268198D02*
X137715983Y-85684180D01*
X137300001Y-84450000D02*
X137300001Y-85268198D01*
X168020998Y-76608399D02*
X168020998Y-77528399D01*
%TO.N,/Project Architecture/Connectors/COML.P*%
X167410000Y-106590001D02*
X166396550Y-106590001D01*
X171300000Y-104550001D02*
X171037500Y-104287501D01*
X171037500Y-104287501D02*
X169712500Y-104287501D01*
X169712500Y-104287501D02*
X167410000Y-106590001D01*
X171300000Y-105500000D02*
X171300000Y-104550001D01*
%TO.N,/Project Architecture/Connectors/COML.N*%
X171300000Y-103600001D02*
X171012500Y-103887501D01*
X171012500Y-103887501D02*
X169737500Y-103887501D01*
X169737500Y-103887501D02*
X167360000Y-101510001D01*
X171300000Y-102500001D02*
X171300000Y-103600001D01*
X167360000Y-101510001D02*
X166396550Y-101510001D01*
%TO.N,/Project Architecture/Cell Sense & Balance/VC1*%
X141650000Y-94600000D02*
X141750000Y-94500000D01*
X132250000Y-107500000D02*
X128437500Y-103687500D01*
X141650000Y-100000000D02*
X141650000Y-94600000D01*
X141650000Y-101500000D02*
X141650000Y-106725000D01*
X141650000Y-106725000D02*
X140875000Y-107500000D01*
X140875000Y-107500000D02*
X132250000Y-107500000D01*
X141749998Y-94499998D02*
X141749998Y-93899999D01*
X141750000Y-94500000D02*
X141749998Y-94499998D01*
X141650000Y-100000000D02*
X141650000Y-101500000D01*
X128437500Y-103687500D02*
X124587500Y-103687500D01*
%TO.N,/Project Architecture/Temperature Sense/GPIO5*%
X135800001Y-84450000D02*
X135800001Y-83401123D01*
X135800001Y-83401123D02*
X135626967Y-83228089D01*
X157021001Y-76608400D02*
X157021001Y-77528400D01*
%TO.N,/Project Architecture/Cell Sense & Balance/CB0*%
D43*
X121400000Y-106000000D02*
X123900000Y-106000000D01*
D45*
X142800000Y-93400000D02*
X143100000Y-93700000D01*
X141749998Y-93400000D02*
X142800000Y-93400000D01*
%TO.N,/Project Architecture/Daisy Chain/COML_WP*%
D44*
X156513451Y-103100000D02*
X158103450Y-101510001D01*
X152154100Y-103100000D02*
X156513451Y-103100000D01*
X150913450Y-103100000D02*
X152154100Y-103100000D01*
X150913450Y-105000002D02*
X152154100Y-105000002D01*
X152154100Y-105000002D02*
X156513451Y-105000002D01*
X156513451Y-105000002D02*
X158103450Y-106590001D01*
%TO.N,/Project Architecture/Daisy Chain/U1_COMLN*%
X147150000Y-103584315D02*
X147415686Y-103850001D01*
X144199999Y-89949999D02*
X147150000Y-92900000D01*
X148003450Y-103540001D02*
X148563449Y-103540001D01*
X142400001Y-89949999D02*
X144199999Y-89949999D01*
X149893450Y-103100000D02*
X149003450Y-103100000D01*
X147643450Y-103850001D02*
X147953450Y-103540001D01*
X147953450Y-103540001D02*
X148003450Y-103540001D01*
X147415686Y-103850001D02*
X147643450Y-103850001D01*
X142350001Y-89899999D02*
X142400001Y-89949999D01*
X147150000Y-92900000D02*
X147150000Y-103584315D01*
X148563449Y-103540001D02*
X149003450Y-103100000D01*
X141750000Y-89899999D02*
X142350001Y-89899999D01*
%TO.N,/Project Architecture/Cell Sense & Balance/CB1*%
D43*
X121400000Y-101375000D02*
X123900000Y-101375000D01*
D45*
X139799999Y-96549999D02*
X140750000Y-97500000D01*
X139799999Y-95849998D02*
X139799999Y-96549999D01*
%TO.N,/Project Architecture/Connectors/T_P1*%
D44*
X144450998Y-75588399D02*
X143176001Y-75588399D01*
%TO.N,/Project Architecture/Daisy Chain/COML_CT*%
X158103450Y-104050001D02*
X156683450Y-104050001D01*
%TO.N,/Project Architecture/Temperature Sense/GPIO3*%
X134800001Y-83299999D02*
X134900000Y-83200000D01*
X150095998Y-76608399D02*
X150095998Y-77553399D01*
X134800001Y-84450000D02*
X134800001Y-83299999D01*
%TO.N,/Project Architecture/Daisy Chain/COMH_WP*%
X156513451Y-85018500D02*
X158103450Y-83428501D01*
X152154100Y-85018500D02*
X156513451Y-85018500D01*
X152154100Y-85018500D02*
X150960000Y-85018500D01*
%TO.N,/Project Architecture/Daisy Chain/COMH_CT*%
X156730000Y-85968501D02*
X158103450Y-85968501D01*
%TO.N,/Project Architecture/Daisy Chain/COMH_WN*%
X152154100Y-86918502D02*
X156513451Y-86918502D01*
X150960000Y-86918502D02*
X152154100Y-86918502D01*
X156513451Y-86918502D02*
X158103450Y-88508501D01*
%TO.N,/Project Architecture/Connectors/COMH.N*%
X167843500Y-86225001D02*
X170025000Y-86225001D01*
X166396550Y-88508501D02*
X166396550Y-87671951D01*
X170025000Y-86225001D02*
X171300000Y-87500000D01*
X166396550Y-87671951D02*
X167843500Y-86225001D01*
%TO.N,/Project Architecture/Connectors/COMH.P*%
X166396550Y-83428501D02*
X166396550Y-84315051D01*
X166396550Y-84315051D02*
X167856500Y-85775001D01*
X167856500Y-85775001D02*
X170025000Y-85775001D01*
X170025000Y-85775001D02*
X171300000Y-84500001D01*
%TO.N,/Project Architecture/Cell Sense & Balance/VC0*%
X143200000Y-95300000D02*
X143200000Y-100000000D01*
X143200000Y-100000000D02*
X143200000Y-101500000D01*
X141749998Y-92899999D02*
X143219999Y-92899999D01*
X143219999Y-92899999D02*
X143710000Y-93390000D01*
X124587500Y-108000000D02*
X142250000Y-108000000D01*
X143710000Y-94790000D02*
X143200000Y-95300000D01*
X143200000Y-101500000D02*
X143200000Y-107050000D01*
X143200000Y-107050000D02*
X142250000Y-108000000D01*
X143710000Y-93390000D02*
X143710000Y-94790000D01*
%TO.N,/Project Architecture/Power & Reference/VCOLL*%
D45*
X141250000Y-66800000D02*
X138872600Y-66800000D01*
D43*
X134114900Y-66787500D02*
X136500000Y-69172600D01*
X131250000Y-69712500D02*
X135960100Y-69712500D01*
D45*
X138872600Y-66800000D02*
X136500000Y-69172600D01*
D43*
X135960100Y-69712500D02*
X136500000Y-69172600D01*
%TO.N,/Project Architecture/Cell Sense & Balance/VC6*%
D44*
X133900000Y-99127000D02*
X133900000Y-100000000D01*
X126900000Y-81250000D02*
X126212500Y-80562500D01*
X134750000Y-98277000D02*
X133900000Y-99127000D01*
X133900000Y-102850000D02*
X133000000Y-103750000D01*
X135299998Y-97275106D02*
X134750000Y-97825104D01*
X133000000Y-103750000D02*
X132050000Y-103750000D01*
X134750000Y-97825104D02*
X134750000Y-98277000D01*
X135299998Y-95849998D02*
X135299998Y-97275106D01*
X133900000Y-101500000D02*
X133900000Y-102850000D01*
X126212500Y-80562500D02*
X124587500Y-80562500D01*
X133900000Y-100000000D02*
X133900000Y-101500000D01*
X132050000Y-103750000D02*
X126900000Y-98600000D01*
X126900000Y-98600000D02*
X126900000Y-81250000D01*
%TO.N,/Project Architecture/Cell Sense & Balance/VC5*%
X136299999Y-95849998D02*
X136299999Y-98037449D01*
X135450000Y-104800000D02*
X135450000Y-101500000D01*
X135450000Y-98887448D02*
X135450000Y-100000000D01*
X134750000Y-105500000D02*
X135450000Y-104800000D01*
X135450000Y-100000000D02*
X135450000Y-101500000D01*
X136299999Y-98037449D02*
X135450000Y-98887448D01*
X125837500Y-85187500D02*
X126400000Y-85750000D01*
X124587500Y-85187500D02*
X125837500Y-85187500D01*
X126400000Y-85750000D02*
X126400000Y-98775000D01*
X126400000Y-98775000D02*
X133125000Y-105500000D01*
X133125000Y-105500000D02*
X134750000Y-105500000D01*
%TO.N,/Project Architecture/Power & Reference/VCOLL_R*%
D43*
X131250000Y-66787500D02*
X128000000Y-66787500D01*
%TO.N,/Project Architecture/Cell Sense & Balance/VC4*%
D44*
X136250000Y-106000000D02*
X137000000Y-105250000D01*
X137000000Y-105250000D02*
X137000000Y-101500000D01*
X125462500Y-89812500D02*
X125900000Y-90250000D01*
X137000000Y-100000000D02*
X137000000Y-101500000D01*
X124587500Y-89812500D02*
X125462500Y-89812500D01*
X137299999Y-98875006D02*
X137299999Y-95849998D01*
X133000000Y-106000000D02*
X136250000Y-106000000D01*
X137000000Y-100000000D02*
X137000000Y-99175005D01*
X137000000Y-99175005D02*
X137299999Y-98875006D01*
X125900000Y-98900000D02*
X133000000Y-106000000D01*
X125900000Y-90250000D02*
X125900000Y-98900000D01*
%TO.N,/Project Architecture/Daisy Chain/U1_COMHN*%
X141750000Y-89399998D02*
X141799999Y-89349999D01*
X141799997Y-89349999D02*
X141749998Y-89399998D01*
X147640000Y-86068501D02*
X147950000Y-86378501D01*
X148459999Y-86378501D02*
X149000000Y-86918502D01*
X141799999Y-89349999D02*
X144150001Y-89349999D01*
X146500000Y-86264344D02*
X146695843Y-86068501D01*
X147950000Y-86378501D02*
X148000000Y-86378501D01*
X148000000Y-86378501D02*
X148459999Y-86378501D01*
X146500000Y-87000000D02*
X146500000Y-86264344D01*
X144150001Y-89349999D02*
X146500000Y-87000000D01*
X149940000Y-86918502D02*
X149000000Y-86918502D01*
%TO.N,/Project Architecture/Daisy Chain/U1_COMLP*%
X146750000Y-103750001D02*
X147250000Y-104250001D01*
X142350001Y-90399999D02*
X142400001Y-90349999D01*
X142400001Y-90349999D02*
X144099999Y-90349999D01*
X141799997Y-90350000D02*
X141749998Y-90399999D01*
X146750000Y-93000000D02*
X146750000Y-103750001D01*
X147643450Y-104250001D02*
X147953450Y-104560001D01*
X147953450Y-104560001D02*
X148003450Y-104560001D01*
X147250000Y-104250001D02*
X147643450Y-104250001D01*
X141750000Y-90399999D02*
X142350001Y-90399999D01*
X149893450Y-105000002D02*
X149003450Y-105000002D01*
X144099999Y-90349999D02*
X146750000Y-93000000D01*
X148003450Y-104560001D02*
X148563449Y-104560001D01*
X148563449Y-104560001D02*
X149003450Y-105000002D01*
%TO.N,/Project Architecture/Cell Sense & Balance/CB4*%
D43*
X121400000Y-87500000D02*
X123900000Y-87500000D01*
D45*
X136800000Y-95849998D02*
X136800000Y-98450000D01*
X136800000Y-98450000D02*
X136750000Y-98500000D01*
%TO.N,/Project Architecture/Cell Sense & Balance/VC3*%
D44*
X138550000Y-105700000D02*
X138550000Y-101500000D01*
X125400000Y-94750000D02*
X125400000Y-99150000D01*
X138550000Y-97800000D02*
X138550000Y-100000000D01*
X125400000Y-99150000D02*
X132750000Y-106500000D01*
X138550000Y-100000000D02*
X138550000Y-101500000D01*
X125087500Y-94437500D02*
X125400000Y-94750000D01*
X137750000Y-106500000D02*
X138550000Y-105700000D01*
X132750000Y-106500000D02*
X137750000Y-106500000D01*
X124587500Y-94437500D02*
X125087500Y-94437500D01*
X138300000Y-97550000D02*
X138550000Y-97800000D01*
X138300000Y-95849998D02*
X138300000Y-97550000D01*
%TO.N,/Project Architecture/Cell Sense & Balance/VC2*%
X124587500Y-99087500D02*
X132500000Y-107000000D01*
X140100000Y-100000000D02*
X140100000Y-101500000D01*
X140100000Y-106150000D02*
X140100000Y-101500000D01*
X139250000Y-107000000D02*
X140100000Y-106150000D01*
X124587500Y-99062500D02*
X124587500Y-99087500D01*
X140100000Y-100000000D02*
X140100000Y-97512552D01*
X139300000Y-96712552D02*
X139300000Y-95849998D01*
X132500000Y-107000000D02*
X139250000Y-107000000D01*
X140100000Y-97512552D02*
X139300000Y-96712552D01*
%TO.N,/Project Architecture/Connectors/T_P5*%
X158290998Y-75588400D02*
X157021001Y-75588400D01*
X157091003Y-75518398D02*
X157021001Y-75588400D01*
%TO.N,/Project Architecture/Power & Reference/DVDD*%
D45*
X141700000Y-83400000D02*
X141700000Y-82500000D01*
X139800001Y-84099999D02*
X140300000Y-83600000D01*
X139800001Y-84450000D02*
X139800001Y-84099999D01*
X140300000Y-83600000D02*
X141500000Y-83600000D01*
X141500000Y-83600000D02*
X141700000Y-83400000D01*
%TO.N,/Project Architecture/Connectors/T_P7*%
D44*
X165211001Y-75588399D02*
X163931001Y-75588399D01*
%TO.N,/Project Architecture/Cell Sense & Balance/CB7*%
D45*
X133799998Y-95849998D02*
X133799998Y-96811525D01*
X133799998Y-96811525D02*
X132581315Y-98030208D01*
D43*
X121400000Y-73625000D02*
X123900000Y-73625000D01*
D45*
X132581315Y-98030208D02*
X132581315Y-98453180D01*
%TO.N,/Project Architecture/Connectors/T_P6*%
D44*
X161090998Y-75588400D02*
X159815998Y-75588400D01*
%TO.N,/Project Architecture/Temperature Sense/GPIO6*%
X136300001Y-84450000D02*
X136300001Y-85284179D01*
X135900000Y-85684180D02*
X135900000Y-85699997D01*
X136300001Y-85284179D02*
X135900000Y-85684180D01*
X161090998Y-76608400D02*
X161090998Y-77528400D01*
%TO.N,/Project Architecture/Cell Sense & Balance/VC7*%
X126837500Y-75937500D02*
X124587500Y-75937500D01*
X132350000Y-100000000D02*
X132350000Y-101500000D01*
X127400000Y-98400000D02*
X127400000Y-76500000D01*
X127400000Y-76500000D02*
X126837500Y-75937500D01*
X132350000Y-101500000D02*
X130500000Y-101500000D01*
X133272052Y-97905156D02*
X134300000Y-96877208D01*
X132350000Y-99525000D02*
X133272052Y-98602948D01*
X130500000Y-101500000D02*
X127400000Y-98400000D01*
X132350000Y-100000000D02*
X132350000Y-99525000D01*
X133272052Y-98602948D02*
X133272052Y-97905156D01*
X134300000Y-96877208D02*
X134300000Y-95849998D01*
%TO.N,/Project Architecture/Cell Sense & Balance/CB6*%
D45*
X134799999Y-97136080D02*
X133926052Y-98010027D01*
X133926052Y-98010027D02*
X133926052Y-98176052D01*
D43*
X121400000Y-78250000D02*
X123900000Y-78250000D01*
D45*
X134799999Y-95849998D02*
X134799999Y-97136080D01*
%TO.N,/Project Architecture/Temperature Sense/GPIO7*%
D44*
X163931001Y-76608399D02*
X163931001Y-77528399D01*
X136800001Y-85684180D02*
X136800002Y-84450000D01*
%TO.N,/Project Architecture/Cell Sense & Balance/CB2*%
D45*
X138799999Y-95849998D02*
X138799999Y-97049999D01*
X138799999Y-97049999D02*
X139250000Y-97500000D01*
D43*
X121400000Y-96750000D02*
X123900000Y-96750000D01*
%TO.N,/Project Architecture/Cell Sense & Balance/CB8*%
D45*
X132799998Y-95849998D02*
X132799998Y-96680153D01*
D43*
X121400000Y-69000000D02*
X123900000Y-69000000D01*
D45*
X132799998Y-96680153D02*
X131980151Y-97500000D01*
X131980151Y-97500000D02*
X131750000Y-97500000D01*
%TO.N,/Project Architecture/Cell Sense & Balance/CB3*%
D43*
X121400000Y-92125000D02*
X123900000Y-92125000D01*
D45*
X137799998Y-95849998D02*
X137799998Y-98049998D01*
X137799998Y-98049998D02*
X138000000Y-98250000D01*
%TO.N,/Project Architecture/Power & Reference/REFHP*%
X142672085Y-91899998D02*
X142942997Y-91629086D01*
X141750000Y-91899998D02*
X142672085Y-91899998D01*
%TO.N,/Project Architecture/Power & Reference/AVDD*%
X140773308Y-91399999D02*
X140577091Y-91596216D01*
X141750000Y-91399999D02*
X140773308Y-91399999D01*
%TD*%
M02*
