%TF.GenerationSoftware,KiCad,Pcbnew,10.0.5-unknown-202607221313~667fa36054~ubuntu25.10.1*%
%TF.CreationDate,Date%
%TF.ProjectId,bms_slave,626d735f-736c-4617-9665-2e6b69636164,+ (Unreleased)*%
%TF.SameCoordinates,Original*%
%TF.FileFunction,Copper,L2,Inr*%
%TF.FilePolarity,Positive*%
%FSLAX46Y46*%
G04 Gerber Fmt 4.6, Leading zero omitted, Abs format (unit mm)*
G04 Created by KiCad*
%MOMM*%
%LPD*%
G01*
G04 APERTURE LIST*
%TA.AperFunction,ComponentPad*%
%ADD10C,1.574800*%
%TD*%
%TA.AperFunction,ComponentPad*%
%ADD11C,0.499999*%
%TD*%
G04 APERTURE END LIST*
D10*
%TO.N,/Project Architecture/Connectors/COML.P*%
%TO.C,J1*%
X170750000Y-97000000D03*
%TO.N,/Project Architecture/Connectors/COML.N*%
X170750000Y-94000001D03*
%TD*%
%TO.N,/Project Architecture/Connectors/T_P8*%
%TO.C,J3*%
X154000000Y-71999999D03*
%TO.N,/Project Architecture/Connectors/T_P7*%
X151000001Y-71999999D03*
%TO.N,/Project Architecture/Connectors/T_P6*%
X148000002Y-71999999D03*
%TO.N,/Project Architecture/Connectors/T_P5*%
X145000002Y-71999999D03*
%TO.N,/Project Architecture/Connectors/T_P4*%
X142000003Y-71999999D03*
%TO.N,/Project Architecture/Connectors/T_P3*%
X139000004Y-71999999D03*
%TO.N,/Project Architecture/Connectors/T_P2*%
X136000005Y-71999999D03*
%TO.N,/Project Architecture/Connectors/T_P1*%
X133000006Y-71999999D03*
%TO.N,/Project Architecture/GND*%
X154000000Y-69000000D03*
X151000001Y-69000000D03*
X148000002Y-69000000D03*
X145000002Y-69000000D03*
X142000003Y-69000000D03*
X139000004Y-69000000D03*
X136000005Y-69000000D03*
X133000006Y-69000000D03*
%TD*%
%TO.N,/Project Architecture/VMODULE*%
%TO.C,J4*%
X89500000Y-95500000D03*
%TO.N,unconnected-(J4-Pad2)*%
X89500000Y-92500001D03*
%TO.N,/Project Architecture/Cell Sense & Balance/TAP8*%
X89500000Y-89500002D03*
%TO.N,/Project Architecture/Cell Sense & Balance/TAP7*%
X89500000Y-86500002D03*
%TO.N,/Project Architecture/Cell Sense & Balance/TAP6*%
X89500000Y-83500003D03*
%TO.N,/Project Architecture/Cell Sense & Balance/TAP5*%
X89500000Y-80500004D03*
%TO.N,/Project Architecture/Cell Sense & Balance/TAP4*%
X92499999Y-95500000D03*
%TO.N,/Project Architecture/Cell Sense & Balance/TAP3*%
X92499999Y-92500001D03*
%TO.N,/Project Architecture/Cell Sense & Balance/TAP2*%
X92499999Y-89500002D03*
%TO.N,/Project Architecture/Cell Sense & Balance/TAP1*%
X92499999Y-86500002D03*
%TO.N,/Project Architecture/Cell Sense & Balance/TAP0*%
X92499999Y-83500003D03*
%TO.N,/Project Architecture/GND*%
X92499999Y-80500004D03*
%TD*%
%TO.N,/Project Architecture/GND*%
%TO.C,J4*%
X107689800Y-103904894D03*
%TO.N,/Project Architecture/Cell Sense & Balance/TAP0*%
X107689800Y-100904895D03*
%TO.N,/Project Architecture/Cell Sense & Balance/TAP1*%
X107689800Y-97904896D03*
%TO.N,/Project Architecture/Cell Sense & Balance/TAP2*%
X107689800Y-94904897D03*
%TO.N,/Project Architecture/Cell Sense & Balance/TAP3*%
X107689800Y-91904898D03*
%TO.N,/Project Architecture/Cell Sense & Balance/TAP4*%
X107689800Y-88904899D03*
%TO.N,/Project Architecture/Cell Sense & Balance/TAP5*%
X107689800Y-85904900D03*
%TO.N,/Project Architecture/Cell Sense & Balance/TAP6*%
X107689800Y-82904901D03*
%TO.N,/Project Architecture/Cell Sense & Balance/TAP7*%
X107689800Y-79904902D03*
%TO.N,/Project Architecture/Cell Sense & Balance/TAP8*%
X107689800Y-76904903D03*
%TO.N,unconnected-(J4-Pad11)*%
X107689800Y-73904904D03*
%TO.N,/Project Architecture/VMODULE*%
X107689800Y-70904905D03*
%TD*%
%TO.N,/Project Architecture/Connectors/COMH.P*%
%TO.C,J2*%
X170750000Y-83000000D03*
%TO.N,/Project Architecture/Connectors/COMH.N*%
X170750000Y-85999999D03*
%TD*%
D11*
%TO.N,/Project Architecture/GND*%
%TO.C,U1*%
X128099998Y-87399998D03*
X128099998Y-88699998D03*
X128099998Y-90000000D03*
X128099998Y-91300000D03*
X128099998Y-92600000D03*
X128099998Y-93900000D03*
X129399998Y-87399998D03*
X129399998Y-88699998D03*
X129399998Y-90000000D03*
X129399998Y-91300000D03*
X129399998Y-92600000D03*
X129399998Y-93900000D03*
X130699998Y-87399998D03*
X130699998Y-88699998D03*
X130699998Y-90000000D03*
X130699998Y-91300000D03*
X130699998Y-92600000D03*
X130699998Y-93900000D03*
X132000000Y-87399998D03*
X132000000Y-88699998D03*
X132000000Y-90000000D03*
X132000000Y-91300000D03*
X132000000Y-92600000D03*
X132000000Y-93900000D03*
X133300000Y-87399998D03*
X133300000Y-88699998D03*
X133300000Y-90000000D03*
X133300000Y-91300000D03*
X133300000Y-92600000D03*
X133300000Y-93900000D03*
X134600000Y-87399998D03*
X134600000Y-88699998D03*
X134600000Y-90000000D03*
X134600000Y-91300000D03*
X134600000Y-92600000D03*
X134600000Y-93900000D03*
%TD*%
M02*
