M48
; DRILL file KiCad 10.0.5-unknown-202607221313~667fa36054~ubuntu25.10.1 date 2026-10-05T23:56:11
; FORMAT={-:-/ absolute / metric / decimal}
; #@! TF.CreationDate,2026-10-05T23:56:11+00:00
; #@! TF.GenerationSoftware,Kicad,Pcbnew,10.0.5-unknown-202607221313~667fa36054~ubuntu25.10.1
; #@! TF.FileFunction,Plated,1,4,PTH
FMAT,2
METRIC
; #@! TA.AperFunction,Plated,PTH,ViaDrill
T1C0.200
; #@! TA.AperFunction,Plated,PTH,ComponentDrill
T2C0.203
; #@! TA.AperFunction,Plated,PTH,ViaDrill
T3C0.300
; #@! TA.AperFunction,Plated,PTH,ComponentDrill
T4C1.067
%
G90
G05
T1
X143.8Y-91.35
X144.325Y-91.7
X144.325Y-92.5
X144.325Y-93.3
X144.325Y-94.096
X144.354Y-94.899
X144.761Y-95.439
X144.966Y-89.613
X145.311Y-95.989
X145.834Y-96.513
X146.492Y-96.81
T2
X132.8Y-86.9
X132.8Y-88.2
X132.8Y-89.5
X132.8Y-90.8
X132.8Y-92.1
X132.8Y-93.4
X134.1Y-86.9
X134.1Y-88.2
X134.1Y-89.5
X134.1Y-90.8
X134.1Y-92.1
X134.1Y-93.4
X135.4Y-86.9
X135.4Y-88.2
X135.4Y-89.5
X135.4Y-90.8
X135.4Y-92.1
X135.4Y-93.4
X136.7Y-86.9
X136.7Y-88.2
X136.7Y-89.5
X136.7Y-90.8
X136.7Y-92.1
X136.7Y-93.4
X138.0Y-86.9
X138.0Y-88.2
X138.0Y-89.5
X138.0Y-90.8
X138.0Y-92.1
X138.0Y-93.4
X139.3Y-86.9
X139.3Y-88.2
X139.3Y-89.5
X139.3Y-90.8
X139.3Y-92.1
X139.3Y-93.4
T3
X143.1Y-93.7
T4
X76.223Y-69.34
X76.223Y-72.34
X76.223Y-75.34
X76.223Y-78.34
X76.223Y-81.34
X76.223Y-84.34
X76.223Y-87.34
X76.223Y-90.34
X76.223Y-93.34
X76.223Y-96.34
X76.223Y-99.34
X76.223Y-102.34
X93.814Y-80.34
X93.814Y-83.34
X93.814Y-86.34
X93.814Y-89.34
X93.814Y-92.34
X93.814Y-95.34
X96.814Y-80.34
X96.814Y-83.34
X96.814Y-86.34
X96.814Y-89.34
X96.814Y-92.34
X96.814Y-95.34
X133.0Y-69.0
X133.0Y-72.0
X136.0Y-69.0
X136.0Y-72.0
X139.0Y-69.0
X139.0Y-72.0
X142.0Y-69.0
X142.0Y-72.0
X145.0Y-69.0
X145.0Y-72.0
X148.0Y-69.0
X148.0Y-72.0
X151.0Y-69.0
X151.0Y-72.0
X154.0Y-69.0
X154.0Y-72.0
X170.75Y-83.0
X170.75Y-86.0
X170.75Y-94.0
X170.75Y-97.0
M30
