%TF.GenerationSoftware,KiCad,Pcbnew,10.0.5-unknown-202607221313~667fa36054~ubuntu25.10.1*%
%TF.CreationDate,Date%
%TF.ProjectId,bms_slave,626d735f-736c-4617-9665-2e6b69636164,+ (Unreleased)*%
%TF.SameCoordinates,Original*%
%TF.FileFunction,Paste,Top*%
%TF.FilePolarity,Positive*%
%FSLAX46Y46*%
G04 Gerber Fmt 4.6, Leading zero omitted, Abs format (unit mm)*
G04 Created by KiCad*
%MOMM*%
%LPD*%
G01*
G04 APERTURE LIST*
G04 Aperture macros list*
%AMRoundRect*
0 Rectangle with rounded corners*
0 $1 Rounding radius*
0 $2 $3 $4 $5 $6 $7 $8 $9 X,Y pos of 4 corners*
0 Add a 4 corners polygon primitive as box body*
4,1,4,$2,$3,$4,$5,$6,$7,$8,$9,$2,$3,0*
0 Add four circle primitives for the rounded corners*
1,1,$1+$1,$2,$3*
1,1,$1+$1,$4,$5*
1,1,$1+$1,$6,$7*
1,1,$1+$1,$8,$9*
0 Add four rect primitives between the rounded corners*
20,1,$1+$1,$2,$3,$4,$5,0*
20,1,$1+$1,$4,$5,$6,$7,0*
20,1,$1+$1,$6,$7,$8,$9,0*
20,1,$1+$1,$8,$9,$2,$3,0*%
G04 Aperture macros list end*
%ADD10C,0.000000*%
%ADD11RoundRect,0.200000X-0.200000X-0.275000X0.200000X-0.275000X0.200000X0.275000X-0.200000X0.275000X0*%
%ADD12RoundRect,0.135000X-0.185000X0.135000X-0.185000X-0.135000X0.185000X-0.135000X0.185000X0.135000X0*%
%ADD13RoundRect,0.250000X-0.362500X-1.425000X0.362500X-1.425000X0.362500X1.425000X-0.362500X1.425000X0*%
%ADD14RoundRect,0.140000X0.170000X-0.140000X0.170000X0.140000X-0.170000X0.140000X-0.170000X-0.140000X0*%
%ADD15RoundRect,0.225000X0.225000X0.250000X-0.225000X0.250000X-0.225000X-0.250000X0.225000X-0.250000X0*%
%ADD16R,0.609600X0.304800*%
%ADD17RoundRect,0.140000X0.140000X0.170000X-0.140000X0.170000X-0.140000X-0.170000X0.140000X-0.170000X0*%
%ADD18RoundRect,0.200000X0.275000X-0.200000X0.275000X0.200000X-0.275000X0.200000X-0.275000X-0.200000X0*%
%ADD19R,0.901700X0.482600*%
%ADD20RoundRect,0.218750X0.218750X0.256250X-0.218750X0.256250X-0.218750X-0.256250X0.218750X-0.256250X0*%
%ADD21R,1.308100X0.685800*%
%ADD22RoundRect,0.140000X-0.140000X-0.170000X0.140000X-0.170000X0.140000X0.170000X-0.140000X0.170000X0*%
%ADD23RoundRect,0.225000X-0.225000X-0.250000X0.225000X-0.250000X0.225000X0.250000X-0.225000X0.250000X0*%
%ADD24RoundRect,0.250000X-0.475000X0.250000X-0.475000X-0.250000X0.475000X-0.250000X0.475000X0.250000X0*%
%ADD25RoundRect,0.250000X-1.075000X0.312500X-1.075000X-0.312500X1.075000X-0.312500X1.075000X0.312500X0*%
%ADD26RoundRect,0.200000X-0.275000X0.200000X-0.275000X-0.200000X0.275000X-0.200000X0.275000X0.200000X0*%
%ADD27RoundRect,0.135000X-0.135000X-0.185000X0.135000X-0.185000X0.135000X0.185000X-0.135000X0.185000X0*%
%ADD28RoundRect,0.250000X-0.250000X-0.475000X0.250000X-0.475000X0.250000X0.475000X-0.250000X0.475000X0*%
%ADD29RoundRect,0.250000X1.075000X-0.312500X1.075000X0.312500X-1.075000X0.312500X-1.075000X-0.312500X0*%
%ADD30R,1.500000X0.299999*%
%ADD31R,0.299999X1.500000*%
%ADD32RoundRect,0.140000X-0.170000X0.140000X-0.170000X-0.140000X0.170000X-0.140000X0.170000X0.140000X0*%
%ADD33R,5.511800X5.918200*%
%ADD34R,0.939800X2.489200*%
G04 APERTURE END LIST*
D10*
%TO.C,U1*%
G36*
X139300002Y-86949998D02*
G01*
X139300002Y-93350000D01*
X139250002Y-93400000D01*
X132850000Y-93400000D01*
X132800000Y-93350000D01*
X132800000Y-86949998D01*
X132850000Y-86899998D01*
X139250002Y-86899998D01*
X139300002Y-86949998D01*
G37*
%TD*%
D11*
%TO.C,R2*%
X122937500Y-71312500D03*
X124587500Y-71312500D03*
%TD*%
D12*
%TO.C,R34*%
X154175998Y-75588399D03*
X154175998Y-76608399D03*
%TD*%
D13*
%TO.C,R9*%
X115475000Y-82875000D03*
X121400000Y-82875000D03*
%TD*%
D14*
%TO.C,C39*%
X149000000Y-85018500D03*
X149000000Y-84058500D03*
%TD*%
D15*
%TO.C,C1*%
X130350000Y-85250000D03*
X128800000Y-85250000D03*
%TD*%
D16*
%TO.C,D2*%
X136357000Y-81000000D03*
X138643000Y-81000000D03*
%TD*%
D14*
%TO.C,C27*%
X140125000Y-78655000D03*
X140125000Y-77695000D03*
%TD*%
D17*
%TO.C,C29*%
X143176001Y-77558400D03*
X142216001Y-77558400D03*
%TD*%
D18*
%TO.C,R25*%
X151375998Y-77238399D03*
X151375998Y-75588399D03*
%TD*%
D12*
%TO.C,R32*%
X147251001Y-75588399D03*
X147251001Y-76608399D03*
%TD*%
%TO.C,R38*%
X168020998Y-75588399D03*
X168020998Y-76608399D03*
%TD*%
D11*
%TO.C,R16*%
X122937500Y-103687500D03*
X124587500Y-103687500D03*
%TD*%
D17*
%TO.C,C33*%
X157021001Y-77528400D03*
X156061001Y-77528400D03*
%TD*%
D13*
%TO.C,R19*%
X115475000Y-106000000D03*
X121400000Y-106000000D03*
%TD*%
D19*
%TO.C,CR1*%
X152154100Y-103100000D03*
X152154100Y-105000002D03*
X154452800Y-104050001D03*
%TD*%
D13*
%TO.C,R17*%
X115475000Y-101375000D03*
X121400000Y-101375000D03*
%TD*%
D18*
%TO.C,R23*%
X144450998Y-77238399D03*
X144450998Y-75588399D03*
%TD*%
D20*
%TO.C,D1*%
X146239808Y-83200000D03*
X144664808Y-83200000D03*
%TD*%
D21*
%TO.C,U2*%
X158103450Y-101510001D03*
X158103450Y-104050001D03*
X158103450Y-106590001D03*
X166396550Y-106590001D03*
X166396550Y-104050001D03*
X166396550Y-101510001D03*
%TD*%
D17*
%TO.C,C31*%
X150095998Y-77553399D03*
X149135998Y-77553399D03*
%TD*%
D22*
%TO.C,C36*%
X168020998Y-77528399D03*
X168980998Y-77528399D03*
%TD*%
D18*
%TO.C,R30*%
X166750998Y-77238399D03*
X166750998Y-75588399D03*
%TD*%
D21*
%TO.C,U3*%
X158103450Y-83428501D03*
X158103450Y-85968501D03*
X158103450Y-88508501D03*
X166396550Y-88508501D03*
X166396550Y-85968501D03*
X166396550Y-83428501D03*
%TD*%
D23*
%TO.C,C11*%
X141650000Y-101500000D03*
X143200000Y-101500000D03*
%TD*%
D11*
%TO.C,R18*%
X122937500Y-108000000D03*
X124587500Y-108000000D03*
%TD*%
D24*
%TO.C,C28*%
X141250000Y-66800000D03*
X141250000Y-68700000D03*
%TD*%
D23*
%TO.C,C6*%
X133900000Y-100000000D03*
X135450000Y-100000000D03*
%TD*%
D25*
%TO.C,R21*%
X131250000Y-66787500D03*
X131250000Y-69712500D03*
%TD*%
D12*
%TO.C,R31*%
X143176001Y-75588399D03*
X143176001Y-76608399D03*
%TD*%
%TO.C,R33*%
X150095998Y-75588399D03*
X150095998Y-76608399D03*
%TD*%
D11*
%TO.C,R10*%
X122937500Y-89812500D03*
X124587500Y-89812500D03*
%TD*%
D12*
%TO.C,R40*%
X148000000Y-85358501D03*
X148000000Y-86378501D03*
%TD*%
D23*
%TO.C,C12*%
X143200000Y-100000000D03*
X144750000Y-100000000D03*
%TD*%
D26*
%TO.C,R1*%
X130350000Y-82175000D03*
X130350000Y-83825000D03*
%TD*%
D23*
%TO.C,C7*%
X135450000Y-101500000D03*
X137000000Y-101500000D03*
%TD*%
D13*
%TO.C,R11*%
X115475000Y-87500000D03*
X121400000Y-87500000D03*
%TD*%
D27*
%TO.C,R43*%
X149940000Y-85018500D03*
X150960000Y-85018500D03*
%TD*%
D23*
%TO.C,C8*%
X137000000Y-100000000D03*
X138550000Y-100000000D03*
%TD*%
D11*
%TO.C,R14*%
X122937500Y-99062500D03*
X124587500Y-99062500D03*
%TD*%
%TO.C,R12*%
X122937500Y-94437500D03*
X124587500Y-94437500D03*
%TD*%
D14*
%TO.C,C25*%
X143200000Y-88380000D03*
X143200000Y-87420000D03*
%TD*%
D12*
%TO.C,R35*%
X157021001Y-75588400D03*
X157021001Y-76608400D03*
%TD*%
D28*
%TO.C,C21*%
X139800000Y-82500000D03*
X141700000Y-82500000D03*
%TD*%
D18*
%TO.C,R29*%
X165211001Y-77238399D03*
X165211001Y-75588399D03*
%TD*%
D22*
%TO.C,C32*%
X154175998Y-77528399D03*
X155135998Y-77528399D03*
%TD*%
D13*
%TO.C,R5*%
X115475000Y-73625000D03*
X121400000Y-73625000D03*
%TD*%
D27*
%TO.C,R44*%
X149940000Y-86918502D03*
X150960000Y-86918502D03*
%TD*%
D11*
%TO.C,R8*%
X122937500Y-85187500D03*
X124587500Y-85187500D03*
%TD*%
D12*
%TO.C,R36*%
X161090998Y-75588400D03*
X161090998Y-76608400D03*
%TD*%
D18*
%TO.C,R27*%
X158290998Y-77238400D03*
X158290998Y-75588400D03*
%TD*%
D23*
%TO.C,C2*%
X130800000Y-100000000D03*
X132350000Y-100000000D03*
%TD*%
%TO.C,C10*%
X140100000Y-100000000D03*
X141650000Y-100000000D03*
%TD*%
%TO.C,C5*%
X132350000Y-101500000D03*
X133900000Y-101500000D03*
%TD*%
D29*
%TO.C,R20*%
X128000000Y-69712500D03*
X128000000Y-66787500D03*
%TD*%
D13*
%TO.C,R7*%
X115475000Y-78250000D03*
X121400000Y-78250000D03*
%TD*%
D14*
%TO.C,C37*%
X149003450Y-103100000D03*
X149003450Y-102140000D03*
%TD*%
D27*
%TO.C,R41*%
X149893450Y-103100000D03*
X150913450Y-103100000D03*
%TD*%
D12*
%TO.C,R39*%
X148003450Y-103540001D03*
X148003450Y-104560001D03*
%TD*%
D22*
%TO.C,C34*%
X161090998Y-77528400D03*
X162050998Y-77528400D03*
%TD*%
D18*
%TO.C,R24*%
X145975998Y-77238399D03*
X145975998Y-75588399D03*
%TD*%
D12*
%TO.C,R37*%
X163931001Y-75588399D03*
X163931001Y-76608399D03*
%TD*%
D13*
%TO.C,R15*%
X115475000Y-96750000D03*
X121400000Y-96750000D03*
%TD*%
D18*
%TO.C,R26*%
X152900998Y-77238399D03*
X152900998Y-75588399D03*
%TD*%
D30*
%TO.C,U1*%
X130350002Y-86399999D03*
X130350002Y-86899998D03*
X130350002Y-87399999D03*
X130350002Y-87899998D03*
X130350002Y-88400000D03*
X130350002Y-88899999D03*
X130350002Y-89399998D03*
X130350002Y-89899999D03*
X130350002Y-90399999D03*
X130350002Y-90900000D03*
X130350002Y-91399999D03*
X130350002Y-91899998D03*
X130350002Y-92400000D03*
X130350002Y-92899999D03*
X130350002Y-93400000D03*
X130350002Y-93899999D03*
D31*
X132300001Y-95849998D03*
X132800000Y-95849998D03*
X133300001Y-95849998D03*
X133800000Y-95849998D03*
X134300002Y-95849998D03*
X134800001Y-95849998D03*
X135300000Y-95849998D03*
X135800001Y-95849998D03*
X136300001Y-95849998D03*
X136800002Y-95849998D03*
X137300001Y-95849998D03*
X137800000Y-95849998D03*
X138300002Y-95849998D03*
X138800001Y-95849998D03*
X139300002Y-95849998D03*
X139800001Y-95849998D03*
D30*
X141750000Y-93899999D03*
X141750000Y-93400000D03*
X141750000Y-92899999D03*
X141750000Y-92400000D03*
X141750000Y-91899998D03*
X141750000Y-91399999D03*
X141750000Y-90900000D03*
X141750000Y-90399999D03*
X141750000Y-89899999D03*
X141750000Y-89399998D03*
X141750000Y-88899999D03*
X141750000Y-88400000D03*
X141750000Y-87899998D03*
X141750000Y-87399999D03*
X141750000Y-86899998D03*
X141750000Y-86399999D03*
D31*
X139800001Y-84450000D03*
X139300002Y-84450000D03*
X138800001Y-84450000D03*
X138300002Y-84450000D03*
X137800000Y-84450000D03*
X137300001Y-84450000D03*
X136800002Y-84450000D03*
X136300001Y-84450000D03*
X135800001Y-84450000D03*
X135300000Y-84450000D03*
X134800001Y-84450000D03*
X134300002Y-84450000D03*
X133800000Y-84450000D03*
X133300001Y-84450000D03*
X132800000Y-84450000D03*
X132300001Y-84450000D03*
%TD*%
D32*
%TO.C,C40*%
X149000000Y-86918502D03*
X149000000Y-87878502D03*
%TD*%
D27*
%TO.C,R22*%
X145696924Y-81987400D03*
X146716924Y-81987400D03*
%TD*%
D18*
%TO.C,R28*%
X159815998Y-77238400D03*
X159815998Y-75588400D03*
%TD*%
D19*
%TO.C,CR2*%
X152154100Y-85018500D03*
X152154100Y-86918502D03*
X154452800Y-85968501D03*
%TD*%
D22*
%TO.C,C30*%
X147251001Y-77558400D03*
X148211001Y-77558400D03*
%TD*%
D33*
%TO.C,Q1*%
X136500000Y-69172600D03*
D34*
X134219999Y-77541900D03*
X138780001Y-77541900D03*
%TD*%
D32*
%TO.C,C38*%
X149003450Y-105000002D03*
X149003450Y-105960002D03*
%TD*%
D17*
%TO.C,C41*%
X156683450Y-104050001D03*
X155723450Y-104050001D03*
%TD*%
D13*
%TO.C,R13*%
X115475000Y-92125000D03*
X121400000Y-92125000D03*
%TD*%
D15*
%TO.C,C26*%
X138275000Y-82700000D03*
X136725000Y-82700000D03*
%TD*%
D17*
%TO.C,C42*%
X156730000Y-85968501D03*
X155770000Y-85968501D03*
%TD*%
%TO.C,C35*%
X163931001Y-77528399D03*
X162971001Y-77528399D03*
%TD*%
D11*
%TO.C,R4*%
X122937500Y-75937500D03*
X124587500Y-75937500D03*
%TD*%
D23*
%TO.C,C9*%
X138550000Y-101500000D03*
X140100000Y-101500000D03*
%TD*%
D11*
%TO.C,R6*%
X122937500Y-80562500D03*
X124587500Y-80562500D03*
%TD*%
D27*
%TO.C,R42*%
X149893450Y-105000002D03*
X150913450Y-105000002D03*
%TD*%
D13*
%TO.C,R3*%
X115475000Y-69000000D03*
X121400000Y-69000000D03*
%TD*%
M02*
