%TF.GenerationSoftware,KiCad,Pcbnew,10.0.5-unknown-202607221313~667fa36054~ubuntu25.10.1*%
%TF.CreationDate,Date%
%TF.ProjectId,bms_slave,626d735f-736c-4617-9665-2e6b69636164,+ (Unreleased)*%
%TF.SameCoordinates,Original*%
%TF.FileFunction,Paste,Top*%
%TF.FilePolarity,Positive*%
%FSLAX46Y46*%
G04 Gerber Fmt 4.6, Leading zero omitted, Abs format (unit mm)*
G04 Created by KiCad*
%MOMM*%
%LPD*%
G01*
G04 APERTURE LIST*
G04 Aperture macros list*
%AMRoundRect*
0 Rectangle with rounded corners*
0 $1 Rounding radius*
0 $2 $3 $4 $5 $6 $7 $8 $9 X,Y pos of 4 corners*
0 Add a 4 corners polygon primitive as box body*
4,1,4,$2,$3,$4,$5,$6,$7,$8,$9,$2,$3,0*
0 Add four circle primitives for the rounded corners*
1,1,$1+$1,$2,$3*
1,1,$1+$1,$4,$5*
1,1,$1+$1,$6,$7*
1,1,$1+$1,$8,$9*
0 Add four rect primitives between the rounded corners*
20,1,$1+$1,$2,$3,$4,$5,0*
20,1,$1+$1,$4,$5,$6,$7,0*
20,1,$1+$1,$6,$7,$8,$9,0*
20,1,$1+$1,$8,$9,$2,$3,0*%
G04 Aperture macros list end*
%ADD10C,0.000000*%
%ADD11RoundRect,0.200000X-0.200000X-0.275000X0.200000X-0.275000X0.200000X0.275000X-0.200000X0.275000X0*%
%ADD12RoundRect,0.135000X-0.135000X-0.185000X0.135000X-0.185000X0.135000X0.185000X-0.135000X0.185000X0*%
%ADD13RoundRect,0.250000X-0.362500X-1.425000X0.362500X-1.425000X0.362500X1.425000X-0.362500X1.425000X0*%
%ADD14R,5.511800X5.918200*%
%ADD15R,0.939800X2.489200*%
%ADD16RoundRect,0.140000X-0.140000X-0.170000X0.140000X-0.170000X0.140000X0.170000X-0.140000X0.170000X0*%
%ADD17RoundRect,0.225000X-0.225000X-0.250000X0.225000X-0.250000X0.225000X0.250000X-0.225000X0.250000X0*%
%ADD18R,0.609600X0.304800*%
%ADD19R,0.901700X0.482600*%
%ADD20RoundRect,0.250000X0.650000X-0.325000X0.650000X0.325000X-0.650000X0.325000X-0.650000X-0.325000X0*%
%ADD21RoundRect,0.218750X-0.218750X-0.256250X0.218750X-0.256250X0.218750X0.256250X-0.218750X0.256250X0*%
%ADD22R,1.308100X0.685800*%
%ADD23RoundRect,0.250000X-0.250000X-0.475000X0.250000X-0.475000X0.250000X0.475000X-0.250000X0.475000X0*%
%ADD24RoundRect,0.250000X-0.312500X-1.075000X0.312500X-1.075000X0.312500X1.075000X-0.312500X1.075000X0*%
%ADD25RoundRect,0.140000X0.170000X-0.140000X0.170000X0.140000X-0.170000X0.140000X-0.170000X-0.140000X0*%
%ADD26RoundRect,0.225000X-0.250000X0.225000X-0.250000X-0.225000X0.250000X-0.225000X0.250000X0.225000X0*%
%ADD27R,1.500000X0.299999*%
%ADD28R,0.299999X1.500000*%
G04 APERTURE END LIST*
D10*
%TO.C,U1*%
G36*
X135900002Y-87799999D02*
G01*
X135900002Y-94200001D01*
X135850002Y-94250001D01*
X129450000Y-94250001D01*
X129400000Y-94200001D01*
X129400000Y-87799999D01*
X129450000Y-87749999D01*
X135850002Y-87749999D01*
X135900002Y-87799999D01*
G37*
%TD*%
D11*
%TO.C,R2*%
X235170000Y-91035000D03*
X236820000Y-91035000D03*
%TD*%
D12*
%TO.C,R34*%
X271995000Y-131495000D03*
X273015000Y-131495000D03*
%TD*%
D13*
%TO.C,R9*%
X214642500Y-99435000D03*
X220567500Y-99435000D03*
%TD*%
D14*
%TO.C,Q1*%
X217433000Y-132229300D03*
D15*
X215152999Y-140598600D03*
X219713001Y-140598600D03*
%TD*%
D16*
%TO.C,C39*%
X191910000Y-140440000D03*
X192870000Y-140440000D03*
%TD*%
D17*
%TO.C,C1*%
X223190000Y-83505000D03*
X224740000Y-83505000D03*
%TD*%
D18*
%TO.C,D2*%
X272185000Y-141902500D03*
X274471000Y-141902500D03*
%TD*%
D16*
%TO.C,C27*%
X228175000Y-131395000D03*
X229135000Y-131395000D03*
%TD*%
D17*
%TO.C,C18*%
X231210000Y-96055000D03*
X232760000Y-96055000D03*
%TD*%
D16*
%TO.C,C29*%
X274915000Y-125515000D03*
X275875000Y-125515000D03*
%TD*%
D17*
%TO.C,C4*%
X223190000Y-91035000D03*
X224740000Y-91035000D03*
%TD*%
D11*
%TO.C,R25*%
X268220000Y-130805000D03*
X269870000Y-130805000D03*
%TD*%
D12*
%TO.C,R32*%
X271995000Y-127515000D03*
X273015000Y-127515000D03*
%TD*%
%TO.C,R38*%
X271995000Y-139455000D03*
X273015000Y-139455000D03*
%TD*%
D11*
%TO.C,R16*%
X239180000Y-93545000D03*
X240830000Y-93545000D03*
%TD*%
D16*
%TO.C,C33*%
X274915000Y-133395000D03*
X275875000Y-133395000D03*
%TD*%
D13*
%TO.C,R19*%
X214642500Y-123985000D03*
X220567500Y-123985000D03*
%TD*%
D19*
%TO.C,CR1*%
X191098750Y-59950799D03*
X191098750Y-61850801D03*
X193397450Y-60900800D03*
%TD*%
D20*
%TO.C,C24*%
X144000000Y-88725000D03*
X144000000Y-85775000D03*
%TD*%
D13*
%TO.C,R17*%
X214642500Y-119075000D03*
X220567500Y-119075000D03*
%TD*%
D11*
%TO.C,R23*%
X268220000Y-125785000D03*
X269870000Y-125785000D03*
%TD*%
D21*
%TO.C,D1*%
X227132884Y-144135000D03*
X228707884Y-144135000D03*
%TD*%
D22*
%TO.C,U2*%
X170103450Y-48460000D03*
X170103450Y-51000000D03*
X170103450Y-53540000D03*
X178396550Y-53540000D03*
X178396550Y-51000000D03*
X178396550Y-48460000D03*
%TD*%
D16*
%TO.C,C31*%
X274915000Y-129455000D03*
X275875000Y-129455000D03*
%TD*%
%TO.C,C36*%
X274915000Y-139305000D03*
X275875000Y-139305000D03*
%TD*%
D11*
%TO.C,R30*%
X268220000Y-143355000D03*
X269870000Y-143355000D03*
%TD*%
D22*
%TO.C,U3*%
X175603450Y-142210000D03*
X175603450Y-144750000D03*
X175603450Y-147290000D03*
X183896550Y-147290000D03*
X183896550Y-144750000D03*
X183896550Y-142210000D03*
%TD*%
D17*
%TO.C,C11*%
X227200000Y-93545000D03*
X228750000Y-93545000D03*
%TD*%
D11*
%TO.C,R18*%
X239180000Y-96055000D03*
X240830000Y-96055000D03*
%TD*%
D23*
%TO.C,C28*%
X226895000Y-141375000D03*
X228795000Y-141375000D03*
%TD*%
D17*
%TO.C,C6*%
X223190000Y-96055000D03*
X224740000Y-96055000D03*
%TD*%
D24*
%TO.C,R21*%
X222952500Y-134755000D03*
X225877500Y-134755000D03*
%TD*%
D12*
%TO.C,R31*%
X271995000Y-125525000D03*
X273015000Y-125525000D03*
%TD*%
%TO.C,R33*%
X271995000Y-129505000D03*
X273015000Y-129505000D03*
%TD*%
D11*
%TO.C,R10*%
X239180000Y-86015000D03*
X240830000Y-86015000D03*
%TD*%
D12*
%TO.C,R40*%
X188990000Y-138500000D03*
X190010000Y-138500000D03*
%TD*%
D17*
%TO.C,C12*%
X227200000Y-96055000D03*
X228750000Y-96055000D03*
%TD*%
D11*
%TO.C,R1*%
X235170000Y-88525000D03*
X236820000Y-88525000D03*
%TD*%
D17*
%TO.C,C7*%
X227200000Y-83505000D03*
X228750000Y-83505000D03*
%TD*%
D13*
%TO.C,R11*%
X214642500Y-104345000D03*
X220567500Y-104345000D03*
%TD*%
D12*
%TO.C,R43*%
X188990000Y-144470000D03*
X190010000Y-144470000D03*
%TD*%
D17*
%TO.C,C8*%
X227200000Y-86015000D03*
X228750000Y-86015000D03*
%TD*%
D11*
%TO.C,R14*%
X239180000Y-91035000D03*
X240830000Y-91035000D03*
%TD*%
%TO.C,R12*%
X239180000Y-88525000D03*
X240830000Y-88525000D03*
%TD*%
D25*
%TO.C,C25*%
X142250000Y-89280000D03*
X142250000Y-88320000D03*
%TD*%
D12*
%TO.C,R35*%
X271995000Y-133485000D03*
X273015000Y-133485000D03*
%TD*%
D23*
%TO.C,C21*%
X135100000Y-82750000D03*
X137000000Y-82750000D03*
%TD*%
D17*
%TO.C,C19*%
X235220000Y-83505000D03*
X236770000Y-83505000D03*
%TD*%
%TO.C,C15*%
X231210000Y-88525000D03*
X232760000Y-88525000D03*
%TD*%
%TO.C,C16*%
X231210000Y-91035000D03*
X232760000Y-91035000D03*
%TD*%
D11*
%TO.C,R29*%
X268220000Y-140845000D03*
X269870000Y-140845000D03*
%TD*%
D17*
%TO.C,C20*%
X235220000Y-86015000D03*
X236770000Y-86015000D03*
%TD*%
D16*
%TO.C,C32*%
X274915000Y-131425000D03*
X275875000Y-131425000D03*
%TD*%
D13*
%TO.C,R5*%
X214642500Y-89615000D03*
X220567500Y-89615000D03*
%TD*%
D12*
%TO.C,R44*%
X188990000Y-146460000D03*
X190010000Y-146460000D03*
%TD*%
D11*
%TO.C,R8*%
X239180000Y-83505000D03*
X240830000Y-83505000D03*
%TD*%
D12*
%TO.C,R36*%
X271995000Y-135475000D03*
X273015000Y-135475000D03*
%TD*%
D11*
%TO.C,R27*%
X268220000Y-135825000D03*
X269870000Y-135825000D03*
%TD*%
D17*
%TO.C,C2*%
X223190000Y-86015000D03*
X224740000Y-86015000D03*
%TD*%
%TO.C,C10*%
X227200000Y-91035000D03*
X228750000Y-91035000D03*
%TD*%
%TO.C,C5*%
X223190000Y-93545000D03*
X224740000Y-93545000D03*
%TD*%
D26*
%TO.C,C22*%
X142000000Y-92475000D03*
X142000000Y-94025000D03*
%TD*%
D24*
%TO.C,R20*%
X222952500Y-130545000D03*
X225877500Y-130545000D03*
%TD*%
D17*
%TO.C,C17*%
X231210000Y-93545000D03*
X232760000Y-93545000D03*
%TD*%
D13*
%TO.C,R7*%
X214642500Y-94525000D03*
X220567500Y-94525000D03*
%TD*%
D16*
%TO.C,C37*%
X193670000Y-47490000D03*
X194630000Y-47490000D03*
%TD*%
D12*
%TO.C,R41*%
X190750000Y-51480000D03*
X191770000Y-51480000D03*
%TD*%
%TO.C,R39*%
X190750000Y-47500000D03*
X191770000Y-47500000D03*
%TD*%
D16*
%TO.C,C34*%
X274915000Y-135365000D03*
X275875000Y-135365000D03*
%TD*%
D11*
%TO.C,R24*%
X268220000Y-128295000D03*
X269870000Y-128295000D03*
%TD*%
D12*
%TO.C,R37*%
X271995000Y-137465000D03*
X273015000Y-137465000D03*
%TD*%
D13*
%TO.C,R15*%
X214642500Y-114165000D03*
X220567500Y-114165000D03*
%TD*%
D17*
%TO.C,C13*%
X231210000Y-83505000D03*
X232760000Y-83505000D03*
%TD*%
D11*
%TO.C,R26*%
X268220000Y-133315000D03*
X269870000Y-133315000D03*
%TD*%
D27*
%TO.C,U1*%
X126950002Y-87250000D03*
X126950002Y-87749999D03*
X126950002Y-88250000D03*
X126950002Y-88749999D03*
X126950002Y-89250001D03*
X126950002Y-89750000D03*
X126950002Y-90249999D03*
X126950002Y-90750000D03*
X126950002Y-91250000D03*
X126950002Y-91750001D03*
X126950002Y-92250000D03*
X126950002Y-92749999D03*
X126950002Y-93250001D03*
X126950002Y-93750000D03*
X126950002Y-94250001D03*
X126950002Y-94750000D03*
D28*
X128900001Y-96699999D03*
X129400000Y-96699999D03*
X129900001Y-96699999D03*
X130400000Y-96699999D03*
X130900002Y-96699999D03*
X131400001Y-96699999D03*
X131900000Y-96699999D03*
X132400001Y-96699999D03*
X132900001Y-96699999D03*
X133400002Y-96699999D03*
X133900001Y-96699999D03*
X134400000Y-96699999D03*
X134900002Y-96699999D03*
X135400001Y-96699999D03*
X135900002Y-96699999D03*
X136400001Y-96699999D03*
D27*
X138350000Y-94750000D03*
X138350000Y-94250001D03*
X138350000Y-93750000D03*
X138350000Y-93250001D03*
X138350000Y-92749999D03*
X138350000Y-92250000D03*
X138350000Y-91750001D03*
X138350000Y-91250000D03*
X138350000Y-90750000D03*
X138350000Y-90249999D03*
X138350000Y-89750000D03*
X138350000Y-89250001D03*
X138350000Y-88749999D03*
X138350000Y-88250000D03*
X138350000Y-87749999D03*
X138350000Y-87250000D03*
D28*
X136400001Y-85300001D03*
X135900002Y-85300001D03*
X135400001Y-85300001D03*
X134900002Y-85300001D03*
X134400000Y-85300001D03*
X133900001Y-85300001D03*
X133400002Y-85300001D03*
X132900001Y-85300001D03*
X132400001Y-85300001D03*
X131900000Y-85300001D03*
X131400001Y-85300001D03*
X130900002Y-85300001D03*
X130400000Y-85300001D03*
X129900001Y-85300001D03*
X129400000Y-85300001D03*
X128900001Y-85300001D03*
%TD*%
D16*
%TO.C,C40*%
X191910000Y-142410000D03*
X192870000Y-142410000D03*
%TD*%
D12*
%TO.C,R22*%
X228165000Y-133375000D03*
X229185000Y-133375000D03*
%TD*%
D11*
%TO.C,R28*%
X268220000Y-138335000D03*
X269870000Y-138335000D03*
%TD*%
D19*
%TO.C,CR2*%
X194224950Y-148960799D03*
X194224950Y-150860801D03*
X196523650Y-149910800D03*
%TD*%
D16*
%TO.C,C30*%
X274915000Y-127485000D03*
X275875000Y-127485000D03*
%TD*%
%TO.C,C38*%
X193670000Y-49460000D03*
X194630000Y-49460000D03*
%TD*%
D17*
%TO.C,C3*%
X223190000Y-88525000D03*
X224740000Y-88525000D03*
%TD*%
D16*
%TO.C,C41*%
X193670000Y-55370000D03*
X194630000Y-55370000D03*
%TD*%
D13*
%TO.C,R13*%
X214642500Y-109255000D03*
X220567500Y-109255000D03*
%TD*%
D17*
%TO.C,C26*%
X222840000Y-143135000D03*
X224390000Y-143135000D03*
%TD*%
%TO.C,C23*%
X222840000Y-140625000D03*
X224390000Y-140625000D03*
%TD*%
D16*
%TO.C,C42*%
X191910000Y-146350000D03*
X192870000Y-146350000D03*
%TD*%
%TO.C,C35*%
X274915000Y-137335000D03*
X275875000Y-137335000D03*
%TD*%
D11*
%TO.C,R4*%
X235170000Y-93545000D03*
X236820000Y-93545000D03*
%TD*%
D17*
%TO.C,C9*%
X227200000Y-88525000D03*
X228750000Y-88525000D03*
%TD*%
%TO.C,C14*%
X231210000Y-86015000D03*
X232760000Y-86015000D03*
%TD*%
D11*
%TO.C,R6*%
X235170000Y-96055000D03*
X236820000Y-96055000D03*
%TD*%
D12*
%TO.C,R42*%
X190750000Y-53470000D03*
X191770000Y-53470000D03*
%TD*%
D13*
%TO.C,R3*%
X214642500Y-84705000D03*
X220567500Y-84705000D03*
%TD*%
M02*
