%TF.GenerationSoftware,KiCad,Pcbnew,10.0.5-unknown-202607221313~667fa36054~ubuntu25.10.1*%
%TF.CreationDate,Date%
%TF.ProjectId,bms_slave,626d735f-736c-4617-9665-2e6b69636164,+ (Unreleased)*%
%TF.SameCoordinates,Original*%
%TF.FileFunction,Legend,Top*%
%TF.FilePolarity,Positive*%
%FSLAX46Y46*%
G04 Gerber Fmt 4.6, Leading zero omitted, Abs format (unit mm)*
G04 Created by KiCad*
%MOMM*%
%LPD*%
G01*
G04 APERTURE LIST*
G04 Aperture macros list*
%AMRoundRect*
0 Rectangle with rounded corners*
0 $1 Rounding radius*
0 $2 $3 $4 $5 $6 $7 $8 $9 X,Y pos of 4 corners*
0 Add a 4 corners polygon primitive as box body*
4,1,4,$2,$3,$4,$5,$6,$7,$8,$9,$2,$3,0*
0 Add four circle primitives for the rounded corners*
1,1,$1+$1,$2,$3*
1,1,$1+$1,$4,$5*
1,1,$1+$1,$6,$7*
1,1,$1+$1,$8,$9*
0 Add four rect primitives between the rounded corners*
20,1,$1+$1,$2,$3,$4,$5,0*
20,1,$1+$1,$4,$5,$6,$7,0*
20,1,$1+$1,$6,$7,$8,$9,0*
20,1,$1+$1,$8,$9,$2,$3,0*%
G04 Aperture macros list end*
%ADD10C,0.150000*%
%ADD11C,0.120000*%
%ADD12C,0.152400*%
%ADD13C,0.635000*%
%ADD14C,0.100000*%
%ADD15C,0.213592*%
%ADD16C,0.200000*%
%ADD17C,0.250000*%
%ADD18C,0.000000*%
%ADD19RoundRect,0.200000X-0.200000X-0.275000X0.200000X-0.275000X0.200000X0.275000X-0.200000X0.275000X0*%
%ADD20RoundRect,0.135000X-0.185000X0.135000X-0.185000X-0.135000X0.185000X-0.135000X0.185000X0.135000X0*%
%ADD21RoundRect,0.250000X-0.362500X-1.425000X0.362500X-1.425000X0.362500X1.425000X-0.362500X1.425000X0*%
%ADD22RoundRect,0.140000X0.170000X-0.140000X0.170000X0.140000X-0.170000X0.140000X-0.170000X-0.140000X0*%
%ADD23RoundRect,0.225000X0.225000X0.250000X-0.225000X0.250000X-0.225000X-0.250000X0.225000X-0.250000X0*%
%ADD24R,0.609600X0.304800*%
%ADD25C,1.574800*%
%ADD26RoundRect,0.140000X0.140000X0.170000X-0.140000X0.170000X-0.140000X-0.170000X0.140000X-0.170000X0*%
%ADD27RoundRect,0.200000X0.275000X-0.200000X0.275000X0.200000X-0.275000X0.200000X-0.275000X-0.200000X0*%
%ADD28C,1.000000*%
%ADD29C,2.463800*%
%ADD30C,2.000000*%
%ADD31R,0.901700X0.482600*%
%ADD32RoundRect,0.218750X0.218750X0.256250X-0.218750X0.256250X-0.218750X-0.256250X0.218750X-0.256250X0*%
%ADD33R,1.308100X0.685800*%
%ADD34C,3.200000*%
%ADD35RoundRect,0.140000X-0.140000X-0.170000X0.140000X-0.170000X0.140000X0.170000X-0.140000X0.170000X0*%
%ADD36RoundRect,0.225000X-0.225000X-0.250000X0.225000X-0.250000X0.225000X0.250000X-0.225000X0.250000X0*%
%ADD37RoundRect,0.250000X-0.475000X0.250000X-0.475000X-0.250000X0.475000X-0.250000X0.475000X0.250000X0*%
%ADD38RoundRect,0.250000X-1.075000X0.312500X-1.075000X-0.312500X1.075000X-0.312500X1.075000X0.312500X0*%
%ADD39RoundRect,0.200000X-0.275000X0.200000X-0.275000X-0.200000X0.275000X-0.200000X0.275000X0.200000X0*%
%ADD40RoundRect,0.135000X-0.135000X-0.185000X0.135000X-0.185000X0.135000X0.185000X-0.135000X0.185000X0*%
%ADD41RoundRect,0.250000X-0.250000X-0.475000X0.250000X-0.475000X0.250000X0.475000X-0.250000X0.475000X0*%
%ADD42RoundRect,0.250000X1.075000X-0.312500X1.075000X0.312500X-1.075000X0.312500X-1.075000X-0.312500X0*%
%ADD43C,1.066800*%
%ADD44R,1.500000X0.299999*%
%ADD45R,0.299999X1.500000*%
%ADD46C,0.499999*%
%ADD47RoundRect,0.140000X-0.170000X0.140000X-0.170000X-0.140000X0.170000X-0.140000X0.170000X0.140000X0*%
%ADD48R,5.511800X5.918200*%
%ADD49R,0.939800X2.489200*%
%ADD50C,2.971800*%
G04 APERTURE END LIST*
D10*
X123595833Y-70337319D02*
X123262500Y-69861128D01*
X123024405Y-70337319D02*
X123024405Y-69337319D01*
X123024405Y-69337319D02*
X123405357Y-69337319D01*
X123405357Y-69337319D02*
X123500595Y-69384938D01*
X123500595Y-69384938D02*
X123548214Y-69432557D01*
X123548214Y-69432557D02*
X123595833Y-69527795D01*
X123595833Y-69527795D02*
X123595833Y-69670652D01*
X123595833Y-69670652D02*
X123548214Y-69765890D01*
X123548214Y-69765890D02*
X123500595Y-69813509D01*
X123500595Y-69813509D02*
X123405357Y-69861128D01*
X123405357Y-69861128D02*
X123024405Y-69861128D01*
X123976786Y-69432557D02*
X124024405Y-69384938D01*
X124024405Y-69384938D02*
X124119643Y-69337319D01*
X124119643Y-69337319D02*
X124357738Y-69337319D01*
X124357738Y-69337319D02*
X124452976Y-69384938D01*
X124452976Y-69384938D02*
X124500595Y-69432557D01*
X124500595Y-69432557D02*
X124548214Y-69527795D01*
X124548214Y-69527795D02*
X124548214Y-69623033D01*
X124548214Y-69623033D02*
X124500595Y-69765890D01*
X124500595Y-69765890D02*
X123929167Y-70337319D01*
X123929167Y-70337319D02*
X124548214Y-70337319D01*
X155800817Y-76741256D02*
X155324626Y-77074589D01*
X155800817Y-77312684D02*
X154800817Y-77312684D01*
X154800817Y-77312684D02*
X154800817Y-76931732D01*
X154800817Y-76931732D02*
X154848436Y-76836494D01*
X154848436Y-76836494D02*
X154896055Y-76788875D01*
X154896055Y-76788875D02*
X154991293Y-76741256D01*
X154991293Y-76741256D02*
X155134150Y-76741256D01*
X155134150Y-76741256D02*
X155229388Y-76788875D01*
X155229388Y-76788875D02*
X155277007Y-76836494D01*
X155277007Y-76836494D02*
X155324626Y-76931732D01*
X155324626Y-76931732D02*
X155324626Y-77312684D01*
X154800817Y-76407922D02*
X154800817Y-75788875D01*
X154800817Y-75788875D02*
X155181769Y-76122208D01*
X155181769Y-76122208D02*
X155181769Y-75979351D01*
X155181769Y-75979351D02*
X155229388Y-75884113D01*
X155229388Y-75884113D02*
X155277007Y-75836494D01*
X155277007Y-75836494D02*
X155372245Y-75788875D01*
X155372245Y-75788875D02*
X155610340Y-75788875D01*
X155610340Y-75788875D02*
X155705578Y-75836494D01*
X155705578Y-75836494D02*
X155753198Y-75884113D01*
X155753198Y-75884113D02*
X155800817Y-75979351D01*
X155800817Y-75979351D02*
X155800817Y-76265065D01*
X155800817Y-76265065D02*
X155753198Y-76360303D01*
X155753198Y-76360303D02*
X155705578Y-76407922D01*
X155134150Y-74931732D02*
X155800817Y-74931732D01*
X154753198Y-75169827D02*
X155467483Y-75407922D01*
X155467483Y-75407922D02*
X155467483Y-74788875D01*
X118270833Y-80699819D02*
X117937500Y-80223628D01*
X117699405Y-80699819D02*
X117699405Y-79699819D01*
X117699405Y-79699819D02*
X118080357Y-79699819D01*
X118080357Y-79699819D02*
X118175595Y-79747438D01*
X118175595Y-79747438D02*
X118223214Y-79795057D01*
X118223214Y-79795057D02*
X118270833Y-79890295D01*
X118270833Y-79890295D02*
X118270833Y-80033152D01*
X118270833Y-80033152D02*
X118223214Y-80128390D01*
X118223214Y-80128390D02*
X118175595Y-80176009D01*
X118175595Y-80176009D02*
X118080357Y-80223628D01*
X118080357Y-80223628D02*
X117699405Y-80223628D01*
X118747024Y-80699819D02*
X118937500Y-80699819D01*
X118937500Y-80699819D02*
X119032738Y-80652200D01*
X119032738Y-80652200D02*
X119080357Y-80604580D01*
X119080357Y-80604580D02*
X119175595Y-80461723D01*
X119175595Y-80461723D02*
X119223214Y-80271247D01*
X119223214Y-80271247D02*
X119223214Y-79890295D01*
X119223214Y-79890295D02*
X119175595Y-79795057D01*
X119175595Y-79795057D02*
X119127976Y-79747438D01*
X119127976Y-79747438D02*
X119032738Y-79699819D01*
X119032738Y-79699819D02*
X118842262Y-79699819D01*
X118842262Y-79699819D02*
X118747024Y-79747438D01*
X118747024Y-79747438D02*
X118699405Y-79795057D01*
X118699405Y-79795057D02*
X118651786Y-79890295D01*
X118651786Y-79890295D02*
X118651786Y-80128390D01*
X118651786Y-80128390D02*
X118699405Y-80223628D01*
X118699405Y-80223628D02*
X118747024Y-80271247D01*
X118747024Y-80271247D02*
X118842262Y-80318866D01*
X118842262Y-80318866D02*
X119032738Y-80318866D01*
X119032738Y-80318866D02*
X119127976Y-80271247D01*
X119127976Y-80271247D02*
X119175595Y-80223628D01*
X119175595Y-80223628D02*
X119223214Y-80128390D01*
X148199580Y-85181357D02*
X148247200Y-85228976D01*
X148247200Y-85228976D02*
X148294819Y-85371833D01*
X148294819Y-85371833D02*
X148294819Y-85467071D01*
X148294819Y-85467071D02*
X148247200Y-85609928D01*
X148247200Y-85609928D02*
X148151961Y-85705166D01*
X148151961Y-85705166D02*
X148056723Y-85752785D01*
X148056723Y-85752785D02*
X147866247Y-85800404D01*
X147866247Y-85800404D02*
X147723390Y-85800404D01*
X147723390Y-85800404D02*
X147532914Y-85752785D01*
X147532914Y-85752785D02*
X147437676Y-85705166D01*
X147437676Y-85705166D02*
X147342438Y-85609928D01*
X147342438Y-85609928D02*
X147294819Y-85467071D01*
X147294819Y-85467071D02*
X147294819Y-85371833D01*
X147294819Y-85371833D02*
X147342438Y-85228976D01*
X147342438Y-85228976D02*
X147390057Y-85181357D01*
X147294819Y-84848023D02*
X147294819Y-84228976D01*
X147294819Y-84228976D02*
X147675771Y-84562309D01*
X147675771Y-84562309D02*
X147675771Y-84419452D01*
X147675771Y-84419452D02*
X147723390Y-84324214D01*
X147723390Y-84324214D02*
X147771009Y-84276595D01*
X147771009Y-84276595D02*
X147866247Y-84228976D01*
X147866247Y-84228976D02*
X148104342Y-84228976D01*
X148104342Y-84228976D02*
X148199580Y-84276595D01*
X148199580Y-84276595D02*
X148247200Y-84324214D01*
X148247200Y-84324214D02*
X148294819Y-84419452D01*
X148294819Y-84419452D02*
X148294819Y-84705166D01*
X148294819Y-84705166D02*
X148247200Y-84800404D01*
X148247200Y-84800404D02*
X148199580Y-84848023D01*
X148294819Y-83752785D02*
X148294819Y-83562309D01*
X148294819Y-83562309D02*
X148247200Y-83467071D01*
X148247200Y-83467071D02*
X148199580Y-83419452D01*
X148199580Y-83419452D02*
X148056723Y-83324214D01*
X148056723Y-83324214D02*
X147866247Y-83276595D01*
X147866247Y-83276595D02*
X147485295Y-83276595D01*
X147485295Y-83276595D02*
X147390057Y-83324214D01*
X147390057Y-83324214D02*
X147342438Y-83371833D01*
X147342438Y-83371833D02*
X147294819Y-83467071D01*
X147294819Y-83467071D02*
X147294819Y-83657547D01*
X147294819Y-83657547D02*
X147342438Y-83752785D01*
X147342438Y-83752785D02*
X147390057Y-83800404D01*
X147390057Y-83800404D02*
X147485295Y-83848023D01*
X147485295Y-83848023D02*
X147723390Y-83848023D01*
X147723390Y-83848023D02*
X147818628Y-83800404D01*
X147818628Y-83800404D02*
X147866247Y-83752785D01*
X147866247Y-83752785D02*
X147913866Y-83657547D01*
X147913866Y-83657547D02*
X147913866Y-83467071D01*
X147913866Y-83467071D02*
X147866247Y-83371833D01*
X147866247Y-83371833D02*
X147818628Y-83324214D01*
X147818628Y-83324214D02*
X147723390Y-83276595D01*
X129408333Y-87039580D02*
X129360714Y-87087200D01*
X129360714Y-87087200D02*
X129217857Y-87134819D01*
X129217857Y-87134819D02*
X129122619Y-87134819D01*
X129122619Y-87134819D02*
X128979762Y-87087200D01*
X128979762Y-87087200D02*
X128884524Y-86991961D01*
X128884524Y-86991961D02*
X128836905Y-86896723D01*
X128836905Y-86896723D02*
X128789286Y-86706247D01*
X128789286Y-86706247D02*
X128789286Y-86563390D01*
X128789286Y-86563390D02*
X128836905Y-86372914D01*
X128836905Y-86372914D02*
X128884524Y-86277676D01*
X128884524Y-86277676D02*
X128979762Y-86182438D01*
X128979762Y-86182438D02*
X129122619Y-86134819D01*
X129122619Y-86134819D02*
X129217857Y-86134819D01*
X129217857Y-86134819D02*
X129360714Y-86182438D01*
X129360714Y-86182438D02*
X129408333Y-86230057D01*
X130360714Y-87134819D02*
X129789286Y-87134819D01*
X130075000Y-87134819D02*
X130075000Y-86134819D01*
X130075000Y-86134819D02*
X129979762Y-86277676D01*
X129979762Y-86277676D02*
X129884524Y-86372914D01*
X129884524Y-86372914D02*
X129789286Y-86420533D01*
X136761905Y-79454819D02*
X136761905Y-78454819D01*
X136761905Y-78454819D02*
X137000000Y-78454819D01*
X137000000Y-78454819D02*
X137142857Y-78502438D01*
X137142857Y-78502438D02*
X137238095Y-78597676D01*
X137238095Y-78597676D02*
X137285714Y-78692914D01*
X137285714Y-78692914D02*
X137333333Y-78883390D01*
X137333333Y-78883390D02*
X137333333Y-79026247D01*
X137333333Y-79026247D02*
X137285714Y-79216723D01*
X137285714Y-79216723D02*
X137238095Y-79311961D01*
X137238095Y-79311961D02*
X137142857Y-79407200D01*
X137142857Y-79407200D02*
X137000000Y-79454819D01*
X137000000Y-79454819D02*
X136761905Y-79454819D01*
X137714286Y-78550057D02*
X137761905Y-78502438D01*
X137761905Y-78502438D02*
X137857143Y-78454819D01*
X137857143Y-78454819D02*
X138095238Y-78454819D01*
X138095238Y-78454819D02*
X138190476Y-78502438D01*
X138190476Y-78502438D02*
X138238095Y-78550057D01*
X138238095Y-78550057D02*
X138285714Y-78645295D01*
X138285714Y-78645295D02*
X138285714Y-78740533D01*
X138285714Y-78740533D02*
X138238095Y-78883390D01*
X138238095Y-78883390D02*
X137666667Y-79454819D01*
X137666667Y-79454819D02*
X138285714Y-79454819D01*
X135671200Y-80454819D02*
X135671200Y-80692914D01*
X135433105Y-80597676D02*
X135671200Y-80692914D01*
X135671200Y-80692914D02*
X135909295Y-80597676D01*
X135528343Y-80883390D02*
X135671200Y-80692914D01*
X135671200Y-80692914D02*
X135814057Y-80883390D01*
X135671200Y-80454819D02*
X135671200Y-80692914D01*
X135433105Y-80597676D02*
X135671200Y-80692914D01*
X135671200Y-80692914D02*
X135909295Y-80597676D01*
X135528343Y-80883390D02*
X135671200Y-80692914D01*
X135671200Y-80692914D02*
X135814057Y-80883390D01*
X139324580Y-78817857D02*
X139372200Y-78865476D01*
X139372200Y-78865476D02*
X139419819Y-79008333D01*
X139419819Y-79008333D02*
X139419819Y-79103571D01*
X139419819Y-79103571D02*
X139372200Y-79246428D01*
X139372200Y-79246428D02*
X139276961Y-79341666D01*
X139276961Y-79341666D02*
X139181723Y-79389285D01*
X139181723Y-79389285D02*
X138991247Y-79436904D01*
X138991247Y-79436904D02*
X138848390Y-79436904D01*
X138848390Y-79436904D02*
X138657914Y-79389285D01*
X138657914Y-79389285D02*
X138562676Y-79341666D01*
X138562676Y-79341666D02*
X138467438Y-79246428D01*
X138467438Y-79246428D02*
X138419819Y-79103571D01*
X138419819Y-79103571D02*
X138419819Y-79008333D01*
X138419819Y-79008333D02*
X138467438Y-78865476D01*
X138467438Y-78865476D02*
X138515057Y-78817857D01*
X138515057Y-78436904D02*
X138467438Y-78389285D01*
X138467438Y-78389285D02*
X138419819Y-78294047D01*
X138419819Y-78294047D02*
X138419819Y-78055952D01*
X138419819Y-78055952D02*
X138467438Y-77960714D01*
X138467438Y-77960714D02*
X138515057Y-77913095D01*
X138515057Y-77913095D02*
X138610295Y-77865476D01*
X138610295Y-77865476D02*
X138705533Y-77865476D01*
X138705533Y-77865476D02*
X138848390Y-77913095D01*
X138848390Y-77913095D02*
X139419819Y-78484523D01*
X139419819Y-78484523D02*
X139419819Y-77865476D01*
X138419819Y-77532142D02*
X138419819Y-76865476D01*
X138419819Y-76865476D02*
X139419819Y-77294047D01*
X114445180Y-87166668D02*
X113730895Y-87166668D01*
X113730895Y-87166668D02*
X113588038Y-87119049D01*
X113588038Y-87119049D02*
X113492800Y-87023811D01*
X113492800Y-87023811D02*
X113445180Y-86880954D01*
X113445180Y-86880954D02*
X113445180Y-86785716D01*
X114445180Y-87547621D02*
X114445180Y-88166668D01*
X114445180Y-88166668D02*
X114064228Y-87833335D01*
X114064228Y-87833335D02*
X114064228Y-87976192D01*
X114064228Y-87976192D02*
X114016609Y-88071430D01*
X114016609Y-88071430D02*
X113968990Y-88119049D01*
X113968990Y-88119049D02*
X113873752Y-88166668D01*
X113873752Y-88166668D02*
X113635657Y-88166668D01*
X113635657Y-88166668D02*
X113540419Y-88119049D01*
X113540419Y-88119049D02*
X113492800Y-88071430D01*
X113492800Y-88071430D02*
X113445180Y-87976192D01*
X113445180Y-87976192D02*
X113445180Y-87690478D01*
X113445180Y-87690478D02*
X113492800Y-87595240D01*
X113492800Y-87595240D02*
X113540419Y-87547621D01*
X142053143Y-79077980D02*
X142005524Y-79125600D01*
X142005524Y-79125600D02*
X141862667Y-79173219D01*
X141862667Y-79173219D02*
X141767429Y-79173219D01*
X141767429Y-79173219D02*
X141624572Y-79125600D01*
X141624572Y-79125600D02*
X141529334Y-79030361D01*
X141529334Y-79030361D02*
X141481715Y-78935123D01*
X141481715Y-78935123D02*
X141434096Y-78744647D01*
X141434096Y-78744647D02*
X141434096Y-78601790D01*
X141434096Y-78601790D02*
X141481715Y-78411314D01*
X141481715Y-78411314D02*
X141529334Y-78316076D01*
X141529334Y-78316076D02*
X141624572Y-78220838D01*
X141624572Y-78220838D02*
X141767429Y-78173219D01*
X141767429Y-78173219D02*
X141862667Y-78173219D01*
X141862667Y-78173219D02*
X142005524Y-78220838D01*
X142005524Y-78220838D02*
X142053143Y-78268457D01*
X142434096Y-78268457D02*
X142481715Y-78220838D01*
X142481715Y-78220838D02*
X142576953Y-78173219D01*
X142576953Y-78173219D02*
X142815048Y-78173219D01*
X142815048Y-78173219D02*
X142910286Y-78220838D01*
X142910286Y-78220838D02*
X142957905Y-78268457D01*
X142957905Y-78268457D02*
X143005524Y-78363695D01*
X143005524Y-78363695D02*
X143005524Y-78458933D01*
X143005524Y-78458933D02*
X142957905Y-78601790D01*
X142957905Y-78601790D02*
X142386477Y-79173219D01*
X142386477Y-79173219D02*
X143005524Y-79173219D01*
X143481715Y-79173219D02*
X143672191Y-79173219D01*
X143672191Y-79173219D02*
X143767429Y-79125600D01*
X143767429Y-79125600D02*
X143815048Y-79077980D01*
X143815048Y-79077980D02*
X143910286Y-78935123D01*
X143910286Y-78935123D02*
X143957905Y-78744647D01*
X143957905Y-78744647D02*
X143957905Y-78363695D01*
X143957905Y-78363695D02*
X143910286Y-78268457D01*
X143910286Y-78268457D02*
X143862667Y-78220838D01*
X143862667Y-78220838D02*
X143767429Y-78173219D01*
X143767429Y-78173219D02*
X143576953Y-78173219D01*
X143576953Y-78173219D02*
X143481715Y-78220838D01*
X143481715Y-78220838D02*
X143434096Y-78268457D01*
X143434096Y-78268457D02*
X143386477Y-78363695D01*
X143386477Y-78363695D02*
X143386477Y-78601790D01*
X143386477Y-78601790D02*
X143434096Y-78697028D01*
X143434096Y-78697028D02*
X143481715Y-78744647D01*
X143481715Y-78744647D02*
X143576953Y-78792266D01*
X143576953Y-78792266D02*
X143767429Y-78792266D01*
X143767429Y-78792266D02*
X143862667Y-78744647D01*
X143862667Y-78744647D02*
X143910286Y-78697028D01*
X143910286Y-78697028D02*
X143957905Y-78601790D01*
X150400817Y-77056256D02*
X149924626Y-77389589D01*
X150400817Y-77627684D02*
X149400817Y-77627684D01*
X149400817Y-77627684D02*
X149400817Y-77246732D01*
X149400817Y-77246732D02*
X149448436Y-77151494D01*
X149448436Y-77151494D02*
X149496055Y-77103875D01*
X149496055Y-77103875D02*
X149591293Y-77056256D01*
X149591293Y-77056256D02*
X149734150Y-77056256D01*
X149734150Y-77056256D02*
X149829388Y-77103875D01*
X149829388Y-77103875D02*
X149877007Y-77151494D01*
X149877007Y-77151494D02*
X149924626Y-77246732D01*
X149924626Y-77246732D02*
X149924626Y-77627684D01*
X149496055Y-76675303D02*
X149448436Y-76627684D01*
X149448436Y-76627684D02*
X149400817Y-76532446D01*
X149400817Y-76532446D02*
X149400817Y-76294351D01*
X149400817Y-76294351D02*
X149448436Y-76199113D01*
X149448436Y-76199113D02*
X149496055Y-76151494D01*
X149496055Y-76151494D02*
X149591293Y-76103875D01*
X149591293Y-76103875D02*
X149686531Y-76103875D01*
X149686531Y-76103875D02*
X149829388Y-76151494D01*
X149829388Y-76151494D02*
X150400817Y-76722922D01*
X150400817Y-76722922D02*
X150400817Y-76103875D01*
X149400817Y-75199113D02*
X149400817Y-75675303D01*
X149400817Y-75675303D02*
X149877007Y-75722922D01*
X149877007Y-75722922D02*
X149829388Y-75675303D01*
X149829388Y-75675303D02*
X149781769Y-75580065D01*
X149781769Y-75580065D02*
X149781769Y-75341970D01*
X149781769Y-75341970D02*
X149829388Y-75246732D01*
X149829388Y-75246732D02*
X149877007Y-75199113D01*
X149877007Y-75199113D02*
X149972245Y-75151494D01*
X149972245Y-75151494D02*
X150210340Y-75151494D01*
X150210340Y-75151494D02*
X150305578Y-75199113D01*
X150305578Y-75199113D02*
X150353198Y-75246732D01*
X150353198Y-75246732D02*
X150400817Y-75341970D01*
X150400817Y-75341970D02*
X150400817Y-75580065D01*
X150400817Y-75580065D02*
X150353198Y-75675303D01*
X150353198Y-75675303D02*
X150305578Y-75722922D01*
X106928571Y-67231009D02*
X106595238Y-67231009D01*
X106595238Y-67754819D02*
X106595238Y-66754819D01*
X106595238Y-66754819D02*
X107071428Y-66754819D01*
X107452381Y-67754819D02*
X107452381Y-66754819D01*
X107928571Y-67754819D02*
X107928571Y-66754819D01*
X107928571Y-66754819D02*
X108166666Y-66754819D01*
X108166666Y-66754819D02*
X108309523Y-66802438D01*
X108309523Y-66802438D02*
X108404761Y-66897676D01*
X108404761Y-66897676D02*
X108452380Y-66992914D01*
X108452380Y-66992914D02*
X108499999Y-67183390D01*
X108499999Y-67183390D02*
X108499999Y-67326247D01*
X108499999Y-67326247D02*
X108452380Y-67516723D01*
X108452380Y-67516723D02*
X108404761Y-67611961D01*
X108404761Y-67611961D02*
X108309523Y-67707200D01*
X108309523Y-67707200D02*
X108166666Y-67754819D01*
X108166666Y-67754819D02*
X107928571Y-67754819D01*
X108880952Y-66850057D02*
X108928571Y-66802438D01*
X108928571Y-66802438D02*
X109023809Y-66754819D01*
X109023809Y-66754819D02*
X109261904Y-66754819D01*
X109261904Y-66754819D02*
X109357142Y-66802438D01*
X109357142Y-66802438D02*
X109404761Y-66850057D01*
X109404761Y-66850057D02*
X109452380Y-66945295D01*
X109452380Y-66945295D02*
X109452380Y-67040533D01*
X109452380Y-67040533D02*
X109404761Y-67183390D01*
X109404761Y-67183390D02*
X108833333Y-67754819D01*
X108833333Y-67754819D02*
X109452380Y-67754819D01*
X148875820Y-76741256D02*
X148399629Y-77074589D01*
X148875820Y-77312684D02*
X147875820Y-77312684D01*
X147875820Y-77312684D02*
X147875820Y-76931732D01*
X147875820Y-76931732D02*
X147923439Y-76836494D01*
X147923439Y-76836494D02*
X147971058Y-76788875D01*
X147971058Y-76788875D02*
X148066296Y-76741256D01*
X148066296Y-76741256D02*
X148209153Y-76741256D01*
X148209153Y-76741256D02*
X148304391Y-76788875D01*
X148304391Y-76788875D02*
X148352010Y-76836494D01*
X148352010Y-76836494D02*
X148399629Y-76931732D01*
X148399629Y-76931732D02*
X148399629Y-77312684D01*
X147875820Y-76407922D02*
X147875820Y-75788875D01*
X147875820Y-75788875D02*
X148256772Y-76122208D01*
X148256772Y-76122208D02*
X148256772Y-75979351D01*
X148256772Y-75979351D02*
X148304391Y-75884113D01*
X148304391Y-75884113D02*
X148352010Y-75836494D01*
X148352010Y-75836494D02*
X148447248Y-75788875D01*
X148447248Y-75788875D02*
X148685343Y-75788875D01*
X148685343Y-75788875D02*
X148780581Y-75836494D01*
X148780581Y-75836494D02*
X148828201Y-75884113D01*
X148828201Y-75884113D02*
X148875820Y-75979351D01*
X148875820Y-75979351D02*
X148875820Y-76265065D01*
X148875820Y-76265065D02*
X148828201Y-76360303D01*
X148828201Y-76360303D02*
X148780581Y-76407922D01*
X147971058Y-75407922D02*
X147923439Y-75360303D01*
X147923439Y-75360303D02*
X147875820Y-75265065D01*
X147875820Y-75265065D02*
X147875820Y-75026970D01*
X147875820Y-75026970D02*
X147923439Y-74931732D01*
X147923439Y-74931732D02*
X147971058Y-74884113D01*
X147971058Y-74884113D02*
X148066296Y-74836494D01*
X148066296Y-74836494D02*
X148161534Y-74836494D01*
X148161534Y-74836494D02*
X148304391Y-74884113D01*
X148304391Y-74884113D02*
X148875820Y-75455541D01*
X148875820Y-75455541D02*
X148875820Y-74836494D01*
X169645817Y-76741256D02*
X169169626Y-77074589D01*
X169645817Y-77312684D02*
X168645817Y-77312684D01*
X168645817Y-77312684D02*
X168645817Y-76931732D01*
X168645817Y-76931732D02*
X168693436Y-76836494D01*
X168693436Y-76836494D02*
X168741055Y-76788875D01*
X168741055Y-76788875D02*
X168836293Y-76741256D01*
X168836293Y-76741256D02*
X168979150Y-76741256D01*
X168979150Y-76741256D02*
X169074388Y-76788875D01*
X169074388Y-76788875D02*
X169122007Y-76836494D01*
X169122007Y-76836494D02*
X169169626Y-76931732D01*
X169169626Y-76931732D02*
X169169626Y-77312684D01*
X168645817Y-76407922D02*
X168645817Y-75788875D01*
X168645817Y-75788875D02*
X169026769Y-76122208D01*
X169026769Y-76122208D02*
X169026769Y-75979351D01*
X169026769Y-75979351D02*
X169074388Y-75884113D01*
X169074388Y-75884113D02*
X169122007Y-75836494D01*
X169122007Y-75836494D02*
X169217245Y-75788875D01*
X169217245Y-75788875D02*
X169455340Y-75788875D01*
X169455340Y-75788875D02*
X169550578Y-75836494D01*
X169550578Y-75836494D02*
X169598198Y-75884113D01*
X169598198Y-75884113D02*
X169645817Y-75979351D01*
X169645817Y-75979351D02*
X169645817Y-76265065D01*
X169645817Y-76265065D02*
X169598198Y-76360303D01*
X169598198Y-76360303D02*
X169550578Y-76407922D01*
X169074388Y-75217446D02*
X169026769Y-75312684D01*
X169026769Y-75312684D02*
X168979150Y-75360303D01*
X168979150Y-75360303D02*
X168883912Y-75407922D01*
X168883912Y-75407922D02*
X168836293Y-75407922D01*
X168836293Y-75407922D02*
X168741055Y-75360303D01*
X168741055Y-75360303D02*
X168693436Y-75312684D01*
X168693436Y-75312684D02*
X168645817Y-75217446D01*
X168645817Y-75217446D02*
X168645817Y-75026970D01*
X168645817Y-75026970D02*
X168693436Y-74931732D01*
X168693436Y-74931732D02*
X168741055Y-74884113D01*
X168741055Y-74884113D02*
X168836293Y-74836494D01*
X168836293Y-74836494D02*
X168883912Y-74836494D01*
X168883912Y-74836494D02*
X168979150Y-74884113D01*
X168979150Y-74884113D02*
X169026769Y-74931732D01*
X169026769Y-74931732D02*
X169074388Y-75026970D01*
X169074388Y-75026970D02*
X169074388Y-75217446D01*
X169074388Y-75217446D02*
X169122007Y-75312684D01*
X169122007Y-75312684D02*
X169169626Y-75360303D01*
X169169626Y-75360303D02*
X169264864Y-75407922D01*
X169264864Y-75407922D02*
X169455340Y-75407922D01*
X169455340Y-75407922D02*
X169550578Y-75360303D01*
X169550578Y-75360303D02*
X169598198Y-75312684D01*
X169598198Y-75312684D02*
X169645817Y-75217446D01*
X169645817Y-75217446D02*
X169645817Y-75026970D01*
X169645817Y-75026970D02*
X169598198Y-74931732D01*
X169598198Y-74931732D02*
X169550578Y-74884113D01*
X169550578Y-74884113D02*
X169455340Y-74836494D01*
X169455340Y-74836494D02*
X169264864Y-74836494D01*
X169264864Y-74836494D02*
X169169626Y-74884113D01*
X169169626Y-74884113D02*
X169122007Y-74931732D01*
X169122007Y-74931732D02*
X169074388Y-75026970D01*
X176345180Y-103666666D02*
X175630895Y-103666666D01*
X175630895Y-103666666D02*
X175488038Y-103619047D01*
X175488038Y-103619047D02*
X175392800Y-103523809D01*
X175392800Y-103523809D02*
X175345180Y-103380952D01*
X175345180Y-103380952D02*
X175345180Y-103285714D01*
X175345180Y-104666666D02*
X175345180Y-104095238D01*
X175345180Y-104380952D02*
X176345180Y-104380952D01*
X176345180Y-104380952D02*
X176202323Y-104285714D01*
X176202323Y-104285714D02*
X176107085Y-104190476D01*
X176107085Y-104190476D02*
X176059466Y-104095238D01*
X105888095Y-144556819D02*
X106459523Y-144556819D01*
X106173809Y-145556819D02*
X106173809Y-144556819D01*
X106792857Y-145556819D02*
X106792857Y-144556819D01*
X106792857Y-144556819D02*
X107173809Y-144556819D01*
X107173809Y-144556819D02*
X107269047Y-144604438D01*
X107269047Y-144604438D02*
X107316666Y-144652057D01*
X107316666Y-144652057D02*
X107364285Y-144747295D01*
X107364285Y-144747295D02*
X107364285Y-144890152D01*
X107364285Y-144890152D02*
X107316666Y-144985390D01*
X107316666Y-144985390D02*
X107269047Y-145033009D01*
X107269047Y-145033009D02*
X107173809Y-145080628D01*
X107173809Y-145080628D02*
X106792857Y-145080628D01*
X107935714Y-144985390D02*
X107840476Y-144937771D01*
X107840476Y-144937771D02*
X107792857Y-144890152D01*
X107792857Y-144890152D02*
X107745238Y-144794914D01*
X107745238Y-144794914D02*
X107745238Y-144747295D01*
X107745238Y-144747295D02*
X107792857Y-144652057D01*
X107792857Y-144652057D02*
X107840476Y-144604438D01*
X107840476Y-144604438D02*
X107935714Y-144556819D01*
X107935714Y-144556819D02*
X108126190Y-144556819D01*
X108126190Y-144556819D02*
X108221428Y-144604438D01*
X108221428Y-144604438D02*
X108269047Y-144652057D01*
X108269047Y-144652057D02*
X108316666Y-144747295D01*
X108316666Y-144747295D02*
X108316666Y-144794914D01*
X108316666Y-144794914D02*
X108269047Y-144890152D01*
X108269047Y-144890152D02*
X108221428Y-144937771D01*
X108221428Y-144937771D02*
X108126190Y-144985390D01*
X108126190Y-144985390D02*
X107935714Y-144985390D01*
X107935714Y-144985390D02*
X107840476Y-145033009D01*
X107840476Y-145033009D02*
X107792857Y-145080628D01*
X107792857Y-145080628D02*
X107745238Y-145175866D01*
X107745238Y-145175866D02*
X107745238Y-145366342D01*
X107745238Y-145366342D02*
X107792857Y-145461580D01*
X107792857Y-145461580D02*
X107840476Y-145509200D01*
X107840476Y-145509200D02*
X107935714Y-145556819D01*
X107935714Y-145556819D02*
X108126190Y-145556819D01*
X108126190Y-145556819D02*
X108221428Y-145509200D01*
X108221428Y-145509200D02*
X108269047Y-145461580D01*
X108269047Y-145461580D02*
X108316666Y-145366342D01*
X108316666Y-145366342D02*
X108316666Y-145175866D01*
X108316666Y-145175866D02*
X108269047Y-145080628D01*
X108269047Y-145080628D02*
X108221428Y-145033009D01*
X108221428Y-145033009D02*
X108126190Y-144985390D01*
X123119642Y-102712319D02*
X122786309Y-102236128D01*
X122548214Y-102712319D02*
X122548214Y-101712319D01*
X122548214Y-101712319D02*
X122929166Y-101712319D01*
X122929166Y-101712319D02*
X123024404Y-101759938D01*
X123024404Y-101759938D02*
X123072023Y-101807557D01*
X123072023Y-101807557D02*
X123119642Y-101902795D01*
X123119642Y-101902795D02*
X123119642Y-102045652D01*
X123119642Y-102045652D02*
X123072023Y-102140890D01*
X123072023Y-102140890D02*
X123024404Y-102188509D01*
X123024404Y-102188509D02*
X122929166Y-102236128D01*
X122929166Y-102236128D02*
X122548214Y-102236128D01*
X124072023Y-102712319D02*
X123500595Y-102712319D01*
X123786309Y-102712319D02*
X123786309Y-101712319D01*
X123786309Y-101712319D02*
X123691071Y-101855176D01*
X123691071Y-101855176D02*
X123595833Y-101950414D01*
X123595833Y-101950414D02*
X123500595Y-101998033D01*
X124929166Y-101712319D02*
X124738690Y-101712319D01*
X124738690Y-101712319D02*
X124643452Y-101759938D01*
X124643452Y-101759938D02*
X124595833Y-101807557D01*
X124595833Y-101807557D02*
X124500595Y-101950414D01*
X124500595Y-101950414D02*
X124452976Y-102140890D01*
X124452976Y-102140890D02*
X124452976Y-102521842D01*
X124452976Y-102521842D02*
X124500595Y-102617080D01*
X124500595Y-102617080D02*
X124548214Y-102664700D01*
X124548214Y-102664700D02*
X124643452Y-102712319D01*
X124643452Y-102712319D02*
X124833928Y-102712319D01*
X124833928Y-102712319D02*
X124929166Y-102664700D01*
X124929166Y-102664700D02*
X124976785Y-102617080D01*
X124976785Y-102617080D02*
X125024404Y-102521842D01*
X125024404Y-102521842D02*
X125024404Y-102283747D01*
X125024404Y-102283747D02*
X124976785Y-102188509D01*
X124976785Y-102188509D02*
X124929166Y-102140890D01*
X124929166Y-102140890D02*
X124833928Y-102093271D01*
X124833928Y-102093271D02*
X124643452Y-102093271D01*
X124643452Y-102093271D02*
X124548214Y-102140890D01*
X124548214Y-102140890D02*
X124500595Y-102188509D01*
X124500595Y-102188509D02*
X124452976Y-102283747D01*
X155898143Y-79047980D02*
X155850524Y-79095600D01*
X155850524Y-79095600D02*
X155707667Y-79143219D01*
X155707667Y-79143219D02*
X155612429Y-79143219D01*
X155612429Y-79143219D02*
X155469572Y-79095600D01*
X155469572Y-79095600D02*
X155374334Y-79000361D01*
X155374334Y-79000361D02*
X155326715Y-78905123D01*
X155326715Y-78905123D02*
X155279096Y-78714647D01*
X155279096Y-78714647D02*
X155279096Y-78571790D01*
X155279096Y-78571790D02*
X155326715Y-78381314D01*
X155326715Y-78381314D02*
X155374334Y-78286076D01*
X155374334Y-78286076D02*
X155469572Y-78190838D01*
X155469572Y-78190838D02*
X155612429Y-78143219D01*
X155612429Y-78143219D02*
X155707667Y-78143219D01*
X155707667Y-78143219D02*
X155850524Y-78190838D01*
X155850524Y-78190838D02*
X155898143Y-78238457D01*
X156231477Y-78143219D02*
X156850524Y-78143219D01*
X156850524Y-78143219D02*
X156517191Y-78524171D01*
X156517191Y-78524171D02*
X156660048Y-78524171D01*
X156660048Y-78524171D02*
X156755286Y-78571790D01*
X156755286Y-78571790D02*
X156802905Y-78619409D01*
X156802905Y-78619409D02*
X156850524Y-78714647D01*
X156850524Y-78714647D02*
X156850524Y-78952742D01*
X156850524Y-78952742D02*
X156802905Y-79047980D01*
X156802905Y-79047980D02*
X156755286Y-79095600D01*
X156755286Y-79095600D02*
X156660048Y-79143219D01*
X156660048Y-79143219D02*
X156374334Y-79143219D01*
X156374334Y-79143219D02*
X156279096Y-79095600D01*
X156279096Y-79095600D02*
X156231477Y-79047980D01*
X157183858Y-78143219D02*
X157802905Y-78143219D01*
X157802905Y-78143219D02*
X157469572Y-78524171D01*
X157469572Y-78524171D02*
X157612429Y-78524171D01*
X157612429Y-78524171D02*
X157707667Y-78571790D01*
X157707667Y-78571790D02*
X157755286Y-78619409D01*
X157755286Y-78619409D02*
X157802905Y-78714647D01*
X157802905Y-78714647D02*
X157802905Y-78952742D01*
X157802905Y-78952742D02*
X157755286Y-79047980D01*
X157755286Y-79047980D02*
X157707667Y-79095600D01*
X157707667Y-79095600D02*
X157612429Y-79143219D01*
X157612429Y-79143219D02*
X157326715Y-79143219D01*
X157326715Y-79143219D02*
X157231477Y-79095600D01*
X157231477Y-79095600D02*
X157183858Y-79047980D01*
X117794642Y-103824819D02*
X117461309Y-103348628D01*
X117223214Y-103824819D02*
X117223214Y-102824819D01*
X117223214Y-102824819D02*
X117604166Y-102824819D01*
X117604166Y-102824819D02*
X117699404Y-102872438D01*
X117699404Y-102872438D02*
X117747023Y-102920057D01*
X117747023Y-102920057D02*
X117794642Y-103015295D01*
X117794642Y-103015295D02*
X117794642Y-103158152D01*
X117794642Y-103158152D02*
X117747023Y-103253390D01*
X117747023Y-103253390D02*
X117699404Y-103301009D01*
X117699404Y-103301009D02*
X117604166Y-103348628D01*
X117604166Y-103348628D02*
X117223214Y-103348628D01*
X118747023Y-103824819D02*
X118175595Y-103824819D01*
X118461309Y-103824819D02*
X118461309Y-102824819D01*
X118461309Y-102824819D02*
X118366071Y-102967676D01*
X118366071Y-102967676D02*
X118270833Y-103062914D01*
X118270833Y-103062914D02*
X118175595Y-103110533D01*
X119223214Y-103824819D02*
X119413690Y-103824819D01*
X119413690Y-103824819D02*
X119508928Y-103777200D01*
X119508928Y-103777200D02*
X119556547Y-103729580D01*
X119556547Y-103729580D02*
X119651785Y-103586723D01*
X119651785Y-103586723D02*
X119699404Y-103396247D01*
X119699404Y-103396247D02*
X119699404Y-103015295D01*
X119699404Y-103015295D02*
X119651785Y-102920057D01*
X119651785Y-102920057D02*
X119604166Y-102872438D01*
X119604166Y-102872438D02*
X119508928Y-102824819D01*
X119508928Y-102824819D02*
X119318452Y-102824819D01*
X119318452Y-102824819D02*
X119223214Y-102872438D01*
X119223214Y-102872438D02*
X119175595Y-102920057D01*
X119175595Y-102920057D02*
X119127976Y-103015295D01*
X119127976Y-103015295D02*
X119127976Y-103253390D01*
X119127976Y-103253390D02*
X119175595Y-103348628D01*
X119175595Y-103348628D02*
X119223214Y-103396247D01*
X119223214Y-103396247D02*
X119318452Y-103443866D01*
X119318452Y-103443866D02*
X119508928Y-103443866D01*
X119508928Y-103443866D02*
X119604166Y-103396247D01*
X119604166Y-103396247D02*
X119651785Y-103348628D01*
X119651785Y-103348628D02*
X119699404Y-103253390D01*
X154136783Y-101409581D02*
X154089164Y-101457201D01*
X154089164Y-101457201D02*
X153946307Y-101504820D01*
X153946307Y-101504820D02*
X153851069Y-101504820D01*
X153851069Y-101504820D02*
X153708212Y-101457201D01*
X153708212Y-101457201D02*
X153612974Y-101361962D01*
X153612974Y-101361962D02*
X153565355Y-101266724D01*
X153565355Y-101266724D02*
X153517736Y-101076248D01*
X153517736Y-101076248D02*
X153517736Y-100933391D01*
X153517736Y-100933391D02*
X153565355Y-100742915D01*
X153565355Y-100742915D02*
X153612974Y-100647677D01*
X153612974Y-100647677D02*
X153708212Y-100552439D01*
X153708212Y-100552439D02*
X153851069Y-100504820D01*
X153851069Y-100504820D02*
X153946307Y-100504820D01*
X153946307Y-100504820D02*
X154089164Y-100552439D01*
X154089164Y-100552439D02*
X154136783Y-100600058D01*
X155136783Y-101504820D02*
X154803450Y-101028629D01*
X154565355Y-101504820D02*
X154565355Y-100504820D01*
X154565355Y-100504820D02*
X154946307Y-100504820D01*
X154946307Y-100504820D02*
X155041545Y-100552439D01*
X155041545Y-100552439D02*
X155089164Y-100600058D01*
X155089164Y-100600058D02*
X155136783Y-100695296D01*
X155136783Y-100695296D02*
X155136783Y-100838153D01*
X155136783Y-100838153D02*
X155089164Y-100933391D01*
X155089164Y-100933391D02*
X155041545Y-100981010D01*
X155041545Y-100981010D02*
X154946307Y-101028629D01*
X154946307Y-101028629D02*
X154565355Y-101028629D01*
X156089164Y-101504820D02*
X155517736Y-101504820D01*
X155803450Y-101504820D02*
X155803450Y-100504820D01*
X155803450Y-100504820D02*
X155708212Y-100647677D01*
X155708212Y-100647677D02*
X155612974Y-100742915D01*
X155612974Y-100742915D02*
X155517736Y-100790534D01*
X151900100Y-100929220D02*
X151900100Y-101167315D01*
X151662005Y-101072077D02*
X151900100Y-101167315D01*
X151900100Y-101167315D02*
X152138195Y-101072077D01*
X151757243Y-101357791D02*
X151900100Y-101167315D01*
X151900100Y-101167315D02*
X152042957Y-101357791D01*
X151900100Y-100929220D02*
X151900100Y-101167315D01*
X151662005Y-101072077D02*
X151900100Y-101167315D01*
X151900100Y-101167315D02*
X152138195Y-101072077D01*
X151757243Y-101357791D02*
X151900100Y-101167315D01*
X151900100Y-101167315D02*
X152042957Y-101357791D01*
X87211905Y-134456819D02*
X87783333Y-134456819D01*
X87497619Y-135456819D02*
X87497619Y-134456819D01*
X88116667Y-135456819D02*
X88116667Y-134456819D01*
X88116667Y-134456819D02*
X88497619Y-134456819D01*
X88497619Y-134456819D02*
X88592857Y-134504438D01*
X88592857Y-134504438D02*
X88640476Y-134552057D01*
X88640476Y-134552057D02*
X88688095Y-134647295D01*
X88688095Y-134647295D02*
X88688095Y-134790152D01*
X88688095Y-134790152D02*
X88640476Y-134885390D01*
X88640476Y-134885390D02*
X88592857Y-134933009D01*
X88592857Y-134933009D02*
X88497619Y-134980628D01*
X88497619Y-134980628D02*
X88116667Y-134980628D01*
X89640476Y-135456819D02*
X89069048Y-135456819D01*
X89354762Y-135456819D02*
X89354762Y-134456819D01*
X89354762Y-134456819D02*
X89259524Y-134599676D01*
X89259524Y-134599676D02*
X89164286Y-134694914D01*
X89164286Y-134694914D02*
X89069048Y-134742533D01*
X90021429Y-134552057D02*
X90069048Y-134504438D01*
X90069048Y-134504438D02*
X90164286Y-134456819D01*
X90164286Y-134456819D02*
X90402381Y-134456819D01*
X90402381Y-134456819D02*
X90497619Y-134504438D01*
X90497619Y-134504438D02*
X90545238Y-134552057D01*
X90545238Y-134552057D02*
X90592857Y-134647295D01*
X90592857Y-134647295D02*
X90592857Y-134742533D01*
X90592857Y-134742533D02*
X90545238Y-134885390D01*
X90545238Y-134885390D02*
X89973810Y-135456819D01*
X89973810Y-135456819D02*
X90592857Y-135456819D01*
X117794642Y-99199819D02*
X117461309Y-98723628D01*
X117223214Y-99199819D02*
X117223214Y-98199819D01*
X117223214Y-98199819D02*
X117604166Y-98199819D01*
X117604166Y-98199819D02*
X117699404Y-98247438D01*
X117699404Y-98247438D02*
X117747023Y-98295057D01*
X117747023Y-98295057D02*
X117794642Y-98390295D01*
X117794642Y-98390295D02*
X117794642Y-98533152D01*
X117794642Y-98533152D02*
X117747023Y-98628390D01*
X117747023Y-98628390D02*
X117699404Y-98676009D01*
X117699404Y-98676009D02*
X117604166Y-98723628D01*
X117604166Y-98723628D02*
X117223214Y-98723628D01*
X118747023Y-99199819D02*
X118175595Y-99199819D01*
X118461309Y-99199819D02*
X118461309Y-98199819D01*
X118461309Y-98199819D02*
X118366071Y-98342676D01*
X118366071Y-98342676D02*
X118270833Y-98437914D01*
X118270833Y-98437914D02*
X118175595Y-98485533D01*
X119080357Y-98199819D02*
X119747023Y-98199819D01*
X119747023Y-98199819D02*
X119318452Y-99199819D01*
X143475817Y-77056256D02*
X142999626Y-77389589D01*
X143475817Y-77627684D02*
X142475817Y-77627684D01*
X142475817Y-77627684D02*
X142475817Y-77246732D01*
X142475817Y-77246732D02*
X142523436Y-77151494D01*
X142523436Y-77151494D02*
X142571055Y-77103875D01*
X142571055Y-77103875D02*
X142666293Y-77056256D01*
X142666293Y-77056256D02*
X142809150Y-77056256D01*
X142809150Y-77056256D02*
X142904388Y-77103875D01*
X142904388Y-77103875D02*
X142952007Y-77151494D01*
X142952007Y-77151494D02*
X142999626Y-77246732D01*
X142999626Y-77246732D02*
X142999626Y-77627684D01*
X142571055Y-76675303D02*
X142523436Y-76627684D01*
X142523436Y-76627684D02*
X142475817Y-76532446D01*
X142475817Y-76532446D02*
X142475817Y-76294351D01*
X142475817Y-76294351D02*
X142523436Y-76199113D01*
X142523436Y-76199113D02*
X142571055Y-76151494D01*
X142571055Y-76151494D02*
X142666293Y-76103875D01*
X142666293Y-76103875D02*
X142761531Y-76103875D01*
X142761531Y-76103875D02*
X142904388Y-76151494D01*
X142904388Y-76151494D02*
X143475817Y-76722922D01*
X143475817Y-76722922D02*
X143475817Y-76103875D01*
X142475817Y-75770541D02*
X142475817Y-75151494D01*
X142475817Y-75151494D02*
X142856769Y-75484827D01*
X142856769Y-75484827D02*
X142856769Y-75341970D01*
X142856769Y-75341970D02*
X142904388Y-75246732D01*
X142904388Y-75246732D02*
X142952007Y-75199113D01*
X142952007Y-75199113D02*
X143047245Y-75151494D01*
X143047245Y-75151494D02*
X143285340Y-75151494D01*
X143285340Y-75151494D02*
X143380578Y-75199113D01*
X143380578Y-75199113D02*
X143428198Y-75246732D01*
X143428198Y-75246732D02*
X143475817Y-75341970D01*
X143475817Y-75341970D02*
X143475817Y-75627684D01*
X143475817Y-75627684D02*
X143428198Y-75722922D01*
X143428198Y-75722922D02*
X143380578Y-75770541D01*
X143799405Y-61384819D02*
X143799405Y-60384819D01*
X143799405Y-60384819D02*
X144037500Y-60384819D01*
X144037500Y-60384819D02*
X144180357Y-60432438D01*
X144180357Y-60432438D02*
X144275595Y-60527676D01*
X144275595Y-60527676D02*
X144323214Y-60622914D01*
X144323214Y-60622914D02*
X144370833Y-60813390D01*
X144370833Y-60813390D02*
X144370833Y-60956247D01*
X144370833Y-60956247D02*
X144323214Y-61146723D01*
X144323214Y-61146723D02*
X144275595Y-61241961D01*
X144275595Y-61241961D02*
X144180357Y-61337200D01*
X144180357Y-61337200D02*
X144037500Y-61384819D01*
X144037500Y-61384819D02*
X143799405Y-61384819D01*
X145323214Y-61384819D02*
X144751786Y-61384819D01*
X145037500Y-61384819D02*
X145037500Y-60384819D01*
X145037500Y-60384819D02*
X144942262Y-60527676D01*
X144942262Y-60527676D02*
X144847024Y-60622914D01*
X144847024Y-60622914D02*
X144751786Y-60670533D01*
X165928571Y-67231009D02*
X165595238Y-67231009D01*
X165595238Y-67754819D02*
X165595238Y-66754819D01*
X165595238Y-66754819D02*
X166071428Y-66754819D01*
X166452381Y-67754819D02*
X166452381Y-66754819D01*
X166928571Y-67754819D02*
X166928571Y-66754819D01*
X166928571Y-66754819D02*
X167166666Y-66754819D01*
X167166666Y-66754819D02*
X167309523Y-66802438D01*
X167309523Y-66802438D02*
X167404761Y-66897676D01*
X167404761Y-66897676D02*
X167452380Y-66992914D01*
X167452380Y-66992914D02*
X167499999Y-67183390D01*
X167499999Y-67183390D02*
X167499999Y-67326247D01*
X167499999Y-67326247D02*
X167452380Y-67516723D01*
X167452380Y-67516723D02*
X167404761Y-67611961D01*
X167404761Y-67611961D02*
X167309523Y-67707200D01*
X167309523Y-67707200D02*
X167166666Y-67754819D01*
X167166666Y-67754819D02*
X166928571Y-67754819D01*
X167833333Y-66754819D02*
X168452380Y-66754819D01*
X168452380Y-66754819D02*
X168119047Y-67135771D01*
X168119047Y-67135771D02*
X168261904Y-67135771D01*
X168261904Y-67135771D02*
X168357142Y-67183390D01*
X168357142Y-67183390D02*
X168404761Y-67231009D01*
X168404761Y-67231009D02*
X168452380Y-67326247D01*
X168452380Y-67326247D02*
X168452380Y-67564342D01*
X168452380Y-67564342D02*
X168404761Y-67659580D01*
X168404761Y-67659580D02*
X168357142Y-67707200D01*
X168357142Y-67707200D02*
X168261904Y-67754819D01*
X168261904Y-67754819D02*
X167976190Y-67754819D01*
X167976190Y-67754819D02*
X167880952Y-67707200D01*
X167880952Y-67707200D02*
X167833333Y-67659580D01*
X161488095Y-97504820D02*
X161488095Y-98314343D01*
X161488095Y-98314343D02*
X161535714Y-98409581D01*
X161535714Y-98409581D02*
X161583333Y-98457201D01*
X161583333Y-98457201D02*
X161678571Y-98504820D01*
X161678571Y-98504820D02*
X161869047Y-98504820D01*
X161869047Y-98504820D02*
X161964285Y-98457201D01*
X161964285Y-98457201D02*
X162011904Y-98409581D01*
X162011904Y-98409581D02*
X162059523Y-98314343D01*
X162059523Y-98314343D02*
X162059523Y-97504820D01*
X162488095Y-97600058D02*
X162535714Y-97552439D01*
X162535714Y-97552439D02*
X162630952Y-97504820D01*
X162630952Y-97504820D02*
X162869047Y-97504820D01*
X162869047Y-97504820D02*
X162964285Y-97552439D01*
X162964285Y-97552439D02*
X163011904Y-97600058D01*
X163011904Y-97600058D02*
X163059523Y-97695296D01*
X163059523Y-97695296D02*
X163059523Y-97790534D01*
X163059523Y-97790534D02*
X163011904Y-97933391D01*
X163011904Y-97933391D02*
X162440476Y-98504820D01*
X162440476Y-98504820D02*
X163059523Y-98504820D01*
X157849450Y-99136020D02*
X157849450Y-99374115D01*
X157611355Y-99278877D02*
X157849450Y-99374115D01*
X157849450Y-99374115D02*
X158087545Y-99278877D01*
X157706593Y-99564591D02*
X157849450Y-99374115D01*
X157849450Y-99374115D02*
X157992307Y-99564591D01*
X157849450Y-99136020D02*
X157849450Y-99374115D01*
X157611355Y-99278877D02*
X157849450Y-99374115D01*
X157849450Y-99374115D02*
X158087545Y-99278877D01*
X157706593Y-99564591D02*
X157849450Y-99374115D01*
X157849450Y-99374115D02*
X157992307Y-99564591D01*
X171038095Y-91304819D02*
X171038095Y-90304819D01*
X171038095Y-90781009D02*
X171609523Y-90781009D01*
X171609523Y-91304819D02*
X171609523Y-90304819D01*
X172038095Y-90400057D02*
X172085714Y-90352438D01*
X172085714Y-90352438D02*
X172180952Y-90304819D01*
X172180952Y-90304819D02*
X172419047Y-90304819D01*
X172419047Y-90304819D02*
X172514285Y-90352438D01*
X172514285Y-90352438D02*
X172561904Y-90400057D01*
X172561904Y-90400057D02*
X172609523Y-90495295D01*
X172609523Y-90495295D02*
X172609523Y-90590533D01*
X172609523Y-90590533D02*
X172561904Y-90733390D01*
X172561904Y-90733390D02*
X171990476Y-91304819D01*
X171990476Y-91304819D02*
X172609523Y-91304819D01*
X148973140Y-79072979D02*
X148925521Y-79120599D01*
X148925521Y-79120599D02*
X148782664Y-79168218D01*
X148782664Y-79168218D02*
X148687426Y-79168218D01*
X148687426Y-79168218D02*
X148544569Y-79120599D01*
X148544569Y-79120599D02*
X148449331Y-79025360D01*
X148449331Y-79025360D02*
X148401712Y-78930122D01*
X148401712Y-78930122D02*
X148354093Y-78739646D01*
X148354093Y-78739646D02*
X148354093Y-78596789D01*
X148354093Y-78596789D02*
X148401712Y-78406313D01*
X148401712Y-78406313D02*
X148449331Y-78311075D01*
X148449331Y-78311075D02*
X148544569Y-78215837D01*
X148544569Y-78215837D02*
X148687426Y-78168218D01*
X148687426Y-78168218D02*
X148782664Y-78168218D01*
X148782664Y-78168218D02*
X148925521Y-78215837D01*
X148925521Y-78215837D02*
X148973140Y-78263456D01*
X149306474Y-78168218D02*
X149925521Y-78168218D01*
X149925521Y-78168218D02*
X149592188Y-78549170D01*
X149592188Y-78549170D02*
X149735045Y-78549170D01*
X149735045Y-78549170D02*
X149830283Y-78596789D01*
X149830283Y-78596789D02*
X149877902Y-78644408D01*
X149877902Y-78644408D02*
X149925521Y-78739646D01*
X149925521Y-78739646D02*
X149925521Y-78977741D01*
X149925521Y-78977741D02*
X149877902Y-79072979D01*
X149877902Y-79072979D02*
X149830283Y-79120599D01*
X149830283Y-79120599D02*
X149735045Y-79168218D01*
X149735045Y-79168218D02*
X149449331Y-79168218D01*
X149449331Y-79168218D02*
X149354093Y-79120599D01*
X149354093Y-79120599D02*
X149306474Y-79072979D01*
X150877902Y-79168218D02*
X150306474Y-79168218D01*
X150592188Y-79168218D02*
X150592188Y-78168218D01*
X150592188Y-78168218D02*
X150496950Y-78311075D01*
X150496950Y-78311075D02*
X150401712Y-78406313D01*
X150401712Y-78406313D02*
X150306474Y-78453932D01*
X167858140Y-76727979D02*
X167810521Y-76775599D01*
X167810521Y-76775599D02*
X167667664Y-76823218D01*
X167667664Y-76823218D02*
X167572426Y-76823218D01*
X167572426Y-76823218D02*
X167429569Y-76775599D01*
X167429569Y-76775599D02*
X167334331Y-76680360D01*
X167334331Y-76680360D02*
X167286712Y-76585122D01*
X167286712Y-76585122D02*
X167239093Y-76394646D01*
X167239093Y-76394646D02*
X167239093Y-76251789D01*
X167239093Y-76251789D02*
X167286712Y-76061313D01*
X167286712Y-76061313D02*
X167334331Y-75966075D01*
X167334331Y-75966075D02*
X167429569Y-75870837D01*
X167429569Y-75870837D02*
X167572426Y-75823218D01*
X167572426Y-75823218D02*
X167667664Y-75823218D01*
X167667664Y-75823218D02*
X167810521Y-75870837D01*
X167810521Y-75870837D02*
X167858140Y-75918456D01*
X168191474Y-75823218D02*
X168810521Y-75823218D01*
X168810521Y-75823218D02*
X168477188Y-76204170D01*
X168477188Y-76204170D02*
X168620045Y-76204170D01*
X168620045Y-76204170D02*
X168715283Y-76251789D01*
X168715283Y-76251789D02*
X168762902Y-76299408D01*
X168762902Y-76299408D02*
X168810521Y-76394646D01*
X168810521Y-76394646D02*
X168810521Y-76632741D01*
X168810521Y-76632741D02*
X168762902Y-76727979D01*
X168762902Y-76727979D02*
X168715283Y-76775599D01*
X168715283Y-76775599D02*
X168620045Y-76823218D01*
X168620045Y-76823218D02*
X168334331Y-76823218D01*
X168334331Y-76823218D02*
X168239093Y-76775599D01*
X168239093Y-76775599D02*
X168191474Y-76727979D01*
X169667664Y-75823218D02*
X169477188Y-75823218D01*
X169477188Y-75823218D02*
X169381950Y-75870837D01*
X169381950Y-75870837D02*
X169334331Y-75918456D01*
X169334331Y-75918456D02*
X169239093Y-76061313D01*
X169239093Y-76061313D02*
X169191474Y-76251789D01*
X169191474Y-76251789D02*
X169191474Y-76632741D01*
X169191474Y-76632741D02*
X169239093Y-76727979D01*
X169239093Y-76727979D02*
X169286712Y-76775599D01*
X169286712Y-76775599D02*
X169381950Y-76823218D01*
X169381950Y-76823218D02*
X169572426Y-76823218D01*
X169572426Y-76823218D02*
X169667664Y-76775599D01*
X169667664Y-76775599D02*
X169715283Y-76727979D01*
X169715283Y-76727979D02*
X169762902Y-76632741D01*
X169762902Y-76632741D02*
X169762902Y-76394646D01*
X169762902Y-76394646D02*
X169715283Y-76299408D01*
X169715283Y-76299408D02*
X169667664Y-76251789D01*
X169667664Y-76251789D02*
X169572426Y-76204170D01*
X169572426Y-76204170D02*
X169381950Y-76204170D01*
X169381950Y-76204170D02*
X169286712Y-76251789D01*
X169286712Y-76251789D02*
X169239093Y-76299408D01*
X169239093Y-76299408D02*
X169191474Y-76394646D01*
X105888095Y-140506819D02*
X106459523Y-140506819D01*
X106173809Y-141506819D02*
X106173809Y-140506819D01*
X106792857Y-141506819D02*
X106792857Y-140506819D01*
X106792857Y-140506819D02*
X107173809Y-140506819D01*
X107173809Y-140506819D02*
X107269047Y-140554438D01*
X107269047Y-140554438D02*
X107316666Y-140602057D01*
X107316666Y-140602057D02*
X107364285Y-140697295D01*
X107364285Y-140697295D02*
X107364285Y-140840152D01*
X107364285Y-140840152D02*
X107316666Y-140935390D01*
X107316666Y-140935390D02*
X107269047Y-140983009D01*
X107269047Y-140983009D02*
X107173809Y-141030628D01*
X107173809Y-141030628D02*
X106792857Y-141030628D01*
X107697619Y-140506819D02*
X108364285Y-140506819D01*
X108364285Y-140506819D02*
X107935714Y-141506819D01*
X101838095Y-144556819D02*
X102409523Y-144556819D01*
X102123809Y-145556819D02*
X102123809Y-144556819D01*
X102742857Y-145556819D02*
X102742857Y-144556819D01*
X102742857Y-144556819D02*
X103123809Y-144556819D01*
X103123809Y-144556819D02*
X103219047Y-144604438D01*
X103219047Y-144604438D02*
X103266666Y-144652057D01*
X103266666Y-144652057D02*
X103314285Y-144747295D01*
X103314285Y-144747295D02*
X103314285Y-144890152D01*
X103314285Y-144890152D02*
X103266666Y-144985390D01*
X103266666Y-144985390D02*
X103219047Y-145033009D01*
X103219047Y-145033009D02*
X103123809Y-145080628D01*
X103123809Y-145080628D02*
X102742857Y-145080628D01*
X104171428Y-144556819D02*
X103980952Y-144556819D01*
X103980952Y-144556819D02*
X103885714Y-144604438D01*
X103885714Y-144604438D02*
X103838095Y-144652057D01*
X103838095Y-144652057D02*
X103742857Y-144794914D01*
X103742857Y-144794914D02*
X103695238Y-144985390D01*
X103695238Y-144985390D02*
X103695238Y-145366342D01*
X103695238Y-145366342D02*
X103742857Y-145461580D01*
X103742857Y-145461580D02*
X103790476Y-145509200D01*
X103790476Y-145509200D02*
X103885714Y-145556819D01*
X103885714Y-145556819D02*
X104076190Y-145556819D01*
X104076190Y-145556819D02*
X104171428Y-145509200D01*
X104171428Y-145509200D02*
X104219047Y-145461580D01*
X104219047Y-145461580D02*
X104266666Y-145366342D01*
X104266666Y-145366342D02*
X104266666Y-145128247D01*
X104266666Y-145128247D02*
X104219047Y-145033009D01*
X104219047Y-145033009D02*
X104171428Y-144985390D01*
X104171428Y-144985390D02*
X104076190Y-144937771D01*
X104076190Y-144937771D02*
X103885714Y-144937771D01*
X103885714Y-144937771D02*
X103790476Y-144985390D01*
X103790476Y-144985390D02*
X103742857Y-145033009D01*
X103742857Y-145033009D02*
X103695238Y-145128247D01*
X165775817Y-77056256D02*
X165299626Y-77389589D01*
X165775817Y-77627684D02*
X164775817Y-77627684D01*
X164775817Y-77627684D02*
X164775817Y-77246732D01*
X164775817Y-77246732D02*
X164823436Y-77151494D01*
X164823436Y-77151494D02*
X164871055Y-77103875D01*
X164871055Y-77103875D02*
X164966293Y-77056256D01*
X164966293Y-77056256D02*
X165109150Y-77056256D01*
X165109150Y-77056256D02*
X165204388Y-77103875D01*
X165204388Y-77103875D02*
X165252007Y-77151494D01*
X165252007Y-77151494D02*
X165299626Y-77246732D01*
X165299626Y-77246732D02*
X165299626Y-77627684D01*
X164775817Y-76722922D02*
X164775817Y-76103875D01*
X164775817Y-76103875D02*
X165156769Y-76437208D01*
X165156769Y-76437208D02*
X165156769Y-76294351D01*
X165156769Y-76294351D02*
X165204388Y-76199113D01*
X165204388Y-76199113D02*
X165252007Y-76151494D01*
X165252007Y-76151494D02*
X165347245Y-76103875D01*
X165347245Y-76103875D02*
X165585340Y-76103875D01*
X165585340Y-76103875D02*
X165680578Y-76151494D01*
X165680578Y-76151494D02*
X165728198Y-76199113D01*
X165728198Y-76199113D02*
X165775817Y-76294351D01*
X165775817Y-76294351D02*
X165775817Y-76580065D01*
X165775817Y-76580065D02*
X165728198Y-76675303D01*
X165728198Y-76675303D02*
X165680578Y-76722922D01*
X164775817Y-75484827D02*
X164775817Y-75389589D01*
X164775817Y-75389589D02*
X164823436Y-75294351D01*
X164823436Y-75294351D02*
X164871055Y-75246732D01*
X164871055Y-75246732D02*
X164966293Y-75199113D01*
X164966293Y-75199113D02*
X165156769Y-75151494D01*
X165156769Y-75151494D02*
X165394864Y-75151494D01*
X165394864Y-75151494D02*
X165585340Y-75199113D01*
X165585340Y-75199113D02*
X165680578Y-75246732D01*
X165680578Y-75246732D02*
X165728198Y-75294351D01*
X165728198Y-75294351D02*
X165775817Y-75389589D01*
X165775817Y-75389589D02*
X165775817Y-75484827D01*
X165775817Y-75484827D02*
X165728198Y-75580065D01*
X165728198Y-75580065D02*
X165680578Y-75627684D01*
X165680578Y-75627684D02*
X165585340Y-75675303D01*
X165585340Y-75675303D02*
X165394864Y-75722922D01*
X165394864Y-75722922D02*
X165156769Y-75722922D01*
X165156769Y-75722922D02*
X164966293Y-75675303D01*
X164966293Y-75675303D02*
X164871055Y-75627684D01*
X164871055Y-75627684D02*
X164823436Y-75580065D01*
X164823436Y-75580065D02*
X164775817Y-75484827D01*
X161488095Y-79423320D02*
X161488095Y-80232843D01*
X161488095Y-80232843D02*
X161535714Y-80328081D01*
X161535714Y-80328081D02*
X161583333Y-80375701D01*
X161583333Y-80375701D02*
X161678571Y-80423320D01*
X161678571Y-80423320D02*
X161869047Y-80423320D01*
X161869047Y-80423320D02*
X161964285Y-80375701D01*
X161964285Y-80375701D02*
X162011904Y-80328081D01*
X162011904Y-80328081D02*
X162059523Y-80232843D01*
X162059523Y-80232843D02*
X162059523Y-79423320D01*
X162440476Y-79423320D02*
X163059523Y-79423320D01*
X163059523Y-79423320D02*
X162726190Y-79804272D01*
X162726190Y-79804272D02*
X162869047Y-79804272D01*
X162869047Y-79804272D02*
X162964285Y-79851891D01*
X162964285Y-79851891D02*
X163011904Y-79899510D01*
X163011904Y-79899510D02*
X163059523Y-79994748D01*
X163059523Y-79994748D02*
X163059523Y-80232843D01*
X163059523Y-80232843D02*
X163011904Y-80328081D01*
X163011904Y-80328081D02*
X162964285Y-80375701D01*
X162964285Y-80375701D02*
X162869047Y-80423320D01*
X162869047Y-80423320D02*
X162583333Y-80423320D01*
X162583333Y-80423320D02*
X162488095Y-80375701D01*
X162488095Y-80375701D02*
X162440476Y-80328081D01*
X157849450Y-81054520D02*
X157849450Y-81292615D01*
X157611355Y-81197377D02*
X157849450Y-81292615D01*
X157849450Y-81292615D02*
X158087545Y-81197377D01*
X157706593Y-81483091D02*
X157849450Y-81292615D01*
X157849450Y-81292615D02*
X157992307Y-81483091D01*
X157849450Y-81054520D02*
X157849450Y-81292615D01*
X157611355Y-81197377D02*
X157849450Y-81292615D01*
X157849450Y-81292615D02*
X158087545Y-81197377D01*
X157706593Y-81483091D02*
X157849450Y-81292615D01*
X157849450Y-81292615D02*
X157992307Y-81483091D01*
X141782142Y-100429580D02*
X141734523Y-100477200D01*
X141734523Y-100477200D02*
X141591666Y-100524819D01*
X141591666Y-100524819D02*
X141496428Y-100524819D01*
X141496428Y-100524819D02*
X141353571Y-100477200D01*
X141353571Y-100477200D02*
X141258333Y-100381961D01*
X141258333Y-100381961D02*
X141210714Y-100286723D01*
X141210714Y-100286723D02*
X141163095Y-100096247D01*
X141163095Y-100096247D02*
X141163095Y-99953390D01*
X141163095Y-99953390D02*
X141210714Y-99762914D01*
X141210714Y-99762914D02*
X141258333Y-99667676D01*
X141258333Y-99667676D02*
X141353571Y-99572438D01*
X141353571Y-99572438D02*
X141496428Y-99524819D01*
X141496428Y-99524819D02*
X141591666Y-99524819D01*
X141591666Y-99524819D02*
X141734523Y-99572438D01*
X141734523Y-99572438D02*
X141782142Y-99620057D01*
X142734523Y-100524819D02*
X142163095Y-100524819D01*
X142448809Y-100524819D02*
X142448809Y-99524819D01*
X142448809Y-99524819D02*
X142353571Y-99667676D01*
X142353571Y-99667676D02*
X142258333Y-99762914D01*
X142258333Y-99762914D02*
X142163095Y-99810533D01*
X143686904Y-100524819D02*
X143115476Y-100524819D01*
X143401190Y-100524819D02*
X143401190Y-99524819D01*
X143401190Y-99524819D02*
X143305952Y-99667676D01*
X143305952Y-99667676D02*
X143210714Y-99762914D01*
X143210714Y-99762914D02*
X143115476Y-99810533D01*
X101838095Y-140506819D02*
X102409523Y-140506819D01*
X102123809Y-141506819D02*
X102123809Y-140506819D01*
X102742857Y-141506819D02*
X102742857Y-140506819D01*
X102742857Y-140506819D02*
X103123809Y-140506819D01*
X103123809Y-140506819D02*
X103219047Y-140554438D01*
X103219047Y-140554438D02*
X103266666Y-140602057D01*
X103266666Y-140602057D02*
X103314285Y-140697295D01*
X103314285Y-140697295D02*
X103314285Y-140840152D01*
X103314285Y-140840152D02*
X103266666Y-140935390D01*
X103266666Y-140935390D02*
X103219047Y-140983009D01*
X103219047Y-140983009D02*
X103123809Y-141030628D01*
X103123809Y-141030628D02*
X102742857Y-141030628D01*
X104219047Y-140506819D02*
X103742857Y-140506819D01*
X103742857Y-140506819D02*
X103695238Y-140983009D01*
X103695238Y-140983009D02*
X103742857Y-140935390D01*
X103742857Y-140935390D02*
X103838095Y-140887771D01*
X103838095Y-140887771D02*
X104076190Y-140887771D01*
X104076190Y-140887771D02*
X104171428Y-140935390D01*
X104171428Y-140935390D02*
X104219047Y-140983009D01*
X104219047Y-140983009D02*
X104266666Y-141078247D01*
X104266666Y-141078247D02*
X104266666Y-141316342D01*
X104266666Y-141316342D02*
X104219047Y-141411580D01*
X104219047Y-141411580D02*
X104171428Y-141459200D01*
X104171428Y-141459200D02*
X104076190Y-141506819D01*
X104076190Y-141506819D02*
X103838095Y-141506819D01*
X103838095Y-141506819D02*
X103742857Y-141459200D01*
X103742857Y-141459200D02*
X103695238Y-141411580D01*
X123119642Y-107024819D02*
X122786309Y-106548628D01*
X122548214Y-107024819D02*
X122548214Y-106024819D01*
X122548214Y-106024819D02*
X122929166Y-106024819D01*
X122929166Y-106024819D02*
X123024404Y-106072438D01*
X123024404Y-106072438D02*
X123072023Y-106120057D01*
X123072023Y-106120057D02*
X123119642Y-106215295D01*
X123119642Y-106215295D02*
X123119642Y-106358152D01*
X123119642Y-106358152D02*
X123072023Y-106453390D01*
X123072023Y-106453390D02*
X123024404Y-106501009D01*
X123024404Y-106501009D02*
X122929166Y-106548628D01*
X122929166Y-106548628D02*
X122548214Y-106548628D01*
X124072023Y-107024819D02*
X123500595Y-107024819D01*
X123786309Y-107024819D02*
X123786309Y-106024819D01*
X123786309Y-106024819D02*
X123691071Y-106167676D01*
X123691071Y-106167676D02*
X123595833Y-106262914D01*
X123595833Y-106262914D02*
X123500595Y-106310533D01*
X124643452Y-106453390D02*
X124548214Y-106405771D01*
X124548214Y-106405771D02*
X124500595Y-106358152D01*
X124500595Y-106358152D02*
X124452976Y-106262914D01*
X124452976Y-106262914D02*
X124452976Y-106215295D01*
X124452976Y-106215295D02*
X124500595Y-106120057D01*
X124500595Y-106120057D02*
X124548214Y-106072438D01*
X124548214Y-106072438D02*
X124643452Y-106024819D01*
X124643452Y-106024819D02*
X124833928Y-106024819D01*
X124833928Y-106024819D02*
X124929166Y-106072438D01*
X124929166Y-106072438D02*
X124976785Y-106120057D01*
X124976785Y-106120057D02*
X125024404Y-106215295D01*
X125024404Y-106215295D02*
X125024404Y-106262914D01*
X125024404Y-106262914D02*
X124976785Y-106358152D01*
X124976785Y-106358152D02*
X124929166Y-106405771D01*
X124929166Y-106405771D02*
X124833928Y-106453390D01*
X124833928Y-106453390D02*
X124643452Y-106453390D01*
X124643452Y-106453390D02*
X124548214Y-106501009D01*
X124548214Y-106501009D02*
X124500595Y-106548628D01*
X124500595Y-106548628D02*
X124452976Y-106643866D01*
X124452976Y-106643866D02*
X124452976Y-106834342D01*
X124452976Y-106834342D02*
X124500595Y-106929580D01*
X124500595Y-106929580D02*
X124548214Y-106977200D01*
X124548214Y-106977200D02*
X124643452Y-107024819D01*
X124643452Y-107024819D02*
X124833928Y-107024819D01*
X124833928Y-107024819D02*
X124929166Y-106977200D01*
X124929166Y-106977200D02*
X124976785Y-106929580D01*
X124976785Y-106929580D02*
X125024404Y-106834342D01*
X125024404Y-106834342D02*
X125024404Y-106643866D01*
X125024404Y-106643866D02*
X124976785Y-106548628D01*
X124976785Y-106548628D02*
X124929166Y-106501009D01*
X124929166Y-106501009D02*
X124833928Y-106453390D01*
X143289580Y-68392857D02*
X143337200Y-68440476D01*
X143337200Y-68440476D02*
X143384819Y-68583333D01*
X143384819Y-68583333D02*
X143384819Y-68678571D01*
X143384819Y-68678571D02*
X143337200Y-68821428D01*
X143337200Y-68821428D02*
X143241961Y-68916666D01*
X143241961Y-68916666D02*
X143146723Y-68964285D01*
X143146723Y-68964285D02*
X142956247Y-69011904D01*
X142956247Y-69011904D02*
X142813390Y-69011904D01*
X142813390Y-69011904D02*
X142622914Y-68964285D01*
X142622914Y-68964285D02*
X142527676Y-68916666D01*
X142527676Y-68916666D02*
X142432438Y-68821428D01*
X142432438Y-68821428D02*
X142384819Y-68678571D01*
X142384819Y-68678571D02*
X142384819Y-68583333D01*
X142384819Y-68583333D02*
X142432438Y-68440476D01*
X142432438Y-68440476D02*
X142480057Y-68392857D01*
X142480057Y-68011904D02*
X142432438Y-67964285D01*
X142432438Y-67964285D02*
X142384819Y-67869047D01*
X142384819Y-67869047D02*
X142384819Y-67630952D01*
X142384819Y-67630952D02*
X142432438Y-67535714D01*
X142432438Y-67535714D02*
X142480057Y-67488095D01*
X142480057Y-67488095D02*
X142575295Y-67440476D01*
X142575295Y-67440476D02*
X142670533Y-67440476D01*
X142670533Y-67440476D02*
X142813390Y-67488095D01*
X142813390Y-67488095D02*
X143384819Y-68059523D01*
X143384819Y-68059523D02*
X143384819Y-67440476D01*
X142813390Y-66869047D02*
X142765771Y-66964285D01*
X142765771Y-66964285D02*
X142718152Y-67011904D01*
X142718152Y-67011904D02*
X142622914Y-67059523D01*
X142622914Y-67059523D02*
X142575295Y-67059523D01*
X142575295Y-67059523D02*
X142480057Y-67011904D01*
X142480057Y-67011904D02*
X142432438Y-66964285D01*
X142432438Y-66964285D02*
X142384819Y-66869047D01*
X142384819Y-66869047D02*
X142384819Y-66678571D01*
X142384819Y-66678571D02*
X142432438Y-66583333D01*
X142432438Y-66583333D02*
X142480057Y-66535714D01*
X142480057Y-66535714D02*
X142575295Y-66488095D01*
X142575295Y-66488095D02*
X142622914Y-66488095D01*
X142622914Y-66488095D02*
X142718152Y-66535714D01*
X142718152Y-66535714D02*
X142765771Y-66583333D01*
X142765771Y-66583333D02*
X142813390Y-66678571D01*
X142813390Y-66678571D02*
X142813390Y-66869047D01*
X142813390Y-66869047D02*
X142861009Y-66964285D01*
X142861009Y-66964285D02*
X142908628Y-67011904D01*
X142908628Y-67011904D02*
X143003866Y-67059523D01*
X143003866Y-67059523D02*
X143194342Y-67059523D01*
X143194342Y-67059523D02*
X143289580Y-67011904D01*
X143289580Y-67011904D02*
X143337200Y-66964285D01*
X143337200Y-66964285D02*
X143384819Y-66869047D01*
X143384819Y-66869047D02*
X143384819Y-66678571D01*
X143384819Y-66678571D02*
X143337200Y-66583333D01*
X143337200Y-66583333D02*
X143289580Y-66535714D01*
X143289580Y-66535714D02*
X143194342Y-66488095D01*
X143194342Y-66488095D02*
X143003866Y-66488095D01*
X143003866Y-66488095D02*
X142908628Y-66535714D01*
X142908628Y-66535714D02*
X142861009Y-66583333D01*
X142861009Y-66583333D02*
X142813390Y-66678571D01*
X134508333Y-98929580D02*
X134460714Y-98977200D01*
X134460714Y-98977200D02*
X134317857Y-99024819D01*
X134317857Y-99024819D02*
X134222619Y-99024819D01*
X134222619Y-99024819D02*
X134079762Y-98977200D01*
X134079762Y-98977200D02*
X133984524Y-98881961D01*
X133984524Y-98881961D02*
X133936905Y-98786723D01*
X133936905Y-98786723D02*
X133889286Y-98596247D01*
X133889286Y-98596247D02*
X133889286Y-98453390D01*
X133889286Y-98453390D02*
X133936905Y-98262914D01*
X133936905Y-98262914D02*
X133984524Y-98167676D01*
X133984524Y-98167676D02*
X134079762Y-98072438D01*
X134079762Y-98072438D02*
X134222619Y-98024819D01*
X134222619Y-98024819D02*
X134317857Y-98024819D01*
X134317857Y-98024819D02*
X134460714Y-98072438D01*
X134460714Y-98072438D02*
X134508333Y-98120057D01*
X135365476Y-98024819D02*
X135175000Y-98024819D01*
X135175000Y-98024819D02*
X135079762Y-98072438D01*
X135079762Y-98072438D02*
X135032143Y-98120057D01*
X135032143Y-98120057D02*
X134936905Y-98262914D01*
X134936905Y-98262914D02*
X134889286Y-98453390D01*
X134889286Y-98453390D02*
X134889286Y-98834342D01*
X134889286Y-98834342D02*
X134936905Y-98929580D01*
X134936905Y-98929580D02*
X134984524Y-98977200D01*
X134984524Y-98977200D02*
X135079762Y-99024819D01*
X135079762Y-99024819D02*
X135270238Y-99024819D01*
X135270238Y-99024819D02*
X135365476Y-98977200D01*
X135365476Y-98977200D02*
X135413095Y-98929580D01*
X135413095Y-98929580D02*
X135460714Y-98834342D01*
X135460714Y-98834342D02*
X135460714Y-98596247D01*
X135460714Y-98596247D02*
X135413095Y-98501009D01*
X135413095Y-98501009D02*
X135365476Y-98453390D01*
X135365476Y-98453390D02*
X135270238Y-98405771D01*
X135270238Y-98405771D02*
X135079762Y-98405771D01*
X135079762Y-98405771D02*
X134984524Y-98453390D01*
X134984524Y-98453390D02*
X134936905Y-98501009D01*
X134936905Y-98501009D02*
X134889286Y-98596247D01*
X133984819Y-68892857D02*
X133508628Y-69226190D01*
X133984819Y-69464285D02*
X132984819Y-69464285D01*
X132984819Y-69464285D02*
X132984819Y-69083333D01*
X132984819Y-69083333D02*
X133032438Y-68988095D01*
X133032438Y-68988095D02*
X133080057Y-68940476D01*
X133080057Y-68940476D02*
X133175295Y-68892857D01*
X133175295Y-68892857D02*
X133318152Y-68892857D01*
X133318152Y-68892857D02*
X133413390Y-68940476D01*
X133413390Y-68940476D02*
X133461009Y-68988095D01*
X133461009Y-68988095D02*
X133508628Y-69083333D01*
X133508628Y-69083333D02*
X133508628Y-69464285D01*
X133080057Y-68511904D02*
X133032438Y-68464285D01*
X133032438Y-68464285D02*
X132984819Y-68369047D01*
X132984819Y-68369047D02*
X132984819Y-68130952D01*
X132984819Y-68130952D02*
X133032438Y-68035714D01*
X133032438Y-68035714D02*
X133080057Y-67988095D01*
X133080057Y-67988095D02*
X133175295Y-67940476D01*
X133175295Y-67940476D02*
X133270533Y-67940476D01*
X133270533Y-67940476D02*
X133413390Y-67988095D01*
X133413390Y-67988095D02*
X133984819Y-68559523D01*
X133984819Y-68559523D02*
X133984819Y-67940476D01*
X133984819Y-66988095D02*
X133984819Y-67559523D01*
X133984819Y-67273809D02*
X132984819Y-67273809D01*
X132984819Y-67273809D02*
X133127676Y-67369047D01*
X133127676Y-67369047D02*
X133222914Y-67464285D01*
X133222914Y-67464285D02*
X133270533Y-67559523D01*
X144800820Y-76741256D02*
X144324629Y-77074589D01*
X144800820Y-77312684D02*
X143800820Y-77312684D01*
X143800820Y-77312684D02*
X143800820Y-76931732D01*
X143800820Y-76931732D02*
X143848439Y-76836494D01*
X143848439Y-76836494D02*
X143896058Y-76788875D01*
X143896058Y-76788875D02*
X143991296Y-76741256D01*
X143991296Y-76741256D02*
X144134153Y-76741256D01*
X144134153Y-76741256D02*
X144229391Y-76788875D01*
X144229391Y-76788875D02*
X144277010Y-76836494D01*
X144277010Y-76836494D02*
X144324629Y-76931732D01*
X144324629Y-76931732D02*
X144324629Y-77312684D01*
X143800820Y-76407922D02*
X143800820Y-75788875D01*
X143800820Y-75788875D02*
X144181772Y-76122208D01*
X144181772Y-76122208D02*
X144181772Y-75979351D01*
X144181772Y-75979351D02*
X144229391Y-75884113D01*
X144229391Y-75884113D02*
X144277010Y-75836494D01*
X144277010Y-75836494D02*
X144372248Y-75788875D01*
X144372248Y-75788875D02*
X144610343Y-75788875D01*
X144610343Y-75788875D02*
X144705581Y-75836494D01*
X144705581Y-75836494D02*
X144753201Y-75884113D01*
X144753201Y-75884113D02*
X144800820Y-75979351D01*
X144800820Y-75979351D02*
X144800820Y-76265065D01*
X144800820Y-76265065D02*
X144753201Y-76360303D01*
X144753201Y-76360303D02*
X144705581Y-76407922D01*
X144800820Y-74836494D02*
X144800820Y-75407922D01*
X144800820Y-75122208D02*
X143800820Y-75122208D01*
X143800820Y-75122208D02*
X143943677Y-75217446D01*
X143943677Y-75217446D02*
X144038915Y-75312684D01*
X144038915Y-75312684D02*
X144086534Y-75407922D01*
X151720817Y-76741256D02*
X151244626Y-77074589D01*
X151720817Y-77312684D02*
X150720817Y-77312684D01*
X150720817Y-77312684D02*
X150720817Y-76931732D01*
X150720817Y-76931732D02*
X150768436Y-76836494D01*
X150768436Y-76836494D02*
X150816055Y-76788875D01*
X150816055Y-76788875D02*
X150911293Y-76741256D01*
X150911293Y-76741256D02*
X151054150Y-76741256D01*
X151054150Y-76741256D02*
X151149388Y-76788875D01*
X151149388Y-76788875D02*
X151197007Y-76836494D01*
X151197007Y-76836494D02*
X151244626Y-76931732D01*
X151244626Y-76931732D02*
X151244626Y-77312684D01*
X150720817Y-76407922D02*
X150720817Y-75788875D01*
X150720817Y-75788875D02*
X151101769Y-76122208D01*
X151101769Y-76122208D02*
X151101769Y-75979351D01*
X151101769Y-75979351D02*
X151149388Y-75884113D01*
X151149388Y-75884113D02*
X151197007Y-75836494D01*
X151197007Y-75836494D02*
X151292245Y-75788875D01*
X151292245Y-75788875D02*
X151530340Y-75788875D01*
X151530340Y-75788875D02*
X151625578Y-75836494D01*
X151625578Y-75836494D02*
X151673198Y-75884113D01*
X151673198Y-75884113D02*
X151720817Y-75979351D01*
X151720817Y-75979351D02*
X151720817Y-76265065D01*
X151720817Y-76265065D02*
X151673198Y-76360303D01*
X151673198Y-76360303D02*
X151625578Y-76407922D01*
X150720817Y-75455541D02*
X150720817Y-74836494D01*
X150720817Y-74836494D02*
X151101769Y-75169827D01*
X151101769Y-75169827D02*
X151101769Y-75026970D01*
X151101769Y-75026970D02*
X151149388Y-74931732D01*
X151149388Y-74931732D02*
X151197007Y-74884113D01*
X151197007Y-74884113D02*
X151292245Y-74836494D01*
X151292245Y-74836494D02*
X151530340Y-74836494D01*
X151530340Y-74836494D02*
X151625578Y-74884113D01*
X151625578Y-74884113D02*
X151673198Y-74931732D01*
X151673198Y-74931732D02*
X151720817Y-75026970D01*
X151720817Y-75026970D02*
X151720817Y-75312684D01*
X151720817Y-75312684D02*
X151673198Y-75407922D01*
X151673198Y-75407922D02*
X151625578Y-75455541D01*
X123119642Y-88837319D02*
X122786309Y-88361128D01*
X122548214Y-88837319D02*
X122548214Y-87837319D01*
X122548214Y-87837319D02*
X122929166Y-87837319D01*
X122929166Y-87837319D02*
X123024404Y-87884938D01*
X123024404Y-87884938D02*
X123072023Y-87932557D01*
X123072023Y-87932557D02*
X123119642Y-88027795D01*
X123119642Y-88027795D02*
X123119642Y-88170652D01*
X123119642Y-88170652D02*
X123072023Y-88265890D01*
X123072023Y-88265890D02*
X123024404Y-88313509D01*
X123024404Y-88313509D02*
X122929166Y-88361128D01*
X122929166Y-88361128D02*
X122548214Y-88361128D01*
X124072023Y-88837319D02*
X123500595Y-88837319D01*
X123786309Y-88837319D02*
X123786309Y-87837319D01*
X123786309Y-87837319D02*
X123691071Y-87980176D01*
X123691071Y-87980176D02*
X123595833Y-88075414D01*
X123595833Y-88075414D02*
X123500595Y-88123033D01*
X124691071Y-87837319D02*
X124786309Y-87837319D01*
X124786309Y-87837319D02*
X124881547Y-87884938D01*
X124881547Y-87884938D02*
X124929166Y-87932557D01*
X124929166Y-87932557D02*
X124976785Y-88027795D01*
X124976785Y-88027795D02*
X125024404Y-88218271D01*
X125024404Y-88218271D02*
X125024404Y-88456366D01*
X125024404Y-88456366D02*
X124976785Y-88646842D01*
X124976785Y-88646842D02*
X124929166Y-88742080D01*
X124929166Y-88742080D02*
X124881547Y-88789700D01*
X124881547Y-88789700D02*
X124786309Y-88837319D01*
X124786309Y-88837319D02*
X124691071Y-88837319D01*
X124691071Y-88837319D02*
X124595833Y-88789700D01*
X124595833Y-88789700D02*
X124548214Y-88742080D01*
X124548214Y-88742080D02*
X124500595Y-88646842D01*
X124500595Y-88646842D02*
X124452976Y-88456366D01*
X124452976Y-88456366D02*
X124452976Y-88218271D01*
X124452976Y-88218271D02*
X124500595Y-88027795D01*
X124500595Y-88027795D02*
X124548214Y-87932557D01*
X124548214Y-87932557D02*
X124595833Y-87884938D01*
X124595833Y-87884938D02*
X124691071Y-87837319D01*
X149624819Y-86511358D02*
X149148628Y-86844691D01*
X149624819Y-87082786D02*
X148624819Y-87082786D01*
X148624819Y-87082786D02*
X148624819Y-86701834D01*
X148624819Y-86701834D02*
X148672438Y-86606596D01*
X148672438Y-86606596D02*
X148720057Y-86558977D01*
X148720057Y-86558977D02*
X148815295Y-86511358D01*
X148815295Y-86511358D02*
X148958152Y-86511358D01*
X148958152Y-86511358D02*
X149053390Y-86558977D01*
X149053390Y-86558977D02*
X149101009Y-86606596D01*
X149101009Y-86606596D02*
X149148628Y-86701834D01*
X149148628Y-86701834D02*
X149148628Y-87082786D01*
X148958152Y-85654215D02*
X149624819Y-85654215D01*
X148577200Y-85892310D02*
X149291485Y-86130405D01*
X149291485Y-86130405D02*
X149291485Y-85511358D01*
X148624819Y-84939929D02*
X148624819Y-84844691D01*
X148624819Y-84844691D02*
X148672438Y-84749453D01*
X148672438Y-84749453D02*
X148720057Y-84701834D01*
X148720057Y-84701834D02*
X148815295Y-84654215D01*
X148815295Y-84654215D02*
X149005771Y-84606596D01*
X149005771Y-84606596D02*
X149243866Y-84606596D01*
X149243866Y-84606596D02*
X149434342Y-84654215D01*
X149434342Y-84654215D02*
X149529580Y-84701834D01*
X149529580Y-84701834D02*
X149577200Y-84749453D01*
X149577200Y-84749453D02*
X149624819Y-84844691D01*
X149624819Y-84844691D02*
X149624819Y-84939929D01*
X149624819Y-84939929D02*
X149577200Y-85035167D01*
X149577200Y-85035167D02*
X149529580Y-85082786D01*
X149529580Y-85082786D02*
X149434342Y-85130405D01*
X149434342Y-85130405D02*
X149243866Y-85178024D01*
X149243866Y-85178024D02*
X149005771Y-85178024D01*
X149005771Y-85178024D02*
X148815295Y-85130405D01*
X148815295Y-85130405D02*
X148720057Y-85082786D01*
X148720057Y-85082786D02*
X148672438Y-85035167D01*
X148672438Y-85035167D02*
X148624819Y-84939929D01*
X143332142Y-98929580D02*
X143284523Y-98977200D01*
X143284523Y-98977200D02*
X143141666Y-99024819D01*
X143141666Y-99024819D02*
X143046428Y-99024819D01*
X143046428Y-99024819D02*
X142903571Y-98977200D01*
X142903571Y-98977200D02*
X142808333Y-98881961D01*
X142808333Y-98881961D02*
X142760714Y-98786723D01*
X142760714Y-98786723D02*
X142713095Y-98596247D01*
X142713095Y-98596247D02*
X142713095Y-98453390D01*
X142713095Y-98453390D02*
X142760714Y-98262914D01*
X142760714Y-98262914D02*
X142808333Y-98167676D01*
X142808333Y-98167676D02*
X142903571Y-98072438D01*
X142903571Y-98072438D02*
X143046428Y-98024819D01*
X143046428Y-98024819D02*
X143141666Y-98024819D01*
X143141666Y-98024819D02*
X143284523Y-98072438D01*
X143284523Y-98072438D02*
X143332142Y-98120057D01*
X144284523Y-99024819D02*
X143713095Y-99024819D01*
X143998809Y-99024819D02*
X143998809Y-98024819D01*
X143998809Y-98024819D02*
X143903571Y-98167676D01*
X143903571Y-98167676D02*
X143808333Y-98262914D01*
X143808333Y-98262914D02*
X143713095Y-98310533D01*
X144665476Y-98120057D02*
X144713095Y-98072438D01*
X144713095Y-98072438D02*
X144808333Y-98024819D01*
X144808333Y-98024819D02*
X145046428Y-98024819D01*
X145046428Y-98024819D02*
X145141666Y-98072438D01*
X145141666Y-98072438D02*
X145189285Y-98120057D01*
X145189285Y-98120057D02*
X145236904Y-98215295D01*
X145236904Y-98215295D02*
X145236904Y-98310533D01*
X145236904Y-98310533D02*
X145189285Y-98453390D01*
X145189285Y-98453390D02*
X144617857Y-99024819D01*
X144617857Y-99024819D02*
X145236904Y-99024819D01*
X102988095Y-102554819D02*
X102988095Y-101554819D01*
X102988095Y-102031009D02*
X103559523Y-102031009D01*
X103559523Y-102554819D02*
X103559523Y-101554819D01*
X104559523Y-102554819D02*
X103988095Y-102554819D01*
X104273809Y-102554819D02*
X104273809Y-101554819D01*
X104273809Y-101554819D02*
X104178571Y-101697676D01*
X104178571Y-101697676D02*
X104083333Y-101792914D01*
X104083333Y-101792914D02*
X103988095Y-101840533D01*
X132234819Y-83166666D02*
X131758628Y-83499999D01*
X132234819Y-83738094D02*
X131234819Y-83738094D01*
X131234819Y-83738094D02*
X131234819Y-83357142D01*
X131234819Y-83357142D02*
X131282438Y-83261904D01*
X131282438Y-83261904D02*
X131330057Y-83214285D01*
X131330057Y-83214285D02*
X131425295Y-83166666D01*
X131425295Y-83166666D02*
X131568152Y-83166666D01*
X131568152Y-83166666D02*
X131663390Y-83214285D01*
X131663390Y-83214285D02*
X131711009Y-83261904D01*
X131711009Y-83261904D02*
X131758628Y-83357142D01*
X131758628Y-83357142D02*
X131758628Y-83738094D01*
X132234819Y-82214285D02*
X132234819Y-82785713D01*
X132234819Y-82499999D02*
X131234819Y-82499999D01*
X131234819Y-82499999D02*
X131377676Y-82595237D01*
X131377676Y-82595237D02*
X131472914Y-82690475D01*
X131472914Y-82690475D02*
X131520533Y-82785713D01*
X87211905Y-130406819D02*
X87783333Y-130406819D01*
X87497619Y-131406819D02*
X87497619Y-130406819D01*
X88116667Y-131406819D02*
X88116667Y-130406819D01*
X88116667Y-130406819D02*
X88497619Y-130406819D01*
X88497619Y-130406819D02*
X88592857Y-130454438D01*
X88592857Y-130454438D02*
X88640476Y-130502057D01*
X88640476Y-130502057D02*
X88688095Y-130597295D01*
X88688095Y-130597295D02*
X88688095Y-130740152D01*
X88688095Y-130740152D02*
X88640476Y-130835390D01*
X88640476Y-130835390D02*
X88592857Y-130883009D01*
X88592857Y-130883009D02*
X88497619Y-130930628D01*
X88497619Y-130930628D02*
X88116667Y-130930628D01*
X89640476Y-131406819D02*
X89069048Y-131406819D01*
X89354762Y-131406819D02*
X89354762Y-130406819D01*
X89354762Y-130406819D02*
X89259524Y-130549676D01*
X89259524Y-130549676D02*
X89164286Y-130644914D01*
X89164286Y-130644914D02*
X89069048Y-130692533D01*
X90592857Y-131406819D02*
X90021429Y-131406819D01*
X90307143Y-131406819D02*
X90307143Y-130406819D01*
X90307143Y-130406819D02*
X90211905Y-130549676D01*
X90211905Y-130549676D02*
X90116667Y-130644914D01*
X90116667Y-130644914D02*
X90021429Y-130692533D01*
X136058333Y-100429580D02*
X136010714Y-100477200D01*
X136010714Y-100477200D02*
X135867857Y-100524819D01*
X135867857Y-100524819D02*
X135772619Y-100524819D01*
X135772619Y-100524819D02*
X135629762Y-100477200D01*
X135629762Y-100477200D02*
X135534524Y-100381961D01*
X135534524Y-100381961D02*
X135486905Y-100286723D01*
X135486905Y-100286723D02*
X135439286Y-100096247D01*
X135439286Y-100096247D02*
X135439286Y-99953390D01*
X135439286Y-99953390D02*
X135486905Y-99762914D01*
X135486905Y-99762914D02*
X135534524Y-99667676D01*
X135534524Y-99667676D02*
X135629762Y-99572438D01*
X135629762Y-99572438D02*
X135772619Y-99524819D01*
X135772619Y-99524819D02*
X135867857Y-99524819D01*
X135867857Y-99524819D02*
X136010714Y-99572438D01*
X136010714Y-99572438D02*
X136058333Y-99620057D01*
X136391667Y-99524819D02*
X137058333Y-99524819D01*
X137058333Y-99524819D02*
X136629762Y-100524819D01*
X117794642Y-85324819D02*
X117461309Y-84848628D01*
X117223214Y-85324819D02*
X117223214Y-84324819D01*
X117223214Y-84324819D02*
X117604166Y-84324819D01*
X117604166Y-84324819D02*
X117699404Y-84372438D01*
X117699404Y-84372438D02*
X117747023Y-84420057D01*
X117747023Y-84420057D02*
X117794642Y-84515295D01*
X117794642Y-84515295D02*
X117794642Y-84658152D01*
X117794642Y-84658152D02*
X117747023Y-84753390D01*
X117747023Y-84753390D02*
X117699404Y-84801009D01*
X117699404Y-84801009D02*
X117604166Y-84848628D01*
X117604166Y-84848628D02*
X117223214Y-84848628D01*
X118747023Y-85324819D02*
X118175595Y-85324819D01*
X118461309Y-85324819D02*
X118461309Y-84324819D01*
X118461309Y-84324819D02*
X118366071Y-84467676D01*
X118366071Y-84467676D02*
X118270833Y-84562914D01*
X118270833Y-84562914D02*
X118175595Y-84610533D01*
X119699404Y-85324819D02*
X119127976Y-85324819D01*
X119413690Y-85324819D02*
X119413690Y-84324819D01*
X119413690Y-84324819D02*
X119318452Y-84467676D01*
X119318452Y-84467676D02*
X119223214Y-84562914D01*
X119223214Y-84562914D02*
X119127976Y-84610533D01*
X149807142Y-84303319D02*
X149473809Y-83827128D01*
X149235714Y-84303319D02*
X149235714Y-83303319D01*
X149235714Y-83303319D02*
X149616666Y-83303319D01*
X149616666Y-83303319D02*
X149711904Y-83350938D01*
X149711904Y-83350938D02*
X149759523Y-83398557D01*
X149759523Y-83398557D02*
X149807142Y-83493795D01*
X149807142Y-83493795D02*
X149807142Y-83636652D01*
X149807142Y-83636652D02*
X149759523Y-83731890D01*
X149759523Y-83731890D02*
X149711904Y-83779509D01*
X149711904Y-83779509D02*
X149616666Y-83827128D01*
X149616666Y-83827128D02*
X149235714Y-83827128D01*
X150664285Y-83636652D02*
X150664285Y-84303319D01*
X150426190Y-83255700D02*
X150188095Y-83969985D01*
X150188095Y-83969985D02*
X150807142Y-83969985D01*
X151092857Y-83303319D02*
X151711904Y-83303319D01*
X151711904Y-83303319D02*
X151378571Y-83684271D01*
X151378571Y-83684271D02*
X151521428Y-83684271D01*
X151521428Y-83684271D02*
X151616666Y-83731890D01*
X151616666Y-83731890D02*
X151664285Y-83779509D01*
X151664285Y-83779509D02*
X151711904Y-83874747D01*
X151711904Y-83874747D02*
X151711904Y-84112842D01*
X151711904Y-84112842D02*
X151664285Y-84208080D01*
X151664285Y-84208080D02*
X151616666Y-84255700D01*
X151616666Y-84255700D02*
X151521428Y-84303319D01*
X151521428Y-84303319D02*
X151235714Y-84303319D01*
X151235714Y-84303319D02*
X151140476Y-84255700D01*
X151140476Y-84255700D02*
X151092857Y-84208080D01*
X137608333Y-98929580D02*
X137560714Y-98977200D01*
X137560714Y-98977200D02*
X137417857Y-99024819D01*
X137417857Y-99024819D02*
X137322619Y-99024819D01*
X137322619Y-99024819D02*
X137179762Y-98977200D01*
X137179762Y-98977200D02*
X137084524Y-98881961D01*
X137084524Y-98881961D02*
X137036905Y-98786723D01*
X137036905Y-98786723D02*
X136989286Y-98596247D01*
X136989286Y-98596247D02*
X136989286Y-98453390D01*
X136989286Y-98453390D02*
X137036905Y-98262914D01*
X137036905Y-98262914D02*
X137084524Y-98167676D01*
X137084524Y-98167676D02*
X137179762Y-98072438D01*
X137179762Y-98072438D02*
X137322619Y-98024819D01*
X137322619Y-98024819D02*
X137417857Y-98024819D01*
X137417857Y-98024819D02*
X137560714Y-98072438D01*
X137560714Y-98072438D02*
X137608333Y-98120057D01*
X138179762Y-98453390D02*
X138084524Y-98405771D01*
X138084524Y-98405771D02*
X138036905Y-98358152D01*
X138036905Y-98358152D02*
X137989286Y-98262914D01*
X137989286Y-98262914D02*
X137989286Y-98215295D01*
X137989286Y-98215295D02*
X138036905Y-98120057D01*
X138036905Y-98120057D02*
X138084524Y-98072438D01*
X138084524Y-98072438D02*
X138179762Y-98024819D01*
X138179762Y-98024819D02*
X138370238Y-98024819D01*
X138370238Y-98024819D02*
X138465476Y-98072438D01*
X138465476Y-98072438D02*
X138513095Y-98120057D01*
X138513095Y-98120057D02*
X138560714Y-98215295D01*
X138560714Y-98215295D02*
X138560714Y-98262914D01*
X138560714Y-98262914D02*
X138513095Y-98358152D01*
X138513095Y-98358152D02*
X138465476Y-98405771D01*
X138465476Y-98405771D02*
X138370238Y-98453390D01*
X138370238Y-98453390D02*
X138179762Y-98453390D01*
X138179762Y-98453390D02*
X138084524Y-98501009D01*
X138084524Y-98501009D02*
X138036905Y-98548628D01*
X138036905Y-98548628D02*
X137989286Y-98643866D01*
X137989286Y-98643866D02*
X137989286Y-98834342D01*
X137989286Y-98834342D02*
X138036905Y-98929580D01*
X138036905Y-98929580D02*
X138084524Y-98977200D01*
X138084524Y-98977200D02*
X138179762Y-99024819D01*
X138179762Y-99024819D02*
X138370238Y-99024819D01*
X138370238Y-99024819D02*
X138465476Y-98977200D01*
X138465476Y-98977200D02*
X138513095Y-98929580D01*
X138513095Y-98929580D02*
X138560714Y-98834342D01*
X138560714Y-98834342D02*
X138560714Y-98643866D01*
X138560714Y-98643866D02*
X138513095Y-98548628D01*
X138513095Y-98548628D02*
X138465476Y-98501009D01*
X138465476Y-98501009D02*
X138370238Y-98453390D01*
X123119642Y-98087319D02*
X122786309Y-97611128D01*
X122548214Y-98087319D02*
X122548214Y-97087319D01*
X122548214Y-97087319D02*
X122929166Y-97087319D01*
X122929166Y-97087319D02*
X123024404Y-97134938D01*
X123024404Y-97134938D02*
X123072023Y-97182557D01*
X123072023Y-97182557D02*
X123119642Y-97277795D01*
X123119642Y-97277795D02*
X123119642Y-97420652D01*
X123119642Y-97420652D02*
X123072023Y-97515890D01*
X123072023Y-97515890D02*
X123024404Y-97563509D01*
X123024404Y-97563509D02*
X122929166Y-97611128D01*
X122929166Y-97611128D02*
X122548214Y-97611128D01*
X124072023Y-98087319D02*
X123500595Y-98087319D01*
X123786309Y-98087319D02*
X123786309Y-97087319D01*
X123786309Y-97087319D02*
X123691071Y-97230176D01*
X123691071Y-97230176D02*
X123595833Y-97325414D01*
X123595833Y-97325414D02*
X123500595Y-97373033D01*
X124929166Y-97420652D02*
X124929166Y-98087319D01*
X124691071Y-97039700D02*
X124452976Y-97753985D01*
X124452976Y-97753985D02*
X125072023Y-97753985D01*
X123119642Y-93462319D02*
X122786309Y-92986128D01*
X122548214Y-93462319D02*
X122548214Y-92462319D01*
X122548214Y-92462319D02*
X122929166Y-92462319D01*
X122929166Y-92462319D02*
X123024404Y-92509938D01*
X123024404Y-92509938D02*
X123072023Y-92557557D01*
X123072023Y-92557557D02*
X123119642Y-92652795D01*
X123119642Y-92652795D02*
X123119642Y-92795652D01*
X123119642Y-92795652D02*
X123072023Y-92890890D01*
X123072023Y-92890890D02*
X123024404Y-92938509D01*
X123024404Y-92938509D02*
X122929166Y-92986128D01*
X122929166Y-92986128D02*
X122548214Y-92986128D01*
X124072023Y-93462319D02*
X123500595Y-93462319D01*
X123786309Y-93462319D02*
X123786309Y-92462319D01*
X123786309Y-92462319D02*
X123691071Y-92605176D01*
X123691071Y-92605176D02*
X123595833Y-92700414D01*
X123595833Y-92700414D02*
X123500595Y-92748033D01*
X124452976Y-92557557D02*
X124500595Y-92509938D01*
X124500595Y-92509938D02*
X124595833Y-92462319D01*
X124595833Y-92462319D02*
X124833928Y-92462319D01*
X124833928Y-92462319D02*
X124929166Y-92509938D01*
X124929166Y-92509938D02*
X124976785Y-92557557D01*
X124976785Y-92557557D02*
X125024404Y-92652795D01*
X125024404Y-92652795D02*
X125024404Y-92748033D01*
X125024404Y-92748033D02*
X124976785Y-92890890D01*
X124976785Y-92890890D02*
X124405357Y-93462319D01*
X124405357Y-93462319D02*
X125024404Y-93462319D01*
X143972142Y-81109580D02*
X143924523Y-81157200D01*
X143924523Y-81157200D02*
X143781666Y-81204819D01*
X143781666Y-81204819D02*
X143686428Y-81204819D01*
X143686428Y-81204819D02*
X143543571Y-81157200D01*
X143543571Y-81157200D02*
X143448333Y-81061961D01*
X143448333Y-81061961D02*
X143400714Y-80966723D01*
X143400714Y-80966723D02*
X143353095Y-80776247D01*
X143353095Y-80776247D02*
X143353095Y-80633390D01*
X143353095Y-80633390D02*
X143400714Y-80442914D01*
X143400714Y-80442914D02*
X143448333Y-80347676D01*
X143448333Y-80347676D02*
X143543571Y-80252438D01*
X143543571Y-80252438D02*
X143686428Y-80204819D01*
X143686428Y-80204819D02*
X143781666Y-80204819D01*
X143781666Y-80204819D02*
X143924523Y-80252438D01*
X143924523Y-80252438D02*
X143972142Y-80300057D01*
X144353095Y-80300057D02*
X144400714Y-80252438D01*
X144400714Y-80252438D02*
X144495952Y-80204819D01*
X144495952Y-80204819D02*
X144734047Y-80204819D01*
X144734047Y-80204819D02*
X144829285Y-80252438D01*
X144829285Y-80252438D02*
X144876904Y-80300057D01*
X144876904Y-80300057D02*
X144924523Y-80395295D01*
X144924523Y-80395295D02*
X144924523Y-80490533D01*
X144924523Y-80490533D02*
X144876904Y-80633390D01*
X144876904Y-80633390D02*
X144305476Y-81204819D01*
X144305476Y-81204819D02*
X144924523Y-81204819D01*
X145829285Y-80204819D02*
X145353095Y-80204819D01*
X145353095Y-80204819D02*
X145305476Y-80681009D01*
X145305476Y-80681009D02*
X145353095Y-80633390D01*
X145353095Y-80633390D02*
X145448333Y-80585771D01*
X145448333Y-80585771D02*
X145686428Y-80585771D01*
X145686428Y-80585771D02*
X145781666Y-80633390D01*
X145781666Y-80633390D02*
X145829285Y-80681009D01*
X145829285Y-80681009D02*
X145876904Y-80776247D01*
X145876904Y-80776247D02*
X145876904Y-81014342D01*
X145876904Y-81014342D02*
X145829285Y-81109580D01*
X145829285Y-81109580D02*
X145781666Y-81157200D01*
X145781666Y-81157200D02*
X145686428Y-81204819D01*
X145686428Y-81204819D02*
X145448333Y-81204819D01*
X145448333Y-81204819D02*
X145353095Y-81157200D01*
X145353095Y-81157200D02*
X145305476Y-81109580D01*
X158645820Y-76741257D02*
X158169629Y-77074590D01*
X158645820Y-77312685D02*
X157645820Y-77312685D01*
X157645820Y-77312685D02*
X157645820Y-76931733D01*
X157645820Y-76931733D02*
X157693439Y-76836495D01*
X157693439Y-76836495D02*
X157741058Y-76788876D01*
X157741058Y-76788876D02*
X157836296Y-76741257D01*
X157836296Y-76741257D02*
X157979153Y-76741257D01*
X157979153Y-76741257D02*
X158074391Y-76788876D01*
X158074391Y-76788876D02*
X158122010Y-76836495D01*
X158122010Y-76836495D02*
X158169629Y-76931733D01*
X158169629Y-76931733D02*
X158169629Y-77312685D01*
X157645820Y-76407923D02*
X157645820Y-75788876D01*
X157645820Y-75788876D02*
X158026772Y-76122209D01*
X158026772Y-76122209D02*
X158026772Y-75979352D01*
X158026772Y-75979352D02*
X158074391Y-75884114D01*
X158074391Y-75884114D02*
X158122010Y-75836495D01*
X158122010Y-75836495D02*
X158217248Y-75788876D01*
X158217248Y-75788876D02*
X158455343Y-75788876D01*
X158455343Y-75788876D02*
X158550581Y-75836495D01*
X158550581Y-75836495D02*
X158598201Y-75884114D01*
X158598201Y-75884114D02*
X158645820Y-75979352D01*
X158645820Y-75979352D02*
X158645820Y-76265066D01*
X158645820Y-76265066D02*
X158598201Y-76360304D01*
X158598201Y-76360304D02*
X158550581Y-76407923D01*
X157645820Y-74884114D02*
X157645820Y-75360304D01*
X157645820Y-75360304D02*
X158122010Y-75407923D01*
X158122010Y-75407923D02*
X158074391Y-75360304D01*
X158074391Y-75360304D02*
X158026772Y-75265066D01*
X158026772Y-75265066D02*
X158026772Y-75026971D01*
X158026772Y-75026971D02*
X158074391Y-74931733D01*
X158074391Y-74931733D02*
X158122010Y-74884114D01*
X158122010Y-74884114D02*
X158217248Y-74836495D01*
X158217248Y-74836495D02*
X158455343Y-74836495D01*
X158455343Y-74836495D02*
X158550581Y-74884114D01*
X158550581Y-74884114D02*
X158598201Y-74931733D01*
X158598201Y-74931733D02*
X158645820Y-75026971D01*
X158645820Y-75026971D02*
X158645820Y-75265066D01*
X158645820Y-75265066D02*
X158598201Y-75360304D01*
X158598201Y-75360304D02*
X158550581Y-75407923D01*
X140107142Y-81179580D02*
X140059523Y-81227200D01*
X140059523Y-81227200D02*
X139916666Y-81274819D01*
X139916666Y-81274819D02*
X139821428Y-81274819D01*
X139821428Y-81274819D02*
X139678571Y-81227200D01*
X139678571Y-81227200D02*
X139583333Y-81131961D01*
X139583333Y-81131961D02*
X139535714Y-81036723D01*
X139535714Y-81036723D02*
X139488095Y-80846247D01*
X139488095Y-80846247D02*
X139488095Y-80703390D01*
X139488095Y-80703390D02*
X139535714Y-80512914D01*
X139535714Y-80512914D02*
X139583333Y-80417676D01*
X139583333Y-80417676D02*
X139678571Y-80322438D01*
X139678571Y-80322438D02*
X139821428Y-80274819D01*
X139821428Y-80274819D02*
X139916666Y-80274819D01*
X139916666Y-80274819D02*
X140059523Y-80322438D01*
X140059523Y-80322438D02*
X140107142Y-80370057D01*
X140488095Y-80370057D02*
X140535714Y-80322438D01*
X140535714Y-80322438D02*
X140630952Y-80274819D01*
X140630952Y-80274819D02*
X140869047Y-80274819D01*
X140869047Y-80274819D02*
X140964285Y-80322438D01*
X140964285Y-80322438D02*
X141011904Y-80370057D01*
X141011904Y-80370057D02*
X141059523Y-80465295D01*
X141059523Y-80465295D02*
X141059523Y-80560533D01*
X141059523Y-80560533D02*
X141011904Y-80703390D01*
X141011904Y-80703390D02*
X140440476Y-81274819D01*
X140440476Y-81274819D02*
X141059523Y-81274819D01*
X142011904Y-81274819D02*
X141440476Y-81274819D01*
X141726190Y-81274819D02*
X141726190Y-80274819D01*
X141726190Y-80274819D02*
X141630952Y-80417676D01*
X141630952Y-80417676D02*
X141535714Y-80512914D01*
X141535714Y-80512914D02*
X141440476Y-80560533D01*
X93738095Y-140506819D02*
X94309523Y-140506819D01*
X94023809Y-141506819D02*
X94023809Y-140506819D01*
X94642857Y-141506819D02*
X94642857Y-140506819D01*
X94642857Y-140506819D02*
X95023809Y-140506819D01*
X95023809Y-140506819D02*
X95119047Y-140554438D01*
X95119047Y-140554438D02*
X95166666Y-140602057D01*
X95166666Y-140602057D02*
X95214285Y-140697295D01*
X95214285Y-140697295D02*
X95214285Y-140840152D01*
X95214285Y-140840152D02*
X95166666Y-140935390D01*
X95166666Y-140935390D02*
X95119047Y-140983009D01*
X95119047Y-140983009D02*
X95023809Y-141030628D01*
X95023809Y-141030628D02*
X94642857Y-141030628D01*
X96166666Y-141506819D02*
X95595238Y-141506819D01*
X95880952Y-141506819D02*
X95880952Y-140506819D01*
X95880952Y-140506819D02*
X95785714Y-140649676D01*
X95785714Y-140649676D02*
X95690476Y-140744914D01*
X95690476Y-140744914D02*
X95595238Y-140792533D01*
X164235820Y-77056256D02*
X163759629Y-77389589D01*
X164235820Y-77627684D02*
X163235820Y-77627684D01*
X163235820Y-77627684D02*
X163235820Y-77246732D01*
X163235820Y-77246732D02*
X163283439Y-77151494D01*
X163283439Y-77151494D02*
X163331058Y-77103875D01*
X163331058Y-77103875D02*
X163426296Y-77056256D01*
X163426296Y-77056256D02*
X163569153Y-77056256D01*
X163569153Y-77056256D02*
X163664391Y-77103875D01*
X163664391Y-77103875D02*
X163712010Y-77151494D01*
X163712010Y-77151494D02*
X163759629Y-77246732D01*
X163759629Y-77246732D02*
X163759629Y-77627684D01*
X163331058Y-76675303D02*
X163283439Y-76627684D01*
X163283439Y-76627684D02*
X163235820Y-76532446D01*
X163235820Y-76532446D02*
X163235820Y-76294351D01*
X163235820Y-76294351D02*
X163283439Y-76199113D01*
X163283439Y-76199113D02*
X163331058Y-76151494D01*
X163331058Y-76151494D02*
X163426296Y-76103875D01*
X163426296Y-76103875D02*
X163521534Y-76103875D01*
X163521534Y-76103875D02*
X163664391Y-76151494D01*
X163664391Y-76151494D02*
X164235820Y-76722922D01*
X164235820Y-76722922D02*
X164235820Y-76103875D01*
X164235820Y-75627684D02*
X164235820Y-75437208D01*
X164235820Y-75437208D02*
X164188201Y-75341970D01*
X164188201Y-75341970D02*
X164140581Y-75294351D01*
X164140581Y-75294351D02*
X163997724Y-75199113D01*
X163997724Y-75199113D02*
X163807248Y-75151494D01*
X163807248Y-75151494D02*
X163426296Y-75151494D01*
X163426296Y-75151494D02*
X163331058Y-75199113D01*
X163331058Y-75199113D02*
X163283439Y-75246732D01*
X163283439Y-75246732D02*
X163235820Y-75341970D01*
X163235820Y-75341970D02*
X163235820Y-75532446D01*
X163235820Y-75532446D02*
X163283439Y-75627684D01*
X163283439Y-75627684D02*
X163331058Y-75675303D01*
X163331058Y-75675303D02*
X163426296Y-75722922D01*
X163426296Y-75722922D02*
X163664391Y-75722922D01*
X163664391Y-75722922D02*
X163759629Y-75675303D01*
X163759629Y-75675303D02*
X163807248Y-75627684D01*
X163807248Y-75627684D02*
X163854867Y-75532446D01*
X163854867Y-75532446D02*
X163854867Y-75341970D01*
X163854867Y-75341970D02*
X163807248Y-75246732D01*
X163807248Y-75246732D02*
X163759629Y-75199113D01*
X163759629Y-75199113D02*
X163664391Y-75151494D01*
X93738095Y-130406819D02*
X94309523Y-130406819D01*
X94023809Y-131406819D02*
X94023809Y-130406819D01*
X94642857Y-131406819D02*
X94642857Y-130406819D01*
X94642857Y-130406819D02*
X95023809Y-130406819D01*
X95023809Y-130406819D02*
X95119047Y-130454438D01*
X95119047Y-130454438D02*
X95166666Y-130502057D01*
X95166666Y-130502057D02*
X95214285Y-130597295D01*
X95214285Y-130597295D02*
X95214285Y-130740152D01*
X95214285Y-130740152D02*
X95166666Y-130835390D01*
X95166666Y-130835390D02*
X95119047Y-130883009D01*
X95119047Y-130883009D02*
X95023809Y-130930628D01*
X95023809Y-130930628D02*
X94642857Y-130930628D01*
X95690476Y-131406819D02*
X95880952Y-131406819D01*
X95880952Y-131406819D02*
X95976190Y-131359200D01*
X95976190Y-131359200D02*
X96023809Y-131311580D01*
X96023809Y-131311580D02*
X96119047Y-131168723D01*
X96119047Y-131168723D02*
X96166666Y-130978247D01*
X96166666Y-130978247D02*
X96166666Y-130597295D01*
X96166666Y-130597295D02*
X96119047Y-130502057D01*
X96119047Y-130502057D02*
X96071428Y-130454438D01*
X96071428Y-130454438D02*
X95976190Y-130406819D01*
X95976190Y-130406819D02*
X95785714Y-130406819D01*
X95785714Y-130406819D02*
X95690476Y-130454438D01*
X95690476Y-130454438D02*
X95642857Y-130502057D01*
X95642857Y-130502057D02*
X95595238Y-130597295D01*
X95595238Y-130597295D02*
X95595238Y-130835390D01*
X95595238Y-130835390D02*
X95642857Y-130930628D01*
X95642857Y-130930628D02*
X95690476Y-130978247D01*
X95690476Y-130978247D02*
X95785714Y-131025866D01*
X95785714Y-131025866D02*
X95976190Y-131025866D01*
X95976190Y-131025866D02*
X96071428Y-130978247D01*
X96071428Y-130978247D02*
X96119047Y-130930628D01*
X96119047Y-130930628D02*
X96166666Y-130835390D01*
X154013140Y-76727979D02*
X153965521Y-76775599D01*
X153965521Y-76775599D02*
X153822664Y-76823218D01*
X153822664Y-76823218D02*
X153727426Y-76823218D01*
X153727426Y-76823218D02*
X153584569Y-76775599D01*
X153584569Y-76775599D02*
X153489331Y-76680360D01*
X153489331Y-76680360D02*
X153441712Y-76585122D01*
X153441712Y-76585122D02*
X153394093Y-76394646D01*
X153394093Y-76394646D02*
X153394093Y-76251789D01*
X153394093Y-76251789D02*
X153441712Y-76061313D01*
X153441712Y-76061313D02*
X153489331Y-75966075D01*
X153489331Y-75966075D02*
X153584569Y-75870837D01*
X153584569Y-75870837D02*
X153727426Y-75823218D01*
X153727426Y-75823218D02*
X153822664Y-75823218D01*
X153822664Y-75823218D02*
X153965521Y-75870837D01*
X153965521Y-75870837D02*
X154013140Y-75918456D01*
X154346474Y-75823218D02*
X154965521Y-75823218D01*
X154965521Y-75823218D02*
X154632188Y-76204170D01*
X154632188Y-76204170D02*
X154775045Y-76204170D01*
X154775045Y-76204170D02*
X154870283Y-76251789D01*
X154870283Y-76251789D02*
X154917902Y-76299408D01*
X154917902Y-76299408D02*
X154965521Y-76394646D01*
X154965521Y-76394646D02*
X154965521Y-76632741D01*
X154965521Y-76632741D02*
X154917902Y-76727979D01*
X154917902Y-76727979D02*
X154870283Y-76775599D01*
X154870283Y-76775599D02*
X154775045Y-76823218D01*
X154775045Y-76823218D02*
X154489331Y-76823218D01*
X154489331Y-76823218D02*
X154394093Y-76775599D01*
X154394093Y-76775599D02*
X154346474Y-76727979D01*
X155346474Y-75918456D02*
X155394093Y-75870837D01*
X155394093Y-75870837D02*
X155489331Y-75823218D01*
X155489331Y-75823218D02*
X155727426Y-75823218D01*
X155727426Y-75823218D02*
X155822664Y-75870837D01*
X155822664Y-75870837D02*
X155870283Y-75918456D01*
X155870283Y-75918456D02*
X155917902Y-76013694D01*
X155917902Y-76013694D02*
X155917902Y-76108932D01*
X155917902Y-76108932D02*
X155870283Y-76251789D01*
X155870283Y-76251789D02*
X155298855Y-76823218D01*
X155298855Y-76823218D02*
X155917902Y-76823218D01*
X87211905Y-138506819D02*
X87783333Y-138506819D01*
X87497619Y-139506819D02*
X87497619Y-138506819D01*
X88116667Y-139506819D02*
X88116667Y-138506819D01*
X88116667Y-138506819D02*
X88497619Y-138506819D01*
X88497619Y-138506819D02*
X88592857Y-138554438D01*
X88592857Y-138554438D02*
X88640476Y-138602057D01*
X88640476Y-138602057D02*
X88688095Y-138697295D01*
X88688095Y-138697295D02*
X88688095Y-138840152D01*
X88688095Y-138840152D02*
X88640476Y-138935390D01*
X88640476Y-138935390D02*
X88592857Y-138983009D01*
X88592857Y-138983009D02*
X88497619Y-139030628D01*
X88497619Y-139030628D02*
X88116667Y-139030628D01*
X89640476Y-139506819D02*
X89069048Y-139506819D01*
X89354762Y-139506819D02*
X89354762Y-138506819D01*
X89354762Y-138506819D02*
X89259524Y-138649676D01*
X89259524Y-138649676D02*
X89164286Y-138744914D01*
X89164286Y-138744914D02*
X89069048Y-138792533D01*
X89973810Y-138506819D02*
X90592857Y-138506819D01*
X90592857Y-138506819D02*
X90259524Y-138887771D01*
X90259524Y-138887771D02*
X90402381Y-138887771D01*
X90402381Y-138887771D02*
X90497619Y-138935390D01*
X90497619Y-138935390D02*
X90545238Y-138983009D01*
X90545238Y-138983009D02*
X90592857Y-139078247D01*
X90592857Y-139078247D02*
X90592857Y-139316342D01*
X90592857Y-139316342D02*
X90545238Y-139411580D01*
X90545238Y-139411580D02*
X90497619Y-139459200D01*
X90497619Y-139459200D02*
X90402381Y-139506819D01*
X90402381Y-139506819D02*
X90116667Y-139506819D01*
X90116667Y-139506819D02*
X90021429Y-139459200D01*
X90021429Y-139459200D02*
X89973810Y-139411580D01*
X93261905Y-134456819D02*
X93833333Y-134456819D01*
X93547619Y-135456819D02*
X93547619Y-134456819D01*
X94166667Y-135456819D02*
X94166667Y-134456819D01*
X94166667Y-134456819D02*
X94547619Y-134456819D01*
X94547619Y-134456819D02*
X94642857Y-134504438D01*
X94642857Y-134504438D02*
X94690476Y-134552057D01*
X94690476Y-134552057D02*
X94738095Y-134647295D01*
X94738095Y-134647295D02*
X94738095Y-134790152D01*
X94738095Y-134790152D02*
X94690476Y-134885390D01*
X94690476Y-134885390D02*
X94642857Y-134933009D01*
X94642857Y-134933009D02*
X94547619Y-134980628D01*
X94547619Y-134980628D02*
X94166667Y-134980628D01*
X95690476Y-135456819D02*
X95119048Y-135456819D01*
X95404762Y-135456819D02*
X95404762Y-134456819D01*
X95404762Y-134456819D02*
X95309524Y-134599676D01*
X95309524Y-134599676D02*
X95214286Y-134694914D01*
X95214286Y-134694914D02*
X95119048Y-134742533D01*
X96309524Y-134456819D02*
X96404762Y-134456819D01*
X96404762Y-134456819D02*
X96500000Y-134504438D01*
X96500000Y-134504438D02*
X96547619Y-134552057D01*
X96547619Y-134552057D02*
X96595238Y-134647295D01*
X96595238Y-134647295D02*
X96642857Y-134837771D01*
X96642857Y-134837771D02*
X96642857Y-135075866D01*
X96642857Y-135075866D02*
X96595238Y-135266342D01*
X96595238Y-135266342D02*
X96547619Y-135361580D01*
X96547619Y-135361580D02*
X96500000Y-135409200D01*
X96500000Y-135409200D02*
X96404762Y-135456819D01*
X96404762Y-135456819D02*
X96309524Y-135456819D01*
X96309524Y-135456819D02*
X96214286Y-135409200D01*
X96214286Y-135409200D02*
X96166667Y-135361580D01*
X96166667Y-135361580D02*
X96119048Y-135266342D01*
X96119048Y-135266342D02*
X96071429Y-135075866D01*
X96071429Y-135075866D02*
X96071429Y-134837771D01*
X96071429Y-134837771D02*
X96119048Y-134647295D01*
X96119048Y-134647295D02*
X96166667Y-134552057D01*
X96166667Y-134552057D02*
X96214286Y-134504438D01*
X96214286Y-134504438D02*
X96309524Y-134456819D01*
X118270833Y-71449819D02*
X117937500Y-70973628D01*
X117699405Y-71449819D02*
X117699405Y-70449819D01*
X117699405Y-70449819D02*
X118080357Y-70449819D01*
X118080357Y-70449819D02*
X118175595Y-70497438D01*
X118175595Y-70497438D02*
X118223214Y-70545057D01*
X118223214Y-70545057D02*
X118270833Y-70640295D01*
X118270833Y-70640295D02*
X118270833Y-70783152D01*
X118270833Y-70783152D02*
X118223214Y-70878390D01*
X118223214Y-70878390D02*
X118175595Y-70926009D01*
X118175595Y-70926009D02*
X118080357Y-70973628D01*
X118080357Y-70973628D02*
X117699405Y-70973628D01*
X119175595Y-70449819D02*
X118699405Y-70449819D01*
X118699405Y-70449819D02*
X118651786Y-70926009D01*
X118651786Y-70926009D02*
X118699405Y-70878390D01*
X118699405Y-70878390D02*
X118794643Y-70830771D01*
X118794643Y-70830771D02*
X119032738Y-70830771D01*
X119032738Y-70830771D02*
X119127976Y-70878390D01*
X119127976Y-70878390D02*
X119175595Y-70926009D01*
X119175595Y-70926009D02*
X119223214Y-71021247D01*
X119223214Y-71021247D02*
X119223214Y-71259342D01*
X119223214Y-71259342D02*
X119175595Y-71354580D01*
X119175595Y-71354580D02*
X119127976Y-71402200D01*
X119127976Y-71402200D02*
X119032738Y-71449819D01*
X119032738Y-71449819D02*
X118794643Y-71449819D01*
X118794643Y-71449819D02*
X118699405Y-71402200D01*
X118699405Y-71402200D02*
X118651786Y-71354580D01*
X149807142Y-86203321D02*
X149473809Y-85727130D01*
X149235714Y-86203321D02*
X149235714Y-85203321D01*
X149235714Y-85203321D02*
X149616666Y-85203321D01*
X149616666Y-85203321D02*
X149711904Y-85250940D01*
X149711904Y-85250940D02*
X149759523Y-85298559D01*
X149759523Y-85298559D02*
X149807142Y-85393797D01*
X149807142Y-85393797D02*
X149807142Y-85536654D01*
X149807142Y-85536654D02*
X149759523Y-85631892D01*
X149759523Y-85631892D02*
X149711904Y-85679511D01*
X149711904Y-85679511D02*
X149616666Y-85727130D01*
X149616666Y-85727130D02*
X149235714Y-85727130D01*
X150664285Y-85536654D02*
X150664285Y-86203321D01*
X150426190Y-85155702D02*
X150188095Y-85869987D01*
X150188095Y-85869987D02*
X150807142Y-85869987D01*
X151616666Y-85536654D02*
X151616666Y-86203321D01*
X151378571Y-85155702D02*
X151140476Y-85869987D01*
X151140476Y-85869987D02*
X151759523Y-85869987D01*
X123595833Y-84212319D02*
X123262500Y-83736128D01*
X123024405Y-84212319D02*
X123024405Y-83212319D01*
X123024405Y-83212319D02*
X123405357Y-83212319D01*
X123405357Y-83212319D02*
X123500595Y-83259938D01*
X123500595Y-83259938D02*
X123548214Y-83307557D01*
X123548214Y-83307557D02*
X123595833Y-83402795D01*
X123595833Y-83402795D02*
X123595833Y-83545652D01*
X123595833Y-83545652D02*
X123548214Y-83640890D01*
X123548214Y-83640890D02*
X123500595Y-83688509D01*
X123500595Y-83688509D02*
X123405357Y-83736128D01*
X123405357Y-83736128D02*
X123024405Y-83736128D01*
X124167262Y-83640890D02*
X124072024Y-83593271D01*
X124072024Y-83593271D02*
X124024405Y-83545652D01*
X124024405Y-83545652D02*
X123976786Y-83450414D01*
X123976786Y-83450414D02*
X123976786Y-83402795D01*
X123976786Y-83402795D02*
X124024405Y-83307557D01*
X124024405Y-83307557D02*
X124072024Y-83259938D01*
X124072024Y-83259938D02*
X124167262Y-83212319D01*
X124167262Y-83212319D02*
X124357738Y-83212319D01*
X124357738Y-83212319D02*
X124452976Y-83259938D01*
X124452976Y-83259938D02*
X124500595Y-83307557D01*
X124500595Y-83307557D02*
X124548214Y-83402795D01*
X124548214Y-83402795D02*
X124548214Y-83450414D01*
X124548214Y-83450414D02*
X124500595Y-83545652D01*
X124500595Y-83545652D02*
X124452976Y-83593271D01*
X124452976Y-83593271D02*
X124357738Y-83640890D01*
X124357738Y-83640890D02*
X124167262Y-83640890D01*
X124167262Y-83640890D02*
X124072024Y-83688509D01*
X124072024Y-83688509D02*
X124024405Y-83736128D01*
X124024405Y-83736128D02*
X123976786Y-83831366D01*
X123976786Y-83831366D02*
X123976786Y-84021842D01*
X123976786Y-84021842D02*
X124024405Y-84117080D01*
X124024405Y-84117080D02*
X124072024Y-84164700D01*
X124072024Y-84164700D02*
X124167262Y-84212319D01*
X124167262Y-84212319D02*
X124357738Y-84212319D01*
X124357738Y-84212319D02*
X124452976Y-84164700D01*
X124452976Y-84164700D02*
X124500595Y-84117080D01*
X124500595Y-84117080D02*
X124548214Y-84021842D01*
X124548214Y-84021842D02*
X124548214Y-83831366D01*
X124548214Y-83831366D02*
X124500595Y-83736128D01*
X124500595Y-83736128D02*
X124452976Y-83688509D01*
X124452976Y-83688509D02*
X124357738Y-83640890D01*
X162715817Y-76741257D02*
X162239626Y-77074590D01*
X162715817Y-77312685D02*
X161715817Y-77312685D01*
X161715817Y-77312685D02*
X161715817Y-76931733D01*
X161715817Y-76931733D02*
X161763436Y-76836495D01*
X161763436Y-76836495D02*
X161811055Y-76788876D01*
X161811055Y-76788876D02*
X161906293Y-76741257D01*
X161906293Y-76741257D02*
X162049150Y-76741257D01*
X162049150Y-76741257D02*
X162144388Y-76788876D01*
X162144388Y-76788876D02*
X162192007Y-76836495D01*
X162192007Y-76836495D02*
X162239626Y-76931733D01*
X162239626Y-76931733D02*
X162239626Y-77312685D01*
X161715817Y-76407923D02*
X161715817Y-75788876D01*
X161715817Y-75788876D02*
X162096769Y-76122209D01*
X162096769Y-76122209D02*
X162096769Y-75979352D01*
X162096769Y-75979352D02*
X162144388Y-75884114D01*
X162144388Y-75884114D02*
X162192007Y-75836495D01*
X162192007Y-75836495D02*
X162287245Y-75788876D01*
X162287245Y-75788876D02*
X162525340Y-75788876D01*
X162525340Y-75788876D02*
X162620578Y-75836495D01*
X162620578Y-75836495D02*
X162668198Y-75884114D01*
X162668198Y-75884114D02*
X162715817Y-75979352D01*
X162715817Y-75979352D02*
X162715817Y-76265066D01*
X162715817Y-76265066D02*
X162668198Y-76360304D01*
X162668198Y-76360304D02*
X162620578Y-76407923D01*
X161715817Y-74931733D02*
X161715817Y-75122209D01*
X161715817Y-75122209D02*
X161763436Y-75217447D01*
X161763436Y-75217447D02*
X161811055Y-75265066D01*
X161811055Y-75265066D02*
X161953912Y-75360304D01*
X161953912Y-75360304D02*
X162144388Y-75407923D01*
X162144388Y-75407923D02*
X162525340Y-75407923D01*
X162525340Y-75407923D02*
X162620578Y-75360304D01*
X162620578Y-75360304D02*
X162668198Y-75312685D01*
X162668198Y-75312685D02*
X162715817Y-75217447D01*
X162715817Y-75217447D02*
X162715817Y-75026971D01*
X162715817Y-75026971D02*
X162668198Y-74931733D01*
X162668198Y-74931733D02*
X162620578Y-74884114D01*
X162620578Y-74884114D02*
X162525340Y-74836495D01*
X162525340Y-74836495D02*
X162287245Y-74836495D01*
X162287245Y-74836495D02*
X162192007Y-74884114D01*
X162192007Y-74884114D02*
X162144388Y-74931733D01*
X162144388Y-74931733D02*
X162096769Y-75026971D01*
X162096769Y-75026971D02*
X162096769Y-75217447D01*
X162096769Y-75217447D02*
X162144388Y-75312685D01*
X162144388Y-75312685D02*
X162192007Y-75360304D01*
X162192007Y-75360304D02*
X162287245Y-75407923D01*
X157315817Y-77056257D02*
X156839626Y-77389590D01*
X157315817Y-77627685D02*
X156315817Y-77627685D01*
X156315817Y-77627685D02*
X156315817Y-77246733D01*
X156315817Y-77246733D02*
X156363436Y-77151495D01*
X156363436Y-77151495D02*
X156411055Y-77103876D01*
X156411055Y-77103876D02*
X156506293Y-77056257D01*
X156506293Y-77056257D02*
X156649150Y-77056257D01*
X156649150Y-77056257D02*
X156744388Y-77103876D01*
X156744388Y-77103876D02*
X156792007Y-77151495D01*
X156792007Y-77151495D02*
X156839626Y-77246733D01*
X156839626Y-77246733D02*
X156839626Y-77627685D01*
X156411055Y-76675304D02*
X156363436Y-76627685D01*
X156363436Y-76627685D02*
X156315817Y-76532447D01*
X156315817Y-76532447D02*
X156315817Y-76294352D01*
X156315817Y-76294352D02*
X156363436Y-76199114D01*
X156363436Y-76199114D02*
X156411055Y-76151495D01*
X156411055Y-76151495D02*
X156506293Y-76103876D01*
X156506293Y-76103876D02*
X156601531Y-76103876D01*
X156601531Y-76103876D02*
X156744388Y-76151495D01*
X156744388Y-76151495D02*
X157315817Y-76722923D01*
X157315817Y-76722923D02*
X157315817Y-76103876D01*
X156315817Y-75770542D02*
X156315817Y-75103876D01*
X156315817Y-75103876D02*
X157315817Y-75532447D01*
X97788095Y-144556819D02*
X98359523Y-144556819D01*
X98073809Y-145556819D02*
X98073809Y-144556819D01*
X98692857Y-145556819D02*
X98692857Y-144556819D01*
X98692857Y-144556819D02*
X99073809Y-144556819D01*
X99073809Y-144556819D02*
X99169047Y-144604438D01*
X99169047Y-144604438D02*
X99216666Y-144652057D01*
X99216666Y-144652057D02*
X99264285Y-144747295D01*
X99264285Y-144747295D02*
X99264285Y-144890152D01*
X99264285Y-144890152D02*
X99216666Y-144985390D01*
X99216666Y-144985390D02*
X99169047Y-145033009D01*
X99169047Y-145033009D02*
X99073809Y-145080628D01*
X99073809Y-145080628D02*
X98692857Y-145080628D01*
X100121428Y-144890152D02*
X100121428Y-145556819D01*
X99883333Y-144509200D02*
X99645238Y-145223485D01*
X99645238Y-145223485D02*
X100264285Y-145223485D01*
X131408333Y-98929580D02*
X131360714Y-98977200D01*
X131360714Y-98977200D02*
X131217857Y-99024819D01*
X131217857Y-99024819D02*
X131122619Y-99024819D01*
X131122619Y-99024819D02*
X130979762Y-98977200D01*
X130979762Y-98977200D02*
X130884524Y-98881961D01*
X130884524Y-98881961D02*
X130836905Y-98786723D01*
X130836905Y-98786723D02*
X130789286Y-98596247D01*
X130789286Y-98596247D02*
X130789286Y-98453390D01*
X130789286Y-98453390D02*
X130836905Y-98262914D01*
X130836905Y-98262914D02*
X130884524Y-98167676D01*
X130884524Y-98167676D02*
X130979762Y-98072438D01*
X130979762Y-98072438D02*
X131122619Y-98024819D01*
X131122619Y-98024819D02*
X131217857Y-98024819D01*
X131217857Y-98024819D02*
X131360714Y-98072438D01*
X131360714Y-98072438D02*
X131408333Y-98120057D01*
X131789286Y-98120057D02*
X131836905Y-98072438D01*
X131836905Y-98072438D02*
X131932143Y-98024819D01*
X131932143Y-98024819D02*
X132170238Y-98024819D01*
X132170238Y-98024819D02*
X132265476Y-98072438D01*
X132265476Y-98072438D02*
X132313095Y-98120057D01*
X132313095Y-98120057D02*
X132360714Y-98215295D01*
X132360714Y-98215295D02*
X132360714Y-98310533D01*
X132360714Y-98310533D02*
X132313095Y-98453390D01*
X132313095Y-98453390D02*
X131741667Y-99024819D01*
X131741667Y-99024819D02*
X132360714Y-99024819D01*
X140232142Y-98929580D02*
X140184523Y-98977200D01*
X140184523Y-98977200D02*
X140041666Y-99024819D01*
X140041666Y-99024819D02*
X139946428Y-99024819D01*
X139946428Y-99024819D02*
X139803571Y-98977200D01*
X139803571Y-98977200D02*
X139708333Y-98881961D01*
X139708333Y-98881961D02*
X139660714Y-98786723D01*
X139660714Y-98786723D02*
X139613095Y-98596247D01*
X139613095Y-98596247D02*
X139613095Y-98453390D01*
X139613095Y-98453390D02*
X139660714Y-98262914D01*
X139660714Y-98262914D02*
X139708333Y-98167676D01*
X139708333Y-98167676D02*
X139803571Y-98072438D01*
X139803571Y-98072438D02*
X139946428Y-98024819D01*
X139946428Y-98024819D02*
X140041666Y-98024819D01*
X140041666Y-98024819D02*
X140184523Y-98072438D01*
X140184523Y-98072438D02*
X140232142Y-98120057D01*
X141184523Y-99024819D02*
X140613095Y-99024819D01*
X140898809Y-99024819D02*
X140898809Y-98024819D01*
X140898809Y-98024819D02*
X140803571Y-98167676D01*
X140803571Y-98167676D02*
X140708333Y-98262914D01*
X140708333Y-98262914D02*
X140613095Y-98310533D01*
X141803571Y-98024819D02*
X141898809Y-98024819D01*
X141898809Y-98024819D02*
X141994047Y-98072438D01*
X141994047Y-98072438D02*
X142041666Y-98120057D01*
X142041666Y-98120057D02*
X142089285Y-98215295D01*
X142089285Y-98215295D02*
X142136904Y-98405771D01*
X142136904Y-98405771D02*
X142136904Y-98643866D01*
X142136904Y-98643866D02*
X142089285Y-98834342D01*
X142089285Y-98834342D02*
X142041666Y-98929580D01*
X142041666Y-98929580D02*
X141994047Y-98977200D01*
X141994047Y-98977200D02*
X141898809Y-99024819D01*
X141898809Y-99024819D02*
X141803571Y-99024819D01*
X141803571Y-99024819D02*
X141708333Y-98977200D01*
X141708333Y-98977200D02*
X141660714Y-98929580D01*
X141660714Y-98929580D02*
X141613095Y-98834342D01*
X141613095Y-98834342D02*
X141565476Y-98643866D01*
X141565476Y-98643866D02*
X141565476Y-98405771D01*
X141565476Y-98405771D02*
X141613095Y-98215295D01*
X141613095Y-98215295D02*
X141660714Y-98120057D01*
X141660714Y-98120057D02*
X141708333Y-98072438D01*
X141708333Y-98072438D02*
X141803571Y-98024819D01*
X132958333Y-100429580D02*
X132910714Y-100477200D01*
X132910714Y-100477200D02*
X132767857Y-100524819D01*
X132767857Y-100524819D02*
X132672619Y-100524819D01*
X132672619Y-100524819D02*
X132529762Y-100477200D01*
X132529762Y-100477200D02*
X132434524Y-100381961D01*
X132434524Y-100381961D02*
X132386905Y-100286723D01*
X132386905Y-100286723D02*
X132339286Y-100096247D01*
X132339286Y-100096247D02*
X132339286Y-99953390D01*
X132339286Y-99953390D02*
X132386905Y-99762914D01*
X132386905Y-99762914D02*
X132434524Y-99667676D01*
X132434524Y-99667676D02*
X132529762Y-99572438D01*
X132529762Y-99572438D02*
X132672619Y-99524819D01*
X132672619Y-99524819D02*
X132767857Y-99524819D01*
X132767857Y-99524819D02*
X132910714Y-99572438D01*
X132910714Y-99572438D02*
X132958333Y-99620057D01*
X133863095Y-99524819D02*
X133386905Y-99524819D01*
X133386905Y-99524819D02*
X133339286Y-100001009D01*
X133339286Y-100001009D02*
X133386905Y-99953390D01*
X133386905Y-99953390D02*
X133482143Y-99905771D01*
X133482143Y-99905771D02*
X133720238Y-99905771D01*
X133720238Y-99905771D02*
X133815476Y-99953390D01*
X133815476Y-99953390D02*
X133863095Y-100001009D01*
X133863095Y-100001009D02*
X133910714Y-100096247D01*
X133910714Y-100096247D02*
X133910714Y-100334342D01*
X133910714Y-100334342D02*
X133863095Y-100429580D01*
X133863095Y-100429580D02*
X133815476Y-100477200D01*
X133815476Y-100477200D02*
X133720238Y-100524819D01*
X133720238Y-100524819D02*
X133482143Y-100524819D01*
X133482143Y-100524819D02*
X133386905Y-100477200D01*
X133386905Y-100477200D02*
X133339286Y-100429580D01*
X126174819Y-68892857D02*
X125698628Y-69226190D01*
X126174819Y-69464285D02*
X125174819Y-69464285D01*
X125174819Y-69464285D02*
X125174819Y-69083333D01*
X125174819Y-69083333D02*
X125222438Y-68988095D01*
X125222438Y-68988095D02*
X125270057Y-68940476D01*
X125270057Y-68940476D02*
X125365295Y-68892857D01*
X125365295Y-68892857D02*
X125508152Y-68892857D01*
X125508152Y-68892857D02*
X125603390Y-68940476D01*
X125603390Y-68940476D02*
X125651009Y-68988095D01*
X125651009Y-68988095D02*
X125698628Y-69083333D01*
X125698628Y-69083333D02*
X125698628Y-69464285D01*
X125270057Y-68511904D02*
X125222438Y-68464285D01*
X125222438Y-68464285D02*
X125174819Y-68369047D01*
X125174819Y-68369047D02*
X125174819Y-68130952D01*
X125174819Y-68130952D02*
X125222438Y-68035714D01*
X125222438Y-68035714D02*
X125270057Y-67988095D01*
X125270057Y-67988095D02*
X125365295Y-67940476D01*
X125365295Y-67940476D02*
X125460533Y-67940476D01*
X125460533Y-67940476D02*
X125603390Y-67988095D01*
X125603390Y-67988095D02*
X126174819Y-68559523D01*
X126174819Y-68559523D02*
X126174819Y-67940476D01*
X125174819Y-67321428D02*
X125174819Y-67226190D01*
X125174819Y-67226190D02*
X125222438Y-67130952D01*
X125222438Y-67130952D02*
X125270057Y-67083333D01*
X125270057Y-67083333D02*
X125365295Y-67035714D01*
X125365295Y-67035714D02*
X125555771Y-66988095D01*
X125555771Y-66988095D02*
X125793866Y-66988095D01*
X125793866Y-66988095D02*
X125984342Y-67035714D01*
X125984342Y-67035714D02*
X126079580Y-67083333D01*
X126079580Y-67083333D02*
X126127200Y-67130952D01*
X126127200Y-67130952D02*
X126174819Y-67226190D01*
X126174819Y-67226190D02*
X126174819Y-67321428D01*
X126174819Y-67321428D02*
X126127200Y-67416666D01*
X126127200Y-67416666D02*
X126079580Y-67464285D01*
X126079580Y-67464285D02*
X125984342Y-67511904D01*
X125984342Y-67511904D02*
X125793866Y-67559523D01*
X125793866Y-67559523D02*
X125555771Y-67559523D01*
X125555771Y-67559523D02*
X125365295Y-67511904D01*
X125365295Y-67511904D02*
X125270057Y-67464285D01*
X125270057Y-67464285D02*
X125222438Y-67416666D01*
X125222438Y-67416666D02*
X125174819Y-67321428D01*
X170488095Y-65054819D02*
X170488095Y-64054819D01*
X170488095Y-64531009D02*
X171059523Y-64531009D01*
X171059523Y-65054819D02*
X171059523Y-64054819D01*
X171440476Y-64054819D02*
X172059523Y-64054819D01*
X172059523Y-64054819D02*
X171726190Y-64435771D01*
X171726190Y-64435771D02*
X171869047Y-64435771D01*
X171869047Y-64435771D02*
X171964285Y-64483390D01*
X171964285Y-64483390D02*
X172011904Y-64531009D01*
X172011904Y-64531009D02*
X172059523Y-64626247D01*
X172059523Y-64626247D02*
X172059523Y-64864342D01*
X172059523Y-64864342D02*
X172011904Y-64959580D01*
X172011904Y-64959580D02*
X171964285Y-65007200D01*
X171964285Y-65007200D02*
X171869047Y-65054819D01*
X171869047Y-65054819D02*
X171583333Y-65054819D01*
X171583333Y-65054819D02*
X171488095Y-65007200D01*
X171488095Y-65007200D02*
X171440476Y-64959580D01*
X171633333Y-92545181D02*
X171633333Y-91830896D01*
X171633333Y-91830896D02*
X171680952Y-91688039D01*
X171680952Y-91688039D02*
X171776190Y-91592801D01*
X171776190Y-91592801D02*
X171919047Y-91545181D01*
X171919047Y-91545181D02*
X172014285Y-91545181D01*
X171204761Y-92449943D02*
X171157142Y-92497562D01*
X171157142Y-92497562D02*
X171061904Y-92545181D01*
X171061904Y-92545181D02*
X170823809Y-92545181D01*
X170823809Y-92545181D02*
X170728571Y-92497562D01*
X170728571Y-92497562D02*
X170680952Y-92449943D01*
X170680952Y-92449943D02*
X170633333Y-92354705D01*
X170633333Y-92354705D02*
X170633333Y-92259467D01*
X170633333Y-92259467D02*
X170680952Y-92116610D01*
X170680952Y-92116610D02*
X171252380Y-91545181D01*
X171252380Y-91545181D02*
X170633333Y-91545181D01*
X118270833Y-76074819D02*
X117937500Y-75598628D01*
X117699405Y-76074819D02*
X117699405Y-75074819D01*
X117699405Y-75074819D02*
X118080357Y-75074819D01*
X118080357Y-75074819D02*
X118175595Y-75122438D01*
X118175595Y-75122438D02*
X118223214Y-75170057D01*
X118223214Y-75170057D02*
X118270833Y-75265295D01*
X118270833Y-75265295D02*
X118270833Y-75408152D01*
X118270833Y-75408152D02*
X118223214Y-75503390D01*
X118223214Y-75503390D02*
X118175595Y-75551009D01*
X118175595Y-75551009D02*
X118080357Y-75598628D01*
X118080357Y-75598628D02*
X117699405Y-75598628D01*
X118604167Y-75074819D02*
X119270833Y-75074819D01*
X119270833Y-75074819D02*
X118842262Y-76074819D01*
X148203030Y-103262857D02*
X148250650Y-103310476D01*
X148250650Y-103310476D02*
X148298269Y-103453333D01*
X148298269Y-103453333D02*
X148298269Y-103548571D01*
X148298269Y-103548571D02*
X148250650Y-103691428D01*
X148250650Y-103691428D02*
X148155411Y-103786666D01*
X148155411Y-103786666D02*
X148060173Y-103834285D01*
X148060173Y-103834285D02*
X147869697Y-103881904D01*
X147869697Y-103881904D02*
X147726840Y-103881904D01*
X147726840Y-103881904D02*
X147536364Y-103834285D01*
X147536364Y-103834285D02*
X147441126Y-103786666D01*
X147441126Y-103786666D02*
X147345888Y-103691428D01*
X147345888Y-103691428D02*
X147298269Y-103548571D01*
X147298269Y-103548571D02*
X147298269Y-103453333D01*
X147298269Y-103453333D02*
X147345888Y-103310476D01*
X147345888Y-103310476D02*
X147393507Y-103262857D01*
X147298269Y-102929523D02*
X147298269Y-102310476D01*
X147298269Y-102310476D02*
X147679221Y-102643809D01*
X147679221Y-102643809D02*
X147679221Y-102500952D01*
X147679221Y-102500952D02*
X147726840Y-102405714D01*
X147726840Y-102405714D02*
X147774459Y-102358095D01*
X147774459Y-102358095D02*
X147869697Y-102310476D01*
X147869697Y-102310476D02*
X148107792Y-102310476D01*
X148107792Y-102310476D02*
X148203030Y-102358095D01*
X148203030Y-102358095D02*
X148250650Y-102405714D01*
X148250650Y-102405714D02*
X148298269Y-102500952D01*
X148298269Y-102500952D02*
X148298269Y-102786666D01*
X148298269Y-102786666D02*
X148250650Y-102881904D01*
X148250650Y-102881904D02*
X148203030Y-102929523D01*
X147298269Y-101977142D02*
X147298269Y-101310476D01*
X147298269Y-101310476D02*
X148298269Y-101739047D01*
X149760592Y-102384819D02*
X149427259Y-101908628D01*
X149189164Y-102384819D02*
X149189164Y-101384819D01*
X149189164Y-101384819D02*
X149570116Y-101384819D01*
X149570116Y-101384819D02*
X149665354Y-101432438D01*
X149665354Y-101432438D02*
X149712973Y-101480057D01*
X149712973Y-101480057D02*
X149760592Y-101575295D01*
X149760592Y-101575295D02*
X149760592Y-101718152D01*
X149760592Y-101718152D02*
X149712973Y-101813390D01*
X149712973Y-101813390D02*
X149665354Y-101861009D01*
X149665354Y-101861009D02*
X149570116Y-101908628D01*
X149570116Y-101908628D02*
X149189164Y-101908628D01*
X150617735Y-101718152D02*
X150617735Y-102384819D01*
X150379640Y-101337200D02*
X150141545Y-102051485D01*
X150141545Y-102051485D02*
X150760592Y-102051485D01*
X151665354Y-102384819D02*
X151093926Y-102384819D01*
X151379640Y-102384819D02*
X151379640Y-101384819D01*
X151379640Y-101384819D02*
X151284402Y-101527676D01*
X151284402Y-101527676D02*
X151189164Y-101622914D01*
X151189164Y-101622914D02*
X151093926Y-101670533D01*
X93738095Y-144556819D02*
X94309523Y-144556819D01*
X94023809Y-145556819D02*
X94023809Y-144556819D01*
X94642857Y-145556819D02*
X94642857Y-144556819D01*
X94642857Y-144556819D02*
X95023809Y-144556819D01*
X95023809Y-144556819D02*
X95119047Y-144604438D01*
X95119047Y-144604438D02*
X95166666Y-144652057D01*
X95166666Y-144652057D02*
X95214285Y-144747295D01*
X95214285Y-144747295D02*
X95214285Y-144890152D01*
X95214285Y-144890152D02*
X95166666Y-144985390D01*
X95166666Y-144985390D02*
X95119047Y-145033009D01*
X95119047Y-145033009D02*
X95023809Y-145080628D01*
X95023809Y-145080628D02*
X94642857Y-145080628D01*
X95595238Y-144652057D02*
X95642857Y-144604438D01*
X95642857Y-144604438D02*
X95738095Y-144556819D01*
X95738095Y-144556819D02*
X95976190Y-144556819D01*
X95976190Y-144556819D02*
X96071428Y-144604438D01*
X96071428Y-144604438D02*
X96119047Y-144652057D01*
X96119047Y-144652057D02*
X96166666Y-144747295D01*
X96166666Y-144747295D02*
X96166666Y-144842533D01*
X96166666Y-144842533D02*
X96119047Y-144985390D01*
X96119047Y-144985390D02*
X95547619Y-145556819D01*
X95547619Y-145556819D02*
X96166666Y-145556819D01*
X149628269Y-104692858D02*
X149152078Y-105026191D01*
X149628269Y-105264286D02*
X148628269Y-105264286D01*
X148628269Y-105264286D02*
X148628269Y-104883334D01*
X148628269Y-104883334D02*
X148675888Y-104788096D01*
X148675888Y-104788096D02*
X148723507Y-104740477D01*
X148723507Y-104740477D02*
X148818745Y-104692858D01*
X148818745Y-104692858D02*
X148961602Y-104692858D01*
X148961602Y-104692858D02*
X149056840Y-104740477D01*
X149056840Y-104740477D02*
X149104459Y-104788096D01*
X149104459Y-104788096D02*
X149152078Y-104883334D01*
X149152078Y-104883334D02*
X149152078Y-105264286D01*
X148628269Y-104359524D02*
X148628269Y-103740477D01*
X148628269Y-103740477D02*
X149009221Y-104073810D01*
X149009221Y-104073810D02*
X149009221Y-103930953D01*
X149009221Y-103930953D02*
X149056840Y-103835715D01*
X149056840Y-103835715D02*
X149104459Y-103788096D01*
X149104459Y-103788096D02*
X149199697Y-103740477D01*
X149199697Y-103740477D02*
X149437792Y-103740477D01*
X149437792Y-103740477D02*
X149533030Y-103788096D01*
X149533030Y-103788096D02*
X149580650Y-103835715D01*
X149580650Y-103835715D02*
X149628269Y-103930953D01*
X149628269Y-103930953D02*
X149628269Y-104216667D01*
X149628269Y-104216667D02*
X149580650Y-104311905D01*
X149580650Y-104311905D02*
X149533030Y-104359524D01*
X149628269Y-103264286D02*
X149628269Y-103073810D01*
X149628269Y-103073810D02*
X149580650Y-102978572D01*
X149580650Y-102978572D02*
X149533030Y-102930953D01*
X149533030Y-102930953D02*
X149390173Y-102835715D01*
X149390173Y-102835715D02*
X149199697Y-102788096D01*
X149199697Y-102788096D02*
X148818745Y-102788096D01*
X148818745Y-102788096D02*
X148723507Y-102835715D01*
X148723507Y-102835715D02*
X148675888Y-102883334D01*
X148675888Y-102883334D02*
X148628269Y-102978572D01*
X148628269Y-102978572D02*
X148628269Y-103169048D01*
X148628269Y-103169048D02*
X148675888Y-103264286D01*
X148675888Y-103264286D02*
X148723507Y-103311905D01*
X148723507Y-103311905D02*
X148818745Y-103359524D01*
X148818745Y-103359524D02*
X149056840Y-103359524D01*
X149056840Y-103359524D02*
X149152078Y-103311905D01*
X149152078Y-103311905D02*
X149199697Y-103264286D01*
X149199697Y-103264286D02*
X149247316Y-103169048D01*
X149247316Y-103169048D02*
X149247316Y-102978572D01*
X149247316Y-102978572D02*
X149199697Y-102883334D01*
X149199697Y-102883334D02*
X149152078Y-102835715D01*
X149152078Y-102835715D02*
X149056840Y-102788096D01*
X160928140Y-76727980D02*
X160880521Y-76775600D01*
X160880521Y-76775600D02*
X160737664Y-76823219D01*
X160737664Y-76823219D02*
X160642426Y-76823219D01*
X160642426Y-76823219D02*
X160499569Y-76775600D01*
X160499569Y-76775600D02*
X160404331Y-76680361D01*
X160404331Y-76680361D02*
X160356712Y-76585123D01*
X160356712Y-76585123D02*
X160309093Y-76394647D01*
X160309093Y-76394647D02*
X160309093Y-76251790D01*
X160309093Y-76251790D02*
X160356712Y-76061314D01*
X160356712Y-76061314D02*
X160404331Y-75966076D01*
X160404331Y-75966076D02*
X160499569Y-75870838D01*
X160499569Y-75870838D02*
X160642426Y-75823219D01*
X160642426Y-75823219D02*
X160737664Y-75823219D01*
X160737664Y-75823219D02*
X160880521Y-75870838D01*
X160880521Y-75870838D02*
X160928140Y-75918457D01*
X161261474Y-75823219D02*
X161880521Y-75823219D01*
X161880521Y-75823219D02*
X161547188Y-76204171D01*
X161547188Y-76204171D02*
X161690045Y-76204171D01*
X161690045Y-76204171D02*
X161785283Y-76251790D01*
X161785283Y-76251790D02*
X161832902Y-76299409D01*
X161832902Y-76299409D02*
X161880521Y-76394647D01*
X161880521Y-76394647D02*
X161880521Y-76632742D01*
X161880521Y-76632742D02*
X161832902Y-76727980D01*
X161832902Y-76727980D02*
X161785283Y-76775600D01*
X161785283Y-76775600D02*
X161690045Y-76823219D01*
X161690045Y-76823219D02*
X161404331Y-76823219D01*
X161404331Y-76823219D02*
X161309093Y-76775600D01*
X161309093Y-76775600D02*
X161261474Y-76727980D01*
X162737664Y-76156552D02*
X162737664Y-76823219D01*
X162499569Y-75775600D02*
X162261474Y-76489885D01*
X162261474Y-76489885D02*
X162880521Y-76489885D01*
X145000817Y-77056256D02*
X144524626Y-77389589D01*
X145000817Y-77627684D02*
X144000817Y-77627684D01*
X144000817Y-77627684D02*
X144000817Y-77246732D01*
X144000817Y-77246732D02*
X144048436Y-77151494D01*
X144048436Y-77151494D02*
X144096055Y-77103875D01*
X144096055Y-77103875D02*
X144191293Y-77056256D01*
X144191293Y-77056256D02*
X144334150Y-77056256D01*
X144334150Y-77056256D02*
X144429388Y-77103875D01*
X144429388Y-77103875D02*
X144477007Y-77151494D01*
X144477007Y-77151494D02*
X144524626Y-77246732D01*
X144524626Y-77246732D02*
X144524626Y-77627684D01*
X144096055Y-76675303D02*
X144048436Y-76627684D01*
X144048436Y-76627684D02*
X144000817Y-76532446D01*
X144000817Y-76532446D02*
X144000817Y-76294351D01*
X144000817Y-76294351D02*
X144048436Y-76199113D01*
X144048436Y-76199113D02*
X144096055Y-76151494D01*
X144096055Y-76151494D02*
X144191293Y-76103875D01*
X144191293Y-76103875D02*
X144286531Y-76103875D01*
X144286531Y-76103875D02*
X144429388Y-76151494D01*
X144429388Y-76151494D02*
X145000817Y-76722922D01*
X145000817Y-76722922D02*
X145000817Y-76103875D01*
X144334150Y-75246732D02*
X145000817Y-75246732D01*
X143953198Y-75484827D02*
X144667483Y-75722922D01*
X144667483Y-75722922D02*
X144667483Y-75103875D01*
X165555820Y-76741256D02*
X165079629Y-77074589D01*
X165555820Y-77312684D02*
X164555820Y-77312684D01*
X164555820Y-77312684D02*
X164555820Y-76931732D01*
X164555820Y-76931732D02*
X164603439Y-76836494D01*
X164603439Y-76836494D02*
X164651058Y-76788875D01*
X164651058Y-76788875D02*
X164746296Y-76741256D01*
X164746296Y-76741256D02*
X164889153Y-76741256D01*
X164889153Y-76741256D02*
X164984391Y-76788875D01*
X164984391Y-76788875D02*
X165032010Y-76836494D01*
X165032010Y-76836494D02*
X165079629Y-76931732D01*
X165079629Y-76931732D02*
X165079629Y-77312684D01*
X164555820Y-76407922D02*
X164555820Y-75788875D01*
X164555820Y-75788875D02*
X164936772Y-76122208D01*
X164936772Y-76122208D02*
X164936772Y-75979351D01*
X164936772Y-75979351D02*
X164984391Y-75884113D01*
X164984391Y-75884113D02*
X165032010Y-75836494D01*
X165032010Y-75836494D02*
X165127248Y-75788875D01*
X165127248Y-75788875D02*
X165365343Y-75788875D01*
X165365343Y-75788875D02*
X165460581Y-75836494D01*
X165460581Y-75836494D02*
X165508201Y-75884113D01*
X165508201Y-75884113D02*
X165555820Y-75979351D01*
X165555820Y-75979351D02*
X165555820Y-76265065D01*
X165555820Y-76265065D02*
X165508201Y-76360303D01*
X165508201Y-76360303D02*
X165460581Y-76407922D01*
X164555820Y-75455541D02*
X164555820Y-74788875D01*
X164555820Y-74788875D02*
X165555820Y-75217446D01*
X117794642Y-94574819D02*
X117461309Y-94098628D01*
X117223214Y-94574819D02*
X117223214Y-93574819D01*
X117223214Y-93574819D02*
X117604166Y-93574819D01*
X117604166Y-93574819D02*
X117699404Y-93622438D01*
X117699404Y-93622438D02*
X117747023Y-93670057D01*
X117747023Y-93670057D02*
X117794642Y-93765295D01*
X117794642Y-93765295D02*
X117794642Y-93908152D01*
X117794642Y-93908152D02*
X117747023Y-94003390D01*
X117747023Y-94003390D02*
X117699404Y-94051009D01*
X117699404Y-94051009D02*
X117604166Y-94098628D01*
X117604166Y-94098628D02*
X117223214Y-94098628D01*
X118747023Y-94574819D02*
X118175595Y-94574819D01*
X118461309Y-94574819D02*
X118461309Y-93574819D01*
X118461309Y-93574819D02*
X118366071Y-93717676D01*
X118366071Y-93717676D02*
X118270833Y-93812914D01*
X118270833Y-93812914D02*
X118175595Y-93860533D01*
X119651785Y-93574819D02*
X119175595Y-93574819D01*
X119175595Y-93574819D02*
X119127976Y-94051009D01*
X119127976Y-94051009D02*
X119175595Y-94003390D01*
X119175595Y-94003390D02*
X119270833Y-93955771D01*
X119270833Y-93955771D02*
X119508928Y-93955771D01*
X119508928Y-93955771D02*
X119604166Y-94003390D01*
X119604166Y-94003390D02*
X119651785Y-94051009D01*
X119651785Y-94051009D02*
X119699404Y-94146247D01*
X119699404Y-94146247D02*
X119699404Y-94384342D01*
X119699404Y-94384342D02*
X119651785Y-94479580D01*
X119651785Y-94479580D02*
X119604166Y-94527200D01*
X119604166Y-94527200D02*
X119508928Y-94574819D01*
X119508928Y-94574819D02*
X119270833Y-94574819D01*
X119270833Y-94574819D02*
X119175595Y-94527200D01*
X119175595Y-94527200D02*
X119127976Y-94479580D01*
X151925817Y-77056256D02*
X151449626Y-77389589D01*
X151925817Y-77627684D02*
X150925817Y-77627684D01*
X150925817Y-77627684D02*
X150925817Y-77246732D01*
X150925817Y-77246732D02*
X150973436Y-77151494D01*
X150973436Y-77151494D02*
X151021055Y-77103875D01*
X151021055Y-77103875D02*
X151116293Y-77056256D01*
X151116293Y-77056256D02*
X151259150Y-77056256D01*
X151259150Y-77056256D02*
X151354388Y-77103875D01*
X151354388Y-77103875D02*
X151402007Y-77151494D01*
X151402007Y-77151494D02*
X151449626Y-77246732D01*
X151449626Y-77246732D02*
X151449626Y-77627684D01*
X151021055Y-76675303D02*
X150973436Y-76627684D01*
X150973436Y-76627684D02*
X150925817Y-76532446D01*
X150925817Y-76532446D02*
X150925817Y-76294351D01*
X150925817Y-76294351D02*
X150973436Y-76199113D01*
X150973436Y-76199113D02*
X151021055Y-76151494D01*
X151021055Y-76151494D02*
X151116293Y-76103875D01*
X151116293Y-76103875D02*
X151211531Y-76103875D01*
X151211531Y-76103875D02*
X151354388Y-76151494D01*
X151354388Y-76151494D02*
X151925817Y-76722922D01*
X151925817Y-76722922D02*
X151925817Y-76103875D01*
X150925817Y-75246732D02*
X150925817Y-75437208D01*
X150925817Y-75437208D02*
X150973436Y-75532446D01*
X150973436Y-75532446D02*
X151021055Y-75580065D01*
X151021055Y-75580065D02*
X151163912Y-75675303D01*
X151163912Y-75675303D02*
X151354388Y-75722922D01*
X151354388Y-75722922D02*
X151735340Y-75722922D01*
X151735340Y-75722922D02*
X151830578Y-75675303D01*
X151830578Y-75675303D02*
X151878198Y-75627684D01*
X151878198Y-75627684D02*
X151925817Y-75532446D01*
X151925817Y-75532446D02*
X151925817Y-75341970D01*
X151925817Y-75341970D02*
X151878198Y-75246732D01*
X151878198Y-75246732D02*
X151830578Y-75199113D01*
X151830578Y-75199113D02*
X151735340Y-75151494D01*
X151735340Y-75151494D02*
X151497245Y-75151494D01*
X151497245Y-75151494D02*
X151402007Y-75199113D01*
X151402007Y-75199113D02*
X151354388Y-75246732D01*
X151354388Y-75246732D02*
X151306769Y-75341970D01*
X151306769Y-75341970D02*
X151306769Y-75532446D01*
X151306769Y-75532446D02*
X151354388Y-75627684D01*
X151354388Y-75627684D02*
X151402007Y-75675303D01*
X151402007Y-75675303D02*
X151497245Y-75722922D01*
X135788096Y-81604818D02*
X135788096Y-82414341D01*
X135788096Y-82414341D02*
X135835715Y-82509579D01*
X135835715Y-82509579D02*
X135883334Y-82557199D01*
X135883334Y-82557199D02*
X135978572Y-82604818D01*
X135978572Y-82604818D02*
X136169048Y-82604818D01*
X136169048Y-82604818D02*
X136264286Y-82557199D01*
X136264286Y-82557199D02*
X136311905Y-82509579D01*
X136311905Y-82509579D02*
X136359524Y-82414341D01*
X136359524Y-82414341D02*
X136359524Y-81604818D01*
X137359524Y-82604818D02*
X136788096Y-82604818D01*
X137073810Y-82604818D02*
X137073810Y-81604818D01*
X137073810Y-81604818D02*
X136978572Y-81747675D01*
X136978572Y-81747675D02*
X136883334Y-81842913D01*
X136883334Y-81842913D02*
X136788096Y-81890532D01*
X150519580Y-88041359D02*
X150567200Y-88088978D01*
X150567200Y-88088978D02*
X150614819Y-88231835D01*
X150614819Y-88231835D02*
X150614819Y-88327073D01*
X150614819Y-88327073D02*
X150567200Y-88469930D01*
X150567200Y-88469930D02*
X150471961Y-88565168D01*
X150471961Y-88565168D02*
X150376723Y-88612787D01*
X150376723Y-88612787D02*
X150186247Y-88660406D01*
X150186247Y-88660406D02*
X150043390Y-88660406D01*
X150043390Y-88660406D02*
X149852914Y-88612787D01*
X149852914Y-88612787D02*
X149757676Y-88565168D01*
X149757676Y-88565168D02*
X149662438Y-88469930D01*
X149662438Y-88469930D02*
X149614819Y-88327073D01*
X149614819Y-88327073D02*
X149614819Y-88231835D01*
X149614819Y-88231835D02*
X149662438Y-88088978D01*
X149662438Y-88088978D02*
X149710057Y-88041359D01*
X149948152Y-87184216D02*
X150614819Y-87184216D01*
X149567200Y-87422311D02*
X150281485Y-87660406D01*
X150281485Y-87660406D02*
X150281485Y-87041359D01*
X149614819Y-86469930D02*
X149614819Y-86374692D01*
X149614819Y-86374692D02*
X149662438Y-86279454D01*
X149662438Y-86279454D02*
X149710057Y-86231835D01*
X149710057Y-86231835D02*
X149805295Y-86184216D01*
X149805295Y-86184216D02*
X149995771Y-86136597D01*
X149995771Y-86136597D02*
X150233866Y-86136597D01*
X150233866Y-86136597D02*
X150424342Y-86184216D01*
X150424342Y-86184216D02*
X150519580Y-86231835D01*
X150519580Y-86231835D02*
X150567200Y-86279454D01*
X150567200Y-86279454D02*
X150614819Y-86374692D01*
X150614819Y-86374692D02*
X150614819Y-86469930D01*
X150614819Y-86469930D02*
X150567200Y-86565168D01*
X150567200Y-86565168D02*
X150519580Y-86612787D01*
X150519580Y-86612787D02*
X150424342Y-86660406D01*
X150424342Y-86660406D02*
X150233866Y-86708025D01*
X150233866Y-86708025D02*
X149995771Y-86708025D01*
X149995771Y-86708025D02*
X149805295Y-86660406D01*
X149805295Y-86660406D02*
X149710057Y-86612787D01*
X149710057Y-86612787D02*
X149662438Y-86565168D01*
X149662438Y-86565168D02*
X149614819Y-86469930D01*
X144649258Y-57572219D02*
X144315925Y-57096028D01*
X144077830Y-57572219D02*
X144077830Y-56572219D01*
X144077830Y-56572219D02*
X144458782Y-56572219D01*
X144458782Y-56572219D02*
X144554020Y-56619838D01*
X144554020Y-56619838D02*
X144601639Y-56667457D01*
X144601639Y-56667457D02*
X144649258Y-56762695D01*
X144649258Y-56762695D02*
X144649258Y-56905552D01*
X144649258Y-56905552D02*
X144601639Y-57000790D01*
X144601639Y-57000790D02*
X144554020Y-57048409D01*
X144554020Y-57048409D02*
X144458782Y-57096028D01*
X144458782Y-57096028D02*
X144077830Y-57096028D01*
X145030211Y-56667457D02*
X145077830Y-56619838D01*
X145077830Y-56619838D02*
X145173068Y-56572219D01*
X145173068Y-56572219D02*
X145411163Y-56572219D01*
X145411163Y-56572219D02*
X145506401Y-56619838D01*
X145506401Y-56619838D02*
X145554020Y-56667457D01*
X145554020Y-56667457D02*
X145601639Y-56762695D01*
X145601639Y-56762695D02*
X145601639Y-56857933D01*
X145601639Y-56857933D02*
X145554020Y-57000790D01*
X145554020Y-57000790D02*
X144982592Y-57572219D01*
X144982592Y-57572219D02*
X145601639Y-57572219D01*
X145982592Y-56667457D02*
X146030211Y-56619838D01*
X146030211Y-56619838D02*
X146125449Y-56572219D01*
X146125449Y-56572219D02*
X146363544Y-56572219D01*
X146363544Y-56572219D02*
X146458782Y-56619838D01*
X146458782Y-56619838D02*
X146506401Y-56667457D01*
X146506401Y-56667457D02*
X146554020Y-56762695D01*
X146554020Y-56762695D02*
X146554020Y-56857933D01*
X146554020Y-56857933D02*
X146506401Y-57000790D01*
X146506401Y-57000790D02*
X145934973Y-57572219D01*
X145934973Y-57572219D02*
X146554020Y-57572219D01*
X106928571Y-104731009D02*
X106595238Y-104731009D01*
X106595238Y-105254819D02*
X106595238Y-104254819D01*
X106595238Y-104254819D02*
X107071428Y-104254819D01*
X107452381Y-105254819D02*
X107452381Y-104254819D01*
X107928571Y-105254819D02*
X107928571Y-104254819D01*
X107928571Y-104254819D02*
X108166666Y-104254819D01*
X108166666Y-104254819D02*
X108309523Y-104302438D01*
X108309523Y-104302438D02*
X108404761Y-104397676D01*
X108404761Y-104397676D02*
X108452380Y-104492914D01*
X108452380Y-104492914D02*
X108499999Y-104683390D01*
X108499999Y-104683390D02*
X108499999Y-104826247D01*
X108499999Y-104826247D02*
X108452380Y-105016723D01*
X108452380Y-105016723D02*
X108404761Y-105111961D01*
X108404761Y-105111961D02*
X108309523Y-105207200D01*
X108309523Y-105207200D02*
X108166666Y-105254819D01*
X108166666Y-105254819D02*
X107928571Y-105254819D01*
X109452380Y-105254819D02*
X108880952Y-105254819D01*
X109166666Y-105254819D02*
X109166666Y-104254819D01*
X109166666Y-104254819D02*
X109071428Y-104397676D01*
X109071428Y-104397676D02*
X108976190Y-104492914D01*
X108976190Y-104492914D02*
X108880952Y-104540533D01*
X158840817Y-77056257D02*
X158364626Y-77389590D01*
X158840817Y-77627685D02*
X157840817Y-77627685D01*
X157840817Y-77627685D02*
X157840817Y-77246733D01*
X157840817Y-77246733D02*
X157888436Y-77151495D01*
X157888436Y-77151495D02*
X157936055Y-77103876D01*
X157936055Y-77103876D02*
X158031293Y-77056257D01*
X158031293Y-77056257D02*
X158174150Y-77056257D01*
X158174150Y-77056257D02*
X158269388Y-77103876D01*
X158269388Y-77103876D02*
X158317007Y-77151495D01*
X158317007Y-77151495D02*
X158364626Y-77246733D01*
X158364626Y-77246733D02*
X158364626Y-77627685D01*
X157936055Y-76675304D02*
X157888436Y-76627685D01*
X157888436Y-76627685D02*
X157840817Y-76532447D01*
X157840817Y-76532447D02*
X157840817Y-76294352D01*
X157840817Y-76294352D02*
X157888436Y-76199114D01*
X157888436Y-76199114D02*
X157936055Y-76151495D01*
X157936055Y-76151495D02*
X158031293Y-76103876D01*
X158031293Y-76103876D02*
X158126531Y-76103876D01*
X158126531Y-76103876D02*
X158269388Y-76151495D01*
X158269388Y-76151495D02*
X158840817Y-76722923D01*
X158840817Y-76722923D02*
X158840817Y-76103876D01*
X158269388Y-75532447D02*
X158221769Y-75627685D01*
X158221769Y-75627685D02*
X158174150Y-75675304D01*
X158174150Y-75675304D02*
X158078912Y-75722923D01*
X158078912Y-75722923D02*
X158031293Y-75722923D01*
X158031293Y-75722923D02*
X157936055Y-75675304D01*
X157936055Y-75675304D02*
X157888436Y-75627685D01*
X157888436Y-75627685D02*
X157840817Y-75532447D01*
X157840817Y-75532447D02*
X157840817Y-75341971D01*
X157840817Y-75341971D02*
X157888436Y-75246733D01*
X157888436Y-75246733D02*
X157936055Y-75199114D01*
X157936055Y-75199114D02*
X158031293Y-75151495D01*
X158031293Y-75151495D02*
X158078912Y-75151495D01*
X158078912Y-75151495D02*
X158174150Y-75199114D01*
X158174150Y-75199114D02*
X158221769Y-75246733D01*
X158221769Y-75246733D02*
X158269388Y-75341971D01*
X158269388Y-75341971D02*
X158269388Y-75532447D01*
X158269388Y-75532447D02*
X158317007Y-75627685D01*
X158317007Y-75627685D02*
X158364626Y-75675304D01*
X158364626Y-75675304D02*
X158459864Y-75722923D01*
X158459864Y-75722923D02*
X158650340Y-75722923D01*
X158650340Y-75722923D02*
X158745578Y-75675304D01*
X158745578Y-75675304D02*
X158793198Y-75627685D01*
X158793198Y-75627685D02*
X158840817Y-75532447D01*
X158840817Y-75532447D02*
X158840817Y-75341971D01*
X158840817Y-75341971D02*
X158793198Y-75246733D01*
X158793198Y-75246733D02*
X158745578Y-75199114D01*
X158745578Y-75199114D02*
X158650340Y-75151495D01*
X158650340Y-75151495D02*
X158459864Y-75151495D01*
X158459864Y-75151495D02*
X158364626Y-75199114D01*
X158364626Y-75199114D02*
X158317007Y-75246733D01*
X158317007Y-75246733D02*
X158269388Y-75341971D01*
X154136783Y-83328081D02*
X154089164Y-83375701D01*
X154089164Y-83375701D02*
X153946307Y-83423320D01*
X153946307Y-83423320D02*
X153851069Y-83423320D01*
X153851069Y-83423320D02*
X153708212Y-83375701D01*
X153708212Y-83375701D02*
X153612974Y-83280462D01*
X153612974Y-83280462D02*
X153565355Y-83185224D01*
X153565355Y-83185224D02*
X153517736Y-82994748D01*
X153517736Y-82994748D02*
X153517736Y-82851891D01*
X153517736Y-82851891D02*
X153565355Y-82661415D01*
X153565355Y-82661415D02*
X153612974Y-82566177D01*
X153612974Y-82566177D02*
X153708212Y-82470939D01*
X153708212Y-82470939D02*
X153851069Y-82423320D01*
X153851069Y-82423320D02*
X153946307Y-82423320D01*
X153946307Y-82423320D02*
X154089164Y-82470939D01*
X154089164Y-82470939D02*
X154136783Y-82518558D01*
X155136783Y-83423320D02*
X154803450Y-82947129D01*
X154565355Y-83423320D02*
X154565355Y-82423320D01*
X154565355Y-82423320D02*
X154946307Y-82423320D01*
X154946307Y-82423320D02*
X155041545Y-82470939D01*
X155041545Y-82470939D02*
X155089164Y-82518558D01*
X155089164Y-82518558D02*
X155136783Y-82613796D01*
X155136783Y-82613796D02*
X155136783Y-82756653D01*
X155136783Y-82756653D02*
X155089164Y-82851891D01*
X155089164Y-82851891D02*
X155041545Y-82899510D01*
X155041545Y-82899510D02*
X154946307Y-82947129D01*
X154946307Y-82947129D02*
X154565355Y-82947129D01*
X155517736Y-82518558D02*
X155565355Y-82470939D01*
X155565355Y-82470939D02*
X155660593Y-82423320D01*
X155660593Y-82423320D02*
X155898688Y-82423320D01*
X155898688Y-82423320D02*
X155993926Y-82470939D01*
X155993926Y-82470939D02*
X156041545Y-82518558D01*
X156041545Y-82518558D02*
X156089164Y-82613796D01*
X156089164Y-82613796D02*
X156089164Y-82709034D01*
X156089164Y-82709034D02*
X156041545Y-82851891D01*
X156041545Y-82851891D02*
X155470117Y-83423320D01*
X155470117Y-83423320D02*
X156089164Y-83423320D01*
X151900100Y-82847720D02*
X151900100Y-83085815D01*
X151662005Y-82990577D02*
X151900100Y-83085815D01*
X151900100Y-83085815D02*
X152138195Y-82990577D01*
X151757243Y-83276291D02*
X151900100Y-83085815D01*
X151900100Y-83085815D02*
X152042957Y-83276291D01*
X151900100Y-82847720D02*
X151900100Y-83085815D01*
X151662005Y-82990577D02*
X151900100Y-83085815D01*
X151900100Y-83085815D02*
X152138195Y-82990577D01*
X151757243Y-83276291D02*
X151900100Y-83085815D01*
X151900100Y-83085815D02*
X152042957Y-83276291D01*
X147088143Y-76757980D02*
X147040524Y-76805600D01*
X147040524Y-76805600D02*
X146897667Y-76853219D01*
X146897667Y-76853219D02*
X146802429Y-76853219D01*
X146802429Y-76853219D02*
X146659572Y-76805600D01*
X146659572Y-76805600D02*
X146564334Y-76710361D01*
X146564334Y-76710361D02*
X146516715Y-76615123D01*
X146516715Y-76615123D02*
X146469096Y-76424647D01*
X146469096Y-76424647D02*
X146469096Y-76281790D01*
X146469096Y-76281790D02*
X146516715Y-76091314D01*
X146516715Y-76091314D02*
X146564334Y-75996076D01*
X146564334Y-75996076D02*
X146659572Y-75900838D01*
X146659572Y-75900838D02*
X146802429Y-75853219D01*
X146802429Y-75853219D02*
X146897667Y-75853219D01*
X146897667Y-75853219D02*
X147040524Y-75900838D01*
X147040524Y-75900838D02*
X147088143Y-75948457D01*
X147421477Y-75853219D02*
X148040524Y-75853219D01*
X148040524Y-75853219D02*
X147707191Y-76234171D01*
X147707191Y-76234171D02*
X147850048Y-76234171D01*
X147850048Y-76234171D02*
X147945286Y-76281790D01*
X147945286Y-76281790D02*
X147992905Y-76329409D01*
X147992905Y-76329409D02*
X148040524Y-76424647D01*
X148040524Y-76424647D02*
X148040524Y-76662742D01*
X148040524Y-76662742D02*
X147992905Y-76757980D01*
X147992905Y-76757980D02*
X147945286Y-76805600D01*
X147945286Y-76805600D02*
X147850048Y-76853219D01*
X147850048Y-76853219D02*
X147564334Y-76853219D01*
X147564334Y-76853219D02*
X147469096Y-76805600D01*
X147469096Y-76805600D02*
X147421477Y-76757980D01*
X148659572Y-75853219D02*
X148754810Y-75853219D01*
X148754810Y-75853219D02*
X148850048Y-75900838D01*
X148850048Y-75900838D02*
X148897667Y-75948457D01*
X148897667Y-75948457D02*
X148945286Y-76043695D01*
X148945286Y-76043695D02*
X148992905Y-76234171D01*
X148992905Y-76234171D02*
X148992905Y-76472266D01*
X148992905Y-76472266D02*
X148945286Y-76662742D01*
X148945286Y-76662742D02*
X148897667Y-76757980D01*
X148897667Y-76757980D02*
X148850048Y-76805600D01*
X148850048Y-76805600D02*
X148754810Y-76853219D01*
X148754810Y-76853219D02*
X148659572Y-76853219D01*
X148659572Y-76853219D02*
X148564334Y-76805600D01*
X148564334Y-76805600D02*
X148516715Y-76757980D01*
X148516715Y-76757980D02*
X148469096Y-76662742D01*
X148469096Y-76662742D02*
X148421477Y-76472266D01*
X148421477Y-76472266D02*
X148421477Y-76234171D01*
X148421477Y-76234171D02*
X148469096Y-76043695D01*
X148469096Y-76043695D02*
X148516715Y-75948457D01*
X148516715Y-75948457D02*
X148564334Y-75900838D01*
X148564334Y-75900838D02*
X148659572Y-75853219D01*
X136404761Y-65665757D02*
X136309523Y-65618138D01*
X136309523Y-65618138D02*
X136214285Y-65522900D01*
X136214285Y-65522900D02*
X136071428Y-65380042D01*
X136071428Y-65380042D02*
X135976190Y-65332423D01*
X135976190Y-65332423D02*
X135880952Y-65332423D01*
X135928571Y-65570519D02*
X135833333Y-65522900D01*
X135833333Y-65522900D02*
X135738095Y-65427661D01*
X135738095Y-65427661D02*
X135690476Y-65237185D01*
X135690476Y-65237185D02*
X135690476Y-64903852D01*
X135690476Y-64903852D02*
X135738095Y-64713376D01*
X135738095Y-64713376D02*
X135833333Y-64618138D01*
X135833333Y-64618138D02*
X135928571Y-64570519D01*
X135928571Y-64570519D02*
X136119047Y-64570519D01*
X136119047Y-64570519D02*
X136214285Y-64618138D01*
X136214285Y-64618138D02*
X136309523Y-64713376D01*
X136309523Y-64713376D02*
X136357142Y-64903852D01*
X136357142Y-64903852D02*
X136357142Y-65237185D01*
X136357142Y-65237185D02*
X136309523Y-65427661D01*
X136309523Y-65427661D02*
X136214285Y-65522900D01*
X136214285Y-65522900D02*
X136119047Y-65570519D01*
X136119047Y-65570519D02*
X135928571Y-65570519D01*
X137309523Y-65570519D02*
X136738095Y-65570519D01*
X137023809Y-65570519D02*
X137023809Y-64570519D01*
X137023809Y-64570519D02*
X136928571Y-64713376D01*
X136928571Y-64713376D02*
X136833333Y-64808614D01*
X136833333Y-64808614D02*
X136738095Y-64856233D01*
X132500000Y-77070519D02*
X132500000Y-77308614D01*
X132261905Y-77213376D02*
X132500000Y-77308614D01*
X132500000Y-77308614D02*
X132738095Y-77213376D01*
X132357143Y-77499090D02*
X132500000Y-77308614D01*
X132500000Y-77308614D02*
X132642857Y-77499090D01*
X132500000Y-77070519D02*
X132500000Y-77308614D01*
X132261905Y-77213376D02*
X132500000Y-77308614D01*
X132500000Y-77308614D02*
X132738095Y-77213376D01*
X132357143Y-77499090D02*
X132500000Y-77308614D01*
X132500000Y-77308614D02*
X132642857Y-77499090D01*
X150523030Y-106122859D02*
X150570650Y-106170478D01*
X150570650Y-106170478D02*
X150618269Y-106313335D01*
X150618269Y-106313335D02*
X150618269Y-106408573D01*
X150618269Y-106408573D02*
X150570650Y-106551430D01*
X150570650Y-106551430D02*
X150475411Y-106646668D01*
X150475411Y-106646668D02*
X150380173Y-106694287D01*
X150380173Y-106694287D02*
X150189697Y-106741906D01*
X150189697Y-106741906D02*
X150046840Y-106741906D01*
X150046840Y-106741906D02*
X149856364Y-106694287D01*
X149856364Y-106694287D02*
X149761126Y-106646668D01*
X149761126Y-106646668D02*
X149665888Y-106551430D01*
X149665888Y-106551430D02*
X149618269Y-106408573D01*
X149618269Y-106408573D02*
X149618269Y-106313335D01*
X149618269Y-106313335D02*
X149665888Y-106170478D01*
X149665888Y-106170478D02*
X149713507Y-106122859D01*
X149618269Y-105789525D02*
X149618269Y-105170478D01*
X149618269Y-105170478D02*
X149999221Y-105503811D01*
X149999221Y-105503811D02*
X149999221Y-105360954D01*
X149999221Y-105360954D02*
X150046840Y-105265716D01*
X150046840Y-105265716D02*
X150094459Y-105218097D01*
X150094459Y-105218097D02*
X150189697Y-105170478D01*
X150189697Y-105170478D02*
X150427792Y-105170478D01*
X150427792Y-105170478D02*
X150523030Y-105218097D01*
X150523030Y-105218097D02*
X150570650Y-105265716D01*
X150570650Y-105265716D02*
X150618269Y-105360954D01*
X150618269Y-105360954D02*
X150618269Y-105646668D01*
X150618269Y-105646668D02*
X150570650Y-105741906D01*
X150570650Y-105741906D02*
X150523030Y-105789525D01*
X150046840Y-104599049D02*
X149999221Y-104694287D01*
X149999221Y-104694287D02*
X149951602Y-104741906D01*
X149951602Y-104741906D02*
X149856364Y-104789525D01*
X149856364Y-104789525D02*
X149808745Y-104789525D01*
X149808745Y-104789525D02*
X149713507Y-104741906D01*
X149713507Y-104741906D02*
X149665888Y-104694287D01*
X149665888Y-104694287D02*
X149618269Y-104599049D01*
X149618269Y-104599049D02*
X149618269Y-104408573D01*
X149618269Y-104408573D02*
X149665888Y-104313335D01*
X149665888Y-104313335D02*
X149713507Y-104265716D01*
X149713507Y-104265716D02*
X149808745Y-104218097D01*
X149808745Y-104218097D02*
X149856364Y-104218097D01*
X149856364Y-104218097D02*
X149951602Y-104265716D01*
X149951602Y-104265716D02*
X149999221Y-104313335D01*
X149999221Y-104313335D02*
X150046840Y-104408573D01*
X150046840Y-104408573D02*
X150046840Y-104599049D01*
X150046840Y-104599049D02*
X150094459Y-104694287D01*
X150094459Y-104694287D02*
X150142078Y-104741906D01*
X150142078Y-104741906D02*
X150237316Y-104789525D01*
X150237316Y-104789525D02*
X150427792Y-104789525D01*
X150427792Y-104789525D02*
X150523030Y-104741906D01*
X150523030Y-104741906D02*
X150570650Y-104694287D01*
X150570650Y-104694287D02*
X150618269Y-104599049D01*
X150618269Y-104599049D02*
X150618269Y-104408573D01*
X150618269Y-104408573D02*
X150570650Y-104313335D01*
X150570650Y-104313335D02*
X150523030Y-104265716D01*
X150523030Y-104265716D02*
X150427792Y-104218097D01*
X150427792Y-104218097D02*
X150237316Y-104218097D01*
X150237316Y-104218097D02*
X150142078Y-104265716D01*
X150142078Y-104265716D02*
X150094459Y-104313335D01*
X150094459Y-104313335D02*
X150046840Y-104408573D01*
X155166668Y-63954819D02*
X155166668Y-64669104D01*
X155166668Y-64669104D02*
X155119049Y-64811961D01*
X155119049Y-64811961D02*
X155023811Y-64907200D01*
X155023811Y-64907200D02*
X154880954Y-64954819D01*
X154880954Y-64954819D02*
X154785716Y-64954819D01*
X156071430Y-64288152D02*
X156071430Y-64954819D01*
X155833335Y-63907200D02*
X155595240Y-64621485D01*
X155595240Y-64621485D02*
X156214287Y-64621485D01*
X155560592Y-105569581D02*
X155512973Y-105617201D01*
X155512973Y-105617201D02*
X155370116Y-105664820D01*
X155370116Y-105664820D02*
X155274878Y-105664820D01*
X155274878Y-105664820D02*
X155132021Y-105617201D01*
X155132021Y-105617201D02*
X155036783Y-105521962D01*
X155036783Y-105521962D02*
X154989164Y-105426724D01*
X154989164Y-105426724D02*
X154941545Y-105236248D01*
X154941545Y-105236248D02*
X154941545Y-105093391D01*
X154941545Y-105093391D02*
X154989164Y-104902915D01*
X154989164Y-104902915D02*
X155036783Y-104807677D01*
X155036783Y-104807677D02*
X155132021Y-104712439D01*
X155132021Y-104712439D02*
X155274878Y-104664820D01*
X155274878Y-104664820D02*
X155370116Y-104664820D01*
X155370116Y-104664820D02*
X155512973Y-104712439D01*
X155512973Y-104712439D02*
X155560592Y-104760058D01*
X156417735Y-104998153D02*
X156417735Y-105664820D01*
X156179640Y-104617201D02*
X155941545Y-105331486D01*
X155941545Y-105331486D02*
X156560592Y-105331486D01*
X157465354Y-105664820D02*
X156893926Y-105664820D01*
X157179640Y-105664820D02*
X157179640Y-104664820D01*
X157179640Y-104664820D02*
X157084402Y-104807677D01*
X157084402Y-104807677D02*
X156989164Y-104902915D01*
X156989164Y-104902915D02*
X156893926Y-104950534D01*
X117794642Y-89949819D02*
X117461309Y-89473628D01*
X117223214Y-89949819D02*
X117223214Y-88949819D01*
X117223214Y-88949819D02*
X117604166Y-88949819D01*
X117604166Y-88949819D02*
X117699404Y-88997438D01*
X117699404Y-88997438D02*
X117747023Y-89045057D01*
X117747023Y-89045057D02*
X117794642Y-89140295D01*
X117794642Y-89140295D02*
X117794642Y-89283152D01*
X117794642Y-89283152D02*
X117747023Y-89378390D01*
X117747023Y-89378390D02*
X117699404Y-89426009D01*
X117699404Y-89426009D02*
X117604166Y-89473628D01*
X117604166Y-89473628D02*
X117223214Y-89473628D01*
X118747023Y-89949819D02*
X118175595Y-89949819D01*
X118461309Y-89949819D02*
X118461309Y-88949819D01*
X118461309Y-88949819D02*
X118366071Y-89092676D01*
X118366071Y-89092676D02*
X118270833Y-89187914D01*
X118270833Y-89187914D02*
X118175595Y-89235533D01*
X119080357Y-88949819D02*
X119699404Y-88949819D01*
X119699404Y-88949819D02*
X119366071Y-89330771D01*
X119366071Y-89330771D02*
X119508928Y-89330771D01*
X119508928Y-89330771D02*
X119604166Y-89378390D01*
X119604166Y-89378390D02*
X119651785Y-89426009D01*
X119651785Y-89426009D02*
X119699404Y-89521247D01*
X119699404Y-89521247D02*
X119699404Y-89759342D01*
X119699404Y-89759342D02*
X119651785Y-89854580D01*
X119651785Y-89854580D02*
X119604166Y-89902200D01*
X119604166Y-89902200D02*
X119508928Y-89949819D01*
X119508928Y-89949819D02*
X119223214Y-89949819D01*
X119223214Y-89949819D02*
X119127976Y-89902200D01*
X119127976Y-89902200D02*
X119080357Y-89854580D01*
X136857142Y-84489580D02*
X136809523Y-84537200D01*
X136809523Y-84537200D02*
X136666666Y-84584819D01*
X136666666Y-84584819D02*
X136571428Y-84584819D01*
X136571428Y-84584819D02*
X136428571Y-84537200D01*
X136428571Y-84537200D02*
X136333333Y-84441961D01*
X136333333Y-84441961D02*
X136285714Y-84346723D01*
X136285714Y-84346723D02*
X136238095Y-84156247D01*
X136238095Y-84156247D02*
X136238095Y-84013390D01*
X136238095Y-84013390D02*
X136285714Y-83822914D01*
X136285714Y-83822914D02*
X136333333Y-83727676D01*
X136333333Y-83727676D02*
X136428571Y-83632438D01*
X136428571Y-83632438D02*
X136571428Y-83584819D01*
X136571428Y-83584819D02*
X136666666Y-83584819D01*
X136666666Y-83584819D02*
X136809523Y-83632438D01*
X136809523Y-83632438D02*
X136857142Y-83680057D01*
X137238095Y-83680057D02*
X137285714Y-83632438D01*
X137285714Y-83632438D02*
X137380952Y-83584819D01*
X137380952Y-83584819D02*
X137619047Y-83584819D01*
X137619047Y-83584819D02*
X137714285Y-83632438D01*
X137714285Y-83632438D02*
X137761904Y-83680057D01*
X137761904Y-83680057D02*
X137809523Y-83775295D01*
X137809523Y-83775295D02*
X137809523Y-83870533D01*
X137809523Y-83870533D02*
X137761904Y-84013390D01*
X137761904Y-84013390D02*
X137190476Y-84584819D01*
X137190476Y-84584819D02*
X137809523Y-84584819D01*
X138666666Y-83584819D02*
X138476190Y-83584819D01*
X138476190Y-83584819D02*
X138380952Y-83632438D01*
X138380952Y-83632438D02*
X138333333Y-83680057D01*
X138333333Y-83680057D02*
X138238095Y-83822914D01*
X138238095Y-83822914D02*
X138190476Y-84013390D01*
X138190476Y-84013390D02*
X138190476Y-84394342D01*
X138190476Y-84394342D02*
X138238095Y-84489580D01*
X138238095Y-84489580D02*
X138285714Y-84537200D01*
X138285714Y-84537200D02*
X138380952Y-84584819D01*
X138380952Y-84584819D02*
X138571428Y-84584819D01*
X138571428Y-84584819D02*
X138666666Y-84537200D01*
X138666666Y-84537200D02*
X138714285Y-84489580D01*
X138714285Y-84489580D02*
X138761904Y-84394342D01*
X138761904Y-84394342D02*
X138761904Y-84156247D01*
X138761904Y-84156247D02*
X138714285Y-84061009D01*
X138714285Y-84061009D02*
X138666666Y-84013390D01*
X138666666Y-84013390D02*
X138571428Y-83965771D01*
X138571428Y-83965771D02*
X138380952Y-83965771D01*
X138380952Y-83965771D02*
X138285714Y-84013390D01*
X138285714Y-84013390D02*
X138238095Y-84061009D01*
X138238095Y-84061009D02*
X138190476Y-84156247D01*
X155607142Y-87488081D02*
X155559523Y-87535701D01*
X155559523Y-87535701D02*
X155416666Y-87583320D01*
X155416666Y-87583320D02*
X155321428Y-87583320D01*
X155321428Y-87583320D02*
X155178571Y-87535701D01*
X155178571Y-87535701D02*
X155083333Y-87440462D01*
X155083333Y-87440462D02*
X155035714Y-87345224D01*
X155035714Y-87345224D02*
X154988095Y-87154748D01*
X154988095Y-87154748D02*
X154988095Y-87011891D01*
X154988095Y-87011891D02*
X155035714Y-86821415D01*
X155035714Y-86821415D02*
X155083333Y-86726177D01*
X155083333Y-86726177D02*
X155178571Y-86630939D01*
X155178571Y-86630939D02*
X155321428Y-86583320D01*
X155321428Y-86583320D02*
X155416666Y-86583320D01*
X155416666Y-86583320D02*
X155559523Y-86630939D01*
X155559523Y-86630939D02*
X155607142Y-86678558D01*
X156464285Y-86916653D02*
X156464285Y-87583320D01*
X156226190Y-86535701D02*
X155988095Y-87249986D01*
X155988095Y-87249986D02*
X156607142Y-87249986D01*
X156940476Y-86678558D02*
X156988095Y-86630939D01*
X156988095Y-86630939D02*
X157083333Y-86583320D01*
X157083333Y-86583320D02*
X157321428Y-86583320D01*
X157321428Y-86583320D02*
X157416666Y-86630939D01*
X157416666Y-86630939D02*
X157464285Y-86678558D01*
X157464285Y-86678558D02*
X157511904Y-86773796D01*
X157511904Y-86773796D02*
X157511904Y-86869034D01*
X157511904Y-86869034D02*
X157464285Y-87011891D01*
X157464285Y-87011891D02*
X156892857Y-87583320D01*
X156892857Y-87583320D02*
X157511904Y-87583320D01*
X162808143Y-79047979D02*
X162760524Y-79095599D01*
X162760524Y-79095599D02*
X162617667Y-79143218D01*
X162617667Y-79143218D02*
X162522429Y-79143218D01*
X162522429Y-79143218D02*
X162379572Y-79095599D01*
X162379572Y-79095599D02*
X162284334Y-79000360D01*
X162284334Y-79000360D02*
X162236715Y-78905122D01*
X162236715Y-78905122D02*
X162189096Y-78714646D01*
X162189096Y-78714646D02*
X162189096Y-78571789D01*
X162189096Y-78571789D02*
X162236715Y-78381313D01*
X162236715Y-78381313D02*
X162284334Y-78286075D01*
X162284334Y-78286075D02*
X162379572Y-78190837D01*
X162379572Y-78190837D02*
X162522429Y-78143218D01*
X162522429Y-78143218D02*
X162617667Y-78143218D01*
X162617667Y-78143218D02*
X162760524Y-78190837D01*
X162760524Y-78190837D02*
X162808143Y-78238456D01*
X163141477Y-78143218D02*
X163760524Y-78143218D01*
X163760524Y-78143218D02*
X163427191Y-78524170D01*
X163427191Y-78524170D02*
X163570048Y-78524170D01*
X163570048Y-78524170D02*
X163665286Y-78571789D01*
X163665286Y-78571789D02*
X163712905Y-78619408D01*
X163712905Y-78619408D02*
X163760524Y-78714646D01*
X163760524Y-78714646D02*
X163760524Y-78952741D01*
X163760524Y-78952741D02*
X163712905Y-79047979D01*
X163712905Y-79047979D02*
X163665286Y-79095599D01*
X163665286Y-79095599D02*
X163570048Y-79143218D01*
X163570048Y-79143218D02*
X163284334Y-79143218D01*
X163284334Y-79143218D02*
X163189096Y-79095599D01*
X163189096Y-79095599D02*
X163141477Y-79047979D01*
X164665286Y-78143218D02*
X164189096Y-78143218D01*
X164189096Y-78143218D02*
X164141477Y-78619408D01*
X164141477Y-78619408D02*
X164189096Y-78571789D01*
X164189096Y-78571789D02*
X164284334Y-78524170D01*
X164284334Y-78524170D02*
X164522429Y-78524170D01*
X164522429Y-78524170D02*
X164617667Y-78571789D01*
X164617667Y-78571789D02*
X164665286Y-78619408D01*
X164665286Y-78619408D02*
X164712905Y-78714646D01*
X164712905Y-78714646D02*
X164712905Y-78952741D01*
X164712905Y-78952741D02*
X164665286Y-79047979D01*
X164665286Y-79047979D02*
X164617667Y-79095599D01*
X164617667Y-79095599D02*
X164522429Y-79143218D01*
X164522429Y-79143218D02*
X164284334Y-79143218D01*
X164284334Y-79143218D02*
X164189096Y-79095599D01*
X164189096Y-79095599D02*
X164141477Y-79047979D01*
X123595833Y-74962319D02*
X123262500Y-74486128D01*
X123024405Y-74962319D02*
X123024405Y-73962319D01*
X123024405Y-73962319D02*
X123405357Y-73962319D01*
X123405357Y-73962319D02*
X123500595Y-74009938D01*
X123500595Y-74009938D02*
X123548214Y-74057557D01*
X123548214Y-74057557D02*
X123595833Y-74152795D01*
X123595833Y-74152795D02*
X123595833Y-74295652D01*
X123595833Y-74295652D02*
X123548214Y-74390890D01*
X123548214Y-74390890D02*
X123500595Y-74438509D01*
X123500595Y-74438509D02*
X123405357Y-74486128D01*
X123405357Y-74486128D02*
X123024405Y-74486128D01*
X124452976Y-74295652D02*
X124452976Y-74962319D01*
X124214881Y-73914700D02*
X123976786Y-74628985D01*
X123976786Y-74628985D02*
X124595833Y-74628985D01*
X102988095Y-65054819D02*
X102988095Y-64054819D01*
X102988095Y-64531009D02*
X103559523Y-64531009D01*
X103559523Y-65054819D02*
X103559523Y-64054819D01*
X104464285Y-64388152D02*
X104464285Y-65054819D01*
X104226190Y-64007200D02*
X103988095Y-64721485D01*
X103988095Y-64721485D02*
X104607142Y-64721485D01*
X139158333Y-100429580D02*
X139110714Y-100477200D01*
X139110714Y-100477200D02*
X138967857Y-100524819D01*
X138967857Y-100524819D02*
X138872619Y-100524819D01*
X138872619Y-100524819D02*
X138729762Y-100477200D01*
X138729762Y-100477200D02*
X138634524Y-100381961D01*
X138634524Y-100381961D02*
X138586905Y-100286723D01*
X138586905Y-100286723D02*
X138539286Y-100096247D01*
X138539286Y-100096247D02*
X138539286Y-99953390D01*
X138539286Y-99953390D02*
X138586905Y-99762914D01*
X138586905Y-99762914D02*
X138634524Y-99667676D01*
X138634524Y-99667676D02*
X138729762Y-99572438D01*
X138729762Y-99572438D02*
X138872619Y-99524819D01*
X138872619Y-99524819D02*
X138967857Y-99524819D01*
X138967857Y-99524819D02*
X139110714Y-99572438D01*
X139110714Y-99572438D02*
X139158333Y-99620057D01*
X139634524Y-100524819D02*
X139825000Y-100524819D01*
X139825000Y-100524819D02*
X139920238Y-100477200D01*
X139920238Y-100477200D02*
X139967857Y-100429580D01*
X139967857Y-100429580D02*
X140063095Y-100286723D01*
X140063095Y-100286723D02*
X140110714Y-100096247D01*
X140110714Y-100096247D02*
X140110714Y-99715295D01*
X140110714Y-99715295D02*
X140063095Y-99620057D01*
X140063095Y-99620057D02*
X140015476Y-99572438D01*
X140015476Y-99572438D02*
X139920238Y-99524819D01*
X139920238Y-99524819D02*
X139729762Y-99524819D01*
X139729762Y-99524819D02*
X139634524Y-99572438D01*
X139634524Y-99572438D02*
X139586905Y-99620057D01*
X139586905Y-99620057D02*
X139539286Y-99715295D01*
X139539286Y-99715295D02*
X139539286Y-99953390D01*
X139539286Y-99953390D02*
X139586905Y-100048628D01*
X139586905Y-100048628D02*
X139634524Y-100096247D01*
X139634524Y-100096247D02*
X139729762Y-100143866D01*
X139729762Y-100143866D02*
X139920238Y-100143866D01*
X139920238Y-100143866D02*
X140015476Y-100096247D01*
X140015476Y-100096247D02*
X140063095Y-100048628D01*
X140063095Y-100048628D02*
X140110714Y-99953390D01*
X97788095Y-140506819D02*
X98359523Y-140506819D01*
X98073809Y-141506819D02*
X98073809Y-140506819D01*
X98692857Y-141506819D02*
X98692857Y-140506819D01*
X98692857Y-140506819D02*
X99073809Y-140506819D01*
X99073809Y-140506819D02*
X99169047Y-140554438D01*
X99169047Y-140554438D02*
X99216666Y-140602057D01*
X99216666Y-140602057D02*
X99264285Y-140697295D01*
X99264285Y-140697295D02*
X99264285Y-140840152D01*
X99264285Y-140840152D02*
X99216666Y-140935390D01*
X99216666Y-140935390D02*
X99169047Y-140983009D01*
X99169047Y-140983009D02*
X99073809Y-141030628D01*
X99073809Y-141030628D02*
X98692857Y-141030628D01*
X99597619Y-140506819D02*
X100216666Y-140506819D01*
X100216666Y-140506819D02*
X99883333Y-140887771D01*
X99883333Y-140887771D02*
X100026190Y-140887771D01*
X100026190Y-140887771D02*
X100121428Y-140935390D01*
X100121428Y-140935390D02*
X100169047Y-140983009D01*
X100169047Y-140983009D02*
X100216666Y-141078247D01*
X100216666Y-141078247D02*
X100216666Y-141316342D01*
X100216666Y-141316342D02*
X100169047Y-141411580D01*
X100169047Y-141411580D02*
X100121428Y-141459200D01*
X100121428Y-141459200D02*
X100026190Y-141506819D01*
X100026190Y-141506819D02*
X99740476Y-141506819D01*
X99740476Y-141506819D02*
X99645238Y-141459200D01*
X99645238Y-141459200D02*
X99597619Y-141411580D01*
X123595833Y-79587319D02*
X123262500Y-79111128D01*
X123024405Y-79587319D02*
X123024405Y-78587319D01*
X123024405Y-78587319D02*
X123405357Y-78587319D01*
X123405357Y-78587319D02*
X123500595Y-78634938D01*
X123500595Y-78634938D02*
X123548214Y-78682557D01*
X123548214Y-78682557D02*
X123595833Y-78777795D01*
X123595833Y-78777795D02*
X123595833Y-78920652D01*
X123595833Y-78920652D02*
X123548214Y-79015890D01*
X123548214Y-79015890D02*
X123500595Y-79063509D01*
X123500595Y-79063509D02*
X123405357Y-79111128D01*
X123405357Y-79111128D02*
X123024405Y-79111128D01*
X124452976Y-78587319D02*
X124262500Y-78587319D01*
X124262500Y-78587319D02*
X124167262Y-78634938D01*
X124167262Y-78634938D02*
X124119643Y-78682557D01*
X124119643Y-78682557D02*
X124024405Y-78825414D01*
X124024405Y-78825414D02*
X123976786Y-79015890D01*
X123976786Y-79015890D02*
X123976786Y-79396842D01*
X123976786Y-79396842D02*
X124024405Y-79492080D01*
X124024405Y-79492080D02*
X124072024Y-79539700D01*
X124072024Y-79539700D02*
X124167262Y-79587319D01*
X124167262Y-79587319D02*
X124357738Y-79587319D01*
X124357738Y-79587319D02*
X124452976Y-79539700D01*
X124452976Y-79539700D02*
X124500595Y-79492080D01*
X124500595Y-79492080D02*
X124548214Y-79396842D01*
X124548214Y-79396842D02*
X124548214Y-79158747D01*
X124548214Y-79158747D02*
X124500595Y-79063509D01*
X124500595Y-79063509D02*
X124452976Y-79015890D01*
X124452976Y-79015890D02*
X124357738Y-78968271D01*
X124357738Y-78968271D02*
X124167262Y-78968271D01*
X124167262Y-78968271D02*
X124072024Y-79015890D01*
X124072024Y-79015890D02*
X124024405Y-79063509D01*
X124024405Y-79063509D02*
X123976786Y-79158747D01*
X149760592Y-104284821D02*
X149427259Y-103808630D01*
X149189164Y-104284821D02*
X149189164Y-103284821D01*
X149189164Y-103284821D02*
X149570116Y-103284821D01*
X149570116Y-103284821D02*
X149665354Y-103332440D01*
X149665354Y-103332440D02*
X149712973Y-103380059D01*
X149712973Y-103380059D02*
X149760592Y-103475297D01*
X149760592Y-103475297D02*
X149760592Y-103618154D01*
X149760592Y-103618154D02*
X149712973Y-103713392D01*
X149712973Y-103713392D02*
X149665354Y-103761011D01*
X149665354Y-103761011D02*
X149570116Y-103808630D01*
X149570116Y-103808630D02*
X149189164Y-103808630D01*
X150617735Y-103618154D02*
X150617735Y-104284821D01*
X150379640Y-103237202D02*
X150141545Y-103951487D01*
X150141545Y-103951487D02*
X150760592Y-103951487D01*
X151093926Y-103380059D02*
X151141545Y-103332440D01*
X151141545Y-103332440D02*
X151236783Y-103284821D01*
X151236783Y-103284821D02*
X151474878Y-103284821D01*
X151474878Y-103284821D02*
X151570116Y-103332440D01*
X151570116Y-103332440D02*
X151617735Y-103380059D01*
X151617735Y-103380059D02*
X151665354Y-103475297D01*
X151665354Y-103475297D02*
X151665354Y-103570535D01*
X151665354Y-103570535D02*
X151617735Y-103713392D01*
X151617735Y-103713392D02*
X151046307Y-104284821D01*
X151046307Y-104284821D02*
X151665354Y-104284821D01*
X118270833Y-66824819D02*
X117937500Y-66348628D01*
X117699405Y-66824819D02*
X117699405Y-65824819D01*
X117699405Y-65824819D02*
X118080357Y-65824819D01*
X118080357Y-65824819D02*
X118175595Y-65872438D01*
X118175595Y-65872438D02*
X118223214Y-65920057D01*
X118223214Y-65920057D02*
X118270833Y-66015295D01*
X118270833Y-66015295D02*
X118270833Y-66158152D01*
X118270833Y-66158152D02*
X118223214Y-66253390D01*
X118223214Y-66253390D02*
X118175595Y-66301009D01*
X118175595Y-66301009D02*
X118080357Y-66348628D01*
X118080357Y-66348628D02*
X117699405Y-66348628D01*
X118604167Y-65824819D02*
X119223214Y-65824819D01*
X119223214Y-65824819D02*
X118889881Y-66205771D01*
X118889881Y-66205771D02*
X119032738Y-66205771D01*
X119032738Y-66205771D02*
X119127976Y-66253390D01*
X119127976Y-66253390D02*
X119175595Y-66301009D01*
X119175595Y-66301009D02*
X119223214Y-66396247D01*
X119223214Y-66396247D02*
X119223214Y-66634342D01*
X119223214Y-66634342D02*
X119175595Y-66729580D01*
X119175595Y-66729580D02*
X119127976Y-66777200D01*
X119127976Y-66777200D02*
X119032738Y-66824819D01*
X119032738Y-66824819D02*
X118747024Y-66824819D01*
X118747024Y-66824819D02*
X118651786Y-66777200D01*
X118651786Y-66777200D02*
X118604167Y-66729580D01*
X87211905Y-142556819D02*
X87783333Y-142556819D01*
X87497619Y-143556819D02*
X87497619Y-142556819D01*
X88116667Y-143556819D02*
X88116667Y-142556819D01*
X88116667Y-142556819D02*
X88497619Y-142556819D01*
X88497619Y-142556819D02*
X88592857Y-142604438D01*
X88592857Y-142604438D02*
X88640476Y-142652057D01*
X88640476Y-142652057D02*
X88688095Y-142747295D01*
X88688095Y-142747295D02*
X88688095Y-142890152D01*
X88688095Y-142890152D02*
X88640476Y-142985390D01*
X88640476Y-142985390D02*
X88592857Y-143033009D01*
X88592857Y-143033009D02*
X88497619Y-143080628D01*
X88497619Y-143080628D02*
X88116667Y-143080628D01*
X89640476Y-143556819D02*
X89069048Y-143556819D01*
X89354762Y-143556819D02*
X89354762Y-142556819D01*
X89354762Y-142556819D02*
X89259524Y-142699676D01*
X89259524Y-142699676D02*
X89164286Y-142794914D01*
X89164286Y-142794914D02*
X89069048Y-142842533D01*
X90497619Y-142890152D02*
X90497619Y-143556819D01*
X90259524Y-142509200D02*
X90021429Y-143223485D01*
X90021429Y-143223485D02*
X90640476Y-143223485D01*
%TO.C,R2*%
D11*
X123525242Y-70790000D02*
X123999758Y-70790000D01*
X123525242Y-71835000D02*
X123999758Y-71835000D01*
%TO.C,R34*%
X153795998Y-75944758D02*
X153795998Y-76252040D01*
X154555998Y-75944758D02*
X154555998Y-76252040D01*
%TO.C,R9*%
X116260436Y-81165000D02*
X120614564Y-81165000D01*
X116260436Y-84585000D02*
X120614564Y-84585000D01*
%TO.C,C39*%
X148640000Y-84646336D02*
X148640000Y-84430664D01*
X149360000Y-84646336D02*
X149360000Y-84430664D01*
%TO.C,C1*%
X129715580Y-84740000D02*
X129434420Y-84740000D01*
X129715580Y-85760000D02*
X129434420Y-85760000D01*
%TO.C,D2*%
D12*
X136522100Y-80250700D02*
X136522100Y-80514860D01*
X136522100Y-81485140D02*
X136522100Y-81749300D01*
X136522100Y-81749300D02*
X138477900Y-81749300D01*
X138477900Y-80250700D02*
X136522100Y-80250700D01*
X138477900Y-80514860D02*
X138477900Y-80250700D01*
X138477900Y-81749300D02*
X138477900Y-81485140D01*
%TO.C,C27*%
D11*
X139765000Y-78282836D02*
X139765000Y-78067164D01*
X140485000Y-78282836D02*
X140485000Y-78067164D01*
%TO.C,J3*%
D12*
X99857000Y-76298602D02*
X99857000Y-98701402D01*
X99857000Y-98701402D02*
X110017000Y-98701402D01*
X110017000Y-76298602D02*
X99857000Y-76298602D01*
X110017000Y-98701402D02*
X110017000Y-76298602D01*
D13*
X109217500Y-99590402D02*
G75*
G02*
X108582500Y-99590402I-317500J0D01*
G01*
X108582500Y-99590402D02*
G75*
G02*
X109217500Y-99590402I317500J0D01*
G01*
%TO.C,C29*%
D11*
X142803837Y-77198400D02*
X142588165Y-77198400D01*
X142803837Y-77918400D02*
X142588165Y-77918400D01*
%TO.C,R25*%
X150853498Y-76650657D02*
X150853498Y-76176141D01*
X151898498Y-76650657D02*
X151898498Y-76176141D01*
%TO.C,R32*%
X146871001Y-75944758D02*
X146871001Y-76252040D01*
X147631001Y-75944758D02*
X147631001Y-76252040D01*
%TO.C,R38*%
X167640998Y-75944758D02*
X167640998Y-76252040D01*
X168400998Y-75944758D02*
X168400998Y-76252040D01*
%TO.C,J1*%
D12*
X168710399Y-99047000D02*
X168710399Y-108953000D01*
X168710399Y-108953000D02*
X170433807Y-108953000D01*
X170433807Y-99047000D02*
X168710399Y-99047000D01*
X172166193Y-108953000D02*
X174526999Y-108953000D01*
X174526999Y-99047000D02*
X172166193Y-99047000D01*
X174526999Y-108953000D02*
X174526999Y-99047000D01*
D13*
X171617500Y-109897901D02*
G75*
G02*
X170982500Y-109897901I-317500J0D01*
G01*
X170982500Y-109897901D02*
G75*
G02*
X171617500Y-109897901I317500J0D01*
G01*
%TO.C,TP8*%
D11*
X108350000Y-147100000D02*
G75*
G02*
X105950000Y-147100000I-1200000J0D01*
G01*
X105950000Y-147100000D02*
G75*
G02*
X108350000Y-147100000I1200000J0D01*
G01*
%TO.C,R16*%
X123525242Y-103165000D02*
X123999758Y-103165000D01*
X123525242Y-104210000D02*
X123999758Y-104210000D01*
%TO.C,C33*%
X156648837Y-77168400D02*
X156433165Y-77168400D01*
X156648837Y-77888400D02*
X156433165Y-77888400D01*
%TO.C,R19*%
X116260436Y-104290000D02*
X120614564Y-104290000D01*
X116260436Y-107710000D02*
X120614564Y-107710000D01*
%TO.C,CR1*%
D12*
X152477950Y-103674040D02*
X152477950Y-104425962D01*
X152477950Y-105675601D02*
X154128950Y-105675601D01*
X154128950Y-102424401D02*
X152477950Y-102424401D01*
X154128950Y-103475961D02*
X154128950Y-102424401D01*
X154128950Y-105675601D02*
X154128950Y-104624041D01*
%TO.C,TP12*%
D11*
X90150000Y-137000000D02*
G75*
G02*
X87750000Y-137000000I-1200000J0D01*
G01*
X87750000Y-137000000D02*
G75*
G02*
X90150000Y-137000000I1200000J0D01*
G01*
%TO.C,R17*%
X116260436Y-99665000D02*
X120614564Y-99665000D01*
X116260436Y-103085000D02*
X120614564Y-103085000D01*
%TO.C,R23*%
X143928498Y-76650657D02*
X143928498Y-76176141D01*
X144973498Y-76650657D02*
X144973498Y-76176141D01*
%TO.C,D1*%
D14*
X144766100Y-58992000D02*
X144308900Y-58992000D01*
X144778800Y-60008000D02*
X144296200Y-60008000D01*
D15*
X146231088Y-59500000D02*
G75*
G02*
X146017496Y-59500000I-106796J0D01*
G01*
X146017496Y-59500000D02*
G75*
G02*
X146231088Y-59500000I106796J0D01*
G01*
%TO.C,U2*%
D12*
X158630500Y-99224001D02*
X158630500Y-100834361D01*
X158630500Y-102185641D02*
X158630500Y-103374361D01*
X158630500Y-104725641D02*
X158630500Y-105914361D01*
X158630500Y-107265641D02*
X158630500Y-108876001D01*
X158630500Y-108876001D02*
X165869500Y-108876001D01*
X165869500Y-99224001D02*
X158630500Y-99224001D01*
X165869500Y-100834361D02*
X165869500Y-99224001D01*
X165869500Y-103374361D02*
X165869500Y-102185641D01*
X165869500Y-105914361D02*
X165869500Y-104725641D01*
X165869500Y-108876001D02*
X165869500Y-107265641D01*
%TO.C,C31*%
D11*
X149723834Y-77193399D02*
X149508162Y-77193399D01*
X149723834Y-77913399D02*
X149508162Y-77913399D01*
%TO.C,C36*%
X168393162Y-77168399D02*
X168608834Y-77168399D01*
X168393162Y-77888399D02*
X168608834Y-77888399D01*
%TO.C,TP7*%
X108350000Y-143050000D02*
G75*
G02*
X105950000Y-143050000I-1200000J0D01*
G01*
X105950000Y-143050000D02*
G75*
G02*
X108350000Y-143050000I1200000J0D01*
G01*
%TO.C,TP6*%
X104300000Y-147100000D02*
G75*
G02*
X101900000Y-147100000I-1200000J0D01*
G01*
X101900000Y-147100000D02*
G75*
G02*
X104300000Y-147100000I1200000J0D01*
G01*
%TO.C,R30*%
X166228498Y-76650657D02*
X166228498Y-76176141D01*
X167273498Y-76650657D02*
X167273498Y-76176141D01*
%TO.C,U3*%
D12*
X158630500Y-81142501D02*
X158630500Y-82752861D01*
X158630500Y-84104141D02*
X158630500Y-85292861D01*
X158630500Y-86644141D02*
X158630500Y-87832861D01*
X158630500Y-89184141D02*
X158630500Y-90794501D01*
X158630500Y-90794501D02*
X165869500Y-90794501D01*
X165869500Y-81142501D02*
X158630500Y-81142501D01*
X165869500Y-82752861D02*
X165869500Y-81142501D01*
X165869500Y-85292861D02*
X165869500Y-84104141D01*
X165869500Y-87832861D02*
X165869500Y-86644141D01*
X165869500Y-90794501D02*
X165869500Y-89184141D01*
%TO.C,C11*%
D11*
X142284420Y-100990000D02*
X142565580Y-100990000D01*
X142284420Y-102010000D02*
X142565580Y-102010000D01*
%TO.C,TP5*%
X104300000Y-143050000D02*
G75*
G02*
X101900000Y-143050000I-1200000J0D01*
G01*
X101900000Y-143050000D02*
G75*
G02*
X104300000Y-143050000I1200000J0D01*
G01*
%TO.C,R18*%
X123525242Y-107477500D02*
X123999758Y-107477500D01*
X123525242Y-108522500D02*
X123999758Y-108522500D01*
%TO.C,C28*%
X140515000Y-67488748D02*
X140515000Y-68011252D01*
X141985000Y-67488748D02*
X141985000Y-68011252D01*
%TO.C,C6*%
X134534420Y-99490000D02*
X134815580Y-99490000D01*
X134534420Y-100510000D02*
X134815580Y-100510000D01*
%TO.C,R21*%
X129895000Y-67526263D02*
X129895000Y-68973737D01*
X132605000Y-67526263D02*
X132605000Y-68973737D01*
%TO.C,R31*%
X142796001Y-75944758D02*
X142796001Y-76252040D01*
X143556001Y-75944758D02*
X143556001Y-76252040D01*
%TO.C,R33*%
X149715998Y-75944758D02*
X149715998Y-76252040D01*
X150475998Y-75944758D02*
X150475998Y-76252040D01*
%TO.C,R10*%
X123525242Y-89290000D02*
X123999758Y-89290000D01*
X123525242Y-90335000D02*
X123999758Y-90335000D01*
%TO.C,R40*%
X147620000Y-85714860D02*
X147620000Y-86022142D01*
X148380000Y-85714860D02*
X148380000Y-86022142D01*
%TO.C,C12*%
X143834420Y-99490000D02*
X144115580Y-99490000D01*
X143834420Y-100510000D02*
X144115580Y-100510000D01*
%TO.C,R1*%
X129827500Y-82762742D02*
X129827500Y-83237258D01*
X130872500Y-82762742D02*
X130872500Y-83237258D01*
%TO.C,TP11*%
X90150000Y-132950000D02*
G75*
G02*
X87750000Y-132950000I-1200000J0D01*
G01*
X87750000Y-132950000D02*
G75*
G02*
X90150000Y-132950000I1200000J0D01*
G01*
%TO.C,C7*%
X136084420Y-100990000D02*
X136365580Y-100990000D01*
X136084420Y-102010000D02*
X136365580Y-102010000D01*
%TO.C,R11*%
X116260436Y-85790000D02*
X120614564Y-85790000D01*
X116260436Y-89210000D02*
X120614564Y-89210000D01*
%TO.C,R43*%
X150296359Y-84638500D02*
X150603641Y-84638500D01*
X150296359Y-85398500D02*
X150603641Y-85398500D01*
%TO.C,C8*%
X137634420Y-99490000D02*
X137915580Y-99490000D01*
X137634420Y-100510000D02*
X137915580Y-100510000D01*
%TO.C,R14*%
X123525242Y-98540000D02*
X123999758Y-98540000D01*
X123525242Y-99585000D02*
X123999758Y-99585000D01*
%TO.C,R12*%
X123525242Y-93915000D02*
X123999758Y-93915000D01*
X123525242Y-94960000D02*
X123999758Y-94960000D01*
%TO.C,C25*%
X145415000Y-80857836D02*
X145415000Y-80642164D01*
X146135000Y-80857836D02*
X146135000Y-80642164D01*
%TO.C,R35*%
X156641001Y-75944759D02*
X156641001Y-76252041D01*
X157401001Y-75944759D02*
X157401001Y-76252041D01*
%TO.C,C21*%
X140488748Y-81765000D02*
X141011252Y-81765000D01*
X140488748Y-83235000D02*
X141011252Y-83235000D01*
%TO.C,TP1*%
X96200000Y-143050000D02*
G75*
G02*
X93800000Y-143050000I-1200000J0D01*
G01*
X93800000Y-143050000D02*
G75*
G02*
X96200000Y-143050000I1200000J0D01*
G01*
%TO.C,R29*%
X164688501Y-76650657D02*
X164688501Y-76176141D01*
X165733501Y-76650657D02*
X165733501Y-76176141D01*
%TO.C,TP9*%
X96200000Y-132950000D02*
G75*
G02*
X93800000Y-132950000I-1200000J0D01*
G01*
X93800000Y-132950000D02*
G75*
G02*
X96200000Y-132950000I1200000J0D01*
G01*
%TO.C,C32*%
X154548162Y-77168399D02*
X154763834Y-77168399D01*
X154548162Y-77888399D02*
X154763834Y-77888399D01*
%TO.C,TP13*%
X90150000Y-141050000D02*
G75*
G02*
X87750000Y-141050000I-1200000J0D01*
G01*
X87750000Y-141050000D02*
G75*
G02*
X90150000Y-141050000I1200000J0D01*
G01*
%TO.C,TP10*%
X96200000Y-137000000D02*
G75*
G02*
X93800000Y-137000000I-1200000J0D01*
G01*
X93800000Y-137000000D02*
G75*
G02*
X96200000Y-137000000I1200000J0D01*
G01*
%TO.C,R5*%
X116260436Y-71915000D02*
X120614564Y-71915000D01*
X116260436Y-75335000D02*
X120614564Y-75335000D01*
%TO.C,R44*%
X150296359Y-86538502D02*
X150603641Y-86538502D01*
X150296359Y-87298502D02*
X150603641Y-87298502D01*
%TO.C,R8*%
X123525242Y-84665000D02*
X123999758Y-84665000D01*
X123525242Y-85710000D02*
X123999758Y-85710000D01*
%TO.C,R36*%
X160710998Y-75944759D02*
X160710998Y-76252041D01*
X161470998Y-75944759D02*
X161470998Y-76252041D01*
%TO.C,R27*%
X157768498Y-76650658D02*
X157768498Y-76176142D01*
X158813498Y-76650658D02*
X158813498Y-76176142D01*
%TO.C,TP4*%
X100250000Y-147100000D02*
G75*
G02*
X97850000Y-147100000I-1200000J0D01*
G01*
X97850000Y-147100000D02*
G75*
G02*
X100250000Y-147100000I1200000J0D01*
G01*
%TO.C,C2*%
X131434420Y-99490000D02*
X131715580Y-99490000D01*
X131434420Y-100510000D02*
X131715580Y-100510000D01*
%TO.C,C10*%
X140734420Y-99490000D02*
X141015580Y-99490000D01*
X140734420Y-100510000D02*
X141015580Y-100510000D01*
%TO.C,C5*%
X132984420Y-100990000D02*
X133265580Y-100990000D01*
X132984420Y-102010000D02*
X133265580Y-102010000D01*
%TO.C,R20*%
X126645000Y-68973737D02*
X126645000Y-67526263D01*
X129355000Y-68973737D02*
X129355000Y-67526263D01*
%TO.C,J2*%
D12*
X167591600Y-81910001D02*
X167591600Y-87941633D01*
X167591600Y-88938368D02*
X167591600Y-90927001D01*
X167591600Y-90927001D02*
X175008400Y-90927001D01*
X175008400Y-81910001D02*
X167591600Y-81910001D01*
X175008400Y-87941633D02*
X175008400Y-81910001D01*
X175008400Y-90927001D02*
X175008400Y-88938368D01*
D13*
X167020100Y-84500001D02*
G75*
G02*
X166385100Y-84500001I-317500J0D01*
G01*
X166385100Y-84500001D02*
G75*
G02*
X167020100Y-84500001I317500J0D01*
G01*
%TO.C,R7*%
D11*
X116260436Y-76540000D02*
X120614564Y-76540000D01*
X116260436Y-79960000D02*
X120614564Y-79960000D01*
%TO.C,C37*%
X148643450Y-102727836D02*
X148643450Y-102512164D01*
X149363450Y-102727836D02*
X149363450Y-102512164D01*
%TO.C,R41*%
X150249809Y-102720000D02*
X150557091Y-102720000D01*
X150249809Y-103480000D02*
X150557091Y-103480000D01*
%TO.C,TP2*%
X96200000Y-147100000D02*
G75*
G02*
X93800000Y-147100000I-1200000J0D01*
G01*
X93800000Y-147100000D02*
G75*
G02*
X96200000Y-147100000I1200000J0D01*
G01*
%TO.C,R39*%
X147623450Y-103896360D02*
X147623450Y-104203642D01*
X148383450Y-103896360D02*
X148383450Y-104203642D01*
%TO.C,C34*%
X161463162Y-77168400D02*
X161678834Y-77168400D01*
X161463162Y-77888400D02*
X161678834Y-77888400D01*
%TO.C,R24*%
X145453498Y-76650657D02*
X145453498Y-76176141D01*
X146498498Y-76650657D02*
X146498498Y-76176141D01*
%TO.C,R37*%
X163551001Y-75944758D02*
X163551001Y-76252040D01*
X164311001Y-75944758D02*
X164311001Y-76252040D01*
%TO.C,R15*%
X116260436Y-95040000D02*
X120614564Y-95040000D01*
X116260436Y-98460000D02*
X120614564Y-98460000D01*
%TO.C,R26*%
X152378498Y-76650657D02*
X152378498Y-76176141D01*
X153423498Y-76650657D02*
X153423498Y-76176141D01*
%TO.C,U1*%
D16*
X130950001Y-85049999D02*
X131775001Y-85049999D01*
X130950001Y-85874999D02*
X130950001Y-85049999D01*
X130950001Y-95249999D02*
X130950001Y-94424999D01*
X130950001Y-95249999D02*
X131775001Y-95249999D01*
X140325001Y-85049999D02*
X141150001Y-85049999D01*
X140325001Y-95249999D02*
X141150001Y-95249999D01*
X141150001Y-85874999D02*
X141150001Y-85049999D01*
X141150001Y-95249999D02*
X141150001Y-94424999D01*
D17*
X130475003Y-85699998D02*
G75*
G02*
X130225001Y-85699998I-125001J0D01*
G01*
X130225001Y-85699998D02*
G75*
G02*
X130475003Y-85699998I125001J0D01*
G01*
%TO.C,C40*%
D11*
X148640000Y-87290666D02*
X148640000Y-87506338D01*
X149360000Y-87290666D02*
X149360000Y-87506338D01*
%TO.C,R22*%
X145138475Y-57907400D02*
X145445757Y-57907400D01*
X145138475Y-58667400D02*
X145445757Y-58667400D01*
%TO.C,R28*%
X159293498Y-76650658D02*
X159293498Y-76176142D01*
X160338498Y-76650658D02*
X160338498Y-76176142D01*
%TO.C,CR2*%
D12*
X152477950Y-85592540D02*
X152477950Y-86344462D01*
X152477950Y-87594101D02*
X154128950Y-87594101D01*
X154128950Y-84342901D02*
X152477950Y-84342901D01*
X154128950Y-85394461D02*
X154128950Y-84342901D01*
X154128950Y-87594101D02*
X154128950Y-86542541D01*
%TO.C,C30*%
D11*
X147623165Y-77198400D02*
X147838837Y-77198400D01*
X147623165Y-77918400D02*
X147838837Y-77918400D01*
%TO.C,Q1*%
D12*
X133020200Y-67889900D02*
X133020200Y-74341500D01*
X133020200Y-74341500D02*
X139979800Y-74341500D01*
X133411360Y-67889900D02*
X133020200Y-67889900D01*
X133775499Y-74824100D02*
X133775499Y-75941700D01*
X134664499Y-74824100D02*
X134664499Y-75941700D01*
X138335501Y-74824100D02*
X138335501Y-75941700D01*
X139224501Y-74824100D02*
X139224501Y-75941700D01*
X139979800Y-67889900D02*
X139588640Y-67889900D01*
X139979800Y-74341500D02*
X139979800Y-67889900D01*
%TO.C,C38*%
D11*
X148643450Y-105372166D02*
X148643450Y-105587838D01*
X149363450Y-105372166D02*
X149363450Y-105587838D01*
%TO.C,J4*%
D12*
X145797202Y-65543000D02*
X145797202Y-67553769D01*
X145797202Y-68566232D02*
X145797202Y-69553290D01*
X145797202Y-71446711D02*
X145797202Y-74585400D01*
X145797202Y-74585400D02*
X165202802Y-74585400D01*
X165202802Y-65543000D02*
X145797202Y-65543000D01*
X165202802Y-67553769D02*
X165202802Y-65543000D01*
X165202802Y-69553290D02*
X165202802Y-68566232D01*
X165202802Y-74585400D02*
X165202802Y-71446711D01*
D13*
X166469401Y-72000000D02*
G75*
G02*
X165834401Y-72000000I-317500J0D01*
G01*
X165834401Y-72000000D02*
G75*
G02*
X166469401Y-72000000I317500J0D01*
G01*
%TO.C,C41*%
D11*
X156311286Y-103690001D02*
X156095614Y-103690001D01*
X156311286Y-104410001D02*
X156095614Y-104410001D01*
%TO.C,R13*%
X116260436Y-90415000D02*
X120614564Y-90415000D01*
X116260436Y-93835000D02*
X120614564Y-93835000D01*
%TO.C,C26*%
X137640580Y-82190000D02*
X137359420Y-82190000D01*
X137640580Y-83210000D02*
X137359420Y-83210000D01*
%TO.C,C42*%
X156357836Y-85608501D02*
X156142164Y-85608501D01*
X156357836Y-86328501D02*
X156142164Y-86328501D01*
%TO.C,C35*%
X163558837Y-77168399D02*
X163343165Y-77168399D01*
X163558837Y-77888399D02*
X163343165Y-77888399D01*
%TO.C,R4*%
X123525242Y-75415000D02*
X123999758Y-75415000D01*
X123525242Y-76460000D02*
X123999758Y-76460000D01*
%TO.C,C9*%
X139184420Y-100990000D02*
X139465580Y-100990000D01*
X139184420Y-102010000D02*
X139465580Y-102010000D01*
%TO.C,TP3*%
X100250000Y-143050000D02*
G75*
G02*
X97850000Y-143050000I-1200000J0D01*
G01*
X97850000Y-143050000D02*
G75*
G02*
X100250000Y-143050000I1200000J0D01*
G01*
%TO.C,R6*%
X123525242Y-80040000D02*
X123999758Y-80040000D01*
X123525242Y-81085000D02*
X123999758Y-81085000D01*
%TO.C,R42*%
X150249809Y-104620002D02*
X150557091Y-104620002D01*
X150249809Y-105380002D02*
X150557091Y-105380002D01*
%TO.C,R3*%
X116260436Y-67290000D02*
X120614564Y-67290000D01*
X116260436Y-70710000D02*
X120614564Y-70710000D01*
%TO.C,TP14*%
X90150000Y-145100000D02*
G75*
G02*
X87750000Y-145100000I-1200000J0D01*
G01*
X87750000Y-145100000D02*
G75*
G02*
X90150000Y-145100000I1200000J0D01*
G01*
%TD*%
%LPC*%
D18*
%TO.C,U1*%
G36*
X139300002Y-86949998D02*
G01*
X139300002Y-93350000D01*
X139250002Y-93400000D01*
X132850000Y-93400000D01*
X132800000Y-93350000D01*
X132800000Y-86949998D01*
X132850000Y-86899998D01*
X139250002Y-86899998D01*
X139300002Y-86949998D01*
G37*
%TD*%
D19*
%TO.C,R2*%
X122937500Y-71312500D03*
X124587500Y-71312500D03*
%TD*%
D20*
%TO.C,R34*%
X154175998Y-75588399D03*
X154175998Y-76608399D03*
%TD*%
D21*
%TO.C,R9*%
X115475000Y-82875000D03*
X121400000Y-82875000D03*
%TD*%
D22*
%TO.C,C39*%
X149000000Y-85018500D03*
X149000000Y-84058500D03*
%TD*%
D23*
%TO.C,C1*%
X130350000Y-85250000D03*
X128800000Y-85250000D03*
%TD*%
D24*
%TO.C,D2*%
X136357000Y-81000000D03*
X138643000Y-81000000D03*
%TD*%
D22*
%TO.C,C27*%
X140125000Y-78655000D03*
X140125000Y-77695000D03*
%TD*%
D25*
%TO.C,J3*%
X108900000Y-95000000D03*
X108900000Y-92000001D03*
X108900000Y-89000002D03*
X108900000Y-86000002D03*
X108900000Y-83000003D03*
X108900000Y-80000004D03*
X111899999Y-95000000D03*
X111899999Y-92000001D03*
X111899999Y-89000002D03*
X111899999Y-86000002D03*
X111899999Y-83000003D03*
X111899999Y-80000004D03*
%TD*%
D26*
%TO.C,C29*%
X143176001Y-77558400D03*
X142216001Y-77558400D03*
%TD*%
D27*
%TO.C,R25*%
X151375998Y-77238399D03*
X151375998Y-75588399D03*
%TD*%
D28*
%TO.C,FID2*%
X108000000Y-68750000D03*
%TD*%
D20*
%TO.C,R32*%
X147251001Y-75588399D03*
X147251001Y-76608399D03*
%TD*%
%TO.C,R38*%
X168020998Y-75588399D03*
X168020998Y-76608399D03*
%TD*%
D29*
%TO.C,J1*%
X171300000Y-100350000D03*
X171300000Y-107650001D03*
D25*
X171300000Y-105500000D03*
X171300000Y-102500001D03*
%TD*%
D30*
%TO.C,TP8*%
X107150000Y-147100000D03*
%TD*%
D19*
%TO.C,R16*%
X122937500Y-103687500D03*
X124587500Y-103687500D03*
%TD*%
D26*
%TO.C,C33*%
X157021001Y-77528400D03*
X156061001Y-77528400D03*
%TD*%
D21*
%TO.C,R19*%
X115475000Y-106000000D03*
X121400000Y-106000000D03*
%TD*%
D31*
%TO.C,CR1*%
X152154100Y-103100000D03*
X152154100Y-105000002D03*
X154452800Y-104050001D03*
%TD*%
D30*
%TO.C,TP12*%
X88950000Y-137000000D03*
%TD*%
D21*
%TO.C,R17*%
X115475000Y-101375000D03*
X121400000Y-101375000D03*
%TD*%
D27*
%TO.C,R23*%
X144450998Y-77238399D03*
X144450998Y-75588399D03*
%TD*%
D32*
%TO.C,D1*%
X145325000Y-59500000D03*
X143750000Y-59500000D03*
%TD*%
D28*
%TO.C,FID3*%
X167000000Y-68750000D03*
%TD*%
D33*
%TO.C,U2*%
X158103450Y-101510001D03*
X158103450Y-104050001D03*
X158103450Y-106590001D03*
X166396550Y-106590001D03*
X166396550Y-104050001D03*
X166396550Y-101510001D03*
%TD*%
D34*
%TO.C,H2*%
X171800000Y-95000000D03*
%TD*%
D26*
%TO.C,C31*%
X150095998Y-77553399D03*
X149135998Y-77553399D03*
%TD*%
D35*
%TO.C,C36*%
X168020998Y-77528399D03*
X168980998Y-77528399D03*
%TD*%
D30*
%TO.C,TP7*%
X107150000Y-143050000D03*
%TD*%
%TO.C,TP6*%
X103100000Y-147100000D03*
%TD*%
D27*
%TO.C,R30*%
X166750998Y-77238399D03*
X166750998Y-75588399D03*
%TD*%
D33*
%TO.C,U3*%
X158103450Y-83428501D03*
X158103450Y-85968501D03*
X158103450Y-88508501D03*
X166396550Y-88508501D03*
X166396550Y-85968501D03*
X166396550Y-83428501D03*
%TD*%
D36*
%TO.C,C11*%
X141650000Y-101500000D03*
X143200000Y-101500000D03*
%TD*%
D30*
%TO.C,TP5*%
X103100000Y-143050000D03*
%TD*%
D19*
%TO.C,R18*%
X122937500Y-108000000D03*
X124587500Y-108000000D03*
%TD*%
D37*
%TO.C,C28*%
X141250000Y-66800000D03*
X141250000Y-68700000D03*
%TD*%
D36*
%TO.C,C6*%
X133900000Y-100000000D03*
X135450000Y-100000000D03*
%TD*%
D38*
%TO.C,R21*%
X131250000Y-66787500D03*
X131250000Y-69712500D03*
%TD*%
D20*
%TO.C,R31*%
X143176001Y-75588399D03*
X143176001Y-76608399D03*
%TD*%
%TO.C,R33*%
X150095998Y-75588399D03*
X150095998Y-76608399D03*
%TD*%
D19*
%TO.C,R10*%
X122937500Y-89812500D03*
X124587500Y-89812500D03*
%TD*%
D20*
%TO.C,R40*%
X148000000Y-85358501D03*
X148000000Y-86378501D03*
%TD*%
D36*
%TO.C,C12*%
X143200000Y-100000000D03*
X144750000Y-100000000D03*
%TD*%
D34*
%TO.C,H1*%
X103750000Y-106250000D03*
%TD*%
D39*
%TO.C,R1*%
X130350000Y-82175000D03*
X130350000Y-83825000D03*
%TD*%
D30*
%TO.C,TP11*%
X88950000Y-132950000D03*
%TD*%
D36*
%TO.C,C7*%
X135450000Y-101500000D03*
X137000000Y-101500000D03*
%TD*%
D21*
%TO.C,R11*%
X115475000Y-87500000D03*
X121400000Y-87500000D03*
%TD*%
D40*
%TO.C,R43*%
X149940000Y-85018500D03*
X150960000Y-85018500D03*
%TD*%
D36*
%TO.C,C8*%
X137000000Y-100000000D03*
X138550000Y-100000000D03*
%TD*%
D19*
%TO.C,R14*%
X122937500Y-99062500D03*
X124587500Y-99062500D03*
%TD*%
%TO.C,R12*%
X122937500Y-94437500D03*
X124587500Y-94437500D03*
%TD*%
D22*
%TO.C,C25*%
X145775000Y-81230000D03*
X145775000Y-80270000D03*
%TD*%
D20*
%TO.C,R35*%
X157021001Y-75588400D03*
X157021001Y-76608400D03*
%TD*%
D41*
%TO.C,C21*%
X139800000Y-82500000D03*
X141700000Y-82500000D03*
%TD*%
D30*
%TO.C,TP1*%
X95000000Y-143050000D03*
%TD*%
D27*
%TO.C,R29*%
X165211001Y-77238399D03*
X165211001Y-75588399D03*
%TD*%
D30*
%TO.C,TP9*%
X95000000Y-132950000D03*
%TD*%
D35*
%TO.C,C32*%
X154175998Y-77528399D03*
X155135998Y-77528399D03*
%TD*%
D30*
%TO.C,TP13*%
X88950000Y-141050000D03*
%TD*%
%TO.C,TP10*%
X95000000Y-137000000D03*
%TD*%
D21*
%TO.C,R5*%
X115475000Y-73625000D03*
X121400000Y-73625000D03*
%TD*%
D40*
%TO.C,R44*%
X149940000Y-86918502D03*
X150960000Y-86918502D03*
%TD*%
D19*
%TO.C,R8*%
X122937500Y-85187500D03*
X124587500Y-85187500D03*
%TD*%
D20*
%TO.C,R36*%
X161090998Y-75588400D03*
X161090998Y-76608400D03*
%TD*%
D27*
%TO.C,R27*%
X158290998Y-77238400D03*
X158290998Y-75588400D03*
%TD*%
D30*
%TO.C,TP4*%
X99050000Y-147100000D03*
%TD*%
D36*
%TO.C,C2*%
X130800000Y-100000000D03*
X132350000Y-100000000D03*
%TD*%
%TO.C,C10*%
X140100000Y-100000000D03*
X141650000Y-100000000D03*
%TD*%
%TO.C,C5*%
X132350000Y-101500000D03*
X133900000Y-101500000D03*
%TD*%
D42*
%TO.C,R20*%
X128000000Y-69712500D03*
X128000000Y-66787500D03*
%TD*%
D34*
%TO.C,H3*%
X171250000Y-68750000D03*
%TD*%
D43*
%TO.C,J2*%
X174300002Y-88440001D03*
X168299998Y-88440001D03*
D25*
X171300000Y-84500001D03*
X171300000Y-87500000D03*
%TD*%
D21*
%TO.C,R7*%
X115475000Y-78250000D03*
X121400000Y-78250000D03*
%TD*%
D22*
%TO.C,C37*%
X149003450Y-103100000D03*
X149003450Y-102140000D03*
%TD*%
D40*
%TO.C,R41*%
X149893450Y-103100000D03*
X150913450Y-103100000D03*
%TD*%
D30*
%TO.C,TP2*%
X95000000Y-147100000D03*
%TD*%
D20*
%TO.C,R39*%
X148003450Y-103540001D03*
X148003450Y-104560001D03*
%TD*%
D35*
%TO.C,C34*%
X161090998Y-77528400D03*
X162050998Y-77528400D03*
%TD*%
D27*
%TO.C,R24*%
X145975998Y-77238399D03*
X145975998Y-75588399D03*
%TD*%
D20*
%TO.C,R37*%
X163931001Y-75588399D03*
X163931001Y-76608399D03*
%TD*%
D21*
%TO.C,R15*%
X115475000Y-96750000D03*
X121400000Y-96750000D03*
%TD*%
D27*
%TO.C,R26*%
X152900998Y-77238399D03*
X152900998Y-75588399D03*
%TD*%
D44*
%TO.C,U1*%
X130350002Y-86399999D03*
X130350002Y-86899998D03*
X130350002Y-87399999D03*
X130350002Y-87899998D03*
X130350002Y-88400000D03*
X130350002Y-88899999D03*
X130350002Y-89399998D03*
X130350002Y-89899999D03*
X130350002Y-90399999D03*
X130350002Y-90900000D03*
X130350002Y-91399999D03*
X130350002Y-91899998D03*
X130350002Y-92400000D03*
X130350002Y-92899999D03*
X130350002Y-93400000D03*
X130350002Y-93899999D03*
D45*
X132300001Y-95849998D03*
X132800000Y-95849998D03*
X133300001Y-95849998D03*
X133800000Y-95849998D03*
X134300002Y-95849998D03*
X134800001Y-95849998D03*
X135300000Y-95849998D03*
X135800001Y-95849998D03*
X136300001Y-95849998D03*
X136800002Y-95849998D03*
X137300001Y-95849998D03*
X137800000Y-95849998D03*
X138300002Y-95849998D03*
X138800001Y-95849998D03*
X139300002Y-95849998D03*
X139800001Y-95849998D03*
D44*
X141750000Y-93899999D03*
X141750000Y-93400000D03*
X141750000Y-92899999D03*
X141750000Y-92400000D03*
X141750000Y-91899998D03*
X141750000Y-91399999D03*
X141750000Y-90900000D03*
X141750000Y-90399999D03*
X141750000Y-89899999D03*
X141750000Y-89399998D03*
X141750000Y-88899999D03*
X141750000Y-88400000D03*
X141750000Y-87899998D03*
X141750000Y-87399999D03*
X141750000Y-86899998D03*
X141750000Y-86399999D03*
D45*
X139800001Y-84450000D03*
X139300002Y-84450000D03*
X138800001Y-84450000D03*
X138300002Y-84450000D03*
X137800000Y-84450000D03*
X137300001Y-84450000D03*
X136800002Y-84450000D03*
X136300001Y-84450000D03*
X135800001Y-84450000D03*
X135300000Y-84450000D03*
X134800001Y-84450000D03*
X134300002Y-84450000D03*
X133800000Y-84450000D03*
X133300001Y-84450000D03*
X132800000Y-84450000D03*
X132300001Y-84450000D03*
D46*
X132800000Y-86899998D03*
X132800000Y-88199998D03*
X132800000Y-89500000D03*
X132800000Y-90800000D03*
X132800000Y-92100000D03*
X132800000Y-93400000D03*
X134100000Y-86899998D03*
X134100000Y-88199998D03*
X134100000Y-89500000D03*
X134100000Y-90800000D03*
X134100000Y-92100000D03*
X134100000Y-93400000D03*
X135400000Y-86899998D03*
X135400000Y-88199998D03*
X135400000Y-89500000D03*
X135400000Y-90800000D03*
X135400000Y-92100000D03*
X135400000Y-93400000D03*
X136700002Y-86899998D03*
X136700002Y-88199998D03*
X136700002Y-89500000D03*
X136700002Y-90800000D03*
X136700002Y-92100000D03*
X136700002Y-93400000D03*
X138000002Y-86899998D03*
X138000002Y-88199998D03*
X138000002Y-89500000D03*
X138000002Y-90800000D03*
X138000002Y-92100000D03*
X138000002Y-93400000D03*
X139300002Y-86899998D03*
X139300002Y-88199998D03*
X139300002Y-89500000D03*
X139300002Y-90800000D03*
X139300002Y-92100000D03*
X139300002Y-93400000D03*
%TD*%
D47*
%TO.C,C40*%
X149000000Y-86918502D03*
X149000000Y-87878502D03*
%TD*%
D40*
%TO.C,R22*%
X144782116Y-58287400D03*
X145802116Y-58287400D03*
%TD*%
D28*
%TO.C,FID1*%
X108000000Y-106250000D03*
%TD*%
D27*
%TO.C,R28*%
X159815998Y-77238400D03*
X159815998Y-75588400D03*
%TD*%
D31*
%TO.C,CR2*%
X152154100Y-85018500D03*
X152154100Y-86918502D03*
X154452800Y-85968501D03*
%TD*%
D35*
%TO.C,C30*%
X147251001Y-77558400D03*
X148211001Y-77558400D03*
%TD*%
D48*
%TO.C,Q1*%
X136500000Y-69172600D03*
D49*
X134219999Y-77541900D03*
X138780001Y-77541900D03*
%TD*%
D47*
%TO.C,C38*%
X149003450Y-105000002D03*
X149003450Y-105960002D03*
%TD*%
D43*
%TO.C,J4*%
X146500002Y-68060000D03*
X164500002Y-68060000D03*
D25*
X161500000Y-72000000D03*
X158500001Y-72000000D03*
X155500002Y-72000000D03*
X152500003Y-72000000D03*
X149500004Y-72000000D03*
X161500000Y-69000001D03*
X158500001Y-69000001D03*
X155500002Y-69000001D03*
X152500003Y-69000001D03*
X149500004Y-69000001D03*
D50*
X147350003Y-70500000D03*
X163650001Y-70500000D03*
%TD*%
D26*
%TO.C,C41*%
X156683450Y-104050001D03*
X155723450Y-104050001D03*
%TD*%
D21*
%TO.C,R13*%
X115475000Y-92125000D03*
X121400000Y-92125000D03*
%TD*%
D23*
%TO.C,C26*%
X138275000Y-82700000D03*
X136725000Y-82700000D03*
%TD*%
D26*
%TO.C,C42*%
X156730000Y-85968501D03*
X155770000Y-85968501D03*
%TD*%
%TO.C,C35*%
X163931001Y-77528399D03*
X162971001Y-77528399D03*
%TD*%
D19*
%TO.C,R4*%
X122937500Y-75937500D03*
X124587500Y-75937500D03*
%TD*%
D34*
%TO.C,H4*%
X103750000Y-68750000D03*
%TD*%
D36*
%TO.C,C9*%
X138550000Y-101500000D03*
X140100000Y-101500000D03*
%TD*%
D30*
%TO.C,TP3*%
X99050000Y-143050000D03*
%TD*%
D19*
%TO.C,R6*%
X122937500Y-80562500D03*
X124587500Y-80562500D03*
%TD*%
D40*
%TO.C,R42*%
X149893450Y-105000002D03*
X150913450Y-105000002D03*
%TD*%
D21*
%TO.C,R3*%
X115475000Y-69000000D03*
X121400000Y-69000000D03*
%TD*%
D30*
%TO.C,TP14*%
X88950000Y-145100000D03*
%TD*%
%LPD*%
M02*
