M48
; DRILL file KiCad 10.0.5-unknown-202607221313~667fa36054~ubuntu25.10.1 date 2026-10-03T23:06:47
; FORMAT={-:-/ absolute / metric / decimal}
; #@! TF.CreationDate,2026-10-03T23:06:47+00:00
; #@! TF.GenerationSoftware,Kicad,Pcbnew,10.0.5-unknown-202607221313~667fa36054~ubuntu25.10.1
; #@! TF.FileFunction,Plated,1,4,PTH
FMAT,2
METRIC
; #@! TA.AperFunction,Plated,PTH,ComponentDrill
T1C0.203
; #@! TA.AperFunction,Plated,PTH,ComponentDrill
T2C1.067
%
G90
G05
T1
X130.375Y-90.625
X130.375Y-91.925
X130.375Y-93.225
X130.375Y-94.525
X130.375Y-95.825
X130.375Y-97.125
X131.675Y-90.625
X131.675Y-91.925
X131.675Y-93.225
X131.675Y-94.525
X131.675Y-95.825
X131.675Y-97.125
X132.975Y-90.625
X132.975Y-91.925
X132.975Y-93.225
X132.975Y-94.525
X132.975Y-95.825
X132.975Y-97.125
X134.275Y-90.625
X134.275Y-91.925
X134.275Y-93.225
X134.275Y-94.525
X134.275Y-95.825
X134.275Y-97.125
X135.575Y-90.625
X135.575Y-91.925
X135.575Y-93.225
X135.575Y-94.525
X135.575Y-95.825
X135.575Y-97.125
X136.875Y-90.625
X136.875Y-91.925
X136.875Y-93.225
X136.875Y-94.525
X136.875Y-95.825
X136.875Y-97.125
T2
X24.814Y-122.09
X24.814Y-125.09
X24.814Y-128.09
X24.814Y-131.09
X24.814Y-134.09
X24.814Y-137.09
X27.814Y-122.09
X27.814Y-125.09
X27.814Y-128.09
X27.814Y-131.09
X27.814Y-134.09
X27.814Y-137.09
X68.75Y-68.0
X68.75Y-71.0
X68.75Y-74.0
X68.75Y-77.0
X68.75Y-80.0
X68.75Y-83.0
X68.75Y-86.0
X68.75Y-89.0
X68.75Y-92.0
X68.75Y-95.0
X68.75Y-98.0
X68.75Y-101.0
X125.0Y-68.75
X125.0Y-71.75
X128.0Y-68.75
X128.0Y-71.75
X131.0Y-68.75
X131.0Y-71.75
X134.0Y-68.75
X134.0Y-71.75
X137.0Y-68.75
X137.0Y-71.75
X140.0Y-68.75
X140.0Y-71.75
X143.0Y-68.75
X143.0Y-71.75
X146.0Y-68.75
X146.0Y-71.75
X170.75Y-81.031
X170.75Y-84.031
X170.75Y-93.45
X170.75Y-96.45
M30
