%TF.GenerationSoftware,KiCad,Pcbnew,10.0.5-unknown-202607221313~667fa36054~ubuntu25.10.1*%
%TF.CreationDate,Date%
%TF.ProjectId,bms_slave,626d735f-736c-4617-9665-2e6b69636164,+ (Unreleased)*%
%TF.SameCoordinates,Original*%
%TF.FileFunction,Soldermask,Bot*%
%TF.FilePolarity,Negative*%
%FSLAX46Y46*%
G04 Gerber Fmt 4.6, Leading zero omitted, Abs format (unit mm)*
G04 Created by KiCad*
%MOMM*%
%LPD*%
G01*
G04 APERTURE LIST*
%ADD10C,1.574800*%
%ADD11C,0.499999*%
G04 APERTURE END LIST*
D10*
%TO.C,J2*%
X189935700Y-100660400D03*
X186935701Y-100660400D03*
%TD*%
%TO.C,J1*%
X189777001Y-82160400D03*
X189777001Y-85160399D03*
%TD*%
%TO.C,J3*%
X86473000Y-65839596D03*
X86473000Y-62839597D03*
X86473000Y-59839598D03*
X86473000Y-56839599D03*
X86473000Y-53839600D03*
X86473000Y-50839601D03*
X86473000Y-47839602D03*
X86473000Y-44839603D03*
X86473000Y-41839603D03*
%TD*%
%TO.C,J4*%
X87564300Y-100839597D03*
X87564300Y-97839598D03*
X87564300Y-94839599D03*
X87564300Y-91839599D03*
X87564300Y-88839600D03*
X87564300Y-85839601D03*
X87564300Y-82839602D03*
X87564300Y-79839603D03*
X90564299Y-100839597D03*
X90564299Y-97839598D03*
X90564299Y-94839599D03*
X90564299Y-91839599D03*
X90564299Y-88839600D03*
X90564299Y-85839601D03*
X90564299Y-82839602D03*
X90564299Y-79839603D03*
%TD*%
D11*
%TO.C,U1*%
X129400000Y-87749999D03*
X129400000Y-89049999D03*
X129400000Y-90350001D03*
X129400000Y-91650001D03*
X129400000Y-92950001D03*
X129400000Y-94250001D03*
X130700000Y-87749999D03*
X130700000Y-89049999D03*
X130700000Y-90350001D03*
X130700000Y-91650001D03*
X130700000Y-92950001D03*
X130700000Y-94250001D03*
X132000000Y-87749999D03*
X132000000Y-89049999D03*
X132000000Y-90350001D03*
X132000000Y-91650001D03*
X132000000Y-92950001D03*
X132000000Y-94250001D03*
X133300002Y-87749999D03*
X133300002Y-89049999D03*
X133300002Y-90350001D03*
X133300002Y-91650001D03*
X133300002Y-92950001D03*
X133300002Y-94250001D03*
X134600002Y-87749999D03*
X134600002Y-89049999D03*
X134600002Y-90350001D03*
X134600002Y-91650001D03*
X134600002Y-92950001D03*
X134600002Y-94250001D03*
X135900002Y-87749999D03*
X135900002Y-89049999D03*
X135900002Y-90350001D03*
X135900002Y-91650001D03*
X135900002Y-92950001D03*
X135900002Y-94250001D03*
%TD*%
M02*
