M48
; DRILL file KiCad 10.0.5-unknown-202607221313~667fa36054~ubuntu25.10.1 date 2026-10-06T01:50:29
; FORMAT={-:-/ absolute / metric / decimal}
; #@! TF.CreationDate,2026-10-06T01:50:29+00:00
; #@! TF.GenerationSoftware,Kicad,Pcbnew,10.0.5-unknown-202607221313~667fa36054~ubuntu25.10.1
; #@! TF.FileFunction,Plated,1,4,PTH
FMAT,2
METRIC
; #@! TA.AperFunction,Plated,PTH,ViaDrill
T1C0.200
; #@! TA.AperFunction,Plated,PTH,ComponentDrill
T2C0.203
; #@! TA.AperFunction,Plated,PTH,ViaDrill
T3C0.300
; #@! TA.AperFunction,Plated,PTH,ComponentDrill
T4C1.067
%
G90
G05
T1
X143.322Y-91.1
X143.47Y-88.069
X143.736Y-91.497
X143.894Y-87.645
X144.16Y-91.921
X144.318Y-87.221
X144.35Y-92.421
X144.35Y-93.021
X144.35Y-93.621
X144.35Y-94.221
X144.45Y-85.497
X144.45Y-86.097
X144.45Y-86.697
X144.546Y-89.614
X144.597Y-94.94
X144.684Y-84.772
X144.954Y-90.093
X144.971Y-89.19
X145.021Y-95.364
X145.108Y-84.348
X145.378Y-90.517
X145.395Y-88.766
X145.445Y-95.789
X145.533Y-83.924
X145.802Y-90.942
X145.819Y-88.342
X145.869Y-96.213
X146.25Y-91.777
X146.25Y-92.377
X146.25Y-92.977
X146.25Y-93.577
X146.35Y-86.14
X146.35Y-86.74
X146.35Y-87.34
X146.427Y-94.083
X146.514Y-85.629
T2
X132.8Y-86.9
X132.8Y-88.2
X132.8Y-89.5
X132.8Y-90.8
X132.8Y-92.1
X132.8Y-93.4
X134.1Y-86.9
X134.1Y-88.2
X134.1Y-89.5
X134.1Y-90.8
X134.1Y-92.1
X134.1Y-93.4
X135.4Y-86.9
X135.4Y-88.2
X135.4Y-89.5
X135.4Y-90.8
X135.4Y-92.1
X135.4Y-93.4
X136.7Y-86.9
X136.7Y-88.2
X136.7Y-89.5
X136.7Y-90.8
X136.7Y-92.1
X136.7Y-93.4
X138.0Y-86.9
X138.0Y-88.2
X138.0Y-89.5
X138.0Y-90.8
X138.0Y-92.1
X138.0Y-93.4
X139.3Y-86.9
X139.3Y-88.2
X139.3Y-89.5
X139.3Y-90.8
X139.3Y-92.1
X139.3Y-93.4
T3
X117.75Y-106.0
X118.5Y-106.0
X132.804Y-97.813
X134.347Y-97.81
X135.5Y-97.71
X136.809Y-97.725
X138.017Y-97.74
X139.4Y-97.787
X140.377Y-96.914
X143.1Y-93.7
T4
X76.223Y-69.34
X76.223Y-72.34
X76.223Y-75.34
X76.223Y-78.34
X76.223Y-81.34
X76.223Y-84.34
X76.223Y-87.34
X76.223Y-90.34
X76.223Y-93.34
X76.223Y-96.34
X76.223Y-99.34
X76.223Y-102.34
X93.814Y-80.34
X93.814Y-83.34
X93.814Y-86.34
X93.814Y-89.34
X93.814Y-92.34
X93.814Y-95.34
X96.814Y-80.34
X96.814Y-83.34
X96.814Y-86.34
X96.814Y-89.34
X96.814Y-92.34
X96.814Y-95.34
X133.0Y-69.0
X133.0Y-72.0
X136.0Y-69.0
X136.0Y-72.0
X139.0Y-69.0
X139.0Y-72.0
X142.0Y-69.0
X142.0Y-72.0
X145.0Y-69.0
X145.0Y-72.0
X148.0Y-69.0
X148.0Y-72.0
X151.0Y-69.0
X151.0Y-72.0
X154.0Y-69.0
X154.0Y-72.0
X170.75Y-83.0
X170.75Y-86.0
X170.75Y-94.0
X170.75Y-97.0
M30
