%TF.GenerationSoftware,KiCad,Pcbnew,10.0.5-unknown-202607221313~667fa36054~ubuntu25.10.1*%
%TF.CreationDate,Date%
%TF.ProjectId,bms_slave,626d735f-736c-4617-9665-2e6b69636164,+ (Unreleased)*%
%TF.SameCoordinates,Original*%
%TF.FileFunction,Copper,L1,Top*%
%TF.FilePolarity,Positive*%
%FSLAX46Y46*%
G04 Gerber Fmt 4.6, Leading zero omitted, Abs format (unit mm)*
G04 Created by KiCad*
%MOMM*%
%LPD*%
G01*
G04 APERTURE LIST*
G04 Aperture macros list*
%AMRoundRect*
0 Rectangle with rounded corners*
0 $1 Rounding radius*
0 $2 $3 $4 $5 $6 $7 $8 $9 X,Y pos of 4 corners*
0 Add a 4 corners polygon primitive as box body*
4,1,4,$2,$3,$4,$5,$6,$7,$8,$9,$2,$3,0*
0 Add four circle primitives for the rounded corners*
1,1,$1+$1,$2,$3*
1,1,$1+$1,$4,$5*
1,1,$1+$1,$6,$7*
1,1,$1+$1,$8,$9*
0 Add four rect primitives between the rounded corners*
20,1,$1+$1,$2,$3,$4,$5,0*
20,1,$1+$1,$4,$5,$6,$7,0*
20,1,$1+$1,$6,$7,$8,$9,0*
20,1,$1+$1,$8,$9,$2,$3,0*%
G04 Aperture macros list end*
%TA.AperFunction,SMDPad,CuDef*%
%ADD10RoundRect,0.200000X-0.200000X-0.275000X0.200000X-0.275000X0.200000X0.275000X-0.200000X0.275000X0*%
%TD*%
%TA.AperFunction,SMDPad,CuDef*%
%ADD11RoundRect,0.135000X-0.185000X0.135000X-0.185000X-0.135000X0.185000X-0.135000X0.185000X0.135000X0*%
%TD*%
%TA.AperFunction,SMDPad,CuDef*%
%ADD12RoundRect,0.250000X-0.362500X-1.425000X0.362500X-1.425000X0.362500X1.425000X-0.362500X1.425000X0*%
%TD*%
%TA.AperFunction,SMDPad,CuDef*%
%ADD13RoundRect,0.140000X0.170000X-0.140000X0.170000X0.140000X-0.170000X0.140000X-0.170000X-0.140000X0*%
%TD*%
%TA.AperFunction,SMDPad,CuDef*%
%ADD14RoundRect,0.225000X0.225000X0.250000X-0.225000X0.250000X-0.225000X-0.250000X0.225000X-0.250000X0*%
%TD*%
%TA.AperFunction,SMDPad,CuDef*%
%ADD15R,0.609600X0.304800*%
%TD*%
%TA.AperFunction,ComponentPad*%
%ADD16C,1.574800*%
%TD*%
%TA.AperFunction,SMDPad,CuDef*%
%ADD17RoundRect,0.140000X0.140000X0.170000X-0.140000X0.170000X-0.140000X-0.170000X0.140000X-0.170000X0*%
%TD*%
%TA.AperFunction,SMDPad,CuDef*%
%ADD18RoundRect,0.200000X0.275000X-0.200000X0.275000X0.200000X-0.275000X0.200000X-0.275000X-0.200000X0*%
%TD*%
%TA.AperFunction,SMDPad,CuDef*%
%ADD19C,0.500000*%
%TD*%
%TA.AperFunction,SMDPad,CuDef*%
%ADD20C,2.000000*%
%TD*%
%TA.AperFunction,SMDPad,CuDef*%
%ADD21R,0.901700X0.482600*%
%TD*%
%TA.AperFunction,SMDPad,CuDef*%
%ADD22RoundRect,0.218750X0.218750X0.256250X-0.218750X0.256250X-0.218750X-0.256250X0.218750X-0.256250X0*%
%TD*%
%TA.AperFunction,SMDPad,CuDef*%
%ADD23R,1.308100X0.685800*%
%TD*%
%TA.AperFunction,SMDPad,CuDef*%
%ADD24RoundRect,0.140000X-0.140000X-0.170000X0.140000X-0.170000X0.140000X0.170000X-0.140000X0.170000X0*%
%TD*%
%TA.AperFunction,SMDPad,CuDef*%
%ADD25RoundRect,0.225000X-0.225000X-0.250000X0.225000X-0.250000X0.225000X0.250000X-0.225000X0.250000X0*%
%TD*%
%TA.AperFunction,SMDPad,CuDef*%
%ADD26RoundRect,0.250000X-0.475000X0.250000X-0.475000X-0.250000X0.475000X-0.250000X0.475000X0.250000X0*%
%TD*%
%TA.AperFunction,SMDPad,CuDef*%
%ADD27RoundRect,0.250000X-1.075000X0.312500X-1.075000X-0.312500X1.075000X-0.312500X1.075000X0.312500X0*%
%TD*%
%TA.AperFunction,SMDPad,CuDef*%
%ADD28RoundRect,0.200000X-0.275000X0.200000X-0.275000X-0.200000X0.275000X-0.200000X0.275000X0.200000X0*%
%TD*%
%TA.AperFunction,SMDPad,CuDef*%
%ADD29RoundRect,0.135000X-0.135000X-0.185000X0.135000X-0.185000X0.135000X0.185000X-0.135000X0.185000X0*%
%TD*%
%TA.AperFunction,SMDPad,CuDef*%
%ADD30RoundRect,0.250000X-0.250000X-0.475000X0.250000X-0.475000X0.250000X0.475000X-0.250000X0.475000X0*%
%TD*%
%TA.AperFunction,SMDPad,CuDef*%
%ADD31RoundRect,0.250000X1.075000X-0.312500X1.075000X0.312500X-1.075000X0.312500X-1.075000X-0.312500X0*%
%TD*%
%TA.AperFunction,SMDPad,CuDef*%
%ADD32R,1.500000X0.299999*%
%TD*%
%TA.AperFunction,SMDPad,CuDef*%
%ADD33R,0.299999X1.500000*%
%TD*%
%TA.AperFunction,ComponentPad*%
%ADD34C,0.499999*%
%TD*%
%TA.AperFunction,SMDPad,CuDef*%
%ADD35R,8.000000X8.000000*%
%TD*%
%TA.AperFunction,SMDPad,CuDef*%
%ADD36RoundRect,0.140000X-0.170000X0.140000X-0.170000X-0.140000X0.170000X-0.140000X0.170000X0.140000X0*%
%TD*%
%TA.AperFunction,SMDPad,CuDef*%
%ADD37R,5.511800X5.918200*%
%TD*%
%TA.AperFunction,SMDPad,CuDef*%
%ADD38R,0.939800X2.489200*%
%TD*%
%TA.AperFunction,ComponentPad*%
%ADD39C,2.971800*%
%TD*%
%TA.AperFunction,ViaPad*%
%ADD40C,0.500000*%
%TD*%
%TA.AperFunction,ViaPad*%
%ADD41C,0.600000*%
%TD*%
%TA.AperFunction,ViaPad*%
%ADD42C,0.550000*%
%TD*%
%TA.AperFunction,Conductor*%
%ADD43C,0.500000*%
%TD*%
%TA.AperFunction,Conductor*%
%ADD44C,0.200000*%
%TD*%
%TA.AperFunction,Conductor*%
%ADD45C,0.300000*%
%TD*%
%TA.AperFunction,Conductor*%
%ADD46C,0.400000*%
%TD*%
G04 APERTURE END LIST*
D10*
%TO.P,R2,1*%
%TO.N,/Project Architecture/Cell Sense & Balance/TAP8*%
X122937500Y-71312500D03*
%TO.P,R2,2*%
%TO.N,/Project Architecture/Cell Sense & Balance/VC8*%
X124587500Y-71312500D03*
%TD*%
D11*
%TO.P,R34,1*%
%TO.N,/Project Architecture/Connectors/T_P4*%
X154175998Y-75588399D03*
%TO.P,R34,2*%
%TO.N,/Project Architecture/Temperature Sense/GPIO4*%
X154175998Y-76608399D03*
%TD*%
D12*
%TO.P,R9,1*%
%TO.N,/Project Architecture/Cell Sense & Balance/TAP5*%
X115475000Y-82875000D03*
%TO.P,R9,2*%
%TO.N,/Project Architecture/Cell Sense & Balance/CB5*%
X121400000Y-82875000D03*
%TD*%
D13*
%TO.P,C39,1*%
%TO.N,/Project Architecture/Daisy Chain/U1_COMHP*%
X149000000Y-85018500D03*
%TO.P,C39,2*%
%TO.N,/Project Architecture/GND*%
X149000000Y-84058500D03*
%TD*%
D14*
%TO.P,C1,1*%
%TO.N,/Project Architecture/Cell Sense & Balance/BAT*%
X130350000Y-85250000D03*
%TO.P,C1,2*%
%TO.N,/Project Architecture/GND*%
X128800000Y-85250000D03*
%TD*%
D15*
%TO.P,D2,1,C_1*%
%TO.N,/Project Architecture/Temperature Sense/TBIAS*%
X136357000Y-81000000D03*
%TO.P,D2,2,A_2*%
%TO.N,/Project Architecture/Power & Reference/TSREF*%
X138643000Y-81000000D03*
%TD*%
D13*
%TO.P,C27,1*%
%TO.N,/Project Architecture/GND*%
X140125000Y-78655000D03*
%TO.P,C27,2*%
%TO.N,/Project Architecture/Power & Reference/LDOIN*%
X140125000Y-77695000D03*
%TD*%
D16*
%TO.P,J3,1,1_1*%
%TO.N,/Project Architecture/Cell Sense & Balance/TAP0*%
X108900000Y-95000000D03*
%TO.P,J3,2,2_2*%
%TO.N,/Project Architecture/Cell Sense & Balance/TAP2*%
X108900000Y-92000001D03*
%TO.P,J3,3,3_3*%
%TO.N,/Project Architecture/GND*%
X108900000Y-89000002D03*
%TO.P,J3,4,4_4*%
X108900000Y-86000002D03*
%TO.P,J3,5,5_5*%
%TO.N,/Project Architecture/Cell Sense & Balance/TAP8*%
X108900000Y-83000003D03*
%TO.P,J3,6,6_6*%
%TO.N,/Project Architecture/VMODULE*%
X108900000Y-80000004D03*
%TO.P,J3,7,7_7*%
%TO.N,/Project Architecture/Cell Sense & Balance/TAP1*%
X111899999Y-95000000D03*
%TO.P,J3,8,8_8*%
%TO.N,/Project Architecture/Cell Sense & Balance/TAP3*%
X111899999Y-92000001D03*
%TO.P,J3,9,9_9*%
%TO.N,/Project Architecture/Cell Sense & Balance/TAP4*%
X111899999Y-89000002D03*
%TO.P,J3,10,10_10*%
%TO.N,/Project Architecture/Cell Sense & Balance/TAP5*%
X111899999Y-86000002D03*
%TO.P,J3,11,11_11*%
%TO.N,/Project Architecture/Cell Sense & Balance/TAP6*%
X111899999Y-83000003D03*
%TO.P,J3,12,12_12*%
%TO.N,/Project Architecture/Cell Sense & Balance/TAP7*%
X111899999Y-80000004D03*
%TD*%
D17*
%TO.P,C29,1*%
%TO.N,/Project Architecture/Temperature Sense/GPIO1*%
X143176001Y-77558400D03*
%TO.P,C29,2*%
%TO.N,/Project Architecture/GND*%
X142216001Y-77558400D03*
%TD*%
D18*
%TO.P,R25,1*%
%TO.N,/Project Architecture/Temperature Sense/TBIAS*%
X151375998Y-77238399D03*
%TO.P,R25,2*%
%TO.N,/Project Architecture/Connectors/T_P3*%
X151375998Y-75588399D03*
%TD*%
D19*
%TO.P,FID2,*%
%TO.N,*%
X108000000Y-68750000D03*
%TD*%
D11*
%TO.P,R32,1*%
%TO.N,/Project Architecture/Connectors/T_P2*%
X147251001Y-75588399D03*
%TO.P,R32,2*%
%TO.N,/Project Architecture/Temperature Sense/GPIO2*%
X147251001Y-76608399D03*
%TD*%
%TO.P,R38,1*%
%TO.N,/Project Architecture/Connectors/T_P8*%
X168020998Y-75588399D03*
%TO.P,R38,2*%
%TO.N,/Project Architecture/Temperature Sense/GPIO8*%
X168020998Y-76608399D03*
%TD*%
D16*
%TO.P,J1,1,1_1*%
%TO.N,/Project Architecture/Connectors/COML.P*%
X171300000Y-105500000D03*
%TO.P,J1,2,2_2*%
%TO.N,/Project Architecture/Connectors/COML.N*%
X171300000Y-102500001D03*
%TD*%
D20*
%TO.P,TP8,1,1_1*%
%TO.N,/Project Architecture/GND*%
X92400000Y-57650000D03*
%TD*%
D10*
%TO.P,R16,1*%
%TO.N,/Project Architecture/Cell Sense & Balance/TAP1*%
X122937500Y-103687500D03*
%TO.P,R16,2*%
%TO.N,/Project Architecture/Cell Sense & Balance/VC1*%
X124587500Y-103687500D03*
%TD*%
D17*
%TO.P,C33,1*%
%TO.N,/Project Architecture/Temperature Sense/GPIO5*%
X157021001Y-77528400D03*
%TO.P,C33,2*%
%TO.N,/Project Architecture/GND*%
X156061001Y-77528400D03*
%TD*%
D12*
%TO.P,R19,1*%
%TO.N,/Project Architecture/Cell Sense & Balance/TAP0*%
X115475000Y-106000000D03*
%TO.P,R19,2*%
%TO.N,/Project Architecture/Cell Sense & Balance/CB0*%
X121400000Y-106000000D03*
%TD*%
D21*
%TO.P,CR1,1*%
%TO.N,/Project Architecture/Daisy Chain/COML_WP*%
X152154100Y-103100000D03*
%TO.P,CR1,2*%
X152154100Y-105000002D03*
%TO.P,CR1,3*%
%TO.N,/Project Architecture/GND*%
X154452800Y-104050001D03*
%TD*%
D20*
%TO.P,TP12,1,1_1*%
%TO.N,/Project Architecture/Daisy Chain/U1_COMLN*%
X74200000Y-47550000D03*
%TD*%
D12*
%TO.P,R17,1*%
%TO.N,/Project Architecture/Cell Sense & Balance/TAP1*%
X115475000Y-101375000D03*
%TO.P,R17,2*%
%TO.N,/Project Architecture/Cell Sense & Balance/CB1*%
X121400000Y-101375000D03*
%TD*%
D18*
%TO.P,R23,1*%
%TO.N,/Project Architecture/Temperature Sense/TBIAS*%
X144450998Y-77238399D03*
%TO.P,R23,2*%
%TO.N,/Project Architecture/Connectors/T_P1*%
X144450998Y-75588399D03*
%TD*%
D22*
%TO.P,D1,1,K_1*%
%TO.N,/Project Architecture/GND*%
X146239808Y-83200000D03*
%TO.P,D1,2,A_2*%
%TO.N,Net-(D1-A)*%
X144664808Y-83200000D03*
%TD*%
D19*
%TO.P,FID3,*%
%TO.N,*%
X167000000Y-68750000D03*
%TD*%
D23*
%TO.P,U2,1*%
%TO.N,/Project Architecture/Daisy Chain/COML_WP*%
X158103450Y-101510001D03*
%TO.P,U2,2*%
%TO.N,/Project Architecture/Daisy Chain/COML_CT*%
X158103450Y-104050001D03*
%TO.P,U2,3*%
%TO.N,/Project Architecture/Daisy Chain/COML_WP*%
X158103450Y-106590001D03*
%TO.P,U2,4*%
%TO.N,/Project Architecture/Connectors/COML.P*%
X166396550Y-106590001D03*
%TO.P,U2,5*%
%TO.N,unconnected-(U2-Pad5)*%
X166396550Y-104050001D03*
%TO.P,U2,6*%
%TO.N,/Project Architecture/Connectors/COML.N*%
X166396550Y-101510001D03*
%TD*%
D17*
%TO.P,C31,1*%
%TO.N,/Project Architecture/Temperature Sense/GPIO3*%
X150095998Y-77553399D03*
%TO.P,C31,2*%
%TO.N,/Project Architecture/GND*%
X149135998Y-77553399D03*
%TD*%
D24*
%TO.P,C36,1*%
%TO.N,/Project Architecture/Temperature Sense/GPIO8*%
X168020998Y-77528399D03*
%TO.P,C36,2*%
%TO.N,/Project Architecture/GND*%
X168980998Y-77528399D03*
%TD*%
D20*
%TO.P,TP7,1,1_1*%
%TO.N,/Project Architecture/Power & Reference/TSREF*%
X92400000Y-53600000D03*
%TD*%
%TO.P,TP6,1,1_1*%
%TO.N,/Project Architecture/Power & Reference/LDOIN*%
X88350000Y-57650000D03*
%TD*%
D18*
%TO.P,R30,1*%
%TO.N,/Project Architecture/Temperature Sense/TBIAS*%
X166750998Y-77238399D03*
%TO.P,R30,2*%
%TO.N,/Project Architecture/Connectors/T_P8*%
X166750998Y-75588399D03*
%TD*%
D23*
%TO.P,U3,1*%
%TO.N,/Project Architecture/Daisy Chain/COMH_WP*%
X158103450Y-83428501D03*
%TO.P,U3,2*%
%TO.N,/Project Architecture/Daisy Chain/COMH_CT*%
X158103450Y-85968501D03*
%TO.P,U3,3*%
%TO.N,/Project Architecture/Daisy Chain/COMH_WN*%
X158103450Y-88508501D03*
%TO.P,U3,4*%
%TO.N,/Project Architecture/Connectors/COMH.N*%
X166396550Y-88508501D03*
%TO.P,U3,5*%
%TO.N,unconnected-(U3-Pad5)*%
X166396550Y-85968501D03*
%TO.P,U3,6*%
%TO.N,/Project Architecture/Connectors/COMH.P*%
X166396550Y-83428501D03*
%TD*%
D25*
%TO.P,C11,1*%
%TO.N,/Project Architecture/Cell Sense & Balance/VC1*%
X141650000Y-101500000D03*
%TO.P,C11,2*%
%TO.N,/Project Architecture/Cell Sense & Balance/VC0*%
X143200000Y-101500000D03*
%TD*%
D20*
%TO.P,TP5,1,1_1*%
%TO.N,/Project Architecture/Power & Reference/VCOLL*%
X88350000Y-53600000D03*
%TD*%
D10*
%TO.P,R18,1*%
%TO.N,/Project Architecture/Cell Sense & Balance/TAP0*%
X122937500Y-108000000D03*
%TO.P,R18,2*%
%TO.N,/Project Architecture/Cell Sense & Balance/VC0*%
X124587500Y-108000000D03*
%TD*%
D26*
%TO.P,C28,1*%
%TO.N,/Project Architecture/Power & Reference/VCOLL*%
X141250000Y-66800000D03*
%TO.P,C28,2*%
%TO.N,/Project Architecture/GND*%
X141250000Y-68700000D03*
%TD*%
D25*
%TO.P,C6,1*%
%TO.N,/Project Architecture/Cell Sense & Balance/VC6*%
X133900000Y-100000000D03*
%TO.P,C6,2*%
%TO.N,/Project Architecture/Cell Sense & Balance/VC5*%
X135450000Y-100000000D03*
%TD*%
D27*
%TO.P,R21,1*%
%TO.N,/Project Architecture/Power & Reference/VCOLL_R*%
X131250000Y-66787500D03*
%TO.P,R21,2*%
%TO.N,/Project Architecture/Power & Reference/VCOLL*%
X131250000Y-69712500D03*
%TD*%
D11*
%TO.P,R31,1*%
%TO.N,/Project Architecture/Connectors/T_P1*%
X143176001Y-75588399D03*
%TO.P,R31,2*%
%TO.N,/Project Architecture/Temperature Sense/GPIO1*%
X143176001Y-76608399D03*
%TD*%
%TO.P,R33,1*%
%TO.N,/Project Architecture/Connectors/T_P3*%
X150095998Y-75588399D03*
%TO.P,R33,2*%
%TO.N,/Project Architecture/Temperature Sense/GPIO3*%
X150095998Y-76608399D03*
%TD*%
D10*
%TO.P,R10,1*%
%TO.N,/Project Architecture/Cell Sense & Balance/TAP4*%
X122937500Y-89812500D03*
%TO.P,R10,2*%
%TO.N,/Project Architecture/Cell Sense & Balance/VC4*%
X124587500Y-89812500D03*
%TD*%
D11*
%TO.P,R40,1*%
%TO.N,/Project Architecture/Daisy Chain/U1_COMHP*%
X148000000Y-85358501D03*
%TO.P,R40,2*%
%TO.N,/Project Architecture/Daisy Chain/U1_COMHN*%
X148000000Y-86378501D03*
%TD*%
D25*
%TO.P,C12,1*%
%TO.N,/Project Architecture/Cell Sense & Balance/VC0*%
X143200000Y-100000000D03*
%TO.P,C12,2*%
%TO.N,/Project Architecture/GND*%
X144750000Y-100000000D03*
%TD*%
D28*
%TO.P,R1,1*%
%TO.N,/Project Architecture/VMODULE*%
X130350000Y-82175000D03*
%TO.P,R1,2*%
%TO.N,/Project Architecture/Cell Sense & Balance/BAT*%
X130350000Y-83825000D03*
%TD*%
D20*
%TO.P,TP11,1,1_1*%
%TO.N,/Project Architecture/Daisy Chain/U1_COMLP*%
X74200000Y-43500000D03*
%TD*%
D25*
%TO.P,C7,1*%
%TO.N,/Project Architecture/Cell Sense & Balance/VC5*%
X135450000Y-101500000D03*
%TO.P,C7,2*%
%TO.N,/Project Architecture/Cell Sense & Balance/VC4*%
X137000000Y-101500000D03*
%TD*%
D12*
%TO.P,R11,1*%
%TO.N,/Project Architecture/Cell Sense & Balance/TAP4*%
X115475000Y-87500000D03*
%TO.P,R11,2*%
%TO.N,/Project Architecture/Cell Sense & Balance/CB4*%
X121400000Y-87500000D03*
%TD*%
D29*
%TO.P,R43,1*%
%TO.N,/Project Architecture/Daisy Chain/U1_COMHP*%
X149940000Y-85018500D03*
%TO.P,R43,2*%
%TO.N,/Project Architecture/Daisy Chain/COMH_WP*%
X150960000Y-85018500D03*
%TD*%
D25*
%TO.P,C8,1*%
%TO.N,/Project Architecture/Cell Sense & Balance/VC4*%
X137000000Y-100000000D03*
%TO.P,C8,2*%
%TO.N,/Project Architecture/Cell Sense & Balance/VC3*%
X138550000Y-100000000D03*
%TD*%
D10*
%TO.P,R14,1*%
%TO.N,/Project Architecture/Cell Sense & Balance/TAP2*%
X122937500Y-99062500D03*
%TO.P,R14,2*%
%TO.N,/Project Architecture/Cell Sense & Balance/VC2*%
X124587500Y-99062500D03*
%TD*%
%TO.P,R12,1*%
%TO.N,/Project Architecture/Cell Sense & Balance/TAP3*%
X122937500Y-94437500D03*
%TO.P,R12,2*%
%TO.N,/Project Architecture/Cell Sense & Balance/VC3*%
X124587500Y-94437500D03*
%TD*%
D13*
%TO.P,C25,1*%
%TO.N,/Project Architecture/Power & Reference/NEG5V*%
X143200000Y-88380000D03*
%TO.P,C25,2*%
%TO.N,/Project Architecture/GND*%
X143200000Y-87420000D03*
%TD*%
D11*
%TO.P,R35,1*%
%TO.N,/Project Architecture/Connectors/T_P5*%
X157021001Y-75588400D03*
%TO.P,R35,2*%
%TO.N,/Project Architecture/Temperature Sense/GPIO5*%
X157021001Y-76608400D03*
%TD*%
D30*
%TO.P,C21,1*%
%TO.N,/Project Architecture/GND*%
X139800000Y-82500000D03*
%TO.P,C21,2*%
%TO.N,/Project Architecture/Power & Reference/DVDD*%
X141700000Y-82500000D03*
%TD*%
D20*
%TO.P,TP1,1,1_1*%
%TO.N,/Project Architecture/CVDD*%
X80250000Y-53600000D03*
%TD*%
D18*
%TO.P,R29,1*%
%TO.N,/Project Architecture/Temperature Sense/TBIAS*%
X165211001Y-77238399D03*
%TO.P,R29,2*%
%TO.N,/Project Architecture/Connectors/T_P7*%
X165211001Y-75588399D03*
%TD*%
D20*
%TO.P,TP9,1,1_1*%
%TO.N,/Project Architecture/Connectors/T_P1*%
X80250000Y-43500000D03*
%TD*%
D24*
%TO.P,C32,1*%
%TO.N,/Project Architecture/Temperature Sense/GPIO4*%
X154175998Y-77528399D03*
%TO.P,C32,2*%
%TO.N,/Project Architecture/GND*%
X155135998Y-77528399D03*
%TD*%
D20*
%TO.P,TP13,1,1_1*%
%TO.N,/Project Architecture/Daisy Chain/U1_COMHP*%
X74200000Y-51600000D03*
%TD*%
%TO.P,TP10,1,1_1*%
%TO.N,/Project Architecture/GND*%
X80250000Y-47550000D03*
%TD*%
D12*
%TO.P,R5,1*%
%TO.N,/Project Architecture/Cell Sense & Balance/TAP7*%
X115475000Y-73625000D03*
%TO.P,R5,2*%
%TO.N,/Project Architecture/Cell Sense & Balance/CB7*%
X121400000Y-73625000D03*
%TD*%
D29*
%TO.P,R44,1*%
%TO.N,/Project Architecture/Daisy Chain/U1_COMHN*%
X149940000Y-86918502D03*
%TO.P,R44,2*%
%TO.N,/Project Architecture/Daisy Chain/COMH_WN*%
X150960000Y-86918502D03*
%TD*%
D10*
%TO.P,R8,1*%
%TO.N,/Project Architecture/Cell Sense & Balance/TAP5*%
X122937500Y-85187500D03*
%TO.P,R8,2*%
%TO.N,/Project Architecture/Cell Sense & Balance/VC5*%
X124587500Y-85187500D03*
%TD*%
D11*
%TO.P,R36,1*%
%TO.N,/Project Architecture/Connectors/T_P6*%
X161090998Y-75588400D03*
%TO.P,R36,2*%
%TO.N,/Project Architecture/Temperature Sense/GPIO6*%
X161090998Y-76608400D03*
%TD*%
D18*
%TO.P,R27,1*%
%TO.N,/Project Architecture/Temperature Sense/TBIAS*%
X158290998Y-77238400D03*
%TO.P,R27,2*%
%TO.N,/Project Architecture/Connectors/T_P5*%
X158290998Y-75588400D03*
%TD*%
D20*
%TO.P,TP4,1,1_1*%
%TO.N,/Project Architecture/Power & Reference/LDOIN*%
X84300000Y-57650000D03*
%TD*%
D25*
%TO.P,C2,1*%
%TO.N,/Project Architecture/Cell Sense & Balance/VC8*%
X130800000Y-100000000D03*
%TO.P,C2,2*%
%TO.N,/Project Architecture/Cell Sense & Balance/VC7*%
X132350000Y-100000000D03*
%TD*%
%TO.P,C10,1*%
%TO.N,/Project Architecture/Cell Sense & Balance/VC2*%
X140100000Y-100000000D03*
%TO.P,C10,2*%
%TO.N,/Project Architecture/Cell Sense & Balance/VC1*%
X141650000Y-100000000D03*
%TD*%
%TO.P,C5,1*%
%TO.N,/Project Architecture/Cell Sense & Balance/VC7*%
X132350000Y-101500000D03*
%TO.P,C5,2*%
%TO.N,/Project Architecture/Cell Sense & Balance/VC6*%
X133900000Y-101500000D03*
%TD*%
D31*
%TO.P,R20,1*%
%TO.N,/Project Architecture/VMODULE*%
X128000000Y-69712500D03*
%TO.P,R20,2*%
%TO.N,/Project Architecture/Power & Reference/VCOLL_R*%
X128000000Y-66787500D03*
%TD*%
D16*
%TO.P,J2,1,1_1*%
%TO.N,/Project Architecture/Connectors/COMH.P*%
X171300000Y-84500001D03*
%TO.P,J2,2,2_2*%
%TO.N,/Project Architecture/Connectors/COMH.N*%
X171300000Y-87500000D03*
%TD*%
D12*
%TO.P,R7,1*%
%TO.N,/Project Architecture/Cell Sense & Balance/TAP6*%
X115475000Y-78250000D03*
%TO.P,R7,2*%
%TO.N,/Project Architecture/Cell Sense & Balance/CB6*%
X121400000Y-78250000D03*
%TD*%
D13*
%TO.P,C37,1*%
%TO.N,/Project Architecture/Daisy Chain/U1_COMLN*%
X149003450Y-103100000D03*
%TO.P,C37,2*%
%TO.N,/Project Architecture/GND*%
X149003450Y-102140000D03*
%TD*%
D29*
%TO.P,R41,1*%
%TO.N,/Project Architecture/Daisy Chain/U1_COMLN*%
X149893450Y-103100000D03*
%TO.P,R41,2*%
%TO.N,/Project Architecture/Daisy Chain/COML_WP*%
X150913450Y-103100000D03*
%TD*%
D20*
%TO.P,TP2,1,1_1*%
%TO.N,/Project Architecture/Power & Reference/DVDD*%
X80250000Y-57650000D03*
%TD*%
D11*
%TO.P,R39,1*%
%TO.N,/Project Architecture/Daisy Chain/U1_COMLN*%
X148003450Y-103540001D03*
%TO.P,R39,2*%
%TO.N,/Project Architecture/Daisy Chain/U1_COMLP*%
X148003450Y-104560001D03*
%TD*%
D24*
%TO.P,C34,1*%
%TO.N,/Project Architecture/Temperature Sense/GPIO6*%
X161090998Y-77528400D03*
%TO.P,C34,2*%
%TO.N,/Project Architecture/GND*%
X162050998Y-77528400D03*
%TD*%
D18*
%TO.P,R24,1*%
%TO.N,/Project Architecture/Temperature Sense/TBIAS*%
X145975998Y-77238399D03*
%TO.P,R24,2*%
%TO.N,/Project Architecture/Connectors/T_P2*%
X145975998Y-75588399D03*
%TD*%
D11*
%TO.P,R37,1*%
%TO.N,/Project Architecture/Connectors/T_P7*%
X163931001Y-75588399D03*
%TO.P,R37,2*%
%TO.N,/Project Architecture/Temperature Sense/GPIO7*%
X163931001Y-76608399D03*
%TD*%
D12*
%TO.P,R15,1*%
%TO.N,/Project Architecture/Cell Sense & Balance/TAP2*%
X115475000Y-96750000D03*
%TO.P,R15,2*%
%TO.N,/Project Architecture/Cell Sense & Balance/CB2*%
X121400000Y-96750000D03*
%TD*%
D18*
%TO.P,R26,1*%
%TO.N,/Project Architecture/Temperature Sense/TBIAS*%
X152900998Y-77238399D03*
%TO.P,R26,2*%
%TO.N,/Project Architecture/Connectors/T_P4*%
X152900998Y-75588399D03*
%TD*%
D32*
%TO.P,U1,1,BAT_1*%
%TO.N,/Project Architecture/Cell Sense & Balance/BAT*%
X130350002Y-86399999D03*
%TO.P,U1,2,CB16_2*%
X130350002Y-86899998D03*
%TO.P,U1,3,VC16_3*%
X130350002Y-87399999D03*
%TO.P,U1,4,CB15_4*%
X130350002Y-87899998D03*
%TO.P,U1,5,VC15_5*%
X130350002Y-88400000D03*
%TO.P,U1,6,CB14_6*%
X130350002Y-88899999D03*
%TO.P,U1,7,VC14_7*%
X130350002Y-89399998D03*
%TO.P,U1,8,CB13_8*%
X130350002Y-89899999D03*
%TO.P,U1,9,VC13_9*%
X130350002Y-90399999D03*
%TO.P,U1,10,CB12_10*%
X130350002Y-90900000D03*
%TO.P,U1,11,VC12_11*%
X130350002Y-91399999D03*
%TO.P,U1,12,CB11_12*%
X130350002Y-91899998D03*
%TO.P,U1,13,VC11_13*%
X130350002Y-92400000D03*
%TO.P,U1,14,CB10_14*%
X130350002Y-92899999D03*
%TO.P,U1,15,VC10_15*%
X130350002Y-93400000D03*
%TO.P,U1,16,CB9_16*%
X130350002Y-93899999D03*
D33*
%TO.P,U1,17,VC9_17*%
X132300001Y-95849998D03*
%TO.P,U1,18,CB8_18*%
%TO.N,/Project Architecture/Cell Sense & Balance/CB8*%
X132800000Y-95849998D03*
%TO.P,U1,19,VC8_19*%
%TO.N,/Project Architecture/Cell Sense & Balance/VC8*%
X133300001Y-95849998D03*
%TO.P,U1,20,CB7_20*%
%TO.N,/Project Architecture/Cell Sense & Balance/CB7*%
X133800000Y-95849998D03*
%TO.P,U1,21,VC7_21*%
%TO.N,/Project Architecture/Cell Sense & Balance/VC7*%
X134300002Y-95849998D03*
%TO.P,U1,22,CB6_22*%
%TO.N,/Project Architecture/Cell Sense & Balance/CB6*%
X134800001Y-95849998D03*
%TO.P,U1,23,VC6_23*%
%TO.N,/Project Architecture/Cell Sense & Balance/VC6*%
X135300000Y-95849998D03*
%TO.P,U1,24,CB5_24*%
%TO.N,/Project Architecture/Cell Sense & Balance/CB5*%
X135800001Y-95849998D03*
%TO.P,U1,25,VC5_25*%
%TO.N,/Project Architecture/Cell Sense & Balance/VC5*%
X136300001Y-95849998D03*
%TO.P,U1,26,CB4_26*%
%TO.N,/Project Architecture/Cell Sense & Balance/CB4*%
X136800002Y-95849998D03*
%TO.P,U1,27,VC4_27*%
%TO.N,/Project Architecture/Cell Sense & Balance/VC4*%
X137300001Y-95849998D03*
%TO.P,U1,28,CB3_28*%
%TO.N,/Project Architecture/Cell Sense & Balance/CB3*%
X137800000Y-95849998D03*
%TO.P,U1,29,VC3_29*%
%TO.N,/Project Architecture/Cell Sense & Balance/VC3*%
X138300002Y-95849998D03*
%TO.P,U1,30,CB2_30*%
%TO.N,/Project Architecture/Cell Sense & Balance/CB2*%
X138800001Y-95849998D03*
%TO.P,U1,31,VC2_31*%
%TO.N,/Project Architecture/Cell Sense & Balance/VC2*%
X139300002Y-95849998D03*
%TO.P,U1,32,CB1_32*%
%TO.N,/Project Architecture/Cell Sense & Balance/CB1*%
X139800001Y-95849998D03*
D32*
%TO.P,U1,33,VC1_33*%
%TO.N,/Project Architecture/Cell Sense & Balance/VC1*%
X141750000Y-93899999D03*
%TO.P,U1,34,CB0_34*%
%TO.N,/Project Architecture/Cell Sense & Balance/CB0*%
X141750000Y-93400000D03*
%TO.P,U1,35,VC0_35*%
%TO.N,/Project Architecture/Cell Sense & Balance/VC0*%
X141750000Y-92899999D03*
%TO.P,U1,36,REFHM_36*%
%TO.N,/Project Architecture/GND*%
X141750000Y-92400000D03*
%TO.P,U1,37,REFHP_37*%
%TO.N,/Project Architecture/Power & Reference/REFHP*%
X141750000Y-91899998D03*
%TO.P,U1,38,AVDD_38*%
%TO.N,/Project Architecture/Power & Reference/AVDD*%
X141750000Y-91399999D03*
%TO.P,U1,39,AVSS_39*%
%TO.N,/Project Architecture/GND*%
X141750000Y-90900000D03*
%TO.P,U1,40,COMLP_40*%
%TO.N,/Project Architecture/Daisy Chain/U1_COMLP*%
X141750000Y-90399999D03*
%TO.P,U1,41,COMLN_41*%
%TO.N,/Project Architecture/Daisy Chain/U1_COMLN*%
X141750000Y-89899999D03*
%TO.P,U1,42,COMHN_42*%
%TO.N,/Project Architecture/Daisy Chain/U1_COMHN*%
X141750000Y-89399998D03*
%TO.P,U1,43,COMHP_43*%
%TO.N,/Project Architecture/Daisy Chain/U1_COMHP*%
X141750000Y-88899999D03*
%TO.P,U1,44,NEG5V_44*%
%TO.N,/Project Architecture/Power & Reference/NEG5V*%
X141750000Y-88400000D03*
%TO.P,U1,45,CVDD_45*%
%TO.N,/Project Architecture/CVDD*%
X141750000Y-87899998D03*
%TO.P,U1,46,CVSS_46*%
%TO.N,/Project Architecture/GND*%
X141750000Y-87399999D03*
%TO.P,U1,47,LDOIN_47*%
%TO.N,/Project Architecture/Power & Reference/LDOIN*%
X141750000Y-86899998D03*
%TO.P,U1,48,NPNB_48*%
%TO.N,/Project Architecture/Power & Reference/NPNB*%
X141750000Y-86399999D03*
D33*
%TO.P,U1,49,DVDD_49*%
%TO.N,/Project Architecture/Power & Reference/DVDD*%
X139800001Y-84450000D03*
%TO.P,U1,50,DVSS_50*%
%TO.N,/Project Architecture/GND*%
X139300002Y-84450000D03*
%TO.P,U1,51,TSREF_51*%
%TO.N,/Project Architecture/Power & Reference/TSREF*%
X138800001Y-84450000D03*
%TO.P,U1,52,RX_52*%
%TO.N,/Project Architecture/CVDD*%
X138300002Y-84450000D03*
%TO.P,U1,53,TX_53*%
%TO.N,unconnected-(U1Communication-TX-Pad53)*%
X137800000Y-84450000D03*
%TO.P,U1,54,GPIO8_54*%
%TO.N,/Project Architecture/Temperature Sense/GPIO8*%
X137300001Y-84450000D03*
%TO.P,U1,55,GPIO7_55*%
%TO.N,/Project Architecture/Temperature Sense/GPIO7*%
X136800002Y-84450000D03*
%TO.P,U1,56,GPIO6_56*%
%TO.N,/Project Architecture/Temperature Sense/GPIO6*%
X136300001Y-84450000D03*
%TO.P,U1,57,GPIO5_57*%
%TO.N,/Project Architecture/Temperature Sense/GPIO5*%
X135800001Y-84450000D03*
%TO.P,U1,58,GPIO4_58*%
%TO.N,/Project Architecture/Temperature Sense/GPIO4*%
X135300000Y-84450000D03*
%TO.P,U1,59,GPIO3_59*%
%TO.N,/Project Architecture/Temperature Sense/GPIO3*%
X134800001Y-84450000D03*
%TO.P,U1,60,GPIO2_60*%
%TO.N,/Project Architecture/Temperature Sense/GPIO2*%
X134300002Y-84450000D03*
%TO.P,U1,61,GPIO1_61*%
%TO.N,/Project Architecture/Temperature Sense/GPIO1*%
X133800000Y-84450000D03*
%TO.P,U1,62,FAULT_N_62*%
%TO.N,unconnected-(U1Communication-FAULT_N-Pad62)*%
X133300001Y-84450000D03*
%TO.P,U1,63,BBN_63*%
%TO.N,unconnected-(U1Aux inputs-BBN-Pad63)*%
X132800000Y-84450000D03*
%TO.P,U1,64,BBP_64*%
%TO.N,unconnected-(U1Aux inputs-BBP-Pad64)*%
X132300001Y-84450000D03*
D34*
%TO.P,U1,65,PAD_65*%
%TO.N,/Project Architecture/GND*%
X132800000Y-86899998D03*
X132800000Y-88199998D03*
X132800000Y-89500000D03*
X132800000Y-90800000D03*
X132800000Y-92100000D03*
X132800000Y-93400000D03*
X134100000Y-86899998D03*
X134100000Y-88199998D03*
X134100000Y-89500000D03*
X134100000Y-90800000D03*
X134100000Y-92100000D03*
X134100000Y-93400000D03*
X135400000Y-86899998D03*
X135400000Y-88199998D03*
X135400000Y-89500000D03*
X135400000Y-90800000D03*
X135400000Y-92100000D03*
X135400000Y-93400000D03*
D35*
X136050001Y-90149999D03*
D34*
X136700002Y-86899998D03*
X136700002Y-88199998D03*
X136700002Y-89500000D03*
X136700002Y-90800000D03*
X136700002Y-92100000D03*
X136700002Y-93400000D03*
X138000002Y-86899998D03*
X138000002Y-88199998D03*
X138000002Y-89500000D03*
X138000002Y-90800000D03*
X138000002Y-92100000D03*
X138000002Y-93400000D03*
X139300002Y-86899998D03*
X139300002Y-88199998D03*
X139300002Y-89500000D03*
X139300002Y-90800000D03*
X139300002Y-92100000D03*
X139300002Y-93400000D03*
%TD*%
D36*
%TO.P,C40,1*%
%TO.N,/Project Architecture/Daisy Chain/U1_COMHN*%
X149000000Y-86918502D03*
%TO.P,C40,2*%
%TO.N,/Project Architecture/GND*%
X149000000Y-87878502D03*
%TD*%
D29*
%TO.P,R22,1*%
%TO.N,/Project Architecture/CVDD*%
X145696924Y-81987400D03*
%TO.P,R22,2*%
%TO.N,Net-(D1-A)*%
X146716924Y-81987400D03*
%TD*%
D19*
%TO.P,FID1,*%
%TO.N,*%
X108000000Y-106250000D03*
%TD*%
D18*
%TO.P,R28,1*%
%TO.N,/Project Architecture/Temperature Sense/TBIAS*%
X159815998Y-77238400D03*
%TO.P,R28,2*%
%TO.N,/Project Architecture/Connectors/T_P6*%
X159815998Y-75588400D03*
%TD*%
D21*
%TO.P,CR2,1*%
%TO.N,/Project Architecture/Daisy Chain/COMH_WP*%
X152154100Y-85018500D03*
%TO.P,CR2,2*%
%TO.N,/Project Architecture/Daisy Chain/COMH_WN*%
X152154100Y-86918502D03*
%TO.P,CR2,3*%
%TO.N,/Project Architecture/GND*%
X154452800Y-85968501D03*
%TD*%
D24*
%TO.P,C30,1*%
%TO.N,/Project Architecture/Temperature Sense/GPIO2*%
X147251001Y-77558400D03*
%TO.P,C30,2*%
%TO.N,/Project Architecture/GND*%
X148211001Y-77558400D03*
%TD*%
D37*
%TO.P,Q1,1,C_1*%
%TO.N,/Project Architecture/Power & Reference/VCOLL*%
X136500000Y-69172600D03*
D38*
%TO.P,Q1,2,B_2*%
%TO.N,/Project Architecture/Power & Reference/NPNB*%
X134219999Y-77541900D03*
%TO.P,Q1,3,E_3*%
%TO.N,/Project Architecture/Power & Reference/LDOIN*%
X138780001Y-77541900D03*
%TD*%
D36*
%TO.P,C38,1*%
%TO.N,/Project Architecture/Daisy Chain/U1_COMLP*%
X149003450Y-105000002D03*
%TO.P,C38,2*%
%TO.N,/Project Architecture/GND*%
X149003450Y-105960002D03*
%TD*%
D16*
%TO.P,J4,1,1_1*%
%TO.N,/Project Architecture/Connectors/T_P8*%
X161500000Y-72000000D03*
%TO.P,J4,2,2_2*%
%TO.N,/Project Architecture/Connectors/T_P7*%
X158500001Y-72000000D03*
%TO.P,J4,3,3_3*%
%TO.N,/Project Architecture/Connectors/T_P6*%
X155500002Y-72000000D03*
%TO.P,J4,4,4_4*%
%TO.N,/Project Architecture/Connectors/T_P5*%
X152500003Y-72000000D03*
%TO.P,J4,5,5_5*%
%TO.N,/Project Architecture/Connectors/T_P4*%
X149500004Y-72000000D03*
%TO.P,J4,6,6_6*%
%TO.N,/Project Architecture/Connectors/T_P3*%
X161500000Y-69000001D03*
%TO.P,J4,7,7_7*%
%TO.N,/Project Architecture/Connectors/T_P2*%
X158500001Y-69000001D03*
%TO.P,J4,8,8_8*%
%TO.N,/Project Architecture/Connectors/T_P1*%
X155500002Y-69000001D03*
%TO.P,J4,9,9_9*%
%TO.N,/Project Architecture/GND*%
X152500003Y-69000001D03*
%TO.P,J4,10,10_10*%
X149500004Y-69000001D03*
D39*
%TO.P,J4,11,11_11*%
X147350003Y-70500000D03*
%TO.P,J4,12,12_12*%
X163650001Y-70500000D03*
%TD*%
D17*
%TO.P,C41,1*%
%TO.N,/Project Architecture/Daisy Chain/COML_CT*%
X156683450Y-104050001D03*
%TO.P,C41,2*%
%TO.N,/Project Architecture/GND*%
X155723450Y-104050001D03*
%TD*%
D12*
%TO.P,R13,1*%
%TO.N,/Project Architecture/Cell Sense & Balance/TAP3*%
X115475000Y-92125000D03*
%TO.P,R13,2*%
%TO.N,/Project Architecture/Cell Sense & Balance/CB3*%
X121400000Y-92125000D03*
%TD*%
D14*
%TO.P,C26,1*%
%TO.N,/Project Architecture/Power & Reference/TSREF*%
X138275000Y-82700000D03*
%TO.P,C26,2*%
%TO.N,/Project Architecture/GND*%
X136725000Y-82700000D03*
%TD*%
D17*
%TO.P,C42,1*%
%TO.N,/Project Architecture/Daisy Chain/COMH_CT*%
X156730000Y-85968501D03*
%TO.P,C42,2*%
%TO.N,/Project Architecture/GND*%
X155770000Y-85968501D03*
%TD*%
%TO.P,C35,1*%
%TO.N,/Project Architecture/Temperature Sense/GPIO7*%
X163931001Y-77528399D03*
%TO.P,C35,2*%
%TO.N,/Project Architecture/GND*%
X162971001Y-77528399D03*
%TD*%
D10*
%TO.P,R4,1*%
%TO.N,/Project Architecture/Cell Sense & Balance/TAP7*%
X122937500Y-75937500D03*
%TO.P,R4,2*%
%TO.N,/Project Architecture/Cell Sense & Balance/VC7*%
X124587500Y-75937500D03*
%TD*%
D25*
%TO.P,C9,1*%
%TO.N,/Project Architecture/Cell Sense & Balance/VC3*%
X138550000Y-101500000D03*
%TO.P,C9,2*%
%TO.N,/Project Architecture/Cell Sense & Balance/VC2*%
X140100000Y-101500000D03*
%TD*%
D20*
%TO.P,TP3,1,1_1*%
%TO.N,/Project Architecture/Power & Reference/AVDD*%
X84300000Y-53600000D03*
%TD*%
D10*
%TO.P,R6,1*%
%TO.N,/Project Architecture/Cell Sense & Balance/TAP6*%
X122937500Y-80562500D03*
%TO.P,R6,2*%
%TO.N,/Project Architecture/Cell Sense & Balance/VC6*%
X124587500Y-80562500D03*
%TD*%
D29*
%TO.P,R42,1*%
%TO.N,/Project Architecture/Daisy Chain/U1_COMLP*%
X149893450Y-105000002D03*
%TO.P,R42,2*%
%TO.N,/Project Architecture/Daisy Chain/COML_WP*%
X150913450Y-105000002D03*
%TD*%
D12*
%TO.P,R3,1*%
%TO.N,/Project Architecture/Cell Sense & Balance/TAP8*%
X115475000Y-69000000D03*
%TO.P,R3,2*%
%TO.N,/Project Architecture/Cell Sense & Balance/CB8*%
X121400000Y-69000000D03*
%TD*%
D20*
%TO.P,TP14,1,1_1*%
%TO.N,/Project Architecture/Daisy Chain/U1_COMHN*%
X74200000Y-55650000D03*
%TD*%
D40*
%TO.N,/Project Architecture/Temperature Sense/GPIO4*%
X135000000Y-85684180D03*
D41*
%TO.N,/Project Architecture/Cell Sense & Balance/CB5*%
X135500000Y-98000000D03*
D40*
X123150000Y-82875000D03*
X123900000Y-82875000D03*
%TO.N,/Project Architecture/GND*%
X144931103Y-86758237D03*
X147700000Y-102015786D03*
X147700000Y-98265786D03*
X145850000Y-98887106D03*
X144400773Y-87288567D03*
X145850000Y-94387106D03*
X145489250Y-88816384D03*
X145569132Y-92874766D03*
X147700000Y-96765786D03*
X142925000Y-92400000D03*
X145850000Y-93637106D03*
D41*
X140575885Y-87200416D03*
D40*
X147700000Y-93015786D03*
X147700000Y-94515786D03*
X145850000Y-96637106D03*
X145850000Y-99637106D03*
X147700000Y-99765786D03*
X147080240Y-87225394D03*
X147700000Y-95265786D03*
X147700000Y-93765786D03*
X145991763Y-85697577D03*
X145850000Y-101887106D03*
X147700000Y-96015786D03*
X145850000Y-95137106D03*
X145850000Y-100387106D03*
X144958920Y-89346714D03*
X143750000Y-91750000D03*
X145582304Y-90271644D03*
X144508472Y-91814106D03*
X145850000Y-101137106D03*
X147700000Y-101265786D03*
X147700000Y-100515786D03*
X147700000Y-99015786D03*
X147700000Y-97515786D03*
X146112634Y-90801974D03*
X145850000Y-98137106D03*
X146449461Y-104510122D03*
X145850000Y-103387106D03*
X146549910Y-87755724D03*
X145850000Y-102637106D03*
D42*
X153500000Y-85968501D03*
D40*
X146522093Y-85167247D03*
X145850000Y-95887106D03*
X145038802Y-92344436D03*
X146019580Y-88286054D03*
X145850000Y-97387106D03*
D42*
X153500000Y-104050001D03*
D40*
X147173294Y-91862634D03*
X145461433Y-86227907D03*
X146642964Y-91332304D03*
D42*
%TO.N,/Project Architecture/Cell Sense & Balance/BAT*%
X131850000Y-95763699D03*
D40*
%TO.N,/Project Architecture/Temperature Sense/GPIO2*%
X134108006Y-85621349D03*
%TO.N,/Project Architecture/Temperature Sense/GPIO8*%
X137715983Y-85684180D03*
%TO.N,/Project Architecture/Temperature Sense/GPIO5*%
X135626967Y-83228089D03*
%TO.N,/Project Architecture/Cell Sense & Balance/CB0*%
X123150000Y-106000000D03*
D41*
X143100000Y-93700000D03*
D40*
X123900000Y-106000000D03*
%TO.N,/Project Architecture/Cell Sense & Balance/CB1*%
X123900000Y-101375000D03*
D41*
X140750000Y-97500000D03*
D40*
X123150000Y-101375000D03*
%TO.N,/Project Architecture/Temperature Sense/GPIO3*%
X134900000Y-83228089D03*
D41*
%TO.N,/Project Architecture/Cell Sense & Balance/CB4*%
X136750000Y-98500000D03*
D40*
X123150000Y-87500000D03*
X123900000Y-87500000D03*
D41*
%TO.N,/Project Architecture/CVDD*%
X140550003Y-88000000D03*
D40*
%TO.N,/Project Architecture/Cell Sense & Balance/CB7*%
X123150000Y-73625000D03*
D41*
X132581315Y-98453180D03*
D40*
X123900000Y-73625000D03*
%TO.N,/Project Architecture/Temperature Sense/GPIO6*%
X135900000Y-85684180D03*
%TO.N,/Project Architecture/Cell Sense & Balance/CB6*%
X123150000Y-78250000D03*
D41*
X133926052Y-98176052D03*
D40*
X123900000Y-78250000D03*
%TO.N,/Project Architecture/Temperature Sense/GPIO7*%
X136800001Y-85684180D03*
D41*
%TO.N,/Project Architecture/Cell Sense & Balance/CB2*%
X139250000Y-97500000D03*
D40*
X123900000Y-96750000D03*
X123150000Y-96750000D03*
D41*
%TO.N,/Project Architecture/Cell Sense & Balance/CB8*%
X132072985Y-97195034D03*
D40*
X123900000Y-69000000D03*
X123150000Y-69000000D03*
D41*
%TO.N,/Project Architecture/Cell Sense & Balance/CB3*%
X138000000Y-98250000D03*
D40*
X123150000Y-92125000D03*
X123900000Y-92125000D03*
%TO.N,/Project Architecture/Power & Reference/REFHP*%
X142942997Y-91629086D03*
%TO.N,/Project Architecture/Power & Reference/AVDD*%
X140577091Y-91250000D03*
%TD*%
%TO.N,/Project Architecture/Cell Sense & Balance/TAP8*%
D43*
X115475000Y-69000000D02*
X114400000Y-69000000D01*
X116400000Y-69000000D02*
X115475000Y-69000000D01*
X110400000Y-81500000D02*
X109774972Y-82125028D01*
X109774972Y-82125031D02*
X108900000Y-83000003D01*
X122937500Y-71312500D02*
X118712500Y-71312500D01*
X118712500Y-71312500D02*
X116400000Y-69000000D01*
X110400000Y-73000000D02*
X110400000Y-81500000D01*
X109774972Y-82125028D02*
X109774972Y-82125031D01*
X114400000Y-69000000D02*
X110400000Y-73000000D01*
%TO.N,/Project Architecture/Cell Sense & Balance/VC8*%
D44*
X130800000Y-99245838D02*
X130800000Y-100000000D01*
X130800000Y-100000000D02*
X129750000Y-100000000D01*
X133299999Y-96745838D02*
X130800000Y-99245838D01*
X127312500Y-71312500D02*
X124587500Y-71312500D01*
X127900000Y-98150000D02*
X127900000Y-71900000D01*
X129750000Y-100000000D02*
X127900000Y-98150000D01*
X127900000Y-71900000D02*
X127312500Y-71312500D01*
X133299999Y-95849998D02*
X133299999Y-96745838D01*
%TO.N,/Project Architecture/Connectors/T_P4*%
X154091004Y-75503405D02*
X154175998Y-75588399D01*
X152900998Y-75588399D02*
X154175998Y-75588399D01*
%TO.N,/Project Architecture/Temperature Sense/GPIO4*%
X135300000Y-84450000D02*
X135300000Y-85384180D01*
X135000000Y-85684180D02*
X135000000Y-85699997D01*
X154175998Y-76608399D02*
X154175998Y-77528399D01*
X135300000Y-85384180D02*
X135000000Y-85684180D01*
%TO.N,/Project Architecture/Cell Sense & Balance/TAP5*%
D43*
X115475000Y-82875000D02*
X115025000Y-82875000D01*
X116525000Y-82875000D02*
X115475000Y-82875000D01*
X115475000Y-82875000D02*
X115475000Y-84174949D01*
X118837500Y-85187500D02*
X116525000Y-82875000D01*
X115025000Y-82875000D02*
X111899999Y-86000002D01*
X122937500Y-85187500D02*
X118837500Y-85187500D01*
%TO.N,/Project Architecture/Cell Sense & Balance/CB5*%
D45*
X135799999Y-95849998D02*
X135799999Y-97700001D01*
D43*
X121400000Y-82875000D02*
X123900000Y-82875000D01*
D45*
X135799999Y-97700001D02*
X135500000Y-98000000D01*
%TO.N,/Project Architecture/Daisy Chain/U1_COMHP*%
D44*
X147950000Y-85358501D02*
X148000000Y-85358501D01*
X147640000Y-85668501D02*
X147950000Y-85358501D01*
X148000000Y-85358501D02*
X148659999Y-85358501D01*
X141799998Y-88949999D02*
X141749998Y-88899999D01*
X148659999Y-85358501D02*
X149000000Y-85018500D01*
X149000000Y-85018500D02*
X149940000Y-85018500D01*
X143800001Y-88949999D02*
X147081499Y-85668501D01*
X147081499Y-85668501D02*
X147640000Y-85668501D01*
X141800000Y-88949999D02*
X143800001Y-88949999D01*
X141750000Y-88899999D02*
X141800000Y-88949999D01*
%TO.N,/Project Architecture/GND*%
X141750000Y-87399999D02*
X143179999Y-87399999D01*
D46*
X153500000Y-85968501D02*
X154452800Y-85968501D01*
X155723450Y-104050001D02*
X154452800Y-104050001D01*
D44*
X140775468Y-87399999D02*
X140575885Y-87200416D01*
D45*
X143750000Y-91658271D02*
X142991729Y-90900000D01*
X142991729Y-90900000D02*
X141750000Y-90900000D01*
D44*
X143179999Y-87399999D02*
X143200000Y-87420000D01*
D45*
X143750000Y-91750000D02*
X143750000Y-91658271D01*
X141750000Y-92400000D02*
X142925000Y-92400000D01*
D46*
X155770000Y-85968501D02*
X154452800Y-85968501D01*
D44*
X141750000Y-87399999D02*
X140775468Y-87399999D01*
D46*
X153500000Y-104050001D02*
X154452800Y-104050001D01*
D45*
X139300002Y-82999998D02*
X139800000Y-82500000D01*
X139300002Y-84450000D02*
X139300002Y-82999998D01*
%TO.N,/Project Architecture/Cell Sense & Balance/BAT*%
D43*
X130350000Y-85250000D02*
X130350000Y-94263699D01*
X131936299Y-95849998D02*
X132249998Y-95849998D01*
X130350000Y-94263699D02*
X131936299Y-95849998D01*
%TO.N,/Project Architecture/Power & Reference/TSREF*%
D44*
X138800001Y-83225001D02*
X138275000Y-82700000D01*
X138643000Y-81000000D02*
X138643000Y-81857000D01*
X138643000Y-81857000D02*
X138275000Y-82225000D01*
X138275000Y-82225000D02*
X138275000Y-82700000D01*
X138275000Y-82700000D02*
X138328500Y-82646500D01*
X138800001Y-84450000D02*
X138800001Y-83225001D01*
%TO.N,/Project Architecture/Power & Reference/LDOIN*%
X142594976Y-86899998D02*
X143300000Y-86194974D01*
X139300000Y-79500000D02*
X138780001Y-78980001D01*
X142100000Y-79500000D02*
X139300000Y-79500000D01*
X143300000Y-80700000D02*
X142100000Y-79500000D01*
X138780001Y-78980001D02*
X138780001Y-77541900D01*
D45*
X140125000Y-77695000D02*
X138933101Y-77695000D01*
D44*
X143300000Y-86194974D02*
X143300000Y-80700000D01*
X141750000Y-86899998D02*
X142594976Y-86899998D01*
%TO.N,/Project Architecture/Cell Sense & Balance/TAP0*%
D43*
X122937500Y-108000000D02*
X122862500Y-108075000D01*
X114400000Y-106000000D02*
X110900000Y-102500000D01*
X118725000Y-108075000D02*
X116650000Y-106000000D01*
X110900000Y-97000000D02*
X108900000Y-95000000D01*
X110900000Y-102500000D02*
X110900000Y-97000000D01*
X115475000Y-106000000D02*
X114400000Y-106000000D01*
X122862500Y-108075000D02*
X118725000Y-108075000D01*
X116650000Y-106000000D02*
X115475000Y-106000000D01*
%TO.N,/Project Architecture/Cell Sense & Balance/TAP2*%
X113650000Y-94500000D02*
X112650000Y-93500000D01*
X114400000Y-96750000D02*
X113650000Y-96000000D01*
X116400000Y-96750000D02*
X115475000Y-96750000D01*
X115475000Y-96750000D02*
X114400000Y-96750000D01*
X110400000Y-93500000D02*
X108900001Y-92000001D01*
X113650000Y-96000000D02*
X113650000Y-94500000D01*
X118712500Y-99062500D02*
X116400000Y-96750000D01*
X108900001Y-92000001D02*
X108900000Y-92000001D01*
X122937500Y-99062500D02*
X118712500Y-99062500D01*
X112650000Y-93500000D02*
X110400000Y-93500000D01*
%TO.N,/Project Architecture/VMODULE*%
X108900000Y-72250000D02*
X114362500Y-66787500D01*
X125075000Y-66787500D02*
X128000000Y-69712500D01*
X108900000Y-80000004D02*
X108900000Y-72250000D01*
X130350000Y-72062500D02*
X130350000Y-82175000D01*
X128000000Y-69712500D02*
X130350000Y-72062500D01*
X114362500Y-66787500D02*
X125075000Y-66787500D01*
%TO.N,/Project Architecture/Cell Sense & Balance/TAP1*%
X111899999Y-99249999D02*
X111899999Y-95000000D01*
X118837500Y-103687500D02*
X116525000Y-101375000D01*
X122937500Y-103687500D02*
X118837500Y-103687500D01*
X115475000Y-101375000D02*
X114025000Y-101375000D01*
X116525000Y-101375000D02*
X115475000Y-101375000D01*
X114025000Y-101375000D02*
X111899999Y-99249999D01*
%TO.N,/Project Architecture/Cell Sense & Balance/TAP3*%
X122937500Y-94437500D02*
X118837500Y-94437500D01*
X112024998Y-92125000D02*
X111899999Y-92000001D01*
X116525000Y-92125000D02*
X115475000Y-92125000D01*
X115475000Y-92125000D02*
X112024998Y-92125000D01*
X118837500Y-94437500D02*
X116525000Y-92125000D01*
%TO.N,/Project Architecture/Cell Sense & Balance/TAP4*%
X113149998Y-89000002D02*
X114650000Y-87500000D01*
X122937500Y-89812500D02*
X118962500Y-89812500D01*
X118962500Y-89812500D02*
X116650000Y-87500000D01*
X111899999Y-89000002D02*
X113149998Y-89000002D01*
X116650000Y-87500000D02*
X115475000Y-87500000D01*
X114650000Y-87500000D02*
X115475000Y-87500000D01*
%TO.N,/Project Architecture/Cell Sense & Balance/TAP6*%
X113650000Y-81750000D02*
X112399997Y-83000003D01*
X112399997Y-83000003D02*
X111899999Y-83000003D01*
X118712500Y-80562500D02*
X116400000Y-78250000D01*
X115475000Y-78250000D02*
X114400000Y-78250000D01*
X114400000Y-78250000D02*
X113650000Y-79000000D01*
X113650000Y-79000000D02*
X113650000Y-81750000D01*
X116400000Y-78250000D02*
X115475000Y-78250000D01*
X122937500Y-80562500D02*
X118712500Y-80562500D01*
%TO.N,/Project Architecture/Cell Sense & Balance/TAP7*%
X111899999Y-75500001D02*
X111899999Y-80000004D01*
X116275000Y-73625000D02*
X115475000Y-73625000D01*
X113775000Y-73625000D02*
X111899999Y-75500001D01*
X118587500Y-75937500D02*
X116275000Y-73625000D01*
X122937500Y-75937500D02*
X118587500Y-75937500D01*
X115475000Y-73625000D02*
X113775000Y-73625000D01*
%TO.N,/Project Architecture/Temperature Sense/GPIO1*%
D44*
X143176001Y-76608399D02*
X143176001Y-77558400D01*
%TO.N,/Project Architecture/Connectors/T_P3*%
X151375998Y-75588399D02*
X150095998Y-75588399D01*
%TO.N,/Project Architecture/Connectors/T_P2*%
X145975998Y-75588399D02*
X147251001Y-75588399D01*
%TO.N,/Project Architecture/Temperature Sense/GPIO2*%
X134300002Y-84450000D02*
X134300002Y-85429353D01*
X147251001Y-76608399D02*
X147251001Y-77558400D01*
X134300002Y-85429353D02*
X134108006Y-85621349D01*
%TO.N,/Project Architecture/Connectors/T_P8*%
X166750998Y-75588399D02*
X168020998Y-75588399D01*
%TO.N,/Project Architecture/Temperature Sense/GPIO8*%
X137300001Y-85268198D02*
X137715983Y-85684180D01*
X137300001Y-84450000D02*
X137300001Y-85268198D01*
X168020998Y-76608399D02*
X168020998Y-77528399D01*
%TO.N,/Project Architecture/Connectors/COML.P*%
X167410000Y-106590001D02*
X166396550Y-106590001D01*
X171300000Y-104550001D02*
X171037500Y-104287501D01*
X171037500Y-104287501D02*
X169712500Y-104287501D01*
X169712500Y-104287501D02*
X167410000Y-106590001D01*
X171300000Y-105500000D02*
X171300000Y-104550001D01*
%TO.N,/Project Architecture/Connectors/COML.N*%
X171300000Y-103600001D02*
X171012500Y-103887501D01*
X171012500Y-103887501D02*
X169737500Y-103887501D01*
X169737500Y-103887501D02*
X167360000Y-101510001D01*
X171300000Y-102500001D02*
X171300000Y-103600001D01*
X167360000Y-101510001D02*
X166396550Y-101510001D01*
%TO.N,/Project Architecture/Cell Sense & Balance/VC1*%
X141650000Y-94600000D02*
X141750000Y-94500000D01*
X132250000Y-107500000D02*
X128437500Y-103687500D01*
X141650000Y-100000000D02*
X141650000Y-94600000D01*
X141650000Y-101500000D02*
X141650000Y-106725000D01*
X141650000Y-106725000D02*
X140875000Y-107500000D01*
X140875000Y-107500000D02*
X132250000Y-107500000D01*
X141749998Y-94499998D02*
X141749998Y-93899999D01*
X141750000Y-94500000D02*
X141749998Y-94499998D01*
X141650000Y-100000000D02*
X141650000Y-101500000D01*
X128437500Y-103687500D02*
X124587500Y-103687500D01*
%TO.N,/Project Architecture/Temperature Sense/GPIO5*%
X135800001Y-84450000D02*
X135800001Y-83401123D01*
X135800001Y-83401123D02*
X135626967Y-83228089D01*
X157021001Y-76608400D02*
X157021001Y-77528400D01*
%TO.N,/Project Architecture/Cell Sense & Balance/CB0*%
D43*
X121400000Y-106000000D02*
X123900000Y-106000000D01*
D45*
X142800000Y-93400000D02*
X143100000Y-93700000D01*
X141749998Y-93400000D02*
X142800000Y-93400000D01*
%TO.N,/Project Architecture/Daisy Chain/COML_WP*%
D44*
X156513451Y-103100000D02*
X158103450Y-101510001D01*
X152154100Y-103100000D02*
X156513451Y-103100000D01*
X150913450Y-103100000D02*
X152154100Y-103100000D01*
X150913450Y-105000002D02*
X152154100Y-105000002D01*
X152154100Y-105000002D02*
X156513451Y-105000002D01*
X156513451Y-105000002D02*
X158103450Y-106590001D01*
%TO.N,/Project Architecture/Daisy Chain/U1_COMLN*%
X148003450Y-103540001D02*
X148563449Y-103540001D01*
X147953450Y-103540001D02*
X148003450Y-103540001D01*
X146950000Y-103384315D02*
X147415686Y-103850001D01*
X141750000Y-89899999D02*
X142350001Y-89899999D01*
X147415686Y-103850001D02*
X147643450Y-103850001D01*
X149893450Y-103100000D02*
X149003450Y-103100000D01*
X142350001Y-89899999D02*
X142400001Y-89949999D01*
X142400001Y-89949999D02*
X144199999Y-89949999D01*
X146950000Y-92700000D02*
X146950000Y-103384315D01*
X144199999Y-89949999D02*
X146950000Y-92700000D01*
X147643450Y-103850001D02*
X147953450Y-103540001D01*
X148563449Y-103540001D02*
X149003450Y-103100000D01*
%TO.N,/Project Architecture/Cell Sense & Balance/CB1*%
D43*
X121400000Y-101375000D02*
X123900000Y-101375000D01*
D45*
X139799999Y-96549999D02*
X140750000Y-97500000D01*
X139799999Y-95849998D02*
X139799999Y-96549999D01*
%TO.N,/Project Architecture/Connectors/T_P1*%
D44*
X144450998Y-75588399D02*
X143176001Y-75588399D01*
%TO.N,/Project Architecture/Daisy Chain/COML_CT*%
X158103450Y-104050001D02*
X156683450Y-104050001D01*
%TO.N,/Project Architecture/Temperature Sense/GPIO3*%
X134800001Y-83299999D02*
X134900000Y-83200000D01*
X150095998Y-76608399D02*
X150095998Y-77553399D01*
X134800001Y-84450000D02*
X134800001Y-83299999D01*
%TO.N,/Project Architecture/Daisy Chain/COMH_WP*%
X156513451Y-85018500D02*
X158103450Y-83428501D01*
X152154100Y-85018500D02*
X156513451Y-85018500D01*
X152154100Y-85018500D02*
X150960000Y-85018500D01*
%TO.N,/Project Architecture/Daisy Chain/COMH_CT*%
X156730000Y-85968501D02*
X158103450Y-85968501D01*
%TO.N,/Project Architecture/Daisy Chain/COMH_WN*%
X152154100Y-86918502D02*
X156513451Y-86918502D01*
X150960000Y-86918502D02*
X152154100Y-86918502D01*
X156513451Y-86918502D02*
X158103450Y-88508501D01*
%TO.N,/Project Architecture/Connectors/COMH.N*%
X167843500Y-86225001D02*
X170025000Y-86225001D01*
X166396550Y-88508501D02*
X166396550Y-87671951D01*
X170025000Y-86225001D02*
X171300000Y-87500000D01*
X166396550Y-87671951D02*
X167843500Y-86225001D01*
%TO.N,/Project Architecture/Connectors/COMH.P*%
X166396550Y-83428501D02*
X166396550Y-84315051D01*
X166396550Y-84315051D02*
X167856500Y-85775001D01*
X167856500Y-85775001D02*
X170025000Y-85775001D01*
X170025000Y-85775001D02*
X171300000Y-84500001D01*
%TO.N,/Project Architecture/Cell Sense & Balance/VC0*%
X143200000Y-95300000D02*
X143200000Y-100000000D01*
X143200000Y-100000000D02*
X143200000Y-101500000D01*
X141749998Y-92899999D02*
X143219999Y-92899999D01*
X143219999Y-92899999D02*
X143710000Y-93390000D01*
X124587500Y-108000000D02*
X142250000Y-108000000D01*
X143710000Y-94790000D02*
X143200000Y-95300000D01*
X143200000Y-101500000D02*
X143200000Y-107050000D01*
X143200000Y-107050000D02*
X142250000Y-108000000D01*
X143710000Y-93390000D02*
X143710000Y-94790000D01*
%TO.N,/Project Architecture/Power & Reference/VCOLL*%
D45*
X141250000Y-66800000D02*
X138872600Y-66800000D01*
D43*
X131250000Y-69712500D02*
X135960100Y-69712500D01*
D45*
X138872600Y-66800000D02*
X136500000Y-69172600D01*
D43*
X135960100Y-69712500D02*
X136500000Y-69172600D01*
%TO.N,/Project Architecture/Cell Sense & Balance/VC6*%
D44*
X132000000Y-103750000D02*
X126900000Y-98650000D01*
X133900000Y-99127000D02*
X133900000Y-100000000D01*
X134750000Y-98277000D02*
X133900000Y-99127000D01*
X135299998Y-97275106D02*
X134750000Y-97825104D01*
X134750000Y-97825104D02*
X134750000Y-98277000D01*
X133900000Y-102850000D02*
X133000000Y-103750000D01*
X135299998Y-95849998D02*
X135299998Y-97275106D01*
X133900000Y-101500000D02*
X133900000Y-102850000D01*
X133000000Y-103750000D02*
X132000000Y-103750000D01*
X126262500Y-80562500D02*
X124587500Y-80562500D01*
X126900000Y-98650000D02*
X126900000Y-81200000D01*
X133900000Y-100000000D02*
X133900000Y-101500000D01*
X126900000Y-81200000D02*
X126262500Y-80562500D01*
%TO.N,/Project Architecture/Cell Sense & Balance/VC5*%
X136299999Y-95849998D02*
X136299999Y-98037449D01*
X135450000Y-104800000D02*
X135450000Y-101500000D01*
X135450000Y-98887448D02*
X135450000Y-100000000D01*
X134750000Y-105500000D02*
X135450000Y-104800000D01*
X135450000Y-100000000D02*
X135450000Y-101500000D01*
X136299999Y-98037449D02*
X135450000Y-98887448D01*
X125837500Y-85187500D02*
X126400000Y-85750000D01*
X124587500Y-85187500D02*
X125837500Y-85187500D01*
X126400000Y-85750000D02*
X126400000Y-98775000D01*
X126400000Y-98775000D02*
X133125000Y-105500000D01*
X133125000Y-105500000D02*
X134750000Y-105500000D01*
%TO.N,/Project Architecture/Power & Reference/VCOLL_R*%
D43*
X131250000Y-66787500D02*
X128000000Y-66787500D01*
%TO.N,/Project Architecture/Cell Sense & Balance/VC4*%
D44*
X136250000Y-106000000D02*
X137000000Y-105250000D01*
X137000000Y-105250000D02*
X137000000Y-101500000D01*
X125462500Y-89812500D02*
X125900000Y-90250000D01*
X137000000Y-100000000D02*
X137000000Y-101500000D01*
X124587500Y-89812500D02*
X125462500Y-89812500D01*
X137299999Y-98875006D02*
X137299999Y-95849998D01*
X133000000Y-106000000D02*
X136250000Y-106000000D01*
X137000000Y-100000000D02*
X137000000Y-99175005D01*
X137000000Y-99175005D02*
X137299999Y-98875006D01*
X125900000Y-98900000D02*
X133000000Y-106000000D01*
X125900000Y-90250000D02*
X125900000Y-98900000D01*
%TO.N,/Project Architecture/Daisy Chain/U1_COMHN*%
X143894975Y-89349999D02*
X147176473Y-86068501D01*
X141799997Y-89349999D02*
X141749998Y-89399998D01*
X147176473Y-86068501D02*
X147640000Y-86068501D01*
X141799999Y-89349999D02*
X143894975Y-89349999D01*
X148459999Y-86378501D02*
X149000000Y-86918502D01*
X141750000Y-89399998D02*
X141799999Y-89349999D01*
X148000000Y-86378501D02*
X148459999Y-86378501D01*
X147640000Y-86068501D02*
X147950000Y-86378501D01*
X147950000Y-86378501D02*
X148000000Y-86378501D01*
X149940000Y-86918502D02*
X149000000Y-86918502D01*
%TO.N,/Project Architecture/Daisy Chain/U1_COMLP*%
X147250000Y-104250001D02*
X147643450Y-104250001D01*
X146600000Y-103600001D02*
X147250000Y-104250001D01*
X146600000Y-92844974D02*
X146600000Y-103600001D01*
X141799997Y-90350000D02*
X141749998Y-90399999D01*
X142400001Y-90349999D02*
X144105025Y-90349999D01*
X147953450Y-104560001D02*
X148003450Y-104560001D01*
X144105025Y-90349999D02*
X146600000Y-92844974D01*
X147643450Y-104250001D02*
X147953450Y-104560001D01*
X142350001Y-90399999D02*
X142400001Y-90349999D01*
X149893450Y-105000002D02*
X149003450Y-105000002D01*
X148003450Y-104560001D02*
X148563449Y-104560001D01*
X141750000Y-90399999D02*
X142350001Y-90399999D01*
X148563449Y-104560001D02*
X149003450Y-105000002D01*
%TO.N,/Project Architecture/Cell Sense & Balance/CB4*%
D43*
X121400000Y-87500000D02*
X123900000Y-87500000D01*
D45*
X136800000Y-95849998D02*
X136800000Y-98450000D01*
X136800000Y-98450000D02*
X136750000Y-98500000D01*
%TO.N,/Project Architecture/Cell Sense & Balance/VC3*%
D44*
X138550000Y-105700000D02*
X138550000Y-101500000D01*
X125400000Y-94750000D02*
X125400000Y-99150000D01*
X138550000Y-97800000D02*
X138550000Y-100000000D01*
X125400000Y-99150000D02*
X132750000Y-106500000D01*
X138550000Y-100000000D02*
X138550000Y-101500000D01*
X125087500Y-94437500D02*
X125400000Y-94750000D01*
X137750000Y-106500000D02*
X138550000Y-105700000D01*
X132750000Y-106500000D02*
X137750000Y-106500000D01*
X124587500Y-94437500D02*
X125087500Y-94437500D01*
X138300000Y-97550000D02*
X138550000Y-97800000D01*
X138300000Y-95849998D02*
X138300000Y-97550000D01*
%TO.N,/Project Architecture/Cell Sense & Balance/VC2*%
X124587500Y-99087500D02*
X132500000Y-107000000D01*
X140100000Y-100000000D02*
X140100000Y-101500000D01*
X140100000Y-106150000D02*
X140100000Y-101500000D01*
X139250000Y-107000000D02*
X140100000Y-106150000D01*
X124587500Y-99062500D02*
X124587500Y-99087500D01*
X140100000Y-100000000D02*
X140100000Y-97512552D01*
X139300000Y-96712552D02*
X139300000Y-95849998D01*
X132500000Y-107000000D02*
X139250000Y-107000000D01*
X140100000Y-97512552D02*
X139300000Y-96712552D01*
%TO.N,/Project Architecture/Power & Reference/NEG5V*%
X141750000Y-88400000D02*
X143180000Y-88400000D01*
X143180000Y-88400000D02*
X143200000Y-88380000D01*
%TO.N,/Project Architecture/Connectors/T_P5*%
X158290998Y-75588400D02*
X157021001Y-75588400D01*
X157091003Y-75518398D02*
X157021001Y-75588400D01*
%TO.N,/Project Architecture/Power & Reference/DVDD*%
D45*
X141700000Y-83400000D02*
X141700000Y-82500000D01*
X139800001Y-84099999D02*
X140300000Y-83600000D01*
X139800001Y-84450000D02*
X139800001Y-84099999D01*
X140300000Y-83600000D02*
X141500000Y-83600000D01*
X141500000Y-83600000D02*
X141700000Y-83400000D01*
%TO.N,/Project Architecture/CVDD*%
D44*
X141750000Y-87899998D02*
X140650005Y-87899998D01*
X140650005Y-87899998D02*
X140550003Y-88000000D01*
%TO.N,/Project Architecture/Connectors/T_P7*%
X165211001Y-75588399D02*
X163931001Y-75588399D01*
%TO.N,/Project Architecture/Cell Sense & Balance/CB7*%
D45*
X133799998Y-95849998D02*
X133799998Y-96811525D01*
X133799998Y-96811525D02*
X132581315Y-98030208D01*
D43*
X121400000Y-73625000D02*
X123900000Y-73625000D01*
D45*
X132581315Y-98030208D02*
X132581315Y-98453180D01*
%TO.N,/Project Architecture/Connectors/T_P6*%
D44*
X161090998Y-75588400D02*
X159815998Y-75588400D01*
%TO.N,/Project Architecture/Temperature Sense/GPIO6*%
X136300001Y-84450000D02*
X136300001Y-85284179D01*
X135900000Y-85684180D02*
X135900000Y-85699997D01*
X136300001Y-85284179D02*
X135900000Y-85684180D01*
X161090998Y-76608400D02*
X161090998Y-77528400D01*
%TO.N,/Project Architecture/Cell Sense & Balance/VC7*%
X132350000Y-100000000D02*
X132350000Y-101500000D01*
X127400000Y-98400000D02*
X127400000Y-76575000D01*
X133272052Y-97905156D02*
X134300000Y-96877208D01*
X132350000Y-99525000D02*
X133272052Y-98602948D01*
X126762500Y-75937500D02*
X124587500Y-75937500D01*
X132350000Y-100000000D02*
X132350000Y-99525000D01*
X133272052Y-98602948D02*
X133272052Y-97905156D01*
X127400000Y-76575000D02*
X126762500Y-75937500D01*
X130500000Y-101500000D02*
X127400000Y-98400000D01*
X134300000Y-96877208D02*
X134300000Y-95849998D01*
X132350000Y-101500000D02*
X130500000Y-101500000D01*
%TO.N,/Project Architecture/Cell Sense & Balance/CB6*%
D45*
X134799999Y-97136080D02*
X133926052Y-98010027D01*
X133926052Y-98010027D02*
X133926052Y-98176052D01*
D43*
X121400000Y-78250000D02*
X123900000Y-78250000D01*
D45*
X134799999Y-95849998D02*
X134799999Y-97136080D01*
%TO.N,/Project Architecture/Temperature Sense/GPIO7*%
D44*
X163931001Y-76608399D02*
X163931001Y-77528399D01*
X136800001Y-85684180D02*
X136800002Y-84450000D01*
%TO.N,/Project Architecture/Cell Sense & Balance/CB2*%
D45*
X138799999Y-95849998D02*
X138799999Y-97049999D01*
X138799999Y-97049999D02*
X139250000Y-97500000D01*
D43*
X121400000Y-96750000D02*
X123900000Y-96750000D01*
%TO.N,/Project Architecture/Cell Sense & Balance/CB8*%
D45*
X132072985Y-97195034D02*
X132285117Y-97195034D01*
X132799998Y-96680153D02*
X132799998Y-95849998D01*
D43*
X121400000Y-69000000D02*
X123900000Y-69000000D01*
D45*
X132285117Y-97195034D02*
X132799998Y-96680153D01*
%TO.N,/Project Architecture/Cell Sense & Balance/CB3*%
D43*
X121400000Y-92125000D02*
X123900000Y-92125000D01*
D45*
X137799998Y-95849998D02*
X137799998Y-98049998D01*
X137799998Y-98049998D02*
X138000000Y-98250000D01*
%TO.N,/Project Architecture/Power & Reference/REFHP*%
X142672085Y-91899998D02*
X142942997Y-91629086D01*
X141750000Y-91899998D02*
X142672085Y-91899998D01*
%TO.N,/Project Architecture/Power & Reference/AVDD*%
X140773308Y-91399999D02*
X141750000Y-91399999D01*
X140577091Y-91250000D02*
X140623309Y-91250000D01*
X140623309Y-91250000D02*
X140773308Y-91399999D01*
%TO.N,/Project Architecture/Power & Reference/NPNB*%
D44*
X141750000Y-86399999D02*
X142600001Y-86399999D01*
X139155026Y-79850000D02*
X138605026Y-79300000D01*
X134600000Y-79300000D02*
X134219999Y-78919999D01*
X141955026Y-79850000D02*
X139155026Y-79850000D01*
X142600001Y-86399999D02*
X142950000Y-86050000D01*
X142950000Y-80844974D02*
X141955026Y-79850000D01*
X134219999Y-78919999D02*
X134219999Y-77541900D01*
X142950000Y-86050000D02*
X142950000Y-80844974D01*
X138605026Y-79300000D02*
X134600000Y-79300000D01*
%TD*%
%TA.AperFunction,Conductor*%
%TO.N,/Project Architecture/GND*%
G36*
X174504418Y-65300816D02*
G01*
X174733024Y-65317165D01*
X174750525Y-65319682D01*
X174970143Y-65367456D01*
X174987102Y-65372435D01*
X175197698Y-65450984D01*
X175213778Y-65458328D01*
X175411036Y-65566039D01*
X175425919Y-65575604D01*
X175605836Y-65710288D01*
X175619207Y-65721874D01*
X175778125Y-65880792D01*
X175789711Y-65894163D01*
X175924395Y-66074080D01*
X175933960Y-66088963D01*
X176041668Y-66286215D01*
X176049017Y-66302307D01*
X176062001Y-66337117D01*
X176127561Y-66512889D01*
X176132545Y-66529865D01*
X176180316Y-66749468D01*
X176182834Y-66766980D01*
X176195888Y-66949500D01*
X176198091Y-66980306D01*
X176199184Y-66995581D01*
X176199500Y-67004427D01*
X176199500Y-107995572D01*
X176199184Y-108004418D01*
X176182834Y-108233019D01*
X176180316Y-108250531D01*
X176132545Y-108470134D01*
X176127561Y-108487110D01*
X176049018Y-108697691D01*
X176041668Y-108713784D01*
X175933960Y-108911036D01*
X175924395Y-108925919D01*
X175789711Y-109105836D01*
X175778128Y-109119205D01*
X175761681Y-109135651D01*
X175700362Y-109169136D01*
X175630670Y-109164154D01*
X175574735Y-109122284D01*
X175550316Y-109056821D01*
X175550000Y-109047971D01*
X175550000Y-78750000D01*
X165800000Y-78750000D01*
X158800000Y-78750000D01*
X148050000Y-78750000D01*
X148050000Y-84734001D01*
X148030315Y-84801040D01*
X147977511Y-84846795D01*
X147926000Y-84858001D01*
X147884107Y-84858001D01*
X147776581Y-84886812D01*
X147760677Y-84889976D01*
X147726826Y-84894433D01*
X147619595Y-84944436D01*
X147535934Y-85028097D01*
X147513146Y-85076966D01*
X147488448Y-85112238D01*
X147469007Y-85131680D01*
X147407685Y-85165167D01*
X147381324Y-85168001D01*
X147015607Y-85168001D01*
X146888311Y-85202109D01*
X146774185Y-85268001D01*
X146774182Y-85268003D01*
X144195436Y-87846748D01*
X144134113Y-87880233D01*
X144064421Y-87875249D01*
X144008488Y-87833377D01*
X143984071Y-87767913D01*
X143988679Y-87724472D01*
X144004505Y-87670000D01*
X142688372Y-87670000D01*
X142621333Y-87650315D01*
X142618710Y-87648201D01*
X142618659Y-87648279D01*
X142558724Y-87608232D01*
X142558717Y-87608229D01*
X142514822Y-87599498D01*
X142514820Y-87599498D01*
X142360862Y-87599498D01*
X142352175Y-87596947D01*
X142343213Y-87598236D01*
X142319172Y-87587256D01*
X142293823Y-87579813D01*
X142287895Y-87572971D01*
X142279658Y-87569210D01*
X142273181Y-87563179D01*
X142260000Y-87549998D01*
X141874000Y-87549998D01*
X141806961Y-87530313D01*
X141761206Y-87477509D01*
X141750000Y-87425998D01*
X141750000Y-87374000D01*
X141769685Y-87306961D01*
X141822489Y-87261206D01*
X141874000Y-87250000D01*
X142260000Y-87250000D01*
X142273183Y-87236817D01*
X142292616Y-87226205D01*
X142309354Y-87211703D01*
X142322685Y-87209786D01*
X142334506Y-87203332D01*
X142360864Y-87200498D01*
X142514822Y-87200498D01*
X142558717Y-87191766D01*
X142558717Y-87191765D01*
X142558722Y-87191765D01*
X142560020Y-87190897D01*
X142563276Y-87189877D01*
X142570002Y-87187092D01*
X142570251Y-87187694D01*
X142626697Y-87170020D01*
X142628910Y-87170000D01*
X144004504Y-87170000D01*
X143962031Y-87023804D01*
X143879721Y-86884625D01*
X143879714Y-86884616D01*
X143765383Y-86770285D01*
X143765374Y-86770278D01*
X143626195Y-86687968D01*
X143626190Y-86687966D01*
X143467277Y-86641798D01*
X143408391Y-86604192D01*
X143379185Y-86540720D01*
X143388931Y-86471533D01*
X143414188Y-86435044D01*
X143424455Y-86424777D01*
X143424458Y-86424776D01*
X143441896Y-86407338D01*
X143441897Y-86407338D01*
X143512364Y-86336871D01*
X143544991Y-86258102D01*
X143550501Y-86244801D01*
X143550501Y-86145146D01*
X143550501Y-86135157D01*
X143550500Y-86135143D01*
X143550500Y-82910748D01*
X144026808Y-82910748D01*
X144026808Y-83489251D01*
X144042355Y-83587417D01*
X144050083Y-83602583D01*
X144102650Y-83705751D01*
X144102652Y-83705753D01*
X144102654Y-83705756D01*
X144196551Y-83799653D01*
X144196553Y-83799654D01*
X144196557Y-83799658D01*
X144314888Y-83859951D01*
X144314889Y-83859951D01*
X144314891Y-83859952D01*
X144314890Y-83859952D01*
X144413057Y-83875500D01*
X144413062Y-83875500D01*
X144916559Y-83875500D01*
X145014725Y-83859952D01*
X145014726Y-83859951D01*
X145014728Y-83859951D01*
X145133059Y-83799658D01*
X145180094Y-83752623D01*
X145241417Y-83719137D01*
X145311108Y-83724121D01*
X145367042Y-83765992D01*
X145373315Y-83775206D01*
X145453422Y-83905080D01*
X145572227Y-84023885D01*
X145715230Y-84112091D01*
X145715235Y-84112093D01*
X145874724Y-84164942D01*
X145973164Y-84174999D01*
X146489808Y-84174999D01*
X146506444Y-84174999D01*
X146506460Y-84174998D01*
X146604891Y-84164943D01*
X146764380Y-84112093D01*
X146764385Y-84112091D01*
X146907388Y-84023885D01*
X147026193Y-83905080D01*
X147114399Y-83762077D01*
X147114401Y-83762072D01*
X147167250Y-83602583D01*
X147177307Y-83504150D01*
X147177308Y-83504137D01*
X147177308Y-83450000D01*
X146489808Y-83450000D01*
X146489808Y-84174999D01*
X145973164Y-84174999D01*
X145989808Y-84174998D01*
X145989808Y-83324000D01*
X146009493Y-83256961D01*
X146062297Y-83211206D01*
X146113808Y-83200000D01*
X146239808Y-83200000D01*
X146239808Y-83074000D01*
X146259493Y-83006961D01*
X146312297Y-82961206D01*
X146363808Y-82950000D01*
X147177307Y-82950000D01*
X147177307Y-82895864D01*
X147177306Y-82895847D01*
X147167251Y-82797416D01*
X147114401Y-82637927D01*
X147114396Y-82637916D01*
X147069151Y-82564563D01*
X147050710Y-82497171D01*
X147071632Y-82430507D01*
X147087008Y-82411785D01*
X147097116Y-82401677D01*
X147130989Y-82367804D01*
X147180992Y-82260573D01*
X147187424Y-82211716D01*
X147187424Y-81763084D01*
X147180992Y-81714227D01*
X147130989Y-81606996D01*
X147047328Y-81523335D01*
X146940097Y-81473332D01*
X146940095Y-81473331D01*
X146940096Y-81473331D01*
X146891241Y-81466900D01*
X146891240Y-81466900D01*
X146542608Y-81466900D01*
X146542607Y-81466900D01*
X146493752Y-81473331D01*
X146386519Y-81523335D01*
X146295188Y-81614667D01*
X146292364Y-81611843D01*
X146253882Y-81642583D01*
X146184382Y-81649752D01*
X146122038Y-81618208D01*
X146118825Y-81614501D01*
X146118660Y-81614667D01*
X146027328Y-81523335D01*
X145944529Y-81484725D01*
X145920097Y-81473332D01*
X145920095Y-81473331D01*
X145920096Y-81473331D01*
X145871241Y-81466900D01*
X145871240Y-81466900D01*
X145522608Y-81466900D01*
X145522607Y-81466900D01*
X145473752Y-81473331D01*
X145366519Y-81523335D01*
X145282859Y-81606995D01*
X145232855Y-81714228D01*
X145226424Y-81763083D01*
X145226424Y-82211716D01*
X145232855Y-82260571D01*
X145282859Y-82367804D01*
X145367517Y-82452462D01*
X145401002Y-82513785D01*
X145396018Y-82583477D01*
X145385376Y-82605238D01*
X145373316Y-82624791D01*
X145321368Y-82671517D01*
X145252406Y-82682740D01*
X145188323Y-82654897D01*
X145180095Y-82647377D01*
X145133064Y-82600346D01*
X145133061Y-82600344D01*
X145133059Y-82600342D01*
X145014728Y-82540049D01*
X145014727Y-82540048D01*
X145014724Y-82540047D01*
X145014725Y-82540047D01*
X144916559Y-82524500D01*
X144916554Y-82524500D01*
X144413062Y-82524500D01*
X144413057Y-82524500D01*
X144314890Y-82540047D01*
X144236000Y-82580244D01*
X144196557Y-82600342D01*
X144196556Y-82600343D01*
X144196551Y-82600346D01*
X144102654Y-82694243D01*
X144102651Y-82694248D01*
X144102650Y-82694249D01*
X144096910Y-82705515D01*
X144042355Y-82812582D01*
X144026808Y-82910748D01*
X143550500Y-82910748D01*
X143550500Y-80650173D01*
X143550499Y-80650170D01*
X143549809Y-80648503D01*
X143512364Y-80558103D01*
X143441897Y-80487636D01*
X142241897Y-79287636D01*
X142149829Y-79249500D01*
X142149828Y-79249500D01*
X140987150Y-79249500D01*
X140920111Y-79229815D01*
X140874356Y-79177011D01*
X140864412Y-79107853D01*
X140880417Y-79062381D01*
X140887030Y-79051197D01*
X140887031Y-79051195D01*
X140929504Y-78905000D01*
X140249000Y-78905000D01*
X140181961Y-78885315D01*
X140136206Y-78832511D01*
X140125000Y-78781000D01*
X140125000Y-78529000D01*
X140144685Y-78461961D01*
X140197489Y-78416206D01*
X140249000Y-78405000D01*
X140929504Y-78405000D01*
X140887031Y-78258804D01*
X140804721Y-78119625D01*
X140804714Y-78119616D01*
X140690381Y-78005283D01*
X140684217Y-78000502D01*
X140685733Y-77998547D01*
X140685577Y-77998380D01*
X140674382Y-77993035D01*
X140662183Y-77973323D01*
X140646363Y-77956378D01*
X140643250Y-77942727D01*
X140637615Y-77933622D01*
X140636074Y-77911261D01*
X140633188Y-77898606D01*
X140633308Y-77891549D01*
X140635500Y-77874901D01*
X140635500Y-77808400D01*
X141437211Y-77808400D01*
X141438855Y-77829310D01*
X141483969Y-77984595D01*
X141566279Y-78123774D01*
X141566286Y-78123783D01*
X141680617Y-78238114D01*
X141680626Y-78238121D01*
X141819805Y-78320431D01*
X141966001Y-78362904D01*
X141966001Y-77808400D01*
X141437211Y-77808400D01*
X140635500Y-77808400D01*
X140635499Y-77515100D01*
X140628972Y-77465513D01*
X140578224Y-77356684D01*
X140529939Y-77308399D01*
X141437210Y-77308399D01*
X141437211Y-77308400D01*
X141966001Y-77308400D01*
X141966001Y-76788373D01*
X142466001Y-76788373D01*
X142466001Y-78362903D01*
X142612196Y-78320431D01*
X142751375Y-78238121D01*
X142751384Y-78238114D01*
X142865715Y-78123783D01*
X142870500Y-78117615D01*
X142872460Y-78119135D01*
X142914584Y-78079782D01*
X142983322Y-78067258D01*
X142986444Y-78067628D01*
X142996100Y-78068900D01*
X143355901Y-78068899D01*
X143405488Y-78062372D01*
X143514317Y-78011624D01*
X143599225Y-77926716D01*
X143649973Y-77817887D01*
X143656501Y-77768301D01*
X143656500Y-77768298D01*
X143656604Y-77767516D01*
X143684869Y-77703619D01*
X143743193Y-77665147D01*
X143813058Y-77664314D01*
X143867224Y-77696018D01*
X143937650Y-77766444D01*
X143937652Y-77766445D01*
X143937656Y-77766449D01*
X144050692Y-77824044D01*
X144050696Y-77824046D01*
X144144473Y-77838898D01*
X144144479Y-77838899D01*
X144757516Y-77838898D01*
X144851302Y-77824045D01*
X144964340Y-77766449D01*
X145054048Y-77676741D01*
X145103014Y-77580639D01*
X145150988Y-77529845D01*
X145218809Y-77513050D01*
X145284944Y-77535588D01*
X145323981Y-77580639D01*
X145372948Y-77676741D01*
X145372950Y-77676743D01*
X145372952Y-77676746D01*
X145462650Y-77766444D01*
X145462652Y-77766445D01*
X145462656Y-77766449D01*
X145575692Y-77824044D01*
X145575696Y-77824046D01*
X145669473Y-77838898D01*
X145669479Y-77838899D01*
X146282516Y-77838898D01*
X146376302Y-77824045D01*
X146489340Y-77766449D01*
X146559778Y-77696010D01*
X146621099Y-77662527D01*
X146690791Y-77667511D01*
X146746725Y-77709382D01*
X146770397Y-77767509D01*
X146777028Y-77817883D01*
X146777030Y-77817890D01*
X146813787Y-77896715D01*
X146827777Y-77926716D01*
X146912685Y-78011624D01*
X147021514Y-78062372D01*
X147071100Y-78068900D01*
X147430901Y-78068899D01*
X147440535Y-78067630D01*
X147509566Y-78078394D01*
X147555039Y-78118751D01*
X147556503Y-78117617D01*
X147561284Y-78123781D01*
X147675617Y-78238114D01*
X147675626Y-78238121D01*
X147814805Y-78320431D01*
X147961001Y-78362904D01*
X148461001Y-78362904D01*
X148607197Y-78320431D01*
X148614600Y-78316053D01*
X148682323Y-78298866D01*
X148732143Y-78313492D01*
X148732645Y-78312333D01*
X148739802Y-78315430D01*
X148885998Y-78357903D01*
X148885998Y-77808400D01*
X148461001Y-77808400D01*
X148461001Y-78362904D01*
X147961001Y-78362904D01*
X147961001Y-76788373D01*
X147864971Y-76763979D01*
X147862776Y-76762680D01*
X147860227Y-76762673D01*
X147846652Y-76753894D01*
X148461001Y-76753894D01*
X148461001Y-77303399D01*
X148885998Y-77303399D01*
X148885998Y-76783372D01*
X149385998Y-76783372D01*
X149385998Y-78357902D01*
X149532193Y-78315430D01*
X149671372Y-78233120D01*
X149671381Y-78233113D01*
X149785712Y-78118782D01*
X149790497Y-78112614D01*
X149792457Y-78114134D01*
X149834581Y-78074781D01*
X149903319Y-78062257D01*
X149906441Y-78062627D01*
X149916097Y-78063899D01*
X150275898Y-78063898D01*
X150325485Y-78057371D01*
X150434314Y-78006623D01*
X150519222Y-77921715D01*
X150569970Y-77812886D01*
X150576498Y-77763300D01*
X150576497Y-77763287D01*
X150576600Y-77762513D01*
X150604866Y-77698616D01*
X150663189Y-77660144D01*
X150733054Y-77659311D01*
X150787221Y-77691015D01*
X150862650Y-77766444D01*
X150862652Y-77766445D01*
X150862656Y-77766449D01*
X150975692Y-77824044D01*
X150975696Y-77824046D01*
X151069473Y-77838898D01*
X151069479Y-77838899D01*
X151682516Y-77838898D01*
X151776302Y-77824045D01*
X151889340Y-77766449D01*
X151979048Y-77676741D01*
X152028014Y-77580639D01*
X152075988Y-77529845D01*
X152143809Y-77513050D01*
X152209944Y-77535588D01*
X152248981Y-77580639D01*
X152297948Y-77676741D01*
X152297950Y-77676743D01*
X152297952Y-77676746D01*
X152387650Y-77766444D01*
X152387652Y-77766445D01*
X152387656Y-77766449D01*
X152500692Y-77824044D01*
X152500696Y-77824046D01*
X152594473Y-77838898D01*
X152594479Y-77838899D01*
X153207516Y-77838898D01*
X153301302Y-77824045D01*
X153414340Y-77766449D01*
X153488265Y-77692523D01*
X153549586Y-77659040D01*
X153619278Y-77664024D01*
X153675212Y-77705895D01*
X153698884Y-77764021D01*
X153702025Y-77787882D01*
X153702027Y-77787889D01*
X153752479Y-77896083D01*
X153752774Y-77896715D01*
X153837682Y-77981623D01*
X153946511Y-78032371D01*
X153996097Y-78038899D01*
X154355898Y-78038898D01*
X154365532Y-78037629D01*
X154434563Y-78048393D01*
X154480036Y-78088750D01*
X154481500Y-78087616D01*
X154486281Y-78093780D01*
X154600614Y-78208113D01*
X154600623Y-78208120D01*
X154739802Y-78290430D01*
X154885998Y-78332903D01*
X154885998Y-78332902D01*
X155385998Y-78332902D01*
X155532189Y-78290431D01*
X155535366Y-78288553D01*
X155538187Y-78287836D01*
X155539352Y-78287333D01*
X155539433Y-78287520D01*
X155603088Y-78271364D01*
X155657625Y-78287376D01*
X155657644Y-78287333D01*
X155657992Y-78287483D01*
X155661624Y-78288550D01*
X155664804Y-78290431D01*
X155811001Y-78332904D01*
X155811001Y-77778400D01*
X155385998Y-77778400D01*
X155385998Y-78332902D01*
X154885998Y-78332902D01*
X154885998Y-76758372D01*
X154789968Y-76733978D01*
X154787773Y-76732679D01*
X154785224Y-76732672D01*
X154771649Y-76723893D01*
X155385998Y-76723893D01*
X155385998Y-77278399D01*
X155811001Y-77278399D01*
X155811001Y-76758373D01*
X156311001Y-76758373D01*
X156311001Y-78332903D01*
X156457196Y-78290431D01*
X156596375Y-78208121D01*
X156596384Y-78208114D01*
X156710715Y-78093783D01*
X156715500Y-78087615D01*
X156717460Y-78089135D01*
X156759584Y-78049782D01*
X156828322Y-78037258D01*
X156831444Y-78037628D01*
X156841100Y-78038900D01*
X157200901Y-78038899D01*
X157250488Y-78032372D01*
X157359317Y-77981624D01*
X157444225Y-77896716D01*
X157494973Y-77787887D01*
X157497532Y-77768444D01*
X157525795Y-77704550D01*
X157584118Y-77666076D01*
X157653983Y-77665242D01*
X157708152Y-77696947D01*
X157777650Y-77766445D01*
X157777652Y-77766446D01*
X157777656Y-77766450D01*
X157890690Y-77824044D01*
X157890696Y-77824047D01*
X157978114Y-77837891D01*
X157984466Y-77838898D01*
X157984473Y-77838899D01*
X157984479Y-77838900D01*
X158597516Y-77838899D01*
X158691302Y-77824046D01*
X158804340Y-77766450D01*
X158894048Y-77676742D01*
X158943014Y-77580640D01*
X158990988Y-77529846D01*
X159058809Y-77513051D01*
X159124944Y-77535589D01*
X159163981Y-77580640D01*
X159212948Y-77676742D01*
X159212950Y-77676744D01*
X159212952Y-77676747D01*
X159302650Y-77766445D01*
X159302652Y-77766446D01*
X159302656Y-77766450D01*
X159415690Y-77824044D01*
X159415696Y-77824047D01*
X159503114Y-77837891D01*
X159509466Y-77838898D01*
X159509473Y-77838899D01*
X159509479Y-77838900D01*
X160122516Y-77838899D01*
X160216302Y-77824046D01*
X160329340Y-77766450D01*
X160403265Y-77692524D01*
X160464586Y-77659041D01*
X160534278Y-77664025D01*
X160590212Y-77705896D01*
X160613884Y-77764022D01*
X160617025Y-77787883D01*
X160617027Y-77787890D01*
X160644435Y-77846666D01*
X160667774Y-77896716D01*
X160752682Y-77981624D01*
X160861511Y-78032372D01*
X160911097Y-78038900D01*
X161270898Y-78038899D01*
X161280532Y-78037630D01*
X161349563Y-78048394D01*
X161395036Y-78088751D01*
X161396500Y-78087617D01*
X161401281Y-78093781D01*
X161515614Y-78208114D01*
X161515623Y-78208121D01*
X161654802Y-78290431D01*
X161800998Y-78332904D01*
X161800998Y-78332903D01*
X162300998Y-78332903D01*
X162447193Y-78290431D01*
X162447872Y-78290030D01*
X162448477Y-78289876D01*
X162454355Y-78287333D01*
X162454765Y-78288280D01*
X162515595Y-78272843D01*
X162567343Y-78288035D01*
X162567648Y-78287333D01*
X162573337Y-78289795D01*
X162574117Y-78290024D01*
X162574800Y-78290428D01*
X162574805Y-78290430D01*
X162721001Y-78332903D01*
X162721001Y-77778400D01*
X162300998Y-77778400D01*
X162300998Y-78332903D01*
X161800998Y-78332903D01*
X161800998Y-76758373D01*
X161704968Y-76733979D01*
X161702773Y-76732680D01*
X161700224Y-76732673D01*
X161686649Y-76723894D01*
X162300998Y-76723894D01*
X162300998Y-77278399D01*
X162721001Y-77278399D01*
X162721001Y-76758372D01*
X163221001Y-76758372D01*
X163221001Y-78332902D01*
X163367196Y-78290430D01*
X163506375Y-78208120D01*
X163506384Y-78208113D01*
X163620715Y-78093782D01*
X163625500Y-78087614D01*
X163627460Y-78089134D01*
X163669584Y-78049781D01*
X163738322Y-78037257D01*
X163741444Y-78037627D01*
X163751100Y-78038899D01*
X164110901Y-78038898D01*
X164160488Y-78032371D01*
X164269317Y-77981623D01*
X164354225Y-77896715D01*
X164404973Y-77787886D01*
X164408696Y-77759601D01*
X164436961Y-77695708D01*
X164495284Y-77657236D01*
X164565149Y-77656403D01*
X164619316Y-77688107D01*
X164697653Y-77766444D01*
X164697655Y-77766445D01*
X164697659Y-77766449D01*
X164810695Y-77824044D01*
X164810699Y-77824046D01*
X164904476Y-77838898D01*
X164904482Y-77838899D01*
X165517519Y-77838898D01*
X165611305Y-77824045D01*
X165724343Y-77766449D01*
X165814051Y-77676741D01*
X165870516Y-77565920D01*
X165918488Y-77515128D01*
X165986309Y-77498333D01*
X166052444Y-77520870D01*
X166091483Y-77565923D01*
X166147948Y-77676741D01*
X166147950Y-77676743D01*
X166147952Y-77676746D01*
X166237650Y-77766444D01*
X166237652Y-77766445D01*
X166237656Y-77766449D01*
X166350692Y-77824044D01*
X166350696Y-77824046D01*
X166444473Y-77838898D01*
X166444479Y-77838899D01*
X167057516Y-77838898D01*
X167151302Y-77824045D01*
X167264340Y-77766449D01*
X167333847Y-77696941D01*
X167395168Y-77663458D01*
X167464860Y-77668442D01*
X167520794Y-77710313D01*
X167544466Y-77768440D01*
X167547025Y-77787882D01*
X167547027Y-77787889D01*
X167597479Y-77896083D01*
X167597774Y-77896715D01*
X167682682Y-77981623D01*
X167791511Y-78032371D01*
X167841097Y-78038899D01*
X168200898Y-78038898D01*
X168210532Y-78037629D01*
X168279563Y-78048393D01*
X168325036Y-78088750D01*
X168326500Y-78087616D01*
X168331281Y-78093780D01*
X168445614Y-78208113D01*
X168445623Y-78208120D01*
X168584802Y-78290430D01*
X168730998Y-78332903D01*
X168730998Y-78332902D01*
X169230998Y-78332902D01*
X169377193Y-78290430D01*
X169516372Y-78208120D01*
X169516381Y-78208113D01*
X169630712Y-78093782D01*
X169630719Y-78093773D01*
X169713029Y-77954594D01*
X169713031Y-77954589D01*
X169758142Y-77799317D01*
X169758143Y-77799311D01*
X169759788Y-77778399D01*
X169230998Y-77778399D01*
X169230998Y-78332902D01*
X168730998Y-78332902D01*
X168730998Y-76758372D01*
X168634968Y-76733978D01*
X168632773Y-76732679D01*
X168630224Y-76732672D01*
X168616649Y-76723893D01*
X169230998Y-76723893D01*
X169230998Y-77278399D01*
X169759788Y-77278399D01*
X169758143Y-77257488D01*
X169713029Y-77102203D01*
X169630719Y-76963024D01*
X169630712Y-76963015D01*
X169516381Y-76848684D01*
X169516372Y-76848677D01*
X169377191Y-76766366D01*
X169377188Y-76766364D01*
X169230999Y-76723892D01*
X169230998Y-76723893D01*
X168616649Y-76723893D01*
X168602868Y-76714981D01*
X168574839Y-76698393D01*
X168573695Y-76696114D01*
X168571554Y-76694730D01*
X168558103Y-76665054D01*
X168543493Y-76635949D01*
X168543762Y-76633414D01*
X168542710Y-76631092D01*
X168541498Y-76613795D01*
X168541498Y-76434082D01*
X168535066Y-76385227D01*
X168521597Y-76356342D01*
X168485063Y-76277995D01*
X168401402Y-76194334D01*
X168393731Y-76186663D01*
X168396559Y-76183834D01*
X168365841Y-76145422D01*
X168358633Y-76075925D01*
X168390141Y-76013564D01*
X168393901Y-76010305D01*
X168393731Y-76010135D01*
X168437590Y-75966276D01*
X168485063Y-75918803D01*
X168535066Y-75811572D01*
X168541498Y-75762715D01*
X168541498Y-75414083D01*
X168541478Y-75413934D01*
X168535066Y-75365227D01*
X168535066Y-75365226D01*
X168485063Y-75257995D01*
X168401402Y-75174334D01*
X168294171Y-75124331D01*
X168294169Y-75124330D01*
X168294170Y-75124330D01*
X168245315Y-75117899D01*
X168245314Y-75117899D01*
X167796682Y-75117899D01*
X167796681Y-75117899D01*
X167747826Y-75124330D01*
X167640595Y-75174333D01*
X167579645Y-75235283D01*
X167518321Y-75268767D01*
X167448630Y-75263782D01*
X167392696Y-75221911D01*
X167381484Y-75203903D01*
X167354048Y-75150057D01*
X167354046Y-75150055D01*
X167354043Y-75150051D01*
X167264345Y-75060353D01*
X167264342Y-75060351D01*
X167264340Y-75060349D01*
X167183232Y-75019022D01*
X167151299Y-75002751D01*
X167057522Y-74987899D01*
X166444480Y-74987899D01*
X166363517Y-75000722D01*
X166350694Y-75002753D01*
X166237656Y-75060349D01*
X166237655Y-75060350D01*
X166237650Y-75060353D01*
X166147952Y-75150051D01*
X166147947Y-75150058D01*
X166091483Y-75260874D01*
X166043509Y-75311669D01*
X165975688Y-75328464D01*
X165909553Y-75305926D01*
X165870515Y-75260874D01*
X165814051Y-75150057D01*
X165814047Y-75150053D01*
X165814046Y-75150051D01*
X165724348Y-75060353D01*
X165724345Y-75060351D01*
X165724343Y-75060349D01*
X165643235Y-75019022D01*
X165611302Y-75002751D01*
X165517525Y-74987899D01*
X164904483Y-74987899D01*
X164823520Y-75000722D01*
X164810697Y-75002753D01*
X164697659Y-75060349D01*
X164697658Y-75060350D01*
X164697653Y-75060353D01*
X164607955Y-75150051D01*
X164607950Y-75150058D01*
X164577142Y-75210521D01*
X164529167Y-75261317D01*
X164461346Y-75278111D01*
X164395211Y-75255573D01*
X164378977Y-75241906D01*
X164311405Y-75174334D01*
X164259341Y-75150056D01*
X164204174Y-75124331D01*
X164204172Y-75124330D01*
X164204173Y-75124330D01*
X164155318Y-75117899D01*
X164155317Y-75117899D01*
X163706685Y-75117899D01*
X163706684Y-75117899D01*
X163657829Y-75124330D01*
X163550596Y-75174334D01*
X163466936Y-75257994D01*
X163416932Y-75365227D01*
X163410501Y-75414082D01*
X163410501Y-75762715D01*
X163416932Y-75811570D01*
X163466936Y-75918803D01*
X163558268Y-76010135D01*
X163555444Y-76012958D01*
X163586184Y-76051441D01*
X163593353Y-76120941D01*
X163561809Y-76183285D01*
X163558102Y-76186497D01*
X163558268Y-76186663D01*
X163466936Y-76277994D01*
X163416932Y-76385227D01*
X163410501Y-76434082D01*
X163410501Y-76613795D01*
X163402436Y-76641260D01*
X163397322Y-76669425D01*
X163392717Y-76674359D01*
X163390816Y-76680834D01*
X163369186Y-76699575D01*
X163349654Y-76720508D01*
X163340820Y-76724155D01*
X163338012Y-76726589D01*
X163333277Y-76727269D01*
X163317031Y-76733978D01*
X163221001Y-76758372D01*
X162721001Y-76758372D01*
X162721001Y-76723893D01*
X162720999Y-76723892D01*
X162574811Y-76766365D01*
X162574795Y-76766371D01*
X162574107Y-76766779D01*
X162573497Y-76766933D01*
X162567645Y-76769466D01*
X162567236Y-76768521D01*
X162506381Y-76783954D01*
X162454652Y-76768764D01*
X162454349Y-76769465D01*
X162448671Y-76767008D01*
X162447885Y-76766777D01*
X162447194Y-76766368D01*
X162447188Y-76766365D01*
X162300999Y-76723893D01*
X162300998Y-76723894D01*
X161686649Y-76723894D01*
X161672868Y-76714982D01*
X161644839Y-76698394D01*
X161643695Y-76696115D01*
X161641554Y-76694731D01*
X161628103Y-76665055D01*
X161613493Y-76635950D01*
X161613762Y-76633415D01*
X161612710Y-76631093D01*
X161611498Y-76613796D01*
X161611498Y-76434083D01*
X161605066Y-76385228D01*
X161605066Y-76385227D01*
X161555063Y-76277996D01*
X161471402Y-76194335D01*
X161463731Y-76186664D01*
X161466559Y-76183835D01*
X161435841Y-76145423D01*
X161428633Y-76075926D01*
X161460141Y-76013565D01*
X161463901Y-76010306D01*
X161463731Y-76010136D01*
X161507591Y-75966276D01*
X161555063Y-75918804D01*
X161605066Y-75811573D01*
X161611498Y-75762716D01*
X161611498Y-75414084D01*
X161605066Y-75365227D01*
X161555063Y-75257996D01*
X161471402Y-75174335D01*
X161364171Y-75124332D01*
X161364169Y-75124331D01*
X161364170Y-75124331D01*
X161315315Y-75117900D01*
X161315314Y-75117900D01*
X160866682Y-75117900D01*
X160866681Y-75117900D01*
X160817826Y-75124331D01*
X160710595Y-75174334D01*
X160646333Y-75238596D01*
X160585009Y-75272080D01*
X160515318Y-75267095D01*
X160459384Y-75225224D01*
X160448172Y-75207218D01*
X160419048Y-75150058D01*
X160419045Y-75150055D01*
X160419043Y-75150052D01*
X160329345Y-75060354D01*
X160329342Y-75060352D01*
X160329340Y-75060350D01*
X160232333Y-75010922D01*
X160216299Y-75002752D01*
X160122522Y-74987900D01*
X159509480Y-74987900D01*
X159428517Y-75000723D01*
X159415694Y-75002754D01*
X159302656Y-75060350D01*
X159302655Y-75060351D01*
X159302650Y-75060354D01*
X159212952Y-75150052D01*
X159212947Y-75150059D01*
X159163981Y-75246158D01*
X159116006Y-75296954D01*
X159048185Y-75313748D01*
X158982050Y-75291210D01*
X158943014Y-75246160D01*
X158894048Y-75150058D01*
X158894045Y-75150055D01*
X158894043Y-75150052D01*
X158804345Y-75060354D01*
X158804342Y-75060352D01*
X158804340Y-75060350D01*
X158707333Y-75010922D01*
X158691299Y-75002752D01*
X158597522Y-74987900D01*
X157984480Y-74987900D01*
X157903517Y-75000723D01*
X157890694Y-75002754D01*
X157777656Y-75060350D01*
X157777655Y-75060351D01*
X157777650Y-75060354D01*
X157687952Y-75150052D01*
X157687950Y-75150056D01*
X157687948Y-75150058D01*
X157671895Y-75181564D01*
X157660517Y-75203895D01*
X157612542Y-75254691D01*
X157544721Y-75271486D01*
X157478586Y-75248948D01*
X157462351Y-75235281D01*
X157401405Y-75174335D01*
X157388697Y-75168409D01*
X157294174Y-75124332D01*
X157294172Y-75124331D01*
X157294173Y-75124331D01*
X157245318Y-75117900D01*
X157245317Y-75117900D01*
X156796685Y-75117900D01*
X156796684Y-75117900D01*
X156747829Y-75124331D01*
X156640596Y-75174335D01*
X156556936Y-75257995D01*
X156506933Y-75365227D01*
X156500501Y-75414083D01*
X156500501Y-75762716D01*
X156506932Y-75811571D01*
X156556936Y-75918804D01*
X156648268Y-76010136D01*
X156645444Y-76012959D01*
X156676184Y-76051442D01*
X156683353Y-76120942D01*
X156651809Y-76183286D01*
X156648102Y-76186498D01*
X156648268Y-76186664D01*
X156556936Y-76277995D01*
X156506932Y-76385228D01*
X156500501Y-76434083D01*
X156500501Y-76613796D01*
X156492436Y-76641261D01*
X156487322Y-76669426D01*
X156482717Y-76674360D01*
X156480816Y-76680835D01*
X156459186Y-76699576D01*
X156439654Y-76720509D01*
X156430820Y-76724156D01*
X156428012Y-76726590D01*
X156423277Y-76727270D01*
X156407031Y-76733979D01*
X156311001Y-76758373D01*
X155811001Y-76758373D01*
X155811001Y-76723894D01*
X155810999Y-76723893D01*
X155664810Y-76766365D01*
X155664802Y-76766369D01*
X155661614Y-76768255D01*
X155658791Y-76768970D01*
X155657650Y-76769465D01*
X155657570Y-76769280D01*
X155593889Y-76785433D01*
X155539366Y-76769423D01*
X155539349Y-76769464D01*
X155539017Y-76769320D01*
X155535382Y-76768253D01*
X155532192Y-76766366D01*
X155532188Y-76766364D01*
X155385999Y-76723892D01*
X155385998Y-76723893D01*
X154771649Y-76723893D01*
X154757868Y-76714981D01*
X154729839Y-76698393D01*
X154728695Y-76696114D01*
X154726554Y-76694730D01*
X154713103Y-76665054D01*
X154698493Y-76635949D01*
X154698762Y-76633414D01*
X154697710Y-76631092D01*
X154696498Y-76613795D01*
X154696498Y-76434082D01*
X154690066Y-76385227D01*
X154676597Y-76356342D01*
X154640063Y-76277995D01*
X154556402Y-76194334D01*
X154548731Y-76186663D01*
X154551559Y-76183834D01*
X154520841Y-76145422D01*
X154513633Y-76075925D01*
X154545141Y-76013564D01*
X154548901Y-76010305D01*
X154548731Y-76010135D01*
X154592590Y-75966276D01*
X154640063Y-75918803D01*
X154690066Y-75811572D01*
X154696498Y-75762715D01*
X154696498Y-75414083D01*
X154696478Y-75413934D01*
X154690066Y-75365227D01*
X154690066Y-75365226D01*
X154640063Y-75257995D01*
X154556402Y-75174334D01*
X154449171Y-75124331D01*
X154449169Y-75124330D01*
X154449170Y-75124330D01*
X154400315Y-75117899D01*
X154400314Y-75117899D01*
X153951682Y-75117899D01*
X153951681Y-75117899D01*
X153902826Y-75124330D01*
X153795595Y-75174333D01*
X153731333Y-75238595D01*
X153670009Y-75272079D01*
X153600318Y-75267094D01*
X153544384Y-75225223D01*
X153533172Y-75207217D01*
X153504048Y-75150057D01*
X153504046Y-75150055D01*
X153504043Y-75150051D01*
X153414345Y-75060353D01*
X153414342Y-75060351D01*
X153414340Y-75060349D01*
X153333232Y-75019022D01*
X153301299Y-75002751D01*
X153207522Y-74987899D01*
X152594480Y-74987899D01*
X152513517Y-75000722D01*
X152500694Y-75002753D01*
X152387656Y-75060349D01*
X152387655Y-75060350D01*
X152387650Y-75060353D01*
X152297952Y-75150051D01*
X152297947Y-75150058D01*
X152248981Y-75246157D01*
X152201006Y-75296953D01*
X152133185Y-75313747D01*
X152067050Y-75291209D01*
X152028014Y-75246158D01*
X151979048Y-75150057D01*
X151979046Y-75150055D01*
X151979043Y-75150051D01*
X151889345Y-75060353D01*
X151889342Y-75060351D01*
X151889340Y-75060349D01*
X151808232Y-75019022D01*
X151776299Y-75002751D01*
X151682522Y-74987899D01*
X151069480Y-74987899D01*
X150988517Y-75000722D01*
X150975694Y-75002753D01*
X150862656Y-75060349D01*
X150862655Y-75060350D01*
X150862650Y-75060353D01*
X150772952Y-75150051D01*
X150772947Y-75150058D01*
X150742139Y-75210521D01*
X150694164Y-75261317D01*
X150626343Y-75278111D01*
X150560208Y-75255573D01*
X150543974Y-75241906D01*
X150476402Y-75174334D01*
X150424338Y-75150056D01*
X150369171Y-75124331D01*
X150369169Y-75124330D01*
X150369170Y-75124330D01*
X150320315Y-75117899D01*
X150320314Y-75117899D01*
X149871682Y-75117899D01*
X149871681Y-75117899D01*
X149822826Y-75124330D01*
X149715593Y-75174334D01*
X149631933Y-75257994D01*
X149581929Y-75365227D01*
X149575498Y-75414082D01*
X149575498Y-75762715D01*
X149581929Y-75811570D01*
X149631933Y-75918803D01*
X149723265Y-76010135D01*
X149720441Y-76012958D01*
X149751181Y-76051441D01*
X149758350Y-76120941D01*
X149726806Y-76183285D01*
X149723099Y-76186497D01*
X149723265Y-76186663D01*
X149631933Y-76277994D01*
X149581929Y-76385227D01*
X149575498Y-76434082D01*
X149575498Y-76638795D01*
X149567433Y-76666260D01*
X149562319Y-76694425D01*
X149557714Y-76699359D01*
X149555813Y-76705834D01*
X149534183Y-76724575D01*
X149514651Y-76745508D01*
X149505817Y-76749155D01*
X149503009Y-76751589D01*
X149498274Y-76752269D01*
X149482028Y-76758978D01*
X149385998Y-76783372D01*
X148885998Y-76783372D01*
X148885998Y-76748893D01*
X148885996Y-76748892D01*
X148739807Y-76791364D01*
X148739803Y-76791366D01*
X148732386Y-76795753D01*
X148664661Y-76812931D01*
X148614853Y-76798306D01*
X148614352Y-76799465D01*
X148607191Y-76796365D01*
X148461002Y-76753893D01*
X148461001Y-76753894D01*
X147846652Y-76753894D01*
X147832871Y-76744982D01*
X147804842Y-76728394D01*
X147803698Y-76726115D01*
X147801557Y-76724731D01*
X147788106Y-76695055D01*
X147773496Y-76665950D01*
X147773765Y-76663415D01*
X147772713Y-76661093D01*
X147771501Y-76643796D01*
X147771501Y-76434082D01*
X147765069Y-76385227D01*
X147751600Y-76356342D01*
X147715066Y-76277995D01*
X147631405Y-76194334D01*
X147623734Y-76186663D01*
X147626562Y-76183834D01*
X147595844Y-76145422D01*
X147588636Y-76075925D01*
X147620144Y-76013564D01*
X147623904Y-76010305D01*
X147623734Y-76010135D01*
X147667593Y-75966276D01*
X147715066Y-75918803D01*
X147765069Y-75811572D01*
X147771501Y-75762715D01*
X147771501Y-75414083D01*
X147771481Y-75413934D01*
X147765069Y-75365227D01*
X147765069Y-75365226D01*
X147715066Y-75257995D01*
X147631405Y-75174334D01*
X147524174Y-75124331D01*
X147524172Y-75124330D01*
X147524173Y-75124330D01*
X147475318Y-75117899D01*
X147475317Y-75117899D01*
X147026685Y-75117899D01*
X147026684Y-75117899D01*
X146977829Y-75124330D01*
X146870598Y-75174333D01*
X146806334Y-75238597D01*
X146745010Y-75272081D01*
X146675319Y-75267096D01*
X146619385Y-75225225D01*
X146608173Y-75207219D01*
X146579048Y-75150057D01*
X146579046Y-75150055D01*
X146579043Y-75150051D01*
X146489345Y-75060353D01*
X146489342Y-75060351D01*
X146489340Y-75060349D01*
X146408232Y-75019022D01*
X146376299Y-75002751D01*
X146282522Y-74987899D01*
X145669480Y-74987899D01*
X145588517Y-75000722D01*
X145575694Y-75002753D01*
X145462656Y-75060349D01*
X145462655Y-75060350D01*
X145462650Y-75060353D01*
X145372952Y-75150051D01*
X145372947Y-75150058D01*
X145323981Y-75246157D01*
X145276006Y-75296953D01*
X145208185Y-75313747D01*
X145142050Y-75291209D01*
X145103014Y-75246158D01*
X145054048Y-75150057D01*
X145054046Y-75150055D01*
X145054043Y-75150051D01*
X144964345Y-75060353D01*
X144964342Y-75060351D01*
X144964340Y-75060349D01*
X144883232Y-75019022D01*
X144851299Y-75002751D01*
X144757522Y-74987899D01*
X144144480Y-74987899D01*
X144063517Y-75000722D01*
X144050694Y-75002753D01*
X143937656Y-75060349D01*
X143937655Y-75060350D01*
X143937650Y-75060353D01*
X143847952Y-75150051D01*
X143847947Y-75150058D01*
X143818828Y-75207207D01*
X143770853Y-75258002D01*
X143703032Y-75274797D01*
X143636898Y-75252259D01*
X143620663Y-75238592D01*
X143556405Y-75174334D01*
X143504341Y-75150056D01*
X143449174Y-75124331D01*
X143449172Y-75124330D01*
X143449173Y-75124330D01*
X143400318Y-75117899D01*
X143400317Y-75117899D01*
X142951685Y-75117899D01*
X142951684Y-75117899D01*
X142902829Y-75124330D01*
X142795596Y-75174334D01*
X142711936Y-75257994D01*
X142661932Y-75365227D01*
X142655501Y-75414082D01*
X142655501Y-75762715D01*
X142661932Y-75811570D01*
X142711936Y-75918803D01*
X142803268Y-76010135D01*
X142800444Y-76012958D01*
X142831184Y-76051441D01*
X142838353Y-76120941D01*
X142806809Y-76183285D01*
X142803102Y-76186497D01*
X142803268Y-76186663D01*
X142711936Y-76277994D01*
X142661932Y-76385227D01*
X142655501Y-76434082D01*
X142655501Y-76643796D01*
X142647436Y-76671261D01*
X142642322Y-76699426D01*
X142637717Y-76704360D01*
X142635816Y-76710835D01*
X142614186Y-76729576D01*
X142594654Y-76750509D01*
X142585820Y-76754156D01*
X142583012Y-76756590D01*
X142578277Y-76757270D01*
X142562031Y-76763979D01*
X142466001Y-76788373D01*
X141966001Y-76788373D01*
X141966001Y-76753894D01*
X141965999Y-76753893D01*
X141819810Y-76796365D01*
X141819807Y-76796367D01*
X141680626Y-76878678D01*
X141680617Y-76878685D01*
X141566286Y-76993016D01*
X141566279Y-76993025D01*
X141483969Y-77132204D01*
X141483967Y-77132209D01*
X141438856Y-77287481D01*
X141438855Y-77287487D01*
X141437210Y-77308399D01*
X140529939Y-77308399D01*
X140493316Y-77271776D01*
X140384487Y-77221028D01*
X140384485Y-77221027D01*
X140384486Y-77221027D01*
X140334901Y-77214500D01*
X139915105Y-77214500D01*
X139899386Y-77216569D01*
X139865513Y-77221028D01*
X139865511Y-77221029D01*
X139865509Y-77221029D01*
X139756683Y-77271776D01*
X139670279Y-77358181D01*
X139608956Y-77391666D01*
X139582598Y-77394500D01*
X139574401Y-77394500D01*
X139507362Y-77374815D01*
X139461607Y-77322011D01*
X139450401Y-77270500D01*
X139450401Y-76277549D01*
X139450400Y-76277547D01*
X139438769Y-76219070D01*
X139438768Y-76219069D01*
X139394453Y-76152747D01*
X139328131Y-76108432D01*
X139328130Y-76108431D01*
X139269653Y-76096800D01*
X139269649Y-76096800D01*
X138290353Y-76096800D01*
X138290348Y-76096800D01*
X138231871Y-76108431D01*
X138231870Y-76108432D01*
X138165548Y-76152747D01*
X138121233Y-76219069D01*
X138121232Y-76219070D01*
X138109601Y-76277547D01*
X138109601Y-78806252D01*
X138121232Y-78864729D01*
X138125907Y-78876013D01*
X138122343Y-78877489D01*
X138136685Y-78923276D01*
X138118206Y-78990657D01*
X138066231Y-79037352D01*
X138012705Y-79049500D01*
X134987295Y-79049500D01*
X134920256Y-79029815D01*
X134874501Y-78977011D01*
X134864557Y-78907853D01*
X134876393Y-78876966D01*
X134874093Y-78876013D01*
X134878767Y-78864729D01*
X134887451Y-78821068D01*
X134890399Y-78806248D01*
X134890399Y-76277552D01*
X134890399Y-76277549D01*
X134890398Y-76277547D01*
X134878767Y-76219070D01*
X134878766Y-76219069D01*
X134834451Y-76152747D01*
X134768129Y-76108432D01*
X134768128Y-76108431D01*
X134709651Y-76096800D01*
X134709647Y-76096800D01*
X133730351Y-76096800D01*
X133730346Y-76096800D01*
X133671869Y-76108431D01*
X133671868Y-76108432D01*
X133605546Y-76152747D01*
X133561231Y-76219069D01*
X133561230Y-76219070D01*
X133549599Y-76277547D01*
X133549599Y-78806252D01*
X133561230Y-78864729D01*
X133561231Y-78864730D01*
X133605546Y-78931052D01*
X133671868Y-78975367D01*
X133671869Y-78975368D01*
X133730346Y-78986999D01*
X133730349Y-78987000D01*
X133730351Y-78987000D01*
X133893758Y-78987000D01*
X133960797Y-79006685D01*
X134000211Y-79052171D01*
X134000852Y-79051744D01*
X134004257Y-79056841D01*
X134006552Y-79059489D01*
X134007535Y-79061746D01*
X134007636Y-79061898D01*
X134380565Y-79434825D01*
X134380568Y-79434829D01*
X134380569Y-79434829D01*
X134387635Y-79441895D01*
X134387636Y-79441897D01*
X134458103Y-79512364D01*
X134496240Y-79528160D01*
X134550173Y-79550501D01*
X134550174Y-79550501D01*
X134664262Y-79550501D01*
X134664270Y-79550500D01*
X138449903Y-79550500D01*
X138516942Y-79570185D01*
X138537584Y-79586819D01*
X138942662Y-79991897D01*
X139013129Y-80062364D01*
X139105198Y-80100500D01*
X141799903Y-80100500D01*
X141866942Y-80120185D01*
X141887584Y-80136819D01*
X142663181Y-80912415D01*
X142696666Y-80973738D01*
X142699500Y-81000096D01*
X142699500Y-85894875D01*
X142679815Y-85961914D01*
X142663181Y-85982556D01*
X142582557Y-86063180D01*
X142521234Y-86096665D01*
X142494876Y-86099499D01*
X140985178Y-86099499D01*
X140941282Y-86108230D01*
X140941275Y-86108233D01*
X140891496Y-86141494D01*
X140891495Y-86141495D01*
X140858234Y-86191274D01*
X140858231Y-86191281D01*
X140849500Y-86235176D01*
X140849500Y-86235179D01*
X140849500Y-86564819D01*
X140849500Y-86564821D01*
X140849499Y-86564821D01*
X140860615Y-86620699D01*
X140857689Y-86621281D01*
X140863141Y-86672023D01*
X140859794Y-86683421D01*
X140854973Y-86707655D01*
X140822586Y-86769565D01*
X140776696Y-86799639D01*
X140757908Y-86806647D01*
X140748309Y-86813833D01*
X140682844Y-86838248D01*
X140614571Y-86823395D01*
X140565167Y-86773988D01*
X140550001Y-86714564D01*
X140550001Y-86102171D01*
X140550000Y-86102154D01*
X140543599Y-86042626D01*
X140543597Y-86042619D01*
X140493355Y-85907912D01*
X140493351Y-85907905D01*
X140407191Y-85792811D01*
X140407188Y-85792808D01*
X140292094Y-85706648D01*
X140292087Y-85706644D01*
X140157380Y-85656402D01*
X140157373Y-85656400D01*
X140097845Y-85649999D01*
X139985436Y-85649999D01*
X139918397Y-85630314D01*
X139872642Y-85577510D01*
X139862698Y-85508352D01*
X139886159Y-85451701D01*
X139888134Y-85449062D01*
X139944062Y-85407184D01*
X139963953Y-85402588D01*
X139963775Y-85401689D01*
X140028230Y-85388868D01*
X140028230Y-85388867D01*
X140028232Y-85388867D01*
X140094553Y-85344552D01*
X140138868Y-85278231D01*
X140138868Y-85278229D01*
X140138869Y-85278229D01*
X140150500Y-85219752D01*
X140150501Y-85219750D01*
X140150501Y-84225832D01*
X140170186Y-84158793D01*
X140186820Y-84138151D01*
X140388152Y-83936819D01*
X140449475Y-83903334D01*
X140475833Y-83900500D01*
X141539560Y-83900500D01*
X141539562Y-83900500D01*
X141615989Y-83880021D01*
X141684511Y-83840460D01*
X141740460Y-83784511D01*
X141940460Y-83584511D01*
X141980022Y-83515988D01*
X141985001Y-83497402D01*
X142021365Y-83437744D01*
X142063821Y-83412456D01*
X142084932Y-83405068D01*
X142162882Y-83377793D01*
X142272150Y-83297150D01*
X142352793Y-83187882D01*
X142383068Y-83101362D01*
X142397646Y-83059701D01*
X142397646Y-83059699D01*
X142400500Y-83029269D01*
X142400500Y-81970730D01*
X142397646Y-81940300D01*
X142397646Y-81940298D01*
X142355919Y-81821053D01*
X142352793Y-81812118D01*
X142272150Y-81702850D01*
X142162882Y-81622207D01*
X142162880Y-81622206D01*
X142034700Y-81577353D01*
X142004270Y-81574500D01*
X142004266Y-81574500D01*
X141395734Y-81574500D01*
X141395730Y-81574500D01*
X141365300Y-81577353D01*
X141365298Y-81577353D01*
X141237119Y-81622206D01*
X141237117Y-81622207D01*
X141127850Y-81702850D01*
X141047207Y-81812117D01*
X141024842Y-81876033D01*
X140984120Y-81932808D01*
X140919167Y-81958555D01*
X140850605Y-81945098D01*
X140800203Y-81896711D01*
X140790095Y-81874081D01*
X140734358Y-81705880D01*
X140734356Y-81705875D01*
X140642315Y-81556654D01*
X140518345Y-81432684D01*
X140369124Y-81340643D01*
X140369119Y-81340641D01*
X140202697Y-81285494D01*
X140202690Y-81285493D01*
X140099986Y-81275000D01*
X140050000Y-81275000D01*
X140050000Y-82376000D01*
X140030315Y-82443039D01*
X139977511Y-82488794D01*
X139926000Y-82500000D01*
X139674000Y-82500000D01*
X139606961Y-82480315D01*
X139561206Y-82427511D01*
X139550000Y-82376000D01*
X139550000Y-81275000D01*
X139549999Y-81274999D01*
X139500029Y-81275000D01*
X139500011Y-81275001D01*
X139397301Y-81285494D01*
X139308763Y-81314832D01*
X139238934Y-81317233D01*
X139178893Y-81281501D01*
X139147701Y-81218980D01*
X139148095Y-81178251D01*
X139147703Y-81178213D01*
X139148138Y-81173790D01*
X139148147Y-81172915D01*
X139148300Y-81172146D01*
X139148300Y-80827849D01*
X139148299Y-80827847D01*
X139136668Y-80769370D01*
X139136667Y-80769369D01*
X139092352Y-80703047D01*
X139026030Y-80658732D01*
X139026029Y-80658731D01*
X138967552Y-80647100D01*
X138967548Y-80647100D01*
X138411400Y-80647100D01*
X138344361Y-80627415D01*
X138298606Y-80574611D01*
X138287400Y-80523100D01*
X138287400Y-80428500D01*
X136712600Y-80428500D01*
X136712600Y-80523100D01*
X136692915Y-80590139D01*
X136640111Y-80635894D01*
X136588600Y-80647100D01*
X136032447Y-80647100D01*
X135973970Y-80658731D01*
X135973969Y-80658732D01*
X135907647Y-80703047D01*
X135863332Y-80769369D01*
X135863331Y-80769370D01*
X135851700Y-80827847D01*
X135851700Y-81172152D01*
X135863331Y-81230629D01*
X135863332Y-81230630D01*
X135907647Y-81296952D01*
X135973969Y-81341267D01*
X135973970Y-81341268D01*
X136032447Y-81352899D01*
X136032450Y-81352900D01*
X136588600Y-81352900D01*
X136655639Y-81372585D01*
X136701394Y-81425389D01*
X136712600Y-81476900D01*
X136712600Y-81601000D01*
X136692915Y-81668039D01*
X136640111Y-81713794D01*
X136588601Y-81725000D01*
X136451693Y-81725000D01*
X136451676Y-81725001D01*
X136352392Y-81735144D01*
X136191518Y-81788452D01*
X136191507Y-81788457D01*
X136047271Y-81877424D01*
X136047267Y-81877427D01*
X135927427Y-81997267D01*
X135927424Y-81997271D01*
X135838457Y-82141507D01*
X135838452Y-82141518D01*
X135785144Y-82302393D01*
X135775000Y-82401677D01*
X135775000Y-82450000D01*
X136601000Y-82450000D01*
X136668039Y-82469685D01*
X136713794Y-82522489D01*
X136725000Y-82574000D01*
X136725000Y-82826000D01*
X136705315Y-82893039D01*
X136652511Y-82938794D01*
X136601000Y-82950000D01*
X136037342Y-82950000D01*
X135970303Y-82930315D01*
X135949661Y-82913681D01*
X135903582Y-82867602D01*
X135903580Y-82867600D01*
X135800853Y-82808290D01*
X135686276Y-82777589D01*
X135567658Y-82777589D01*
X135453081Y-82808290D01*
X135453079Y-82808290D01*
X135453079Y-82808291D01*
X135350354Y-82867600D01*
X135343908Y-82872547D01*
X135342938Y-82871283D01*
X135289829Y-82900277D01*
X135220138Y-82895285D01*
X135183621Y-82871814D01*
X135183059Y-82872547D01*
X135176615Y-82867602D01*
X135176613Y-82867600D01*
X135073886Y-82808290D01*
X134959309Y-82777589D01*
X134840691Y-82777589D01*
X134726114Y-82808290D01*
X134726112Y-82808290D01*
X134726112Y-82808291D01*
X134623387Y-82867600D01*
X134623384Y-82867602D01*
X134539513Y-82951473D01*
X134539511Y-82951476D01*
X134494599Y-83029266D01*
X134480201Y-83054203D01*
X134449500Y-83168780D01*
X134449500Y-83287398D01*
X134464507Y-83343408D01*
X134462845Y-83413256D01*
X134423683Y-83471119D01*
X134359454Y-83498623D01*
X134344733Y-83499500D01*
X134130254Y-83499500D01*
X134074191Y-83510651D01*
X134025811Y-83510651D01*
X133969748Y-83499500D01*
X133630252Y-83499500D01*
X133574190Y-83510651D01*
X133525809Y-83510650D01*
X133469753Y-83499500D01*
X133469749Y-83499500D01*
X133130253Y-83499500D01*
X133074190Y-83510651D01*
X133025810Y-83510651D01*
X132969748Y-83499500D01*
X132630252Y-83499500D01*
X132574190Y-83510651D01*
X132525809Y-83510650D01*
X132469753Y-83499500D01*
X132469749Y-83499500D01*
X132130253Y-83499500D01*
X132130248Y-83499500D01*
X132071771Y-83511131D01*
X132071770Y-83511132D01*
X132005448Y-83555447D01*
X131961133Y-83621769D01*
X131961132Y-83621770D01*
X131949501Y-83680247D01*
X131949501Y-85219752D01*
X131961132Y-85278229D01*
X131961133Y-85278230D01*
X132005448Y-85344552D01*
X132071770Y-85388867D01*
X132071771Y-85388868D01*
X132130248Y-85400499D01*
X132130251Y-85400500D01*
X132130253Y-85400500D01*
X132469750Y-85400500D01*
X132500482Y-85394386D01*
X132525809Y-85389349D01*
X132574192Y-85389349D01*
X132630249Y-85400500D01*
X132630252Y-85400500D01*
X132969749Y-85400500D01*
X132989465Y-85396578D01*
X133025808Y-85389349D01*
X133074189Y-85389349D01*
X133130248Y-85400499D01*
X133130251Y-85400500D01*
X133130253Y-85400500D01*
X133469751Y-85400500D01*
X133469752Y-85400499D01*
X133480865Y-85398288D01*
X133518221Y-85390859D01*
X133587812Y-85397086D01*
X133642990Y-85439949D01*
X133666234Y-85505839D01*
X133662188Y-85544566D01*
X133658565Y-85558089D01*
X133622202Y-85617750D01*
X133559356Y-85648281D01*
X133538789Y-85649999D01*
X132002156Y-85649999D01*
X131942628Y-85656400D01*
X131942621Y-85656402D01*
X131807914Y-85706644D01*
X131807907Y-85706648D01*
X131692813Y-85792808D01*
X131692810Y-85792811D01*
X131606650Y-85907905D01*
X131606646Y-85907912D01*
X131556404Y-86042619D01*
X131556402Y-86042626D01*
X131550001Y-86102154D01*
X131550001Y-89899999D01*
X140550001Y-89899999D01*
X140550001Y-88561540D01*
X140569686Y-88494501D01*
X140622490Y-88448746D01*
X140641898Y-88441768D01*
X140693409Y-88427966D01*
X140763257Y-88429629D01*
X140821119Y-88468792D01*
X140848623Y-88533020D01*
X140849500Y-88547741D01*
X140849500Y-88564820D01*
X140849500Y-88564822D01*
X140849499Y-88564822D01*
X140860615Y-88620700D01*
X140857689Y-88621282D01*
X140863141Y-88672024D01*
X140859795Y-88683418D01*
X140849500Y-88735176D01*
X140849500Y-88735179D01*
X140849500Y-89064819D01*
X140849500Y-89064821D01*
X140849499Y-89064821D01*
X140860615Y-89120699D01*
X140857689Y-89121281D01*
X140863141Y-89172023D01*
X140859795Y-89183417D01*
X140849500Y-89235175D01*
X140849500Y-89235178D01*
X140849500Y-89564818D01*
X140849500Y-89564820D01*
X140849499Y-89564820D01*
X140860615Y-89620698D01*
X140857688Y-89621280D01*
X140863145Y-89672011D01*
X140859795Y-89683420D01*
X140849500Y-89735176D01*
X140849500Y-89735179D01*
X140849500Y-90064819D01*
X140849500Y-90064821D01*
X140849499Y-90064821D01*
X140860615Y-90120699D01*
X140857690Y-90121280D01*
X140863140Y-90172032D01*
X140859792Y-90183430D01*
X140854973Y-90207656D01*
X140822586Y-90269566D01*
X140776696Y-90299640D01*
X140757910Y-90306647D01*
X140666247Y-90375266D01*
X140600782Y-90399683D01*
X140591936Y-90399999D01*
X131550001Y-90399999D01*
X131550001Y-94197843D01*
X131556402Y-94257371D01*
X131556404Y-94257378D01*
X131606646Y-94392085D01*
X131606650Y-94392092D01*
X131692810Y-94507186D01*
X131692813Y-94507189D01*
X131807907Y-94593349D01*
X131807914Y-94593353D01*
X131942621Y-94643595D01*
X131942628Y-94643597D01*
X132002156Y-94649998D01*
X132002173Y-94649999D01*
X132375666Y-94649999D01*
X132442705Y-94669684D01*
X132488460Y-94722488D01*
X132498404Y-94791646D01*
X132469379Y-94855202D01*
X132463347Y-94861680D01*
X132461848Y-94863179D01*
X132400525Y-94896664D01*
X132374167Y-94899498D01*
X132130248Y-94899498D01*
X132071771Y-94911129D01*
X132071770Y-94911130D01*
X132005448Y-94955445D01*
X131961133Y-95021767D01*
X131958829Y-95033351D01*
X131926441Y-95095261D01*
X131865725Y-95129833D01*
X131795955Y-95126091D01*
X131749531Y-95096837D01*
X131103162Y-94450468D01*
X131069677Y-94389145D01*
X131074661Y-94319453D01*
X131116533Y-94263520D01*
X131166653Y-94241169D01*
X131178233Y-94238866D01*
X131244554Y-94194551D01*
X131288869Y-94128230D01*
X131288869Y-94128228D01*
X131288870Y-94128228D01*
X131300501Y-94069751D01*
X131300502Y-94069749D01*
X131300502Y-93730248D01*
X131289351Y-93674191D01*
X131289351Y-93625807D01*
X131300502Y-93569750D01*
X131300502Y-93230249D01*
X131300501Y-93230247D01*
X131289351Y-93174188D01*
X131289351Y-93125806D01*
X131299001Y-93077292D01*
X131300502Y-93069748D01*
X131300502Y-92730248D01*
X131289351Y-92674191D01*
X131289351Y-92625807D01*
X131300502Y-92569750D01*
X131300502Y-92230249D01*
X131289351Y-92174191D01*
X131289351Y-92125807D01*
X131300502Y-92069748D01*
X131300502Y-91730247D01*
X131289351Y-91674190D01*
X131289351Y-91625806D01*
X131300502Y-91569749D01*
X131300502Y-91230248D01*
X131289351Y-91174191D01*
X131289351Y-91125807D01*
X131300502Y-91069750D01*
X131300502Y-90730249D01*
X131300501Y-90730247D01*
X131289351Y-90674188D01*
X131289351Y-90625806D01*
X131298146Y-90581591D01*
X131300502Y-90569748D01*
X131300502Y-90230248D01*
X131289351Y-90174191D01*
X131289351Y-90125807D01*
X131300502Y-90069749D01*
X131300502Y-89730248D01*
X131300501Y-89730246D01*
X131289351Y-89674187D01*
X131289351Y-89625805D01*
X131300502Y-89569746D01*
X131300502Y-89230250D01*
X131300502Y-89230247D01*
X131289351Y-89174190D01*
X131289351Y-89125806D01*
X131300502Y-89069749D01*
X131300502Y-88730248D01*
X131289351Y-88674191D01*
X131289351Y-88625807D01*
X131300502Y-88569750D01*
X131300502Y-88230249D01*
X131289351Y-88174191D01*
X131289351Y-88125807D01*
X131300502Y-88069748D01*
X131300502Y-87730247D01*
X131289351Y-87674190D01*
X131289351Y-87625806D01*
X131300502Y-87569749D01*
X131300502Y-87230248D01*
X131300501Y-87230246D01*
X131289351Y-87174187D01*
X131289351Y-87125805D01*
X131300361Y-87070455D01*
X131300502Y-87069747D01*
X131300502Y-86730247D01*
X131289351Y-86674190D01*
X131289351Y-86625806D01*
X131300502Y-86569749D01*
X131300502Y-86230248D01*
X131300501Y-86230246D01*
X131288870Y-86171769D01*
X131288869Y-86171768D01*
X131244554Y-86105446D01*
X131178232Y-86061131D01*
X131178231Y-86061130D01*
X131119754Y-86049499D01*
X131119750Y-86049499D01*
X130926612Y-86049499D01*
X130859573Y-86029814D01*
X130813818Y-85977010D01*
X130803874Y-85907852D01*
X130832899Y-85844296D01*
X130838931Y-85837818D01*
X130923523Y-85753225D01*
X130923528Y-85753220D01*
X130984719Y-85633126D01*
X130984720Y-85633121D01*
X131000500Y-85533493D01*
X131000500Y-84966506D01*
X130984720Y-84866878D01*
X130984719Y-84866876D01*
X130984719Y-84866874D01*
X130923528Y-84746780D01*
X130923526Y-84746778D01*
X130923523Y-84746774D01*
X130828225Y-84651476D01*
X130828220Y-84651472D01*
X130796736Y-84635430D01*
X130769774Y-84621692D01*
X130718979Y-84573718D01*
X130702184Y-84505897D01*
X130724722Y-84439762D01*
X130769771Y-84400726D01*
X130863342Y-84353050D01*
X130953050Y-84263342D01*
X131010646Y-84150304D01*
X131010646Y-84150302D01*
X131010647Y-84150301D01*
X131025499Y-84056524D01*
X131025500Y-84056519D01*
X131025499Y-83593482D01*
X131010646Y-83499696D01*
X130953050Y-83386658D01*
X130953046Y-83386654D01*
X130953045Y-83386652D01*
X130863347Y-83296954D01*
X130863344Y-83296952D01*
X130863342Y-83296950D01*
X130784860Y-83256961D01*
X130750301Y-83239352D01*
X130656524Y-83224500D01*
X130043482Y-83224500D01*
X129962519Y-83237323D01*
X129949696Y-83239354D01*
X129836658Y-83296950D01*
X129836657Y-83296951D01*
X129836652Y-83296954D01*
X129746954Y-83386652D01*
X129746951Y-83386657D01*
X129746950Y-83386658D01*
X129740407Y-83399500D01*
X129689352Y-83499698D01*
X129674500Y-83593475D01*
X129674500Y-84056517D01*
X129683302Y-84112091D01*
X129689354Y-84150304D01*
X129746950Y-84263342D01*
X129746952Y-84263344D01*
X129746954Y-84263347D01*
X129836652Y-84353045D01*
X129836655Y-84353047D01*
X129836658Y-84353050D01*
X129882754Y-84376537D01*
X129930224Y-84400725D01*
X129981019Y-84448699D01*
X129997814Y-84516520D01*
X129975276Y-84582655D01*
X129930223Y-84621693D01*
X129871783Y-84651469D01*
X129871777Y-84651474D01*
X129852825Y-84670426D01*
X129791501Y-84703910D01*
X129721809Y-84698924D01*
X129665876Y-84657052D01*
X129659606Y-84647840D01*
X129597571Y-84547266D01*
X129477732Y-84427427D01*
X129477728Y-84427424D01*
X129333492Y-84338457D01*
X129333481Y-84338452D01*
X129172606Y-84285144D01*
X129073322Y-84275000D01*
X129050000Y-84275000D01*
X129050000Y-86224999D01*
X129073308Y-86224999D01*
X129073322Y-86224998D01*
X129172605Y-86214856D01*
X129236497Y-86193684D01*
X129306326Y-86191282D01*
X129366368Y-86227013D01*
X129397561Y-86289533D01*
X129399502Y-86311390D01*
X129399502Y-86569751D01*
X129410652Y-86625807D01*
X129410653Y-86674188D01*
X129399502Y-86730250D01*
X129399502Y-87069745D01*
X129410653Y-87125808D01*
X129410653Y-87174188D01*
X129399502Y-87230251D01*
X129399502Y-87569751D01*
X129410652Y-87625807D01*
X129410653Y-87674188D01*
X129399502Y-87730250D01*
X129399502Y-88069746D01*
X129400146Y-88072984D01*
X129410653Y-88125809D01*
X129410653Y-88174189D01*
X129399502Y-88230252D01*
X129399502Y-88569752D01*
X129410652Y-88625808D01*
X129410653Y-88674189D01*
X129399502Y-88730251D01*
X129399502Y-89069751D01*
X129410652Y-89125807D01*
X129410653Y-89174188D01*
X129399502Y-89230250D01*
X129399502Y-89569745D01*
X129410653Y-89625808D01*
X129410653Y-89674188D01*
X129408817Y-89683420D01*
X129399502Y-89730251D01*
X129399502Y-90069747D01*
X129399643Y-90070455D01*
X129410653Y-90125809D01*
X129410653Y-90174189D01*
X129399502Y-90230251D01*
X129399502Y-90569746D01*
X129410653Y-90625809D01*
X129410653Y-90674189D01*
X129399502Y-90730252D01*
X129399502Y-91069752D01*
X129410652Y-91125808D01*
X129410653Y-91174189D01*
X129399502Y-91230251D01*
X129399502Y-91569751D01*
X129410652Y-91625807D01*
X129410653Y-91674188D01*
X129401247Y-91721476D01*
X129399502Y-91730250D01*
X129399502Y-92069746D01*
X129401500Y-92079791D01*
X129410653Y-92125809D01*
X129410653Y-92174189D01*
X129399502Y-92230252D01*
X129399502Y-92569752D01*
X129410652Y-92625808D01*
X129410653Y-92674189D01*
X129399502Y-92730251D01*
X129399502Y-93069746D01*
X129410653Y-93125809D01*
X129410653Y-93174189D01*
X129399502Y-93230252D01*
X129399502Y-93569752D01*
X129410652Y-93625808D01*
X129410653Y-93674189D01*
X129399502Y-93730251D01*
X129399502Y-94069751D01*
X129411133Y-94128228D01*
X129411134Y-94128229D01*
X129455449Y-94194551D01*
X129521771Y-94238866D01*
X129521772Y-94238867D01*
X129580249Y-94250498D01*
X129580252Y-94250499D01*
X129580254Y-94250499D01*
X129836687Y-94250499D01*
X129903726Y-94270184D01*
X129949481Y-94322988D01*
X129956459Y-94342400D01*
X129976793Y-94418287D01*
X130029520Y-94509612D01*
X130029521Y-94509613D01*
X130029522Y-94509614D01*
X131361360Y-95841451D01*
X131393453Y-95897036D01*
X131406903Y-95947230D01*
X131406905Y-95947235D01*
X131469505Y-96055663D01*
X131558036Y-96144194D01*
X131666464Y-96206794D01*
X131787399Y-96239199D01*
X131825075Y-96239199D01*
X131857130Y-96243414D01*
X131857556Y-96243528D01*
X131917228Y-96279874D01*
X131947778Y-96342711D01*
X131949501Y-96363313D01*
X131949501Y-96511289D01*
X131929816Y-96578328D01*
X131877012Y-96624083D01*
X131857598Y-96631063D01*
X131841202Y-96635456D01*
X131841194Y-96635460D01*
X131704275Y-96714509D01*
X131704267Y-96714515D01*
X131592466Y-96826316D01*
X131592460Y-96826324D01*
X131513411Y-96963243D01*
X131513408Y-96963250D01*
X131472485Y-97115977D01*
X131472485Y-97274091D01*
X131479562Y-97300500D01*
X131513408Y-97426817D01*
X131513411Y-97426824D01*
X131592460Y-97563743D01*
X131592464Y-97563748D01*
X131592465Y-97563750D01*
X131704269Y-97675554D01*
X131761963Y-97708863D01*
X131810178Y-97759429D01*
X131823402Y-97828035D01*
X131797435Y-97892901D01*
X131787644Y-97903931D01*
X130658104Y-99033473D01*
X130587637Y-99103939D01*
X130587636Y-99103940D01*
X130587636Y-99103941D01*
X130583973Y-99112784D01*
X130565658Y-99157001D01*
X130521816Y-99211404D01*
X130465882Y-99232662D01*
X130449415Y-99234639D01*
X130315023Y-99287636D01*
X130199921Y-99374921D01*
X130112636Y-99490023D01*
X130059640Y-99624412D01*
X130057735Y-99640283D01*
X130030198Y-99704498D01*
X129972316Y-99743631D01*
X129934619Y-99749500D01*
X129905123Y-99749500D01*
X129838084Y-99729815D01*
X129817442Y-99713181D01*
X128186819Y-98082558D01*
X128153334Y-98021235D01*
X128150500Y-97994877D01*
X128150500Y-86294822D01*
X128170185Y-86227783D01*
X128222989Y-86182028D01*
X128292147Y-86172084D01*
X128313505Y-86177116D01*
X128427394Y-86214856D01*
X128526683Y-86224999D01*
X128550000Y-86224998D01*
X128550000Y-84274999D01*
X128526693Y-84275000D01*
X128526674Y-84275001D01*
X128427392Y-84285144D01*
X128313504Y-84322883D01*
X128243675Y-84325285D01*
X128183634Y-84289553D01*
X128152441Y-84227032D01*
X128150500Y-84205177D01*
X128150500Y-71850173D01*
X128150499Y-71850170D01*
X128142076Y-71829835D01*
X128112364Y-71758103D01*
X128041897Y-71687636D01*
X127454397Y-71100136D01*
X127362329Y-71062000D01*
X127362328Y-71062000D01*
X125407164Y-71062000D01*
X125340125Y-71042315D01*
X125294370Y-70989511D01*
X125283874Y-70951254D01*
X125282622Y-70939611D01*
X125281591Y-70930017D01*
X125231296Y-70795169D01*
X125231295Y-70795168D01*
X125231293Y-70795164D01*
X125145047Y-70679955D01*
X125145044Y-70679952D01*
X125029835Y-70593706D01*
X125029828Y-70593702D01*
X124894986Y-70543410D01*
X124894985Y-70543409D01*
X124894983Y-70543409D01*
X124835373Y-70537000D01*
X124835363Y-70537000D01*
X124339629Y-70537000D01*
X124339623Y-70537001D01*
X124280016Y-70543408D01*
X124145171Y-70593702D01*
X124145164Y-70593706D01*
X124029955Y-70679952D01*
X123979715Y-70747063D01*
X123923780Y-70788934D01*
X123854088Y-70793917D01*
X123792766Y-70760430D01*
X123774332Y-70736901D01*
X123692972Y-70602315D01*
X123692970Y-70602313D01*
X123692969Y-70602311D01*
X123572688Y-70482030D01*
X123562966Y-70476153D01*
X123427106Y-70394022D01*
X123264696Y-70343414D01*
X123264694Y-70343413D01*
X123264692Y-70343413D01*
X123215278Y-70338923D01*
X123194116Y-70337000D01*
X122680884Y-70337000D01*
X122610304Y-70343414D01*
X122473888Y-70385922D01*
X122404029Y-70387072D01*
X122344637Y-70350271D01*
X122314569Y-70287202D01*
X122313000Y-70267536D01*
X122313000Y-69524500D01*
X122332685Y-69457461D01*
X122385489Y-69411706D01*
X122437000Y-69400500D01*
X122720614Y-69400500D01*
X122787653Y-69420185D01*
X122808295Y-69436819D01*
X122811985Y-69440509D01*
X122811986Y-69440510D01*
X122811988Y-69440511D01*
X122937511Y-69512982D01*
X122937512Y-69512982D01*
X122937515Y-69512984D01*
X123077525Y-69550500D01*
X123077528Y-69550500D01*
X123222472Y-69550500D01*
X123222475Y-69550500D01*
X123362485Y-69512984D01*
X123463002Y-69454950D01*
X123530899Y-69438478D01*
X123586997Y-69454949D01*
X123687515Y-69512984D01*
X123827525Y-69550500D01*
X123827528Y-69550500D01*
X123972472Y-69550500D01*
X123972475Y-69550500D01*
X124112485Y-69512984D01*
X124238015Y-69440509D01*
X124340509Y-69338015D01*
X124412984Y-69212485D01*
X124450500Y-69072475D01*
X124450500Y-68927525D01*
X124412984Y-68787515D01*
X124412964Y-68787481D01*
X124340511Y-68661988D01*
X124340506Y-68661982D01*
X124238017Y-68559493D01*
X124238011Y-68559488D01*
X124112488Y-68487017D01*
X124112489Y-68487017D01*
X124101006Y-68483940D01*
X123972475Y-68449500D01*
X123827525Y-68449500D01*
X123698993Y-68483940D01*
X123687511Y-68487017D01*
X123587000Y-68545048D01*
X123519100Y-68561521D01*
X123463000Y-68545048D01*
X123362488Y-68487017D01*
X123362489Y-68487017D01*
X123351006Y-68483940D01*
X123222475Y-68449500D01*
X123077525Y-68449500D01*
X122948993Y-68483940D01*
X122937511Y-68487017D01*
X122811988Y-68559488D01*
X122811982Y-68559493D01*
X122808295Y-68563181D01*
X122746972Y-68596666D01*
X122720614Y-68599500D01*
X122437000Y-68599500D01*
X122369961Y-68579815D01*
X122324206Y-68527011D01*
X122313000Y-68475500D01*
X122313000Y-67531903D01*
X122313000Y-67531898D01*
X122302377Y-67443436D01*
X122268483Y-67357489D01*
X122262203Y-67287903D01*
X122294540Y-67225967D01*
X122355229Y-67191346D01*
X122383839Y-67188000D01*
X124857745Y-67188000D01*
X124924784Y-67207685D01*
X124945426Y-67224319D01*
X126613796Y-68892688D01*
X126647281Y-68954011D01*
X126642297Y-69023703D01*
X126607854Y-69069712D01*
X126609421Y-69071279D01*
X126602851Y-69077848D01*
X126522207Y-69187117D01*
X126522206Y-69187119D01*
X126477353Y-69315298D01*
X126477353Y-69315300D01*
X126474500Y-69345730D01*
X126474500Y-70079269D01*
X126477353Y-70109699D01*
X126477353Y-70109701D01*
X126521388Y-70235542D01*
X126522207Y-70237882D01*
X126602850Y-70347150D01*
X126712118Y-70427793D01*
X126754845Y-70442744D01*
X126840299Y-70472646D01*
X126870730Y-70475500D01*
X126870734Y-70475500D01*
X128145245Y-70475500D01*
X128212284Y-70495185D01*
X128232926Y-70511819D01*
X129913181Y-72192074D01*
X129946666Y-72253397D01*
X129949500Y-72279755D01*
X129949500Y-81513466D01*
X129929815Y-81580505D01*
X129881796Y-81623950D01*
X129836656Y-81646950D01*
X129746954Y-81736652D01*
X129746951Y-81736657D01*
X129746950Y-81736658D01*
X129740616Y-81749090D01*
X129689352Y-81849698D01*
X129674500Y-81943475D01*
X129674500Y-82406517D01*
X129681387Y-82450000D01*
X129689354Y-82500304D01*
X129746950Y-82613342D01*
X129746952Y-82613344D01*
X129746954Y-82613347D01*
X129836652Y-82703045D01*
X129836654Y-82703046D01*
X129836658Y-82703050D01*
X129949694Y-82760645D01*
X129949698Y-82760647D01*
X130043475Y-82775499D01*
X130043481Y-82775500D01*
X130656518Y-82775499D01*
X130750304Y-82760646D01*
X130863342Y-82703050D01*
X130953050Y-82613342D01*
X131010646Y-82500304D01*
X131010646Y-82500302D01*
X131010647Y-82500301D01*
X131025499Y-82406524D01*
X131025500Y-82406519D01*
X131025499Y-81943482D01*
X131010646Y-81849696D01*
X130953050Y-81736658D01*
X130953046Y-81736654D01*
X130953045Y-81736652D01*
X130863343Y-81646950D01*
X130818204Y-81623950D01*
X130767409Y-81575975D01*
X130750500Y-81513466D01*
X130750500Y-72009776D01*
X130750500Y-72009773D01*
X130733157Y-71945046D01*
X130728498Y-71927657D01*
X130728498Y-71927656D01*
X130723207Y-71907913D01*
X130723207Y-71907912D01*
X130711767Y-71888098D01*
X130670480Y-71816587D01*
X129386204Y-70532311D01*
X129352719Y-70470988D01*
X129357703Y-70401296D01*
X129392145Y-70355287D01*
X129390579Y-70353721D01*
X129397146Y-70347152D01*
X129397150Y-70347150D01*
X129477793Y-70237882D01*
X129507959Y-70151673D01*
X129548681Y-70094897D01*
X129613633Y-70069150D01*
X129682195Y-70082606D01*
X129732598Y-70130994D01*
X129742041Y-70151673D01*
X129762985Y-70211529D01*
X129772207Y-70237882D01*
X129852850Y-70347150D01*
X129962118Y-70427793D01*
X130004845Y-70442744D01*
X130090299Y-70472646D01*
X130120730Y-70475500D01*
X130120734Y-70475500D01*
X132379270Y-70475500D01*
X132409699Y-70472646D01*
X132409701Y-70472646D01*
X132473790Y-70450219D01*
X132537882Y-70427793D01*
X132647150Y-70347150D01*
X132727793Y-70237882D01*
X132742433Y-70196044D01*
X132783155Y-70139269D01*
X132848108Y-70113522D01*
X132859474Y-70113000D01*
X133419600Y-70113000D01*
X133486639Y-70132685D01*
X133532394Y-70185489D01*
X133543600Y-70237000D01*
X133543600Y-72151452D01*
X133555231Y-72209929D01*
X133555232Y-72209930D01*
X133599547Y-72276252D01*
X133665869Y-72320567D01*
X133665870Y-72320568D01*
X133724347Y-72332199D01*
X133724350Y-72332200D01*
X133724352Y-72332200D01*
X139275650Y-72332200D01*
X139275651Y-72332199D01*
X139290468Y-72329252D01*
X139334129Y-72320568D01*
X139334129Y-72320567D01*
X139334131Y-72320567D01*
X139400452Y-72276252D01*
X139444767Y-72209931D01*
X139444767Y-72209929D01*
X139444768Y-72209929D01*
X139456399Y-72151452D01*
X139456400Y-72151450D01*
X139456400Y-70369843D01*
X145364103Y-70369843D01*
X145364103Y-70630156D01*
X145364104Y-70630173D01*
X145398081Y-70888257D01*
X145465461Y-71139720D01*
X145565080Y-71380222D01*
X145565085Y-71380233D01*
X145695240Y-71605666D01*
X145695246Y-71605674D01*
X145780139Y-71716309D01*
X146319281Y-71177166D01*
X146410363Y-71302529D01*
X146547474Y-71439640D01*
X146672834Y-71530719D01*
X146133692Y-72069862D01*
X146244328Y-72154756D01*
X146244336Y-72154762D01*
X146469769Y-72284917D01*
X146469780Y-72284922D01*
X146710282Y-72384541D01*
X146961745Y-72451921D01*
X147219829Y-72485898D01*
X147219847Y-72485900D01*
X147480159Y-72485900D01*
X147480176Y-72485898D01*
X147738260Y-72451921D01*
X147989723Y-72384541D01*
X148230225Y-72284922D01*
X148230229Y-72284920D01*
X148366683Y-72206138D01*
X148434583Y-72189665D01*
X148500610Y-72212517D01*
X148543801Y-72267438D01*
X148548227Y-72282349D01*
X148548299Y-72282328D01*
X148550068Y-72288160D01*
X148624536Y-72467943D01*
X148624541Y-72467952D01*
X148732651Y-72629749D01*
X148732654Y-72629753D01*
X148870250Y-72767349D01*
X148870254Y-72767352D01*
X149032051Y-72875462D01*
X149032057Y-72875465D01*
X149032058Y-72875466D01*
X149211844Y-72949936D01*
X149402699Y-72987899D01*
X149402703Y-72987900D01*
X149402704Y-72987900D01*
X149597305Y-72987900D01*
X149597306Y-72987899D01*
X149788164Y-72949936D01*
X149967950Y-72875466D01*
X150129754Y-72767352D01*
X150267356Y-72629750D01*
X150375470Y-72467946D01*
X150449940Y-72288160D01*
X150487904Y-72097300D01*
X150487904Y-71902700D01*
X150487903Y-71902695D01*
X151512103Y-71902695D01*
X151512103Y-72097304D01*
X151550065Y-72288152D01*
X151550067Y-72288160D01*
X151624535Y-72467943D01*
X151624540Y-72467952D01*
X151732650Y-72629749D01*
X151732653Y-72629753D01*
X151870249Y-72767349D01*
X151870253Y-72767352D01*
X152032050Y-72875462D01*
X152032056Y-72875465D01*
X152032057Y-72875466D01*
X152211843Y-72949936D01*
X152402698Y-72987899D01*
X152402702Y-72987900D01*
X152402703Y-72987900D01*
X152597304Y-72987900D01*
X152597305Y-72987899D01*
X152788163Y-72949936D01*
X152967949Y-72875466D01*
X153129753Y-72767352D01*
X153267355Y-72629750D01*
X153375469Y-72467946D01*
X153449939Y-72288160D01*
X153487903Y-72097300D01*
X153487903Y-71902700D01*
X153487902Y-71902695D01*
X154512102Y-71902695D01*
X154512102Y-72097304D01*
X154550064Y-72288152D01*
X154550066Y-72288160D01*
X154624534Y-72467943D01*
X154624539Y-72467952D01*
X154732649Y-72629749D01*
X154732652Y-72629753D01*
X154870248Y-72767349D01*
X154870252Y-72767352D01*
X155032049Y-72875462D01*
X155032055Y-72875465D01*
X155032056Y-72875466D01*
X155211842Y-72949936D01*
X155402697Y-72987899D01*
X155402701Y-72987900D01*
X155402702Y-72987900D01*
X155597303Y-72987900D01*
X155597304Y-72987899D01*
X155788162Y-72949936D01*
X155967948Y-72875466D01*
X156129752Y-72767352D01*
X156267354Y-72629750D01*
X156375468Y-72467946D01*
X156449938Y-72288160D01*
X156487902Y-72097300D01*
X156487902Y-71902700D01*
X156487901Y-71902695D01*
X157512101Y-71902695D01*
X157512101Y-72097304D01*
X157550063Y-72288152D01*
X157550065Y-72288160D01*
X157624533Y-72467943D01*
X157624538Y-72467952D01*
X157732648Y-72629749D01*
X157732651Y-72629753D01*
X157870247Y-72767349D01*
X157870251Y-72767352D01*
X158032048Y-72875462D01*
X158032054Y-72875465D01*
X158032055Y-72875466D01*
X158211841Y-72949936D01*
X158402696Y-72987899D01*
X158402700Y-72987900D01*
X158402701Y-72987900D01*
X158597302Y-72987900D01*
X158597303Y-72987899D01*
X158788161Y-72949936D01*
X158967947Y-72875466D01*
X159129751Y-72767352D01*
X159267353Y-72629750D01*
X159375467Y-72467946D01*
X159449937Y-72288160D01*
X159487901Y-72097300D01*
X159487901Y-71902700D01*
X159449937Y-71711840D01*
X159375467Y-71532054D01*
X159375466Y-71532053D01*
X159375463Y-71532047D01*
X159267353Y-71370250D01*
X159267350Y-71370246D01*
X159129754Y-71232650D01*
X159129750Y-71232647D01*
X158967953Y-71124537D01*
X158967944Y-71124532D01*
X158788161Y-71050064D01*
X158788153Y-71050062D01*
X158597305Y-71012100D01*
X158597301Y-71012100D01*
X158402701Y-71012100D01*
X158402696Y-71012100D01*
X158211848Y-71050062D01*
X158211840Y-71050064D01*
X158032057Y-71124532D01*
X158032048Y-71124537D01*
X157870251Y-71232647D01*
X157870247Y-71232650D01*
X157732651Y-71370246D01*
X157732648Y-71370250D01*
X157624538Y-71532047D01*
X157624533Y-71532056D01*
X157550065Y-71711839D01*
X157550063Y-71711847D01*
X157512101Y-71902695D01*
X156487901Y-71902695D01*
X156449938Y-71711840D01*
X156375468Y-71532054D01*
X156375467Y-71532053D01*
X156375464Y-71532047D01*
X156267354Y-71370250D01*
X156267351Y-71370246D01*
X156129755Y-71232650D01*
X156129751Y-71232647D01*
X155967954Y-71124537D01*
X155967945Y-71124532D01*
X155788162Y-71050064D01*
X155788154Y-71050062D01*
X155597306Y-71012100D01*
X155597302Y-71012100D01*
X155402702Y-71012100D01*
X155402697Y-71012100D01*
X155211849Y-71050062D01*
X155211841Y-71050064D01*
X155032058Y-71124532D01*
X155032049Y-71124537D01*
X154870252Y-71232647D01*
X154870248Y-71232650D01*
X154732652Y-71370246D01*
X154732649Y-71370250D01*
X154624539Y-71532047D01*
X154624534Y-71532056D01*
X154550066Y-71711839D01*
X154550064Y-71711847D01*
X154512102Y-71902695D01*
X153487902Y-71902695D01*
X153449939Y-71711840D01*
X153375469Y-71532054D01*
X153375468Y-71532053D01*
X153375465Y-71532047D01*
X153267355Y-71370250D01*
X153267352Y-71370246D01*
X153129756Y-71232650D01*
X153129752Y-71232647D01*
X152967955Y-71124537D01*
X152967946Y-71124532D01*
X152788163Y-71050064D01*
X152788155Y-71050062D01*
X152597307Y-71012100D01*
X152597303Y-71012100D01*
X152402703Y-71012100D01*
X152402698Y-71012100D01*
X152211850Y-71050062D01*
X152211842Y-71050064D01*
X152032059Y-71124532D01*
X152032050Y-71124537D01*
X151870253Y-71232647D01*
X151870249Y-71232650D01*
X151732653Y-71370246D01*
X151732650Y-71370250D01*
X151624540Y-71532047D01*
X151624535Y-71532056D01*
X151550067Y-71711839D01*
X151550065Y-71711847D01*
X151512103Y-71902695D01*
X150487903Y-71902695D01*
X150449940Y-71711840D01*
X150375470Y-71532054D01*
X150375469Y-71532053D01*
X150375466Y-71532047D01*
X150267356Y-71370250D01*
X150267353Y-71370246D01*
X150129757Y-71232650D01*
X150129753Y-71232647D01*
X149967956Y-71124537D01*
X149967947Y-71124532D01*
X149788164Y-71050064D01*
X149788156Y-71050062D01*
X149597308Y-71012100D01*
X149597304Y-71012100D01*
X149427015Y-71012100D01*
X149359976Y-70992415D01*
X149314221Y-70939611D01*
X149304076Y-70871915D01*
X149335901Y-70630173D01*
X149335903Y-70630156D01*
X149335903Y-70411401D01*
X149355588Y-70344362D01*
X149408392Y-70298607D01*
X149459903Y-70287401D01*
X149601324Y-70287401D01*
X149801467Y-70255701D01*
X149994196Y-70193079D01*
X150174751Y-70101082D01*
X150174755Y-70101080D01*
X150216903Y-70070455D01*
X150216904Y-70070455D01*
X149656684Y-69510235D01*
X149705889Y-69497051D01*
X149827519Y-69426827D01*
X149926830Y-69327516D01*
X149997054Y-69205886D01*
X150010238Y-69156681D01*
X150570457Y-69716901D01*
X150570458Y-69716900D01*
X150601083Y-69674752D01*
X150601085Y-69674748D01*
X150693082Y-69494193D01*
X150755704Y-69301464D01*
X150787404Y-69101321D01*
X150787404Y-68898680D01*
X151212603Y-68898680D01*
X151212603Y-69101321D01*
X151244302Y-69301464D01*
X151306924Y-69494193D01*
X151398919Y-69674745D01*
X151429548Y-69716900D01*
X151429549Y-69716901D01*
X151989768Y-69156681D01*
X152002953Y-69205886D01*
X152073177Y-69327516D01*
X152172488Y-69426827D01*
X152294118Y-69497051D01*
X152343322Y-69510235D01*
X151783102Y-70070454D01*
X151783102Y-70070455D01*
X151825257Y-70101083D01*
X152005810Y-70193079D01*
X152198539Y-70255701D01*
X152198538Y-70255701D01*
X152398683Y-70287401D01*
X152601323Y-70287401D01*
X152801466Y-70255701D01*
X152994195Y-70193079D01*
X153174750Y-70101082D01*
X153174754Y-70101080D01*
X153216902Y-70070455D01*
X153216903Y-70070455D01*
X152656683Y-69510235D01*
X152705888Y-69497051D01*
X152827518Y-69426827D01*
X152926829Y-69327516D01*
X152997053Y-69205886D01*
X153010237Y-69156681D01*
X153570456Y-69716901D01*
X153570457Y-69716900D01*
X153601082Y-69674752D01*
X153601084Y-69674748D01*
X153693081Y-69494193D01*
X153755703Y-69301464D01*
X153787403Y-69101321D01*
X153787403Y-68902696D01*
X154512102Y-68902696D01*
X154512102Y-69097305D01*
X154550064Y-69288153D01*
X154550066Y-69288161D01*
X154624534Y-69467944D01*
X154624539Y-69467953D01*
X154732649Y-69629750D01*
X154732652Y-69629754D01*
X154870248Y-69767350D01*
X154870252Y-69767353D01*
X155032049Y-69875463D01*
X155032055Y-69875466D01*
X155032056Y-69875467D01*
X155211842Y-69949937D01*
X155396740Y-69986715D01*
X155402697Y-69987900D01*
X155402701Y-69987901D01*
X155402702Y-69987901D01*
X155597303Y-69987901D01*
X155597304Y-69987900D01*
X155788162Y-69949937D01*
X155967948Y-69875467D01*
X156129752Y-69767353D01*
X156267354Y-69629751D01*
X156375468Y-69467947D01*
X156449938Y-69288161D01*
X156487902Y-69097301D01*
X156487902Y-68902701D01*
X156487901Y-68902696D01*
X157512101Y-68902696D01*
X157512101Y-69097305D01*
X157550063Y-69288153D01*
X157550065Y-69288161D01*
X157624533Y-69467944D01*
X157624538Y-69467953D01*
X157732648Y-69629750D01*
X157732651Y-69629754D01*
X157870247Y-69767350D01*
X157870251Y-69767353D01*
X158032048Y-69875463D01*
X158032054Y-69875466D01*
X158032055Y-69875467D01*
X158211841Y-69949937D01*
X158396739Y-69986715D01*
X158402696Y-69987900D01*
X158402700Y-69987901D01*
X158402701Y-69987901D01*
X158597302Y-69987901D01*
X158597303Y-69987900D01*
X158788161Y-69949937D01*
X158967947Y-69875467D01*
X159129751Y-69767353D01*
X159267353Y-69629751D01*
X159375467Y-69467947D01*
X159449937Y-69288161D01*
X159487901Y-69097301D01*
X159487901Y-68902701D01*
X159487900Y-68902696D01*
X160512100Y-68902696D01*
X160512100Y-69097305D01*
X160550062Y-69288153D01*
X160550064Y-69288161D01*
X160624532Y-69467944D01*
X160624537Y-69467953D01*
X160732647Y-69629750D01*
X160732650Y-69629754D01*
X160870246Y-69767350D01*
X160870250Y-69767353D01*
X161032047Y-69875463D01*
X161032053Y-69875466D01*
X161032054Y-69875467D01*
X161211840Y-69949937D01*
X161396738Y-69986715D01*
X161402695Y-69987900D01*
X161402699Y-69987901D01*
X161572989Y-69987901D01*
X161640028Y-70007586D01*
X161685783Y-70060390D01*
X161695928Y-70128086D01*
X161664102Y-70369826D01*
X161664101Y-70369843D01*
X161664101Y-70630156D01*
X161664102Y-70630173D01*
X161695928Y-70871915D01*
X161685162Y-70940950D01*
X161638782Y-70993206D01*
X161572989Y-71012100D01*
X161402695Y-71012100D01*
X161211847Y-71050062D01*
X161211839Y-71050064D01*
X161032056Y-71124532D01*
X161032047Y-71124537D01*
X160870250Y-71232647D01*
X160870246Y-71232650D01*
X160732650Y-71370246D01*
X160732647Y-71370250D01*
X160624537Y-71532047D01*
X160624532Y-71532056D01*
X160550064Y-71711839D01*
X160550062Y-71711847D01*
X160512100Y-71902695D01*
X160512100Y-72097304D01*
X160550062Y-72288152D01*
X160550064Y-72288160D01*
X160624532Y-72467943D01*
X160624537Y-72467952D01*
X160732647Y-72629749D01*
X160732650Y-72629753D01*
X160870246Y-72767349D01*
X160870250Y-72767352D01*
X161032047Y-72875462D01*
X161032053Y-72875465D01*
X161032054Y-72875466D01*
X161211840Y-72949936D01*
X161402695Y-72987899D01*
X161402699Y-72987900D01*
X161402700Y-72987900D01*
X161597301Y-72987900D01*
X161597302Y-72987899D01*
X161788160Y-72949936D01*
X161967946Y-72875466D01*
X162129750Y-72767352D01*
X162267352Y-72629750D01*
X162375466Y-72467946D01*
X162449936Y-72288160D01*
X162449937Y-72288150D01*
X162451705Y-72282328D01*
X162453144Y-72282764D01*
X162482070Y-72227440D01*
X162542779Y-72192854D01*
X162612549Y-72196580D01*
X162633319Y-72206138D01*
X162769767Y-72284917D01*
X162769778Y-72284922D01*
X163010280Y-72384541D01*
X163261743Y-72451921D01*
X163519827Y-72485898D01*
X163519845Y-72485900D01*
X163780157Y-72485900D01*
X163780174Y-72485898D01*
X164038258Y-72451921D01*
X164289721Y-72384541D01*
X164530223Y-72284922D01*
X164530234Y-72284917D01*
X164755667Y-72154762D01*
X164755685Y-72154750D01*
X164866310Y-72069863D01*
X164866310Y-72069861D01*
X164327168Y-71530720D01*
X164452530Y-71439640D01*
X164589641Y-71302529D01*
X164680721Y-71177168D01*
X165219862Y-71716309D01*
X165219864Y-71716309D01*
X165304751Y-71605684D01*
X165304763Y-71605666D01*
X165434918Y-71380233D01*
X165434923Y-71380222D01*
X165534542Y-71139720D01*
X165601922Y-70888257D01*
X165635899Y-70630173D01*
X165635901Y-70630156D01*
X165635901Y-70369843D01*
X165635899Y-70369826D01*
X165601922Y-70111742D01*
X165534542Y-69860279D01*
X165434923Y-69619777D01*
X165434918Y-69619766D01*
X165304763Y-69394333D01*
X165304757Y-69394325D01*
X165219863Y-69283689D01*
X164680720Y-69822831D01*
X164589641Y-69697471D01*
X164452530Y-69560360D01*
X164327167Y-69469278D01*
X164866310Y-68930136D01*
X164866310Y-68930135D01*
X164841810Y-68911336D01*
X164827289Y-68891450D01*
X164809563Y-68874357D01*
X164807047Y-68863728D01*
X164800607Y-68854908D01*
X164799142Y-68830325D01*
X164793472Y-68806365D01*
X164797101Y-68796065D01*
X164796452Y-68785162D01*
X164808510Y-68763690D01*
X164816694Y-68740467D01*
X164827302Y-68730227D01*
X164830664Y-68724242D01*
X164841192Y-68715061D01*
X164846750Y-68710739D01*
X164847634Y-68710374D01*
X164906646Y-68670943D01*
X166399500Y-68670943D01*
X166399500Y-68829057D01*
X166432982Y-68954011D01*
X166440423Y-68981783D01*
X166440426Y-68981790D01*
X166519475Y-69118709D01*
X166519479Y-69118714D01*
X166519480Y-69118716D01*
X166631284Y-69230520D01*
X166631286Y-69230521D01*
X166631290Y-69230524D01*
X166753003Y-69300794D01*
X166768216Y-69309577D01*
X166920943Y-69350500D01*
X166920945Y-69350500D01*
X167079055Y-69350500D01*
X167079057Y-69350500D01*
X167231784Y-69309577D01*
X167368716Y-69230520D01*
X167480520Y-69118716D01*
X167559577Y-68981784D01*
X167600500Y-68829057D01*
X167600500Y-68670943D01*
X167600499Y-68670938D01*
X167597577Y-68660032D01*
X167597574Y-68660024D01*
X167590064Y-68631995D01*
X170949500Y-68631995D01*
X170949500Y-68868004D01*
X170949501Y-68868020D01*
X170980306Y-69102010D01*
X171041392Y-69329986D01*
X171041392Y-69329989D01*
X171131714Y-69548045D01*
X171131719Y-69548056D01*
X171202677Y-69670957D01*
X171249727Y-69752450D01*
X171249729Y-69752453D01*
X171249730Y-69752454D01*
X171393406Y-69939697D01*
X171393412Y-69939704D01*
X171560295Y-70106587D01*
X171560302Y-70106593D01*
X171619052Y-70151673D01*
X171747550Y-70250273D01*
X171878918Y-70326118D01*
X171951943Y-70368280D01*
X171951948Y-70368282D01*
X171951951Y-70368284D01*
X172170007Y-70458606D01*
X172397986Y-70519693D01*
X172631989Y-70550500D01*
X172631996Y-70550500D01*
X172868004Y-70550500D01*
X172868011Y-70550500D01*
X173102014Y-70519693D01*
X173329993Y-70458606D01*
X173548049Y-70368284D01*
X173752450Y-70250273D01*
X173939699Y-70106592D01*
X174106592Y-69939699D01*
X174250273Y-69752450D01*
X174368284Y-69548049D01*
X174458606Y-69329993D01*
X174519693Y-69102014D01*
X174550500Y-68868011D01*
X174550500Y-68631989D01*
X174519693Y-68397986D01*
X174458606Y-68170007D01*
X174368284Y-67951951D01*
X174368282Y-67951948D01*
X174368280Y-67951943D01*
X174307072Y-67845929D01*
X174250273Y-67747550D01*
X174131040Y-67592162D01*
X174106593Y-67560302D01*
X174106587Y-67560295D01*
X173939704Y-67393412D01*
X173939697Y-67393406D01*
X173752454Y-67249730D01*
X173752453Y-67249729D01*
X173752450Y-67249727D01*
X173639822Y-67184701D01*
X173548056Y-67131719D01*
X173548045Y-67131714D01*
X173329993Y-67041394D01*
X173102010Y-66980306D01*
X172868020Y-66949501D01*
X172868017Y-66949500D01*
X172868011Y-66949500D01*
X172631989Y-66949500D01*
X172631983Y-66949500D01*
X172631979Y-66949501D01*
X172397989Y-66980306D01*
X172170006Y-67041394D01*
X171951954Y-67131714D01*
X171951943Y-67131719D01*
X171747545Y-67249730D01*
X171560302Y-67393406D01*
X171560295Y-67393412D01*
X171393412Y-67560295D01*
X171393406Y-67560302D01*
X171249730Y-67747545D01*
X171131719Y-67951943D01*
X171131714Y-67951954D01*
X171041394Y-68170006D01*
X170980306Y-68397989D01*
X170949501Y-68631979D01*
X170949500Y-68631995D01*
X167590064Y-68631995D01*
X167559577Y-68518216D01*
X167554977Y-68510248D01*
X167480524Y-68381290D01*
X167480518Y-68381282D01*
X167368717Y-68269481D01*
X167368709Y-68269475D01*
X167231790Y-68190426D01*
X167231786Y-68190424D01*
X167231784Y-68190423D01*
X167079057Y-68149500D01*
X166920943Y-68149500D01*
X166768216Y-68190423D01*
X166768209Y-68190426D01*
X166631290Y-68269475D01*
X166631282Y-68269481D01*
X166519481Y-68381282D01*
X166519475Y-68381290D01*
X166440426Y-68518209D01*
X166440424Y-68518214D01*
X166440423Y-68518216D01*
X166399500Y-68670943D01*
X164906646Y-68670943D01*
X164967836Y-68630057D01*
X165070059Y-68527834D01*
X165150376Y-68407632D01*
X165205699Y-68274071D01*
X165233902Y-68132283D01*
X165233902Y-67987717D01*
X165205699Y-67845929D01*
X165150376Y-67712368D01*
X165070059Y-67592166D01*
X165070056Y-67592162D01*
X164967839Y-67489945D01*
X164967835Y-67489942D01*
X164847631Y-67409624D01*
X164714073Y-67354303D01*
X164714065Y-67354301D01*
X164572289Y-67326100D01*
X164572285Y-67326100D01*
X164427719Y-67326100D01*
X164427714Y-67326100D01*
X164285938Y-67354301D01*
X164285930Y-67354303D01*
X164152372Y-67409624D01*
X164032168Y-67489942D01*
X164032164Y-67489945D01*
X163929947Y-67592162D01*
X163929944Y-67592166D01*
X163849626Y-67712370D01*
X163794305Y-67845928D01*
X163794303Y-67845936D01*
X163766102Y-67987712D01*
X163766102Y-68132287D01*
X163794303Y-68274063D01*
X163794306Y-68274075D01*
X163822710Y-68342648D01*
X163830179Y-68412117D01*
X163798904Y-68474596D01*
X163738815Y-68510248D01*
X163708149Y-68514100D01*
X163519845Y-68514100D01*
X163519827Y-68514101D01*
X163261743Y-68548078D01*
X163010280Y-68615458D01*
X162769778Y-68715077D01*
X162769767Y-68715082D01*
X162633319Y-68793861D01*
X162565419Y-68810334D01*
X162499392Y-68787481D01*
X162456201Y-68732560D01*
X162451776Y-68717651D01*
X162451705Y-68717673D01*
X162449937Y-68711847D01*
X162449936Y-68711841D01*
X162375466Y-68532055D01*
X162375465Y-68532054D01*
X162375462Y-68532048D01*
X162267352Y-68370251D01*
X162267349Y-68370247D01*
X162129753Y-68232651D01*
X162129749Y-68232648D01*
X161967952Y-68124538D01*
X161967943Y-68124533D01*
X161788160Y-68050065D01*
X161788152Y-68050063D01*
X161597304Y-68012101D01*
X161597300Y-68012101D01*
X161402700Y-68012101D01*
X161402695Y-68012101D01*
X161211847Y-68050063D01*
X161211839Y-68050065D01*
X161032056Y-68124533D01*
X161032047Y-68124538D01*
X160870250Y-68232648D01*
X160870246Y-68232651D01*
X160732650Y-68370247D01*
X160732647Y-68370251D01*
X160624537Y-68532048D01*
X160624532Y-68532057D01*
X160550064Y-68711840D01*
X160550062Y-68711848D01*
X160512100Y-68902696D01*
X159487900Y-68902696D01*
X159449937Y-68711841D01*
X159375467Y-68532055D01*
X159375466Y-68532054D01*
X159375463Y-68532048D01*
X159267353Y-68370251D01*
X159267350Y-68370247D01*
X159129754Y-68232651D01*
X159129750Y-68232648D01*
X158967953Y-68124538D01*
X158967944Y-68124533D01*
X158788161Y-68050065D01*
X158788153Y-68050063D01*
X158597305Y-68012101D01*
X158597301Y-68012101D01*
X158402701Y-68012101D01*
X158402696Y-68012101D01*
X158211848Y-68050063D01*
X158211840Y-68050065D01*
X158032057Y-68124533D01*
X158032048Y-68124538D01*
X157870251Y-68232648D01*
X157870247Y-68232651D01*
X157732651Y-68370247D01*
X157732648Y-68370251D01*
X157624538Y-68532048D01*
X157624533Y-68532057D01*
X157550065Y-68711840D01*
X157550063Y-68711848D01*
X157512101Y-68902696D01*
X156487901Y-68902696D01*
X156449938Y-68711841D01*
X156375468Y-68532055D01*
X156375467Y-68532054D01*
X156375464Y-68532048D01*
X156267354Y-68370251D01*
X156267351Y-68370247D01*
X156129755Y-68232651D01*
X156129751Y-68232648D01*
X155967954Y-68124538D01*
X155967945Y-68124533D01*
X155788162Y-68050065D01*
X155788154Y-68050063D01*
X155597306Y-68012101D01*
X155597302Y-68012101D01*
X155402702Y-68012101D01*
X155402697Y-68012101D01*
X155211849Y-68050063D01*
X155211841Y-68050065D01*
X155032058Y-68124533D01*
X155032049Y-68124538D01*
X154870252Y-68232648D01*
X154870248Y-68232651D01*
X154732652Y-68370247D01*
X154732649Y-68370251D01*
X154624539Y-68532048D01*
X154624534Y-68532057D01*
X154550066Y-68711840D01*
X154550064Y-68711848D01*
X154512102Y-68902696D01*
X153787403Y-68902696D01*
X153787403Y-68898680D01*
X153755703Y-68698537D01*
X153693081Y-68505808D01*
X153601085Y-68325255D01*
X153570456Y-68283100D01*
X153010236Y-68843319D01*
X152997053Y-68794116D01*
X152926829Y-68672486D01*
X152827518Y-68573175D01*
X152705888Y-68502951D01*
X152656683Y-68489766D01*
X153216903Y-67929547D01*
X153216902Y-67929546D01*
X153174747Y-67898917D01*
X152994195Y-67806922D01*
X152801466Y-67744300D01*
X152801467Y-67744300D01*
X152601323Y-67712601D01*
X152398683Y-67712601D01*
X152198539Y-67744300D01*
X152005810Y-67806922D01*
X151825253Y-67898920D01*
X151783102Y-67929545D01*
X151783101Y-67929546D01*
X152343322Y-68489766D01*
X152294118Y-68502951D01*
X152172488Y-68573175D01*
X152073177Y-68672486D01*
X152002953Y-68794116D01*
X151989769Y-68843320D01*
X151429548Y-68283099D01*
X151429547Y-68283100D01*
X151398922Y-68325251D01*
X151306924Y-68505808D01*
X151244302Y-68698537D01*
X151212603Y-68898680D01*
X150787404Y-68898680D01*
X150755704Y-68698537D01*
X150693082Y-68505808D01*
X150601086Y-68325255D01*
X150570457Y-68283100D01*
X150010237Y-68843319D01*
X149997054Y-68794116D01*
X149926830Y-68672486D01*
X149827519Y-68573175D01*
X149705889Y-68502951D01*
X149656684Y-68489766D01*
X150216904Y-67929547D01*
X150216903Y-67929546D01*
X150174748Y-67898917D01*
X149994196Y-67806922D01*
X149801467Y-67744300D01*
X149801468Y-67744300D01*
X149601324Y-67712601D01*
X149398684Y-67712601D01*
X149198540Y-67744300D01*
X149005811Y-67806922D01*
X148825254Y-67898920D01*
X148783103Y-67929545D01*
X148783102Y-67929546D01*
X149343323Y-68489766D01*
X149294119Y-68502951D01*
X149172489Y-68573175D01*
X149073178Y-68672486D01*
X149002954Y-68794116D01*
X148989769Y-68843320D01*
X148429549Y-68283099D01*
X148429548Y-68283100D01*
X148398923Y-68325251D01*
X148306923Y-68505810D01*
X148279347Y-68590680D01*
X148239909Y-68648355D01*
X148175550Y-68675552D01*
X148113964Y-68666921D01*
X147989723Y-68615458D01*
X147738260Y-68548078D01*
X147480176Y-68514101D01*
X147480159Y-68514100D01*
X147291855Y-68514100D01*
X147224816Y-68494415D01*
X147179061Y-68441611D01*
X147169117Y-68372453D01*
X147177294Y-68342648D01*
X147205697Y-68274075D01*
X147205699Y-68274071D01*
X147233902Y-68132283D01*
X147233902Y-67987717D01*
X147205699Y-67845929D01*
X147150376Y-67712368D01*
X147070059Y-67592166D01*
X147070056Y-67592162D01*
X146967839Y-67489945D01*
X146967835Y-67489942D01*
X146847631Y-67409624D01*
X146714073Y-67354303D01*
X146714065Y-67354301D01*
X146572289Y-67326100D01*
X146572285Y-67326100D01*
X146427719Y-67326100D01*
X146427714Y-67326100D01*
X146285938Y-67354301D01*
X146285930Y-67354303D01*
X146152372Y-67409624D01*
X146032168Y-67489942D01*
X146032164Y-67489945D01*
X145929947Y-67592162D01*
X145929944Y-67592166D01*
X145849626Y-67712370D01*
X145794305Y-67845928D01*
X145794303Y-67845936D01*
X145766102Y-67987712D01*
X145766102Y-68132287D01*
X145794303Y-68274063D01*
X145794305Y-68274071D01*
X145849626Y-68407629D01*
X145929944Y-68527833D01*
X145929947Y-68527837D01*
X146032167Y-68630057D01*
X146087338Y-68666921D01*
X146151597Y-68709858D01*
X146196402Y-68763469D01*
X146205109Y-68832794D01*
X146174955Y-68895821D01*
X146158193Y-68911334D01*
X146133692Y-68930134D01*
X146133692Y-68930136D01*
X146672835Y-69469279D01*
X146547474Y-69560360D01*
X146410363Y-69697471D01*
X146319282Y-69822832D01*
X145780139Y-69283689D01*
X145780138Y-69283689D01*
X145695251Y-69394316D01*
X145695240Y-69394333D01*
X145565085Y-69619766D01*
X145565080Y-69619777D01*
X145465461Y-69860279D01*
X145398081Y-70111742D01*
X145364104Y-70369826D01*
X145364103Y-70369843D01*
X139456400Y-70369843D01*
X139456400Y-68999986D01*
X140025001Y-68999986D01*
X140035494Y-69102697D01*
X140090641Y-69269119D01*
X140090643Y-69269124D01*
X140182684Y-69418345D01*
X140306654Y-69542315D01*
X140455875Y-69634356D01*
X140455880Y-69634358D01*
X140622302Y-69689505D01*
X140622309Y-69689506D01*
X140725019Y-69699999D01*
X140999999Y-69699999D01*
X141500000Y-69699999D01*
X141774972Y-69699999D01*
X141774986Y-69699998D01*
X141877697Y-69689505D01*
X142044119Y-69634358D01*
X142044124Y-69634356D01*
X142193345Y-69542315D01*
X142317315Y-69418345D01*
X142409356Y-69269124D01*
X142409358Y-69269119D01*
X142464505Y-69102697D01*
X142464506Y-69102690D01*
X142474999Y-68999986D01*
X142475000Y-68999973D01*
X142475000Y-68950000D01*
X141500000Y-68950000D01*
X141500000Y-69699999D01*
X140999999Y-69699999D01*
X141000000Y-69699998D01*
X141000000Y-68950000D01*
X140025001Y-68950000D01*
X140025001Y-68999986D01*
X139456400Y-68999986D01*
X139456400Y-67224500D01*
X139476085Y-67157461D01*
X139528889Y-67111706D01*
X139580400Y-67100500D01*
X140227404Y-67100500D01*
X140294443Y-67120185D01*
X140340198Y-67172989D01*
X140344445Y-67183544D01*
X140359290Y-67225967D01*
X140372207Y-67262882D01*
X140452850Y-67372150D01*
X140562118Y-67452793D01*
X140626033Y-67475158D01*
X140682807Y-67515878D01*
X140708555Y-67580830D01*
X140695099Y-67649392D01*
X140646712Y-67699795D01*
X140624082Y-67709904D01*
X140455878Y-67765642D01*
X140455875Y-67765643D01*
X140306654Y-67857684D01*
X140182684Y-67981654D01*
X140090643Y-68130875D01*
X140090641Y-68130880D01*
X140035494Y-68297302D01*
X140035493Y-68297309D01*
X140025000Y-68400013D01*
X140025000Y-68450000D01*
X142474999Y-68450000D01*
X142474999Y-68400028D01*
X142474998Y-68400013D01*
X142464505Y-68297302D01*
X142409358Y-68130880D01*
X142409354Y-68130871D01*
X142357450Y-68046721D01*
X142357449Y-68046719D01*
X142317319Y-67981659D01*
X142317315Y-67981654D01*
X142193345Y-67857684D01*
X142044124Y-67765643D01*
X142044119Y-67765641D01*
X141875917Y-67709905D01*
X141818472Y-67670133D01*
X141791649Y-67605617D01*
X141803964Y-67536841D01*
X141851507Y-67485641D01*
X141873966Y-67475158D01*
X141873972Y-67475156D01*
X141937882Y-67452793D01*
X142047150Y-67372150D01*
X142127793Y-67262882D01*
X142150219Y-67198790D01*
X142172646Y-67134701D01*
X142172646Y-67134699D01*
X142175500Y-67104269D01*
X142175500Y-66495730D01*
X142172646Y-66465300D01*
X142172646Y-66465298D01*
X142138359Y-66367315D01*
X142127793Y-66337118D01*
X142047150Y-66227850D01*
X141937882Y-66147207D01*
X141937880Y-66147206D01*
X141809700Y-66102353D01*
X141779270Y-66099500D01*
X141779266Y-66099500D01*
X140720734Y-66099500D01*
X140720730Y-66099500D01*
X140690300Y-66102353D01*
X140690298Y-66102353D01*
X140562119Y-66147206D01*
X140562117Y-66147207D01*
X140452850Y-66227850D01*
X140372207Y-66337117D01*
X140344445Y-66416456D01*
X140303723Y-66473231D01*
X140238770Y-66498978D01*
X140227404Y-66499500D01*
X139580400Y-66499500D01*
X139513361Y-66479815D01*
X139467606Y-66427011D01*
X139456400Y-66375500D01*
X139456400Y-66193749D01*
X139456399Y-66193747D01*
X139444768Y-66135270D01*
X139444767Y-66135269D01*
X139400452Y-66068947D01*
X139334130Y-66024632D01*
X139334129Y-66024631D01*
X139275652Y-66013000D01*
X139275648Y-66013000D01*
X133724352Y-66013000D01*
X133724347Y-66013000D01*
X133665870Y-66024631D01*
X133665869Y-66024632D01*
X133599547Y-66068947D01*
X133555232Y-66135269D01*
X133555231Y-66135270D01*
X133543600Y-66193747D01*
X133543600Y-69188000D01*
X133523915Y-69255039D01*
X133471111Y-69300794D01*
X133419600Y-69312000D01*
X132859474Y-69312000D01*
X132792435Y-69292315D01*
X132746680Y-69239511D01*
X132742433Y-69228956D01*
X132734360Y-69205886D01*
X132727793Y-69187118D01*
X132647150Y-69077850D01*
X132537882Y-68997207D01*
X132537880Y-68997206D01*
X132409700Y-68952353D01*
X132379270Y-68949500D01*
X132379266Y-68949500D01*
X130120734Y-68949500D01*
X130120730Y-68949500D01*
X130090300Y-68952353D01*
X130090298Y-68952353D01*
X129962119Y-68997206D01*
X129962117Y-68997207D01*
X129852850Y-69077850D01*
X129772207Y-69187117D01*
X129772206Y-69187119D01*
X129742041Y-69273326D01*
X129701319Y-69330102D01*
X129636366Y-69355849D01*
X129567805Y-69342392D01*
X129517402Y-69294005D01*
X129507959Y-69273326D01*
X129484360Y-69205886D01*
X129477793Y-69187118D01*
X129397150Y-69077850D01*
X129287882Y-68997207D01*
X129287880Y-68997206D01*
X129159700Y-68952353D01*
X129129270Y-68949500D01*
X129129266Y-68949500D01*
X127854754Y-68949500D01*
X127787715Y-68929815D01*
X127767073Y-68913181D01*
X126525354Y-67671461D01*
X126446055Y-67592162D01*
X125320913Y-66467020D01*
X125275250Y-66440656D01*
X125240738Y-66420730D01*
X126474500Y-66420730D01*
X126474500Y-67154269D01*
X126477353Y-67184699D01*
X126477353Y-67184701D01*
X126522206Y-67312880D01*
X126522209Y-67312885D01*
X126535470Y-67330854D01*
X126535473Y-67330857D01*
X126602850Y-67422150D01*
X126712118Y-67502793D01*
X126749513Y-67515878D01*
X126840299Y-67547646D01*
X126870730Y-67550500D01*
X126870734Y-67550500D01*
X129129270Y-67550500D01*
X129159699Y-67547646D01*
X129159701Y-67547646D01*
X129223790Y-67525219D01*
X129287882Y-67502793D01*
X129397150Y-67422150D01*
X129477793Y-67312882D01*
X129492433Y-67271044D01*
X129533155Y-67214269D01*
X129598108Y-67188522D01*
X129609474Y-67188000D01*
X129640526Y-67188000D01*
X129707565Y-67207685D01*
X129753320Y-67260489D01*
X129757567Y-67271044D01*
X129763466Y-67287903D01*
X129772207Y-67312882D01*
X129852850Y-67422150D01*
X129962118Y-67502793D01*
X129999513Y-67515878D01*
X130090299Y-67547646D01*
X130120730Y-67550500D01*
X130120734Y-67550500D01*
X132379270Y-67550500D01*
X132409699Y-67547646D01*
X132409701Y-67547646D01*
X132473790Y-67525219D01*
X132537882Y-67502793D01*
X132647150Y-67422150D01*
X132727793Y-67312882D01*
X132758719Y-67224500D01*
X132772646Y-67184701D01*
X132772646Y-67184699D01*
X132775500Y-67154269D01*
X132775500Y-66420730D01*
X132772646Y-66390300D01*
X132772646Y-66390298D01*
X132727793Y-66262119D01*
X132727792Y-66262117D01*
X132702502Y-66227850D01*
X132647150Y-66152850D01*
X132537882Y-66072207D01*
X132537880Y-66072206D01*
X132409700Y-66027353D01*
X132379270Y-66024500D01*
X132379266Y-66024500D01*
X130120734Y-66024500D01*
X130120730Y-66024500D01*
X130090300Y-66027353D01*
X130090298Y-66027353D01*
X129962119Y-66072206D01*
X129962117Y-66072207D01*
X129852850Y-66152850D01*
X129772207Y-66262118D01*
X129757567Y-66303956D01*
X129716845Y-66360731D01*
X129651892Y-66386478D01*
X129640526Y-66387000D01*
X129609474Y-66387000D01*
X129542435Y-66367315D01*
X129496680Y-66314511D01*
X129492433Y-66303956D01*
X129486225Y-66286215D01*
X129477793Y-66262118D01*
X129397150Y-66152850D01*
X129287882Y-66072207D01*
X129287880Y-66072206D01*
X129159700Y-66027353D01*
X129129270Y-66024500D01*
X129129266Y-66024500D01*
X126870734Y-66024500D01*
X126870730Y-66024500D01*
X126840300Y-66027353D01*
X126840298Y-66027353D01*
X126712119Y-66072206D01*
X126712117Y-66072207D01*
X126602850Y-66152850D01*
X126522207Y-66262117D01*
X126522206Y-66262119D01*
X126477353Y-66390298D01*
X126477353Y-66390300D01*
X126474500Y-66420730D01*
X125240738Y-66420730D01*
X125229589Y-66414293D01*
X125178657Y-66400646D01*
X125127727Y-66387000D01*
X125127726Y-66387000D01*
X114422839Y-66387000D01*
X114422823Y-66386999D01*
X114415227Y-66386999D01*
X114309773Y-66386999D01*
X114241866Y-66405195D01*
X114207912Y-66414293D01*
X114145534Y-66450307D01*
X114119565Y-66465301D01*
X114116584Y-66467022D01*
X108579522Y-72004084D01*
X108579518Y-72004090D01*
X108526792Y-72095412D01*
X108526793Y-72095413D01*
X108499500Y-72197273D01*
X108499500Y-79014164D01*
X108479815Y-79081203D01*
X108436891Y-79120815D01*
X108437118Y-79121154D01*
X108434967Y-79122591D01*
X108433965Y-79123516D01*
X108432053Y-79124538D01*
X108270254Y-79232648D01*
X108270246Y-79232654D01*
X108132650Y-79370250D01*
X108132647Y-79370254D01*
X108024537Y-79532051D01*
X108024532Y-79532060D01*
X107950064Y-79711843D01*
X107950062Y-79711851D01*
X107912100Y-79902699D01*
X107912100Y-80097308D01*
X107950062Y-80288156D01*
X107950064Y-80288164D01*
X108024532Y-80467947D01*
X108024537Y-80467956D01*
X108132647Y-80629753D01*
X108132650Y-80629757D01*
X108270246Y-80767353D01*
X108270250Y-80767356D01*
X108432047Y-80875466D01*
X108432056Y-80875471D01*
X108451580Y-80883558D01*
X108611840Y-80949940D01*
X108776462Y-80982685D01*
X108802695Y-80987903D01*
X108802699Y-80987904D01*
X108802700Y-80987904D01*
X108997301Y-80987904D01*
X108997302Y-80987903D01*
X109188160Y-80949940D01*
X109367946Y-80875470D01*
X109529750Y-80767356D01*
X109667352Y-80629754D01*
X109745020Y-80513516D01*
X109772398Y-80472542D01*
X109826010Y-80427737D01*
X109895335Y-80419030D01*
X109958362Y-80449184D01*
X109995082Y-80508627D01*
X109999500Y-80541433D01*
X109999500Y-81282744D01*
X109979815Y-81349783D01*
X109963181Y-81370425D01*
X109546037Y-81787568D01*
X109484714Y-81821053D01*
X109415022Y-81816069D01*
X109402065Y-81810374D01*
X109394385Y-81806461D01*
X109342360Y-81789557D01*
X109201584Y-81743816D01*
X109201582Y-81743815D01*
X109201580Y-81743815D01*
X109014776Y-81714228D01*
X109001360Y-81712103D01*
X108798640Y-81712103D01*
X108785224Y-81714228D01*
X108598419Y-81743815D01*
X108598416Y-81743816D01*
X108463762Y-81787568D01*
X108405615Y-81806461D01*
X108224990Y-81898495D01*
X108060995Y-82017642D01*
X107917639Y-82160998D01*
X107798492Y-82324993D01*
X107706458Y-82505618D01*
X107643812Y-82698422D01*
X107612100Y-82898643D01*
X107612100Y-83101362D01*
X107643078Y-83296951D01*
X107643813Y-83301587D01*
X107706457Y-83494385D01*
X107771363Y-83621770D01*
X107798492Y-83675012D01*
X107917639Y-83839007D01*
X108060995Y-83982363D01*
X108163071Y-84056524D01*
X108224994Y-84101513D01*
X108405618Y-84193546D01*
X108598416Y-84256190D01*
X108798640Y-84287903D01*
X108798641Y-84287903D01*
X109001359Y-84287903D01*
X109001360Y-84287903D01*
X109201584Y-84256190D01*
X109394382Y-84193546D01*
X109575006Y-84101513D01*
X109681853Y-84023885D01*
X109739004Y-83982363D01*
X109739006Y-83982360D01*
X109739010Y-83982358D01*
X109882355Y-83839013D01*
X109882357Y-83839009D01*
X109882360Y-83839007D01*
X109938255Y-83762072D01*
X110001510Y-83675009D01*
X110093543Y-83494385D01*
X110156187Y-83301587D01*
X110187900Y-83101363D01*
X110187900Y-82898643D01*
X110156187Y-82698419D01*
X110093543Y-82505621D01*
X110093541Y-82505618D01*
X110093541Y-82505616D01*
X110089629Y-82497939D01*
X110076731Y-82429270D01*
X110103005Y-82364529D01*
X110112422Y-82353969D01*
X110720480Y-81745913D01*
X110773207Y-81654588D01*
X110800500Y-81552727D01*
X110800500Y-81447273D01*
X110800500Y-81021232D01*
X110820185Y-80954193D01*
X110872989Y-80908438D01*
X110942147Y-80898494D01*
X111005703Y-80927519D01*
X111012181Y-80933551D01*
X111060994Y-80982364D01*
X111195154Y-81079835D01*
X111224993Y-81101514D01*
X111405617Y-81193547D01*
X111598415Y-81256191D01*
X111798639Y-81287904D01*
X111798640Y-81287904D01*
X112001358Y-81287904D01*
X112001359Y-81287904D01*
X112201583Y-81256191D01*
X112394381Y-81193547D01*
X112575005Y-81101514D01*
X112685505Y-81021232D01*
X112739003Y-80982364D01*
X112739005Y-80982361D01*
X112739009Y-80982359D01*
X112882354Y-80839014D01*
X112882356Y-80839010D01*
X112882359Y-80839008D01*
X112983716Y-80699500D01*
X113001509Y-80675010D01*
X113015015Y-80648502D01*
X113062989Y-80597707D01*
X113130809Y-80580911D01*
X113196945Y-80603448D01*
X113240397Y-80658162D01*
X113249500Y-80704797D01*
X113249500Y-81532745D01*
X113229815Y-81599784D01*
X113213181Y-81620426D01*
X112858464Y-81975142D01*
X112797141Y-82008627D01*
X112727449Y-82003643D01*
X112697898Y-81987779D01*
X112575008Y-81898495D01*
X112575007Y-81898494D01*
X112575005Y-81898493D01*
X112395778Y-81807172D01*
X112394383Y-81806461D01*
X112394382Y-81806460D01*
X112394381Y-81806460D01*
X112201583Y-81743816D01*
X112201581Y-81743815D01*
X112201579Y-81743815D01*
X112014775Y-81714228D01*
X112001359Y-81712103D01*
X111798639Y-81712103D01*
X111785223Y-81714228D01*
X111598418Y-81743815D01*
X111598415Y-81743816D01*
X111463761Y-81787568D01*
X111405614Y-81806461D01*
X111224989Y-81898495D01*
X111060994Y-82017642D01*
X110917638Y-82160998D01*
X110798491Y-82324993D01*
X110706457Y-82505618D01*
X110643811Y-82698422D01*
X110612099Y-82898643D01*
X110612099Y-83101362D01*
X110643077Y-83296951D01*
X110643812Y-83301587D01*
X110706456Y-83494385D01*
X110771362Y-83621770D01*
X110798491Y-83675012D01*
X110917638Y-83839007D01*
X111060994Y-83982363D01*
X111163070Y-84056524D01*
X111224993Y-84101513D01*
X111405617Y-84193546D01*
X111598415Y-84256190D01*
X111798639Y-84287903D01*
X111798640Y-84287903D01*
X112001358Y-84287903D01*
X112001359Y-84287903D01*
X112201583Y-84256190D01*
X112394381Y-84193546D01*
X112575005Y-84101513D01*
X112681852Y-84023885D01*
X112739003Y-83982363D01*
X112739005Y-83982360D01*
X112739009Y-83982358D01*
X112882354Y-83839013D01*
X112882356Y-83839009D01*
X112882359Y-83839007D01*
X112938254Y-83762072D01*
X113001509Y-83675009D01*
X113093542Y-83494385D01*
X113156186Y-83301587D01*
X113187899Y-83101363D01*
X113187899Y-82898643D01*
X113181354Y-82857324D01*
X113190308Y-82788032D01*
X113216143Y-82750248D01*
X113970480Y-81995913D01*
X114023207Y-81904588D01*
X114050500Y-81802727D01*
X114050500Y-81697273D01*
X114050500Y-79217254D01*
X114070185Y-79150215D01*
X114086815Y-79129577D01*
X114150320Y-79066072D01*
X114211642Y-79032588D01*
X114281334Y-79037572D01*
X114337267Y-79079444D01*
X114361684Y-79144908D01*
X114362000Y-79153754D01*
X114362000Y-79725001D01*
X114362001Y-79725019D01*
X114372500Y-79827796D01*
X114372501Y-79827799D01*
X114427685Y-79994331D01*
X114427687Y-79994336D01*
X114455195Y-80038934D01*
X114519788Y-80143656D01*
X114643844Y-80267712D01*
X114793166Y-80359814D01*
X114959703Y-80414999D01*
X115062491Y-80425500D01*
X115887508Y-80425499D01*
X115887516Y-80425498D01*
X115887519Y-80425498D01*
X115950836Y-80419030D01*
X115990297Y-80414999D01*
X116156834Y-80359814D01*
X116306156Y-80267712D01*
X116430212Y-80143656D01*
X116522314Y-79994334D01*
X116577499Y-79827797D01*
X116588000Y-79725009D01*
X116587999Y-79303752D01*
X116607683Y-79236715D01*
X116660487Y-79190960D01*
X116729646Y-79181016D01*
X116793202Y-79210041D01*
X116799680Y-79216073D01*
X118466587Y-80882980D01*
X118557912Y-80935707D01*
X118659773Y-80963000D01*
X120466265Y-80963000D01*
X120533304Y-80982685D01*
X120579059Y-81035489D01*
X120589003Y-81104647D01*
X120565070Y-81161924D01*
X120553139Y-81177657D01*
X120497622Y-81318438D01*
X120493484Y-81352899D01*
X120487000Y-81406898D01*
X120487000Y-84343102D01*
X120488673Y-84357030D01*
X120497622Y-84431561D01*
X120497622Y-84431563D01*
X120497623Y-84431564D01*
X120515665Y-84477315D01*
X120553139Y-84572342D01*
X120565070Y-84588076D01*
X120589892Y-84653388D01*
X120575463Y-84721751D01*
X120526365Y-84771462D01*
X120466265Y-84787000D01*
X119054755Y-84787000D01*
X118987716Y-84767315D01*
X118967074Y-84750681D01*
X116770915Y-82554522D01*
X116770913Y-82554520D01*
X116690166Y-82507900D01*
X116679587Y-82501792D01*
X116672084Y-82498685D01*
X116672603Y-82497429D01*
X116620239Y-82465507D01*
X116589714Y-82402658D01*
X116587999Y-82382103D01*
X116587999Y-81399998D01*
X116587998Y-81399981D01*
X116577499Y-81297203D01*
X116577498Y-81297200D01*
X116570141Y-81274999D01*
X116522314Y-81130666D01*
X116430212Y-80981344D01*
X116306156Y-80857288D01*
X116206592Y-80795877D01*
X116156836Y-80765187D01*
X116156831Y-80765185D01*
X116155362Y-80764698D01*
X115990297Y-80710001D01*
X115990295Y-80710000D01*
X115887510Y-80699500D01*
X115062498Y-80699500D01*
X115062480Y-80699501D01*
X114959703Y-80710000D01*
X114959700Y-80710001D01*
X114793168Y-80765185D01*
X114793163Y-80765187D01*
X114643842Y-80857289D01*
X114519789Y-80981342D01*
X114427687Y-81130663D01*
X114427685Y-81130668D01*
X114406352Y-81195047D01*
X114372501Y-81297203D01*
X114372501Y-81297204D01*
X114372500Y-81297204D01*
X114362000Y-81399983D01*
X114362000Y-82920245D01*
X114342315Y-82987284D01*
X114325681Y-83007926D01*
X112546038Y-84787568D01*
X112484715Y-84821053D01*
X112415023Y-84816069D01*
X112402066Y-84810374D01*
X112394384Y-84806460D01*
X112377703Y-84801040D01*
X112201583Y-84743815D01*
X112201581Y-84743814D01*
X112201579Y-84743814D01*
X112061781Y-84721672D01*
X112001359Y-84712102D01*
X111798639Y-84712102D01*
X111752223Y-84719453D01*
X111598418Y-84743814D01*
X111405614Y-84806460D01*
X111224989Y-84898494D01*
X111060994Y-85017641D01*
X110917638Y-85160997D01*
X110798491Y-85324992D01*
X110706457Y-85505617D01*
X110706456Y-85505619D01*
X110706456Y-85505620D01*
X110696053Y-85537636D01*
X110643811Y-85698421D01*
X110618526Y-85858066D01*
X110612099Y-85898642D01*
X110612099Y-86101362D01*
X110617452Y-86135157D01*
X110643792Y-86301465D01*
X110643812Y-86301586D01*
X110706456Y-86494384D01*
X110798359Y-86674753D01*
X110798491Y-86675011D01*
X110917638Y-86839006D01*
X111060994Y-86982362D01*
X111195129Y-87079815D01*
X111224993Y-87101512D01*
X111405617Y-87193545D01*
X111598415Y-87256189D01*
X111798639Y-87287902D01*
X111798640Y-87287902D01*
X112001358Y-87287902D01*
X112001359Y-87287902D01*
X112201583Y-87256189D01*
X112394381Y-87193545D01*
X112575005Y-87101512D01*
X112681962Y-87023804D01*
X112739003Y-86982362D01*
X112739005Y-86982359D01*
X112739009Y-86982357D01*
X112882354Y-86839012D01*
X112882356Y-86839008D01*
X112882359Y-86839006D01*
X112957793Y-86735178D01*
X113001509Y-86675008D01*
X113093542Y-86494384D01*
X113156186Y-86301586D01*
X113187899Y-86101362D01*
X113187899Y-85898642D01*
X113156186Y-85698418D01*
X113093542Y-85505620D01*
X113093540Y-85505617D01*
X113093540Y-85505615D01*
X113089629Y-85497940D01*
X113076731Y-85429271D01*
X113103005Y-85364530D01*
X113112423Y-85353969D01*
X114154717Y-84311673D01*
X114216038Y-84278190D01*
X114285729Y-84283174D01*
X114341663Y-84325045D01*
X114365754Y-84386754D01*
X114372501Y-84452797D01*
X114372501Y-84452799D01*
X114427685Y-84619331D01*
X114427687Y-84619336D01*
X114455195Y-84663934D01*
X114519788Y-84768656D01*
X114643844Y-84892712D01*
X114793166Y-84984814D01*
X114959703Y-85039999D01*
X115062491Y-85050500D01*
X115887508Y-85050499D01*
X115887516Y-85050498D01*
X115887519Y-85050498D01*
X115943802Y-85044748D01*
X115990297Y-85039999D01*
X116156834Y-84984814D01*
X116306156Y-84892712D01*
X116430212Y-84768656D01*
X116522314Y-84619334D01*
X116577499Y-84452797D01*
X116588000Y-84350009D01*
X116587999Y-83803752D01*
X116607683Y-83736715D01*
X116660487Y-83690960D01*
X116729646Y-83681016D01*
X116793202Y-83710041D01*
X116799680Y-83716073D01*
X118591587Y-85507980D01*
X118662190Y-85548743D01*
X118678377Y-85558089D01*
X118682912Y-85560707D01*
X118784773Y-85588000D01*
X120466265Y-85588000D01*
X120533304Y-85607685D01*
X120579059Y-85660489D01*
X120589003Y-85729647D01*
X120565070Y-85786924D01*
X120553139Y-85802657D01*
X120497622Y-85943438D01*
X120493591Y-85977010D01*
X120487000Y-86031898D01*
X120487000Y-88968102D01*
X120488673Y-88982030D01*
X120497622Y-89056561D01*
X120497622Y-89056563D01*
X120497623Y-89056564D01*
X120515665Y-89102315D01*
X120553139Y-89197342D01*
X120565070Y-89213076D01*
X120589892Y-89278388D01*
X120575463Y-89346751D01*
X120526365Y-89396462D01*
X120466265Y-89412000D01*
X119179755Y-89412000D01*
X119112716Y-89392315D01*
X119092074Y-89375681D01*
X116895915Y-87179522D01*
X116895913Y-87179520D01*
X116844780Y-87149998D01*
X116804589Y-87126793D01*
X116759671Y-87114757D01*
X116702727Y-87099500D01*
X116702726Y-87099500D01*
X116702722Y-87099499D01*
X116695805Y-87098588D01*
X116631911Y-87070317D01*
X116593444Y-87011990D01*
X116587999Y-86975650D01*
X116587999Y-86024998D01*
X116587998Y-86024981D01*
X116577499Y-85922203D01*
X116577498Y-85922200D01*
X116572761Y-85907905D01*
X116522314Y-85755666D01*
X116430212Y-85606344D01*
X116306156Y-85482288D01*
X116213388Y-85425069D01*
X116156836Y-85390187D01*
X116156831Y-85390185D01*
X116152857Y-85388868D01*
X115990297Y-85335001D01*
X115990295Y-85335000D01*
X115887510Y-85324500D01*
X115062498Y-85324500D01*
X115062480Y-85324501D01*
X114959703Y-85335000D01*
X114959700Y-85335001D01*
X114793168Y-85390185D01*
X114793163Y-85390187D01*
X114643842Y-85482289D01*
X114519789Y-85606342D01*
X114427687Y-85755663D01*
X114427685Y-85755668D01*
X114406352Y-85820047D01*
X114372501Y-85922203D01*
X114372501Y-85922204D01*
X114372500Y-85922204D01*
X114362000Y-86024983D01*
X114362000Y-87170244D01*
X114342315Y-87237283D01*
X114325681Y-87257925D01*
X113208973Y-88374632D01*
X113147650Y-88408117D01*
X113077958Y-88403133D01*
X113022025Y-88361261D01*
X113010806Y-88343243D01*
X113001508Y-88324993D01*
X112882359Y-88160997D01*
X112739003Y-88017641D01*
X112575008Y-87898494D01*
X112575007Y-87898493D01*
X112575005Y-87898492D01*
X112394381Y-87806459D01*
X112201583Y-87743815D01*
X112201581Y-87743814D01*
X112201579Y-87743814D01*
X112061781Y-87721672D01*
X112001359Y-87712102D01*
X111798639Y-87712102D01*
X111752223Y-87719453D01*
X111598418Y-87743814D01*
X111405614Y-87806460D01*
X111224989Y-87898494D01*
X111060994Y-88017641D01*
X110917638Y-88160997D01*
X110798491Y-88324992D01*
X110706457Y-88505617D01*
X110643811Y-88698421D01*
X110612099Y-88898642D01*
X110612099Y-89101361D01*
X110643792Y-89301465D01*
X110643812Y-89301586D01*
X110706456Y-89494384D01*
X110798359Y-89674753D01*
X110798491Y-89675011D01*
X110917638Y-89839006D01*
X111060994Y-89982362D01*
X111214455Y-90093856D01*
X111224993Y-90101512D01*
X111405617Y-90193545D01*
X111598415Y-90256189D01*
X111798639Y-90287902D01*
X111798640Y-90287902D01*
X112001358Y-90287902D01*
X112001359Y-90287902D01*
X112201583Y-90256189D01*
X112394381Y-90193545D01*
X112575005Y-90101512D01*
X112693822Y-90015187D01*
X112739003Y-89982362D01*
X112739005Y-89982359D01*
X112739009Y-89982357D01*
X112882354Y-89839012D01*
X112882356Y-89839008D01*
X112882359Y-89839006D01*
X112934609Y-89767087D01*
X113001509Y-89675008D01*
X113093542Y-89494384D01*
X113096351Y-89485739D01*
X113135785Y-89428061D01*
X113198098Y-89401111D01*
X113202715Y-89400502D01*
X113202725Y-89400502D01*
X113304586Y-89373209D01*
X113395911Y-89320482D01*
X114150321Y-88566070D01*
X114211642Y-88532587D01*
X114281333Y-88537571D01*
X114337267Y-88579442D01*
X114361684Y-88644907D01*
X114362000Y-88653753D01*
X114362000Y-88975000D01*
X114362001Y-88975019D01*
X114372500Y-89077796D01*
X114372501Y-89077799D01*
X114427685Y-89244331D01*
X114427687Y-89244336D01*
X114455195Y-89288934D01*
X114519788Y-89393656D01*
X114643844Y-89517712D01*
X114793166Y-89609814D01*
X114959703Y-89664999D01*
X115062491Y-89675500D01*
X115887508Y-89675499D01*
X115887516Y-89675498D01*
X115887519Y-89675498D01*
X115943802Y-89669748D01*
X115990297Y-89664999D01*
X116156834Y-89609814D01*
X116306156Y-89517712D01*
X116430212Y-89393656D01*
X116522314Y-89244334D01*
X116577499Y-89077797D01*
X116588000Y-88975009D01*
X116587999Y-88303752D01*
X116607683Y-88236715D01*
X116660487Y-88190960D01*
X116729646Y-88181016D01*
X116793202Y-88210041D01*
X116799680Y-88216073D01*
X118716587Y-90132980D01*
X118807912Y-90185707D01*
X118909773Y-90213000D01*
X119015227Y-90213000D01*
X120466265Y-90213000D01*
X120533304Y-90232685D01*
X120579059Y-90285489D01*
X120589003Y-90354647D01*
X120565070Y-90411924D01*
X120553139Y-90427657D01*
X120497622Y-90568438D01*
X120492785Y-90608721D01*
X120487000Y-90656898D01*
X120487000Y-93593102D01*
X120492626Y-93639954D01*
X120497622Y-93681561D01*
X120497622Y-93681563D01*
X120497623Y-93681564D01*
X120515665Y-93727315D01*
X120553139Y-93822342D01*
X120565070Y-93838076D01*
X120589892Y-93903388D01*
X120575463Y-93971751D01*
X120526365Y-94021462D01*
X120466265Y-94037000D01*
X119054755Y-94037000D01*
X118987716Y-94017315D01*
X118967074Y-94000681D01*
X116770915Y-91804522D01*
X116770913Y-91804520D01*
X116718185Y-91774077D01*
X116679587Y-91751792D01*
X116672084Y-91748685D01*
X116672603Y-91747429D01*
X116620239Y-91715507D01*
X116589714Y-91652658D01*
X116587999Y-91632103D01*
X116587999Y-90649998D01*
X116587998Y-90649981D01*
X116577499Y-90547203D01*
X116577498Y-90547200D01*
X116572227Y-90531293D01*
X116522314Y-90380666D01*
X116430212Y-90231344D01*
X116306156Y-90107288D01*
X116213388Y-90050069D01*
X116156836Y-90015187D01*
X116156831Y-90015185D01*
X116155362Y-90014698D01*
X115990297Y-89960001D01*
X115990295Y-89960000D01*
X115887510Y-89949500D01*
X115062498Y-89949500D01*
X115062480Y-89949501D01*
X114959703Y-89960000D01*
X114959700Y-89960001D01*
X114793168Y-90015185D01*
X114793163Y-90015187D01*
X114643842Y-90107289D01*
X114519789Y-90231342D01*
X114427687Y-90380663D01*
X114427685Y-90380668D01*
X114406352Y-90445047D01*
X114372501Y-90547203D01*
X114372501Y-90547204D01*
X114372500Y-90547204D01*
X114362000Y-90649983D01*
X114362000Y-91600500D01*
X114342315Y-91667539D01*
X114289511Y-91713294D01*
X114238000Y-91724500D01*
X113254752Y-91724500D01*
X113187713Y-91704815D01*
X113141958Y-91652011D01*
X113136821Y-91638818D01*
X113133381Y-91628230D01*
X113093542Y-91505619D01*
X113001509Y-91324995D01*
X112989602Y-91308606D01*
X112882359Y-91160996D01*
X112739003Y-91017640D01*
X112575008Y-90898493D01*
X112575007Y-90898492D01*
X112575005Y-90898491D01*
X112394381Y-90806458D01*
X112201583Y-90743814D01*
X112201581Y-90743813D01*
X112201579Y-90743813D01*
X112061781Y-90721671D01*
X112001359Y-90712101D01*
X111798639Y-90712101D01*
X111752223Y-90719452D01*
X111598418Y-90743813D01*
X111598415Y-90743814D01*
X111454965Y-90790424D01*
X111405614Y-90806459D01*
X111224989Y-90898493D01*
X111060994Y-91017640D01*
X110917638Y-91160996D01*
X110798491Y-91324991D01*
X110706457Y-91505616D01*
X110643811Y-91698420D01*
X110627006Y-91804522D01*
X110612099Y-91898641D01*
X110612099Y-92101361D01*
X110619803Y-92149999D01*
X110643481Y-92299500D01*
X110643812Y-92301585D01*
X110706456Y-92494383D01*
X110798073Y-92674191D01*
X110798491Y-92675010D01*
X110917638Y-92839005D01*
X110966452Y-92887819D01*
X110999937Y-92949142D01*
X110994953Y-93018834D01*
X110953081Y-93074767D01*
X110887617Y-93099184D01*
X110878771Y-93099500D01*
X110617255Y-93099500D01*
X110550216Y-93079815D01*
X110529574Y-93063181D01*
X110112432Y-92646039D01*
X110078947Y-92584716D01*
X110083931Y-92515024D01*
X110089625Y-92502071D01*
X110093543Y-92494383D01*
X110156187Y-92301585D01*
X110187900Y-92101361D01*
X110187900Y-91898641D01*
X110156187Y-91698417D01*
X110093543Y-91505619D01*
X110001510Y-91324995D01*
X109989603Y-91308606D01*
X109882360Y-91160996D01*
X109739004Y-91017640D01*
X109575009Y-90898493D01*
X109575008Y-90898492D01*
X109575006Y-90898491D01*
X109394382Y-90806458D01*
X109201584Y-90743814D01*
X109201582Y-90743813D01*
X109201580Y-90743813D01*
X109061782Y-90721671D01*
X109001360Y-90712101D01*
X108798640Y-90712101D01*
X108752224Y-90719452D01*
X108598419Y-90743813D01*
X108598416Y-90743814D01*
X108454966Y-90790424D01*
X108405615Y-90806459D01*
X108224990Y-90898493D01*
X108060995Y-91017640D01*
X107917639Y-91160996D01*
X107798492Y-91324991D01*
X107706458Y-91505616D01*
X107643812Y-91698420D01*
X107627007Y-91804522D01*
X107612100Y-91898641D01*
X107612100Y-92101361D01*
X107619804Y-92149999D01*
X107643482Y-92299500D01*
X107643813Y-92301585D01*
X107706457Y-92494383D01*
X107798074Y-92674191D01*
X107798492Y-92675010D01*
X107917639Y-92839005D01*
X108060995Y-92982361D01*
X108191659Y-93077292D01*
X108224994Y-93101511D01*
X108405618Y-93193544D01*
X108598416Y-93256188D01*
X108798640Y-93287901D01*
X108798641Y-93287901D01*
X109001359Y-93287901D01*
X109001360Y-93287901D01*
X109201584Y-93256188D01*
X109394382Y-93193544D01*
X109402061Y-93189630D01*
X109470729Y-93176733D01*
X109535471Y-93203007D01*
X109546040Y-93212433D01*
X110154087Y-93820480D01*
X110225830Y-93861901D01*
X110243430Y-93872063D01*
X110245412Y-93873207D01*
X110347273Y-93900500D01*
X110878772Y-93900500D01*
X110945811Y-93920185D01*
X110991566Y-93972989D01*
X111001510Y-94042147D01*
X110972485Y-94105703D01*
X110966453Y-94112181D01*
X110917642Y-94160991D01*
X110917638Y-94160995D01*
X110798491Y-94324990D01*
X110706457Y-94505615D01*
X110706456Y-94505617D01*
X110706456Y-94505618D01*
X110691149Y-94552727D01*
X110643811Y-94698419D01*
X110612099Y-94898640D01*
X110612099Y-95101359D01*
X110642017Y-95290255D01*
X110643812Y-95301584D01*
X110706456Y-95494382D01*
X110789904Y-95658158D01*
X110798491Y-95675009D01*
X110917638Y-95839004D01*
X111060994Y-95982360D01*
X111214455Y-96093854D01*
X111224993Y-96101510D01*
X111405617Y-96193543D01*
X111413811Y-96196205D01*
X111471487Y-96235638D01*
X111498690Y-96299994D01*
X111499499Y-96314138D01*
X111499499Y-96774586D01*
X111479814Y-96841625D01*
X111427010Y-96887380D01*
X111357852Y-96897324D01*
X111294296Y-96868299D01*
X111268112Y-96836587D01*
X111232315Y-96774586D01*
X111220480Y-96754087D01*
X110112432Y-95646039D01*
X110078947Y-95584716D01*
X110083931Y-95515024D01*
X110089624Y-95502071D01*
X110093543Y-95494382D01*
X110156187Y-95301584D01*
X110187900Y-95101360D01*
X110187900Y-94898640D01*
X110156187Y-94698416D01*
X110093543Y-94505618D01*
X110001510Y-94324994D01*
X109983714Y-94300500D01*
X109882360Y-94160995D01*
X109739004Y-94017639D01*
X109575009Y-93898492D01*
X109575008Y-93898491D01*
X109575006Y-93898490D01*
X109394382Y-93806457D01*
X109201584Y-93743813D01*
X109201582Y-93743812D01*
X109201580Y-93743812D01*
X109061782Y-93721670D01*
X109001360Y-93712100D01*
X108798640Y-93712100D01*
X108756945Y-93718704D01*
X108598419Y-93743812D01*
X108405615Y-93806458D01*
X108224990Y-93898492D01*
X108060995Y-94017639D01*
X107917639Y-94160995D01*
X107798492Y-94324990D01*
X107706458Y-94505615D01*
X107706457Y-94505617D01*
X107706457Y-94505618D01*
X107691150Y-94552727D01*
X107643812Y-94698419D01*
X107612100Y-94898640D01*
X107612100Y-95101359D01*
X107642018Y-95290255D01*
X107643813Y-95301584D01*
X107706457Y-95494382D01*
X107789905Y-95658158D01*
X107798492Y-95675009D01*
X107917639Y-95839004D01*
X108060995Y-95982360D01*
X108214456Y-96093854D01*
X108224994Y-96101510D01*
X108405618Y-96193543D01*
X108598416Y-96256187D01*
X108798640Y-96287900D01*
X108798641Y-96287900D01*
X109001359Y-96287900D01*
X109001360Y-96287900D01*
X109201584Y-96256187D01*
X109394382Y-96193543D01*
X109402062Y-96189629D01*
X109470728Y-96176732D01*
X109535470Y-96203006D01*
X109546039Y-96212432D01*
X110463181Y-97129574D01*
X110496666Y-97190897D01*
X110499500Y-97217255D01*
X110499500Y-102552726D01*
X110526793Y-102654589D01*
X110531189Y-102662202D01*
X110579520Y-102745913D01*
X114079519Y-106245912D01*
X114079520Y-106245913D01*
X114154087Y-106320480D01*
X114245413Y-106373207D01*
X114270095Y-106379820D01*
X114329753Y-106416182D01*
X114360284Y-106479028D01*
X114362001Y-106499594D01*
X114362001Y-107475018D01*
X114372500Y-107577796D01*
X114372501Y-107577799D01*
X114405416Y-107677128D01*
X114427686Y-107744334D01*
X114519788Y-107893656D01*
X114643844Y-108017712D01*
X114793166Y-108109814D01*
X114959703Y-108164999D01*
X115062491Y-108175500D01*
X115887508Y-108175499D01*
X115887516Y-108175498D01*
X115887519Y-108175498D01*
X115943802Y-108169748D01*
X115990297Y-108164999D01*
X116156834Y-108109814D01*
X116306156Y-108017712D01*
X116430212Y-107893656D01*
X116522314Y-107744334D01*
X116577499Y-107577797D01*
X116588000Y-107475009D01*
X116587999Y-106803752D01*
X116607683Y-106736715D01*
X116660487Y-106690960D01*
X116729646Y-106681016D01*
X116793202Y-106710041D01*
X116799680Y-106716073D01*
X118479087Y-108395480D01*
X118570412Y-108448207D01*
X118672273Y-108475500D01*
X121975015Y-108475500D01*
X122042054Y-108495185D01*
X122087809Y-108547989D01*
X122093399Y-108562609D01*
X122094022Y-108564606D01*
X122135094Y-108632547D01*
X122182030Y-108710188D01*
X122302311Y-108830469D01*
X122302313Y-108830470D01*
X122302315Y-108830472D01*
X122447894Y-108918478D01*
X122610304Y-108969086D01*
X122680884Y-108975500D01*
X122680887Y-108975500D01*
X123194113Y-108975500D01*
X123194116Y-108975500D01*
X123264696Y-108969086D01*
X123427106Y-108918478D01*
X123572685Y-108830472D01*
X123692972Y-108710185D01*
X123774334Y-108575595D01*
X123825860Y-108528411D01*
X123894719Y-108516572D01*
X123959048Y-108543841D01*
X123979715Y-108565436D01*
X124029955Y-108632547D01*
X124145164Y-108718793D01*
X124145171Y-108718797D01*
X124190118Y-108735561D01*
X124280017Y-108769091D01*
X124339627Y-108775500D01*
X124835372Y-108775499D01*
X124894983Y-108769091D01*
X125029831Y-108718796D01*
X125145046Y-108632546D01*
X125231296Y-108517331D01*
X125281591Y-108382483D01*
X125283875Y-108361243D01*
X125310614Y-108296692D01*
X125368007Y-108256845D01*
X125407164Y-108250500D01*
X142299826Y-108250500D01*
X142299828Y-108250500D01*
X142391897Y-108212364D01*
X143324455Y-107279803D01*
X143324458Y-107279802D01*
X143341896Y-107262364D01*
X143341897Y-107262364D01*
X143412364Y-107191897D01*
X143450500Y-107099828D01*
X143450500Y-102387215D01*
X143470185Y-102320176D01*
X143522989Y-102274421D01*
X143544115Y-102266996D01*
X143550582Y-102265361D01*
X143550585Y-102265359D01*
X143550590Y-102265359D01*
X143684975Y-102212364D01*
X143800078Y-102125078D01*
X143887364Y-102009975D01*
X143940359Y-101875590D01*
X143950500Y-101791144D01*
X143950500Y-101208856D01*
X143940359Y-101124410D01*
X143887364Y-100990025D01*
X143887363Y-100990024D01*
X143887363Y-100990023D01*
X143877120Y-100976516D01*
X143852296Y-100911205D01*
X143866723Y-100842841D01*
X143915821Y-100793129D01*
X143984000Y-100777853D01*
X144049615Y-100801863D01*
X144063604Y-100813909D01*
X144072267Y-100822572D01*
X144072271Y-100822575D01*
X144216507Y-100911542D01*
X144216518Y-100911547D01*
X144377393Y-100964855D01*
X144476683Y-100974999D01*
X145000000Y-100974999D01*
X145023308Y-100974999D01*
X145023322Y-100974998D01*
X145122607Y-100964855D01*
X145283481Y-100911547D01*
X145283492Y-100911542D01*
X145427728Y-100822575D01*
X145427732Y-100822572D01*
X145547572Y-100702732D01*
X145547575Y-100702728D01*
X145636542Y-100558492D01*
X145636547Y-100558481D01*
X145689855Y-100397606D01*
X145699999Y-100298322D01*
X145700000Y-100298309D01*
X145700000Y-100250000D01*
X145000000Y-100250000D01*
X145000000Y-100974999D01*
X144476683Y-100974999D01*
X144500000Y-100974998D01*
X144500000Y-99750000D01*
X145000000Y-99750000D01*
X145699999Y-99750000D01*
X145699999Y-99701692D01*
X145699998Y-99701677D01*
X145689855Y-99602392D01*
X145636547Y-99441518D01*
X145636542Y-99441507D01*
X145547575Y-99297271D01*
X145547572Y-99297267D01*
X145427732Y-99177427D01*
X145427728Y-99177424D01*
X145283492Y-99088457D01*
X145283481Y-99088452D01*
X145122606Y-99035144D01*
X145023322Y-99025000D01*
X145000000Y-99025000D01*
X145000000Y-99750000D01*
X144500000Y-99750000D01*
X144500000Y-99024999D01*
X144476693Y-99025000D01*
X144476674Y-99025001D01*
X144377392Y-99035144D01*
X144216518Y-99088452D01*
X144216507Y-99088457D01*
X144072271Y-99177424D01*
X144072267Y-99177427D01*
X143952427Y-99297267D01*
X143952422Y-99297273D01*
X143942914Y-99312688D01*
X143890964Y-99359410D01*
X143822001Y-99370629D01*
X143762454Y-99346390D01*
X143684976Y-99287636D01*
X143637930Y-99269083D01*
X143550590Y-99234641D01*
X143550587Y-99234640D01*
X143550578Y-99234637D01*
X143544107Y-99233001D01*
X143483937Y-99197485D01*
X143452520Y-99135077D01*
X143450500Y-99112784D01*
X143450500Y-95455121D01*
X143470185Y-95388082D01*
X143486815Y-95367444D01*
X143834455Y-95019803D01*
X143834458Y-95019802D01*
X143851896Y-95002364D01*
X143851897Y-95002364D01*
X143922364Y-94931897D01*
X143960500Y-94839828D01*
X143960500Y-93340172D01*
X143922364Y-93248103D01*
X143851897Y-93177636D01*
X143361896Y-92687635D01*
X143269828Y-92649499D01*
X143269827Y-92649499D01*
X143124000Y-92649499D01*
X143056961Y-92629814D01*
X143011206Y-92577010D01*
X143006811Y-92556810D01*
X143000000Y-92549999D01*
X141874000Y-92549999D01*
X141806961Y-92530314D01*
X141761206Y-92477510D01*
X141750000Y-92425999D01*
X141750000Y-92374001D01*
X141769685Y-92306962D01*
X141822489Y-92261207D01*
X141874000Y-92250001D01*
X143000000Y-92250001D01*
X143000000Y-92202172D01*
X142999999Y-92202158D01*
X142993193Y-92138860D01*
X143005597Y-92070100D01*
X143053207Y-92018962D01*
X143084388Y-92005828D01*
X143097584Y-92002293D01*
X143188910Y-91949566D01*
X143263477Y-91874999D01*
X143316204Y-91783673D01*
X143343497Y-91681813D01*
X143343497Y-91576359D01*
X143316204Y-91474499D01*
X143263477Y-91383173D01*
X143188910Y-91308606D01*
X143097584Y-91255879D01*
X143088758Y-91253514D01*
X143029099Y-91217150D01*
X142998570Y-91154303D01*
X142997564Y-91120480D01*
X142999999Y-91097834D01*
X143000000Y-91097827D01*
X143000000Y-91049999D01*
X141874000Y-91049999D01*
X141806961Y-91030314D01*
X141761206Y-90977510D01*
X141750000Y-90925999D01*
X141750000Y-90874001D01*
X141769685Y-90806962D01*
X141822489Y-90761207D01*
X141874000Y-90750001D01*
X143000000Y-90750001D01*
X143000000Y-90724499D01*
X143019685Y-90657460D01*
X143072489Y-90611705D01*
X143124000Y-90600499D01*
X143600132Y-90600499D01*
X143667171Y-90620184D01*
X143697757Y-90652259D01*
X143699577Y-90650864D01*
X143704527Y-90657315D01*
X146063181Y-93015969D01*
X146096666Y-93077292D01*
X146099500Y-93103650D01*
X146099500Y-103665892D01*
X146133608Y-103793188D01*
X146151687Y-103824501D01*
X146199500Y-103907315D01*
X146849500Y-104557315D01*
X146942686Y-104650501D01*
X147041521Y-104707564D01*
X147049059Y-104711916D01*
X147056814Y-104716393D01*
X147184108Y-104750501D01*
X147384774Y-104750501D01*
X147451813Y-104770186D01*
X147472455Y-104786820D01*
X147491897Y-104806262D01*
X147516597Y-104841537D01*
X147539385Y-104890405D01*
X147623046Y-104974066D01*
X147730277Y-105024069D01*
X147764133Y-105028526D01*
X147780012Y-105031684D01*
X147887557Y-105060501D01*
X147887558Y-105060501D01*
X147926000Y-105060501D01*
X147993039Y-105080186D01*
X148038794Y-105132990D01*
X148050000Y-105184501D01*
X148050000Y-109575500D01*
X148030315Y-109642539D01*
X147977511Y-109688294D01*
X147926000Y-109699500D01*
X101504428Y-109699500D01*
X101495582Y-109699184D01*
X101266980Y-109682834D01*
X101249468Y-109680316D01*
X101029865Y-109632545D01*
X101012889Y-109627561D01*
X100802308Y-109549018D01*
X100786215Y-109541668D01*
X100588963Y-109433960D01*
X100574080Y-109424395D01*
X100394163Y-109289711D01*
X100380792Y-109278125D01*
X100221874Y-109119207D01*
X100210288Y-109105836D01*
X100075604Y-108925919D01*
X100066039Y-108911036D01*
X99992030Y-108775499D01*
X99958328Y-108713778D01*
X99950984Y-108697698D01*
X99872435Y-108487102D01*
X99867456Y-108470143D01*
X99819682Y-108250525D01*
X99817165Y-108233019D01*
X99813051Y-108175500D01*
X99800816Y-108004418D01*
X99800500Y-107995572D01*
X99800500Y-106131995D01*
X101949500Y-106131995D01*
X101949500Y-106368004D01*
X101949501Y-106368020D01*
X101971855Y-106537819D01*
X101980307Y-106602014D01*
X102001476Y-106681016D01*
X102041394Y-106829993D01*
X102131714Y-107048045D01*
X102131719Y-107048056D01*
X102185898Y-107141895D01*
X102249727Y-107252450D01*
X102249729Y-107252453D01*
X102249730Y-107252454D01*
X102393406Y-107439697D01*
X102393412Y-107439704D01*
X102560295Y-107606587D01*
X102560302Y-107606593D01*
X102652073Y-107677011D01*
X102747550Y-107750273D01*
X102878918Y-107826118D01*
X102951943Y-107868280D01*
X102951948Y-107868282D01*
X102951951Y-107868284D01*
X103170007Y-107958606D01*
X103397986Y-108019693D01*
X103631989Y-108050500D01*
X103631996Y-108050500D01*
X103868004Y-108050500D01*
X103868011Y-108050500D01*
X104102014Y-108019693D01*
X104329993Y-107958606D01*
X104548049Y-107868284D01*
X104752450Y-107750273D01*
X104939699Y-107606592D01*
X105106592Y-107439699D01*
X105250273Y-107252450D01*
X105368284Y-107048049D01*
X105458606Y-106829993D01*
X105519693Y-106602014D01*
X105550500Y-106368011D01*
X105550500Y-106170943D01*
X107399500Y-106170943D01*
X107399500Y-106329057D01*
X107429364Y-106440509D01*
X107440423Y-106481783D01*
X107440426Y-106481790D01*
X107519475Y-106618709D01*
X107519479Y-106618714D01*
X107519480Y-106618716D01*
X107631284Y-106730520D01*
X107631286Y-106730521D01*
X107631290Y-106730524D01*
X107758130Y-106803754D01*
X107768216Y-106809577D01*
X107920943Y-106850500D01*
X107920945Y-106850500D01*
X108079055Y-106850500D01*
X108079057Y-106850500D01*
X108231784Y-106809577D01*
X108368716Y-106730520D01*
X108480520Y-106618716D01*
X108559577Y-106481784D01*
X108600500Y-106329057D01*
X108600500Y-106170943D01*
X108559577Y-106018216D01*
X108508532Y-105929802D01*
X108480524Y-105881290D01*
X108480518Y-105881282D01*
X108368717Y-105769481D01*
X108368709Y-105769475D01*
X108231790Y-105690426D01*
X108231786Y-105690424D01*
X108231784Y-105690423D01*
X108079057Y-105649500D01*
X107920943Y-105649500D01*
X107768216Y-105690423D01*
X107768209Y-105690426D01*
X107631290Y-105769475D01*
X107631282Y-105769481D01*
X107519481Y-105881282D01*
X107519475Y-105881290D01*
X107440426Y-106018209D01*
X107440423Y-106018216D01*
X107399500Y-106170943D01*
X105550500Y-106170943D01*
X105550500Y-106131989D01*
X105519693Y-105897986D01*
X105458606Y-105670007D01*
X105368284Y-105451951D01*
X105368282Y-105451948D01*
X105368280Y-105451943D01*
X105280456Y-105299829D01*
X105250273Y-105247550D01*
X105184564Y-105161916D01*
X105106593Y-105060302D01*
X105106587Y-105060295D01*
X104939704Y-104893412D01*
X104939697Y-104893406D01*
X104752454Y-104749730D01*
X104752453Y-104749729D01*
X104752450Y-104749727D01*
X104659806Y-104696239D01*
X104548056Y-104631719D01*
X104548045Y-104631714D01*
X104329993Y-104541394D01*
X104294554Y-104531898D01*
X104102014Y-104480307D01*
X104102013Y-104480306D01*
X104102010Y-104480306D01*
X103868020Y-104449501D01*
X103868017Y-104449500D01*
X103868011Y-104449500D01*
X103631989Y-104449500D01*
X103631983Y-104449500D01*
X103631979Y-104449501D01*
X103397989Y-104480306D01*
X103170006Y-104541394D01*
X102951954Y-104631714D01*
X102951943Y-104631719D01*
X102747545Y-104749730D01*
X102560302Y-104893406D01*
X102560295Y-104893412D01*
X102393412Y-105060295D01*
X102393406Y-105060302D01*
X102249730Y-105247545D01*
X102131719Y-105451943D01*
X102131714Y-105451954D01*
X102041394Y-105670006D01*
X101980306Y-105897989D01*
X101949501Y-106131979D01*
X101949500Y-106131995D01*
X99800500Y-106131995D01*
X99800500Y-92736963D01*
X102855498Y-92736963D01*
X102855498Y-92963038D01*
X102876332Y-93121280D01*
X102885005Y-93187156D01*
X102943513Y-93405513D01*
X103030023Y-93614364D01*
X103030025Y-93614369D01*
X103030028Y-93614374D01*
X103143051Y-93810136D01*
X103280666Y-93989480D01*
X103280672Y-93989487D01*
X103440511Y-94149326D01*
X103440518Y-94149332D01*
X103619862Y-94286947D01*
X103815624Y-94399970D01*
X103815626Y-94399970D01*
X103815635Y-94399976D01*
X104024486Y-94486486D01*
X104242843Y-94544994D01*
X104466968Y-94574501D01*
X104466975Y-94574501D01*
X104693021Y-94574501D01*
X104693028Y-94574501D01*
X104917153Y-94544994D01*
X105135510Y-94486486D01*
X105344361Y-94399976D01*
X105540134Y-94286947D01*
X105719479Y-94149331D01*
X105879328Y-93989482D01*
X106016944Y-93810137D01*
X106129973Y-93614364D01*
X106216483Y-93405513D01*
X106274991Y-93187156D01*
X106304498Y-92963031D01*
X106304498Y-92736971D01*
X106274991Y-92512846D01*
X106216483Y-92294489D01*
X106129973Y-92085638D01*
X106129321Y-92084509D01*
X106016944Y-91889865D01*
X105879329Y-91710521D01*
X105879323Y-91710514D01*
X105719484Y-91550675D01*
X105719477Y-91550669D01*
X105540133Y-91413054D01*
X105344371Y-91300031D01*
X105344366Y-91300028D01*
X105344361Y-91300026D01*
X105135510Y-91213516D01*
X104917153Y-91155008D01*
X104879106Y-91149999D01*
X104693035Y-91125501D01*
X104693028Y-91125501D01*
X104466968Y-91125501D01*
X104466960Y-91125501D01*
X104253633Y-91153587D01*
X104242843Y-91155008D01*
X104180293Y-91171768D01*
X104024492Y-91213514D01*
X104024488Y-91213515D01*
X104024486Y-91213516D01*
X103815635Y-91300026D01*
X103815632Y-91300027D01*
X103815624Y-91300031D01*
X103619862Y-91413054D01*
X103440518Y-91550669D01*
X103440511Y-91550675D01*
X103280672Y-91710514D01*
X103280666Y-91710521D01*
X103143051Y-91889865D01*
X103030028Y-92085627D01*
X103030024Y-92085635D01*
X103030023Y-92085638D01*
X102970121Y-92230252D01*
X102943516Y-92294482D01*
X102943511Y-92294495D01*
X102922208Y-92374001D01*
X102889953Y-92494382D01*
X102885006Y-92512843D01*
X102885004Y-92512854D01*
X102855498Y-92736963D01*
X99800500Y-92736963D01*
X99800500Y-88898681D01*
X107612600Y-88898681D01*
X107612600Y-89101322D01*
X107644299Y-89301465D01*
X107706921Y-89494194D01*
X107798916Y-89674746D01*
X107829545Y-89716901D01*
X107829546Y-89716902D01*
X108389765Y-89156682D01*
X108402950Y-89205887D01*
X108473174Y-89327517D01*
X108572485Y-89426828D01*
X108694115Y-89497052D01*
X108743319Y-89510236D01*
X108183099Y-90070455D01*
X108183099Y-90070456D01*
X108225254Y-90101084D01*
X108405807Y-90193080D01*
X108598536Y-90255702D01*
X108598535Y-90255702D01*
X108798680Y-90287402D01*
X109001320Y-90287402D01*
X109201463Y-90255702D01*
X109394192Y-90193080D01*
X109574747Y-90101083D01*
X109574751Y-90101081D01*
X109616899Y-90070456D01*
X109616900Y-90070456D01*
X109056680Y-89510236D01*
X109105885Y-89497052D01*
X109227515Y-89426828D01*
X109326826Y-89327517D01*
X109397050Y-89205887D01*
X109410234Y-89156682D01*
X109970453Y-89716902D01*
X109970454Y-89716901D01*
X110001079Y-89674753D01*
X110001081Y-89674749D01*
X110093078Y-89494194D01*
X110155700Y-89301465D01*
X110187400Y-89101322D01*
X110187400Y-88898681D01*
X110155700Y-88698538D01*
X110093078Y-88505809D01*
X110001082Y-88325256D01*
X109970453Y-88283101D01*
X109410233Y-88843320D01*
X109397050Y-88794117D01*
X109326826Y-88672487D01*
X109227515Y-88573176D01*
X109105885Y-88502952D01*
X109056680Y-88489767D01*
X109616900Y-87929548D01*
X109616899Y-87929547D01*
X109574744Y-87898918D01*
X109394192Y-87806923D01*
X109201463Y-87744301D01*
X109201464Y-87744301D01*
X109001320Y-87712602D01*
X108798680Y-87712602D01*
X108598536Y-87744301D01*
X108405807Y-87806923D01*
X108225250Y-87898921D01*
X108183099Y-87929546D01*
X108183098Y-87929547D01*
X108743319Y-88489767D01*
X108694115Y-88502952D01*
X108572485Y-88573176D01*
X108473174Y-88672487D01*
X108402950Y-88794117D01*
X108389766Y-88843321D01*
X107829545Y-88283100D01*
X107829544Y-88283101D01*
X107798919Y-88325252D01*
X107706921Y-88505809D01*
X107644299Y-88698538D01*
X107612600Y-88898681D01*
X99800500Y-88898681D01*
X99800500Y-85898681D01*
X107612600Y-85898681D01*
X107612600Y-86101322D01*
X107644299Y-86301465D01*
X107706921Y-86494194D01*
X107798916Y-86674746D01*
X107829545Y-86716901D01*
X107829546Y-86716902D01*
X108389765Y-86156682D01*
X108402950Y-86205887D01*
X108473174Y-86327517D01*
X108572485Y-86426828D01*
X108694115Y-86497052D01*
X108743319Y-86510236D01*
X108183099Y-87070455D01*
X108183099Y-87070456D01*
X108225254Y-87101084D01*
X108405807Y-87193080D01*
X108598536Y-87255702D01*
X108598535Y-87255702D01*
X108798680Y-87287402D01*
X109001320Y-87287402D01*
X109201463Y-87255702D01*
X109394192Y-87193080D01*
X109574747Y-87101083D01*
X109574751Y-87101081D01*
X109616899Y-87070456D01*
X109616900Y-87070456D01*
X109056680Y-86510236D01*
X109105885Y-86497052D01*
X109227515Y-86426828D01*
X109326826Y-86327517D01*
X109397050Y-86205887D01*
X109410234Y-86156682D01*
X109970453Y-86716902D01*
X109970454Y-86716901D01*
X110001079Y-86674753D01*
X110001081Y-86674749D01*
X110093078Y-86494194D01*
X110155700Y-86301465D01*
X110187400Y-86101322D01*
X110187400Y-85898681D01*
X110155700Y-85698538D01*
X110093078Y-85505809D01*
X110001082Y-85325256D01*
X109970453Y-85283101D01*
X109410233Y-85843320D01*
X109397050Y-85794117D01*
X109326826Y-85672487D01*
X109227515Y-85573176D01*
X109105885Y-85502952D01*
X109056680Y-85489767D01*
X109616900Y-84929548D01*
X109616899Y-84929547D01*
X109574744Y-84898918D01*
X109394192Y-84806923D01*
X109201463Y-84744301D01*
X109201464Y-84744301D01*
X109001320Y-84712602D01*
X108798680Y-84712602D01*
X108598536Y-84744301D01*
X108405807Y-84806923D01*
X108225250Y-84898921D01*
X108183099Y-84929546D01*
X108183098Y-84929547D01*
X108743319Y-85489767D01*
X108694115Y-85502952D01*
X108572485Y-85573176D01*
X108473174Y-85672487D01*
X108402950Y-85794117D01*
X108389766Y-85843321D01*
X107829545Y-85283100D01*
X107829544Y-85283101D01*
X107798919Y-85325252D01*
X107706921Y-85505809D01*
X107644299Y-85698538D01*
X107612600Y-85898681D01*
X99800500Y-85898681D01*
X99800500Y-82036965D01*
X102855498Y-82036965D01*
X102855498Y-82263040D01*
X102874389Y-82406524D01*
X102885005Y-82487158D01*
X102915332Y-82600342D01*
X102942852Y-82703050D01*
X102943513Y-82705515D01*
X103030023Y-82914366D01*
X103030025Y-82914371D01*
X103030028Y-82914376D01*
X103143051Y-83110138D01*
X103280666Y-83289482D01*
X103280672Y-83289489D01*
X103440511Y-83449328D01*
X103440518Y-83449334D01*
X103619862Y-83586949D01*
X103815624Y-83699972D01*
X103815626Y-83699972D01*
X103815635Y-83699978D01*
X104024486Y-83786488D01*
X104242843Y-83844996D01*
X104466968Y-83874503D01*
X104466975Y-83874503D01*
X104693021Y-83874503D01*
X104693028Y-83874503D01*
X104917153Y-83844996D01*
X105135510Y-83786488D01*
X105344361Y-83699978D01*
X105540134Y-83586949D01*
X105719479Y-83449333D01*
X105879328Y-83289484D01*
X106016944Y-83110139D01*
X106129973Y-82914366D01*
X106216483Y-82705515D01*
X106274991Y-82487158D01*
X106304498Y-82263033D01*
X106304498Y-82036973D01*
X106274991Y-81812848D01*
X106216483Y-81594491D01*
X106129973Y-81385640D01*
X106107504Y-81346723D01*
X106016944Y-81189867D01*
X105879329Y-81010523D01*
X105879323Y-81010516D01*
X105719484Y-80850677D01*
X105719477Y-80850671D01*
X105540133Y-80713056D01*
X105344371Y-80600033D01*
X105344366Y-80600030D01*
X105344361Y-80600028D01*
X105135510Y-80513518D01*
X105117256Y-80508627D01*
X105089355Y-80501151D01*
X104917153Y-80455010D01*
X104872901Y-80449184D01*
X104693035Y-80425503D01*
X104693028Y-80425503D01*
X104466968Y-80425503D01*
X104466960Y-80425503D01*
X104253633Y-80453589D01*
X104242843Y-80455010D01*
X104177412Y-80472542D01*
X104024492Y-80513516D01*
X104024488Y-80513517D01*
X104024486Y-80513518D01*
X103815635Y-80600028D01*
X103815632Y-80600029D01*
X103815624Y-80600033D01*
X103619862Y-80713056D01*
X103440518Y-80850671D01*
X103440511Y-80850677D01*
X103280672Y-81010516D01*
X103280666Y-81010523D01*
X103143051Y-81189867D01*
X103030028Y-81385629D01*
X103030024Y-81385637D01*
X103030023Y-81385640D01*
X102943516Y-81594484D01*
X102943511Y-81594497D01*
X102913668Y-81705875D01*
X102885201Y-81812119D01*
X102885006Y-81812845D01*
X102885004Y-81812856D01*
X102855498Y-82036965D01*
X99800500Y-82036965D01*
X99800500Y-68631995D01*
X101949500Y-68631995D01*
X101949500Y-68868004D01*
X101949501Y-68868020D01*
X101980306Y-69102010D01*
X102041392Y-69329986D01*
X102041392Y-69329989D01*
X102131714Y-69548045D01*
X102131719Y-69548056D01*
X102202677Y-69670957D01*
X102249727Y-69752450D01*
X102249729Y-69752453D01*
X102249730Y-69752454D01*
X102393406Y-69939697D01*
X102393412Y-69939704D01*
X102560295Y-70106587D01*
X102560302Y-70106593D01*
X102619052Y-70151673D01*
X102747550Y-70250273D01*
X102878918Y-70326118D01*
X102951943Y-70368280D01*
X102951948Y-70368282D01*
X102951951Y-70368284D01*
X103170007Y-70458606D01*
X103397986Y-70519693D01*
X103631989Y-70550500D01*
X103631996Y-70550500D01*
X103868004Y-70550500D01*
X103868011Y-70550500D01*
X104102014Y-70519693D01*
X104329993Y-70458606D01*
X104548049Y-70368284D01*
X104752450Y-70250273D01*
X104939699Y-70106592D01*
X105106592Y-69939699D01*
X105250273Y-69752450D01*
X105368284Y-69548049D01*
X105458606Y-69329993D01*
X105519693Y-69102014D01*
X105550500Y-68868011D01*
X105550500Y-68670943D01*
X107399500Y-68670943D01*
X107399500Y-68829057D01*
X107432982Y-68954011D01*
X107440423Y-68981783D01*
X107440426Y-68981790D01*
X107519475Y-69118709D01*
X107519479Y-69118714D01*
X107519480Y-69118716D01*
X107631284Y-69230520D01*
X107631286Y-69230521D01*
X107631290Y-69230524D01*
X107753003Y-69300794D01*
X107768216Y-69309577D01*
X107920943Y-69350500D01*
X107920945Y-69350500D01*
X108079055Y-69350500D01*
X108079057Y-69350500D01*
X108231784Y-69309577D01*
X108368716Y-69230520D01*
X108480520Y-69118716D01*
X108559577Y-68981784D01*
X108600500Y-68829057D01*
X108600500Y-68670943D01*
X108559577Y-68518216D01*
X108554977Y-68510248D01*
X108480524Y-68381290D01*
X108480518Y-68381282D01*
X108368717Y-68269481D01*
X108368709Y-68269475D01*
X108231790Y-68190426D01*
X108231786Y-68190424D01*
X108231784Y-68190423D01*
X108079057Y-68149500D01*
X107920943Y-68149500D01*
X107768216Y-68190423D01*
X107768209Y-68190426D01*
X107631290Y-68269475D01*
X107631282Y-68269481D01*
X107519481Y-68381282D01*
X107519475Y-68381290D01*
X107440426Y-68518209D01*
X107440424Y-68518214D01*
X107440423Y-68518216D01*
X107399500Y-68670943D01*
X105550500Y-68670943D01*
X105550500Y-68631989D01*
X105519693Y-68397986D01*
X105458606Y-68170007D01*
X105368284Y-67951951D01*
X105368282Y-67951948D01*
X105368280Y-67951943D01*
X105307072Y-67845929D01*
X105250273Y-67747550D01*
X105131040Y-67592162D01*
X105106593Y-67560302D01*
X105106587Y-67560295D01*
X104939704Y-67393412D01*
X104939697Y-67393406D01*
X104752454Y-67249730D01*
X104752453Y-67249729D01*
X104752450Y-67249727D01*
X104639822Y-67184701D01*
X104548056Y-67131719D01*
X104548045Y-67131714D01*
X104329993Y-67041394D01*
X104102010Y-66980306D01*
X103868020Y-66949501D01*
X103868017Y-66949500D01*
X103868011Y-66949500D01*
X103631989Y-66949500D01*
X103631983Y-66949500D01*
X103631979Y-66949501D01*
X103397989Y-66980306D01*
X103170006Y-67041394D01*
X102951954Y-67131714D01*
X102951943Y-67131719D01*
X102747545Y-67249730D01*
X102560302Y-67393406D01*
X102560295Y-67393412D01*
X102393412Y-67560295D01*
X102393406Y-67560302D01*
X102249730Y-67747545D01*
X102131719Y-67951943D01*
X102131714Y-67951954D01*
X102041394Y-68170006D01*
X101980306Y-68397989D01*
X101949501Y-68631979D01*
X101949500Y-68631995D01*
X99800500Y-68631995D01*
X99800500Y-67004427D01*
X99800816Y-66995581D01*
X99801908Y-66980307D01*
X99817165Y-66766973D01*
X99819681Y-66749476D01*
X99867457Y-66529852D01*
X99872434Y-66512901D01*
X99950986Y-66302295D01*
X99958325Y-66286226D01*
X100066043Y-66088955D01*
X100075599Y-66074086D01*
X100210293Y-65894156D01*
X100221867Y-65880799D01*
X100380799Y-65721867D01*
X100394156Y-65710293D01*
X100574086Y-65575599D01*
X100588955Y-65566043D01*
X100786226Y-65458325D01*
X100802295Y-65450986D01*
X101012901Y-65372434D01*
X101029852Y-65367457D01*
X101249476Y-65319681D01*
X101266973Y-65317165D01*
X101495582Y-65300816D01*
X101504428Y-65300500D01*
X101547594Y-65300500D01*
X174452406Y-65300500D01*
X174495572Y-65300500D01*
X174504418Y-65300816D01*
G37*
%TD.AperFunction*%
%TA.AperFunction,Conductor*%
G36*
X147448851Y-86606450D02*
G01*
X147504784Y-86648322D01*
X147517899Y-86670227D01*
X147520130Y-86675011D01*
X147535935Y-86708905D01*
X147619596Y-86792566D01*
X147726827Y-86842569D01*
X147760683Y-86847026D01*
X147776562Y-86850184D01*
X147884107Y-86879001D01*
X147884108Y-86879001D01*
X147926000Y-86879001D01*
X147993039Y-86898686D01*
X148038794Y-86951490D01*
X148050000Y-87003001D01*
X148050000Y-102915501D01*
X148030315Y-102982540D01*
X147977511Y-103028295D01*
X147926000Y-103039501D01*
X147887557Y-103039501D01*
X147802234Y-103062363D01*
X147802225Y-103062365D01*
X147780016Y-103068314D01*
X147764124Y-103071475D01*
X147730279Y-103075932D01*
X147730274Y-103075933D01*
X147626904Y-103124136D01*
X147557827Y-103134628D01*
X147494043Y-103106108D01*
X147455804Y-103047631D01*
X147450500Y-103011754D01*
X147450500Y-92634110D01*
X147450500Y-92634108D01*
X147416392Y-92506814D01*
X147350500Y-92392686D01*
X147257314Y-92299500D01*
X144542981Y-89585167D01*
X144509496Y-89523844D01*
X144514480Y-89454152D01*
X144542979Y-89409807D01*
X147317838Y-86634949D01*
X147379159Y-86601466D01*
X147448851Y-86606450D01*
G37*
%TD.AperFunction*%
%TD*%
M02*
