M48
; DRILL file KiCad 10.0.5-unknown-202607221313~667fa36054~ubuntu25.10.1 date 2026-10-06T14:23:27
; FORMAT={-:-/ absolute / metric / decimal}
; #@! TF.CreationDate,2026-10-06T14:23:27+00:00
; #@! TF.GenerationSoftware,Kicad,Pcbnew,10.0.5-unknown-202607221313~667fa36054~ubuntu25.10.1
; #@! TF.FileFunction,Plated,1,4,PTH
FMAT,2
METRIC
; #@! TA.AperFunction,Plated,PTH,ViaDrill
T1C0.200
; #@! TA.AperFunction,Plated,PTH,ComponentDrill
T2C0.203
; #@! TA.AperFunction,Plated,PTH,ViaDrill
T3C0.300
; #@! TA.AperFunction,Plated,PTH,ComponentDrill
T4C1.067
; #@! TA.AperFunction,Plated,PTH,ComponentDrill
T5C2.464
%
G90
G05
T1
X143.25Y-91.0
X143.47Y-88.069
X143.736Y-91.497
X143.894Y-87.645
X144.16Y-91.921
X144.318Y-87.221
X144.35Y-92.421
X144.35Y-93.021
X144.35Y-93.621
X144.35Y-94.221
X144.45Y-85.497
X144.45Y-86.097
X144.45Y-86.697
X144.546Y-89.614
X144.597Y-94.94
X144.684Y-84.772
X144.954Y-90.093
X144.971Y-89.19
X145.021Y-95.364
X145.108Y-84.348
X145.378Y-90.517
X145.395Y-88.766
X145.445Y-95.789
X145.533Y-83.924
X145.802Y-90.942
X145.819Y-88.342
X145.869Y-96.213
X146.25Y-91.777
X146.25Y-92.377
X146.25Y-92.977
X146.25Y-93.577
X146.35Y-86.14
X146.35Y-86.74
X146.35Y-87.34
X146.427Y-94.083
X146.514Y-85.629
T2
X132.8Y-86.9
X132.8Y-88.2
X132.8Y-89.5
X132.8Y-90.8
X132.8Y-92.1
X132.8Y-93.4
X134.1Y-86.9
X134.1Y-88.2
X134.1Y-89.5
X134.1Y-90.8
X134.1Y-92.1
X134.1Y-93.4
X135.4Y-86.9
X135.4Y-88.2
X135.4Y-89.5
X135.4Y-90.8
X135.4Y-92.1
X135.4Y-93.4
X136.7Y-86.9
X136.7Y-88.2
X136.7Y-89.5
X136.7Y-90.8
X136.7Y-92.1
X136.7Y-93.4
X138.0Y-86.9
X138.0Y-88.2
X138.0Y-89.5
X138.0Y-90.8
X138.0Y-92.1
X138.0Y-93.4
X139.3Y-86.9
X139.3Y-88.2
X139.3Y-89.5
X139.3Y-90.8
X139.3Y-92.1
X139.3Y-93.4
T3
X131.717Y-97.846
X131.75Y-99.0
X133.25Y-99.0
X134.75Y-99.0
X136.741Y-98.925
X137.995Y-98.989
X139.55Y-98.927
X140.75Y-99.0
X143.1Y-93.7
T4
X107.0Y-80.0
X107.0Y-83.0
X107.0Y-86.0
X107.0Y-89.0
X107.0Y-92.0
X107.0Y-95.0
X110.0Y-80.0
X110.0Y-83.0
X110.0Y-86.0
X110.0Y-89.0
X110.0Y-92.0
X110.0Y-95.0
X148.409Y-67.933
X148.409Y-70.93
X151.406Y-67.933
X151.406Y-70.93
X154.403Y-67.933
X154.403Y-70.93
X157.4Y-67.933
X157.4Y-70.93
X160.397Y-67.933
X160.397Y-70.93
X170.75Y-83.0
X170.75Y-86.0
X170.75Y-94.0
X170.75Y-97.0
T5
X146.25Y-69.432
X162.556Y-69.432
M30
