%TF.GenerationSoftware,KiCad,Pcbnew,10.0.5-unknown-202607221313~667fa36054~ubuntu25.10.1*%
%TF.CreationDate,Date%
%TF.ProjectId,bms_slave,626d735f-736c-4617-9665-2e6b69636164,+ (Unreleased)*%
%TF.SameCoordinates,Original*%
%TF.FileFunction,Copper,L1,Top*%
%TF.FilePolarity,Positive*%
%FSLAX46Y46*%
G04 Gerber Fmt 4.6, Leading zero omitted, Abs format (unit mm)*
G04 Created by KiCad*
%MOMM*%
%LPD*%
G01*
G04 APERTURE LIST*
G04 Aperture macros list*
%AMRoundRect*
0 Rectangle with rounded corners*
0 $1 Rounding radius*
0 $2 $3 $4 $5 $6 $7 $8 $9 X,Y pos of 4 corners*
0 Add a 4 corners polygon primitive as box body*
4,1,4,$2,$3,$4,$5,$6,$7,$8,$9,$2,$3,0*
0 Add four circle primitives for the rounded corners*
1,1,$1+$1,$2,$3*
1,1,$1+$1,$4,$5*
1,1,$1+$1,$6,$7*
1,1,$1+$1,$8,$9*
0 Add four rect primitives between the rounded corners*
20,1,$1+$1,$2,$3,$4,$5,0*
20,1,$1+$1,$4,$5,$6,$7,0*
20,1,$1+$1,$6,$7,$8,$9,0*
20,1,$1+$1,$8,$9,$2,$3,0*%
G04 Aperture macros list end*
%TA.AperFunction,SMDPad,CuDef*%
%ADD10RoundRect,0.200000X-0.200000X-0.275000X0.200000X-0.275000X0.200000X0.275000X-0.200000X0.275000X0*%
%TD*%
%TA.AperFunction,SMDPad,CuDef*%
%ADD11RoundRect,0.135000X-0.185000X0.135000X-0.185000X-0.135000X0.185000X-0.135000X0.185000X0.135000X0*%
%TD*%
%TA.AperFunction,SMDPad,CuDef*%
%ADD12RoundRect,0.250000X-0.362500X-1.425000X0.362500X-1.425000X0.362500X1.425000X-0.362500X1.425000X0*%
%TD*%
%TA.AperFunction,SMDPad,CuDef*%
%ADD13RoundRect,0.140000X0.170000X-0.140000X0.170000X0.140000X-0.170000X0.140000X-0.170000X-0.140000X0*%
%TD*%
%TA.AperFunction,SMDPad,CuDef*%
%ADD14RoundRect,0.225000X0.225000X0.250000X-0.225000X0.250000X-0.225000X-0.250000X0.225000X-0.250000X0*%
%TD*%
%TA.AperFunction,SMDPad,CuDef*%
%ADD15R,0.304800X0.609600*%
%TD*%
%TA.AperFunction,SMDPad,CuDef*%
%ADD16RoundRect,0.140000X-0.140000X-0.170000X0.140000X-0.170000X0.140000X0.170000X-0.140000X0.170000X0*%
%TD*%
%TA.AperFunction,SMDPad,CuDef*%
%ADD17RoundRect,0.140000X0.140000X0.170000X-0.140000X0.170000X-0.140000X-0.170000X0.140000X-0.170000X0*%
%TD*%
%TA.AperFunction,SMDPad,CuDef*%
%ADD18RoundRect,0.200000X0.275000X-0.200000X0.275000X0.200000X-0.275000X0.200000X-0.275000X-0.200000X0*%
%TD*%
%TA.AperFunction,SMDPad,CuDef*%
%ADD19C,0.500000*%
%TD*%
%TA.AperFunction,ComponentPad*%
%ADD20C,1.574800*%
%TD*%
%TA.AperFunction,SMDPad,CuDef*%
%ADD21C,2.000000*%
%TD*%
%TA.AperFunction,SMDPad,CuDef*%
%ADD22R,0.901700X0.482600*%
%TD*%
%TA.AperFunction,SMDPad,CuDef*%
%ADD23RoundRect,0.250000X0.650000X-0.325000X0.650000X0.325000X-0.650000X0.325000X-0.650000X-0.325000X0*%
%TD*%
%TA.AperFunction,SMDPad,CuDef*%
%ADD24RoundRect,0.218750X0.218750X0.256250X-0.218750X0.256250X-0.218750X-0.256250X0.218750X-0.256250X0*%
%TD*%
%TA.AperFunction,SMDPad,CuDef*%
%ADD25R,1.308100X0.685800*%
%TD*%
%TA.AperFunction,SMDPad,CuDef*%
%ADD26RoundRect,0.225000X-0.225000X-0.250000X0.225000X-0.250000X0.225000X0.250000X-0.225000X0.250000X0*%
%TD*%
%TA.AperFunction,SMDPad,CuDef*%
%ADD27RoundRect,0.250000X0.250000X0.475000X-0.250000X0.475000X-0.250000X-0.475000X0.250000X-0.475000X0*%
%TD*%
%TA.AperFunction,SMDPad,CuDef*%
%ADD28RoundRect,0.250000X0.312500X1.075000X-0.312500X1.075000X-0.312500X-1.075000X0.312500X-1.075000X0*%
%TD*%
%TA.AperFunction,SMDPad,CuDef*%
%ADD29RoundRect,0.135000X-0.135000X-0.185000X0.135000X-0.185000X0.135000X0.185000X-0.135000X0.185000X0*%
%TD*%
%TA.AperFunction,SMDPad,CuDef*%
%ADD30RoundRect,0.250000X-0.250000X-0.475000X0.250000X-0.475000X0.250000X0.475000X-0.250000X0.475000X0*%
%TD*%
%TA.AperFunction,SMDPad,CuDef*%
%ADD31RoundRect,0.250000X-0.312500X-1.075000X0.312500X-1.075000X0.312500X1.075000X-0.312500X1.075000X0*%
%TD*%
%TA.AperFunction,SMDPad,CuDef*%
%ADD32R,1.500000X0.299999*%
%TD*%
%TA.AperFunction,SMDPad,CuDef*%
%ADD33R,0.299999X1.500000*%
%TD*%
%TA.AperFunction,ComponentPad*%
%ADD34C,0.499999*%
%TD*%
%TA.AperFunction,SMDPad,CuDef*%
%ADD35R,8.000000X8.000000*%
%TD*%
%TA.AperFunction,SMDPad,CuDef*%
%ADD36RoundRect,0.140000X-0.170000X0.140000X-0.170000X-0.140000X0.170000X-0.140000X0.170000X0.140000X0*%
%TD*%
%TA.AperFunction,SMDPad,CuDef*%
%ADD37R,5.918200X5.511800*%
%TD*%
%TA.AperFunction,SMDPad,CuDef*%
%ADD38R,2.489200X0.939800*%
%TD*%
%TA.AperFunction,ViaPad*%
%ADD39C,0.600000*%
%TD*%
%TA.AperFunction,ViaPad*%
%ADD40C,0.500000*%
%TD*%
%TA.AperFunction,Conductor*%
%ADD41C,0.500000*%
%TD*%
%TA.AperFunction,Conductor*%
%ADD42C,0.200000*%
%TD*%
%TA.AperFunction,Conductor*%
%ADD43C,0.350000*%
%TD*%
%TA.AperFunction,Conductor*%
%ADD44C,0.300000*%
%TD*%
%TA.AperFunction,Conductor*%
%ADD45C,0.400000*%
%TD*%
G04 APERTURE END LIST*
D10*
%TO.P,R2,1*%
%TO.N,/Project Architecture/Cell Sense & Balance/TAP8*%
X118000000Y-71312500D03*
%TO.P,R2,2*%
%TO.N,/Project Architecture/Cell Sense & Balance/VC8*%
X119650000Y-71312500D03*
%TD*%
D11*
%TO.P,R34,1*%
%TO.N,/Project Architecture/Connectors/T_P4*%
X142084997Y-75499999D03*
%TO.P,R34,2*%
%TO.N,/Project Architecture/Temperature Sense/GPIO4*%
X142084997Y-76519999D03*
%TD*%
D12*
%TO.P,R9,1*%
%TO.N,/Project Architecture/Cell Sense & Balance/TAP5*%
X110537500Y-82875000D03*
%TO.P,R9,2*%
%TO.N,/Project Architecture/Cell Sense & Balance/CB5*%
X116462500Y-82875000D03*
%TD*%
D13*
%TO.P,C39,1*%
%TO.N,/Project Architecture/Daisy Chain/U1_COMHP*%
X148450000Y-83518499D03*
%TO.P,C39,2*%
%TO.N,/Project Architecture/GND*%
X148450000Y-82558499D03*
%TD*%
D14*
%TO.P,C1,1*%
%TO.N,/Project Architecture/Cell Sense & Balance/BAT*%
X129100000Y-98800000D03*
%TO.P,C1,2*%
%TO.N,/Project Architecture/GND*%
X127550000Y-98800000D03*
%TD*%
D15*
%TO.P,D2,1,C_1*%
%TO.N,/Project Architecture/Temperature Sense/TBIAS*%
X134400001Y-79607000D03*
%TO.P,D2,2,A_2*%
%TO.N,/Project Architecture/Power & Reference/TSREF*%
X134400001Y-81893000D03*
%TD*%
D16*
%TO.P,C27,1*%
%TO.N,/Project Architecture/GND*%
X134909300Y-54150000D03*
%TO.P,C27,2*%
%TO.N,/Project Architecture/Power & Reference/LDOIN*%
X135869300Y-54150000D03*
%TD*%
D17*
%TO.P,C29,1*%
%TO.N,/Project Architecture/Temperature Sense/GPIO1*%
X131085000Y-77470000D03*
%TO.P,C29,2*%
%TO.N,/Project Architecture/GND*%
X130125000Y-77470000D03*
%TD*%
D18*
%TO.P,R25,1*%
%TO.N,/Project Architecture/Temperature Sense/TBIAS*%
X139284997Y-77149999D03*
%TO.P,R25,2*%
%TO.N,/Project Architecture/Connectors/T_P3*%
X139284997Y-75499999D03*
%TD*%
D19*
%TO.P,FID2,*%
%TO.N,*%
X110500000Y-133200000D03*
%TD*%
D11*
%TO.P,R32,1*%
%TO.N,/Project Architecture/Connectors/T_P2*%
X135160000Y-75499999D03*
%TO.P,R32,2*%
%TO.N,/Project Architecture/Temperature Sense/GPIO2*%
X135160000Y-76519999D03*
%TD*%
%TO.P,R38,1*%
%TO.N,/Project Architecture/Connectors/T_P8*%
X155929997Y-75499999D03*
%TO.P,R38,2*%
%TO.N,/Project Architecture/Temperature Sense/GPIO8*%
X155929997Y-76519999D03*
%TD*%
D20*
%TO.P,J1,1,1_1*%
%TO.N,/Project Architecture/Connectors/COML.P*%
X170750000Y-97000000D03*
%TO.P,J1,2,2_2*%
%TO.N,/Project Architecture/Connectors/COML.N*%
X170750000Y-94000001D03*
%TD*%
D21*
%TO.P,TP8,1,1_1*%
%TO.N,/Project Architecture/GND*%
X107150000Y-147100000D03*
%TD*%
D10*
%TO.P,R16,1*%
%TO.N,/Project Architecture/Cell Sense & Balance/TAP1*%
X118000000Y-103687500D03*
%TO.P,R16,2*%
%TO.N,/Project Architecture/Cell Sense & Balance/VC1*%
X119650000Y-103687500D03*
%TD*%
D17*
%TO.P,C33,1*%
%TO.N,/Project Architecture/Temperature Sense/GPIO5*%
X144930000Y-77440000D03*
%TO.P,C33,2*%
%TO.N,/Project Architecture/GND*%
X143970000Y-77440000D03*
%TD*%
D12*
%TO.P,R19,1*%
%TO.N,/Project Architecture/Cell Sense & Balance/TAP0*%
X110537500Y-106000000D03*
%TO.P,R19,2*%
%TO.N,/Project Architecture/Cell Sense & Balance/CB0*%
X116462500Y-106000000D03*
%TD*%
D22*
%TO.P,CR1,1*%
%TO.N,/Project Architecture/Daisy Chain/COML_WP*%
X151604100Y-94600000D03*
%TO.P,CR1,2*%
X151604100Y-96500002D03*
%TO.P,CR1,3*%
%TO.N,/Project Architecture/GND*%
X153902800Y-95550001D03*
%TD*%
D23*
%TO.P,C24,1*%
%TO.N,/Project Architecture/CVDD*%
X141750000Y-82475000D03*
%TO.P,C24,2*%
%TO.N,/Project Architecture/GND*%
X141750000Y-79525000D03*
%TD*%
D21*
%TO.P,TP12,1,1_1*%
%TO.N,/Project Architecture/Daisy Chain/U1_COMLN*%
X88950000Y-137000000D03*
%TD*%
D12*
%TO.P,R17,1*%
%TO.N,/Project Architecture/Cell Sense & Balance/TAP1*%
X110537500Y-101375000D03*
%TO.P,R17,2*%
%TO.N,/Project Architecture/Cell Sense & Balance/CB1*%
X116462500Y-101375000D03*
%TD*%
D18*
%TO.P,R23,1*%
%TO.N,/Project Architecture/Temperature Sense/TBIAS*%
X132359997Y-77149999D03*
%TO.P,R23,2*%
%TO.N,/Project Architecture/Connectors/T_P1*%
X132359997Y-75499999D03*
%TD*%
D24*
%TO.P,D1,1,K_1*%
%TO.N,/Project Architecture/GND*%
X145325000Y-59500000D03*
%TO.P,D1,2,A_2*%
%TO.N,Net-(D1-A)*%
X143750000Y-59500000D03*
%TD*%
D19*
%TO.P,FID3,*%
%TO.N,*%
X110500000Y-135750000D03*
%TD*%
D25*
%TO.P,U2,1*%
%TO.N,/Project Architecture/Daisy Chain/COML_WP*%
X157553450Y-93010001D03*
%TO.P,U2,2*%
%TO.N,/Project Architecture/Daisy Chain/COML_CT*%
X157553450Y-95550001D03*
%TO.P,U2,3*%
%TO.N,/Project Architecture/Daisy Chain/COML_WP*%
X157553450Y-98090001D03*
%TO.P,U2,4*%
%TO.N,/Project Architecture/Connectors/COML.P*%
X165846550Y-98090001D03*
%TO.P,U2,5*%
%TO.N,unconnected-(U2-Pad5)*%
X165846550Y-95550001D03*
%TO.P,U2,6*%
%TO.N,/Project Architecture/Connectors/COML.N*%
X165846550Y-93010001D03*
%TD*%
D17*
%TO.P,C31,1*%
%TO.N,/Project Architecture/Temperature Sense/GPIO3*%
X138004997Y-77464999D03*
%TO.P,C31,2*%
%TO.N,/Project Architecture/GND*%
X137044997Y-77464999D03*
%TD*%
D16*
%TO.P,C36,1*%
%TO.N,/Project Architecture/Temperature Sense/GPIO8*%
X155929997Y-77439999D03*
%TO.P,C36,2*%
%TO.N,/Project Architecture/GND*%
X156889997Y-77439999D03*
%TD*%
D21*
%TO.P,TP7,1,1_1*%
%TO.N,/Project Architecture/Power & Reference/TSREF*%
X107150000Y-143050000D03*
%TD*%
%TO.P,TP6,1,1_1*%
%TO.N,/Project Architecture/Power & Reference/LDOIN*%
X103100000Y-147100000D03*
%TD*%
D18*
%TO.P,R30,1*%
%TO.N,/Project Architecture/Temperature Sense/TBIAS*%
X154659997Y-77149999D03*
%TO.P,R30,2*%
%TO.N,/Project Architecture/Connectors/T_P8*%
X154659997Y-75499999D03*
%TD*%
D25*
%TO.P,U3,1*%
%TO.N,/Project Architecture/Daisy Chain/COMH_WP*%
X157553450Y-81928500D03*
%TO.P,U3,2*%
%TO.N,/Project Architecture/Daisy Chain/COMH_CT*%
X157553450Y-84468500D03*
%TO.P,U3,3*%
%TO.N,/Project Architecture/Daisy Chain/COMH_WN*%
X157553450Y-87008500D03*
%TO.P,U3,4*%
%TO.N,/Project Architecture/Connectors/COMH.N*%
X165846550Y-87008500D03*
%TO.P,U3,5*%
%TO.N,unconnected-(U3-Pad5)*%
X165846550Y-84468500D03*
%TO.P,U3,6*%
%TO.N,/Project Architecture/Connectors/COMH.P*%
X165846550Y-81928500D03*
%TD*%
D26*
%TO.P,C11,1*%
%TO.N,/Project Architecture/Cell Sense & Balance/VC1*%
X141500000Y-100300000D03*
%TO.P,C11,2*%
%TO.N,/Project Architecture/Cell Sense & Balance/VC0*%
X143050000Y-100300000D03*
%TD*%
D21*
%TO.P,TP5,1,1_1*%
%TO.N,/Project Architecture/Power & Reference/VCOLL*%
X103100000Y-143050000D03*
%TD*%
D10*
%TO.P,R18,1*%
%TO.N,/Project Architecture/Cell Sense & Balance/TAP0*%
X118000000Y-108000000D03*
%TO.P,R18,2*%
%TO.N,/Project Architecture/Cell Sense & Balance/VC0*%
X119650000Y-108000000D03*
%TD*%
D27*
%TO.P,C28,1*%
%TO.N,/Project Architecture/Power & Reference/VCOLL*%
X123277400Y-56250000D03*
%TO.P,C28,2*%
%TO.N,/Project Architecture/GND*%
X121377400Y-56250000D03*
%TD*%
D26*
%TO.P,C6,1*%
%TO.N,/Project Architecture/Cell Sense & Balance/VC6*%
X133750000Y-98800000D03*
%TO.P,C6,2*%
%TO.N,/Project Architecture/Cell Sense & Balance/VC5*%
X135300000Y-98800000D03*
%TD*%
D28*
%TO.P,R21,1*%
%TO.N,/Project Architecture/Power & Reference/VCOLL_R*%
X123252400Y-59000000D03*
%TO.P,R21,2*%
%TO.N,/Project Architecture/Power & Reference/VCOLL*%
X120327400Y-59000000D03*
%TD*%
D11*
%TO.P,R31,1*%
%TO.N,/Project Architecture/Connectors/T_P1*%
X131085000Y-75499999D03*
%TO.P,R31,2*%
%TO.N,/Project Architecture/Temperature Sense/GPIO1*%
X131085000Y-76519999D03*
%TD*%
%TO.P,R33,1*%
%TO.N,/Project Architecture/Connectors/T_P3*%
X138004997Y-75499999D03*
%TO.P,R33,2*%
%TO.N,/Project Architecture/Temperature Sense/GPIO3*%
X138004997Y-76519999D03*
%TD*%
D10*
%TO.P,R10,1*%
%TO.N,/Project Architecture/Cell Sense & Balance/TAP4*%
X118000000Y-89812500D03*
%TO.P,R10,2*%
%TO.N,/Project Architecture/Cell Sense & Balance/VC4*%
X119650000Y-89812500D03*
%TD*%
D11*
%TO.P,R40,1*%
%TO.N,/Project Architecture/Daisy Chain/U1_COMHP*%
X147450000Y-83858500D03*
%TO.P,R40,2*%
%TO.N,/Project Architecture/Daisy Chain/U1_COMHN*%
X147450000Y-84878500D03*
%TD*%
D26*
%TO.P,C12,1*%
%TO.N,/Project Architecture/Cell Sense & Balance/VC0*%
X143050000Y-98800000D03*
%TO.P,C12,2*%
%TO.N,/Project Architecture/GND*%
X144600000Y-98800000D03*
%TD*%
D10*
%TO.P,R1,1*%
%TO.N,/Project Architecture/VMODULE*%
X118000000Y-67000000D03*
%TO.P,R1,2*%
%TO.N,/Project Architecture/Cell Sense & Balance/BAT*%
X119650000Y-67000000D03*
%TD*%
D21*
%TO.P,TP11,1,1_1*%
%TO.N,/Project Architecture/Daisy Chain/U1_COMLP*%
X88950000Y-132950000D03*
%TD*%
D26*
%TO.P,C7,1*%
%TO.N,/Project Architecture/Cell Sense & Balance/VC5*%
X135300000Y-100300000D03*
%TO.P,C7,2*%
%TO.N,/Project Architecture/Cell Sense & Balance/VC4*%
X136850000Y-100300000D03*
%TD*%
D12*
%TO.P,R11,1*%
%TO.N,/Project Architecture/Cell Sense & Balance/TAP4*%
X110537500Y-87500000D03*
%TO.P,R11,2*%
%TO.N,/Project Architecture/Cell Sense & Balance/CB4*%
X116462500Y-87500000D03*
%TD*%
D29*
%TO.P,R43,1*%
%TO.N,/Project Architecture/Daisy Chain/U1_COMHP*%
X149390000Y-83518499D03*
%TO.P,R43,2*%
%TO.N,/Project Architecture/Daisy Chain/COMH_WP*%
X150410000Y-83518499D03*
%TD*%
D26*
%TO.P,C8,1*%
%TO.N,/Project Architecture/Cell Sense & Balance/VC4*%
X136850000Y-98800000D03*
%TO.P,C8,2*%
%TO.N,/Project Architecture/Cell Sense & Balance/VC3*%
X138400000Y-98800000D03*
%TD*%
D20*
%TO.P,J3,1,1_1*%
%TO.N,/Project Architecture/Connectors/T_P8*%
X154000000Y-71999999D03*
%TO.P,J3,2,2_2*%
%TO.N,/Project Architecture/Connectors/T_P7*%
X151000001Y-71999999D03*
%TO.P,J3,3,3_3*%
%TO.N,/Project Architecture/Connectors/T_P6*%
X148000002Y-71999999D03*
%TO.P,J3,4,4_4*%
%TO.N,/Project Architecture/Connectors/T_P5*%
X145000002Y-71999999D03*
%TO.P,J3,5,5_5*%
%TO.N,/Project Architecture/Connectors/T_P4*%
X142000003Y-71999999D03*
%TO.P,J3,6,6_6*%
%TO.N,/Project Architecture/Connectors/T_P3*%
X139000004Y-71999999D03*
%TO.P,J3,7,7_7*%
%TO.N,/Project Architecture/Connectors/T_P2*%
X136000005Y-71999999D03*
%TO.P,J3,8,8_8*%
%TO.N,/Project Architecture/Connectors/T_P1*%
X133000006Y-71999999D03*
%TO.P,J3,9,9_9*%
%TO.N,/Project Architecture/GND*%
X154000000Y-69000000D03*
%TO.P,J3,10,10_10*%
X151000001Y-69000000D03*
%TO.P,J3,11,11_11*%
X148000002Y-69000000D03*
%TO.P,J3,12,12_12*%
X145000002Y-69000000D03*
%TO.P,J3,13,13_13*%
X142000003Y-69000000D03*
%TO.P,J3,14,14_14*%
X139000004Y-69000000D03*
%TO.P,J3,15,15_15*%
X136000005Y-69000000D03*
%TO.P,J3,16,16_16*%
X133000006Y-69000000D03*
%TD*%
D10*
%TO.P,R14,1*%
%TO.N,/Project Architecture/Cell Sense & Balance/TAP2*%
X118000000Y-99062500D03*
%TO.P,R14,2*%
%TO.N,/Project Architecture/Cell Sense & Balance/VC2*%
X119650000Y-99062500D03*
%TD*%
%TO.P,R12,1*%
%TO.N,/Project Architecture/Cell Sense & Balance/TAP3*%
X118000000Y-94437500D03*
%TO.P,R12,2*%
%TO.N,/Project Architecture/Cell Sense & Balance/VC3*%
X119650000Y-94437500D03*
%TD*%
D13*
%TO.P,C25,1*%
%TO.N,/Project Architecture/Power & Reference/NEG5V*%
X144000000Y-81230000D03*
%TO.P,C25,2*%
%TO.N,/Project Architecture/GND*%
X144000000Y-80270000D03*
%TD*%
D11*
%TO.P,R35,1*%
%TO.N,/Project Architecture/Connectors/T_P5*%
X144930000Y-75500000D03*
%TO.P,R35,2*%
%TO.N,/Project Architecture/Temperature Sense/GPIO5*%
X144930000Y-76520000D03*
%TD*%
D30*
%TO.P,C21,1*%
%TO.N,/Project Architecture/GND*%
X137550000Y-80000000D03*
%TO.P,C21,2*%
%TO.N,/Project Architecture/Power & Reference/DVDD*%
X139450000Y-80000000D03*
%TD*%
D21*
%TO.P,TP1,1,1_1*%
%TO.N,/Project Architecture/CVDD*%
X95000000Y-143050000D03*
%TD*%
D20*
%TO.P,J4,1,1_1*%
%TO.N,/Project Architecture/VMODULE*%
X93814301Y-95339598D03*
%TO.P,J4,2,2_2*%
%TO.N,unconnected-(J4-Pad2)*%
X93814301Y-92339599D03*
%TO.P,J4,3,3_3*%
%TO.N,/Project Architecture/Cell Sense & Balance/TAP8*%
X93814301Y-89339600D03*
%TO.P,J4,4,4_4*%
%TO.N,/Project Architecture/Cell Sense & Balance/TAP7*%
X93814301Y-86339600D03*
%TO.P,J4,5,5_5*%
%TO.N,/Project Architecture/Cell Sense & Balance/TAP6*%
X93814301Y-83339601D03*
%TO.P,J4,6,6_6*%
%TO.N,/Project Architecture/Cell Sense & Balance/TAP5*%
X93814301Y-80339602D03*
%TO.P,J4,7,7_7*%
%TO.N,/Project Architecture/Cell Sense & Balance/TAP4*%
X96814300Y-95339598D03*
%TO.P,J4,8,8_8*%
%TO.N,/Project Architecture/Cell Sense & Balance/TAP3*%
X96814300Y-92339599D03*
%TO.P,J4,9,9_9*%
%TO.N,/Project Architecture/Cell Sense & Balance/TAP2*%
X96814300Y-89339600D03*
%TO.P,J4,10,10_10*%
%TO.N,/Project Architecture/Cell Sense & Balance/TAP1*%
X96814300Y-86339600D03*
%TO.P,J4,11,11_11*%
%TO.N,/Project Architecture/Cell Sense & Balance/TAP0*%
X96814300Y-83339601D03*
%TO.P,J4,12,12_12*%
%TO.N,/Project Architecture/GND*%
X96814300Y-80339602D03*
%TD*%
D18*
%TO.P,R29,1*%
%TO.N,/Project Architecture/Temperature Sense/TBIAS*%
X153120000Y-77149999D03*
%TO.P,R29,2*%
%TO.N,/Project Architecture/Connectors/T_P7*%
X153120000Y-75499999D03*
%TD*%
D21*
%TO.P,TP9,1,1_1*%
%TO.N,/Project Architecture/Connectors/T_P1*%
X95000000Y-132950000D03*
%TD*%
D16*
%TO.P,C32,1*%
%TO.N,/Project Architecture/Temperature Sense/GPIO4*%
X142084997Y-77439999D03*
%TO.P,C32,2*%
%TO.N,/Project Architecture/GND*%
X143044997Y-77439999D03*
%TD*%
D21*
%TO.P,TP13,1,1_1*%
%TO.N,/Project Architecture/Daisy Chain/U1_COMHP*%
X88950000Y-141050000D03*
%TD*%
%TO.P,TP10,1,1_1*%
%TO.N,/Project Architecture/GND*%
X95000000Y-137000000D03*
%TD*%
D12*
%TO.P,R5,1*%
%TO.N,/Project Architecture/Cell Sense & Balance/TAP7*%
X110537500Y-73625000D03*
%TO.P,R5,2*%
%TO.N,/Project Architecture/Cell Sense & Balance/CB7*%
X116462500Y-73625000D03*
%TD*%
D29*
%TO.P,R44,1*%
%TO.N,/Project Architecture/Daisy Chain/U1_COMHN*%
X149390000Y-85418501D03*
%TO.P,R44,2*%
%TO.N,/Project Architecture/Daisy Chain/COMH_WN*%
X150410000Y-85418501D03*
%TD*%
D20*
%TO.P,J4,1,1_1*%
%TO.N,/Project Architecture/GND*%
X76223000Y-102339594D03*
%TO.P,J4,2,2_2*%
%TO.N,/Project Architecture/Cell Sense & Balance/TAP0*%
X76223000Y-99339595D03*
%TO.P,J4,3,3_3*%
%TO.N,/Project Architecture/Cell Sense & Balance/TAP1*%
X76223000Y-96339596D03*
%TO.P,J4,4,4_4*%
%TO.N,/Project Architecture/Cell Sense & Balance/TAP2*%
X76223000Y-93339597D03*
%TO.P,J4,5,5_5*%
%TO.N,/Project Architecture/Cell Sense & Balance/TAP3*%
X76223000Y-90339598D03*
%TO.P,J4,6,6_6*%
%TO.N,/Project Architecture/Cell Sense & Balance/TAP4*%
X76223000Y-87339599D03*
%TO.P,J4,7,7_7*%
%TO.N,/Project Architecture/Cell Sense & Balance/TAP5*%
X76223000Y-84339600D03*
%TO.P,J4,8,8_8*%
%TO.N,/Project Architecture/Cell Sense & Balance/TAP6*%
X76223000Y-81339601D03*
%TO.P,J4,9,9_9*%
%TO.N,/Project Architecture/Cell Sense & Balance/TAP7*%
X76223000Y-78339602D03*
%TO.P,J4,10,10_10*%
%TO.N,/Project Architecture/Cell Sense & Balance/TAP8*%
X76223000Y-75339603D03*
%TO.P,J4,11,11_11*%
%TO.N,unconnected-(J4-Pad11)*%
X76223000Y-72339604D03*
%TO.P,J4,12,12_12*%
%TO.N,/Project Architecture/VMODULE*%
X76223000Y-69339605D03*
%TD*%
D10*
%TO.P,R8,1*%
%TO.N,/Project Architecture/Cell Sense & Balance/TAP5*%
X118000000Y-85187500D03*
%TO.P,R8,2*%
%TO.N,/Project Architecture/Cell Sense & Balance/VC5*%
X119650000Y-85187500D03*
%TD*%
D11*
%TO.P,R36,1*%
%TO.N,/Project Architecture/Connectors/T_P6*%
X148999997Y-75500000D03*
%TO.P,R36,2*%
%TO.N,/Project Architecture/Temperature Sense/GPIO6*%
X148999997Y-76520000D03*
%TD*%
D18*
%TO.P,R27,1*%
%TO.N,/Project Architecture/Temperature Sense/TBIAS*%
X146199997Y-77150000D03*
%TO.P,R27,2*%
%TO.N,/Project Architecture/Connectors/T_P5*%
X146199997Y-75500000D03*
%TD*%
D21*
%TO.P,TP4,1,1_1*%
%TO.N,/Project Architecture/Power & Reference/LDOIN*%
X99050000Y-147100000D03*
%TD*%
D26*
%TO.P,C2,1*%
%TO.N,/Project Architecture/Cell Sense & Balance/VC8*%
X130650000Y-98800000D03*
%TO.P,C2,2*%
%TO.N,/Project Architecture/Cell Sense & Balance/VC7*%
X132200000Y-98800000D03*
%TD*%
%TO.P,C10,1*%
%TO.N,/Project Architecture/Cell Sense & Balance/VC2*%
X139950000Y-98800000D03*
%TO.P,C10,2*%
%TO.N,/Project Architecture/Cell Sense & Balance/VC1*%
X141500000Y-98800000D03*
%TD*%
%TO.P,C5,1*%
%TO.N,/Project Architecture/Cell Sense & Balance/VC7*%
X132200000Y-100300000D03*
%TO.P,C5,2*%
%TO.N,/Project Architecture/Cell Sense & Balance/VC6*%
X133750000Y-100300000D03*
%TD*%
D14*
%TO.P,C22,1*%
%TO.N,/Project Architecture/GND*%
X150875000Y-103600000D03*
%TO.P,C22,2*%
%TO.N,/Project Architecture/Power & Reference/AVDD*%
X149325000Y-103600000D03*
%TD*%
D31*
%TO.P,R20,1*%
%TO.N,/Project Architecture/VMODULE*%
X115577400Y-59000000D03*
%TO.P,R20,2*%
%TO.N,/Project Architecture/Power & Reference/VCOLL_R*%
X118502400Y-59000000D03*
%TD*%
D20*
%TO.P,J2,1,1_1*%
%TO.N,/Project Architecture/Connectors/COMH.P*%
X170750000Y-83000000D03*
%TO.P,J2,2,2_2*%
%TO.N,/Project Architecture/Connectors/COMH.N*%
X170750000Y-85999999D03*
%TD*%
D12*
%TO.P,R7,1*%
%TO.N,/Project Architecture/Cell Sense & Balance/TAP6*%
X110537500Y-78250000D03*
%TO.P,R7,2*%
%TO.N,/Project Architecture/Cell Sense & Balance/CB6*%
X116462500Y-78250000D03*
%TD*%
D13*
%TO.P,C37,1*%
%TO.N,/Project Architecture/Daisy Chain/U1_COMLN*%
X148453450Y-94600000D03*
%TO.P,C37,2*%
%TO.N,/Project Architecture/GND*%
X148453450Y-93640000D03*
%TD*%
D29*
%TO.P,R41,1*%
%TO.N,/Project Architecture/Daisy Chain/U1_COMLN*%
X149343450Y-94600000D03*
%TO.P,R41,2*%
%TO.N,/Project Architecture/Daisy Chain/COML_WP*%
X150363450Y-94600000D03*
%TD*%
D21*
%TO.P,TP2,1,1_1*%
%TO.N,/Project Architecture/Power & Reference/DVDD*%
X95000000Y-147100000D03*
%TD*%
D11*
%TO.P,R39,1*%
%TO.N,/Project Architecture/Daisy Chain/U1_COMLN*%
X147453450Y-95040001D03*
%TO.P,R39,2*%
%TO.N,/Project Architecture/Daisy Chain/U1_COMLP*%
X147453450Y-96060001D03*
%TD*%
D16*
%TO.P,C34,1*%
%TO.N,/Project Architecture/Temperature Sense/GPIO6*%
X148999997Y-77440000D03*
%TO.P,C34,2*%
%TO.N,/Project Architecture/GND*%
X149959997Y-77440000D03*
%TD*%
D18*
%TO.P,R24,1*%
%TO.N,/Project Architecture/Temperature Sense/TBIAS*%
X133884997Y-77149999D03*
%TO.P,R24,2*%
%TO.N,/Project Architecture/Connectors/T_P2*%
X133884997Y-75499999D03*
%TD*%
D11*
%TO.P,R37,1*%
%TO.N,/Project Architecture/Connectors/T_P7*%
X151840000Y-75499999D03*
%TO.P,R37,2*%
%TO.N,/Project Architecture/Temperature Sense/GPIO7*%
X151840000Y-76519999D03*
%TD*%
D12*
%TO.P,R15,1*%
%TO.N,/Project Architecture/Cell Sense & Balance/TAP2*%
X110537500Y-96750000D03*
%TO.P,R15,2*%
%TO.N,/Project Architecture/Cell Sense & Balance/CB2*%
X116462500Y-96750000D03*
%TD*%
D18*
%TO.P,R26,1*%
%TO.N,/Project Architecture/Temperature Sense/TBIAS*%
X140809997Y-77149999D03*
%TO.P,R26,2*%
%TO.N,/Project Architecture/Connectors/T_P4*%
X140809997Y-75499999D03*
%TD*%
D32*
%TO.P,U1,1,BAT_1*%
%TO.N,/Project Architecture/Cell Sense & Balance/BAT*%
X130350000Y-86399999D03*
%TO.P,U1,2,CB16_2*%
X130350000Y-86899998D03*
%TO.P,U1,3,VC16_3*%
X130350000Y-87399999D03*
%TO.P,U1,4,CB15_4*%
X130350000Y-87899998D03*
%TO.P,U1,5,VC15_5*%
X130350000Y-88400000D03*
%TO.P,U1,6,CB14_6*%
X130350000Y-88899999D03*
%TO.P,U1,7,VC14_7*%
X130350000Y-89399998D03*
%TO.P,U1,8,CB13_8*%
X130350000Y-89899999D03*
%TO.P,U1,9,VC13_9*%
X130350000Y-90399999D03*
%TO.P,U1,10,CB12_10*%
X130350000Y-90900000D03*
%TO.P,U1,11,VC12_11*%
X130350000Y-91399999D03*
%TO.P,U1,12,CB11_12*%
X130350000Y-91899998D03*
%TO.P,U1,13,VC11_13*%
X130350000Y-92400000D03*
%TO.P,U1,14,CB10_14*%
X130350000Y-92899999D03*
%TO.P,U1,15,VC10_15*%
X130350000Y-93400000D03*
%TO.P,U1,16,CB9_16*%
X130350000Y-93899999D03*
D33*
%TO.P,U1,17,VC9_17*%
X132299999Y-95849998D03*
%TO.P,U1,18,CB8_18*%
%TO.N,/Project Architecture/Cell Sense & Balance/CB8*%
X132799998Y-95849998D03*
%TO.P,U1,19,VC8_19*%
%TO.N,/Project Architecture/Cell Sense & Balance/VC8*%
X133299999Y-95849998D03*
%TO.P,U1,20,CB7_20*%
%TO.N,/Project Architecture/Cell Sense & Balance/CB7*%
X133799998Y-95849998D03*
%TO.P,U1,21,VC7_21*%
%TO.N,/Project Architecture/Cell Sense & Balance/VC7*%
X134300000Y-95849998D03*
%TO.P,U1,22,CB6_22*%
%TO.N,/Project Architecture/Cell Sense & Balance/CB6*%
X134799999Y-95849998D03*
%TO.P,U1,23,VC6_23*%
%TO.N,/Project Architecture/Cell Sense & Balance/VC6*%
X135299998Y-95849998D03*
%TO.P,U1,24,CB5_24*%
%TO.N,/Project Architecture/Cell Sense & Balance/CB5*%
X135799999Y-95849998D03*
%TO.P,U1,25,VC5_25*%
%TO.N,/Project Architecture/Cell Sense & Balance/VC5*%
X136299999Y-95849998D03*
%TO.P,U1,26,CB4_26*%
%TO.N,/Project Architecture/Cell Sense & Balance/CB4*%
X136800000Y-95849998D03*
%TO.P,U1,27,VC4_27*%
%TO.N,/Project Architecture/Cell Sense & Balance/VC4*%
X137299999Y-95849998D03*
%TO.P,U1,28,CB3_28*%
%TO.N,/Project Architecture/Cell Sense & Balance/CB3*%
X137799998Y-95849998D03*
%TO.P,U1,29,VC3_29*%
%TO.N,/Project Architecture/Cell Sense & Balance/VC3*%
X138300000Y-95849998D03*
%TO.P,U1,30,CB2_30*%
%TO.N,/Project Architecture/Cell Sense & Balance/CB2*%
X138799999Y-95849998D03*
%TO.P,U1,31,VC2_31*%
%TO.N,/Project Architecture/Cell Sense & Balance/VC2*%
X139300000Y-95849998D03*
%TO.P,U1,32,CB1_32*%
%TO.N,/Project Architecture/Cell Sense & Balance/CB1*%
X139799999Y-95849998D03*
D32*
%TO.P,U1,33,VC1_33*%
%TO.N,/Project Architecture/Cell Sense & Balance/VC1*%
X141749998Y-93899999D03*
%TO.P,U1,34,CB0_34*%
%TO.N,/Project Architecture/Cell Sense & Balance/CB0*%
X141749998Y-93400000D03*
%TO.P,U1,35,VC0_35*%
%TO.N,/Project Architecture/Cell Sense & Balance/VC0*%
X141749998Y-92899999D03*
%TO.P,U1,36,REFHM_36*%
%TO.N,/Project Architecture/GND*%
X141749998Y-92400000D03*
%TO.P,U1,37,REFHP_37*%
%TO.N,/Project Architecture/Power & Reference/REFHP*%
X141749998Y-91899998D03*
%TO.P,U1,38,AVDD_38*%
%TO.N,/Project Architecture/Power & Reference/AVDD*%
X141749998Y-91399999D03*
%TO.P,U1,39,AVSS_39*%
%TO.N,/Project Architecture/GND*%
X141749998Y-90900000D03*
%TO.P,U1,40,COMLP_40*%
%TO.N,/Project Architecture/Daisy Chain/U1_COMLP*%
X141749998Y-90399999D03*
%TO.P,U1,41,COMLN_41*%
%TO.N,/Project Architecture/Daisy Chain/U1_COMLN*%
X141749998Y-89899999D03*
%TO.P,U1,42,COMHN_42*%
%TO.N,/Project Architecture/Daisy Chain/U1_COMHN*%
X141749998Y-89399998D03*
%TO.P,U1,43,COMHP_43*%
%TO.N,/Project Architecture/Daisy Chain/U1_COMHP*%
X141749998Y-88899999D03*
%TO.P,U1,44,NEG5V_44*%
%TO.N,/Project Architecture/Power & Reference/NEG5V*%
X141749998Y-88400000D03*
%TO.P,U1,45,CVDD_45*%
%TO.N,/Project Architecture/CVDD*%
X141749998Y-87899998D03*
%TO.P,U1,46,CVSS_46*%
%TO.N,/Project Architecture/GND*%
X141749998Y-87399999D03*
%TO.P,U1,47,LDOIN_47*%
%TO.N,/Project Architecture/Power & Reference/LDOIN*%
X141749998Y-86899998D03*
%TO.P,U1,48,NPNB_48*%
%TO.N,/Project Architecture/Power & Reference/NPNB*%
X141749998Y-86399999D03*
D33*
%TO.P,U1,49,DVDD_49*%
%TO.N,/Project Architecture/Power & Reference/DVDD*%
X139799999Y-84450000D03*
%TO.P,U1,50,DVSS_50*%
%TO.N,/Project Architecture/GND*%
X139300000Y-84450000D03*
%TO.P,U1,51,TSREF_51*%
%TO.N,/Project Architecture/Power & Reference/TSREF*%
X138799999Y-84450000D03*
%TO.P,U1,52,RX_52*%
%TO.N,/Project Architecture/CVDD*%
X138300000Y-84450000D03*
%TO.P,U1,53,TX_53*%
%TO.N,unconnected-(U1Communication-TX-Pad53)*%
X137799998Y-84450000D03*
%TO.P,U1,54,GPIO8_54*%
%TO.N,/Project Architecture/Temperature Sense/GPIO8*%
X137299999Y-84450000D03*
%TO.P,U1,55,GPIO7_55*%
%TO.N,/Project Architecture/Temperature Sense/GPIO7*%
X136800000Y-84450000D03*
%TO.P,U1,56,GPIO6_56*%
%TO.N,/Project Architecture/Temperature Sense/GPIO6*%
X136299999Y-84450000D03*
%TO.P,U1,57,GPIO5_57*%
%TO.N,/Project Architecture/Temperature Sense/GPIO5*%
X135799999Y-84450000D03*
%TO.P,U1,58,GPIO4_58*%
%TO.N,/Project Architecture/Temperature Sense/GPIO4*%
X135299998Y-84450000D03*
%TO.P,U1,59,GPIO3_59*%
%TO.N,/Project Architecture/Temperature Sense/GPIO3*%
X134799999Y-84450000D03*
%TO.P,U1,60,GPIO2_60*%
%TO.N,/Project Architecture/Temperature Sense/GPIO2*%
X134300000Y-84450000D03*
%TO.P,U1,61,GPIO1_61*%
%TO.N,/Project Architecture/Temperature Sense/GPIO1*%
X133799998Y-84450000D03*
%TO.P,U1,62,FAULT_N_62*%
%TO.N,unconnected-(U1Communication-FAULT_N-Pad62)*%
X133299999Y-84450000D03*
%TO.P,U1,63,BBN_63*%
%TO.N,unconnected-(U1Aux inputs-BBN-Pad63)*%
X132799998Y-84450000D03*
%TO.P,U1,64,BBP_64*%
%TO.N,unconnected-(U1Aux inputs-BBP-Pad64)*%
X132299999Y-84450000D03*
D34*
%TO.P,U1,65,PAD_65*%
%TO.N,/Project Architecture/GND*%
X132799998Y-86899998D03*
X132799998Y-88199998D03*
X132799998Y-89500000D03*
X132799998Y-90800000D03*
X132799998Y-92100000D03*
X132799998Y-93400000D03*
X134099998Y-86899998D03*
X134099998Y-88199998D03*
X134099998Y-89500000D03*
X134099998Y-90800000D03*
X134099998Y-92100000D03*
X134099998Y-93400000D03*
X135399998Y-86899998D03*
X135399998Y-88199998D03*
X135399998Y-89500000D03*
X135399998Y-90800000D03*
X135399998Y-92100000D03*
X135399998Y-93400000D03*
D35*
X136049999Y-90149999D03*
D34*
X136700000Y-86899998D03*
X136700000Y-88199998D03*
X136700000Y-89500000D03*
X136700000Y-90800000D03*
X136700000Y-92100000D03*
X136700000Y-93400000D03*
X138000000Y-86899998D03*
X138000000Y-88199998D03*
X138000000Y-89500000D03*
X138000000Y-90800000D03*
X138000000Y-92100000D03*
X138000000Y-93400000D03*
X139300000Y-86899998D03*
X139300000Y-88199998D03*
X139300000Y-89500000D03*
X139300000Y-90800000D03*
X139300000Y-92100000D03*
X139300000Y-93400000D03*
%TD*%
D36*
%TO.P,C40,1*%
%TO.N,/Project Architecture/Daisy Chain/U1_COMHN*%
X148450000Y-85418501D03*
%TO.P,C40,2*%
%TO.N,/Project Architecture/GND*%
X148450000Y-86378501D03*
%TD*%
D29*
%TO.P,R22,1*%
%TO.N,/Project Architecture/CVDD*%
X144782116Y-58287400D03*
%TO.P,R22,2*%
%TO.N,Net-(D1-A)*%
X145802116Y-58287400D03*
%TD*%
D19*
%TO.P,FID1,*%
%TO.N,*%
X110500000Y-130650000D03*
%TD*%
D18*
%TO.P,R28,1*%
%TO.N,/Project Architecture/Temperature Sense/TBIAS*%
X147724997Y-77150000D03*
%TO.P,R28,2*%
%TO.N,/Project Architecture/Connectors/T_P6*%
X147724997Y-75500000D03*
%TD*%
D22*
%TO.P,CR2,1*%
%TO.N,/Project Architecture/Daisy Chain/COMH_WP*%
X151604100Y-83518499D03*
%TO.P,CR2,2*%
%TO.N,/Project Architecture/Daisy Chain/COMH_WN*%
X151604100Y-85418501D03*
%TO.P,CR2,3*%
%TO.N,/Project Architecture/GND*%
X153902800Y-84468500D03*
%TD*%
D16*
%TO.P,C30,1*%
%TO.N,/Project Architecture/Temperature Sense/GPIO2*%
X135160000Y-77470000D03*
%TO.P,C30,2*%
%TO.N,/Project Architecture/GND*%
X136120000Y-77470000D03*
%TD*%
D37*
%TO.P,Q1,1,C_1*%
%TO.N,/Project Architecture/Power & Reference/VCOLL*%
X127500000Y-57750000D03*
D38*
%TO.P,Q1,2,B_2*%
%TO.N,/Project Architecture/Power & Reference/NPNB*%
X135869300Y-60030001D03*
%TO.P,Q1,3,E_3*%
%TO.N,/Project Architecture/Power & Reference/LDOIN*%
X135869300Y-55469999D03*
%TD*%
D36*
%TO.P,C38,1*%
%TO.N,/Project Architecture/Daisy Chain/U1_COMLP*%
X148453450Y-96500002D03*
%TO.P,C38,2*%
%TO.N,/Project Architecture/GND*%
X148453450Y-97460002D03*
%TD*%
D17*
%TO.P,C41,1*%
%TO.N,/Project Architecture/Daisy Chain/COML_CT*%
X156133450Y-95550001D03*
%TO.P,C41,2*%
%TO.N,/Project Architecture/GND*%
X155173450Y-95550001D03*
%TD*%
D12*
%TO.P,R13,1*%
%TO.N,/Project Architecture/Cell Sense & Balance/TAP3*%
X110537500Y-92125000D03*
%TO.P,R13,2*%
%TO.N,/Project Architecture/Cell Sense & Balance/CB3*%
X116462500Y-92125000D03*
%TD*%
D14*
%TO.P,C26,1*%
%TO.N,/Project Architecture/Power & Reference/TSREF*%
X131750000Y-80500000D03*
%TO.P,C26,2*%
%TO.N,/Project Architecture/GND*%
X130200000Y-80500000D03*
%TD*%
%TO.P,C23,1*%
%TO.N,/Project Architecture/GND*%
X151175000Y-101700000D03*
%TO.P,C23,2*%
%TO.N,/Project Architecture/Power & Reference/REFHP*%
X149625000Y-101700000D03*
%TD*%
D17*
%TO.P,C42,1*%
%TO.N,/Project Architecture/Daisy Chain/COMH_CT*%
X156180000Y-84468500D03*
%TO.P,C42,2*%
%TO.N,/Project Architecture/GND*%
X155220000Y-84468500D03*
%TD*%
%TO.P,C35,1*%
%TO.N,/Project Architecture/Temperature Sense/GPIO7*%
X151840000Y-77439999D03*
%TO.P,C35,2*%
%TO.N,/Project Architecture/GND*%
X150880000Y-77439999D03*
%TD*%
D10*
%TO.P,R4,1*%
%TO.N,/Project Architecture/Cell Sense & Balance/TAP7*%
X118000000Y-75937500D03*
%TO.P,R4,2*%
%TO.N,/Project Architecture/Cell Sense & Balance/VC7*%
X119650000Y-75937500D03*
%TD*%
D26*
%TO.P,C9,1*%
%TO.N,/Project Architecture/Cell Sense & Balance/VC3*%
X138400000Y-100300000D03*
%TO.P,C9,2*%
%TO.N,/Project Architecture/Cell Sense & Balance/VC2*%
X139950000Y-100300000D03*
%TD*%
D21*
%TO.P,TP3,1,1_1*%
%TO.N,/Project Architecture/Power & Reference/AVDD*%
X99050000Y-143050000D03*
%TD*%
D10*
%TO.P,R6,1*%
%TO.N,/Project Architecture/Cell Sense & Balance/TAP6*%
X118000000Y-80562500D03*
%TO.P,R6,2*%
%TO.N,/Project Architecture/Cell Sense & Balance/VC6*%
X119650000Y-80562500D03*
%TD*%
D29*
%TO.P,R42,1*%
%TO.N,/Project Architecture/Daisy Chain/U1_COMLP*%
X149343450Y-96500002D03*
%TO.P,R42,2*%
%TO.N,/Project Architecture/Daisy Chain/COML_WP*%
X150363450Y-96500002D03*
%TD*%
D12*
%TO.P,R3,1*%
%TO.N,/Project Architecture/Cell Sense & Balance/TAP8*%
X110537500Y-69000000D03*
%TO.P,R3,2*%
%TO.N,/Project Architecture/Cell Sense & Balance/CB8*%
X116462500Y-69000000D03*
%TD*%
D21*
%TO.P,TP14,1,1_1*%
%TO.N,/Project Architecture/Daisy Chain/U1_COMHN*%
X88950000Y-145100000D03*
%TD*%
D39*
%TO.N,/Project Architecture/Cell Sense & Balance/CB5*%
X135500291Y-97710291D03*
D40*
%TO.N,/Project Architecture/GND*%
X144350000Y-93020989D03*
X145378014Y-90517354D03*
X144450000Y-86696700D03*
X144350000Y-94220989D03*
X144546267Y-89614394D03*
X144350000Y-92420989D03*
X146426543Y-94083039D03*
X144160247Y-91920907D03*
X146250000Y-91777485D03*
X144596642Y-94940147D03*
X146350000Y-86140204D03*
X145532663Y-83923833D03*
X144318450Y-87220890D03*
X144450000Y-85496700D03*
X146350000Y-86740204D03*
X145802278Y-90941618D03*
X144350000Y-93620989D03*
X146350000Y-87340204D03*
X146250000Y-92977485D03*
X145819059Y-88341601D03*
X143894186Y-87645154D03*
X143469922Y-88069418D03*
X144450000Y-86096700D03*
X146514035Y-85629470D03*
X145445171Y-95788675D03*
X146250000Y-93577485D03*
X145108399Y-84348097D03*
X145869435Y-96212939D03*
X143321599Y-91099999D03*
X144684135Y-84772361D03*
X144970531Y-89190129D03*
X145394795Y-88765865D03*
X146250000Y-92377485D03*
X144953750Y-90093089D03*
X143735983Y-91496643D03*
X145020907Y-95364411D03*
D39*
%TO.N,/Project Architecture/Cell Sense & Balance/CB0*%
X118500000Y-106000000D03*
X143100000Y-93700000D03*
X117750000Y-106000000D03*
%TO.N,/Project Architecture/Cell Sense & Balance/CB1*%
X140376927Y-96913986D03*
%TO.N,/Project Architecture/Cell Sense & Balance/CB4*%
X136808716Y-97725000D03*
%TO.N,/Project Architecture/Cell Sense & Balance/CB7*%
X132803985Y-97813454D03*
%TO.N,/Project Architecture/Cell Sense & Balance/CB6*%
X134347061Y-97809670D03*
%TO.N,/Project Architecture/Cell Sense & Balance/CB2*%
X139400059Y-97786910D03*
%TO.N,/Project Architecture/Cell Sense & Balance/CB3*%
X138016981Y-97740269D03*
%TD*%
%TO.N,/Project Architecture/Cell Sense & Balance/TAP8*%
D41*
X118000000Y-71312500D02*
X112850000Y-71312500D01*
X112850000Y-71312500D02*
X110537500Y-69000000D01*
%TO.N,/Project Architecture/Cell Sense & Balance/VC8*%
D42*
X133299999Y-96814315D02*
X132984314Y-97130000D01*
D43*
X124800000Y-101100000D02*
X126900000Y-103200000D01*
D42*
X133299999Y-95849998D02*
X133299999Y-96814315D01*
D43*
X129100000Y-103200000D02*
X130650000Y-101650000D01*
D42*
X130900000Y-98800000D02*
X130650000Y-98800000D01*
D43*
X126900000Y-103200000D02*
X129100000Y-103200000D01*
D42*
X132984314Y-97130000D02*
X132570000Y-97130000D01*
D43*
X119650000Y-71312500D02*
X124800000Y-76462500D01*
X130650000Y-101650000D02*
X130650000Y-98800000D01*
D42*
X132570000Y-97130000D02*
X130900000Y-98800000D01*
D43*
X124800000Y-76462500D02*
X124800000Y-101100000D01*
%TO.N,/Project Architecture/Connectors/T_P4*%
D42*
X142000003Y-75415005D02*
X142084997Y-75499999D01*
X140809997Y-75499999D02*
X142084997Y-75499999D01*
X142000003Y-71999999D02*
X142000003Y-75415005D01*
%TO.N,/Project Architecture/Temperature Sense/GPIO4*%
X142084997Y-76519999D02*
X142084997Y-77439999D01*
%TO.N,/Project Architecture/Cell Sense & Balance/TAP5*%
D41*
X112850000Y-85187500D02*
X110537500Y-82875000D01*
X118000000Y-85187500D02*
X112850000Y-85187500D01*
%TO.N,/Project Architecture/Cell Sense & Balance/CB5*%
D44*
X135500291Y-97489709D02*
X135500291Y-97710291D01*
X135799999Y-95849998D02*
X135799999Y-97190001D01*
X135799999Y-97190001D02*
X135500291Y-97489709D01*
%TO.N,/Project Architecture/Daisy Chain/U1_COMHP*%
D42*
X146348656Y-84168500D02*
X145200000Y-85317156D01*
X147450000Y-83858500D02*
X148109999Y-83858500D01*
X148109999Y-83858500D02*
X148450000Y-83518499D01*
X147450000Y-83858500D02*
X147400000Y-83858500D01*
X148450000Y-83518499D02*
X149390000Y-83518499D01*
X143650001Y-88949999D02*
X141799998Y-88949999D01*
X147090000Y-84168500D02*
X146348656Y-84168500D01*
X141799998Y-88949999D02*
X141749998Y-88899999D01*
X145200000Y-87400000D02*
X143650001Y-88949999D01*
X147400000Y-83858500D02*
X147090000Y-84168500D01*
X145200000Y-85317156D02*
X145200000Y-87400000D01*
%TO.N,/Project Architecture/GND*%
D45*
X155173450Y-95550001D02*
X153902800Y-95550001D01*
X155220000Y-84468500D02*
X153902800Y-84468500D01*
%TO.N,/Project Architecture/Temperature Sense/GPIO1*%
D42*
X131085000Y-76519999D02*
X131085000Y-77470000D01*
%TO.N,/Project Architecture/Connectors/T_P3*%
X139284997Y-75499999D02*
X138004997Y-75499999D01*
X138004997Y-72995006D02*
X139000004Y-71999999D01*
X138004997Y-75499999D02*
X138004997Y-72995006D01*
%TO.N,/Project Architecture/Connectors/T_P2*%
X133884997Y-75499999D02*
X135160000Y-75499999D01*
%TO.N,/Project Architecture/Temperature Sense/GPIO2*%
X135160000Y-76519999D02*
X135160000Y-77470000D01*
%TO.N,/Project Architecture/Connectors/T_P8*%
X155929997Y-75499999D02*
X155929997Y-73929996D01*
X154659997Y-75499999D02*
X155929997Y-75499999D01*
X155929997Y-73929996D02*
X154000000Y-71999999D01*
%TO.N,/Project Architecture/Temperature Sense/GPIO8*%
X155929997Y-76519999D02*
X155929997Y-77439999D01*
%TO.N,/Project Architecture/Connectors/COML.P*%
X166860000Y-98090001D02*
X165846550Y-98090001D01*
X170750000Y-96050001D02*
X170487500Y-95787501D01*
X170487500Y-95787501D02*
X169162500Y-95787501D01*
X169162500Y-95787501D02*
X166860000Y-98090001D01*
X170750000Y-97000000D02*
X170750000Y-96050001D01*
%TO.N,/Project Architecture/Connectors/COML.N*%
X170750000Y-95100001D02*
X170462500Y-95387501D01*
X170462500Y-95387501D02*
X169187500Y-95387501D01*
X169187500Y-95387501D02*
X166810000Y-93010001D01*
X170750000Y-94000001D02*
X170750000Y-95100001D01*
X166810000Y-93010001D02*
X165846550Y-93010001D01*
%TO.N,/Project Architecture/Cell Sense & Balance/TAP1*%
D41*
X112850000Y-103687500D02*
X110537500Y-101375000D01*
X118000000Y-103687500D02*
X112850000Y-103687500D01*
%TO.N,/Project Architecture/Cell Sense & Balance/VC1*%
D43*
X123012500Y-107050000D02*
X134750000Y-107050000D01*
D42*
X141749998Y-93899999D02*
X141749998Y-98550002D01*
X141500000Y-98800000D02*
X141500000Y-100300000D01*
D43*
X134750000Y-107050000D02*
X141500000Y-100300000D01*
D42*
X141749998Y-98550002D02*
X141500000Y-98800000D01*
D43*
X119650000Y-103687500D02*
X123012500Y-107050000D01*
%TO.N,/Project Architecture/Temperature Sense/GPIO5*%
D42*
X144930000Y-76520000D02*
X144930000Y-77440000D01*
%TO.N,/Project Architecture/Cell Sense & Balance/CB0*%
D44*
X141749998Y-93400000D02*
X142800000Y-93400000D01*
X117750000Y-106000000D02*
X118500000Y-106000000D01*
X116462500Y-106000000D02*
X117750000Y-106000000D01*
X142800000Y-93400000D02*
X143100000Y-93700000D01*
%TO.N,/Project Architecture/Daisy Chain/COML_WP*%
D42*
X155963451Y-94600000D02*
X157553450Y-93010001D01*
X151604100Y-94600000D02*
X155963451Y-94600000D01*
X150363450Y-94600000D02*
X151604100Y-94600000D01*
X150363450Y-96500002D02*
X151604100Y-96500002D01*
X151604100Y-96500002D02*
X155963451Y-96500002D01*
X155963451Y-96500002D02*
X157553450Y-98090001D01*
%TO.N,/Project Architecture/Daisy Chain/U1_COMLN*%
X147453450Y-95040001D02*
X148013449Y-95040001D01*
X143749999Y-89949999D02*
X142399999Y-89949999D01*
X145500000Y-94217156D02*
X145500000Y-91700000D01*
X142399999Y-89949999D02*
X142349999Y-89899999D01*
X149343450Y-94600000D02*
X148453450Y-94600000D01*
X145500000Y-91700000D02*
X143749999Y-89949999D01*
X147453450Y-95040001D02*
X147403450Y-95040001D01*
X142349999Y-89899999D02*
X141749998Y-89899999D01*
X146632845Y-95350001D02*
X145500000Y-94217156D01*
X148013449Y-95040001D02*
X148453450Y-94600000D01*
X147403450Y-95040001D02*
X147093450Y-95350001D01*
X147093450Y-95350001D02*
X146632845Y-95350001D01*
%TO.N,/Project Architecture/Cell Sense & Balance/CB1*%
D44*
X140263986Y-96913986D02*
X140376927Y-96913986D01*
X139799999Y-95849998D02*
X139799999Y-96449999D01*
X139799999Y-96449999D02*
X140263986Y-96913986D01*
%TO.N,/Project Architecture/Connectors/T_P1*%
D42*
X132359997Y-75499999D02*
X131085000Y-75499999D01*
X131085000Y-75499999D02*
X131085000Y-73915005D01*
X131085000Y-73915005D02*
X133000006Y-71999999D01*
%TO.N,/Project Architecture/Daisy Chain/COML_CT*%
X157553450Y-95550001D02*
X156133450Y-95550001D01*
%TO.N,/Project Architecture/Temperature Sense/GPIO3*%
X138004997Y-76519999D02*
X138004997Y-77464999D01*
%TO.N,/Project Architecture/Daisy Chain/COMH_WP*%
X155963451Y-83518499D02*
X157553450Y-81928500D01*
X151604100Y-83518499D02*
X155963451Y-83518499D01*
X151604100Y-83518499D02*
X150410000Y-83518499D01*
%TO.N,/Project Architecture/Daisy Chain/COMH_CT*%
X156180000Y-84468500D02*
X157553450Y-84468500D01*
%TO.N,/Project Architecture/Daisy Chain/COMH_WN*%
X151604100Y-85418501D02*
X155963451Y-85418501D01*
X150410000Y-85418501D02*
X151604100Y-85418501D01*
X155963451Y-85418501D02*
X157553450Y-87008500D01*
%TO.N,/Project Architecture/Connectors/COMH.N*%
X167293500Y-84725000D02*
X169475000Y-84725000D01*
X165846550Y-87008500D02*
X165846550Y-86171950D01*
X169475000Y-84725000D02*
X170750000Y-85999999D01*
X165846550Y-86171950D02*
X167293500Y-84725000D01*
%TO.N,/Project Architecture/Connectors/COMH.P*%
X165846550Y-81928500D02*
X165846550Y-82815050D01*
X165846550Y-82815050D02*
X167306500Y-84275000D01*
X167306500Y-84275000D02*
X169475000Y-84275000D01*
X169475000Y-84275000D02*
X170750000Y-83000000D01*
%TO.N,/Project Architecture/Cell Sense & Balance/VC0*%
X143050000Y-98800000D02*
X143050000Y-100300000D01*
X143710000Y-98140000D02*
X143050000Y-98800000D01*
D43*
X135350000Y-108000000D02*
X143050000Y-100300000D01*
D42*
X143710000Y-93390000D02*
X143710000Y-98140000D01*
X141749998Y-92899999D02*
X143219999Y-92899999D01*
D43*
X119650000Y-108000000D02*
X135350000Y-108000000D01*
D42*
X143219999Y-92899999D02*
X143710000Y-93390000D01*
%TO.N,/Project Architecture/Cell Sense & Balance/VC6*%
X134999998Y-97425318D02*
X135199999Y-97225316D01*
D43*
X129750000Y-104300000D02*
X133750000Y-100300000D01*
D42*
X134904376Y-97572680D02*
X134999998Y-97477058D01*
X135199999Y-97216934D02*
X135299998Y-97116935D01*
D43*
X126444366Y-104300000D02*
X129750000Y-104300000D01*
D42*
X135299998Y-97116935D02*
X135299998Y-95849998D01*
X134904376Y-98039028D02*
X134904376Y-97572680D01*
D43*
X123700000Y-84612500D02*
X123700000Y-101555636D01*
D42*
X134999998Y-97477058D02*
X134999998Y-97425318D01*
D43*
X123700000Y-101555636D02*
X126444366Y-104300000D01*
D42*
X133750000Y-98800000D02*
X134143404Y-98800000D01*
X133750000Y-98800000D02*
X133750000Y-100300000D01*
X134143404Y-98800000D02*
X134904376Y-98039028D01*
D43*
X119650000Y-80562500D02*
X123700000Y-84612500D01*
D42*
X135199999Y-97225316D02*
X135199999Y-97216934D01*
%TO.N,/Project Architecture/Cell Sense & Balance/VC5*%
D43*
X126216549Y-104850000D02*
X130750000Y-104850000D01*
D42*
X136135291Y-97420395D02*
X136135291Y-97964709D01*
D43*
X119650000Y-85187500D02*
X123150000Y-88687500D01*
X123150000Y-88687500D02*
X123150000Y-101783454D01*
D42*
X135300000Y-98800000D02*
X135300000Y-100300000D01*
D43*
X123150000Y-101783454D02*
X126216549Y-104850000D01*
D42*
X136135291Y-97964709D02*
X135300000Y-98800000D01*
D43*
X130750000Y-104850000D02*
X135300000Y-100300000D01*
D42*
X136299999Y-95849998D02*
X136299999Y-97255687D01*
X136299999Y-97255687D02*
X136135291Y-97420395D01*
%TO.N,/Project Architecture/Cell Sense & Balance/TAP4*%
D41*
X112850000Y-89812500D02*
X110537500Y-87500000D01*
X118000000Y-89812500D02*
X112850000Y-89812500D01*
%TO.N,/Project Architecture/Cell Sense & Balance/VC4*%
D42*
X137399998Y-97391386D02*
X137299999Y-97291387D01*
D43*
X125988732Y-105400000D02*
X131750000Y-105400000D01*
D42*
X136850000Y-98800000D02*
X136850000Y-100300000D01*
D43*
X119650000Y-89812500D02*
X122600000Y-92762500D01*
D42*
X137299999Y-97291387D02*
X137299999Y-95849998D01*
D43*
X122600000Y-102011272D02*
X125988732Y-105400000D01*
D42*
X137399998Y-98250002D02*
X137399998Y-97391386D01*
D43*
X122600000Y-92762500D02*
X122600000Y-102011272D01*
X131750000Y-105400000D02*
X136850000Y-100300000D01*
D42*
X136850000Y-98800000D02*
X137399998Y-98250002D01*
%TO.N,/Project Architecture/Daisy Chain/U1_COMHN*%
X146514344Y-84568500D02*
X145600000Y-85482844D01*
X141749998Y-89399998D02*
X141849998Y-89299998D01*
X147090000Y-84568500D02*
X146514344Y-84568500D01*
X147400000Y-84878500D02*
X147090000Y-84568500D01*
X147909999Y-84878500D02*
X148450000Y-85418501D01*
X147450000Y-84878500D02*
X147400000Y-84878500D01*
X147450000Y-84878500D02*
X147909999Y-84878500D01*
X145600000Y-85482844D02*
X145600000Y-87500000D01*
X141799997Y-89349999D02*
X141749998Y-89399998D01*
X143750001Y-89349999D02*
X141799997Y-89349999D01*
X145600000Y-87500000D02*
X143750001Y-89349999D01*
X149390000Y-85418501D02*
X148450000Y-85418501D01*
%TO.N,/Project Architecture/Daisy Chain/U1_COMLP*%
X146467157Y-95750001D02*
X145100000Y-94382844D01*
X142349999Y-90399999D02*
X141749998Y-90399999D01*
X147453450Y-96060001D02*
X147403450Y-96060001D01*
X147093450Y-95750001D02*
X146467157Y-95750001D01*
X142399999Y-90349999D02*
X142349999Y-90399999D01*
X145100000Y-94382844D02*
X145100000Y-91800000D01*
X149343450Y-96500002D02*
X148453450Y-96500002D01*
X147403450Y-96060001D02*
X147093450Y-95750001D01*
X147453450Y-96060001D02*
X148013449Y-96060001D01*
X143649999Y-90349999D02*
X142399999Y-90349999D01*
X148013449Y-96060001D02*
X148453450Y-96500002D01*
X145100000Y-91800000D02*
X143649999Y-90349999D01*
%TO.N,/Project Architecture/Cell Sense & Balance/CB4*%
D44*
X136800000Y-95849998D02*
X136800000Y-97716284D01*
X136800000Y-97716284D02*
X136808716Y-97725000D01*
%TO.N,/Project Architecture/Cell Sense & Balance/VC3*%
D43*
X125760910Y-105950000D02*
X132750000Y-105950000D01*
X122050000Y-96837500D02*
X122050000Y-102239090D01*
D42*
X138583752Y-98616248D02*
X138400000Y-98800000D01*
X138300000Y-97149293D02*
X138583752Y-97433045D01*
D43*
X132750000Y-105950000D02*
X138400000Y-100300000D01*
D42*
X138400000Y-98800000D02*
X138400000Y-100300000D01*
X138300000Y-95849998D02*
X138300000Y-97149293D01*
X138583752Y-97433045D02*
X138583752Y-98616248D01*
D43*
X122050000Y-102239090D02*
X125760910Y-105950000D01*
X119650000Y-94437500D02*
X122050000Y-96837500D01*
%TO.N,/Project Architecture/Connectors/T_P7*%
D42*
X153120000Y-75499999D02*
X151840000Y-75499999D01*
X151840000Y-72839998D02*
X151000001Y-71999999D01*
X151840000Y-75499999D02*
X151840000Y-72839998D01*
%TO.N,/Project Architecture/Connectors/T_P6*%
X148999997Y-75500000D02*
X148999997Y-72999994D01*
X148999997Y-75500000D02*
X147724997Y-75500000D01*
X148999997Y-72999994D02*
X148000002Y-71999999D01*
%TO.N,/Project Architecture/Connectors/T_P5*%
X145000002Y-71999999D02*
X145000002Y-75429998D01*
X146199997Y-75500000D02*
X144930000Y-75500000D01*
X145000002Y-75429998D02*
X144930000Y-75500000D01*
%TO.N,/Project Architecture/Cell Sense & Balance/TAP2*%
D41*
X118000000Y-99062500D02*
X112850000Y-99062500D01*
X112850000Y-99062500D02*
X110537500Y-96750000D01*
%TO.N,/Project Architecture/Cell Sense & Balance/VC2*%
D43*
X133750000Y-106500000D02*
X139950000Y-100300000D01*
X119650000Y-99062500D02*
X119650000Y-100616907D01*
D42*
X139950000Y-98800000D02*
X139950000Y-100300000D01*
X139950000Y-97411955D02*
X139300000Y-96761955D01*
X139950000Y-98800000D02*
X139950000Y-97411955D01*
X139300000Y-96761955D02*
X139300000Y-95849998D01*
D43*
X119650000Y-100616907D02*
X125533093Y-106500000D01*
X125533093Y-106500000D02*
X133750000Y-106500000D01*
%TO.N,/Project Architecture/Cell Sense & Balance/TAP3*%
D41*
X118000000Y-94437500D02*
X112850000Y-94437500D01*
X112850000Y-94437500D02*
X110537500Y-92125000D01*
%TO.N,/Project Architecture/Cell Sense & Balance/TAP7*%
X112850000Y-75937500D02*
X110537500Y-73625000D01*
X118000000Y-75937500D02*
X112850000Y-75937500D01*
%TO.N,/Project Architecture/Cell Sense & Balance/TAP6*%
X112850000Y-80562500D02*
X110537500Y-78250000D01*
X118000000Y-80562500D02*
X112850000Y-80562500D01*
X110500000Y-78981150D02*
X110500000Y-77820000D01*
%TO.N,/Project Architecture/Cell Sense & Balance/CB7*%
D44*
X133799998Y-95849998D02*
X133799998Y-96900002D01*
X133799998Y-96900002D02*
X132886546Y-97813454D01*
X132886546Y-97813454D02*
X132803985Y-97813454D01*
%TO.N,/Project Architecture/Temperature Sense/GPIO6*%
D42*
X148999997Y-76520000D02*
X148999997Y-77440000D01*
%TO.N,/Project Architecture/Cell Sense & Balance/VC7*%
X132200000Y-98800000D02*
X132200000Y-100300000D01*
X132597014Y-98800000D02*
X133457985Y-97939029D01*
X133457985Y-97939029D02*
X133457985Y-97827701D01*
X134300000Y-96985686D02*
X134300000Y-95849998D01*
D43*
X124250000Y-80537500D02*
X124250000Y-101327818D01*
D42*
X133457985Y-97827701D02*
X134300000Y-96985686D01*
D43*
X129327818Y-103750000D02*
X132200000Y-100877818D01*
X126672183Y-103750000D02*
X129327818Y-103750000D01*
X132200000Y-100877818D02*
X132200000Y-100300000D01*
X124250000Y-101327818D02*
X126672183Y-103750000D01*
X119650000Y-75937500D02*
X124250000Y-80537500D01*
D42*
X132200000Y-98800000D02*
X132597014Y-98800000D01*
%TO.N,/Project Architecture/Cell Sense & Balance/CB6*%
D44*
X134599998Y-97311373D02*
X134347061Y-97564310D01*
X134799999Y-95849998D02*
X134799999Y-97059631D01*
X134347061Y-97564310D02*
X134347061Y-97809670D01*
X134799999Y-97059631D02*
X134599998Y-97259632D01*
X134599998Y-97259632D02*
X134599998Y-97311373D01*
%TO.N,/Project Architecture/Temperature Sense/GPIO7*%
D42*
X151840000Y-76519999D02*
X151840000Y-77439999D01*
%TO.N,/Project Architecture/Cell Sense & Balance/CB2*%
D44*
X138799999Y-95849998D02*
X138799999Y-97083606D01*
X139400059Y-97683666D02*
X139400059Y-97786910D01*
X138799999Y-97083606D02*
X139400059Y-97683666D01*
%TO.N,/Project Architecture/Cell Sense & Balance/CB3*%
X137799998Y-97523286D02*
X138016981Y-97740269D01*
X137799998Y-95849998D02*
X137799998Y-97523286D01*
%TD*%
%TA.AperFunction,Conductor*%
%TO.N,/Project Architecture/GND*%
G36*
X158193039Y-65320185D02*
G01*
X158238794Y-65372989D01*
X158250000Y-65424500D01*
X158250000Y-79060010D01*
X158230315Y-79127049D01*
X158177511Y-79172804D01*
X158126000Y-79184010D01*
X147000000Y-79184010D01*
X147000000Y-83470443D01*
X146988382Y-83522849D01*
X146963147Y-83576964D01*
X146938448Y-83612237D01*
X146919007Y-83631679D01*
X146857685Y-83665166D01*
X146831324Y-83668000D01*
X146282764Y-83668000D01*
X146155468Y-83702108D01*
X146041342Y-83768000D01*
X146041339Y-83768002D01*
X144799502Y-85009839D01*
X144799500Y-85009842D01*
X144733608Y-85123968D01*
X144699500Y-85251264D01*
X144699500Y-87141324D01*
X144679815Y-87208363D01*
X144663181Y-87229005D01*
X143249503Y-88642682D01*
X143244553Y-88649134D01*
X143242193Y-88647323D01*
X143201921Y-88685719D01*
X143145108Y-88699499D01*
X142774046Y-88699499D01*
X142707007Y-88679814D01*
X142661252Y-88627010D01*
X142651906Y-88570912D01*
X142650498Y-88570912D01*
X142650498Y-88235180D01*
X142649517Y-88230249D01*
X142641765Y-88191278D01*
X142641764Y-88191276D01*
X142639382Y-88179302D01*
X142642308Y-88178719D01*
X142636849Y-88127998D01*
X142640198Y-88116591D01*
X142641763Y-88108722D01*
X142641765Y-88108720D01*
X142645022Y-88092344D01*
X142677404Y-88030437D01*
X142723310Y-88000354D01*
X142742090Y-87993350D01*
X142857185Y-87907189D01*
X142857188Y-87907186D01*
X142943348Y-87792092D01*
X142943352Y-87792085D01*
X142993594Y-87657378D01*
X142993596Y-87657371D01*
X142999997Y-87597843D01*
X142999998Y-87597826D01*
X142999998Y-87549998D01*
X141873998Y-87549998D01*
X141806959Y-87530313D01*
X141761204Y-87477509D01*
X141749998Y-87425998D01*
X141749998Y-87374000D01*
X141769683Y-87306961D01*
X141822487Y-87261206D01*
X141873998Y-87250000D01*
X142999998Y-87250000D01*
X142999998Y-87202171D01*
X142999997Y-87202154D01*
X142993596Y-87142626D01*
X142993594Y-87142619D01*
X142943352Y-87007912D01*
X142943348Y-87007905D01*
X142857188Y-86892811D01*
X142857185Y-86892808D01*
X142742090Y-86806647D01*
X142742086Y-86806645D01*
X142723303Y-86799639D01*
X142667371Y-86757766D01*
X142645023Y-86707651D01*
X142639383Y-86679298D01*
X142642309Y-86678715D01*
X142636850Y-86627996D01*
X142640197Y-86616595D01*
X142641762Y-86608724D01*
X142641765Y-86608721D01*
X142650498Y-86564819D01*
X142650498Y-86235179D01*
X142650498Y-86235176D01*
X142641766Y-86191281D01*
X142641765Y-86191280D01*
X142641765Y-86191277D01*
X142608502Y-86141495D01*
X142575837Y-86119669D01*
X142558722Y-86108233D01*
X142558715Y-86108230D01*
X142514820Y-86099499D01*
X142514818Y-86099499D01*
X140985178Y-86099499D01*
X140985176Y-86099499D01*
X140941280Y-86108230D01*
X140941273Y-86108233D01*
X140891494Y-86141494D01*
X140891493Y-86141495D01*
X140858232Y-86191274D01*
X140858229Y-86191281D01*
X140849498Y-86235176D01*
X140849498Y-86235179D01*
X140849498Y-86564819D01*
X140849498Y-86564821D01*
X140849497Y-86564821D01*
X140860613Y-86620699D01*
X140857687Y-86621281D01*
X140863139Y-86672023D01*
X140859792Y-86683421D01*
X140854971Y-86707655D01*
X140822584Y-86769565D01*
X140776694Y-86799639D01*
X140757906Y-86806647D01*
X140748307Y-86813833D01*
X140682842Y-86838248D01*
X140614569Y-86823395D01*
X140565165Y-86773988D01*
X140549999Y-86714564D01*
X140549999Y-86102171D01*
X140549998Y-86102154D01*
X140543597Y-86042626D01*
X140543595Y-86042619D01*
X140493353Y-85907912D01*
X140493349Y-85907905D01*
X140407189Y-85792811D01*
X140407186Y-85792808D01*
X140292092Y-85706648D01*
X140292085Y-85706644D01*
X140157378Y-85656402D01*
X140157371Y-85656400D01*
X140097843Y-85649999D01*
X139985434Y-85649999D01*
X139918395Y-85630314D01*
X139872640Y-85577510D01*
X139862696Y-85508352D01*
X139886157Y-85451701D01*
X139888132Y-85449062D01*
X139944060Y-85407184D01*
X139963951Y-85402588D01*
X139963773Y-85401689D01*
X140028228Y-85388868D01*
X140028228Y-85388867D01*
X140028230Y-85388867D01*
X140094551Y-85344552D01*
X140138866Y-85278231D01*
X140138866Y-85278229D01*
X140138867Y-85278229D01*
X140150498Y-85219752D01*
X140150499Y-85219750D01*
X140150499Y-83680249D01*
X140150498Y-83680247D01*
X140138867Y-83621770D01*
X140138866Y-83621769D01*
X140094551Y-83555447D01*
X140028229Y-83511132D01*
X140028228Y-83511131D01*
X139963773Y-83498311D01*
X139964305Y-83495635D01*
X139910409Y-83473835D01*
X139888143Y-83450950D01*
X139807190Y-83342812D01*
X139807187Y-83342809D01*
X139692093Y-83256649D01*
X139692086Y-83256645D01*
X139557379Y-83206403D01*
X139557372Y-83206401D01*
X139497844Y-83200000D01*
X139449999Y-83200000D01*
X139449999Y-83669084D01*
X139448508Y-83674161D01*
X139449499Y-83674161D01*
X139449499Y-84326000D01*
X139429814Y-84393039D01*
X139377010Y-84438794D01*
X139325499Y-84450000D01*
X139274499Y-84450000D01*
X139207460Y-84430315D01*
X139161705Y-84377511D01*
X139150499Y-84326000D01*
X139150499Y-83679240D01*
X139150001Y-83669104D01*
X139150001Y-83200000D01*
X139102155Y-83200000D01*
X139042627Y-83206401D01*
X139042620Y-83206403D01*
X138907913Y-83256645D01*
X138907906Y-83256649D01*
X138792812Y-83342809D01*
X138792809Y-83342812D01*
X138711857Y-83450950D01*
X138655923Y-83492821D01*
X138636047Y-83497426D01*
X138636224Y-83498312D01*
X138574189Y-83510651D01*
X138525808Y-83510650D01*
X138469752Y-83499500D01*
X138469748Y-83499500D01*
X138130252Y-83499500D01*
X138074189Y-83510651D01*
X138025809Y-83510651D01*
X137969746Y-83499500D01*
X137630250Y-83499500D01*
X137574188Y-83510651D01*
X137525807Y-83510650D01*
X137469751Y-83499500D01*
X137469747Y-83499500D01*
X137130251Y-83499500D01*
X137074189Y-83510651D01*
X137025808Y-83510650D01*
X136969752Y-83499500D01*
X136969748Y-83499500D01*
X136630252Y-83499500D01*
X136574189Y-83510651D01*
X136525809Y-83510651D01*
X136469747Y-83499500D01*
X136130251Y-83499500D01*
X136074189Y-83510651D01*
X136025809Y-83510651D01*
X135969747Y-83499500D01*
X135630251Y-83499500D01*
X135574188Y-83510651D01*
X135525808Y-83510651D01*
X135469746Y-83499500D01*
X135130250Y-83499500D01*
X135074188Y-83510651D01*
X135025807Y-83510650D01*
X134969751Y-83499500D01*
X134969747Y-83499500D01*
X134630251Y-83499500D01*
X134574189Y-83510651D01*
X134525808Y-83510650D01*
X134469752Y-83499500D01*
X134469748Y-83499500D01*
X134130252Y-83499500D01*
X134074189Y-83510651D01*
X134025809Y-83510651D01*
X133969746Y-83499500D01*
X133630250Y-83499500D01*
X133574188Y-83510651D01*
X133525807Y-83510650D01*
X133469751Y-83499500D01*
X133469747Y-83499500D01*
X133130251Y-83499500D01*
X133074188Y-83510651D01*
X133025808Y-83510651D01*
X132969746Y-83499500D01*
X132630250Y-83499500D01*
X132574188Y-83510651D01*
X132525807Y-83510650D01*
X132469751Y-83499500D01*
X132469747Y-83499500D01*
X132130251Y-83499500D01*
X132130246Y-83499500D01*
X132071769Y-83511131D01*
X132071768Y-83511132D01*
X132005446Y-83555447D01*
X131961131Y-83621769D01*
X131961130Y-83621770D01*
X131949499Y-83680247D01*
X131949499Y-85219752D01*
X131961130Y-85278229D01*
X131961131Y-85278230D01*
X132005446Y-85344552D01*
X132071768Y-85388867D01*
X132071769Y-85388868D01*
X132130246Y-85400499D01*
X132130249Y-85400500D01*
X132130251Y-85400500D01*
X132469748Y-85400500D01*
X132500480Y-85394386D01*
X132525807Y-85389349D01*
X132574190Y-85389349D01*
X132630247Y-85400500D01*
X132630250Y-85400500D01*
X132969747Y-85400500D01*
X132984405Y-85397583D01*
X133025806Y-85389349D01*
X133074187Y-85389349D01*
X133130246Y-85400499D01*
X133130249Y-85400500D01*
X133130251Y-85400500D01*
X133469748Y-85400500D01*
X133500480Y-85394386D01*
X133525807Y-85389349D01*
X133574190Y-85389349D01*
X133630247Y-85400500D01*
X133630250Y-85400500D01*
X133969748Y-85400500D01*
X134025807Y-85389349D01*
X134074191Y-85389349D01*
X134130249Y-85400500D01*
X134130252Y-85400500D01*
X134469749Y-85400500D01*
X134500481Y-85394386D01*
X134525808Y-85389349D01*
X134574191Y-85389349D01*
X134630248Y-85400500D01*
X134630251Y-85400500D01*
X134969748Y-85400500D01*
X135000480Y-85394386D01*
X135025807Y-85389349D01*
X135074190Y-85389349D01*
X135130247Y-85400500D01*
X135130250Y-85400500D01*
X135469747Y-85400500D01*
X135484405Y-85397583D01*
X135525806Y-85389349D01*
X135574187Y-85389349D01*
X135630246Y-85400499D01*
X135630249Y-85400500D01*
X135630251Y-85400500D01*
X135969749Y-85400500D01*
X136025807Y-85389349D01*
X136074191Y-85389349D01*
X136130248Y-85400500D01*
X136130251Y-85400500D01*
X136469748Y-85400500D01*
X136484406Y-85397583D01*
X136525807Y-85389349D01*
X136574188Y-85389349D01*
X136630247Y-85400499D01*
X136630250Y-85400500D01*
X136630252Y-85400500D01*
X136969749Y-85400500D01*
X137000481Y-85394386D01*
X137025808Y-85389349D01*
X137074191Y-85389349D01*
X137130248Y-85400500D01*
X137130251Y-85400500D01*
X137469748Y-85400500D01*
X137500480Y-85394386D01*
X137525807Y-85389349D01*
X137574190Y-85389349D01*
X137630247Y-85400500D01*
X137630250Y-85400500D01*
X137969748Y-85400500D01*
X138025807Y-85389349D01*
X138074191Y-85389349D01*
X138130249Y-85400500D01*
X138130252Y-85400500D01*
X138469749Y-85400500D01*
X138500481Y-85394386D01*
X138525808Y-85389349D01*
X138574191Y-85389349D01*
X138636226Y-85401689D01*
X138635684Y-85404412D01*
X138689384Y-85426000D01*
X138711868Y-85449062D01*
X138713843Y-85451701D01*
X138738251Y-85517169D01*
X138723391Y-85585440D01*
X138673979Y-85634839D01*
X138614566Y-85649999D01*
X136299999Y-85649999D01*
X136299999Y-89899999D01*
X140549999Y-89899999D01*
X140549999Y-88085433D01*
X140569684Y-88018394D01*
X140622488Y-87972639D01*
X140691646Y-87962695D01*
X140748311Y-87986167D01*
X140757907Y-87993351D01*
X140776687Y-88000355D01*
X140832621Y-88042225D01*
X140854973Y-88092345D01*
X140860613Y-88120697D01*
X140857687Y-88121278D01*
X140863141Y-88172020D01*
X140859792Y-88183423D01*
X140849498Y-88235177D01*
X140849498Y-88235180D01*
X140849498Y-88564820D01*
X140849498Y-88564822D01*
X140849497Y-88564822D01*
X140860613Y-88620700D01*
X140857687Y-88621282D01*
X140863139Y-88672024D01*
X140859793Y-88683418D01*
X140849498Y-88735176D01*
X140849498Y-88735179D01*
X140849498Y-89064819D01*
X140849498Y-89064821D01*
X140849497Y-89064821D01*
X140860613Y-89120699D01*
X140857687Y-89121281D01*
X140863139Y-89172023D01*
X140859793Y-89183417D01*
X140849498Y-89235175D01*
X140849498Y-89235178D01*
X140849498Y-89564818D01*
X140849498Y-89564820D01*
X140849497Y-89564820D01*
X140860613Y-89620698D01*
X140857686Y-89621280D01*
X140863143Y-89672011D01*
X140859793Y-89683420D01*
X140849498Y-89735176D01*
X140849498Y-89735179D01*
X140849498Y-90064819D01*
X140849498Y-90064821D01*
X140849497Y-90064821D01*
X140860613Y-90120699D01*
X140857688Y-90121280D01*
X140863138Y-90172032D01*
X140859790Y-90183430D01*
X140854971Y-90207656D01*
X140822584Y-90269566D01*
X140776694Y-90299640D01*
X140757908Y-90306647D01*
X140666245Y-90375266D01*
X140600780Y-90399683D01*
X140591934Y-90399999D01*
X131549999Y-90399999D01*
X131549999Y-94197843D01*
X131556400Y-94257371D01*
X131556402Y-94257378D01*
X131606644Y-94392085D01*
X131606648Y-94392092D01*
X131692808Y-94507186D01*
X131692811Y-94507189D01*
X131807905Y-94593349D01*
X131807912Y-94593353D01*
X131942619Y-94643595D01*
X131942626Y-94643597D01*
X132002154Y-94649998D01*
X132002171Y-94649999D01*
X132375664Y-94649999D01*
X132442703Y-94669684D01*
X132488458Y-94722488D01*
X132498402Y-94791646D01*
X132469377Y-94855202D01*
X132463345Y-94861680D01*
X132461846Y-94863179D01*
X132400523Y-94896664D01*
X132374165Y-94899498D01*
X132130246Y-94899498D01*
X132071769Y-94911129D01*
X132071768Y-94911130D01*
X132005446Y-94955445D01*
X131961131Y-95021767D01*
X131961130Y-95021768D01*
X131949499Y-95080245D01*
X131949499Y-96619750D01*
X131961130Y-96678227D01*
X131961131Y-96678228D01*
X132005446Y-96744550D01*
X132071768Y-96788865D01*
X132071769Y-96788866D01*
X132130246Y-96800497D01*
X132130249Y-96800498D01*
X132130251Y-96800498D01*
X132245879Y-96800498D01*
X132312918Y-96820183D01*
X132358673Y-96872987D01*
X132368617Y-96942145D01*
X132339592Y-97005701D01*
X132333560Y-97012179D01*
X131202553Y-98143184D01*
X131141230Y-98176669D01*
X131071538Y-98171685D01*
X131058590Y-98165993D01*
X131008126Y-98140281D01*
X131008124Y-98140280D01*
X131008121Y-98140279D01*
X130908493Y-98124500D01*
X130908488Y-98124500D01*
X130391512Y-98124500D01*
X130391507Y-98124500D01*
X130291878Y-98140279D01*
X130171778Y-98201473D01*
X130171774Y-98201476D01*
X130076476Y-98296774D01*
X130076473Y-98296778D01*
X130015279Y-98416878D01*
X129999500Y-98516506D01*
X129999500Y-99083493D01*
X130015279Y-99183121D01*
X130015280Y-99183124D01*
X130015281Y-99183126D01*
X130076472Y-99303220D01*
X130076473Y-99303221D01*
X130076476Y-99303225D01*
X130171774Y-99398523D01*
X130171777Y-99398525D01*
X130171780Y-99398528D01*
X130256795Y-99441845D01*
X130307590Y-99489818D01*
X130324500Y-99552329D01*
X130324500Y-101463811D01*
X130304815Y-101530850D01*
X130288181Y-101551492D01*
X129001492Y-102838181D01*
X128940169Y-102871666D01*
X128913811Y-102874500D01*
X127086189Y-102874500D01*
X127019150Y-102854815D01*
X126998508Y-102838181D01*
X125161819Y-101001492D01*
X125128334Y-100940169D01*
X125125500Y-100913811D01*
X125125500Y-99098322D01*
X126600001Y-99098322D01*
X126610144Y-99197607D01*
X126663452Y-99358481D01*
X126663457Y-99358492D01*
X126752424Y-99502728D01*
X126752427Y-99502732D01*
X126872267Y-99622572D01*
X126872271Y-99622575D01*
X127016507Y-99711542D01*
X127016518Y-99711547D01*
X127177393Y-99764855D01*
X127276683Y-99774999D01*
X127800000Y-99774999D01*
X127823308Y-99774999D01*
X127823322Y-99774998D01*
X127922607Y-99764855D01*
X128083481Y-99711547D01*
X128083492Y-99711542D01*
X128227728Y-99622575D01*
X128227732Y-99622572D01*
X128347573Y-99502731D01*
X128409606Y-99402160D01*
X128461554Y-99355435D01*
X128530516Y-99344212D01*
X128594599Y-99372056D01*
X128602826Y-99379575D01*
X128621774Y-99398523D01*
X128621778Y-99398526D01*
X128621780Y-99398528D01*
X128741874Y-99459719D01*
X128741876Y-99459719D01*
X128741878Y-99459720D01*
X128841507Y-99475500D01*
X128841512Y-99475500D01*
X129358493Y-99475500D01*
X129458121Y-99459720D01*
X129458121Y-99459719D01*
X129458126Y-99459719D01*
X129578220Y-99398528D01*
X129673528Y-99303220D01*
X129734719Y-99183126D01*
X129748153Y-99098309D01*
X129750500Y-99083493D01*
X129750500Y-98516506D01*
X129734720Y-98416878D01*
X129734719Y-98416876D01*
X129734719Y-98416874D01*
X129673528Y-98296780D01*
X129673526Y-98296778D01*
X129673523Y-98296774D01*
X129578225Y-98201476D01*
X129578221Y-98201473D01*
X129578220Y-98201472D01*
X129458126Y-98140281D01*
X129458124Y-98140280D01*
X129458121Y-98140279D01*
X129358493Y-98124500D01*
X129358488Y-98124500D01*
X128841512Y-98124500D01*
X128841507Y-98124500D01*
X128741878Y-98140279D01*
X128621778Y-98201473D01*
X128602825Y-98220426D01*
X128541501Y-98253910D01*
X128471809Y-98248924D01*
X128415876Y-98207052D01*
X128409606Y-98197840D01*
X128347571Y-98097266D01*
X128227732Y-97977427D01*
X128227728Y-97977424D01*
X128083492Y-97888457D01*
X128083481Y-97888452D01*
X127922606Y-97835144D01*
X127823322Y-97825000D01*
X127800000Y-97825000D01*
X127800000Y-99774999D01*
X127276683Y-99774999D01*
X127300000Y-99774998D01*
X127300000Y-99050000D01*
X126600001Y-99050000D01*
X126600001Y-99098322D01*
X125125500Y-99098322D01*
X125125500Y-98501677D01*
X126600000Y-98501677D01*
X126600000Y-98550000D01*
X127300000Y-98550000D01*
X127300000Y-97824999D01*
X127276693Y-97825000D01*
X127276674Y-97825001D01*
X127177392Y-97835144D01*
X127016518Y-97888452D01*
X127016507Y-97888457D01*
X126872271Y-97977424D01*
X126872267Y-97977427D01*
X126752427Y-98097267D01*
X126752424Y-98097271D01*
X126663457Y-98241507D01*
X126663452Y-98241518D01*
X126610144Y-98402393D01*
X126600000Y-98501677D01*
X125125500Y-98501677D01*
X125125500Y-86230246D01*
X129399500Y-86230246D01*
X129399500Y-86569751D01*
X129410650Y-86625807D01*
X129410651Y-86674188D01*
X129399500Y-86730250D01*
X129399500Y-87069745D01*
X129410651Y-87125808D01*
X129410651Y-87174188D01*
X129399500Y-87230251D01*
X129399500Y-87569751D01*
X129410650Y-87625807D01*
X129410651Y-87674188D01*
X129399500Y-87730250D01*
X129399500Y-88069746D01*
X129402121Y-88082925D01*
X129410651Y-88125809D01*
X129410651Y-88174189D01*
X129399500Y-88230252D01*
X129399500Y-88569752D01*
X129410650Y-88625808D01*
X129410651Y-88674189D01*
X129399500Y-88730251D01*
X129399500Y-89069751D01*
X129410650Y-89125807D01*
X129410651Y-89174188D01*
X129399500Y-89230250D01*
X129399500Y-89569745D01*
X129410651Y-89625808D01*
X129410651Y-89674188D01*
X129408815Y-89683420D01*
X129399500Y-89730251D01*
X129399500Y-90069747D01*
X129403011Y-90087398D01*
X129410651Y-90125809D01*
X129410651Y-90174189D01*
X129399500Y-90230251D01*
X129399500Y-90569746D01*
X129410651Y-90625809D01*
X129410651Y-90674189D01*
X129399500Y-90730252D01*
X129399500Y-91069752D01*
X129410650Y-91125808D01*
X129410651Y-91174189D01*
X129399500Y-91230251D01*
X129399500Y-91569751D01*
X129410650Y-91625807D01*
X129410651Y-91674188D01*
X129399500Y-91730250D01*
X129399500Y-92069746D01*
X129401498Y-92079791D01*
X129410651Y-92125809D01*
X129410651Y-92174189D01*
X129399500Y-92230252D01*
X129399500Y-92569752D01*
X129410650Y-92625808D01*
X129410651Y-92674189D01*
X129399500Y-92730251D01*
X129399500Y-93069746D01*
X129410651Y-93125809D01*
X129410651Y-93174189D01*
X129399500Y-93230252D01*
X129399500Y-93569752D01*
X129410650Y-93625808D01*
X129410651Y-93674189D01*
X129399500Y-93730251D01*
X129399500Y-94069751D01*
X129411131Y-94128228D01*
X129411132Y-94128229D01*
X129455447Y-94194551D01*
X129521769Y-94238866D01*
X129521770Y-94238867D01*
X129580247Y-94250498D01*
X129580250Y-94250499D01*
X129580252Y-94250499D01*
X131119750Y-94250499D01*
X131119751Y-94250498D01*
X131134568Y-94247551D01*
X131178229Y-94238867D01*
X131178229Y-94238866D01*
X131178231Y-94238866D01*
X131244552Y-94194551D01*
X131288867Y-94128230D01*
X131288867Y-94128228D01*
X131288868Y-94128228D01*
X131300499Y-94069751D01*
X131300500Y-94069749D01*
X131300500Y-93730248D01*
X131289349Y-93674191D01*
X131289349Y-93625807D01*
X131300500Y-93569750D01*
X131300500Y-93230249D01*
X131300499Y-93230247D01*
X131289349Y-93174188D01*
X131289349Y-93125806D01*
X131300500Y-93069747D01*
X131300500Y-92730251D01*
X131300500Y-92730248D01*
X131289349Y-92674191D01*
X131289349Y-92625807D01*
X131300500Y-92569750D01*
X131300500Y-92230249D01*
X131289349Y-92174191D01*
X131289349Y-92125807D01*
X131300500Y-92069748D01*
X131300500Y-91730247D01*
X131289349Y-91674190D01*
X131289349Y-91625806D01*
X131300500Y-91569749D01*
X131300500Y-91230248D01*
X131289349Y-91174191D01*
X131289349Y-91125807D01*
X131300500Y-91069750D01*
X131300500Y-90730249D01*
X131300499Y-90730247D01*
X131289349Y-90674188D01*
X131289349Y-90625806D01*
X131300500Y-90569747D01*
X131300500Y-90230251D01*
X131300500Y-90230248D01*
X131289349Y-90174191D01*
X131289349Y-90125807D01*
X131300500Y-90069749D01*
X131300500Y-89730248D01*
X131300499Y-89730246D01*
X131289349Y-89674187D01*
X131289349Y-89625805D01*
X131300500Y-89569746D01*
X131300500Y-89230250D01*
X131300500Y-89230247D01*
X131289349Y-89174190D01*
X131289349Y-89125806D01*
X131300500Y-89069749D01*
X131300500Y-88730248D01*
X131289349Y-88674191D01*
X131289349Y-88625807D01*
X131300500Y-88569750D01*
X131300500Y-88230249D01*
X131289349Y-88174191D01*
X131289349Y-88125807D01*
X131300500Y-88069748D01*
X131300500Y-87730247D01*
X131289349Y-87674190D01*
X131289349Y-87625806D01*
X131300500Y-87569749D01*
X131300500Y-87230248D01*
X131300499Y-87230246D01*
X131289349Y-87174187D01*
X131289349Y-87125805D01*
X131300500Y-87069746D01*
X131300500Y-86730250D01*
X131300500Y-86730247D01*
X131289349Y-86674190D01*
X131289349Y-86625806D01*
X131300500Y-86569749D01*
X131300500Y-86230248D01*
X131300499Y-86230246D01*
X131288868Y-86171769D01*
X131286178Y-86167744D01*
X131286177Y-86167742D01*
X131286176Y-86167741D01*
X131244552Y-86105446D01*
X131239625Y-86102154D01*
X131549999Y-86102154D01*
X131549999Y-89899999D01*
X135799999Y-89899999D01*
X135799999Y-85649999D01*
X132002154Y-85649999D01*
X131942626Y-85656400D01*
X131942619Y-85656402D01*
X131807912Y-85706644D01*
X131807905Y-85706648D01*
X131692811Y-85792808D01*
X131692808Y-85792811D01*
X131606648Y-85907905D01*
X131606644Y-85907912D01*
X131556402Y-86042619D01*
X131556400Y-86042626D01*
X131549999Y-86102154D01*
X131239625Y-86102154D01*
X131178230Y-86061131D01*
X131178229Y-86061130D01*
X131119752Y-86049499D01*
X131119748Y-86049499D01*
X129580252Y-86049499D01*
X129580247Y-86049499D01*
X129521770Y-86061130D01*
X129521769Y-86061131D01*
X129455447Y-86105446D01*
X129411132Y-86171768D01*
X129411131Y-86171769D01*
X129399500Y-86230246D01*
X125125500Y-86230246D01*
X125125500Y-80798322D01*
X129250001Y-80798322D01*
X129260144Y-80897607D01*
X129313452Y-81058481D01*
X129313457Y-81058492D01*
X129402424Y-81202728D01*
X129402427Y-81202732D01*
X129522267Y-81322572D01*
X129522271Y-81322575D01*
X129666507Y-81411542D01*
X129666518Y-81411547D01*
X129827393Y-81464855D01*
X129926683Y-81474999D01*
X130450000Y-81474999D01*
X130473308Y-81474999D01*
X130473322Y-81474998D01*
X130572607Y-81464855D01*
X130733481Y-81411547D01*
X130733492Y-81411542D01*
X130877728Y-81322575D01*
X130877732Y-81322572D01*
X130997573Y-81202731D01*
X131059606Y-81102160D01*
X131111554Y-81055435D01*
X131180516Y-81044212D01*
X131244599Y-81072056D01*
X131252826Y-81079575D01*
X131271774Y-81098523D01*
X131271778Y-81098526D01*
X131271780Y-81098528D01*
X131391874Y-81159719D01*
X131391876Y-81159719D01*
X131391878Y-81159720D01*
X131491507Y-81175500D01*
X131491512Y-81175500D01*
X132008493Y-81175500D01*
X132108121Y-81159720D01*
X132108121Y-81159719D01*
X132108126Y-81159719D01*
X132228220Y-81098528D01*
X132323528Y-81003220D01*
X132384719Y-80883126D01*
X132385564Y-80877792D01*
X132400500Y-80783493D01*
X132400500Y-80216506D01*
X132384720Y-80116878D01*
X132384719Y-80116876D01*
X132384719Y-80116874D01*
X132323528Y-79996780D01*
X132323526Y-79996778D01*
X132323523Y-79996774D01*
X132289349Y-79962600D01*
X133828501Y-79962600D01*
X133828501Y-81537400D01*
X133923101Y-81537400D01*
X133990140Y-81557085D01*
X134035895Y-81609889D01*
X134047101Y-81661400D01*
X134047101Y-82217552D01*
X134058732Y-82276029D01*
X134058733Y-82276030D01*
X134103048Y-82342352D01*
X134169370Y-82386667D01*
X134169371Y-82386668D01*
X134227848Y-82398299D01*
X134227851Y-82398300D01*
X134227853Y-82398300D01*
X134572151Y-82398300D01*
X134572152Y-82398299D01*
X134586969Y-82395352D01*
X134630630Y-82386668D01*
X134630630Y-82386667D01*
X134630632Y-82386667D01*
X134696953Y-82342352D01*
X134741268Y-82276031D01*
X134741268Y-82276029D01*
X134741269Y-82276029D01*
X134752900Y-82217552D01*
X134752901Y-82217550D01*
X134752901Y-82095730D01*
X140649500Y-82095730D01*
X140649500Y-82854269D01*
X140652353Y-82884699D01*
X140652353Y-82884701D01*
X140697206Y-83012880D01*
X140697207Y-83012882D01*
X140777850Y-83122150D01*
X140887118Y-83202793D01*
X140929845Y-83217744D01*
X141015299Y-83247646D01*
X141045730Y-83250500D01*
X141045734Y-83250500D01*
X142454270Y-83250500D01*
X142484699Y-83247646D01*
X142484701Y-83247646D01*
X142548790Y-83225219D01*
X142612882Y-83202793D01*
X142722150Y-83122150D01*
X142802793Y-83012882D01*
X142825219Y-82948790D01*
X142847646Y-82884701D01*
X142847646Y-82884699D01*
X142850500Y-82854269D01*
X142850500Y-82095730D01*
X142847646Y-82065300D01*
X142847646Y-82065298D01*
X142802793Y-81937119D01*
X142802792Y-81937117D01*
X142722150Y-81827850D01*
X142612882Y-81747207D01*
X142612880Y-81747206D01*
X142484700Y-81702353D01*
X142454270Y-81699500D01*
X142454266Y-81699500D01*
X141045734Y-81699500D01*
X141045730Y-81699500D01*
X141015300Y-81702353D01*
X141015298Y-81702353D01*
X140887119Y-81747206D01*
X140887117Y-81747207D01*
X140777850Y-81827850D01*
X140697207Y-81937117D01*
X140697206Y-81937119D01*
X140652353Y-82065298D01*
X140652353Y-82065300D01*
X140649500Y-82095730D01*
X134752901Y-82095730D01*
X134752901Y-81661400D01*
X134772586Y-81594361D01*
X134825390Y-81548606D01*
X134876901Y-81537400D01*
X134971501Y-81537400D01*
X134971501Y-80524986D01*
X136550001Y-80524986D01*
X136560494Y-80627697D01*
X136615641Y-80794119D01*
X136615643Y-80794124D01*
X136707684Y-80943345D01*
X136831654Y-81067315D01*
X136980875Y-81159356D01*
X136980880Y-81159358D01*
X137147302Y-81214505D01*
X137147309Y-81214506D01*
X137250019Y-81224999D01*
X137299999Y-81224998D01*
X137300000Y-81224998D01*
X137300000Y-80250000D01*
X136550001Y-80250000D01*
X136550001Y-80524986D01*
X134971501Y-80524986D01*
X134971501Y-79962600D01*
X134876901Y-79962600D01*
X134809862Y-79942915D01*
X134764107Y-79890111D01*
X134752901Y-79838600D01*
X134752901Y-79475013D01*
X136550000Y-79475013D01*
X136550000Y-79750000D01*
X137300000Y-79750000D01*
X137300000Y-78775000D01*
X137800000Y-78775000D01*
X137800000Y-81224999D01*
X137849972Y-81224999D01*
X137849986Y-81224998D01*
X137952697Y-81214505D01*
X138119119Y-81159358D01*
X138119124Y-81159356D01*
X138268345Y-81067315D01*
X138392315Y-80943345D01*
X138484356Y-80794124D01*
X138484359Y-80794117D01*
X138540094Y-80625918D01*
X138579866Y-80568473D01*
X138644382Y-80541649D01*
X138713158Y-80553964D01*
X138764358Y-80601506D01*
X138774841Y-80623965D01*
X138784410Y-80651310D01*
X138797207Y-80687882D01*
X138877850Y-80797150D01*
X138987118Y-80877793D01*
X139026816Y-80891684D01*
X139115299Y-80922646D01*
X139145730Y-80925500D01*
X139145734Y-80925500D01*
X139754270Y-80925500D01*
X139784699Y-80922646D01*
X139784701Y-80922646D01*
X139848790Y-80900219D01*
X139912882Y-80877793D01*
X140022150Y-80797150D01*
X140102793Y-80687882D01*
X140133017Y-80601506D01*
X140147646Y-80559701D01*
X140147646Y-80559699D01*
X140150500Y-80529269D01*
X140150500Y-80137400D01*
X140170185Y-80070361D01*
X140222989Y-80024606D01*
X140292147Y-80014662D01*
X140355703Y-80043687D01*
X140392206Y-80098396D01*
X140415641Y-80169119D01*
X140415643Y-80169124D01*
X140507684Y-80318345D01*
X140631654Y-80442315D01*
X140780875Y-80534356D01*
X140780880Y-80534358D01*
X140947302Y-80589505D01*
X140947309Y-80589506D01*
X141050019Y-80599999D01*
X141499999Y-80599999D01*
X141500000Y-80599998D01*
X141500000Y-79775000D01*
X142000000Y-79775000D01*
X142000000Y-80599999D01*
X142449972Y-80599999D01*
X142449986Y-80599998D01*
X142552697Y-80589505D01*
X142719119Y-80534358D01*
X142719124Y-80534356D01*
X142868342Y-80442317D01*
X142978318Y-80332341D01*
X143039641Y-80298856D01*
X143109333Y-80303840D01*
X143165267Y-80345711D01*
X143189684Y-80411175D01*
X143190000Y-80420020D01*
X143190000Y-80474624D01*
X143190001Y-80474647D01*
X143192854Y-80510910D01*
X143237969Y-80666196D01*
X143320278Y-80805374D01*
X143320285Y-80805383D01*
X143434616Y-80919714D01*
X143440785Y-80924499D01*
X143439265Y-80926457D01*
X143478625Y-80968599D01*
X143491139Y-81037339D01*
X143490769Y-81040461D01*
X143489500Y-81050101D01*
X143489500Y-81409894D01*
X143489501Y-81409900D01*
X143496028Y-81459487D01*
X143496029Y-81459489D01*
X143496029Y-81459490D01*
X143532639Y-81538000D01*
X143546776Y-81568316D01*
X143631684Y-81653224D01*
X143740513Y-81703972D01*
X143790099Y-81710500D01*
X144209900Y-81710499D01*
X144259487Y-81703972D01*
X144368316Y-81653224D01*
X144453224Y-81568316D01*
X144503972Y-81459487D01*
X144510500Y-81409901D01*
X144510499Y-81050100D01*
X144509230Y-81040463D01*
X144519994Y-80971433D01*
X144560350Y-80925962D01*
X144559215Y-80924499D01*
X144565383Y-80919714D01*
X144679714Y-80805383D01*
X144679721Y-80805374D01*
X144762031Y-80666195D01*
X144804504Y-80520000D01*
X144124000Y-80520000D01*
X144056961Y-80500315D01*
X144011206Y-80447511D01*
X144000000Y-80396000D01*
X144000000Y-80270000D01*
X143874000Y-80270000D01*
X143806961Y-80250315D01*
X143761206Y-80197511D01*
X143750000Y-80146000D01*
X143750000Y-80020000D01*
X144250000Y-80020000D01*
X144804504Y-80020000D01*
X144762031Y-79873804D01*
X144679721Y-79734625D01*
X144679714Y-79734616D01*
X144565383Y-79620285D01*
X144565374Y-79620278D01*
X144426195Y-79537968D01*
X144426190Y-79537966D01*
X144270918Y-79492855D01*
X144270912Y-79492854D01*
X144250000Y-79491209D01*
X144250000Y-80020000D01*
X143750000Y-80020000D01*
X143750000Y-79491210D01*
X143749999Y-79491209D01*
X143729087Y-79492854D01*
X143729081Y-79492855D01*
X143573809Y-79537966D01*
X143573804Y-79537968D01*
X143434625Y-79620278D01*
X143434616Y-79620285D01*
X143320285Y-79734616D01*
X143315501Y-79740785D01*
X143313143Y-79738956D01*
X143272256Y-79777103D01*
X143203509Y-79789579D01*
X143168210Y-79775000D01*
X142000000Y-79775000D01*
X141500000Y-79775000D01*
X141500000Y-79275000D01*
X142000000Y-79275000D01*
X143149999Y-79275000D01*
X143149999Y-79150028D01*
X143149998Y-79150013D01*
X143139505Y-79047302D01*
X143084358Y-78880880D01*
X143084356Y-78880875D01*
X142992315Y-78731654D01*
X142868345Y-78607684D01*
X142719124Y-78515643D01*
X142719119Y-78515641D01*
X142552697Y-78460494D01*
X142552690Y-78460493D01*
X142449986Y-78450000D01*
X142000000Y-78450000D01*
X142000000Y-79275000D01*
X141500000Y-79275000D01*
X141500000Y-78450000D01*
X141050028Y-78450000D01*
X141050012Y-78450001D01*
X140947302Y-78460494D01*
X140780880Y-78515641D01*
X140780875Y-78515643D01*
X140631654Y-78607684D01*
X140507684Y-78731654D01*
X140415643Y-78880875D01*
X140415641Y-78880880D01*
X140360494Y-79047302D01*
X140360493Y-79047309D01*
X140350000Y-79150013D01*
X140350000Y-79288785D01*
X140330315Y-79355824D01*
X140277511Y-79401579D01*
X140208353Y-79411523D01*
X140144797Y-79382498D01*
X140108959Y-79329740D01*
X140102793Y-79312119D01*
X140102792Y-79312117D01*
X140022150Y-79202850D01*
X139912882Y-79122207D01*
X139912880Y-79122206D01*
X139784700Y-79077353D01*
X139754270Y-79074500D01*
X139754266Y-79074500D01*
X139145734Y-79074500D01*
X139145730Y-79074500D01*
X139115300Y-79077353D01*
X139115298Y-79077353D01*
X138987119Y-79122206D01*
X138987117Y-79122207D01*
X138877850Y-79202850D01*
X138797207Y-79312117D01*
X138774842Y-79376033D01*
X138734120Y-79432808D01*
X138669167Y-79458555D01*
X138600605Y-79445098D01*
X138550203Y-79396711D01*
X138540095Y-79374081D01*
X138484358Y-79205880D01*
X138484356Y-79205875D01*
X138392315Y-79056654D01*
X138268345Y-78932684D01*
X138119124Y-78840643D01*
X138119119Y-78840641D01*
X137952697Y-78785494D01*
X137952690Y-78785493D01*
X137849986Y-78775000D01*
X137800000Y-78775000D01*
X137300000Y-78775000D01*
X137299999Y-78774999D01*
X137250029Y-78775000D01*
X137250011Y-78775001D01*
X137147302Y-78785494D01*
X136980880Y-78840641D01*
X136980875Y-78840643D01*
X136831654Y-78932684D01*
X136707684Y-79056654D01*
X136615643Y-79205875D01*
X136615641Y-79205880D01*
X136560494Y-79372302D01*
X136560493Y-79372309D01*
X136550000Y-79475013D01*
X134752901Y-79475013D01*
X134752901Y-79282449D01*
X134752900Y-79282447D01*
X134741269Y-79223970D01*
X134741268Y-79223969D01*
X134696953Y-79157647D01*
X134630631Y-79113332D01*
X134630630Y-79113331D01*
X134572153Y-79101700D01*
X134572149Y-79101700D01*
X134227853Y-79101700D01*
X134227848Y-79101700D01*
X134169371Y-79113331D01*
X134169370Y-79113332D01*
X134103048Y-79157647D01*
X134058733Y-79223969D01*
X134058732Y-79223970D01*
X134047101Y-79282447D01*
X134047101Y-79838600D01*
X134027416Y-79905639D01*
X133974612Y-79951394D01*
X133923101Y-79962600D01*
X133828501Y-79962600D01*
X132289349Y-79962600D01*
X132228225Y-79901476D01*
X132228221Y-79901473D01*
X132228220Y-79901472D01*
X132108126Y-79840281D01*
X132108124Y-79840280D01*
X132108121Y-79840279D01*
X132008493Y-79824500D01*
X132008488Y-79824500D01*
X131491512Y-79824500D01*
X131491507Y-79824500D01*
X131391878Y-79840279D01*
X131271778Y-79901473D01*
X131252825Y-79920426D01*
X131191501Y-79953910D01*
X131121809Y-79948924D01*
X131065876Y-79907052D01*
X131059606Y-79897840D01*
X130997571Y-79797266D01*
X130877732Y-79677427D01*
X130877728Y-79677424D01*
X130733492Y-79588457D01*
X130733481Y-79588452D01*
X130572606Y-79535144D01*
X130473322Y-79525000D01*
X130450000Y-79525000D01*
X130450000Y-81474999D01*
X129926683Y-81474999D01*
X129950000Y-81474998D01*
X129950000Y-80750000D01*
X129250001Y-80750000D01*
X129250001Y-80798322D01*
X125125500Y-80798322D01*
X125125500Y-80201677D01*
X129250000Y-80201677D01*
X129250000Y-80250000D01*
X129950000Y-80250000D01*
X129950000Y-79524999D01*
X129926693Y-79525000D01*
X129926674Y-79525001D01*
X129827392Y-79535144D01*
X129666518Y-79588452D01*
X129666507Y-79588457D01*
X129522271Y-79677424D01*
X129522267Y-79677427D01*
X129402427Y-79797267D01*
X129402424Y-79797271D01*
X129313457Y-79941507D01*
X129313452Y-79941518D01*
X129260144Y-80102393D01*
X129250000Y-80201677D01*
X125125500Y-80201677D01*
X125125500Y-77720000D01*
X129346210Y-77720000D01*
X129347854Y-77740910D01*
X129392968Y-77896195D01*
X129475278Y-78035374D01*
X129475285Y-78035383D01*
X129589616Y-78149714D01*
X129589625Y-78149721D01*
X129728804Y-78232031D01*
X129875000Y-78274504D01*
X129875000Y-77720000D01*
X129346210Y-77720000D01*
X125125500Y-77720000D01*
X125125500Y-77219999D01*
X129346209Y-77219999D01*
X129346210Y-77220000D01*
X129875000Y-77220000D01*
X129875000Y-76699973D01*
X130375000Y-76699973D01*
X130375000Y-78274503D01*
X130521195Y-78232031D01*
X130660374Y-78149721D01*
X130660383Y-78149714D01*
X130774714Y-78035383D01*
X130779499Y-78029215D01*
X130781459Y-78030735D01*
X130823583Y-77991382D01*
X130892321Y-77978858D01*
X130895443Y-77979228D01*
X130905099Y-77980500D01*
X131264900Y-77980499D01*
X131314487Y-77973972D01*
X131423316Y-77923224D01*
X131508224Y-77838316D01*
X131558972Y-77729487D01*
X131565500Y-77679901D01*
X131565499Y-77679898D01*
X131565603Y-77679116D01*
X131593868Y-77615219D01*
X131652192Y-77576747D01*
X131722057Y-77575914D01*
X131776223Y-77607618D01*
X131846649Y-77678044D01*
X131846651Y-77678045D01*
X131846655Y-77678049D01*
X131959691Y-77735644D01*
X131959695Y-77735646D01*
X132053472Y-77750498D01*
X132053478Y-77750499D01*
X132666515Y-77750498D01*
X132760301Y-77735645D01*
X132873339Y-77678049D01*
X132963047Y-77588341D01*
X133012013Y-77492239D01*
X133059987Y-77441445D01*
X133127808Y-77424650D01*
X133193943Y-77447188D01*
X133232980Y-77492239D01*
X133281947Y-77588341D01*
X133281949Y-77588343D01*
X133281951Y-77588346D01*
X133371649Y-77678044D01*
X133371651Y-77678045D01*
X133371655Y-77678049D01*
X133484691Y-77735644D01*
X133484695Y-77735646D01*
X133578472Y-77750498D01*
X133578478Y-77750499D01*
X134191515Y-77750498D01*
X134285301Y-77735645D01*
X134398339Y-77678049D01*
X134468777Y-77607610D01*
X134530098Y-77574127D01*
X134599790Y-77579111D01*
X134655724Y-77620982D01*
X134679396Y-77679109D01*
X134686027Y-77729483D01*
X134686029Y-77729490D01*
X134722786Y-77808315D01*
X134736776Y-77838316D01*
X134821684Y-77923224D01*
X134930513Y-77973972D01*
X134980099Y-77980500D01*
X135339900Y-77980499D01*
X135349534Y-77979230D01*
X135418565Y-77989994D01*
X135464038Y-78030351D01*
X135465502Y-78029217D01*
X135470283Y-78035381D01*
X135584616Y-78149714D01*
X135584625Y-78149721D01*
X135723804Y-78232031D01*
X135870000Y-78274504D01*
X135870000Y-78274503D01*
X136370000Y-78274503D01*
X136516196Y-78232031D01*
X136523599Y-78227653D01*
X136591322Y-78210466D01*
X136641142Y-78225092D01*
X136641644Y-78223933D01*
X136648801Y-78227030D01*
X136794997Y-78269503D01*
X136794997Y-77720000D01*
X136370000Y-77720000D01*
X136370000Y-78274503D01*
X135870000Y-78274503D01*
X135870000Y-76699973D01*
X135773970Y-76675579D01*
X135771775Y-76674280D01*
X135769226Y-76674273D01*
X135755651Y-76665494D01*
X136370000Y-76665494D01*
X136370000Y-77214999D01*
X136794997Y-77214999D01*
X136794997Y-76694972D01*
X137294997Y-76694972D01*
X137294997Y-78269502D01*
X137441192Y-78227030D01*
X137580371Y-78144720D01*
X137580380Y-78144713D01*
X137694711Y-78030382D01*
X137699496Y-78024214D01*
X137701456Y-78025734D01*
X137743580Y-77986381D01*
X137812318Y-77973857D01*
X137815440Y-77974227D01*
X137825096Y-77975499D01*
X138184897Y-77975498D01*
X138234484Y-77968971D01*
X138343313Y-77918223D01*
X138428221Y-77833315D01*
X138478969Y-77724486D01*
X138485497Y-77674900D01*
X138485496Y-77674887D01*
X138485599Y-77674113D01*
X138513865Y-77610216D01*
X138572188Y-77571744D01*
X138642053Y-77570911D01*
X138696220Y-77602615D01*
X138771649Y-77678044D01*
X138771651Y-77678045D01*
X138771655Y-77678049D01*
X138884691Y-77735644D01*
X138884695Y-77735646D01*
X138978472Y-77750498D01*
X138978478Y-77750499D01*
X139591515Y-77750498D01*
X139685301Y-77735645D01*
X139798339Y-77678049D01*
X139888047Y-77588341D01*
X139937013Y-77492239D01*
X139984987Y-77441445D01*
X140052808Y-77424650D01*
X140118943Y-77447188D01*
X140157980Y-77492239D01*
X140206947Y-77588341D01*
X140206949Y-77588343D01*
X140206951Y-77588346D01*
X140296649Y-77678044D01*
X140296651Y-77678045D01*
X140296655Y-77678049D01*
X140409691Y-77735644D01*
X140409695Y-77735646D01*
X140503472Y-77750498D01*
X140503478Y-77750499D01*
X141116515Y-77750498D01*
X141210301Y-77735645D01*
X141323339Y-77678049D01*
X141397264Y-77604123D01*
X141458585Y-77570640D01*
X141528277Y-77575624D01*
X141584211Y-77617495D01*
X141607883Y-77675621D01*
X141611024Y-77699482D01*
X141611026Y-77699489D01*
X141627887Y-77735647D01*
X141661773Y-77808315D01*
X141746681Y-77893223D01*
X141855510Y-77943971D01*
X141905096Y-77950499D01*
X142264897Y-77950498D01*
X142274531Y-77949229D01*
X142343562Y-77959993D01*
X142389035Y-78000350D01*
X142390499Y-77999216D01*
X142395280Y-78005380D01*
X142509613Y-78119713D01*
X142509622Y-78119720D01*
X142648801Y-78202030D01*
X142794997Y-78244503D01*
X142794997Y-78244502D01*
X143294997Y-78244502D01*
X143441188Y-78202031D01*
X143444365Y-78200153D01*
X143447186Y-78199436D01*
X143448351Y-78198933D01*
X143448432Y-78199120D01*
X143512087Y-78182964D01*
X143566624Y-78198976D01*
X143566643Y-78198933D01*
X143566991Y-78199083D01*
X143570623Y-78200150D01*
X143573803Y-78202031D01*
X143720000Y-78244504D01*
X143720000Y-77690000D01*
X143294997Y-77690000D01*
X143294997Y-78244502D01*
X142794997Y-78244502D01*
X142794997Y-76669972D01*
X142698967Y-76645578D01*
X142696772Y-76644279D01*
X142694223Y-76644272D01*
X142680648Y-76635493D01*
X143294997Y-76635493D01*
X143294997Y-77189999D01*
X143720000Y-77189999D01*
X143720000Y-76635494D01*
X143719998Y-76635493D01*
X143573809Y-76677965D01*
X143573801Y-76677969D01*
X143570613Y-76679855D01*
X143567790Y-76680570D01*
X143566649Y-76681065D01*
X143566569Y-76680880D01*
X143502888Y-76697033D01*
X143448365Y-76681023D01*
X143448348Y-76681064D01*
X143448016Y-76680920D01*
X143444381Y-76679853D01*
X143441191Y-76677966D01*
X143441187Y-76677964D01*
X143294998Y-76635492D01*
X143294997Y-76635493D01*
X142680648Y-76635493D01*
X142666867Y-76626581D01*
X142638838Y-76609993D01*
X142637694Y-76607714D01*
X142635553Y-76606330D01*
X142622102Y-76576654D01*
X142607492Y-76547549D01*
X142607761Y-76545014D01*
X142606709Y-76542692D01*
X142605497Y-76525395D01*
X142605497Y-76345682D01*
X142599065Y-76296827D01*
X142599065Y-76296826D01*
X142549062Y-76189595D01*
X142465401Y-76105934D01*
X142457730Y-76098263D01*
X142460558Y-76095434D01*
X142429840Y-76057022D01*
X142422632Y-75987525D01*
X142454140Y-75925164D01*
X142457900Y-75921905D01*
X142457730Y-75921735D01*
X142501589Y-75877876D01*
X142549062Y-75830403D01*
X142599065Y-75723172D01*
X142605497Y-75674315D01*
X142605497Y-75325683D01*
X142599065Y-75276826D01*
X142549062Y-75169595D01*
X142465401Y-75085934D01*
X142358170Y-75035931D01*
X142358168Y-75035930D01*
X142358167Y-75035930D01*
X142349059Y-75033275D01*
X142349425Y-75032016D01*
X142294420Y-75007682D01*
X142255949Y-74949357D01*
X142250503Y-74913011D01*
X142250503Y-73048388D01*
X142270188Y-72981349D01*
X142322992Y-72935594D01*
X142327051Y-72933827D01*
X142467942Y-72875468D01*
X142467942Y-72875467D01*
X142467949Y-72875465D01*
X142629753Y-72767351D01*
X142767355Y-72629749D01*
X142875469Y-72467945D01*
X142949939Y-72288159D01*
X142987903Y-72097299D01*
X142987903Y-71902699D01*
X142987902Y-71902694D01*
X144012102Y-71902694D01*
X144012102Y-72097303D01*
X144050064Y-72288151D01*
X144050066Y-72288159D01*
X144124534Y-72467942D01*
X144124539Y-72467951D01*
X144232649Y-72629748D01*
X144232652Y-72629752D01*
X144370248Y-72767348D01*
X144370252Y-72767351D01*
X144532049Y-72875461D01*
X144532062Y-72875468D01*
X144672954Y-72933827D01*
X144727358Y-72977668D01*
X144749423Y-73043962D01*
X144749502Y-73048388D01*
X144749502Y-74915902D01*
X144729817Y-74982941D01*
X144677013Y-75028696D01*
X144660208Y-75034946D01*
X144656830Y-75035930D01*
X144549595Y-75085935D01*
X144465935Y-75169595D01*
X144415931Y-75276828D01*
X144409500Y-75325683D01*
X144409500Y-75674316D01*
X144415931Y-75723171D01*
X144465935Y-75830404D01*
X144557267Y-75921736D01*
X144554443Y-75924559D01*
X144585183Y-75963042D01*
X144592352Y-76032542D01*
X144560808Y-76094886D01*
X144557101Y-76098098D01*
X144557267Y-76098264D01*
X144465935Y-76189595D01*
X144415931Y-76296828D01*
X144409500Y-76345683D01*
X144409500Y-76525396D01*
X144389815Y-76592435D01*
X144337011Y-76638190D01*
X144267853Y-76648134D01*
X144250905Y-76644472D01*
X144220001Y-76635493D01*
X144220000Y-76635494D01*
X144220000Y-78244503D01*
X144366195Y-78202031D01*
X144505374Y-78119721D01*
X144505383Y-78119714D01*
X144619714Y-78005383D01*
X144624499Y-77999215D01*
X144626459Y-78000735D01*
X144668583Y-77961382D01*
X144737321Y-77948858D01*
X144740443Y-77949228D01*
X144750099Y-77950500D01*
X145109900Y-77950499D01*
X145159487Y-77943972D01*
X145268316Y-77893224D01*
X145353224Y-77808316D01*
X145403972Y-77699487D01*
X145406531Y-77680044D01*
X145434794Y-77616150D01*
X145493117Y-77577676D01*
X145562982Y-77576842D01*
X145617151Y-77608547D01*
X145686649Y-77678045D01*
X145686651Y-77678046D01*
X145686655Y-77678050D01*
X145799689Y-77735644D01*
X145799695Y-77735647D01*
X145887113Y-77749491D01*
X145893465Y-77750498D01*
X145893472Y-77750499D01*
X145893478Y-77750500D01*
X146506515Y-77750499D01*
X146600301Y-77735646D01*
X146713339Y-77678050D01*
X146803047Y-77588342D01*
X146852013Y-77492240D01*
X146899987Y-77441446D01*
X146967808Y-77424651D01*
X147033943Y-77447189D01*
X147072980Y-77492240D01*
X147121947Y-77588342D01*
X147121949Y-77588344D01*
X147121951Y-77588347D01*
X147211649Y-77678045D01*
X147211651Y-77678046D01*
X147211655Y-77678050D01*
X147324689Y-77735644D01*
X147324695Y-77735647D01*
X147412113Y-77749491D01*
X147418465Y-77750498D01*
X147418472Y-77750499D01*
X147418478Y-77750500D01*
X148031515Y-77750499D01*
X148125301Y-77735646D01*
X148238339Y-77678050D01*
X148312264Y-77604124D01*
X148373585Y-77570641D01*
X148443277Y-77575625D01*
X148499211Y-77617496D01*
X148522883Y-77675622D01*
X148526024Y-77699483D01*
X148526026Y-77699490D01*
X148545341Y-77740910D01*
X148576773Y-77808316D01*
X148661681Y-77893224D01*
X148770510Y-77943972D01*
X148820096Y-77950500D01*
X149179897Y-77950499D01*
X149189531Y-77949230D01*
X149258562Y-77959994D01*
X149304035Y-78000351D01*
X149305499Y-77999217D01*
X149310280Y-78005381D01*
X149424613Y-78119714D01*
X149424622Y-78119721D01*
X149563801Y-78202031D01*
X149709997Y-78244504D01*
X149709997Y-78244503D01*
X150209997Y-78244503D01*
X150356192Y-78202031D01*
X150356871Y-78201630D01*
X150357476Y-78201476D01*
X150363354Y-78198933D01*
X150363764Y-78199880D01*
X150424594Y-78184443D01*
X150476342Y-78199635D01*
X150476647Y-78198933D01*
X150482336Y-78201395D01*
X150483116Y-78201624D01*
X150483799Y-78202028D01*
X150483804Y-78202030D01*
X150630000Y-78244503D01*
X150630000Y-77690000D01*
X150209997Y-77690000D01*
X150209997Y-78244503D01*
X149709997Y-78244503D01*
X149709997Y-76669973D01*
X149613967Y-76645579D01*
X149611772Y-76644280D01*
X149609223Y-76644273D01*
X149595648Y-76635494D01*
X150209997Y-76635494D01*
X150209997Y-77189999D01*
X150630000Y-77189999D01*
X150630000Y-76635493D01*
X150629998Y-76635492D01*
X150483810Y-76677965D01*
X150483794Y-76677971D01*
X150483106Y-76678379D01*
X150482496Y-76678533D01*
X150476644Y-76681066D01*
X150476235Y-76680121D01*
X150415380Y-76695554D01*
X150363651Y-76680364D01*
X150363348Y-76681065D01*
X150357670Y-76678608D01*
X150356884Y-76678377D01*
X150356193Y-76677968D01*
X150356187Y-76677965D01*
X150209998Y-76635493D01*
X150209997Y-76635494D01*
X149595648Y-76635494D01*
X149581867Y-76626582D01*
X149553838Y-76609994D01*
X149552694Y-76607715D01*
X149550553Y-76606331D01*
X149537102Y-76576655D01*
X149522492Y-76547550D01*
X149522761Y-76545015D01*
X149521709Y-76542693D01*
X149520497Y-76525396D01*
X149520497Y-76345683D01*
X149514065Y-76296828D01*
X149514065Y-76296827D01*
X149464062Y-76189596D01*
X149380401Y-76105935D01*
X149372730Y-76098264D01*
X149375558Y-76095435D01*
X149344840Y-76057023D01*
X149337632Y-75987526D01*
X149369140Y-75925165D01*
X149372900Y-75921906D01*
X149372730Y-75921736D01*
X149416590Y-75877876D01*
X149464062Y-75830404D01*
X149514065Y-75723173D01*
X149520497Y-75674316D01*
X149520497Y-75325684D01*
X149514065Y-75276827D01*
X149464062Y-75169596D01*
X149380401Y-75085935D01*
X149322091Y-75058744D01*
X149269653Y-75012572D01*
X149250497Y-74946363D01*
X149250497Y-72950167D01*
X149250496Y-72950164D01*
X149237977Y-72919940D01*
X149212361Y-72858097D01*
X149141894Y-72787630D01*
X148918455Y-72564191D01*
X148884970Y-72502868D01*
X148889954Y-72433176D01*
X148891556Y-72429104D01*
X148949938Y-72288159D01*
X148987902Y-72097299D01*
X148987902Y-71902699D01*
X148987901Y-71902694D01*
X150012101Y-71902694D01*
X150012101Y-72097303D01*
X150050063Y-72288151D01*
X150050065Y-72288159D01*
X150124533Y-72467942D01*
X150124538Y-72467951D01*
X150232648Y-72629748D01*
X150232651Y-72629752D01*
X150370247Y-72767348D01*
X150370251Y-72767351D01*
X150532048Y-72875461D01*
X150532057Y-72875466D01*
X150567027Y-72889951D01*
X150711841Y-72949935D01*
X150869772Y-72981349D01*
X150902696Y-72987898D01*
X150902700Y-72987899D01*
X150902701Y-72987899D01*
X151097302Y-72987899D01*
X151097303Y-72987898D01*
X151288161Y-72949935D01*
X151418048Y-72896133D01*
X151487516Y-72888665D01*
X151549996Y-72919940D01*
X151585648Y-72980029D01*
X151589500Y-73010695D01*
X151589500Y-74946362D01*
X151569815Y-75013401D01*
X151517905Y-75058744D01*
X151459595Y-75085934D01*
X151375935Y-75169594D01*
X151325931Y-75276827D01*
X151319500Y-75325682D01*
X151319500Y-75674315D01*
X151325931Y-75723170D01*
X151375935Y-75830403D01*
X151467267Y-75921735D01*
X151464443Y-75924558D01*
X151495183Y-75963041D01*
X151502352Y-76032541D01*
X151470808Y-76094885D01*
X151467101Y-76098097D01*
X151467267Y-76098263D01*
X151375935Y-76189594D01*
X151325931Y-76296827D01*
X151319500Y-76345682D01*
X151319500Y-76525395D01*
X151299815Y-76592434D01*
X151247011Y-76638189D01*
X151177853Y-76648133D01*
X151160905Y-76644471D01*
X151130001Y-76635492D01*
X151130000Y-76635493D01*
X151130000Y-78244502D01*
X151276195Y-78202030D01*
X151415374Y-78119720D01*
X151415383Y-78119713D01*
X151529714Y-78005382D01*
X151534499Y-77999214D01*
X151536459Y-78000734D01*
X151578583Y-77961381D01*
X151647321Y-77948857D01*
X151650443Y-77949227D01*
X151660099Y-77950499D01*
X152019900Y-77950498D01*
X152069487Y-77943971D01*
X152178316Y-77893223D01*
X152263224Y-77808315D01*
X152313972Y-77699486D01*
X152317695Y-77671201D01*
X152345960Y-77607308D01*
X152404283Y-77568836D01*
X152474148Y-77568003D01*
X152528315Y-77599707D01*
X152606652Y-77678044D01*
X152606654Y-77678045D01*
X152606658Y-77678049D01*
X152719694Y-77735644D01*
X152719698Y-77735646D01*
X152813475Y-77750498D01*
X152813481Y-77750499D01*
X153426518Y-77750498D01*
X153520304Y-77735645D01*
X153633342Y-77678049D01*
X153723050Y-77588341D01*
X153779515Y-77477520D01*
X153827487Y-77426728D01*
X153895308Y-77409933D01*
X153961443Y-77432470D01*
X154000482Y-77477523D01*
X154056947Y-77588341D01*
X154056949Y-77588343D01*
X154056951Y-77588346D01*
X154146649Y-77678044D01*
X154146651Y-77678045D01*
X154146655Y-77678049D01*
X154259691Y-77735644D01*
X154259695Y-77735646D01*
X154353472Y-77750498D01*
X154353478Y-77750499D01*
X154966515Y-77750498D01*
X155060301Y-77735645D01*
X155173339Y-77678049D01*
X155242846Y-77608541D01*
X155304167Y-77575058D01*
X155373859Y-77580042D01*
X155429793Y-77621913D01*
X155453465Y-77680040D01*
X155456024Y-77699482D01*
X155456026Y-77699489D01*
X155472887Y-77735647D01*
X155506773Y-77808315D01*
X155591681Y-77893223D01*
X155700510Y-77943971D01*
X155750096Y-77950499D01*
X156109897Y-77950498D01*
X156119531Y-77949229D01*
X156188562Y-77959993D01*
X156234035Y-78000350D01*
X156235499Y-77999216D01*
X156240280Y-78005380D01*
X156354613Y-78119713D01*
X156354622Y-78119720D01*
X156493801Y-78202030D01*
X156639997Y-78244503D01*
X156639997Y-78244502D01*
X157139997Y-78244502D01*
X157286192Y-78202030D01*
X157425371Y-78119720D01*
X157425380Y-78119713D01*
X157539711Y-78005382D01*
X157539718Y-78005373D01*
X157622028Y-77866194D01*
X157622030Y-77866189D01*
X157667141Y-77710917D01*
X157667142Y-77710911D01*
X157668787Y-77689999D01*
X157139997Y-77689999D01*
X157139997Y-78244502D01*
X156639997Y-78244502D01*
X156639997Y-76669972D01*
X156543967Y-76645578D01*
X156541772Y-76644279D01*
X156539223Y-76644272D01*
X156525648Y-76635493D01*
X157139997Y-76635493D01*
X157139997Y-77189999D01*
X157668787Y-77189999D01*
X157667142Y-77169088D01*
X157622028Y-77013803D01*
X157539718Y-76874624D01*
X157539711Y-76874615D01*
X157425380Y-76760284D01*
X157425371Y-76760277D01*
X157286190Y-76677966D01*
X157286187Y-76677964D01*
X157139998Y-76635492D01*
X157139997Y-76635493D01*
X156525648Y-76635493D01*
X156511867Y-76626581D01*
X156483838Y-76609993D01*
X156482694Y-76607714D01*
X156480553Y-76606330D01*
X156467102Y-76576654D01*
X156452492Y-76547549D01*
X156452761Y-76545014D01*
X156451709Y-76542692D01*
X156450497Y-76525395D01*
X156450497Y-76345682D01*
X156444065Y-76296827D01*
X156444065Y-76296826D01*
X156394062Y-76189595D01*
X156310401Y-76105934D01*
X156302730Y-76098263D01*
X156305558Y-76095434D01*
X156274840Y-76057022D01*
X156267632Y-75987525D01*
X156299140Y-75925164D01*
X156302900Y-75921905D01*
X156302730Y-75921735D01*
X156346589Y-75877876D01*
X156394062Y-75830403D01*
X156444065Y-75723172D01*
X156450497Y-75674315D01*
X156450497Y-75325683D01*
X156444065Y-75276826D01*
X156394062Y-75169595D01*
X156310401Y-75085934D01*
X156252091Y-75058743D01*
X156199653Y-75012571D01*
X156180497Y-74946362D01*
X156180497Y-73880169D01*
X156180496Y-73880166D01*
X156142361Y-73788099D01*
X156071894Y-73717632D01*
X156064829Y-73710567D01*
X156064822Y-73710561D01*
X154918453Y-72564191D01*
X154884968Y-72502868D01*
X154889952Y-72433176D01*
X154891554Y-72429104D01*
X154949936Y-72288159D01*
X154987900Y-72097299D01*
X154987900Y-71902699D01*
X154949936Y-71711839D01*
X154875466Y-71532053D01*
X154875465Y-71532052D01*
X154875462Y-71532046D01*
X154767352Y-71370249D01*
X154767349Y-71370245D01*
X154629753Y-71232649D01*
X154629749Y-71232646D01*
X154467952Y-71124536D01*
X154467943Y-71124531D01*
X154288160Y-71050063D01*
X154288152Y-71050061D01*
X154097304Y-71012099D01*
X154097300Y-71012099D01*
X153902700Y-71012099D01*
X153902695Y-71012099D01*
X153711847Y-71050061D01*
X153711839Y-71050063D01*
X153532056Y-71124531D01*
X153532047Y-71124536D01*
X153370250Y-71232646D01*
X153370246Y-71232649D01*
X153232650Y-71370245D01*
X153232647Y-71370249D01*
X153124537Y-71532046D01*
X153124532Y-71532055D01*
X153050064Y-71711838D01*
X153050062Y-71711846D01*
X153012100Y-71902694D01*
X153012100Y-72097303D01*
X153050062Y-72288151D01*
X153050064Y-72288159D01*
X153124532Y-72467942D01*
X153124537Y-72467951D01*
X153232647Y-72629748D01*
X153232650Y-72629752D01*
X153370246Y-72767348D01*
X153370250Y-72767351D01*
X153532047Y-72875461D01*
X153532056Y-72875466D01*
X153567026Y-72889951D01*
X153711840Y-72949935D01*
X153869771Y-72981349D01*
X153902695Y-72987898D01*
X153902699Y-72987899D01*
X153902700Y-72987899D01*
X154097301Y-72987899D01*
X154097302Y-72987898D01*
X154288160Y-72949935D01*
X154429061Y-72891571D01*
X154498527Y-72884103D01*
X154561006Y-72915378D01*
X154564192Y-72918452D01*
X155643178Y-73997437D01*
X155676663Y-74058760D01*
X155679497Y-74085118D01*
X155679497Y-74946362D01*
X155659812Y-75013401D01*
X155607902Y-75058744D01*
X155549594Y-75085933D01*
X155488644Y-75146883D01*
X155427320Y-75180367D01*
X155357629Y-75175382D01*
X155301695Y-75133511D01*
X155290483Y-75115503D01*
X155263047Y-75061657D01*
X155263045Y-75061655D01*
X155263042Y-75061651D01*
X155173344Y-74971953D01*
X155173341Y-74971951D01*
X155173339Y-74971949D01*
X155096514Y-74932804D01*
X155060298Y-74914351D01*
X154966521Y-74899499D01*
X154353479Y-74899499D01*
X154273275Y-74912202D01*
X154259693Y-74914353D01*
X154146655Y-74971949D01*
X154146654Y-74971950D01*
X154146649Y-74971953D01*
X154056951Y-75061651D01*
X154056946Y-75061658D01*
X154000482Y-75172474D01*
X153952508Y-75223269D01*
X153884687Y-75240064D01*
X153818552Y-75217526D01*
X153779514Y-75172474D01*
X153723050Y-75061657D01*
X153723046Y-75061653D01*
X153723045Y-75061651D01*
X153633347Y-74971953D01*
X153633344Y-74971951D01*
X153633342Y-74971949D01*
X153556517Y-74932804D01*
X153520301Y-74914351D01*
X153426524Y-74899499D01*
X152813482Y-74899499D01*
X152733278Y-74912202D01*
X152719696Y-74914353D01*
X152606658Y-74971949D01*
X152606657Y-74971950D01*
X152606652Y-74971953D01*
X152516954Y-75061651D01*
X152516949Y-75061658D01*
X152486141Y-75122121D01*
X152438166Y-75172917D01*
X152370345Y-75189711D01*
X152304210Y-75167173D01*
X152287976Y-75153506D01*
X152220404Y-75085934D01*
X152162095Y-75058744D01*
X152109656Y-75012571D01*
X152090500Y-74946362D01*
X152090500Y-72790171D01*
X152090499Y-72790168D01*
X152081047Y-72767348D01*
X152052364Y-72698101D01*
X151981897Y-72627634D01*
X151918454Y-72564191D01*
X151884969Y-72502868D01*
X151889953Y-72433176D01*
X151891555Y-72429104D01*
X151949937Y-72288159D01*
X151987901Y-72097299D01*
X151987901Y-71902699D01*
X151949937Y-71711839D01*
X151875467Y-71532053D01*
X151875466Y-71532052D01*
X151875463Y-71532046D01*
X151767353Y-71370249D01*
X151767350Y-71370245D01*
X151629754Y-71232649D01*
X151629750Y-71232646D01*
X151467953Y-71124536D01*
X151467944Y-71124531D01*
X151288161Y-71050063D01*
X151288153Y-71050061D01*
X151097305Y-71012099D01*
X151097301Y-71012099D01*
X150902701Y-71012099D01*
X150902696Y-71012099D01*
X150711848Y-71050061D01*
X150711840Y-71050063D01*
X150532057Y-71124531D01*
X150532048Y-71124536D01*
X150370251Y-71232646D01*
X150370247Y-71232649D01*
X150232651Y-71370245D01*
X150232648Y-71370249D01*
X150124538Y-71532046D01*
X150124533Y-71532055D01*
X150050065Y-71711838D01*
X150050063Y-71711846D01*
X150012101Y-71902694D01*
X148987901Y-71902694D01*
X148949938Y-71711839D01*
X148875468Y-71532053D01*
X148875467Y-71532052D01*
X148875464Y-71532046D01*
X148767354Y-71370249D01*
X148767351Y-71370245D01*
X148629755Y-71232649D01*
X148629751Y-71232646D01*
X148467954Y-71124536D01*
X148467945Y-71124531D01*
X148288162Y-71050063D01*
X148288154Y-71050061D01*
X148097306Y-71012099D01*
X148097302Y-71012099D01*
X147902702Y-71012099D01*
X147902697Y-71012099D01*
X147711849Y-71050061D01*
X147711841Y-71050063D01*
X147532058Y-71124531D01*
X147532049Y-71124536D01*
X147370252Y-71232646D01*
X147370248Y-71232649D01*
X147232652Y-71370245D01*
X147232649Y-71370249D01*
X147124539Y-71532046D01*
X147124534Y-71532055D01*
X147050066Y-71711838D01*
X147050064Y-71711846D01*
X147012102Y-71902694D01*
X147012102Y-72097303D01*
X147050064Y-72288151D01*
X147050066Y-72288159D01*
X147124534Y-72467942D01*
X147124539Y-72467951D01*
X147232649Y-72629748D01*
X147232652Y-72629752D01*
X147370248Y-72767348D01*
X147370252Y-72767351D01*
X147532049Y-72875461D01*
X147532058Y-72875466D01*
X147567028Y-72889951D01*
X147711842Y-72949935D01*
X147869773Y-72981349D01*
X147902697Y-72987898D01*
X147902701Y-72987899D01*
X147902702Y-72987899D01*
X148097303Y-72987899D01*
X148097304Y-72987898D01*
X148288162Y-72949935D01*
X148429063Y-72891571D01*
X148498529Y-72884103D01*
X148561008Y-72915378D01*
X148564194Y-72918452D01*
X148713178Y-73067436D01*
X148746663Y-73128759D01*
X148749497Y-73155117D01*
X148749497Y-74946363D01*
X148729812Y-75013402D01*
X148677902Y-75058745D01*
X148619594Y-75085934D01*
X148555332Y-75150196D01*
X148494008Y-75183680D01*
X148424317Y-75178695D01*
X148368383Y-75136824D01*
X148357171Y-75118818D01*
X148328047Y-75061658D01*
X148328044Y-75061655D01*
X148328042Y-75061652D01*
X148238344Y-74971954D01*
X148238341Y-74971952D01*
X148238339Y-74971950D01*
X148161514Y-74932805D01*
X148125298Y-74914352D01*
X148031521Y-74899500D01*
X147418479Y-74899500D01*
X147338281Y-74912202D01*
X147324693Y-74914354D01*
X147211655Y-74971950D01*
X147211654Y-74971951D01*
X147211649Y-74971954D01*
X147121951Y-75061652D01*
X147121946Y-75061659D01*
X147072980Y-75157758D01*
X147025005Y-75208554D01*
X146957184Y-75225348D01*
X146891049Y-75202810D01*
X146852013Y-75157760D01*
X146803047Y-75061658D01*
X146803044Y-75061655D01*
X146803042Y-75061652D01*
X146713344Y-74971954D01*
X146713341Y-74971952D01*
X146713339Y-74971950D01*
X146636514Y-74932805D01*
X146600298Y-74914352D01*
X146506521Y-74899500D01*
X145893479Y-74899500D01*
X145813281Y-74912202D01*
X145799693Y-74914354D01*
X145686655Y-74971950D01*
X145686654Y-74971951D01*
X145686649Y-74971954D01*
X145596951Y-75061652D01*
X145596949Y-75061656D01*
X145596947Y-75061658D01*
X145573830Y-75107028D01*
X145569516Y-75115495D01*
X145521541Y-75166291D01*
X145453720Y-75183086D01*
X145387585Y-75160548D01*
X145371350Y-75146881D01*
X145310405Y-75085936D01*
X145303377Y-75081015D01*
X145259753Y-75026438D01*
X145250502Y-74979441D01*
X145250502Y-73048388D01*
X145270187Y-72981349D01*
X145322991Y-72935594D01*
X145327050Y-72933827D01*
X145467941Y-72875468D01*
X145467941Y-72875467D01*
X145467948Y-72875465D01*
X145629752Y-72767351D01*
X145767354Y-72629749D01*
X145875468Y-72467945D01*
X145949938Y-72288159D01*
X145987902Y-72097299D01*
X145987902Y-71902699D01*
X145949938Y-71711839D01*
X145875468Y-71532053D01*
X145875467Y-71532052D01*
X145875464Y-71532046D01*
X145767354Y-71370249D01*
X145767351Y-71370245D01*
X145629755Y-71232649D01*
X145629751Y-71232646D01*
X145467954Y-71124536D01*
X145467945Y-71124531D01*
X145288162Y-71050063D01*
X145288154Y-71050061D01*
X145097306Y-71012099D01*
X145097302Y-71012099D01*
X144902702Y-71012099D01*
X144902697Y-71012099D01*
X144711849Y-71050061D01*
X144711841Y-71050063D01*
X144532058Y-71124531D01*
X144532049Y-71124536D01*
X144370252Y-71232646D01*
X144370248Y-71232649D01*
X144232652Y-71370245D01*
X144232649Y-71370249D01*
X144124539Y-71532046D01*
X144124534Y-71532055D01*
X144050066Y-71711838D01*
X144050064Y-71711846D01*
X144012102Y-71902694D01*
X142987902Y-71902694D01*
X142949939Y-71711839D01*
X142875469Y-71532053D01*
X142875468Y-71532052D01*
X142875465Y-71532046D01*
X142767355Y-71370249D01*
X142767352Y-71370245D01*
X142629756Y-71232649D01*
X142629752Y-71232646D01*
X142467955Y-71124536D01*
X142467946Y-71124531D01*
X142288163Y-71050063D01*
X142288155Y-71050061D01*
X142097307Y-71012099D01*
X142097303Y-71012099D01*
X141902703Y-71012099D01*
X141902698Y-71012099D01*
X141711850Y-71050061D01*
X141711842Y-71050063D01*
X141532059Y-71124531D01*
X141532050Y-71124536D01*
X141370253Y-71232646D01*
X141370249Y-71232649D01*
X141232653Y-71370245D01*
X141232650Y-71370249D01*
X141124540Y-71532046D01*
X141124535Y-71532055D01*
X141050067Y-71711838D01*
X141050065Y-71711846D01*
X141012103Y-71902694D01*
X141012103Y-72097303D01*
X141050065Y-72288151D01*
X141050067Y-72288159D01*
X141124535Y-72467942D01*
X141124540Y-72467951D01*
X141232650Y-72629748D01*
X141232653Y-72629752D01*
X141370249Y-72767348D01*
X141370253Y-72767351D01*
X141532050Y-72875461D01*
X141532063Y-72875468D01*
X141672955Y-72933827D01*
X141727359Y-72977668D01*
X141749424Y-73043962D01*
X141749503Y-73048388D01*
X141749503Y-74989937D01*
X141729818Y-75056976D01*
X141710783Y-75076783D01*
X141712263Y-75078263D01*
X141640332Y-75150194D01*
X141579009Y-75183679D01*
X141509317Y-75178695D01*
X141453384Y-75136823D01*
X141442171Y-75118817D01*
X141413047Y-75061657D01*
X141413045Y-75061655D01*
X141413042Y-75061651D01*
X141323344Y-74971953D01*
X141323341Y-74971951D01*
X141323339Y-74971949D01*
X141246514Y-74932804D01*
X141210298Y-74914351D01*
X141116521Y-74899499D01*
X140503479Y-74899499D01*
X140423275Y-74912202D01*
X140409693Y-74914353D01*
X140296655Y-74971949D01*
X140296654Y-74971950D01*
X140296649Y-74971953D01*
X140206951Y-75061651D01*
X140206946Y-75061658D01*
X140157980Y-75157757D01*
X140110005Y-75208553D01*
X140042184Y-75225347D01*
X139976049Y-75202809D01*
X139937013Y-75157758D01*
X139888047Y-75061657D01*
X139888045Y-75061655D01*
X139888042Y-75061651D01*
X139798344Y-74971953D01*
X139798341Y-74971951D01*
X139798339Y-74971949D01*
X139721514Y-74932804D01*
X139685298Y-74914351D01*
X139591521Y-74899499D01*
X138978479Y-74899499D01*
X138898275Y-74912202D01*
X138884693Y-74914353D01*
X138771655Y-74971949D01*
X138771654Y-74971950D01*
X138771649Y-74971953D01*
X138681951Y-75061651D01*
X138681946Y-75061658D01*
X138651138Y-75122121D01*
X138603163Y-75172917D01*
X138535342Y-75189711D01*
X138469207Y-75167173D01*
X138452973Y-75153506D01*
X138385401Y-75085934D01*
X138327092Y-75058744D01*
X138274653Y-75012571D01*
X138255497Y-74946362D01*
X138255497Y-73150128D01*
X138275182Y-73083089D01*
X138291807Y-73062456D01*
X138435813Y-72918449D01*
X138497132Y-72884967D01*
X138566824Y-72889951D01*
X138570936Y-72891569D01*
X138711844Y-72949935D01*
X138869775Y-72981349D01*
X138902699Y-72987898D01*
X138902703Y-72987899D01*
X138902704Y-72987899D01*
X139097305Y-72987899D01*
X139097306Y-72987898D01*
X139288164Y-72949935D01*
X139467950Y-72875465D01*
X139629754Y-72767351D01*
X139767356Y-72629749D01*
X139875470Y-72467945D01*
X139949940Y-72288159D01*
X139987904Y-72097299D01*
X139987904Y-71902699D01*
X139949940Y-71711839D01*
X139875470Y-71532053D01*
X139875469Y-71532052D01*
X139875466Y-71532046D01*
X139767356Y-71370249D01*
X139767353Y-71370245D01*
X139629757Y-71232649D01*
X139629753Y-71232646D01*
X139467956Y-71124536D01*
X139467947Y-71124531D01*
X139288164Y-71050063D01*
X139288156Y-71050061D01*
X139097308Y-71012099D01*
X139097304Y-71012099D01*
X138902704Y-71012099D01*
X138902699Y-71012099D01*
X138711851Y-71050061D01*
X138711843Y-71050063D01*
X138532060Y-71124531D01*
X138532051Y-71124536D01*
X138370254Y-71232646D01*
X138370250Y-71232649D01*
X138232654Y-71370245D01*
X138232651Y-71370249D01*
X138124541Y-71532046D01*
X138124536Y-71532055D01*
X138050068Y-71711838D01*
X138050066Y-71711846D01*
X138012104Y-71902694D01*
X138012104Y-72097303D01*
X138050066Y-72288151D01*
X138050068Y-72288159D01*
X138108430Y-72429057D01*
X138115899Y-72498527D01*
X138084624Y-72561006D01*
X138081550Y-72564191D01*
X137863100Y-72782642D01*
X137792634Y-72853107D01*
X137792633Y-72853108D01*
X137754497Y-72945176D01*
X137754497Y-74946362D01*
X137734812Y-75013401D01*
X137682902Y-75058744D01*
X137624592Y-75085934D01*
X137540932Y-75169594D01*
X137490928Y-75276827D01*
X137484497Y-75325682D01*
X137484497Y-75674315D01*
X137490928Y-75723170D01*
X137540932Y-75830403D01*
X137632264Y-75921735D01*
X137629440Y-75924558D01*
X137660180Y-75963041D01*
X137667349Y-76032541D01*
X137635805Y-76094885D01*
X137632098Y-76098097D01*
X137632264Y-76098263D01*
X137540932Y-76189594D01*
X137490928Y-76296827D01*
X137484497Y-76345682D01*
X137484497Y-76550395D01*
X137476432Y-76577860D01*
X137471318Y-76606025D01*
X137466713Y-76610959D01*
X137464812Y-76617434D01*
X137443182Y-76636175D01*
X137423650Y-76657108D01*
X137414816Y-76660755D01*
X137412008Y-76663189D01*
X137407273Y-76663869D01*
X137391027Y-76670578D01*
X137294997Y-76694972D01*
X136794997Y-76694972D01*
X136794997Y-76660493D01*
X136794995Y-76660492D01*
X136648806Y-76702964D01*
X136648802Y-76702966D01*
X136641385Y-76707353D01*
X136573660Y-76724531D01*
X136523852Y-76709906D01*
X136523351Y-76711065D01*
X136516190Y-76707965D01*
X136370001Y-76665493D01*
X136370000Y-76665494D01*
X135755651Y-76665494D01*
X135741870Y-76656582D01*
X135713841Y-76639994D01*
X135712697Y-76637715D01*
X135710556Y-76636331D01*
X135697105Y-76606655D01*
X135682495Y-76577550D01*
X135682764Y-76575015D01*
X135681712Y-76572693D01*
X135680500Y-76555396D01*
X135680500Y-76345682D01*
X135674068Y-76296827D01*
X135674068Y-76296826D01*
X135624065Y-76189595D01*
X135540404Y-76105934D01*
X135532733Y-76098263D01*
X135535561Y-76095434D01*
X135504843Y-76057022D01*
X135497635Y-75987525D01*
X135529143Y-75925164D01*
X135532903Y-75921905D01*
X135532733Y-75921735D01*
X135576592Y-75877876D01*
X135624065Y-75830403D01*
X135674068Y-75723172D01*
X135680500Y-75674315D01*
X135680500Y-75325683D01*
X135674068Y-75276826D01*
X135624065Y-75169595D01*
X135540404Y-75085934D01*
X135433173Y-75035931D01*
X135433171Y-75035930D01*
X135433172Y-75035930D01*
X135384317Y-75029499D01*
X135384316Y-75029499D01*
X134935684Y-75029499D01*
X134935683Y-75029499D01*
X134886828Y-75035930D01*
X134779597Y-75085933D01*
X134715333Y-75150197D01*
X134654009Y-75183681D01*
X134584318Y-75178696D01*
X134528384Y-75136825D01*
X134517172Y-75118819D01*
X134488047Y-75061657D01*
X134488045Y-75061655D01*
X134488042Y-75061651D01*
X134398344Y-74971953D01*
X134398341Y-74971951D01*
X134398339Y-74971949D01*
X134321514Y-74932804D01*
X134285298Y-74914351D01*
X134191521Y-74899499D01*
X133578479Y-74899499D01*
X133498275Y-74912202D01*
X133484693Y-74914353D01*
X133371655Y-74971949D01*
X133371654Y-74971950D01*
X133371649Y-74971953D01*
X133281951Y-75061651D01*
X133281946Y-75061658D01*
X133232980Y-75157757D01*
X133185005Y-75208553D01*
X133117184Y-75225347D01*
X133051049Y-75202809D01*
X133012013Y-75157758D01*
X132963047Y-75061657D01*
X132963045Y-75061655D01*
X132963042Y-75061651D01*
X132873344Y-74971953D01*
X132873341Y-74971951D01*
X132873339Y-74971949D01*
X132796514Y-74932804D01*
X132760298Y-74914351D01*
X132666521Y-74899499D01*
X132053479Y-74899499D01*
X131973275Y-74912202D01*
X131959693Y-74914353D01*
X131846655Y-74971949D01*
X131846654Y-74971950D01*
X131846649Y-74971953D01*
X131756951Y-75061651D01*
X131756946Y-75061658D01*
X131727827Y-75118807D01*
X131679852Y-75169602D01*
X131612031Y-75186397D01*
X131545897Y-75163859D01*
X131529662Y-75150192D01*
X131465404Y-75085934D01*
X131407095Y-75058744D01*
X131354656Y-75012571D01*
X131335500Y-74946362D01*
X131335500Y-74070127D01*
X131355185Y-74003088D01*
X131371814Y-73982450D01*
X132435814Y-72918450D01*
X132497135Y-72884967D01*
X132566827Y-72889951D01*
X132570938Y-72891569D01*
X132711846Y-72949935D01*
X132869777Y-72981349D01*
X132902701Y-72987898D01*
X132902705Y-72987899D01*
X132902706Y-72987899D01*
X133097307Y-72987899D01*
X133097308Y-72987898D01*
X133288166Y-72949935D01*
X133467952Y-72875465D01*
X133629756Y-72767351D01*
X133767358Y-72629749D01*
X133875472Y-72467945D01*
X133949942Y-72288159D01*
X133987906Y-72097299D01*
X133987906Y-71902699D01*
X133987905Y-71902694D01*
X135012105Y-71902694D01*
X135012105Y-72097303D01*
X135050067Y-72288151D01*
X135050069Y-72288159D01*
X135124537Y-72467942D01*
X135124542Y-72467951D01*
X135232652Y-72629748D01*
X135232655Y-72629752D01*
X135370251Y-72767348D01*
X135370255Y-72767351D01*
X135532052Y-72875461D01*
X135532061Y-72875466D01*
X135567031Y-72889951D01*
X135711845Y-72949935D01*
X135869776Y-72981349D01*
X135902700Y-72987898D01*
X135902704Y-72987899D01*
X135902705Y-72987899D01*
X136097306Y-72987899D01*
X136097307Y-72987898D01*
X136288165Y-72949935D01*
X136467951Y-72875465D01*
X136629755Y-72767351D01*
X136767357Y-72629749D01*
X136875471Y-72467945D01*
X136949941Y-72288159D01*
X136987905Y-72097299D01*
X136987905Y-71902699D01*
X136949941Y-71711839D01*
X136875471Y-71532053D01*
X136875470Y-71532052D01*
X136875467Y-71532046D01*
X136767357Y-71370249D01*
X136767354Y-71370245D01*
X136629758Y-71232649D01*
X136629754Y-71232646D01*
X136467957Y-71124536D01*
X136467948Y-71124531D01*
X136288165Y-71050063D01*
X136288157Y-71050061D01*
X136097309Y-71012099D01*
X136097305Y-71012099D01*
X135902705Y-71012099D01*
X135902700Y-71012099D01*
X135711852Y-71050061D01*
X135711844Y-71050063D01*
X135532061Y-71124531D01*
X135532052Y-71124536D01*
X135370255Y-71232646D01*
X135370251Y-71232649D01*
X135232655Y-71370245D01*
X135232652Y-71370249D01*
X135124542Y-71532046D01*
X135124537Y-71532055D01*
X135050069Y-71711838D01*
X135050067Y-71711846D01*
X135012105Y-71902694D01*
X133987905Y-71902694D01*
X133949942Y-71711839D01*
X133875472Y-71532053D01*
X133875471Y-71532052D01*
X133875468Y-71532046D01*
X133767358Y-71370249D01*
X133767355Y-71370245D01*
X133629759Y-71232649D01*
X133629755Y-71232646D01*
X133467958Y-71124536D01*
X133467949Y-71124531D01*
X133288166Y-71050063D01*
X133288158Y-71050061D01*
X133097310Y-71012099D01*
X133097306Y-71012099D01*
X132902706Y-71012099D01*
X132902701Y-71012099D01*
X132711853Y-71050061D01*
X132711845Y-71050063D01*
X132532062Y-71124531D01*
X132532053Y-71124536D01*
X132370256Y-71232646D01*
X132370252Y-71232649D01*
X132232656Y-71370245D01*
X132232653Y-71370249D01*
X132124543Y-71532046D01*
X132124538Y-71532055D01*
X132050070Y-71711838D01*
X132050068Y-71711846D01*
X132012106Y-71902694D01*
X132012106Y-72097303D01*
X132050068Y-72288151D01*
X132050071Y-72288163D01*
X132108431Y-72429058D01*
X132115900Y-72498527D01*
X132084624Y-72561006D01*
X132081551Y-72564191D01*
X130943103Y-73702641D01*
X130872637Y-73773106D01*
X130872636Y-73773107D01*
X130834500Y-73865175D01*
X130834500Y-74946362D01*
X130814815Y-75013401D01*
X130762905Y-75058744D01*
X130704595Y-75085934D01*
X130620935Y-75169594D01*
X130570931Y-75276827D01*
X130564500Y-75325682D01*
X130564500Y-75674315D01*
X130570931Y-75723170D01*
X130620935Y-75830403D01*
X130712267Y-75921735D01*
X130709443Y-75924558D01*
X130740183Y-75963041D01*
X130747352Y-76032541D01*
X130715808Y-76094885D01*
X130712101Y-76098097D01*
X130712267Y-76098263D01*
X130620935Y-76189594D01*
X130570931Y-76296827D01*
X130564500Y-76345682D01*
X130564500Y-76555396D01*
X130556435Y-76582861D01*
X130551321Y-76611026D01*
X130546716Y-76615960D01*
X130544815Y-76622435D01*
X130523185Y-76641176D01*
X130503653Y-76662109D01*
X130494819Y-76665756D01*
X130492011Y-76668190D01*
X130487276Y-76668870D01*
X130471030Y-76675579D01*
X130375000Y-76699973D01*
X129875000Y-76699973D01*
X129875000Y-76665494D01*
X129874998Y-76665493D01*
X129728809Y-76707965D01*
X129728806Y-76707967D01*
X129589625Y-76790278D01*
X129589616Y-76790285D01*
X129475285Y-76904616D01*
X129475278Y-76904625D01*
X129392968Y-77043804D01*
X129392966Y-77043809D01*
X129347855Y-77199081D01*
X129347854Y-77199087D01*
X129346209Y-77219999D01*
X125125500Y-77219999D01*
X125125500Y-76419649D01*
X125125500Y-76419647D01*
X125103318Y-76336861D01*
X125102709Y-76335807D01*
X125088217Y-76310706D01*
X125060465Y-76262638D01*
X120286818Y-71488991D01*
X120253333Y-71427668D01*
X120250499Y-71401310D01*
X120250499Y-71005982D01*
X120246524Y-70980884D01*
X120235646Y-70912196D01*
X120178050Y-70799158D01*
X120178046Y-70799154D01*
X120178045Y-70799152D01*
X120088347Y-70709454D01*
X120088344Y-70709452D01*
X120088342Y-70709450D01*
X120011517Y-70670305D01*
X119975301Y-70651852D01*
X119881524Y-70637000D01*
X119418482Y-70637000D01*
X119337519Y-70649823D01*
X119324696Y-70651854D01*
X119211658Y-70709450D01*
X119211657Y-70709451D01*
X119211652Y-70709454D01*
X119121954Y-70799152D01*
X119121949Y-70799159D01*
X119097330Y-70847476D01*
X119049355Y-70898272D01*
X118981534Y-70915066D01*
X118915399Y-70892528D01*
X118871948Y-70837812D01*
X118868468Y-70828091D01*
X118843478Y-70747894D01*
X118755472Y-70602315D01*
X118755470Y-70602313D01*
X118755469Y-70602311D01*
X118635188Y-70482030D01*
X118625466Y-70476153D01*
X118489606Y-70394022D01*
X118327196Y-70343414D01*
X118327194Y-70343413D01*
X118327192Y-70343413D01*
X118277778Y-70338923D01*
X118256616Y-70337000D01*
X117743384Y-70337000D01*
X117672804Y-70343414D01*
X117536388Y-70385922D01*
X117508982Y-70386373D01*
X117481853Y-70390274D01*
X117474552Y-70386939D01*
X117466529Y-70387072D01*
X117443231Y-70372636D01*
X117418297Y-70361249D01*
X117413958Y-70354497D01*
X117407137Y-70350271D01*
X117395341Y-70325528D01*
X117380523Y-70302471D01*
X117378871Y-70290981D01*
X117377069Y-70287202D01*
X117375500Y-70267536D01*
X117375500Y-68898679D01*
X131712606Y-68898679D01*
X131712606Y-69101320D01*
X131744305Y-69301463D01*
X131806927Y-69494192D01*
X131898922Y-69674744D01*
X131929551Y-69716899D01*
X131929552Y-69716900D01*
X132489771Y-69156680D01*
X132502956Y-69205885D01*
X132573180Y-69327515D01*
X132672491Y-69426826D01*
X132794121Y-69497050D01*
X132843325Y-69510234D01*
X132283105Y-70070453D01*
X132283105Y-70070454D01*
X132325260Y-70101082D01*
X132505813Y-70193078D01*
X132698542Y-70255700D01*
X132698541Y-70255700D01*
X132898686Y-70287400D01*
X133101326Y-70287400D01*
X133301469Y-70255700D01*
X133494198Y-70193078D01*
X133674753Y-70101081D01*
X133674757Y-70101079D01*
X133716905Y-70070454D01*
X133716906Y-70070454D01*
X133156686Y-69510234D01*
X133205891Y-69497050D01*
X133327521Y-69426826D01*
X133426832Y-69327515D01*
X133497056Y-69205885D01*
X133510240Y-69156680D01*
X134070459Y-69716900D01*
X134070460Y-69716899D01*
X134101085Y-69674751D01*
X134101087Y-69674747D01*
X134193084Y-69494192D01*
X134255706Y-69301463D01*
X134287406Y-69101320D01*
X134287406Y-68898679D01*
X134712605Y-68898679D01*
X134712605Y-69101320D01*
X134744304Y-69301463D01*
X134806926Y-69494192D01*
X134898921Y-69674744D01*
X134929550Y-69716899D01*
X134929551Y-69716900D01*
X135489770Y-69156680D01*
X135502955Y-69205885D01*
X135573179Y-69327515D01*
X135672490Y-69426826D01*
X135794120Y-69497050D01*
X135843324Y-69510234D01*
X135283104Y-70070453D01*
X135283104Y-70070454D01*
X135325259Y-70101082D01*
X135505812Y-70193078D01*
X135698541Y-70255700D01*
X135698540Y-70255700D01*
X135898685Y-70287400D01*
X136101325Y-70287400D01*
X136301468Y-70255700D01*
X136494197Y-70193078D01*
X136674752Y-70101081D01*
X136674756Y-70101079D01*
X136716904Y-70070454D01*
X136716905Y-70070454D01*
X136156685Y-69510234D01*
X136205890Y-69497050D01*
X136327520Y-69426826D01*
X136426831Y-69327515D01*
X136497055Y-69205885D01*
X136510239Y-69156680D01*
X137070458Y-69716900D01*
X137070459Y-69716899D01*
X137101084Y-69674751D01*
X137101086Y-69674747D01*
X137193083Y-69494192D01*
X137255705Y-69301463D01*
X137287405Y-69101320D01*
X137287405Y-68898679D01*
X137712604Y-68898679D01*
X137712604Y-69101320D01*
X137744303Y-69301463D01*
X137806925Y-69494192D01*
X137898920Y-69674744D01*
X137929549Y-69716899D01*
X137929550Y-69716900D01*
X138489769Y-69156680D01*
X138502954Y-69205885D01*
X138573178Y-69327515D01*
X138672489Y-69426826D01*
X138794119Y-69497050D01*
X138843323Y-69510234D01*
X138283103Y-70070453D01*
X138283103Y-70070454D01*
X138325258Y-70101082D01*
X138505811Y-70193078D01*
X138698540Y-70255700D01*
X138698539Y-70255700D01*
X138898684Y-70287400D01*
X139101324Y-70287400D01*
X139301467Y-70255700D01*
X139494196Y-70193078D01*
X139674751Y-70101081D01*
X139674755Y-70101079D01*
X139716903Y-70070454D01*
X139716904Y-70070454D01*
X139156684Y-69510234D01*
X139205889Y-69497050D01*
X139327519Y-69426826D01*
X139426830Y-69327515D01*
X139497054Y-69205885D01*
X139510238Y-69156680D01*
X140070457Y-69716900D01*
X140070458Y-69716899D01*
X140101083Y-69674751D01*
X140101085Y-69674747D01*
X140193082Y-69494192D01*
X140255704Y-69301463D01*
X140287404Y-69101320D01*
X140287404Y-68898679D01*
X140712603Y-68898679D01*
X140712603Y-69101320D01*
X140744302Y-69301463D01*
X140806924Y-69494192D01*
X140898919Y-69674744D01*
X140929548Y-69716899D01*
X140929549Y-69716900D01*
X141489768Y-69156680D01*
X141502953Y-69205885D01*
X141573177Y-69327515D01*
X141672488Y-69426826D01*
X141794118Y-69497050D01*
X141843322Y-69510234D01*
X141283102Y-70070453D01*
X141283102Y-70070454D01*
X141325257Y-70101082D01*
X141505810Y-70193078D01*
X141698539Y-70255700D01*
X141698538Y-70255700D01*
X141898683Y-70287400D01*
X142101323Y-70287400D01*
X142301466Y-70255700D01*
X142494195Y-70193078D01*
X142674750Y-70101081D01*
X142674754Y-70101079D01*
X142716902Y-70070454D01*
X142716903Y-70070454D01*
X142156683Y-69510234D01*
X142205888Y-69497050D01*
X142327518Y-69426826D01*
X142426829Y-69327515D01*
X142497053Y-69205885D01*
X142510237Y-69156680D01*
X143070456Y-69716900D01*
X143070457Y-69716899D01*
X143101082Y-69674751D01*
X143101084Y-69674747D01*
X143193081Y-69494192D01*
X143255703Y-69301463D01*
X143287403Y-69101320D01*
X143287403Y-68898679D01*
X143712602Y-68898679D01*
X143712602Y-69101320D01*
X143744301Y-69301463D01*
X143806923Y-69494192D01*
X143898918Y-69674744D01*
X143929547Y-69716899D01*
X143929548Y-69716900D01*
X144489767Y-69156680D01*
X144502952Y-69205885D01*
X144573176Y-69327515D01*
X144672487Y-69426826D01*
X144794117Y-69497050D01*
X144843321Y-69510234D01*
X144283101Y-70070453D01*
X144283101Y-70070454D01*
X144325256Y-70101082D01*
X144505809Y-70193078D01*
X144698538Y-70255700D01*
X144698537Y-70255700D01*
X144898682Y-70287400D01*
X145101322Y-70287400D01*
X145301465Y-70255700D01*
X145494194Y-70193078D01*
X145674749Y-70101081D01*
X145674753Y-70101079D01*
X145716901Y-70070454D01*
X145716902Y-70070454D01*
X145156682Y-69510234D01*
X145205887Y-69497050D01*
X145327517Y-69426826D01*
X145426828Y-69327515D01*
X145497052Y-69205885D01*
X145510236Y-69156680D01*
X146070455Y-69716900D01*
X146070456Y-69716899D01*
X146101081Y-69674751D01*
X146101083Y-69674747D01*
X146193080Y-69494192D01*
X146255702Y-69301463D01*
X146287402Y-69101320D01*
X146287402Y-68898679D01*
X146712602Y-68898679D01*
X146712602Y-69101320D01*
X146744301Y-69301463D01*
X146806923Y-69494192D01*
X146898918Y-69674744D01*
X146929547Y-69716899D01*
X146929548Y-69716900D01*
X147489767Y-69156680D01*
X147502952Y-69205885D01*
X147573176Y-69327515D01*
X147672487Y-69426826D01*
X147794117Y-69497050D01*
X147843321Y-69510234D01*
X147283101Y-70070453D01*
X147283101Y-70070454D01*
X147325256Y-70101082D01*
X147505809Y-70193078D01*
X147698538Y-70255700D01*
X147698537Y-70255700D01*
X147898682Y-70287400D01*
X148101322Y-70287400D01*
X148301465Y-70255700D01*
X148494194Y-70193078D01*
X148674749Y-70101081D01*
X148674753Y-70101079D01*
X148716901Y-70070454D01*
X148716902Y-70070454D01*
X148156682Y-69510234D01*
X148205887Y-69497050D01*
X148327517Y-69426826D01*
X148426828Y-69327515D01*
X148497052Y-69205885D01*
X148510236Y-69156680D01*
X149070455Y-69716900D01*
X149070456Y-69716899D01*
X149101081Y-69674751D01*
X149101083Y-69674747D01*
X149193080Y-69494192D01*
X149255702Y-69301463D01*
X149287402Y-69101320D01*
X149287402Y-68898679D01*
X149712601Y-68898679D01*
X149712601Y-69101320D01*
X149744300Y-69301463D01*
X149806922Y-69494192D01*
X149898917Y-69674744D01*
X149929546Y-69716899D01*
X149929547Y-69716900D01*
X150489766Y-69156680D01*
X150502951Y-69205885D01*
X150573175Y-69327515D01*
X150672486Y-69426826D01*
X150794116Y-69497050D01*
X150843320Y-69510234D01*
X150283100Y-70070453D01*
X150283100Y-70070454D01*
X150325255Y-70101082D01*
X150505808Y-70193078D01*
X150698537Y-70255700D01*
X150698536Y-70255700D01*
X150898681Y-70287400D01*
X151101321Y-70287400D01*
X151301464Y-70255700D01*
X151494193Y-70193078D01*
X151674748Y-70101081D01*
X151674752Y-70101079D01*
X151716900Y-70070454D01*
X151716901Y-70070454D01*
X151156681Y-69510234D01*
X151205886Y-69497050D01*
X151327516Y-69426826D01*
X151426827Y-69327515D01*
X151497051Y-69205885D01*
X151510235Y-69156680D01*
X152070454Y-69716900D01*
X152070455Y-69716899D01*
X152101080Y-69674751D01*
X152101082Y-69674747D01*
X152193079Y-69494192D01*
X152255701Y-69301463D01*
X152287401Y-69101320D01*
X152287401Y-68898679D01*
X152712600Y-68898679D01*
X152712600Y-69101320D01*
X152744299Y-69301463D01*
X152806921Y-69494192D01*
X152898916Y-69674744D01*
X152929545Y-69716899D01*
X152929546Y-69716900D01*
X153489765Y-69156680D01*
X153502950Y-69205885D01*
X153573174Y-69327515D01*
X153672485Y-69426826D01*
X153794115Y-69497050D01*
X153843319Y-69510234D01*
X153283099Y-70070453D01*
X153283099Y-70070454D01*
X153325254Y-70101082D01*
X153505807Y-70193078D01*
X153698536Y-70255700D01*
X153698535Y-70255700D01*
X153898680Y-70287400D01*
X154101320Y-70287400D01*
X154301463Y-70255700D01*
X154494192Y-70193078D01*
X154674747Y-70101081D01*
X154674751Y-70101079D01*
X154716899Y-70070454D01*
X154716900Y-70070454D01*
X154156680Y-69510234D01*
X154205885Y-69497050D01*
X154327515Y-69426826D01*
X154426826Y-69327515D01*
X154497050Y-69205885D01*
X154510234Y-69156680D01*
X155070453Y-69716900D01*
X155070454Y-69716899D01*
X155101079Y-69674751D01*
X155101081Y-69674747D01*
X155193078Y-69494192D01*
X155255700Y-69301463D01*
X155287400Y-69101320D01*
X155287400Y-68898679D01*
X155255700Y-68698536D01*
X155193078Y-68505807D01*
X155101082Y-68325254D01*
X155070453Y-68283099D01*
X154510233Y-68843318D01*
X154497050Y-68794115D01*
X154426826Y-68672485D01*
X154327515Y-68573174D01*
X154205885Y-68502950D01*
X154156680Y-68489765D01*
X154658735Y-67987711D01*
X156266101Y-67987711D01*
X156266101Y-68132286D01*
X156294302Y-68274062D01*
X156294304Y-68274070D01*
X156349625Y-68407628D01*
X156429943Y-68527832D01*
X156429946Y-68527836D01*
X156532163Y-68630053D01*
X156532167Y-68630056D01*
X156652369Y-68710373D01*
X156785930Y-68765696D01*
X156927713Y-68793898D01*
X156927717Y-68793899D01*
X156927718Y-68793899D01*
X157072285Y-68793899D01*
X157072286Y-68793898D01*
X157214072Y-68765696D01*
X157347633Y-68710373D01*
X157467835Y-68630056D01*
X157570058Y-68527833D01*
X157650375Y-68407631D01*
X157705698Y-68274070D01*
X157733901Y-68132282D01*
X157733901Y-67987716D01*
X157705698Y-67845928D01*
X157650375Y-67712367D01*
X157570058Y-67592165D01*
X157570055Y-67592161D01*
X157467838Y-67489944D01*
X157467834Y-67489941D01*
X157347630Y-67409623D01*
X157214072Y-67354302D01*
X157214064Y-67354300D01*
X157072288Y-67326099D01*
X157072284Y-67326099D01*
X156927718Y-67326099D01*
X156927713Y-67326099D01*
X156785937Y-67354300D01*
X156785929Y-67354302D01*
X156652371Y-67409623D01*
X156532167Y-67489941D01*
X156532163Y-67489944D01*
X156429946Y-67592161D01*
X156429943Y-67592165D01*
X156349625Y-67712369D01*
X156294304Y-67845927D01*
X156294302Y-67845935D01*
X156266101Y-67987711D01*
X154658735Y-67987711D01*
X154716900Y-67929546D01*
X154716899Y-67929545D01*
X154674744Y-67898916D01*
X154494192Y-67806921D01*
X154301463Y-67744299D01*
X154301464Y-67744299D01*
X154101320Y-67712600D01*
X153898680Y-67712600D01*
X153698536Y-67744299D01*
X153505807Y-67806921D01*
X153325250Y-67898919D01*
X153283099Y-67929544D01*
X153283098Y-67929545D01*
X153843319Y-68489765D01*
X153794115Y-68502950D01*
X153672485Y-68573174D01*
X153573174Y-68672485D01*
X153502950Y-68794115D01*
X153489766Y-68843319D01*
X152929545Y-68283098D01*
X152929544Y-68283099D01*
X152898919Y-68325250D01*
X152806921Y-68505807D01*
X152744299Y-68698536D01*
X152712600Y-68898679D01*
X152287401Y-68898679D01*
X152255701Y-68698536D01*
X152193079Y-68505807D01*
X152101083Y-68325254D01*
X152070454Y-68283099D01*
X151510234Y-68843318D01*
X151497051Y-68794115D01*
X151426827Y-68672485D01*
X151327516Y-68573174D01*
X151205886Y-68502950D01*
X151156681Y-68489765D01*
X151716901Y-67929546D01*
X151716900Y-67929545D01*
X151674745Y-67898916D01*
X151494193Y-67806921D01*
X151301464Y-67744299D01*
X151301465Y-67744299D01*
X151101321Y-67712600D01*
X150898681Y-67712600D01*
X150698537Y-67744299D01*
X150505808Y-67806921D01*
X150325251Y-67898919D01*
X150283100Y-67929544D01*
X150283099Y-67929545D01*
X150843320Y-68489765D01*
X150794116Y-68502950D01*
X150672486Y-68573174D01*
X150573175Y-68672485D01*
X150502951Y-68794115D01*
X150489767Y-68843319D01*
X149929546Y-68283098D01*
X149929545Y-68283099D01*
X149898920Y-68325250D01*
X149806922Y-68505807D01*
X149744300Y-68698536D01*
X149712601Y-68898679D01*
X149287402Y-68898679D01*
X149255702Y-68698536D01*
X149193080Y-68505807D01*
X149101084Y-68325254D01*
X149070455Y-68283099D01*
X148510235Y-68843318D01*
X148497052Y-68794115D01*
X148426828Y-68672485D01*
X148327517Y-68573174D01*
X148205887Y-68502950D01*
X148156682Y-68489765D01*
X148716902Y-67929546D01*
X148716901Y-67929545D01*
X148674746Y-67898916D01*
X148494194Y-67806921D01*
X148301465Y-67744299D01*
X148301466Y-67744299D01*
X148101322Y-67712600D01*
X147898682Y-67712600D01*
X147698538Y-67744299D01*
X147505809Y-67806921D01*
X147325252Y-67898919D01*
X147283101Y-67929544D01*
X147283100Y-67929545D01*
X147843321Y-68489765D01*
X147794117Y-68502950D01*
X147672487Y-68573174D01*
X147573176Y-68672485D01*
X147502952Y-68794115D01*
X147489768Y-68843319D01*
X146929547Y-68283098D01*
X146929546Y-68283099D01*
X146898921Y-68325250D01*
X146806923Y-68505807D01*
X146744301Y-68698536D01*
X146712602Y-68898679D01*
X146287402Y-68898679D01*
X146255702Y-68698536D01*
X146193080Y-68505807D01*
X146101084Y-68325254D01*
X146070455Y-68283099D01*
X145510235Y-68843318D01*
X145497052Y-68794115D01*
X145426828Y-68672485D01*
X145327517Y-68573174D01*
X145205887Y-68502950D01*
X145156682Y-68489765D01*
X145716902Y-67929546D01*
X145716901Y-67929545D01*
X145674746Y-67898916D01*
X145494194Y-67806921D01*
X145301465Y-67744299D01*
X145301466Y-67744299D01*
X145101322Y-67712600D01*
X144898682Y-67712600D01*
X144698538Y-67744299D01*
X144505809Y-67806921D01*
X144325252Y-67898919D01*
X144283101Y-67929544D01*
X144283100Y-67929545D01*
X144843321Y-68489765D01*
X144794117Y-68502950D01*
X144672487Y-68573174D01*
X144573176Y-68672485D01*
X144502952Y-68794115D01*
X144489768Y-68843319D01*
X143929547Y-68283098D01*
X143929546Y-68283099D01*
X143898921Y-68325250D01*
X143806923Y-68505807D01*
X143744301Y-68698536D01*
X143712602Y-68898679D01*
X143287403Y-68898679D01*
X143255703Y-68698536D01*
X143193081Y-68505807D01*
X143101085Y-68325254D01*
X143070456Y-68283099D01*
X142510236Y-68843318D01*
X142497053Y-68794115D01*
X142426829Y-68672485D01*
X142327518Y-68573174D01*
X142205888Y-68502950D01*
X142156683Y-68489765D01*
X142716903Y-67929546D01*
X142716902Y-67929545D01*
X142674747Y-67898916D01*
X142494195Y-67806921D01*
X142301466Y-67744299D01*
X142301467Y-67744299D01*
X142101323Y-67712600D01*
X141898683Y-67712600D01*
X141698539Y-67744299D01*
X141505810Y-67806921D01*
X141325253Y-67898919D01*
X141283102Y-67929544D01*
X141283101Y-67929545D01*
X141843322Y-68489765D01*
X141794118Y-68502950D01*
X141672488Y-68573174D01*
X141573177Y-68672485D01*
X141502953Y-68794115D01*
X141489769Y-68843319D01*
X140929548Y-68283098D01*
X140929547Y-68283099D01*
X140898922Y-68325250D01*
X140806924Y-68505807D01*
X140744302Y-68698536D01*
X140712603Y-68898679D01*
X140287404Y-68898679D01*
X140255704Y-68698536D01*
X140193082Y-68505807D01*
X140101086Y-68325254D01*
X140070457Y-68283099D01*
X139510237Y-68843318D01*
X139497054Y-68794115D01*
X139426830Y-68672485D01*
X139327519Y-68573174D01*
X139205889Y-68502950D01*
X139156684Y-68489765D01*
X139716904Y-67929546D01*
X139716903Y-67929545D01*
X139674748Y-67898916D01*
X139494196Y-67806921D01*
X139301467Y-67744299D01*
X139301468Y-67744299D01*
X139101324Y-67712600D01*
X138898684Y-67712600D01*
X138698540Y-67744299D01*
X138505811Y-67806921D01*
X138325254Y-67898919D01*
X138283103Y-67929544D01*
X138283102Y-67929545D01*
X138843323Y-68489765D01*
X138794119Y-68502950D01*
X138672489Y-68573174D01*
X138573178Y-68672485D01*
X138502954Y-68794115D01*
X138489770Y-68843319D01*
X137929549Y-68283098D01*
X137929548Y-68283099D01*
X137898923Y-68325250D01*
X137806925Y-68505807D01*
X137744303Y-68698536D01*
X137712604Y-68898679D01*
X137287405Y-68898679D01*
X137255705Y-68698536D01*
X137193083Y-68505807D01*
X137101087Y-68325254D01*
X137070458Y-68283099D01*
X136510238Y-68843318D01*
X136497055Y-68794115D01*
X136426831Y-68672485D01*
X136327520Y-68573174D01*
X136205890Y-68502950D01*
X136156685Y-68489765D01*
X136716905Y-67929546D01*
X136716904Y-67929545D01*
X136674749Y-67898916D01*
X136494197Y-67806921D01*
X136301468Y-67744299D01*
X136301469Y-67744299D01*
X136101325Y-67712600D01*
X135898685Y-67712600D01*
X135698541Y-67744299D01*
X135505812Y-67806921D01*
X135325255Y-67898919D01*
X135283104Y-67929544D01*
X135283103Y-67929545D01*
X135843324Y-68489765D01*
X135794120Y-68502950D01*
X135672490Y-68573174D01*
X135573179Y-68672485D01*
X135502955Y-68794115D01*
X135489771Y-68843319D01*
X134929550Y-68283098D01*
X134929549Y-68283099D01*
X134898924Y-68325250D01*
X134806926Y-68505807D01*
X134744304Y-68698536D01*
X134712605Y-68898679D01*
X134287406Y-68898679D01*
X134255706Y-68698536D01*
X134193084Y-68505807D01*
X134101088Y-68325254D01*
X134070459Y-68283099D01*
X133510239Y-68843318D01*
X133497056Y-68794115D01*
X133426832Y-68672485D01*
X133327521Y-68573174D01*
X133205891Y-68502950D01*
X133156686Y-68489765D01*
X133716906Y-67929546D01*
X133716905Y-67929545D01*
X133674750Y-67898916D01*
X133494198Y-67806921D01*
X133301469Y-67744299D01*
X133301470Y-67744299D01*
X133101326Y-67712600D01*
X132898686Y-67712600D01*
X132698542Y-67744299D01*
X132505813Y-67806921D01*
X132325256Y-67898919D01*
X132283105Y-67929544D01*
X132283104Y-67929545D01*
X132843325Y-68489765D01*
X132794121Y-68502950D01*
X132672491Y-68573174D01*
X132573180Y-68672485D01*
X132502956Y-68794115D01*
X132489772Y-68843319D01*
X131929551Y-68283098D01*
X131929550Y-68283099D01*
X131898925Y-68325250D01*
X131806927Y-68505807D01*
X131744305Y-68698536D01*
X131712606Y-68898679D01*
X117375500Y-68898679D01*
X117375500Y-67987711D01*
X129266105Y-67987711D01*
X129266105Y-68132286D01*
X129294306Y-68274062D01*
X129294308Y-68274070D01*
X129349629Y-68407628D01*
X129429947Y-68527832D01*
X129429950Y-68527836D01*
X129532167Y-68630053D01*
X129532171Y-68630056D01*
X129652373Y-68710373D01*
X129785934Y-68765696D01*
X129927717Y-68793898D01*
X129927721Y-68793899D01*
X129927722Y-68793899D01*
X130072289Y-68793899D01*
X130072290Y-68793898D01*
X130109448Y-68786507D01*
X130181430Y-68772190D01*
X130197822Y-68768928D01*
X130214076Y-68765696D01*
X130347637Y-68710373D01*
X130467839Y-68630056D01*
X130570062Y-68527833D01*
X130650379Y-68407631D01*
X130705702Y-68274070D01*
X130733905Y-68132282D01*
X130733905Y-67987716D01*
X130705702Y-67845928D01*
X130650379Y-67712367D01*
X130570062Y-67592165D01*
X130570059Y-67592161D01*
X130467842Y-67489944D01*
X130467838Y-67489941D01*
X130347634Y-67409623D01*
X130214076Y-67354302D01*
X130214068Y-67354300D01*
X130072292Y-67326099D01*
X130072288Y-67326099D01*
X129927722Y-67326099D01*
X129927717Y-67326099D01*
X129785941Y-67354300D01*
X129785933Y-67354302D01*
X129652375Y-67409623D01*
X129532171Y-67489941D01*
X129532167Y-67489944D01*
X129429950Y-67592161D01*
X129429947Y-67592165D01*
X129349629Y-67712369D01*
X129294308Y-67845927D01*
X129294306Y-67845935D01*
X129266105Y-67987711D01*
X117375500Y-67987711D01*
X117375500Y-67710546D01*
X117395185Y-67643507D01*
X117447989Y-67597752D01*
X117517147Y-67587808D01*
X117555796Y-67600062D01*
X117561655Y-67603047D01*
X117561658Y-67603050D01*
X117674694Y-67660645D01*
X117674696Y-67660646D01*
X117674698Y-67660647D01*
X117768475Y-67675499D01*
X117768481Y-67675500D01*
X118231518Y-67675499D01*
X118325304Y-67660646D01*
X118438342Y-67603050D01*
X118528050Y-67513342D01*
X118585646Y-67400304D01*
X118585646Y-67400302D01*
X118585647Y-67400301D01*
X118600499Y-67306524D01*
X118600500Y-67306519D01*
X118600499Y-66693482D01*
X118600498Y-66693475D01*
X119049500Y-66693475D01*
X119049500Y-67306517D01*
X119060292Y-67374657D01*
X119064354Y-67400304D01*
X119121950Y-67513342D01*
X119121952Y-67513344D01*
X119121954Y-67513347D01*
X119211652Y-67603045D01*
X119211654Y-67603046D01*
X119211658Y-67603050D01*
X119324694Y-67660645D01*
X119324698Y-67660647D01*
X119418475Y-67675499D01*
X119418481Y-67675500D01*
X119881518Y-67675499D01*
X119975304Y-67660646D01*
X120088342Y-67603050D01*
X120178050Y-67513342D01*
X120235646Y-67400304D01*
X120235646Y-67400302D01*
X120235647Y-67400301D01*
X120250499Y-67306524D01*
X120250500Y-67306519D01*
X120250499Y-66693482D01*
X120235646Y-66599696D01*
X120178050Y-66486658D01*
X120178046Y-66486654D01*
X120178045Y-66486652D01*
X120088347Y-66396954D01*
X120088344Y-66396952D01*
X120088342Y-66396950D01*
X120011517Y-66357805D01*
X119975301Y-66339352D01*
X119881524Y-66324500D01*
X119418482Y-66324500D01*
X119337519Y-66337323D01*
X119324696Y-66339354D01*
X119211658Y-66396950D01*
X119211657Y-66396951D01*
X119211652Y-66396954D01*
X119121954Y-66486652D01*
X119121951Y-66486657D01*
X119064352Y-66599698D01*
X119049500Y-66693475D01*
X118600498Y-66693475D01*
X118585646Y-66599696D01*
X118528050Y-66486658D01*
X118528046Y-66486654D01*
X118528045Y-66486652D01*
X118438347Y-66396954D01*
X118438344Y-66396952D01*
X118438342Y-66396950D01*
X118361517Y-66357805D01*
X118325301Y-66339352D01*
X118231524Y-66324500D01*
X117768482Y-66324500D01*
X117687519Y-66337323D01*
X117674696Y-66339354D01*
X117561658Y-66396950D01*
X117561657Y-66396951D01*
X117561652Y-66396954D01*
X117471954Y-66486652D01*
X117471951Y-66486657D01*
X117414352Y-66599698D01*
X117399500Y-66693475D01*
X117399500Y-67070119D01*
X117379815Y-67137158D01*
X117327011Y-67182913D01*
X117257853Y-67192857D01*
X117200575Y-67168923D01*
X117097343Y-67090639D01*
X116956561Y-67035122D01*
X116910926Y-67029642D01*
X116868102Y-67024500D01*
X116056898Y-67024500D01*
X116017853Y-67029188D01*
X115968438Y-67035122D01*
X115827656Y-67090639D01*
X115707077Y-67182077D01*
X115615639Y-67302656D01*
X115560122Y-67443438D01*
X115554538Y-67489941D01*
X115549500Y-67531898D01*
X115549500Y-70468102D01*
X115551173Y-70482030D01*
X115560122Y-70556561D01*
X115560122Y-70556563D01*
X115560123Y-70556564D01*
X115595479Y-70646219D01*
X115615639Y-70697342D01*
X115627570Y-70713076D01*
X115652392Y-70778388D01*
X115637963Y-70846751D01*
X115588865Y-70896462D01*
X115528765Y-70912000D01*
X113067255Y-70912000D01*
X113000216Y-70892315D01*
X112979574Y-70875681D01*
X111686818Y-69582925D01*
X111653333Y-69521602D01*
X111650499Y-69495244D01*
X111650499Y-67524998D01*
X111650498Y-67524981D01*
X111639999Y-67422203D01*
X111639998Y-67422200D01*
X111632741Y-67400301D01*
X111584814Y-67255666D01*
X111492712Y-67106344D01*
X111368656Y-66982288D01*
X111219334Y-66890186D01*
X111052797Y-66835001D01*
X111052795Y-66835000D01*
X110950010Y-66824500D01*
X110124998Y-66824500D01*
X110124980Y-66824501D01*
X110022203Y-66835000D01*
X110022200Y-66835001D01*
X109855668Y-66890185D01*
X109855663Y-66890187D01*
X109706342Y-66982289D01*
X109582289Y-67106342D01*
X109490187Y-67255663D01*
X109490185Y-67255668D01*
X109473335Y-67306518D01*
X109435001Y-67422203D01*
X109435001Y-67422204D01*
X109435000Y-67422204D01*
X109424500Y-67524983D01*
X109424500Y-70475001D01*
X109424501Y-70475018D01*
X109435000Y-70577796D01*
X109435001Y-70577799D01*
X109490185Y-70744331D01*
X109490187Y-70744336D01*
X109522681Y-70797017D01*
X109582288Y-70893656D01*
X109706344Y-71017712D01*
X109855666Y-71109814D01*
X110022203Y-71164999D01*
X110124991Y-71175500D01*
X110950008Y-71175499D01*
X110950016Y-71175498D01*
X110950019Y-71175498D01*
X111006302Y-71169748D01*
X111052797Y-71164999D01*
X111219334Y-71109814D01*
X111368656Y-71017712D01*
X111492712Y-70893656D01*
X111552319Y-70797016D01*
X111604267Y-70750292D01*
X111673229Y-70739069D01*
X111737312Y-70766913D01*
X111745539Y-70774432D01*
X112604087Y-71632980D01*
X112695412Y-71685707D01*
X112797273Y-71713000D01*
X115528765Y-71713000D01*
X115595804Y-71732685D01*
X115641559Y-71785489D01*
X115651503Y-71854647D01*
X115627570Y-71911924D01*
X115615639Y-71927657D01*
X115560122Y-72068438D01*
X115556657Y-72097299D01*
X115549500Y-72156898D01*
X115549500Y-75093102D01*
X115555126Y-75139954D01*
X115560122Y-75181561D01*
X115560122Y-75181563D01*
X115560123Y-75181564D01*
X115597700Y-75276852D01*
X115615639Y-75322342D01*
X115627570Y-75338076D01*
X115652392Y-75403388D01*
X115637963Y-75471751D01*
X115588865Y-75521462D01*
X115528765Y-75537000D01*
X113067255Y-75537000D01*
X113000216Y-75517315D01*
X112979574Y-75500681D01*
X111686818Y-74207925D01*
X111653333Y-74146602D01*
X111650499Y-74120244D01*
X111650499Y-72149998D01*
X111650498Y-72149981D01*
X111639999Y-72047203D01*
X111639998Y-72047200D01*
X111632416Y-72024318D01*
X111584814Y-71880666D01*
X111492712Y-71731344D01*
X111368656Y-71607288D01*
X111219334Y-71515186D01*
X111052797Y-71460001D01*
X111052795Y-71460000D01*
X110950010Y-71449500D01*
X110124998Y-71449500D01*
X110124980Y-71449501D01*
X110022203Y-71460000D01*
X110022200Y-71460001D01*
X109855668Y-71515185D01*
X109855663Y-71515187D01*
X109706342Y-71607289D01*
X109582289Y-71731342D01*
X109490187Y-71880663D01*
X109490185Y-71880668D01*
X109474615Y-71927657D01*
X109435001Y-72047203D01*
X109435001Y-72047204D01*
X109435000Y-72047204D01*
X109424500Y-72149983D01*
X109424500Y-75100001D01*
X109424501Y-75100018D01*
X109435000Y-75202796D01*
X109435001Y-75202799D01*
X109490185Y-75369331D01*
X109490187Y-75369336D01*
X109522681Y-75422017D01*
X109582288Y-75518656D01*
X109706344Y-75642712D01*
X109855666Y-75734814D01*
X110022203Y-75789999D01*
X110124991Y-75800500D01*
X110950008Y-75800499D01*
X110950016Y-75800498D01*
X110950019Y-75800498D01*
X111006302Y-75794748D01*
X111052797Y-75789999D01*
X111219334Y-75734814D01*
X111368656Y-75642712D01*
X111492712Y-75518656D01*
X111552319Y-75422016D01*
X111604267Y-75375292D01*
X111673229Y-75364069D01*
X111737312Y-75391913D01*
X111745539Y-75399432D01*
X112604087Y-76257980D01*
X112695412Y-76310707D01*
X112797273Y-76338000D01*
X112902727Y-76338000D01*
X115528765Y-76338000D01*
X115595804Y-76357685D01*
X115641559Y-76410489D01*
X115651503Y-76479647D01*
X115627570Y-76536924D01*
X115615639Y-76552657D01*
X115560122Y-76693438D01*
X115556389Y-76724531D01*
X115549500Y-76781898D01*
X115549500Y-79718102D01*
X115555126Y-79764954D01*
X115560122Y-79806561D01*
X115560122Y-79806563D01*
X115560123Y-79806564D01*
X115597552Y-79901476D01*
X115615639Y-79947342D01*
X115627570Y-79963076D01*
X115652392Y-80028388D01*
X115637963Y-80096751D01*
X115588865Y-80146462D01*
X115528765Y-80162000D01*
X113067255Y-80162000D01*
X113000216Y-80142315D01*
X112979574Y-80125681D01*
X111686818Y-78832925D01*
X111653333Y-78771602D01*
X111650499Y-78745244D01*
X111650499Y-76774998D01*
X111650498Y-76774981D01*
X111639999Y-76672203D01*
X111639998Y-76672200D01*
X111637776Y-76665494D01*
X111584814Y-76505666D01*
X111492712Y-76356344D01*
X111368656Y-76232288D01*
X111219334Y-76140186D01*
X111052797Y-76085001D01*
X111052795Y-76085000D01*
X110950010Y-76074500D01*
X110124998Y-76074500D01*
X110124980Y-76074501D01*
X110022203Y-76085000D01*
X110022200Y-76085001D01*
X109855668Y-76140185D01*
X109855663Y-76140187D01*
X109706342Y-76232289D01*
X109582289Y-76356342D01*
X109490187Y-76505663D01*
X109490185Y-76505668D01*
X109466366Y-76577550D01*
X109435001Y-76672203D01*
X109435001Y-76672204D01*
X109435000Y-76672204D01*
X109424500Y-76774983D01*
X109424500Y-79725001D01*
X109424501Y-79725018D01*
X109435000Y-79827796D01*
X109435001Y-79827799D01*
X109490185Y-79994331D01*
X109490187Y-79994336D01*
X109520627Y-80043687D01*
X109582288Y-80143656D01*
X109706344Y-80267712D01*
X109855666Y-80359814D01*
X110022203Y-80414999D01*
X110124991Y-80425500D01*
X110950008Y-80425499D01*
X110950016Y-80425498D01*
X110950019Y-80425498D01*
X111006302Y-80419748D01*
X111052797Y-80414999D01*
X111219334Y-80359814D01*
X111368656Y-80267712D01*
X111492712Y-80143656D01*
X111552319Y-80047016D01*
X111604267Y-80000292D01*
X111673229Y-79989069D01*
X111737312Y-80016913D01*
X111745539Y-80024432D01*
X112604087Y-80882980D01*
X112695412Y-80935707D01*
X112797273Y-80963000D01*
X112902727Y-80963000D01*
X115528765Y-80963000D01*
X115595804Y-80982685D01*
X115641559Y-81035489D01*
X115651503Y-81104647D01*
X115627570Y-81161924D01*
X115615639Y-81177657D01*
X115560122Y-81318438D01*
X115554188Y-81367853D01*
X115549500Y-81406898D01*
X115549500Y-84343102D01*
X115553632Y-84377511D01*
X115560122Y-84431561D01*
X115560122Y-84431563D01*
X115560123Y-84431564D01*
X115595479Y-84521219D01*
X115615639Y-84572342D01*
X115627570Y-84588076D01*
X115652392Y-84653388D01*
X115637963Y-84721751D01*
X115588865Y-84771462D01*
X115528765Y-84787000D01*
X113067255Y-84787000D01*
X113000216Y-84767315D01*
X112979574Y-84750681D01*
X111686818Y-83457925D01*
X111653333Y-83396602D01*
X111650499Y-83370244D01*
X111650499Y-81399998D01*
X111650498Y-81399981D01*
X111639999Y-81297203D01*
X111639998Y-81297200D01*
X111632416Y-81274318D01*
X111584814Y-81130666D01*
X111492712Y-80981344D01*
X111368656Y-80857288D01*
X111249015Y-80783493D01*
X111219336Y-80765187D01*
X111219331Y-80765185D01*
X111191697Y-80756028D01*
X111052797Y-80710001D01*
X111052795Y-80710000D01*
X110950010Y-80699500D01*
X110124998Y-80699500D01*
X110124980Y-80699501D01*
X110022203Y-80710000D01*
X110022200Y-80710001D01*
X109855668Y-80765185D01*
X109855663Y-80765187D01*
X109706342Y-80857289D01*
X109582289Y-80981342D01*
X109490187Y-81130663D01*
X109490185Y-81130668D01*
X109475329Y-81175500D01*
X109435001Y-81297203D01*
X109435001Y-81297204D01*
X109435000Y-81297204D01*
X109424500Y-81399983D01*
X109424500Y-84350001D01*
X109424501Y-84350018D01*
X109435000Y-84452796D01*
X109435001Y-84452799D01*
X109490185Y-84619331D01*
X109490187Y-84619336D01*
X109522681Y-84672017D01*
X109582288Y-84768656D01*
X109706344Y-84892712D01*
X109855666Y-84984814D01*
X110022203Y-85039999D01*
X110124991Y-85050500D01*
X110950008Y-85050499D01*
X110950016Y-85050498D01*
X110950019Y-85050498D01*
X111006302Y-85044748D01*
X111052797Y-85039999D01*
X111219334Y-84984814D01*
X111368656Y-84892712D01*
X111492712Y-84768656D01*
X111552319Y-84672016D01*
X111604267Y-84625292D01*
X111673229Y-84614069D01*
X111737312Y-84641913D01*
X111745539Y-84649432D01*
X112604087Y-85507980D01*
X112695412Y-85560707D01*
X112797273Y-85588000D01*
X112902727Y-85588000D01*
X115528765Y-85588000D01*
X115595804Y-85607685D01*
X115641559Y-85660489D01*
X115651503Y-85729647D01*
X115627570Y-85786924D01*
X115615639Y-85802657D01*
X115560122Y-85943438D01*
X115554188Y-85992853D01*
X115549500Y-86031898D01*
X115549500Y-88968102D01*
X115551173Y-88982030D01*
X115560122Y-89056561D01*
X115560122Y-89056563D01*
X115560123Y-89056564D01*
X115595479Y-89146219D01*
X115615639Y-89197342D01*
X115627570Y-89213076D01*
X115652392Y-89278388D01*
X115637963Y-89346751D01*
X115588865Y-89396462D01*
X115528765Y-89412000D01*
X113067255Y-89412000D01*
X113000216Y-89392315D01*
X112979574Y-89375681D01*
X111686818Y-88082925D01*
X111653333Y-88021602D01*
X111650499Y-87995244D01*
X111650499Y-86024998D01*
X111650498Y-86024981D01*
X111639999Y-85922203D01*
X111639998Y-85922200D01*
X111632416Y-85899318D01*
X111584814Y-85755666D01*
X111492712Y-85606344D01*
X111368656Y-85482288D01*
X111275888Y-85425069D01*
X111219336Y-85390187D01*
X111219331Y-85390185D01*
X111215357Y-85388868D01*
X111052797Y-85335001D01*
X111052795Y-85335000D01*
X110950010Y-85324500D01*
X110124998Y-85324500D01*
X110124980Y-85324501D01*
X110022203Y-85335000D01*
X110022200Y-85335001D01*
X109855668Y-85390185D01*
X109855663Y-85390187D01*
X109706342Y-85482289D01*
X109582289Y-85606342D01*
X109490187Y-85755663D01*
X109490185Y-85755668D01*
X109477878Y-85792808D01*
X109435001Y-85922203D01*
X109435001Y-85922204D01*
X109435000Y-85922204D01*
X109424500Y-86024983D01*
X109424500Y-88975001D01*
X109424501Y-88975018D01*
X109435000Y-89077796D01*
X109435001Y-89077799D01*
X109490185Y-89244331D01*
X109490187Y-89244336D01*
X109522681Y-89297017D01*
X109582288Y-89393656D01*
X109706344Y-89517712D01*
X109855666Y-89609814D01*
X110022203Y-89664999D01*
X110124991Y-89675500D01*
X110950008Y-89675499D01*
X110950016Y-89675498D01*
X110950019Y-89675498D01*
X111006302Y-89669748D01*
X111052797Y-89664999D01*
X111219334Y-89609814D01*
X111368656Y-89517712D01*
X111492712Y-89393656D01*
X111552319Y-89297016D01*
X111604267Y-89250292D01*
X111673229Y-89239069D01*
X111737312Y-89266913D01*
X111745539Y-89274432D01*
X112604087Y-90132980D01*
X112695412Y-90185707D01*
X112797273Y-90213000D01*
X112902727Y-90213000D01*
X115528765Y-90213000D01*
X115595804Y-90232685D01*
X115641559Y-90285489D01*
X115651503Y-90354647D01*
X115627570Y-90411924D01*
X115615639Y-90427657D01*
X115560122Y-90568438D01*
X115555285Y-90608721D01*
X115549500Y-90656898D01*
X115549500Y-93593102D01*
X115555126Y-93639954D01*
X115560122Y-93681561D01*
X115560122Y-93681563D01*
X115560123Y-93681564D01*
X115592250Y-93763033D01*
X115615639Y-93822342D01*
X115627570Y-93838076D01*
X115652392Y-93903388D01*
X115637963Y-93971751D01*
X115588865Y-94021462D01*
X115528765Y-94037000D01*
X113067255Y-94037000D01*
X113000216Y-94017315D01*
X112979574Y-94000681D01*
X111686818Y-92707925D01*
X111653333Y-92646602D01*
X111650499Y-92620244D01*
X111650499Y-90649998D01*
X111650498Y-90649981D01*
X111639999Y-90547203D01*
X111639998Y-90547200D01*
X111632416Y-90524318D01*
X111584814Y-90380666D01*
X111492712Y-90231344D01*
X111368656Y-90107288D01*
X111219334Y-90015186D01*
X111052797Y-89960001D01*
X111052795Y-89960000D01*
X110950010Y-89949500D01*
X110124998Y-89949500D01*
X110124980Y-89949501D01*
X110022203Y-89960000D01*
X110022200Y-89960001D01*
X109855668Y-90015185D01*
X109855663Y-90015187D01*
X109706342Y-90107289D01*
X109582289Y-90231342D01*
X109490187Y-90380663D01*
X109490185Y-90380668D01*
X109474615Y-90427657D01*
X109435001Y-90547203D01*
X109435001Y-90547204D01*
X109435000Y-90547204D01*
X109424500Y-90649983D01*
X109424500Y-93600001D01*
X109424501Y-93600018D01*
X109435000Y-93702796D01*
X109435001Y-93702799D01*
X109490185Y-93869331D01*
X109490187Y-93869336D01*
X109522681Y-93922017D01*
X109582288Y-94018656D01*
X109706344Y-94142712D01*
X109855666Y-94234814D01*
X110022203Y-94289999D01*
X110124991Y-94300500D01*
X110950008Y-94300499D01*
X110950016Y-94300498D01*
X110950019Y-94300498D01*
X111006302Y-94294748D01*
X111052797Y-94289999D01*
X111219334Y-94234814D01*
X111368656Y-94142712D01*
X111492712Y-94018656D01*
X111552319Y-93922016D01*
X111604267Y-93875292D01*
X111673229Y-93864069D01*
X111737312Y-93891913D01*
X111745539Y-93899432D01*
X112604087Y-94757980D01*
X112695412Y-94810707D01*
X112797273Y-94838000D01*
X115528765Y-94838000D01*
X115595804Y-94857685D01*
X115641559Y-94910489D01*
X115651503Y-94979647D01*
X115627570Y-95036924D01*
X115615639Y-95052657D01*
X115560122Y-95193438D01*
X115554743Y-95238238D01*
X115549500Y-95281898D01*
X115549500Y-98218102D01*
X115553800Y-98253910D01*
X115560122Y-98306561D01*
X115560122Y-98306563D01*
X115560123Y-98306564D01*
X115606945Y-98425295D01*
X115615639Y-98447342D01*
X115627570Y-98463076D01*
X115652392Y-98528388D01*
X115637963Y-98596751D01*
X115588865Y-98646462D01*
X115528765Y-98662000D01*
X113067255Y-98662000D01*
X113000216Y-98642315D01*
X112979574Y-98625681D01*
X111686818Y-97332925D01*
X111653333Y-97271602D01*
X111650499Y-97245244D01*
X111650499Y-95274998D01*
X111650498Y-95274981D01*
X111639999Y-95172203D01*
X111639998Y-95172200D01*
X111632416Y-95149318D01*
X111584814Y-95005666D01*
X111492712Y-94856344D01*
X111368656Y-94732288D01*
X111219334Y-94640186D01*
X111052797Y-94585001D01*
X111052795Y-94585000D01*
X110950010Y-94574500D01*
X110124998Y-94574500D01*
X110124980Y-94574501D01*
X110022203Y-94585000D01*
X110022200Y-94585001D01*
X109855668Y-94640185D01*
X109855663Y-94640187D01*
X109706342Y-94732289D01*
X109582289Y-94856342D01*
X109490187Y-95005663D01*
X109490185Y-95005668D01*
X109465473Y-95080245D01*
X109435001Y-95172203D01*
X109435001Y-95172204D01*
X109435000Y-95172204D01*
X109424500Y-95274983D01*
X109424500Y-98225001D01*
X109424501Y-98225018D01*
X109435000Y-98327796D01*
X109435001Y-98327799D01*
X109490185Y-98494331D01*
X109490187Y-98494336D01*
X109521606Y-98545275D01*
X109582288Y-98643656D01*
X109706344Y-98767712D01*
X109855666Y-98859814D01*
X110022203Y-98914999D01*
X110124991Y-98925500D01*
X110950008Y-98925499D01*
X110950016Y-98925498D01*
X110950019Y-98925498D01*
X111006302Y-98919748D01*
X111052797Y-98914999D01*
X111219334Y-98859814D01*
X111368656Y-98767712D01*
X111492712Y-98643656D01*
X111552319Y-98547016D01*
X111604267Y-98500292D01*
X111673229Y-98489069D01*
X111737312Y-98516913D01*
X111745539Y-98524432D01*
X112604087Y-99382980D01*
X112695412Y-99435707D01*
X112797273Y-99463000D01*
X115528765Y-99463000D01*
X115595804Y-99482685D01*
X115641559Y-99535489D01*
X115651503Y-99604647D01*
X115627570Y-99661924D01*
X115615639Y-99677657D01*
X115560122Y-99818438D01*
X115554188Y-99867853D01*
X115549500Y-99906898D01*
X115549500Y-102843102D01*
X115555126Y-102889954D01*
X115560122Y-102931561D01*
X115560122Y-102931563D01*
X115560123Y-102931564D01*
X115595165Y-103020424D01*
X115615639Y-103072342D01*
X115627570Y-103088076D01*
X115652392Y-103153388D01*
X115637963Y-103221751D01*
X115588865Y-103271462D01*
X115528765Y-103287000D01*
X113067255Y-103287000D01*
X113000216Y-103267315D01*
X112979574Y-103250681D01*
X111686818Y-101957925D01*
X111653333Y-101896602D01*
X111650499Y-101870244D01*
X111650499Y-99899998D01*
X111650498Y-99899981D01*
X111639999Y-99797203D01*
X111639998Y-99797200D01*
X111632641Y-99774998D01*
X111584814Y-99630666D01*
X111492712Y-99481344D01*
X111368656Y-99357288D01*
X111219334Y-99265186D01*
X111052797Y-99210001D01*
X111052795Y-99210000D01*
X110950010Y-99199500D01*
X110124998Y-99199500D01*
X110124980Y-99199501D01*
X110022203Y-99210000D01*
X110022200Y-99210001D01*
X109855668Y-99265185D01*
X109855663Y-99265187D01*
X109706342Y-99357289D01*
X109582289Y-99481342D01*
X109490187Y-99630663D01*
X109490185Y-99630668D01*
X109474615Y-99677657D01*
X109435001Y-99797203D01*
X109435001Y-99797204D01*
X109435000Y-99797204D01*
X109424500Y-99899983D01*
X109424500Y-102850001D01*
X109424501Y-102850018D01*
X109435000Y-102952796D01*
X109435001Y-102952799D01*
X109490185Y-103119331D01*
X109490187Y-103119336D01*
X109522681Y-103172017D01*
X109582288Y-103268656D01*
X109706344Y-103392712D01*
X109855666Y-103484814D01*
X110022203Y-103539999D01*
X110124991Y-103550500D01*
X110950008Y-103550499D01*
X110950016Y-103550498D01*
X110950019Y-103550498D01*
X111006302Y-103544748D01*
X111052797Y-103539999D01*
X111219334Y-103484814D01*
X111368656Y-103392712D01*
X111492712Y-103268656D01*
X111552319Y-103172016D01*
X111604267Y-103125292D01*
X111673229Y-103114069D01*
X111737312Y-103141913D01*
X111745539Y-103149432D01*
X112604087Y-104007980D01*
X112695412Y-104060707D01*
X112797273Y-104088000D01*
X112902727Y-104088000D01*
X115528765Y-104088000D01*
X115595804Y-104107685D01*
X115641559Y-104160489D01*
X115651503Y-104229647D01*
X115627570Y-104286924D01*
X115615639Y-104302657D01*
X115560122Y-104443438D01*
X115559093Y-104452011D01*
X115549500Y-104531898D01*
X115549500Y-107468102D01*
X115555126Y-107514954D01*
X115560122Y-107556561D01*
X115560122Y-107556563D01*
X115560123Y-107556564D01*
X115568496Y-107577796D01*
X115615639Y-107697343D01*
X115707077Y-107817922D01*
X115827656Y-107909360D01*
X115827657Y-107909360D01*
X115827658Y-107909361D01*
X115968436Y-107964877D01*
X116056898Y-107975500D01*
X116056903Y-107975500D01*
X116868096Y-107975500D01*
X116868102Y-107975500D01*
X116956564Y-107964877D01*
X116956565Y-107964876D01*
X116960716Y-107964378D01*
X117029624Y-107975930D01*
X117081348Y-108022902D01*
X117099500Y-108087494D01*
X117099500Y-108331613D01*
X117105913Y-108402192D01*
X117105913Y-108402194D01*
X117105914Y-108402196D01*
X117156522Y-108564606D01*
X117223559Y-108675499D01*
X117244530Y-108710188D01*
X117364811Y-108830469D01*
X117364813Y-108830470D01*
X117364815Y-108830472D01*
X117510394Y-108918478D01*
X117672804Y-108969086D01*
X117743384Y-108975500D01*
X117743387Y-108975500D01*
X118256613Y-108975500D01*
X118256616Y-108975500D01*
X118327196Y-108969086D01*
X118489606Y-108918478D01*
X118635185Y-108830472D01*
X118755472Y-108710185D01*
X118843478Y-108564606D01*
X118868461Y-108484428D01*
X118907197Y-108426282D01*
X118971222Y-108398307D01*
X119040207Y-108409388D01*
X119092251Y-108456006D01*
X119097330Y-108465024D01*
X119121947Y-108513338D01*
X119121954Y-108513347D01*
X119211652Y-108603045D01*
X119211654Y-108603046D01*
X119211658Y-108603050D01*
X119324694Y-108660645D01*
X119324698Y-108660647D01*
X119418475Y-108675499D01*
X119418481Y-108675500D01*
X119881518Y-108675499D01*
X119975304Y-108660646D01*
X120088342Y-108603050D01*
X120178050Y-108513342D01*
X120235646Y-108400304D01*
X120235646Y-108400303D01*
X120239263Y-108393205D01*
X120287238Y-108342409D01*
X120349748Y-108325500D01*
X135392851Y-108325500D01*
X135392853Y-108325500D01*
X135475639Y-108303318D01*
X135549862Y-108260465D01*
X142798508Y-101011819D01*
X142859831Y-100978334D01*
X142886189Y-100975500D01*
X143308493Y-100975500D01*
X143408121Y-100959720D01*
X143408121Y-100959719D01*
X143408126Y-100959719D01*
X143528220Y-100898528D01*
X143623528Y-100803220D01*
X143684719Y-100683126D01*
X143688420Y-100659759D01*
X143700500Y-100583493D01*
X143700500Y-100016506D01*
X143684720Y-99916878D01*
X143684719Y-99916876D01*
X143684719Y-99916874D01*
X143623528Y-99796780D01*
X143623526Y-99796778D01*
X143623523Y-99796774D01*
X143528225Y-99701476D01*
X143528221Y-99701473D01*
X143528220Y-99701472D01*
X143447775Y-99660483D01*
X143396981Y-99612511D01*
X143380186Y-99544690D01*
X143402723Y-99478555D01*
X143447774Y-99439516D01*
X143528220Y-99398528D01*
X143547173Y-99379574D01*
X143608494Y-99346090D01*
X143678185Y-99351073D01*
X143734120Y-99392944D01*
X143740392Y-99402159D01*
X143802424Y-99502728D01*
X143802427Y-99502732D01*
X143922267Y-99622572D01*
X143922271Y-99622575D01*
X144066507Y-99711542D01*
X144066518Y-99711547D01*
X144227393Y-99764855D01*
X144326683Y-99774999D01*
X144850000Y-99774999D01*
X144873308Y-99774999D01*
X144873322Y-99774998D01*
X144972607Y-99764855D01*
X145133481Y-99711547D01*
X145133492Y-99711542D01*
X145277728Y-99622575D01*
X145277732Y-99622572D01*
X145397572Y-99502732D01*
X145397575Y-99502728D01*
X145486542Y-99358492D01*
X145486547Y-99358481D01*
X145539855Y-99197606D01*
X145549999Y-99098322D01*
X145550000Y-99098309D01*
X145550000Y-99050000D01*
X144850000Y-99050000D01*
X144850000Y-99774999D01*
X144326683Y-99774999D01*
X144350000Y-99774998D01*
X144350000Y-98550000D01*
X144850000Y-98550000D01*
X145549999Y-98550000D01*
X145549999Y-98501692D01*
X145549998Y-98501677D01*
X145539855Y-98402392D01*
X145486547Y-98241518D01*
X145486542Y-98241507D01*
X145397575Y-98097271D01*
X145397572Y-98097267D01*
X145277732Y-97977427D01*
X145277728Y-97977424D01*
X145133492Y-97888457D01*
X145133481Y-97888452D01*
X144972606Y-97835144D01*
X144873322Y-97825000D01*
X144850000Y-97825000D01*
X144850000Y-98550000D01*
X144350000Y-98550000D01*
X144350000Y-97824999D01*
X144326693Y-97825000D01*
X144326674Y-97825001D01*
X144227391Y-97835144D01*
X144123503Y-97869569D01*
X144053675Y-97871971D01*
X143993633Y-97836239D01*
X143962441Y-97773718D01*
X143960500Y-97751863D01*
X143960500Y-93340173D01*
X143960499Y-93340170D01*
X143952954Y-93321954D01*
X143922364Y-93248103D01*
X143851897Y-93177636D01*
X143361896Y-92687635D01*
X143329439Y-92674191D01*
X143269828Y-92649499D01*
X143269827Y-92649499D01*
X143123998Y-92649499D01*
X143056959Y-92629814D01*
X143011204Y-92577010D01*
X143006809Y-92556810D01*
X142999998Y-92549999D01*
X141873998Y-92549999D01*
X141806959Y-92530314D01*
X141761204Y-92477510D01*
X141749998Y-92425999D01*
X141749998Y-92374001D01*
X141769683Y-92306962D01*
X141822487Y-92261207D01*
X141873998Y-92250001D01*
X142999998Y-92250001D01*
X142999998Y-92202172D01*
X142999997Y-92202155D01*
X142993596Y-92142627D01*
X142993594Y-92142620D01*
X142943352Y-92007913D01*
X142943348Y-92007906D01*
X142857188Y-91892812D01*
X142857185Y-91892809D01*
X142742090Y-91806648D01*
X142742086Y-91806646D01*
X142723303Y-91799640D01*
X142667371Y-91757767D01*
X142645023Y-91707651D01*
X142639383Y-91679297D01*
X142642309Y-91678714D01*
X142636850Y-91627996D01*
X142640197Y-91616597D01*
X142641763Y-91608723D01*
X142641765Y-91608721D01*
X142645022Y-91592345D01*
X142677404Y-91530438D01*
X142723310Y-91500355D01*
X142742090Y-91493351D01*
X142857185Y-91407190D01*
X142857188Y-91407187D01*
X142943348Y-91292093D01*
X142943352Y-91292086D01*
X142993594Y-91157379D01*
X142993596Y-91157372D01*
X142999997Y-91097844D01*
X142999998Y-91097827D01*
X142999998Y-91049999D01*
X141873998Y-91049999D01*
X141806959Y-91030314D01*
X141761204Y-90977510D01*
X141749998Y-90925999D01*
X141749998Y-90874001D01*
X141769683Y-90806962D01*
X141822487Y-90761207D01*
X141873998Y-90750001D01*
X142999998Y-90750001D01*
X142999998Y-90724499D01*
X143019683Y-90657460D01*
X143072487Y-90611705D01*
X143123998Y-90600499D01*
X143145106Y-90600499D01*
X143212145Y-90620184D01*
X143242731Y-90652259D01*
X143244551Y-90650864D01*
X143249501Y-90657315D01*
X144563181Y-91970995D01*
X144596666Y-92032318D01*
X144599500Y-92058676D01*
X144599500Y-94316952D01*
X144599500Y-94448736D01*
X144615162Y-94507189D01*
X144633608Y-94576031D01*
X144638787Y-94585001D01*
X144699500Y-94690158D01*
X146159843Y-96150501D01*
X146273971Y-96216393D01*
X146401265Y-96250501D01*
X146533049Y-96250501D01*
X146834774Y-96250501D01*
X146901813Y-96270186D01*
X146922455Y-96286820D01*
X146941897Y-96306262D01*
X146966596Y-96341534D01*
X146988382Y-96388255D01*
X147000000Y-96440658D01*
X147000000Y-100684010D01*
X150391323Y-100684010D01*
X150458362Y-100703695D01*
X150504117Y-100756499D01*
X150514061Y-100825657D01*
X150485036Y-100889213D01*
X150479004Y-100895691D01*
X150377427Y-100997267D01*
X150377426Y-100997268D01*
X150315392Y-101097841D01*
X150263444Y-101144565D01*
X150194481Y-101155786D01*
X150130399Y-101127943D01*
X150122173Y-101120424D01*
X150103225Y-101101476D01*
X150103221Y-101101473D01*
X150103220Y-101101472D01*
X149983126Y-101040281D01*
X149983124Y-101040280D01*
X149983121Y-101040279D01*
X149883493Y-101024500D01*
X149883488Y-101024500D01*
X149366512Y-101024500D01*
X149366507Y-101024500D01*
X149266878Y-101040279D01*
X149146778Y-101101473D01*
X149146774Y-101101476D01*
X149051476Y-101196774D01*
X149051473Y-101196778D01*
X148990279Y-101316878D01*
X148974500Y-101416506D01*
X148974500Y-101983493D01*
X148990279Y-102083121D01*
X148990280Y-102083124D01*
X148990281Y-102083126D01*
X148997659Y-102097606D01*
X149051473Y-102203221D01*
X149051476Y-102203225D01*
X149146774Y-102298523D01*
X149146778Y-102298526D01*
X149146780Y-102298528D01*
X149266874Y-102359719D01*
X149266876Y-102359719D01*
X149266878Y-102359720D01*
X149366507Y-102375500D01*
X149366512Y-102375500D01*
X149883493Y-102375500D01*
X149983121Y-102359720D01*
X149983121Y-102359719D01*
X149983126Y-102359719D01*
X150103220Y-102298528D01*
X150122173Y-102279574D01*
X150183494Y-102246090D01*
X150253185Y-102251073D01*
X150309120Y-102292944D01*
X150315392Y-102302159D01*
X150377424Y-102402728D01*
X150377427Y-102402732D01*
X150440944Y-102466249D01*
X150474429Y-102527572D01*
X150469445Y-102597264D01*
X150427573Y-102653197D01*
X150392267Y-102671636D01*
X150341518Y-102688452D01*
X150341507Y-102688457D01*
X150197271Y-102777424D01*
X150197267Y-102777427D01*
X150077426Y-102897268D01*
X150015392Y-102997841D01*
X149963444Y-103044565D01*
X149894481Y-103055786D01*
X149830399Y-103027943D01*
X149822173Y-103020424D01*
X149803225Y-103001476D01*
X149803221Y-103001473D01*
X149803220Y-103001472D01*
X149683126Y-102940281D01*
X149683124Y-102940280D01*
X149683121Y-102940279D01*
X149583493Y-102924500D01*
X149583488Y-102924500D01*
X149066512Y-102924500D01*
X149066507Y-102924500D01*
X148966878Y-102940279D01*
X148846778Y-103001473D01*
X148846774Y-103001476D01*
X148751476Y-103096774D01*
X148751473Y-103096778D01*
X148690279Y-103216878D01*
X148674500Y-103316506D01*
X148674500Y-103883493D01*
X148690279Y-103983121D01*
X148690280Y-103983124D01*
X148690281Y-103983126D01*
X148751472Y-104103220D01*
X148751473Y-104103221D01*
X148751476Y-104103225D01*
X148846774Y-104198523D01*
X148846778Y-104198526D01*
X148846780Y-104198528D01*
X148966874Y-104259719D01*
X148966876Y-104259719D01*
X148966878Y-104259720D01*
X149066507Y-104275500D01*
X149066512Y-104275500D01*
X149583493Y-104275500D01*
X149683121Y-104259720D01*
X149683121Y-104259719D01*
X149683126Y-104259719D01*
X149803220Y-104198528D01*
X149822173Y-104179574D01*
X149883494Y-104146090D01*
X149953185Y-104151073D01*
X150009120Y-104192944D01*
X150015392Y-104202159D01*
X150077424Y-104302728D01*
X150077427Y-104302732D01*
X150197267Y-104422572D01*
X150197271Y-104422575D01*
X150341507Y-104511542D01*
X150341518Y-104511547D01*
X150502393Y-104564855D01*
X150601683Y-104574999D01*
X151125000Y-104574999D01*
X151148308Y-104574999D01*
X151148322Y-104574998D01*
X151247607Y-104564855D01*
X151408481Y-104511547D01*
X151408492Y-104511542D01*
X151552728Y-104422575D01*
X151552732Y-104422572D01*
X151672572Y-104302732D01*
X151672575Y-104302728D01*
X151761542Y-104158492D01*
X151761547Y-104158481D01*
X151814855Y-103997606D01*
X151824999Y-103898322D01*
X151825000Y-103898309D01*
X151825000Y-103850000D01*
X151125000Y-103850000D01*
X151125000Y-104574999D01*
X150601683Y-104574999D01*
X150625000Y-104574998D01*
X150625000Y-103724000D01*
X150644685Y-103656961D01*
X150697489Y-103611206D01*
X150749000Y-103600000D01*
X150875000Y-103600000D01*
X150875000Y-103474000D01*
X150894685Y-103406961D01*
X150947489Y-103361206D01*
X150999000Y-103350000D01*
X151824999Y-103350000D01*
X151824999Y-103301692D01*
X151824998Y-103301677D01*
X151814855Y-103202392D01*
X151761547Y-103041518D01*
X151761542Y-103041507D01*
X151672575Y-102897271D01*
X151672572Y-102897267D01*
X151609055Y-102833750D01*
X151575570Y-102772427D01*
X151580554Y-102702735D01*
X151622426Y-102646802D01*
X151657734Y-102628362D01*
X151708484Y-102611545D01*
X151708492Y-102611542D01*
X151852728Y-102522575D01*
X151852732Y-102522572D01*
X151972572Y-102402732D01*
X151972575Y-102402728D01*
X152061542Y-102258492D01*
X152061547Y-102258481D01*
X152114855Y-102097606D01*
X152124999Y-101998322D01*
X152125000Y-101998309D01*
X152125000Y-101950000D01*
X151299000Y-101950000D01*
X151231961Y-101930315D01*
X151186206Y-101877511D01*
X151175000Y-101826000D01*
X151175000Y-101574000D01*
X151194685Y-101506961D01*
X151247489Y-101461206D01*
X151299000Y-101450000D01*
X152124999Y-101450000D01*
X152124999Y-101401692D01*
X152124998Y-101401677D01*
X152114855Y-101302392D01*
X152061547Y-101141518D01*
X152061542Y-101141507D01*
X151972575Y-100997271D01*
X151972572Y-100997267D01*
X151870996Y-100895691D01*
X151837511Y-100834368D01*
X151842495Y-100764676D01*
X151884367Y-100708743D01*
X151949831Y-100684326D01*
X151958677Y-100684010D01*
X158126000Y-100684010D01*
X158193039Y-100703695D01*
X158238794Y-100756499D01*
X158250000Y-100808010D01*
X158250000Y-109575500D01*
X158230315Y-109642539D01*
X158177511Y-109688294D01*
X158126000Y-109699500D01*
X102004428Y-109699500D01*
X101995582Y-109699184D01*
X101766980Y-109682834D01*
X101749468Y-109680316D01*
X101529865Y-109632545D01*
X101512889Y-109627561D01*
X101302308Y-109549018D01*
X101286215Y-109541668D01*
X101088963Y-109433960D01*
X101074080Y-109424395D01*
X100894163Y-109289711D01*
X100880792Y-109278125D01*
X100721874Y-109119207D01*
X100710288Y-109105836D01*
X100575604Y-108925919D01*
X100566039Y-108911036D01*
X100458331Y-108713784D01*
X100450984Y-108697698D01*
X100372435Y-108487102D01*
X100367456Y-108470143D01*
X100319682Y-108250525D01*
X100317165Y-108233019D01*
X100313051Y-108175500D01*
X100300816Y-108004418D01*
X100300500Y-107995572D01*
X100300500Y-106131995D01*
X101949500Y-106131995D01*
X101949500Y-106368004D01*
X101949501Y-106368020D01*
X101980107Y-106600500D01*
X101980307Y-106602014D01*
X102006500Y-106699767D01*
X102041394Y-106829993D01*
X102131714Y-107048045D01*
X102131719Y-107048056D01*
X102198122Y-107163068D01*
X102249727Y-107252450D01*
X102249729Y-107252453D01*
X102249730Y-107252454D01*
X102393406Y-107439697D01*
X102393412Y-107439704D01*
X102560295Y-107606587D01*
X102560302Y-107606593D01*
X102670306Y-107691001D01*
X102747550Y-107750273D01*
X102878918Y-107826118D01*
X102951943Y-107868280D01*
X102951948Y-107868282D01*
X102951951Y-107868284D01*
X103170007Y-107958606D01*
X103397986Y-108019693D01*
X103631989Y-108050500D01*
X103631996Y-108050500D01*
X103868004Y-108050500D01*
X103868011Y-108050500D01*
X104102014Y-108019693D01*
X104329993Y-107958606D01*
X104548049Y-107868284D01*
X104752450Y-107750273D01*
X104939699Y-107606592D01*
X105106592Y-107439699D01*
X105250273Y-107252450D01*
X105368284Y-107048049D01*
X105458606Y-106829993D01*
X105519693Y-106602014D01*
X105550500Y-106368011D01*
X105550500Y-106131989D01*
X105519693Y-105897986D01*
X105458606Y-105670007D01*
X105368284Y-105451951D01*
X105368282Y-105451948D01*
X105368280Y-105451943D01*
X105290406Y-105317063D01*
X105250273Y-105247550D01*
X105106592Y-105060301D01*
X105106587Y-105060295D01*
X104939704Y-104893412D01*
X104939697Y-104893406D01*
X104752454Y-104749730D01*
X104752453Y-104749729D01*
X104752450Y-104749727D01*
X104670957Y-104702677D01*
X104548056Y-104631719D01*
X104548044Y-104631714D01*
X104329993Y-104541394D01*
X104294554Y-104531898D01*
X104268747Y-104524983D01*
X109424500Y-104524983D01*
X109424500Y-107475001D01*
X109424501Y-107475018D01*
X109435000Y-107577796D01*
X109435001Y-107577799D01*
X109466106Y-107671666D01*
X109490186Y-107744334D01*
X109582288Y-107893656D01*
X109706344Y-108017712D01*
X109855666Y-108109814D01*
X110022203Y-108164999D01*
X110124991Y-108175500D01*
X110950008Y-108175499D01*
X110950016Y-108175498D01*
X110950019Y-108175498D01*
X111006302Y-108169748D01*
X111052797Y-108164999D01*
X111219334Y-108109814D01*
X111368656Y-108017712D01*
X111492712Y-107893656D01*
X111584814Y-107744334D01*
X111639999Y-107577797D01*
X111650500Y-107475009D01*
X111650499Y-104524992D01*
X111639999Y-104422203D01*
X111584814Y-104255666D01*
X111492712Y-104106344D01*
X111368656Y-103982288D01*
X111219334Y-103890186D01*
X111052797Y-103835001D01*
X111052795Y-103835000D01*
X110950010Y-103824500D01*
X110124998Y-103824500D01*
X110124980Y-103824501D01*
X110022203Y-103835000D01*
X110022200Y-103835001D01*
X109855668Y-103890185D01*
X109855663Y-103890187D01*
X109706342Y-103982289D01*
X109582289Y-104106342D01*
X109490187Y-104255663D01*
X109490185Y-104255668D01*
X109474615Y-104302657D01*
X109435001Y-104422203D01*
X109435001Y-104422204D01*
X109435000Y-104422204D01*
X109424500Y-104524983D01*
X104268747Y-104524983D01*
X104102014Y-104480307D01*
X104102013Y-104480306D01*
X104102010Y-104480306D01*
X103868020Y-104449501D01*
X103868017Y-104449500D01*
X103868011Y-104449500D01*
X103631989Y-104449500D01*
X103631983Y-104449500D01*
X103631979Y-104449501D01*
X103397989Y-104480306D01*
X103170006Y-104541394D01*
X102951954Y-104631714D01*
X102951943Y-104631719D01*
X102747545Y-104749730D01*
X102560302Y-104893406D01*
X102560295Y-104893412D01*
X102393412Y-105060295D01*
X102393406Y-105060302D01*
X102249730Y-105247545D01*
X102131719Y-105451943D01*
X102131714Y-105451954D01*
X102041394Y-105670006D01*
X101980306Y-105897989D01*
X101949501Y-106131979D01*
X101949500Y-106131995D01*
X100300500Y-106131995D01*
X100300500Y-68631995D01*
X101949500Y-68631995D01*
X101949500Y-68868004D01*
X101949501Y-68868020D01*
X101980306Y-69102010D01*
X102041394Y-69329993D01*
X102131714Y-69548045D01*
X102131719Y-69548056D01*
X102202677Y-69670957D01*
X102249727Y-69752450D01*
X102249729Y-69752453D01*
X102249730Y-69752454D01*
X102393406Y-69939697D01*
X102393412Y-69939704D01*
X102560295Y-70106587D01*
X102560301Y-70106592D01*
X102747550Y-70250273D01*
X102837960Y-70302471D01*
X102951943Y-70368280D01*
X102951948Y-70368282D01*
X102951951Y-70368284D01*
X103170007Y-70458606D01*
X103397986Y-70519693D01*
X103631989Y-70550500D01*
X103631996Y-70550500D01*
X103868004Y-70550500D01*
X103868011Y-70550500D01*
X104102014Y-70519693D01*
X104329993Y-70458606D01*
X104548049Y-70368284D01*
X104752450Y-70250273D01*
X104939699Y-70106592D01*
X105106592Y-69939699D01*
X105250273Y-69752450D01*
X105368284Y-69548049D01*
X105458606Y-69329993D01*
X105519693Y-69102014D01*
X105550500Y-68868011D01*
X105550500Y-68631989D01*
X105519693Y-68397986D01*
X105458606Y-68170007D01*
X105368284Y-67951951D01*
X105368282Y-67951948D01*
X105368280Y-67951943D01*
X105326118Y-67878918D01*
X105250273Y-67747550D01*
X105170438Y-67643507D01*
X105106593Y-67560302D01*
X105106587Y-67560295D01*
X104939704Y-67393412D01*
X104939697Y-67393406D01*
X104752454Y-67249730D01*
X104752453Y-67249729D01*
X104752450Y-67249727D01*
X104670957Y-67202677D01*
X104548056Y-67131719D01*
X104548045Y-67131714D01*
X104329993Y-67041394D01*
X104102010Y-66980306D01*
X103868020Y-66949501D01*
X103868017Y-66949500D01*
X103868011Y-66949500D01*
X103631989Y-66949500D01*
X103631983Y-66949500D01*
X103631979Y-66949501D01*
X103397989Y-66980306D01*
X103170006Y-67041394D01*
X102951954Y-67131714D01*
X102951943Y-67131719D01*
X102747545Y-67249730D01*
X102560302Y-67393406D01*
X102560295Y-67393412D01*
X102393412Y-67560295D01*
X102393406Y-67560302D01*
X102249730Y-67747545D01*
X102131719Y-67951943D01*
X102131714Y-67951954D01*
X102041394Y-68170006D01*
X101980306Y-68397989D01*
X101949501Y-68631979D01*
X101949500Y-68631995D01*
X100300500Y-68631995D01*
X100300500Y-67004427D01*
X100300816Y-66995581D01*
X100301908Y-66980307D01*
X100317165Y-66766973D01*
X100319681Y-66749476D01*
X100367457Y-66529852D01*
X100372434Y-66512901D01*
X100450986Y-66302295D01*
X100458325Y-66286226D01*
X100566043Y-66088955D01*
X100575599Y-66074086D01*
X100710293Y-65894156D01*
X100721867Y-65880799D01*
X100880799Y-65721867D01*
X100894156Y-65710293D01*
X101074086Y-65575599D01*
X101088955Y-65566043D01*
X101286226Y-65458325D01*
X101302295Y-65450986D01*
X101512901Y-65372434D01*
X101529852Y-65367457D01*
X101749476Y-65319681D01*
X101766973Y-65317165D01*
X101995582Y-65300816D01*
X102004428Y-65300500D01*
X102047594Y-65300500D01*
X158126000Y-65300500D01*
X158193039Y-65320185D01*
G37*
%TD.AperFunction*%
%TA.AperFunction,Conductor*%
G36*
X146898363Y-85088685D02*
G01*
X146919005Y-85105319D01*
X146938447Y-85124761D01*
X146963148Y-85160037D01*
X146988382Y-85214151D01*
X147000000Y-85266556D01*
X147000000Y-94659343D01*
X146988381Y-94711750D01*
X146972277Y-94746283D01*
X146926103Y-94798722D01*
X146858909Y-94817872D01*
X146792029Y-94797655D01*
X146772215Y-94781557D01*
X146036819Y-94046161D01*
X146003334Y-93984838D01*
X146000500Y-93958480D01*
X146000500Y-91634108D01*
X145997769Y-91623918D01*
X145997768Y-91623913D01*
X145989311Y-91592350D01*
X145966392Y-91506814D01*
X145900500Y-91392686D01*
X144245495Y-89737681D01*
X144212010Y-89676358D01*
X144216994Y-89606666D01*
X144245495Y-89562319D01*
X145122095Y-88685719D01*
X146000500Y-87807314D01*
X146066392Y-87693186D01*
X146100500Y-87565892D01*
X146100500Y-87434107D01*
X146100500Y-85741520D01*
X146120185Y-85674481D01*
X146136819Y-85653839D01*
X146685339Y-85105319D01*
X146746662Y-85071834D01*
X146773020Y-85069000D01*
X146831324Y-85069000D01*
X146898363Y-85088685D01*
G37*
%TD.AperFunction*%
%TD*%
M02*
