%TF.GenerationSoftware,KiCad,Pcbnew,10.0.5-unknown-202607221313~667fa36054~ubuntu25.10.1*%
%TF.CreationDate,Date%
%TF.ProjectId,bms_slave,626d735f-736c-4617-9665-2e6b69636164,+ (Unreleased)*%
%TF.SameCoordinates,Original*%
%TF.FileFunction,Legend,Top*%
%TF.FilePolarity,Positive*%
%FSLAX46Y46*%
G04 Gerber Fmt 4.6, Leading zero omitted, Abs format (unit mm)*
G04 Created by KiCad*
%MOMM*%
%LPD*%
G01*
G04 APERTURE LIST*
G04 Aperture macros list*
%AMRoundRect*
0 Rectangle with rounded corners*
0 $1 Rounding radius*
0 $2 $3 $4 $5 $6 $7 $8 $9 X,Y pos of 4 corners*
0 Add a 4 corners polygon primitive as box body*
4,1,4,$2,$3,$4,$5,$6,$7,$8,$9,$2,$3,0*
0 Add four circle primitives for the rounded corners*
1,1,$1+$1,$2,$3*
1,1,$1+$1,$4,$5*
1,1,$1+$1,$6,$7*
1,1,$1+$1,$8,$9*
0 Add four rect primitives between the rounded corners*
20,1,$1+$1,$2,$3,$4,$5,0*
20,1,$1+$1,$4,$5,$6,$7,0*
20,1,$1+$1,$6,$7,$8,$9,0*
20,1,$1+$1,$8,$9,$2,$3,0*%
G04 Aperture macros list end*
%ADD10C,0.150000*%
%ADD11C,0.120000*%
%ADD12C,0.152400*%
%ADD13C,0.635000*%
%ADD14C,0.100000*%
%ADD15C,0.213592*%
%ADD16C,0.200000*%
%ADD17C,0.250000*%
%ADD18C,0.000000*%
%ADD19RoundRect,0.200000X-0.200000X-0.275000X0.200000X-0.275000X0.200000X0.275000X-0.200000X0.275000X0*%
%ADD20RoundRect,0.135000X-0.185000X0.135000X-0.185000X-0.135000X0.185000X-0.135000X0.185000X0.135000X0*%
%ADD21RoundRect,0.250000X-0.362500X-1.425000X0.362500X-1.425000X0.362500X1.425000X-0.362500X1.425000X0*%
%ADD22RoundRect,0.140000X0.170000X-0.140000X0.170000X0.140000X-0.170000X0.140000X-0.170000X-0.140000X0*%
%ADD23RoundRect,0.225000X0.225000X0.250000X-0.225000X0.250000X-0.225000X-0.250000X0.225000X-0.250000X0*%
%ADD24R,0.304800X0.609600*%
%ADD25RoundRect,0.140000X-0.140000X-0.170000X0.140000X-0.170000X0.140000X0.170000X-0.140000X0.170000X0*%
%ADD26RoundRect,0.140000X0.140000X0.170000X-0.140000X0.170000X-0.140000X-0.170000X0.140000X-0.170000X0*%
%ADD27RoundRect,0.200000X0.275000X-0.200000X0.275000X0.200000X-0.275000X0.200000X-0.275000X-0.200000X0*%
%ADD28C,1.000000*%
%ADD29C,2.463800*%
%ADD30C,1.574800*%
%ADD31C,2.000000*%
%ADD32R,0.901700X0.482600*%
%ADD33RoundRect,0.250000X0.650000X-0.325000X0.650000X0.325000X-0.650000X0.325000X-0.650000X-0.325000X0*%
%ADD34RoundRect,0.218750X0.218750X0.256250X-0.218750X0.256250X-0.218750X-0.256250X0.218750X-0.256250X0*%
%ADD35R,1.308100X0.685800*%
%ADD36C,3.200000*%
%ADD37RoundRect,0.225000X-0.225000X-0.250000X0.225000X-0.250000X0.225000X0.250000X-0.225000X0.250000X0*%
%ADD38RoundRect,0.250000X0.250000X0.475000X-0.250000X0.475000X-0.250000X-0.475000X0.250000X-0.475000X0*%
%ADD39RoundRect,0.250000X0.312500X1.075000X-0.312500X1.075000X-0.312500X-1.075000X0.312500X-1.075000X0*%
%ADD40RoundRect,0.135000X-0.135000X-0.185000X0.135000X-0.185000X0.135000X0.185000X-0.135000X0.185000X0*%
%ADD41C,1.066800*%
%ADD42RoundRect,0.250000X-0.250000X-0.475000X0.250000X-0.475000X0.250000X0.475000X-0.250000X0.475000X0*%
%ADD43RoundRect,0.250000X-0.312500X-1.075000X0.312500X-1.075000X0.312500X1.075000X-0.312500X1.075000X0*%
%ADD44R,1.500000X0.299999*%
%ADD45R,0.299999X1.500000*%
%ADD46C,0.499999*%
%ADD47RoundRect,0.140000X-0.170000X0.140000X-0.170000X-0.140000X0.170000X-0.140000X0.170000X0.140000X0*%
%ADD48R,5.918200X5.511800*%
%ADD49R,2.489200X0.939800*%
G04 APERTURE END LIST*
D10*
X118658333Y-70337319D02*
X118325000Y-69861128D01*
X118086905Y-70337319D02*
X118086905Y-69337319D01*
X118086905Y-69337319D02*
X118467857Y-69337319D01*
X118467857Y-69337319D02*
X118563095Y-69384938D01*
X118563095Y-69384938D02*
X118610714Y-69432557D01*
X118610714Y-69432557D02*
X118658333Y-69527795D01*
X118658333Y-69527795D02*
X118658333Y-69670652D01*
X118658333Y-69670652D02*
X118610714Y-69765890D01*
X118610714Y-69765890D02*
X118563095Y-69813509D01*
X118563095Y-69813509D02*
X118467857Y-69861128D01*
X118467857Y-69861128D02*
X118086905Y-69861128D01*
X119039286Y-69432557D02*
X119086905Y-69384938D01*
X119086905Y-69384938D02*
X119182143Y-69337319D01*
X119182143Y-69337319D02*
X119420238Y-69337319D01*
X119420238Y-69337319D02*
X119515476Y-69384938D01*
X119515476Y-69384938D02*
X119563095Y-69432557D01*
X119563095Y-69432557D02*
X119610714Y-69527795D01*
X119610714Y-69527795D02*
X119610714Y-69623033D01*
X119610714Y-69623033D02*
X119563095Y-69765890D01*
X119563095Y-69765890D02*
X118991667Y-70337319D01*
X118991667Y-70337319D02*
X119610714Y-70337319D01*
X143709816Y-76652856D02*
X143233625Y-76986189D01*
X143709816Y-77224284D02*
X142709816Y-77224284D01*
X142709816Y-77224284D02*
X142709816Y-76843332D01*
X142709816Y-76843332D02*
X142757435Y-76748094D01*
X142757435Y-76748094D02*
X142805054Y-76700475D01*
X142805054Y-76700475D02*
X142900292Y-76652856D01*
X142900292Y-76652856D02*
X143043149Y-76652856D01*
X143043149Y-76652856D02*
X143138387Y-76700475D01*
X143138387Y-76700475D02*
X143186006Y-76748094D01*
X143186006Y-76748094D02*
X143233625Y-76843332D01*
X143233625Y-76843332D02*
X143233625Y-77224284D01*
X142709816Y-76319522D02*
X142709816Y-75700475D01*
X142709816Y-75700475D02*
X143090768Y-76033808D01*
X143090768Y-76033808D02*
X143090768Y-75890951D01*
X143090768Y-75890951D02*
X143138387Y-75795713D01*
X143138387Y-75795713D02*
X143186006Y-75748094D01*
X143186006Y-75748094D02*
X143281244Y-75700475D01*
X143281244Y-75700475D02*
X143519339Y-75700475D01*
X143519339Y-75700475D02*
X143614577Y-75748094D01*
X143614577Y-75748094D02*
X143662197Y-75795713D01*
X143662197Y-75795713D02*
X143709816Y-75890951D01*
X143709816Y-75890951D02*
X143709816Y-76176665D01*
X143709816Y-76176665D02*
X143662197Y-76271903D01*
X143662197Y-76271903D02*
X143614577Y-76319522D01*
X143043149Y-74843332D02*
X143709816Y-74843332D01*
X142662197Y-75081427D02*
X143376482Y-75319522D01*
X143376482Y-75319522D02*
X143376482Y-74700475D01*
X113333333Y-80699819D02*
X113000000Y-80223628D01*
X112761905Y-80699819D02*
X112761905Y-79699819D01*
X112761905Y-79699819D02*
X113142857Y-79699819D01*
X113142857Y-79699819D02*
X113238095Y-79747438D01*
X113238095Y-79747438D02*
X113285714Y-79795057D01*
X113285714Y-79795057D02*
X113333333Y-79890295D01*
X113333333Y-79890295D02*
X113333333Y-80033152D01*
X113333333Y-80033152D02*
X113285714Y-80128390D01*
X113285714Y-80128390D02*
X113238095Y-80176009D01*
X113238095Y-80176009D02*
X113142857Y-80223628D01*
X113142857Y-80223628D02*
X112761905Y-80223628D01*
X113809524Y-80699819D02*
X114000000Y-80699819D01*
X114000000Y-80699819D02*
X114095238Y-80652200D01*
X114095238Y-80652200D02*
X114142857Y-80604580D01*
X114142857Y-80604580D02*
X114238095Y-80461723D01*
X114238095Y-80461723D02*
X114285714Y-80271247D01*
X114285714Y-80271247D02*
X114285714Y-79890295D01*
X114285714Y-79890295D02*
X114238095Y-79795057D01*
X114238095Y-79795057D02*
X114190476Y-79747438D01*
X114190476Y-79747438D02*
X114095238Y-79699819D01*
X114095238Y-79699819D02*
X113904762Y-79699819D01*
X113904762Y-79699819D02*
X113809524Y-79747438D01*
X113809524Y-79747438D02*
X113761905Y-79795057D01*
X113761905Y-79795057D02*
X113714286Y-79890295D01*
X113714286Y-79890295D02*
X113714286Y-80128390D01*
X113714286Y-80128390D02*
X113761905Y-80223628D01*
X113761905Y-80223628D02*
X113809524Y-80271247D01*
X113809524Y-80271247D02*
X113904762Y-80318866D01*
X113904762Y-80318866D02*
X114095238Y-80318866D01*
X114095238Y-80318866D02*
X114190476Y-80271247D01*
X114190476Y-80271247D02*
X114238095Y-80223628D01*
X114238095Y-80223628D02*
X114285714Y-80128390D01*
X147649580Y-83681356D02*
X147697200Y-83728975D01*
X147697200Y-83728975D02*
X147744819Y-83871832D01*
X147744819Y-83871832D02*
X147744819Y-83967070D01*
X147744819Y-83967070D02*
X147697200Y-84109927D01*
X147697200Y-84109927D02*
X147601961Y-84205165D01*
X147601961Y-84205165D02*
X147506723Y-84252784D01*
X147506723Y-84252784D02*
X147316247Y-84300403D01*
X147316247Y-84300403D02*
X147173390Y-84300403D01*
X147173390Y-84300403D02*
X146982914Y-84252784D01*
X146982914Y-84252784D02*
X146887676Y-84205165D01*
X146887676Y-84205165D02*
X146792438Y-84109927D01*
X146792438Y-84109927D02*
X146744819Y-83967070D01*
X146744819Y-83967070D02*
X146744819Y-83871832D01*
X146744819Y-83871832D02*
X146792438Y-83728975D01*
X146792438Y-83728975D02*
X146840057Y-83681356D01*
X146744819Y-83348022D02*
X146744819Y-82728975D01*
X146744819Y-82728975D02*
X147125771Y-83062308D01*
X147125771Y-83062308D02*
X147125771Y-82919451D01*
X147125771Y-82919451D02*
X147173390Y-82824213D01*
X147173390Y-82824213D02*
X147221009Y-82776594D01*
X147221009Y-82776594D02*
X147316247Y-82728975D01*
X147316247Y-82728975D02*
X147554342Y-82728975D01*
X147554342Y-82728975D02*
X147649580Y-82776594D01*
X147649580Y-82776594D02*
X147697200Y-82824213D01*
X147697200Y-82824213D02*
X147744819Y-82919451D01*
X147744819Y-82919451D02*
X147744819Y-83205165D01*
X147744819Y-83205165D02*
X147697200Y-83300403D01*
X147697200Y-83300403D02*
X147649580Y-83348022D01*
X147744819Y-82252784D02*
X147744819Y-82062308D01*
X147744819Y-82062308D02*
X147697200Y-81967070D01*
X147697200Y-81967070D02*
X147649580Y-81919451D01*
X147649580Y-81919451D02*
X147506723Y-81824213D01*
X147506723Y-81824213D02*
X147316247Y-81776594D01*
X147316247Y-81776594D02*
X146935295Y-81776594D01*
X146935295Y-81776594D02*
X146840057Y-81824213D01*
X146840057Y-81824213D02*
X146792438Y-81871832D01*
X146792438Y-81871832D02*
X146744819Y-81967070D01*
X146744819Y-81967070D02*
X146744819Y-82157546D01*
X146744819Y-82157546D02*
X146792438Y-82252784D01*
X146792438Y-82252784D02*
X146840057Y-82300403D01*
X146840057Y-82300403D02*
X146935295Y-82348022D01*
X146935295Y-82348022D02*
X147173390Y-82348022D01*
X147173390Y-82348022D02*
X147268628Y-82300403D01*
X147268628Y-82300403D02*
X147316247Y-82252784D01*
X147316247Y-82252784D02*
X147363866Y-82157546D01*
X147363866Y-82157546D02*
X147363866Y-81967070D01*
X147363866Y-81967070D02*
X147316247Y-81871832D01*
X147316247Y-81871832D02*
X147268628Y-81824213D01*
X147268628Y-81824213D02*
X147173390Y-81776594D01*
X128158333Y-100589580D02*
X128110714Y-100637200D01*
X128110714Y-100637200D02*
X127967857Y-100684819D01*
X127967857Y-100684819D02*
X127872619Y-100684819D01*
X127872619Y-100684819D02*
X127729762Y-100637200D01*
X127729762Y-100637200D02*
X127634524Y-100541961D01*
X127634524Y-100541961D02*
X127586905Y-100446723D01*
X127586905Y-100446723D02*
X127539286Y-100256247D01*
X127539286Y-100256247D02*
X127539286Y-100113390D01*
X127539286Y-100113390D02*
X127586905Y-99922914D01*
X127586905Y-99922914D02*
X127634524Y-99827676D01*
X127634524Y-99827676D02*
X127729762Y-99732438D01*
X127729762Y-99732438D02*
X127872619Y-99684819D01*
X127872619Y-99684819D02*
X127967857Y-99684819D01*
X127967857Y-99684819D02*
X128110714Y-99732438D01*
X128110714Y-99732438D02*
X128158333Y-99780057D01*
X129110714Y-100684819D02*
X128539286Y-100684819D01*
X128825000Y-100684819D02*
X128825000Y-99684819D01*
X128825000Y-99684819D02*
X128729762Y-99827676D01*
X128729762Y-99827676D02*
X128634524Y-99922914D01*
X128634524Y-99922914D02*
X128539286Y-99970533D01*
X135945181Y-80011905D02*
X136945181Y-80011905D01*
X136945181Y-80011905D02*
X136945181Y-80250000D01*
X136945181Y-80250000D02*
X136897562Y-80392857D01*
X136897562Y-80392857D02*
X136802324Y-80488095D01*
X136802324Y-80488095D02*
X136707086Y-80535714D01*
X136707086Y-80535714D02*
X136516610Y-80583333D01*
X136516610Y-80583333D02*
X136373753Y-80583333D01*
X136373753Y-80583333D02*
X136183277Y-80535714D01*
X136183277Y-80535714D02*
X136088039Y-80488095D01*
X136088039Y-80488095D02*
X135992801Y-80392857D01*
X135992801Y-80392857D02*
X135945181Y-80250000D01*
X135945181Y-80250000D02*
X135945181Y-80011905D01*
X136849943Y-80964286D02*
X136897562Y-81011905D01*
X136897562Y-81011905D02*
X136945181Y-81107143D01*
X136945181Y-81107143D02*
X136945181Y-81345238D01*
X136945181Y-81345238D02*
X136897562Y-81440476D01*
X136897562Y-81440476D02*
X136849943Y-81488095D01*
X136849943Y-81488095D02*
X136754705Y-81535714D01*
X136754705Y-81535714D02*
X136659467Y-81535714D01*
X136659467Y-81535714D02*
X136516610Y-81488095D01*
X136516610Y-81488095D02*
X135945181Y-80916667D01*
X135945181Y-80916667D02*
X135945181Y-81535714D01*
X133854820Y-78921199D02*
X134092915Y-78921199D01*
X133997677Y-79159294D02*
X134092915Y-78921199D01*
X134092915Y-78921199D02*
X133997677Y-78683104D01*
X134283391Y-79064056D02*
X134092915Y-78921199D01*
X134092915Y-78921199D02*
X134283391Y-78778342D01*
X134945181Y-78921200D02*
X134707086Y-78921200D01*
X134802324Y-78683105D02*
X134707086Y-78921200D01*
X134707086Y-78921200D02*
X134802324Y-79159295D01*
X134516610Y-78778343D02*
X134707086Y-78921200D01*
X134707086Y-78921200D02*
X134516610Y-79064057D01*
X134746442Y-53349580D02*
X134698823Y-53397200D01*
X134698823Y-53397200D02*
X134555966Y-53444819D01*
X134555966Y-53444819D02*
X134460728Y-53444819D01*
X134460728Y-53444819D02*
X134317871Y-53397200D01*
X134317871Y-53397200D02*
X134222633Y-53301961D01*
X134222633Y-53301961D02*
X134175014Y-53206723D01*
X134175014Y-53206723D02*
X134127395Y-53016247D01*
X134127395Y-53016247D02*
X134127395Y-52873390D01*
X134127395Y-52873390D02*
X134175014Y-52682914D01*
X134175014Y-52682914D02*
X134222633Y-52587676D01*
X134222633Y-52587676D02*
X134317871Y-52492438D01*
X134317871Y-52492438D02*
X134460728Y-52444819D01*
X134460728Y-52444819D02*
X134555966Y-52444819D01*
X134555966Y-52444819D02*
X134698823Y-52492438D01*
X134698823Y-52492438D02*
X134746442Y-52540057D01*
X135127395Y-52540057D02*
X135175014Y-52492438D01*
X135175014Y-52492438D02*
X135270252Y-52444819D01*
X135270252Y-52444819D02*
X135508347Y-52444819D01*
X135508347Y-52444819D02*
X135603585Y-52492438D01*
X135603585Y-52492438D02*
X135651204Y-52540057D01*
X135651204Y-52540057D02*
X135698823Y-52635295D01*
X135698823Y-52635295D02*
X135698823Y-52730533D01*
X135698823Y-52730533D02*
X135651204Y-52873390D01*
X135651204Y-52873390D02*
X135079776Y-53444819D01*
X135079776Y-53444819D02*
X135698823Y-53444819D01*
X136032157Y-52444819D02*
X136698823Y-52444819D01*
X136698823Y-52444819D02*
X136270252Y-53444819D01*
X129962142Y-78989580D02*
X129914523Y-79037200D01*
X129914523Y-79037200D02*
X129771666Y-79084819D01*
X129771666Y-79084819D02*
X129676428Y-79084819D01*
X129676428Y-79084819D02*
X129533571Y-79037200D01*
X129533571Y-79037200D02*
X129438333Y-78941961D01*
X129438333Y-78941961D02*
X129390714Y-78846723D01*
X129390714Y-78846723D02*
X129343095Y-78656247D01*
X129343095Y-78656247D02*
X129343095Y-78513390D01*
X129343095Y-78513390D02*
X129390714Y-78322914D01*
X129390714Y-78322914D02*
X129438333Y-78227676D01*
X129438333Y-78227676D02*
X129533571Y-78132438D01*
X129533571Y-78132438D02*
X129676428Y-78084819D01*
X129676428Y-78084819D02*
X129771666Y-78084819D01*
X129771666Y-78084819D02*
X129914523Y-78132438D01*
X129914523Y-78132438D02*
X129962142Y-78180057D01*
X130343095Y-78180057D02*
X130390714Y-78132438D01*
X130390714Y-78132438D02*
X130485952Y-78084819D01*
X130485952Y-78084819D02*
X130724047Y-78084819D01*
X130724047Y-78084819D02*
X130819285Y-78132438D01*
X130819285Y-78132438D02*
X130866904Y-78180057D01*
X130866904Y-78180057D02*
X130914523Y-78275295D01*
X130914523Y-78275295D02*
X130914523Y-78370533D01*
X130914523Y-78370533D02*
X130866904Y-78513390D01*
X130866904Y-78513390D02*
X130295476Y-79084819D01*
X130295476Y-79084819D02*
X130914523Y-79084819D01*
X131390714Y-79084819D02*
X131581190Y-79084819D01*
X131581190Y-79084819D02*
X131676428Y-79037200D01*
X131676428Y-79037200D02*
X131724047Y-78989580D01*
X131724047Y-78989580D02*
X131819285Y-78846723D01*
X131819285Y-78846723D02*
X131866904Y-78656247D01*
X131866904Y-78656247D02*
X131866904Y-78275295D01*
X131866904Y-78275295D02*
X131819285Y-78180057D01*
X131819285Y-78180057D02*
X131771666Y-78132438D01*
X131771666Y-78132438D02*
X131676428Y-78084819D01*
X131676428Y-78084819D02*
X131485952Y-78084819D01*
X131485952Y-78084819D02*
X131390714Y-78132438D01*
X131390714Y-78132438D02*
X131343095Y-78180057D01*
X131343095Y-78180057D02*
X131295476Y-78275295D01*
X131295476Y-78275295D02*
X131295476Y-78513390D01*
X131295476Y-78513390D02*
X131343095Y-78608628D01*
X131343095Y-78608628D02*
X131390714Y-78656247D01*
X131390714Y-78656247D02*
X131485952Y-78703866D01*
X131485952Y-78703866D02*
X131676428Y-78703866D01*
X131676428Y-78703866D02*
X131771666Y-78656247D01*
X131771666Y-78656247D02*
X131819285Y-78608628D01*
X131819285Y-78608628D02*
X131866904Y-78513390D01*
X138309816Y-76967856D02*
X137833625Y-77301189D01*
X138309816Y-77539284D02*
X137309816Y-77539284D01*
X137309816Y-77539284D02*
X137309816Y-77158332D01*
X137309816Y-77158332D02*
X137357435Y-77063094D01*
X137357435Y-77063094D02*
X137405054Y-77015475D01*
X137405054Y-77015475D02*
X137500292Y-76967856D01*
X137500292Y-76967856D02*
X137643149Y-76967856D01*
X137643149Y-76967856D02*
X137738387Y-77015475D01*
X137738387Y-77015475D02*
X137786006Y-77063094D01*
X137786006Y-77063094D02*
X137833625Y-77158332D01*
X137833625Y-77158332D02*
X137833625Y-77539284D01*
X137405054Y-76586903D02*
X137357435Y-76539284D01*
X137357435Y-76539284D02*
X137309816Y-76444046D01*
X137309816Y-76444046D02*
X137309816Y-76205951D01*
X137309816Y-76205951D02*
X137357435Y-76110713D01*
X137357435Y-76110713D02*
X137405054Y-76063094D01*
X137405054Y-76063094D02*
X137500292Y-76015475D01*
X137500292Y-76015475D02*
X137595530Y-76015475D01*
X137595530Y-76015475D02*
X137738387Y-76063094D01*
X137738387Y-76063094D02*
X138309816Y-76634522D01*
X138309816Y-76634522D02*
X138309816Y-76015475D01*
X137309816Y-75110713D02*
X137309816Y-75586903D01*
X137309816Y-75586903D02*
X137786006Y-75634522D01*
X137786006Y-75634522D02*
X137738387Y-75586903D01*
X137738387Y-75586903D02*
X137690768Y-75491665D01*
X137690768Y-75491665D02*
X137690768Y-75253570D01*
X137690768Y-75253570D02*
X137738387Y-75158332D01*
X137738387Y-75158332D02*
X137786006Y-75110713D01*
X137786006Y-75110713D02*
X137881244Y-75063094D01*
X137881244Y-75063094D02*
X138119339Y-75063094D01*
X138119339Y-75063094D02*
X138214577Y-75110713D01*
X138214577Y-75110713D02*
X138262197Y-75158332D01*
X138262197Y-75158332D02*
X138309816Y-75253570D01*
X138309816Y-75253570D02*
X138309816Y-75491665D01*
X138309816Y-75491665D02*
X138262197Y-75586903D01*
X138262197Y-75586903D02*
X138214577Y-75634522D01*
X109428571Y-131681009D02*
X109095238Y-131681009D01*
X109095238Y-132204819D02*
X109095238Y-131204819D01*
X109095238Y-131204819D02*
X109571428Y-131204819D01*
X109952381Y-132204819D02*
X109952381Y-131204819D01*
X110428571Y-132204819D02*
X110428571Y-131204819D01*
X110428571Y-131204819D02*
X110666666Y-131204819D01*
X110666666Y-131204819D02*
X110809523Y-131252438D01*
X110809523Y-131252438D02*
X110904761Y-131347676D01*
X110904761Y-131347676D02*
X110952380Y-131442914D01*
X110952380Y-131442914D02*
X110999999Y-131633390D01*
X110999999Y-131633390D02*
X110999999Y-131776247D01*
X110999999Y-131776247D02*
X110952380Y-131966723D01*
X110952380Y-131966723D02*
X110904761Y-132061961D01*
X110904761Y-132061961D02*
X110809523Y-132157200D01*
X110809523Y-132157200D02*
X110666666Y-132204819D01*
X110666666Y-132204819D02*
X110428571Y-132204819D01*
X111380952Y-131300057D02*
X111428571Y-131252438D01*
X111428571Y-131252438D02*
X111523809Y-131204819D01*
X111523809Y-131204819D02*
X111761904Y-131204819D01*
X111761904Y-131204819D02*
X111857142Y-131252438D01*
X111857142Y-131252438D02*
X111904761Y-131300057D01*
X111904761Y-131300057D02*
X111952380Y-131395295D01*
X111952380Y-131395295D02*
X111952380Y-131490533D01*
X111952380Y-131490533D02*
X111904761Y-131633390D01*
X111904761Y-131633390D02*
X111333333Y-132204819D01*
X111333333Y-132204819D02*
X111952380Y-132204819D01*
X136784819Y-76652856D02*
X136308628Y-76986189D01*
X136784819Y-77224284D02*
X135784819Y-77224284D01*
X135784819Y-77224284D02*
X135784819Y-76843332D01*
X135784819Y-76843332D02*
X135832438Y-76748094D01*
X135832438Y-76748094D02*
X135880057Y-76700475D01*
X135880057Y-76700475D02*
X135975295Y-76652856D01*
X135975295Y-76652856D02*
X136118152Y-76652856D01*
X136118152Y-76652856D02*
X136213390Y-76700475D01*
X136213390Y-76700475D02*
X136261009Y-76748094D01*
X136261009Y-76748094D02*
X136308628Y-76843332D01*
X136308628Y-76843332D02*
X136308628Y-77224284D01*
X135784819Y-76319522D02*
X135784819Y-75700475D01*
X135784819Y-75700475D02*
X136165771Y-76033808D01*
X136165771Y-76033808D02*
X136165771Y-75890951D01*
X136165771Y-75890951D02*
X136213390Y-75795713D01*
X136213390Y-75795713D02*
X136261009Y-75748094D01*
X136261009Y-75748094D02*
X136356247Y-75700475D01*
X136356247Y-75700475D02*
X136594342Y-75700475D01*
X136594342Y-75700475D02*
X136689580Y-75748094D01*
X136689580Y-75748094D02*
X136737200Y-75795713D01*
X136737200Y-75795713D02*
X136784819Y-75890951D01*
X136784819Y-75890951D02*
X136784819Y-76176665D01*
X136784819Y-76176665D02*
X136737200Y-76271903D01*
X136737200Y-76271903D02*
X136689580Y-76319522D01*
X135880057Y-75319522D02*
X135832438Y-75271903D01*
X135832438Y-75271903D02*
X135784819Y-75176665D01*
X135784819Y-75176665D02*
X135784819Y-74938570D01*
X135784819Y-74938570D02*
X135832438Y-74843332D01*
X135832438Y-74843332D02*
X135880057Y-74795713D01*
X135880057Y-74795713D02*
X135975295Y-74748094D01*
X135975295Y-74748094D02*
X136070533Y-74748094D01*
X136070533Y-74748094D02*
X136213390Y-74795713D01*
X136213390Y-74795713D02*
X136784819Y-75367141D01*
X136784819Y-75367141D02*
X136784819Y-74748094D01*
X157554816Y-76652856D02*
X157078625Y-76986189D01*
X157554816Y-77224284D02*
X156554816Y-77224284D01*
X156554816Y-77224284D02*
X156554816Y-76843332D01*
X156554816Y-76843332D02*
X156602435Y-76748094D01*
X156602435Y-76748094D02*
X156650054Y-76700475D01*
X156650054Y-76700475D02*
X156745292Y-76652856D01*
X156745292Y-76652856D02*
X156888149Y-76652856D01*
X156888149Y-76652856D02*
X156983387Y-76700475D01*
X156983387Y-76700475D02*
X157031006Y-76748094D01*
X157031006Y-76748094D02*
X157078625Y-76843332D01*
X157078625Y-76843332D02*
X157078625Y-77224284D01*
X156554816Y-76319522D02*
X156554816Y-75700475D01*
X156554816Y-75700475D02*
X156935768Y-76033808D01*
X156935768Y-76033808D02*
X156935768Y-75890951D01*
X156935768Y-75890951D02*
X156983387Y-75795713D01*
X156983387Y-75795713D02*
X157031006Y-75748094D01*
X157031006Y-75748094D02*
X157126244Y-75700475D01*
X157126244Y-75700475D02*
X157364339Y-75700475D01*
X157364339Y-75700475D02*
X157459577Y-75748094D01*
X157459577Y-75748094D02*
X157507197Y-75795713D01*
X157507197Y-75795713D02*
X157554816Y-75890951D01*
X157554816Y-75890951D02*
X157554816Y-76176665D01*
X157554816Y-76176665D02*
X157507197Y-76271903D01*
X157507197Y-76271903D02*
X157459577Y-76319522D01*
X156983387Y-75129046D02*
X156935768Y-75224284D01*
X156935768Y-75224284D02*
X156888149Y-75271903D01*
X156888149Y-75271903D02*
X156792911Y-75319522D01*
X156792911Y-75319522D02*
X156745292Y-75319522D01*
X156745292Y-75319522D02*
X156650054Y-75271903D01*
X156650054Y-75271903D02*
X156602435Y-75224284D01*
X156602435Y-75224284D02*
X156554816Y-75129046D01*
X156554816Y-75129046D02*
X156554816Y-74938570D01*
X156554816Y-74938570D02*
X156602435Y-74843332D01*
X156602435Y-74843332D02*
X156650054Y-74795713D01*
X156650054Y-74795713D02*
X156745292Y-74748094D01*
X156745292Y-74748094D02*
X156792911Y-74748094D01*
X156792911Y-74748094D02*
X156888149Y-74795713D01*
X156888149Y-74795713D02*
X156935768Y-74843332D01*
X156935768Y-74843332D02*
X156983387Y-74938570D01*
X156983387Y-74938570D02*
X156983387Y-75129046D01*
X156983387Y-75129046D02*
X157031006Y-75224284D01*
X157031006Y-75224284D02*
X157078625Y-75271903D01*
X157078625Y-75271903D02*
X157173863Y-75319522D01*
X157173863Y-75319522D02*
X157364339Y-75319522D01*
X157364339Y-75319522D02*
X157459577Y-75271903D01*
X157459577Y-75271903D02*
X157507197Y-75224284D01*
X157507197Y-75224284D02*
X157554816Y-75129046D01*
X157554816Y-75129046D02*
X157554816Y-74938570D01*
X157554816Y-74938570D02*
X157507197Y-74843332D01*
X157507197Y-74843332D02*
X157459577Y-74795713D01*
X157459577Y-74795713D02*
X157364339Y-74748094D01*
X157364339Y-74748094D02*
X157173863Y-74748094D01*
X157173863Y-74748094D02*
X157078625Y-74795713D01*
X157078625Y-74795713D02*
X157031006Y-74843332D01*
X157031006Y-74843332D02*
X156983387Y-74938570D01*
X175795180Y-95166666D02*
X175080895Y-95166666D01*
X175080895Y-95166666D02*
X174938038Y-95119047D01*
X174938038Y-95119047D02*
X174842800Y-95023809D01*
X174842800Y-95023809D02*
X174795180Y-94880952D01*
X174795180Y-94880952D02*
X174795180Y-94785714D01*
X174795180Y-96166666D02*
X174795180Y-95595238D01*
X174795180Y-95880952D02*
X175795180Y-95880952D01*
X175795180Y-95880952D02*
X175652323Y-95785714D01*
X175652323Y-95785714D02*
X175557085Y-95690476D01*
X175557085Y-95690476D02*
X175509466Y-95595238D01*
X105888095Y-144556819D02*
X106459523Y-144556819D01*
X106173809Y-145556819D02*
X106173809Y-144556819D01*
X106792857Y-145556819D02*
X106792857Y-144556819D01*
X106792857Y-144556819D02*
X107173809Y-144556819D01*
X107173809Y-144556819D02*
X107269047Y-144604438D01*
X107269047Y-144604438D02*
X107316666Y-144652057D01*
X107316666Y-144652057D02*
X107364285Y-144747295D01*
X107364285Y-144747295D02*
X107364285Y-144890152D01*
X107364285Y-144890152D02*
X107316666Y-144985390D01*
X107316666Y-144985390D02*
X107269047Y-145033009D01*
X107269047Y-145033009D02*
X107173809Y-145080628D01*
X107173809Y-145080628D02*
X106792857Y-145080628D01*
X107935714Y-144985390D02*
X107840476Y-144937771D01*
X107840476Y-144937771D02*
X107792857Y-144890152D01*
X107792857Y-144890152D02*
X107745238Y-144794914D01*
X107745238Y-144794914D02*
X107745238Y-144747295D01*
X107745238Y-144747295D02*
X107792857Y-144652057D01*
X107792857Y-144652057D02*
X107840476Y-144604438D01*
X107840476Y-144604438D02*
X107935714Y-144556819D01*
X107935714Y-144556819D02*
X108126190Y-144556819D01*
X108126190Y-144556819D02*
X108221428Y-144604438D01*
X108221428Y-144604438D02*
X108269047Y-144652057D01*
X108269047Y-144652057D02*
X108316666Y-144747295D01*
X108316666Y-144747295D02*
X108316666Y-144794914D01*
X108316666Y-144794914D02*
X108269047Y-144890152D01*
X108269047Y-144890152D02*
X108221428Y-144937771D01*
X108221428Y-144937771D02*
X108126190Y-144985390D01*
X108126190Y-144985390D02*
X107935714Y-144985390D01*
X107935714Y-144985390D02*
X107840476Y-145033009D01*
X107840476Y-145033009D02*
X107792857Y-145080628D01*
X107792857Y-145080628D02*
X107745238Y-145175866D01*
X107745238Y-145175866D02*
X107745238Y-145366342D01*
X107745238Y-145366342D02*
X107792857Y-145461580D01*
X107792857Y-145461580D02*
X107840476Y-145509200D01*
X107840476Y-145509200D02*
X107935714Y-145556819D01*
X107935714Y-145556819D02*
X108126190Y-145556819D01*
X108126190Y-145556819D02*
X108221428Y-145509200D01*
X108221428Y-145509200D02*
X108269047Y-145461580D01*
X108269047Y-145461580D02*
X108316666Y-145366342D01*
X108316666Y-145366342D02*
X108316666Y-145175866D01*
X108316666Y-145175866D02*
X108269047Y-145080628D01*
X108269047Y-145080628D02*
X108221428Y-145033009D01*
X108221428Y-145033009D02*
X108126190Y-144985390D01*
X118182142Y-102712319D02*
X117848809Y-102236128D01*
X117610714Y-102712319D02*
X117610714Y-101712319D01*
X117610714Y-101712319D02*
X117991666Y-101712319D01*
X117991666Y-101712319D02*
X118086904Y-101759938D01*
X118086904Y-101759938D02*
X118134523Y-101807557D01*
X118134523Y-101807557D02*
X118182142Y-101902795D01*
X118182142Y-101902795D02*
X118182142Y-102045652D01*
X118182142Y-102045652D02*
X118134523Y-102140890D01*
X118134523Y-102140890D02*
X118086904Y-102188509D01*
X118086904Y-102188509D02*
X117991666Y-102236128D01*
X117991666Y-102236128D02*
X117610714Y-102236128D01*
X119134523Y-102712319D02*
X118563095Y-102712319D01*
X118848809Y-102712319D02*
X118848809Y-101712319D01*
X118848809Y-101712319D02*
X118753571Y-101855176D01*
X118753571Y-101855176D02*
X118658333Y-101950414D01*
X118658333Y-101950414D02*
X118563095Y-101998033D01*
X119991666Y-101712319D02*
X119801190Y-101712319D01*
X119801190Y-101712319D02*
X119705952Y-101759938D01*
X119705952Y-101759938D02*
X119658333Y-101807557D01*
X119658333Y-101807557D02*
X119563095Y-101950414D01*
X119563095Y-101950414D02*
X119515476Y-102140890D01*
X119515476Y-102140890D02*
X119515476Y-102521842D01*
X119515476Y-102521842D02*
X119563095Y-102617080D01*
X119563095Y-102617080D02*
X119610714Y-102664700D01*
X119610714Y-102664700D02*
X119705952Y-102712319D01*
X119705952Y-102712319D02*
X119896428Y-102712319D01*
X119896428Y-102712319D02*
X119991666Y-102664700D01*
X119991666Y-102664700D02*
X120039285Y-102617080D01*
X120039285Y-102617080D02*
X120086904Y-102521842D01*
X120086904Y-102521842D02*
X120086904Y-102283747D01*
X120086904Y-102283747D02*
X120039285Y-102188509D01*
X120039285Y-102188509D02*
X119991666Y-102140890D01*
X119991666Y-102140890D02*
X119896428Y-102093271D01*
X119896428Y-102093271D02*
X119705952Y-102093271D01*
X119705952Y-102093271D02*
X119610714Y-102140890D01*
X119610714Y-102140890D02*
X119563095Y-102188509D01*
X119563095Y-102188509D02*
X119515476Y-102283747D01*
X143807142Y-78959580D02*
X143759523Y-79007200D01*
X143759523Y-79007200D02*
X143616666Y-79054819D01*
X143616666Y-79054819D02*
X143521428Y-79054819D01*
X143521428Y-79054819D02*
X143378571Y-79007200D01*
X143378571Y-79007200D02*
X143283333Y-78911961D01*
X143283333Y-78911961D02*
X143235714Y-78816723D01*
X143235714Y-78816723D02*
X143188095Y-78626247D01*
X143188095Y-78626247D02*
X143188095Y-78483390D01*
X143188095Y-78483390D02*
X143235714Y-78292914D01*
X143235714Y-78292914D02*
X143283333Y-78197676D01*
X143283333Y-78197676D02*
X143378571Y-78102438D01*
X143378571Y-78102438D02*
X143521428Y-78054819D01*
X143521428Y-78054819D02*
X143616666Y-78054819D01*
X143616666Y-78054819D02*
X143759523Y-78102438D01*
X143759523Y-78102438D02*
X143807142Y-78150057D01*
X144140476Y-78054819D02*
X144759523Y-78054819D01*
X144759523Y-78054819D02*
X144426190Y-78435771D01*
X144426190Y-78435771D02*
X144569047Y-78435771D01*
X144569047Y-78435771D02*
X144664285Y-78483390D01*
X144664285Y-78483390D02*
X144711904Y-78531009D01*
X144711904Y-78531009D02*
X144759523Y-78626247D01*
X144759523Y-78626247D02*
X144759523Y-78864342D01*
X144759523Y-78864342D02*
X144711904Y-78959580D01*
X144711904Y-78959580D02*
X144664285Y-79007200D01*
X144664285Y-79007200D02*
X144569047Y-79054819D01*
X144569047Y-79054819D02*
X144283333Y-79054819D01*
X144283333Y-79054819D02*
X144188095Y-79007200D01*
X144188095Y-79007200D02*
X144140476Y-78959580D01*
X145092857Y-78054819D02*
X145711904Y-78054819D01*
X145711904Y-78054819D02*
X145378571Y-78435771D01*
X145378571Y-78435771D02*
X145521428Y-78435771D01*
X145521428Y-78435771D02*
X145616666Y-78483390D01*
X145616666Y-78483390D02*
X145664285Y-78531009D01*
X145664285Y-78531009D02*
X145711904Y-78626247D01*
X145711904Y-78626247D02*
X145711904Y-78864342D01*
X145711904Y-78864342D02*
X145664285Y-78959580D01*
X145664285Y-78959580D02*
X145616666Y-79007200D01*
X145616666Y-79007200D02*
X145521428Y-79054819D01*
X145521428Y-79054819D02*
X145235714Y-79054819D01*
X145235714Y-79054819D02*
X145140476Y-79007200D01*
X145140476Y-79007200D02*
X145092857Y-78959580D01*
X112857142Y-103824819D02*
X112523809Y-103348628D01*
X112285714Y-103824819D02*
X112285714Y-102824819D01*
X112285714Y-102824819D02*
X112666666Y-102824819D01*
X112666666Y-102824819D02*
X112761904Y-102872438D01*
X112761904Y-102872438D02*
X112809523Y-102920057D01*
X112809523Y-102920057D02*
X112857142Y-103015295D01*
X112857142Y-103015295D02*
X112857142Y-103158152D01*
X112857142Y-103158152D02*
X112809523Y-103253390D01*
X112809523Y-103253390D02*
X112761904Y-103301009D01*
X112761904Y-103301009D02*
X112666666Y-103348628D01*
X112666666Y-103348628D02*
X112285714Y-103348628D01*
X113809523Y-103824819D02*
X113238095Y-103824819D01*
X113523809Y-103824819D02*
X113523809Y-102824819D01*
X113523809Y-102824819D02*
X113428571Y-102967676D01*
X113428571Y-102967676D02*
X113333333Y-103062914D01*
X113333333Y-103062914D02*
X113238095Y-103110533D01*
X114285714Y-103824819D02*
X114476190Y-103824819D01*
X114476190Y-103824819D02*
X114571428Y-103777200D01*
X114571428Y-103777200D02*
X114619047Y-103729580D01*
X114619047Y-103729580D02*
X114714285Y-103586723D01*
X114714285Y-103586723D02*
X114761904Y-103396247D01*
X114761904Y-103396247D02*
X114761904Y-103015295D01*
X114761904Y-103015295D02*
X114714285Y-102920057D01*
X114714285Y-102920057D02*
X114666666Y-102872438D01*
X114666666Y-102872438D02*
X114571428Y-102824819D01*
X114571428Y-102824819D02*
X114380952Y-102824819D01*
X114380952Y-102824819D02*
X114285714Y-102872438D01*
X114285714Y-102872438D02*
X114238095Y-102920057D01*
X114238095Y-102920057D02*
X114190476Y-103015295D01*
X114190476Y-103015295D02*
X114190476Y-103253390D01*
X114190476Y-103253390D02*
X114238095Y-103348628D01*
X114238095Y-103348628D02*
X114285714Y-103396247D01*
X114285714Y-103396247D02*
X114380952Y-103443866D01*
X114380952Y-103443866D02*
X114571428Y-103443866D01*
X114571428Y-103443866D02*
X114666666Y-103396247D01*
X114666666Y-103396247D02*
X114714285Y-103348628D01*
X114714285Y-103348628D02*
X114761904Y-103253390D01*
X153586783Y-92909581D02*
X153539164Y-92957201D01*
X153539164Y-92957201D02*
X153396307Y-93004820D01*
X153396307Y-93004820D02*
X153301069Y-93004820D01*
X153301069Y-93004820D02*
X153158212Y-92957201D01*
X153158212Y-92957201D02*
X153062974Y-92861962D01*
X153062974Y-92861962D02*
X153015355Y-92766724D01*
X153015355Y-92766724D02*
X152967736Y-92576248D01*
X152967736Y-92576248D02*
X152967736Y-92433391D01*
X152967736Y-92433391D02*
X153015355Y-92242915D01*
X153015355Y-92242915D02*
X153062974Y-92147677D01*
X153062974Y-92147677D02*
X153158212Y-92052439D01*
X153158212Y-92052439D02*
X153301069Y-92004820D01*
X153301069Y-92004820D02*
X153396307Y-92004820D01*
X153396307Y-92004820D02*
X153539164Y-92052439D01*
X153539164Y-92052439D02*
X153586783Y-92100058D01*
X154586783Y-93004820D02*
X154253450Y-92528629D01*
X154015355Y-93004820D02*
X154015355Y-92004820D01*
X154015355Y-92004820D02*
X154396307Y-92004820D01*
X154396307Y-92004820D02*
X154491545Y-92052439D01*
X154491545Y-92052439D02*
X154539164Y-92100058D01*
X154539164Y-92100058D02*
X154586783Y-92195296D01*
X154586783Y-92195296D02*
X154586783Y-92338153D01*
X154586783Y-92338153D02*
X154539164Y-92433391D01*
X154539164Y-92433391D02*
X154491545Y-92481010D01*
X154491545Y-92481010D02*
X154396307Y-92528629D01*
X154396307Y-92528629D02*
X154015355Y-92528629D01*
X155539164Y-93004820D02*
X154967736Y-93004820D01*
X155253450Y-93004820D02*
X155253450Y-92004820D01*
X155253450Y-92004820D02*
X155158212Y-92147677D01*
X155158212Y-92147677D02*
X155062974Y-92242915D01*
X155062974Y-92242915D02*
X154967736Y-92290534D01*
X151350100Y-92429220D02*
X151350100Y-92667315D01*
X151112005Y-92572077D02*
X151350100Y-92667315D01*
X151350100Y-92667315D02*
X151588195Y-92572077D01*
X151207243Y-92857791D02*
X151350100Y-92667315D01*
X151350100Y-92667315D02*
X151492957Y-92857791D01*
X151350100Y-92429220D02*
X151350100Y-92667315D01*
X151112005Y-92572077D02*
X151350100Y-92667315D01*
X151350100Y-92667315D02*
X151588195Y-92572077D01*
X151207243Y-92857791D02*
X151350100Y-92667315D01*
X151350100Y-92667315D02*
X151492957Y-92857791D01*
X140259580Y-81642857D02*
X140307200Y-81690476D01*
X140307200Y-81690476D02*
X140354819Y-81833333D01*
X140354819Y-81833333D02*
X140354819Y-81928571D01*
X140354819Y-81928571D02*
X140307200Y-82071428D01*
X140307200Y-82071428D02*
X140211961Y-82166666D01*
X140211961Y-82166666D02*
X140116723Y-82214285D01*
X140116723Y-82214285D02*
X139926247Y-82261904D01*
X139926247Y-82261904D02*
X139783390Y-82261904D01*
X139783390Y-82261904D02*
X139592914Y-82214285D01*
X139592914Y-82214285D02*
X139497676Y-82166666D01*
X139497676Y-82166666D02*
X139402438Y-82071428D01*
X139402438Y-82071428D02*
X139354819Y-81928571D01*
X139354819Y-81928571D02*
X139354819Y-81833333D01*
X139354819Y-81833333D02*
X139402438Y-81690476D01*
X139402438Y-81690476D02*
X139450057Y-81642857D01*
X139450057Y-81261904D02*
X139402438Y-81214285D01*
X139402438Y-81214285D02*
X139354819Y-81119047D01*
X139354819Y-81119047D02*
X139354819Y-80880952D01*
X139354819Y-80880952D02*
X139402438Y-80785714D01*
X139402438Y-80785714D02*
X139450057Y-80738095D01*
X139450057Y-80738095D02*
X139545295Y-80690476D01*
X139545295Y-80690476D02*
X139640533Y-80690476D01*
X139640533Y-80690476D02*
X139783390Y-80738095D01*
X139783390Y-80738095D02*
X140354819Y-81309523D01*
X140354819Y-81309523D02*
X140354819Y-80690476D01*
X139688152Y-79833333D02*
X140354819Y-79833333D01*
X139307200Y-80071428D02*
X140021485Y-80309523D01*
X140021485Y-80309523D02*
X140021485Y-79690476D01*
X87211905Y-134456819D02*
X87783333Y-134456819D01*
X87497619Y-135456819D02*
X87497619Y-134456819D01*
X88116667Y-135456819D02*
X88116667Y-134456819D01*
X88116667Y-134456819D02*
X88497619Y-134456819D01*
X88497619Y-134456819D02*
X88592857Y-134504438D01*
X88592857Y-134504438D02*
X88640476Y-134552057D01*
X88640476Y-134552057D02*
X88688095Y-134647295D01*
X88688095Y-134647295D02*
X88688095Y-134790152D01*
X88688095Y-134790152D02*
X88640476Y-134885390D01*
X88640476Y-134885390D02*
X88592857Y-134933009D01*
X88592857Y-134933009D02*
X88497619Y-134980628D01*
X88497619Y-134980628D02*
X88116667Y-134980628D01*
X89640476Y-135456819D02*
X89069048Y-135456819D01*
X89354762Y-135456819D02*
X89354762Y-134456819D01*
X89354762Y-134456819D02*
X89259524Y-134599676D01*
X89259524Y-134599676D02*
X89164286Y-134694914D01*
X89164286Y-134694914D02*
X89069048Y-134742533D01*
X90021429Y-134552057D02*
X90069048Y-134504438D01*
X90069048Y-134504438D02*
X90164286Y-134456819D01*
X90164286Y-134456819D02*
X90402381Y-134456819D01*
X90402381Y-134456819D02*
X90497619Y-134504438D01*
X90497619Y-134504438D02*
X90545238Y-134552057D01*
X90545238Y-134552057D02*
X90592857Y-134647295D01*
X90592857Y-134647295D02*
X90592857Y-134742533D01*
X90592857Y-134742533D02*
X90545238Y-134885390D01*
X90545238Y-134885390D02*
X89973810Y-135456819D01*
X89973810Y-135456819D02*
X90592857Y-135456819D01*
X112857142Y-99199819D02*
X112523809Y-98723628D01*
X112285714Y-99199819D02*
X112285714Y-98199819D01*
X112285714Y-98199819D02*
X112666666Y-98199819D01*
X112666666Y-98199819D02*
X112761904Y-98247438D01*
X112761904Y-98247438D02*
X112809523Y-98295057D01*
X112809523Y-98295057D02*
X112857142Y-98390295D01*
X112857142Y-98390295D02*
X112857142Y-98533152D01*
X112857142Y-98533152D02*
X112809523Y-98628390D01*
X112809523Y-98628390D02*
X112761904Y-98676009D01*
X112761904Y-98676009D02*
X112666666Y-98723628D01*
X112666666Y-98723628D02*
X112285714Y-98723628D01*
X113809523Y-99199819D02*
X113238095Y-99199819D01*
X113523809Y-99199819D02*
X113523809Y-98199819D01*
X113523809Y-98199819D02*
X113428571Y-98342676D01*
X113428571Y-98342676D02*
X113333333Y-98437914D01*
X113333333Y-98437914D02*
X113238095Y-98485533D01*
X114142857Y-98199819D02*
X114809523Y-98199819D01*
X114809523Y-98199819D02*
X114380952Y-99199819D01*
X131384816Y-76967856D02*
X130908625Y-77301189D01*
X131384816Y-77539284D02*
X130384816Y-77539284D01*
X130384816Y-77539284D02*
X130384816Y-77158332D01*
X130384816Y-77158332D02*
X130432435Y-77063094D01*
X130432435Y-77063094D02*
X130480054Y-77015475D01*
X130480054Y-77015475D02*
X130575292Y-76967856D01*
X130575292Y-76967856D02*
X130718149Y-76967856D01*
X130718149Y-76967856D02*
X130813387Y-77015475D01*
X130813387Y-77015475D02*
X130861006Y-77063094D01*
X130861006Y-77063094D02*
X130908625Y-77158332D01*
X130908625Y-77158332D02*
X130908625Y-77539284D01*
X130480054Y-76586903D02*
X130432435Y-76539284D01*
X130432435Y-76539284D02*
X130384816Y-76444046D01*
X130384816Y-76444046D02*
X130384816Y-76205951D01*
X130384816Y-76205951D02*
X130432435Y-76110713D01*
X130432435Y-76110713D02*
X130480054Y-76063094D01*
X130480054Y-76063094D02*
X130575292Y-76015475D01*
X130575292Y-76015475D02*
X130670530Y-76015475D01*
X130670530Y-76015475D02*
X130813387Y-76063094D01*
X130813387Y-76063094D02*
X131384816Y-76634522D01*
X131384816Y-76634522D02*
X131384816Y-76015475D01*
X130384816Y-75682141D02*
X130384816Y-75063094D01*
X130384816Y-75063094D02*
X130765768Y-75396427D01*
X130765768Y-75396427D02*
X130765768Y-75253570D01*
X130765768Y-75253570D02*
X130813387Y-75158332D01*
X130813387Y-75158332D02*
X130861006Y-75110713D01*
X130861006Y-75110713D02*
X130956244Y-75063094D01*
X130956244Y-75063094D02*
X131194339Y-75063094D01*
X131194339Y-75063094D02*
X131289577Y-75110713D01*
X131289577Y-75110713D02*
X131337197Y-75158332D01*
X131337197Y-75158332D02*
X131384816Y-75253570D01*
X131384816Y-75253570D02*
X131384816Y-75539284D01*
X131384816Y-75539284D02*
X131337197Y-75634522D01*
X131337197Y-75634522D02*
X131289577Y-75682141D01*
X143799405Y-61384819D02*
X143799405Y-60384819D01*
X143799405Y-60384819D02*
X144037500Y-60384819D01*
X144037500Y-60384819D02*
X144180357Y-60432438D01*
X144180357Y-60432438D02*
X144275595Y-60527676D01*
X144275595Y-60527676D02*
X144323214Y-60622914D01*
X144323214Y-60622914D02*
X144370833Y-60813390D01*
X144370833Y-60813390D02*
X144370833Y-60956247D01*
X144370833Y-60956247D02*
X144323214Y-61146723D01*
X144323214Y-61146723D02*
X144275595Y-61241961D01*
X144275595Y-61241961D02*
X144180357Y-61337200D01*
X144180357Y-61337200D02*
X144037500Y-61384819D01*
X144037500Y-61384819D02*
X143799405Y-61384819D01*
X145323214Y-61384819D02*
X144751786Y-61384819D01*
X145037500Y-61384819D02*
X145037500Y-60384819D01*
X145037500Y-60384819D02*
X144942262Y-60527676D01*
X144942262Y-60527676D02*
X144847024Y-60622914D01*
X144847024Y-60622914D02*
X144751786Y-60670533D01*
X109428571Y-134231009D02*
X109095238Y-134231009D01*
X109095238Y-134754819D02*
X109095238Y-133754819D01*
X109095238Y-133754819D02*
X109571428Y-133754819D01*
X109952381Y-134754819D02*
X109952381Y-133754819D01*
X110428571Y-134754819D02*
X110428571Y-133754819D01*
X110428571Y-133754819D02*
X110666666Y-133754819D01*
X110666666Y-133754819D02*
X110809523Y-133802438D01*
X110809523Y-133802438D02*
X110904761Y-133897676D01*
X110904761Y-133897676D02*
X110952380Y-133992914D01*
X110952380Y-133992914D02*
X110999999Y-134183390D01*
X110999999Y-134183390D02*
X110999999Y-134326247D01*
X110999999Y-134326247D02*
X110952380Y-134516723D01*
X110952380Y-134516723D02*
X110904761Y-134611961D01*
X110904761Y-134611961D02*
X110809523Y-134707200D01*
X110809523Y-134707200D02*
X110666666Y-134754819D01*
X110666666Y-134754819D02*
X110428571Y-134754819D01*
X111333333Y-133754819D02*
X111952380Y-133754819D01*
X111952380Y-133754819D02*
X111619047Y-134135771D01*
X111619047Y-134135771D02*
X111761904Y-134135771D01*
X111761904Y-134135771D02*
X111857142Y-134183390D01*
X111857142Y-134183390D02*
X111904761Y-134231009D01*
X111904761Y-134231009D02*
X111952380Y-134326247D01*
X111952380Y-134326247D02*
X111952380Y-134564342D01*
X111952380Y-134564342D02*
X111904761Y-134659580D01*
X111904761Y-134659580D02*
X111857142Y-134707200D01*
X111857142Y-134707200D02*
X111761904Y-134754819D01*
X111761904Y-134754819D02*
X111476190Y-134754819D01*
X111476190Y-134754819D02*
X111380952Y-134707200D01*
X111380952Y-134707200D02*
X111333333Y-134659580D01*
X160938095Y-89004820D02*
X160938095Y-89814343D01*
X160938095Y-89814343D02*
X160985714Y-89909581D01*
X160985714Y-89909581D02*
X161033333Y-89957201D01*
X161033333Y-89957201D02*
X161128571Y-90004820D01*
X161128571Y-90004820D02*
X161319047Y-90004820D01*
X161319047Y-90004820D02*
X161414285Y-89957201D01*
X161414285Y-89957201D02*
X161461904Y-89909581D01*
X161461904Y-89909581D02*
X161509523Y-89814343D01*
X161509523Y-89814343D02*
X161509523Y-89004820D01*
X161938095Y-89100058D02*
X161985714Y-89052439D01*
X161985714Y-89052439D02*
X162080952Y-89004820D01*
X162080952Y-89004820D02*
X162319047Y-89004820D01*
X162319047Y-89004820D02*
X162414285Y-89052439D01*
X162414285Y-89052439D02*
X162461904Y-89100058D01*
X162461904Y-89100058D02*
X162509523Y-89195296D01*
X162509523Y-89195296D02*
X162509523Y-89290534D01*
X162509523Y-89290534D02*
X162461904Y-89433391D01*
X162461904Y-89433391D02*
X161890476Y-90004820D01*
X161890476Y-90004820D02*
X162509523Y-90004820D01*
X157299450Y-90636020D02*
X157299450Y-90874115D01*
X157061355Y-90778877D02*
X157299450Y-90874115D01*
X157299450Y-90874115D02*
X157537545Y-90778877D01*
X157156593Y-91064591D02*
X157299450Y-90874115D01*
X157299450Y-90874115D02*
X157442307Y-91064591D01*
X157299450Y-90636020D02*
X157299450Y-90874115D01*
X157061355Y-90778877D02*
X157299450Y-90874115D01*
X157299450Y-90874115D02*
X157537545Y-90778877D01*
X157156593Y-91064591D02*
X157299450Y-90874115D01*
X157299450Y-90874115D02*
X157442307Y-91064591D01*
X170488095Y-102554819D02*
X170488095Y-101554819D01*
X170488095Y-102031009D02*
X171059523Y-102031009D01*
X171059523Y-102554819D02*
X171059523Y-101554819D01*
X171488095Y-101650057D02*
X171535714Y-101602438D01*
X171535714Y-101602438D02*
X171630952Y-101554819D01*
X171630952Y-101554819D02*
X171869047Y-101554819D01*
X171869047Y-101554819D02*
X171964285Y-101602438D01*
X171964285Y-101602438D02*
X172011904Y-101650057D01*
X172011904Y-101650057D02*
X172059523Y-101745295D01*
X172059523Y-101745295D02*
X172059523Y-101840533D01*
X172059523Y-101840533D02*
X172011904Y-101983390D01*
X172011904Y-101983390D02*
X171440476Y-102554819D01*
X171440476Y-102554819D02*
X172059523Y-102554819D01*
X136882139Y-78984579D02*
X136834520Y-79032199D01*
X136834520Y-79032199D02*
X136691663Y-79079818D01*
X136691663Y-79079818D02*
X136596425Y-79079818D01*
X136596425Y-79079818D02*
X136453568Y-79032199D01*
X136453568Y-79032199D02*
X136358330Y-78936960D01*
X136358330Y-78936960D02*
X136310711Y-78841722D01*
X136310711Y-78841722D02*
X136263092Y-78651246D01*
X136263092Y-78651246D02*
X136263092Y-78508389D01*
X136263092Y-78508389D02*
X136310711Y-78317913D01*
X136310711Y-78317913D02*
X136358330Y-78222675D01*
X136358330Y-78222675D02*
X136453568Y-78127437D01*
X136453568Y-78127437D02*
X136596425Y-78079818D01*
X136596425Y-78079818D02*
X136691663Y-78079818D01*
X136691663Y-78079818D02*
X136834520Y-78127437D01*
X136834520Y-78127437D02*
X136882139Y-78175056D01*
X137215473Y-78079818D02*
X137834520Y-78079818D01*
X137834520Y-78079818D02*
X137501187Y-78460770D01*
X137501187Y-78460770D02*
X137644044Y-78460770D01*
X137644044Y-78460770D02*
X137739282Y-78508389D01*
X137739282Y-78508389D02*
X137786901Y-78556008D01*
X137786901Y-78556008D02*
X137834520Y-78651246D01*
X137834520Y-78651246D02*
X137834520Y-78889341D01*
X137834520Y-78889341D02*
X137786901Y-78984579D01*
X137786901Y-78984579D02*
X137739282Y-79032199D01*
X137739282Y-79032199D02*
X137644044Y-79079818D01*
X137644044Y-79079818D02*
X137358330Y-79079818D01*
X137358330Y-79079818D02*
X137263092Y-79032199D01*
X137263092Y-79032199D02*
X137215473Y-78984579D01*
X138786901Y-79079818D02*
X138215473Y-79079818D01*
X138501187Y-79079818D02*
X138501187Y-78079818D01*
X138501187Y-78079818D02*
X138405949Y-78222675D01*
X138405949Y-78222675D02*
X138310711Y-78317913D01*
X138310711Y-78317913D02*
X138215473Y-78365532D01*
X155767139Y-76639579D02*
X155719520Y-76687199D01*
X155719520Y-76687199D02*
X155576663Y-76734818D01*
X155576663Y-76734818D02*
X155481425Y-76734818D01*
X155481425Y-76734818D02*
X155338568Y-76687199D01*
X155338568Y-76687199D02*
X155243330Y-76591960D01*
X155243330Y-76591960D02*
X155195711Y-76496722D01*
X155195711Y-76496722D02*
X155148092Y-76306246D01*
X155148092Y-76306246D02*
X155148092Y-76163389D01*
X155148092Y-76163389D02*
X155195711Y-75972913D01*
X155195711Y-75972913D02*
X155243330Y-75877675D01*
X155243330Y-75877675D02*
X155338568Y-75782437D01*
X155338568Y-75782437D02*
X155481425Y-75734818D01*
X155481425Y-75734818D02*
X155576663Y-75734818D01*
X155576663Y-75734818D02*
X155719520Y-75782437D01*
X155719520Y-75782437D02*
X155767139Y-75830056D01*
X156100473Y-75734818D02*
X156719520Y-75734818D01*
X156719520Y-75734818D02*
X156386187Y-76115770D01*
X156386187Y-76115770D02*
X156529044Y-76115770D01*
X156529044Y-76115770D02*
X156624282Y-76163389D01*
X156624282Y-76163389D02*
X156671901Y-76211008D01*
X156671901Y-76211008D02*
X156719520Y-76306246D01*
X156719520Y-76306246D02*
X156719520Y-76544341D01*
X156719520Y-76544341D02*
X156671901Y-76639579D01*
X156671901Y-76639579D02*
X156624282Y-76687199D01*
X156624282Y-76687199D02*
X156529044Y-76734818D01*
X156529044Y-76734818D02*
X156243330Y-76734818D01*
X156243330Y-76734818D02*
X156148092Y-76687199D01*
X156148092Y-76687199D02*
X156100473Y-76639579D01*
X157576663Y-75734818D02*
X157386187Y-75734818D01*
X157386187Y-75734818D02*
X157290949Y-75782437D01*
X157290949Y-75782437D02*
X157243330Y-75830056D01*
X157243330Y-75830056D02*
X157148092Y-75972913D01*
X157148092Y-75972913D02*
X157100473Y-76163389D01*
X157100473Y-76163389D02*
X157100473Y-76544341D01*
X157100473Y-76544341D02*
X157148092Y-76639579D01*
X157148092Y-76639579D02*
X157195711Y-76687199D01*
X157195711Y-76687199D02*
X157290949Y-76734818D01*
X157290949Y-76734818D02*
X157481425Y-76734818D01*
X157481425Y-76734818D02*
X157576663Y-76687199D01*
X157576663Y-76687199D02*
X157624282Y-76639579D01*
X157624282Y-76639579D02*
X157671901Y-76544341D01*
X157671901Y-76544341D02*
X157671901Y-76306246D01*
X157671901Y-76306246D02*
X157624282Y-76211008D01*
X157624282Y-76211008D02*
X157576663Y-76163389D01*
X157576663Y-76163389D02*
X157481425Y-76115770D01*
X157481425Y-76115770D02*
X157290949Y-76115770D01*
X157290949Y-76115770D02*
X157195711Y-76163389D01*
X157195711Y-76163389D02*
X157148092Y-76211008D01*
X157148092Y-76211008D02*
X157100473Y-76306246D01*
X105888095Y-140506819D02*
X106459523Y-140506819D01*
X106173809Y-141506819D02*
X106173809Y-140506819D01*
X106792857Y-141506819D02*
X106792857Y-140506819D01*
X106792857Y-140506819D02*
X107173809Y-140506819D01*
X107173809Y-140506819D02*
X107269047Y-140554438D01*
X107269047Y-140554438D02*
X107316666Y-140602057D01*
X107316666Y-140602057D02*
X107364285Y-140697295D01*
X107364285Y-140697295D02*
X107364285Y-140840152D01*
X107364285Y-140840152D02*
X107316666Y-140935390D01*
X107316666Y-140935390D02*
X107269047Y-140983009D01*
X107269047Y-140983009D02*
X107173809Y-141030628D01*
X107173809Y-141030628D02*
X106792857Y-141030628D01*
X107697619Y-140506819D02*
X108364285Y-140506819D01*
X108364285Y-140506819D02*
X107935714Y-141506819D01*
X101838095Y-144556819D02*
X102409523Y-144556819D01*
X102123809Y-145556819D02*
X102123809Y-144556819D01*
X102742857Y-145556819D02*
X102742857Y-144556819D01*
X102742857Y-144556819D02*
X103123809Y-144556819D01*
X103123809Y-144556819D02*
X103219047Y-144604438D01*
X103219047Y-144604438D02*
X103266666Y-144652057D01*
X103266666Y-144652057D02*
X103314285Y-144747295D01*
X103314285Y-144747295D02*
X103314285Y-144890152D01*
X103314285Y-144890152D02*
X103266666Y-144985390D01*
X103266666Y-144985390D02*
X103219047Y-145033009D01*
X103219047Y-145033009D02*
X103123809Y-145080628D01*
X103123809Y-145080628D02*
X102742857Y-145080628D01*
X104171428Y-144556819D02*
X103980952Y-144556819D01*
X103980952Y-144556819D02*
X103885714Y-144604438D01*
X103885714Y-144604438D02*
X103838095Y-144652057D01*
X103838095Y-144652057D02*
X103742857Y-144794914D01*
X103742857Y-144794914D02*
X103695238Y-144985390D01*
X103695238Y-144985390D02*
X103695238Y-145366342D01*
X103695238Y-145366342D02*
X103742857Y-145461580D01*
X103742857Y-145461580D02*
X103790476Y-145509200D01*
X103790476Y-145509200D02*
X103885714Y-145556819D01*
X103885714Y-145556819D02*
X104076190Y-145556819D01*
X104076190Y-145556819D02*
X104171428Y-145509200D01*
X104171428Y-145509200D02*
X104219047Y-145461580D01*
X104219047Y-145461580D02*
X104266666Y-145366342D01*
X104266666Y-145366342D02*
X104266666Y-145128247D01*
X104266666Y-145128247D02*
X104219047Y-145033009D01*
X104219047Y-145033009D02*
X104171428Y-144985390D01*
X104171428Y-144985390D02*
X104076190Y-144937771D01*
X104076190Y-144937771D02*
X103885714Y-144937771D01*
X103885714Y-144937771D02*
X103790476Y-144985390D01*
X103790476Y-144985390D02*
X103742857Y-145033009D01*
X103742857Y-145033009D02*
X103695238Y-145128247D01*
X153684816Y-76967856D02*
X153208625Y-77301189D01*
X153684816Y-77539284D02*
X152684816Y-77539284D01*
X152684816Y-77539284D02*
X152684816Y-77158332D01*
X152684816Y-77158332D02*
X152732435Y-77063094D01*
X152732435Y-77063094D02*
X152780054Y-77015475D01*
X152780054Y-77015475D02*
X152875292Y-76967856D01*
X152875292Y-76967856D02*
X153018149Y-76967856D01*
X153018149Y-76967856D02*
X153113387Y-77015475D01*
X153113387Y-77015475D02*
X153161006Y-77063094D01*
X153161006Y-77063094D02*
X153208625Y-77158332D01*
X153208625Y-77158332D02*
X153208625Y-77539284D01*
X152684816Y-76634522D02*
X152684816Y-76015475D01*
X152684816Y-76015475D02*
X153065768Y-76348808D01*
X153065768Y-76348808D02*
X153065768Y-76205951D01*
X153065768Y-76205951D02*
X153113387Y-76110713D01*
X153113387Y-76110713D02*
X153161006Y-76063094D01*
X153161006Y-76063094D02*
X153256244Y-76015475D01*
X153256244Y-76015475D02*
X153494339Y-76015475D01*
X153494339Y-76015475D02*
X153589577Y-76063094D01*
X153589577Y-76063094D02*
X153637197Y-76110713D01*
X153637197Y-76110713D02*
X153684816Y-76205951D01*
X153684816Y-76205951D02*
X153684816Y-76491665D01*
X153684816Y-76491665D02*
X153637197Y-76586903D01*
X153637197Y-76586903D02*
X153589577Y-76634522D01*
X152684816Y-75396427D02*
X152684816Y-75301189D01*
X152684816Y-75301189D02*
X152732435Y-75205951D01*
X152732435Y-75205951D02*
X152780054Y-75158332D01*
X152780054Y-75158332D02*
X152875292Y-75110713D01*
X152875292Y-75110713D02*
X153065768Y-75063094D01*
X153065768Y-75063094D02*
X153303863Y-75063094D01*
X153303863Y-75063094D02*
X153494339Y-75110713D01*
X153494339Y-75110713D02*
X153589577Y-75158332D01*
X153589577Y-75158332D02*
X153637197Y-75205951D01*
X153637197Y-75205951D02*
X153684816Y-75301189D01*
X153684816Y-75301189D02*
X153684816Y-75396427D01*
X153684816Y-75396427D02*
X153637197Y-75491665D01*
X153637197Y-75491665D02*
X153589577Y-75539284D01*
X153589577Y-75539284D02*
X153494339Y-75586903D01*
X153494339Y-75586903D02*
X153303863Y-75634522D01*
X153303863Y-75634522D02*
X153065768Y-75634522D01*
X153065768Y-75634522D02*
X152875292Y-75586903D01*
X152875292Y-75586903D02*
X152780054Y-75539284D01*
X152780054Y-75539284D02*
X152732435Y-75491665D01*
X152732435Y-75491665D02*
X152684816Y-75396427D01*
X160938095Y-77923319D02*
X160938095Y-78732842D01*
X160938095Y-78732842D02*
X160985714Y-78828080D01*
X160985714Y-78828080D02*
X161033333Y-78875700D01*
X161033333Y-78875700D02*
X161128571Y-78923319D01*
X161128571Y-78923319D02*
X161319047Y-78923319D01*
X161319047Y-78923319D02*
X161414285Y-78875700D01*
X161414285Y-78875700D02*
X161461904Y-78828080D01*
X161461904Y-78828080D02*
X161509523Y-78732842D01*
X161509523Y-78732842D02*
X161509523Y-77923319D01*
X161890476Y-77923319D02*
X162509523Y-77923319D01*
X162509523Y-77923319D02*
X162176190Y-78304271D01*
X162176190Y-78304271D02*
X162319047Y-78304271D01*
X162319047Y-78304271D02*
X162414285Y-78351890D01*
X162414285Y-78351890D02*
X162461904Y-78399509D01*
X162461904Y-78399509D02*
X162509523Y-78494747D01*
X162509523Y-78494747D02*
X162509523Y-78732842D01*
X162509523Y-78732842D02*
X162461904Y-78828080D01*
X162461904Y-78828080D02*
X162414285Y-78875700D01*
X162414285Y-78875700D02*
X162319047Y-78923319D01*
X162319047Y-78923319D02*
X162033333Y-78923319D01*
X162033333Y-78923319D02*
X161938095Y-78875700D01*
X161938095Y-78875700D02*
X161890476Y-78828080D01*
X157299450Y-79554519D02*
X157299450Y-79792614D01*
X157061355Y-79697376D02*
X157299450Y-79792614D01*
X157299450Y-79792614D02*
X157537545Y-79697376D01*
X157156593Y-79983090D02*
X157299450Y-79792614D01*
X157299450Y-79792614D02*
X157442307Y-79983090D01*
X157299450Y-79554519D02*
X157299450Y-79792614D01*
X157061355Y-79697376D02*
X157299450Y-79792614D01*
X157299450Y-79792614D02*
X157537545Y-79697376D01*
X157156593Y-79983090D02*
X157299450Y-79792614D01*
X157299450Y-79792614D02*
X157442307Y-79983090D01*
X141632142Y-99229580D02*
X141584523Y-99277200D01*
X141584523Y-99277200D02*
X141441666Y-99324819D01*
X141441666Y-99324819D02*
X141346428Y-99324819D01*
X141346428Y-99324819D02*
X141203571Y-99277200D01*
X141203571Y-99277200D02*
X141108333Y-99181961D01*
X141108333Y-99181961D02*
X141060714Y-99086723D01*
X141060714Y-99086723D02*
X141013095Y-98896247D01*
X141013095Y-98896247D02*
X141013095Y-98753390D01*
X141013095Y-98753390D02*
X141060714Y-98562914D01*
X141060714Y-98562914D02*
X141108333Y-98467676D01*
X141108333Y-98467676D02*
X141203571Y-98372438D01*
X141203571Y-98372438D02*
X141346428Y-98324819D01*
X141346428Y-98324819D02*
X141441666Y-98324819D01*
X141441666Y-98324819D02*
X141584523Y-98372438D01*
X141584523Y-98372438D02*
X141632142Y-98420057D01*
X142584523Y-99324819D02*
X142013095Y-99324819D01*
X142298809Y-99324819D02*
X142298809Y-98324819D01*
X142298809Y-98324819D02*
X142203571Y-98467676D01*
X142203571Y-98467676D02*
X142108333Y-98562914D01*
X142108333Y-98562914D02*
X142013095Y-98610533D01*
X143536904Y-99324819D02*
X142965476Y-99324819D01*
X143251190Y-99324819D02*
X143251190Y-98324819D01*
X143251190Y-98324819D02*
X143155952Y-98467676D01*
X143155952Y-98467676D02*
X143060714Y-98562914D01*
X143060714Y-98562914D02*
X142965476Y-98610533D01*
X101838095Y-140506819D02*
X102409523Y-140506819D01*
X102123809Y-141506819D02*
X102123809Y-140506819D01*
X102742857Y-141506819D02*
X102742857Y-140506819D01*
X102742857Y-140506819D02*
X103123809Y-140506819D01*
X103123809Y-140506819D02*
X103219047Y-140554438D01*
X103219047Y-140554438D02*
X103266666Y-140602057D01*
X103266666Y-140602057D02*
X103314285Y-140697295D01*
X103314285Y-140697295D02*
X103314285Y-140840152D01*
X103314285Y-140840152D02*
X103266666Y-140935390D01*
X103266666Y-140935390D02*
X103219047Y-140983009D01*
X103219047Y-140983009D02*
X103123809Y-141030628D01*
X103123809Y-141030628D02*
X102742857Y-141030628D01*
X104219047Y-140506819D02*
X103742857Y-140506819D01*
X103742857Y-140506819D02*
X103695238Y-140983009D01*
X103695238Y-140983009D02*
X103742857Y-140935390D01*
X103742857Y-140935390D02*
X103838095Y-140887771D01*
X103838095Y-140887771D02*
X104076190Y-140887771D01*
X104076190Y-140887771D02*
X104171428Y-140935390D01*
X104171428Y-140935390D02*
X104219047Y-140983009D01*
X104219047Y-140983009D02*
X104266666Y-141078247D01*
X104266666Y-141078247D02*
X104266666Y-141316342D01*
X104266666Y-141316342D02*
X104219047Y-141411580D01*
X104219047Y-141411580D02*
X104171428Y-141459200D01*
X104171428Y-141459200D02*
X104076190Y-141506819D01*
X104076190Y-141506819D02*
X103838095Y-141506819D01*
X103838095Y-141506819D02*
X103742857Y-141459200D01*
X103742857Y-141459200D02*
X103695238Y-141411580D01*
X118182142Y-107024819D02*
X117848809Y-106548628D01*
X117610714Y-107024819D02*
X117610714Y-106024819D01*
X117610714Y-106024819D02*
X117991666Y-106024819D01*
X117991666Y-106024819D02*
X118086904Y-106072438D01*
X118086904Y-106072438D02*
X118134523Y-106120057D01*
X118134523Y-106120057D02*
X118182142Y-106215295D01*
X118182142Y-106215295D02*
X118182142Y-106358152D01*
X118182142Y-106358152D02*
X118134523Y-106453390D01*
X118134523Y-106453390D02*
X118086904Y-106501009D01*
X118086904Y-106501009D02*
X117991666Y-106548628D01*
X117991666Y-106548628D02*
X117610714Y-106548628D01*
X119134523Y-107024819D02*
X118563095Y-107024819D01*
X118848809Y-107024819D02*
X118848809Y-106024819D01*
X118848809Y-106024819D02*
X118753571Y-106167676D01*
X118753571Y-106167676D02*
X118658333Y-106262914D01*
X118658333Y-106262914D02*
X118563095Y-106310533D01*
X119705952Y-106453390D02*
X119610714Y-106405771D01*
X119610714Y-106405771D02*
X119563095Y-106358152D01*
X119563095Y-106358152D02*
X119515476Y-106262914D01*
X119515476Y-106262914D02*
X119515476Y-106215295D01*
X119515476Y-106215295D02*
X119563095Y-106120057D01*
X119563095Y-106120057D02*
X119610714Y-106072438D01*
X119610714Y-106072438D02*
X119705952Y-106024819D01*
X119705952Y-106024819D02*
X119896428Y-106024819D01*
X119896428Y-106024819D02*
X119991666Y-106072438D01*
X119991666Y-106072438D02*
X120039285Y-106120057D01*
X120039285Y-106120057D02*
X120086904Y-106215295D01*
X120086904Y-106215295D02*
X120086904Y-106262914D01*
X120086904Y-106262914D02*
X120039285Y-106358152D01*
X120039285Y-106358152D02*
X119991666Y-106405771D01*
X119991666Y-106405771D02*
X119896428Y-106453390D01*
X119896428Y-106453390D02*
X119705952Y-106453390D01*
X119705952Y-106453390D02*
X119610714Y-106501009D01*
X119610714Y-106501009D02*
X119563095Y-106548628D01*
X119563095Y-106548628D02*
X119515476Y-106643866D01*
X119515476Y-106643866D02*
X119515476Y-106834342D01*
X119515476Y-106834342D02*
X119563095Y-106929580D01*
X119563095Y-106929580D02*
X119610714Y-106977200D01*
X119610714Y-106977200D02*
X119705952Y-107024819D01*
X119705952Y-107024819D02*
X119896428Y-107024819D01*
X119896428Y-107024819D02*
X119991666Y-106977200D01*
X119991666Y-106977200D02*
X120039285Y-106929580D01*
X120039285Y-106929580D02*
X120086904Y-106834342D01*
X120086904Y-106834342D02*
X120086904Y-106643866D01*
X120086904Y-106643866D02*
X120039285Y-106548628D01*
X120039285Y-106548628D02*
X119991666Y-106501009D01*
X119991666Y-106501009D02*
X119896428Y-106453390D01*
X121684542Y-58289580D02*
X121636923Y-58337200D01*
X121636923Y-58337200D02*
X121494066Y-58384819D01*
X121494066Y-58384819D02*
X121398828Y-58384819D01*
X121398828Y-58384819D02*
X121255971Y-58337200D01*
X121255971Y-58337200D02*
X121160733Y-58241961D01*
X121160733Y-58241961D02*
X121113114Y-58146723D01*
X121113114Y-58146723D02*
X121065495Y-57956247D01*
X121065495Y-57956247D02*
X121065495Y-57813390D01*
X121065495Y-57813390D02*
X121113114Y-57622914D01*
X121113114Y-57622914D02*
X121160733Y-57527676D01*
X121160733Y-57527676D02*
X121255971Y-57432438D01*
X121255971Y-57432438D02*
X121398828Y-57384819D01*
X121398828Y-57384819D02*
X121494066Y-57384819D01*
X121494066Y-57384819D02*
X121636923Y-57432438D01*
X121636923Y-57432438D02*
X121684542Y-57480057D01*
X122065495Y-57480057D02*
X122113114Y-57432438D01*
X122113114Y-57432438D02*
X122208352Y-57384819D01*
X122208352Y-57384819D02*
X122446447Y-57384819D01*
X122446447Y-57384819D02*
X122541685Y-57432438D01*
X122541685Y-57432438D02*
X122589304Y-57480057D01*
X122589304Y-57480057D02*
X122636923Y-57575295D01*
X122636923Y-57575295D02*
X122636923Y-57670533D01*
X122636923Y-57670533D02*
X122589304Y-57813390D01*
X122589304Y-57813390D02*
X122017876Y-58384819D01*
X122017876Y-58384819D02*
X122636923Y-58384819D01*
X123208352Y-57813390D02*
X123113114Y-57765771D01*
X123113114Y-57765771D02*
X123065495Y-57718152D01*
X123065495Y-57718152D02*
X123017876Y-57622914D01*
X123017876Y-57622914D02*
X123017876Y-57575295D01*
X123017876Y-57575295D02*
X123065495Y-57480057D01*
X123065495Y-57480057D02*
X123113114Y-57432438D01*
X123113114Y-57432438D02*
X123208352Y-57384819D01*
X123208352Y-57384819D02*
X123398828Y-57384819D01*
X123398828Y-57384819D02*
X123494066Y-57432438D01*
X123494066Y-57432438D02*
X123541685Y-57480057D01*
X123541685Y-57480057D02*
X123589304Y-57575295D01*
X123589304Y-57575295D02*
X123589304Y-57622914D01*
X123589304Y-57622914D02*
X123541685Y-57718152D01*
X123541685Y-57718152D02*
X123494066Y-57765771D01*
X123494066Y-57765771D02*
X123398828Y-57813390D01*
X123398828Y-57813390D02*
X123208352Y-57813390D01*
X123208352Y-57813390D02*
X123113114Y-57861009D01*
X123113114Y-57861009D02*
X123065495Y-57908628D01*
X123065495Y-57908628D02*
X123017876Y-58003866D01*
X123017876Y-58003866D02*
X123017876Y-58194342D01*
X123017876Y-58194342D02*
X123065495Y-58289580D01*
X123065495Y-58289580D02*
X123113114Y-58337200D01*
X123113114Y-58337200D02*
X123208352Y-58384819D01*
X123208352Y-58384819D02*
X123398828Y-58384819D01*
X123398828Y-58384819D02*
X123494066Y-58337200D01*
X123494066Y-58337200D02*
X123541685Y-58289580D01*
X123541685Y-58289580D02*
X123589304Y-58194342D01*
X123589304Y-58194342D02*
X123589304Y-58003866D01*
X123589304Y-58003866D02*
X123541685Y-57908628D01*
X123541685Y-57908628D02*
X123494066Y-57861009D01*
X123494066Y-57861009D02*
X123398828Y-57813390D01*
X134358333Y-97729580D02*
X134310714Y-97777200D01*
X134310714Y-97777200D02*
X134167857Y-97824819D01*
X134167857Y-97824819D02*
X134072619Y-97824819D01*
X134072619Y-97824819D02*
X133929762Y-97777200D01*
X133929762Y-97777200D02*
X133834524Y-97681961D01*
X133834524Y-97681961D02*
X133786905Y-97586723D01*
X133786905Y-97586723D02*
X133739286Y-97396247D01*
X133739286Y-97396247D02*
X133739286Y-97253390D01*
X133739286Y-97253390D02*
X133786905Y-97062914D01*
X133786905Y-97062914D02*
X133834524Y-96967676D01*
X133834524Y-96967676D02*
X133929762Y-96872438D01*
X133929762Y-96872438D02*
X134072619Y-96824819D01*
X134072619Y-96824819D02*
X134167857Y-96824819D01*
X134167857Y-96824819D02*
X134310714Y-96872438D01*
X134310714Y-96872438D02*
X134358333Y-96920057D01*
X135215476Y-96824819D02*
X135025000Y-96824819D01*
X135025000Y-96824819D02*
X134929762Y-96872438D01*
X134929762Y-96872438D02*
X134882143Y-96920057D01*
X134882143Y-96920057D02*
X134786905Y-97062914D01*
X134786905Y-97062914D02*
X134739286Y-97253390D01*
X134739286Y-97253390D02*
X134739286Y-97634342D01*
X134739286Y-97634342D02*
X134786905Y-97729580D01*
X134786905Y-97729580D02*
X134834524Y-97777200D01*
X134834524Y-97777200D02*
X134929762Y-97824819D01*
X134929762Y-97824819D02*
X135120238Y-97824819D01*
X135120238Y-97824819D02*
X135215476Y-97777200D01*
X135215476Y-97777200D02*
X135263095Y-97729580D01*
X135263095Y-97729580D02*
X135310714Y-97634342D01*
X135310714Y-97634342D02*
X135310714Y-97396247D01*
X135310714Y-97396247D02*
X135263095Y-97301009D01*
X135263095Y-97301009D02*
X135215476Y-97253390D01*
X135215476Y-97253390D02*
X135120238Y-97205771D01*
X135120238Y-97205771D02*
X134929762Y-97205771D01*
X134929762Y-97205771D02*
X134834524Y-97253390D01*
X134834524Y-97253390D02*
X134786905Y-97301009D01*
X134786905Y-97301009D02*
X134739286Y-97396247D01*
X121147042Y-61734819D02*
X120813709Y-61258628D01*
X120575614Y-61734819D02*
X120575614Y-60734819D01*
X120575614Y-60734819D02*
X120956566Y-60734819D01*
X120956566Y-60734819D02*
X121051804Y-60782438D01*
X121051804Y-60782438D02*
X121099423Y-60830057D01*
X121099423Y-60830057D02*
X121147042Y-60925295D01*
X121147042Y-60925295D02*
X121147042Y-61068152D01*
X121147042Y-61068152D02*
X121099423Y-61163390D01*
X121099423Y-61163390D02*
X121051804Y-61211009D01*
X121051804Y-61211009D02*
X120956566Y-61258628D01*
X120956566Y-61258628D02*
X120575614Y-61258628D01*
X121527995Y-60830057D02*
X121575614Y-60782438D01*
X121575614Y-60782438D02*
X121670852Y-60734819D01*
X121670852Y-60734819D02*
X121908947Y-60734819D01*
X121908947Y-60734819D02*
X122004185Y-60782438D01*
X122004185Y-60782438D02*
X122051804Y-60830057D01*
X122051804Y-60830057D02*
X122099423Y-60925295D01*
X122099423Y-60925295D02*
X122099423Y-61020533D01*
X122099423Y-61020533D02*
X122051804Y-61163390D01*
X122051804Y-61163390D02*
X121480376Y-61734819D01*
X121480376Y-61734819D02*
X122099423Y-61734819D01*
X123051804Y-61734819D02*
X122480376Y-61734819D01*
X122766090Y-61734819D02*
X122766090Y-60734819D01*
X122766090Y-60734819D02*
X122670852Y-60877676D01*
X122670852Y-60877676D02*
X122575614Y-60972914D01*
X122575614Y-60972914D02*
X122480376Y-61020533D01*
X132709819Y-76652856D02*
X132233628Y-76986189D01*
X132709819Y-77224284D02*
X131709819Y-77224284D01*
X131709819Y-77224284D02*
X131709819Y-76843332D01*
X131709819Y-76843332D02*
X131757438Y-76748094D01*
X131757438Y-76748094D02*
X131805057Y-76700475D01*
X131805057Y-76700475D02*
X131900295Y-76652856D01*
X131900295Y-76652856D02*
X132043152Y-76652856D01*
X132043152Y-76652856D02*
X132138390Y-76700475D01*
X132138390Y-76700475D02*
X132186009Y-76748094D01*
X132186009Y-76748094D02*
X132233628Y-76843332D01*
X132233628Y-76843332D02*
X132233628Y-77224284D01*
X131709819Y-76319522D02*
X131709819Y-75700475D01*
X131709819Y-75700475D02*
X132090771Y-76033808D01*
X132090771Y-76033808D02*
X132090771Y-75890951D01*
X132090771Y-75890951D02*
X132138390Y-75795713D01*
X132138390Y-75795713D02*
X132186009Y-75748094D01*
X132186009Y-75748094D02*
X132281247Y-75700475D01*
X132281247Y-75700475D02*
X132519342Y-75700475D01*
X132519342Y-75700475D02*
X132614580Y-75748094D01*
X132614580Y-75748094D02*
X132662200Y-75795713D01*
X132662200Y-75795713D02*
X132709819Y-75890951D01*
X132709819Y-75890951D02*
X132709819Y-76176665D01*
X132709819Y-76176665D02*
X132662200Y-76271903D01*
X132662200Y-76271903D02*
X132614580Y-76319522D01*
X132709819Y-74748094D02*
X132709819Y-75319522D01*
X132709819Y-75033808D02*
X131709819Y-75033808D01*
X131709819Y-75033808D02*
X131852676Y-75129046D01*
X131852676Y-75129046D02*
X131947914Y-75224284D01*
X131947914Y-75224284D02*
X131995533Y-75319522D01*
X139629816Y-76652856D02*
X139153625Y-76986189D01*
X139629816Y-77224284D02*
X138629816Y-77224284D01*
X138629816Y-77224284D02*
X138629816Y-76843332D01*
X138629816Y-76843332D02*
X138677435Y-76748094D01*
X138677435Y-76748094D02*
X138725054Y-76700475D01*
X138725054Y-76700475D02*
X138820292Y-76652856D01*
X138820292Y-76652856D02*
X138963149Y-76652856D01*
X138963149Y-76652856D02*
X139058387Y-76700475D01*
X139058387Y-76700475D02*
X139106006Y-76748094D01*
X139106006Y-76748094D02*
X139153625Y-76843332D01*
X139153625Y-76843332D02*
X139153625Y-77224284D01*
X138629816Y-76319522D02*
X138629816Y-75700475D01*
X138629816Y-75700475D02*
X139010768Y-76033808D01*
X139010768Y-76033808D02*
X139010768Y-75890951D01*
X139010768Y-75890951D02*
X139058387Y-75795713D01*
X139058387Y-75795713D02*
X139106006Y-75748094D01*
X139106006Y-75748094D02*
X139201244Y-75700475D01*
X139201244Y-75700475D02*
X139439339Y-75700475D01*
X139439339Y-75700475D02*
X139534577Y-75748094D01*
X139534577Y-75748094D02*
X139582197Y-75795713D01*
X139582197Y-75795713D02*
X139629816Y-75890951D01*
X139629816Y-75890951D02*
X139629816Y-76176665D01*
X139629816Y-76176665D02*
X139582197Y-76271903D01*
X139582197Y-76271903D02*
X139534577Y-76319522D01*
X138629816Y-75367141D02*
X138629816Y-74748094D01*
X138629816Y-74748094D02*
X139010768Y-75081427D01*
X139010768Y-75081427D02*
X139010768Y-74938570D01*
X139010768Y-74938570D02*
X139058387Y-74843332D01*
X139058387Y-74843332D02*
X139106006Y-74795713D01*
X139106006Y-74795713D02*
X139201244Y-74748094D01*
X139201244Y-74748094D02*
X139439339Y-74748094D01*
X139439339Y-74748094D02*
X139534577Y-74795713D01*
X139534577Y-74795713D02*
X139582197Y-74843332D01*
X139582197Y-74843332D02*
X139629816Y-74938570D01*
X139629816Y-74938570D02*
X139629816Y-75224284D01*
X139629816Y-75224284D02*
X139582197Y-75319522D01*
X139582197Y-75319522D02*
X139534577Y-75367141D01*
X118182142Y-88837319D02*
X117848809Y-88361128D01*
X117610714Y-88837319D02*
X117610714Y-87837319D01*
X117610714Y-87837319D02*
X117991666Y-87837319D01*
X117991666Y-87837319D02*
X118086904Y-87884938D01*
X118086904Y-87884938D02*
X118134523Y-87932557D01*
X118134523Y-87932557D02*
X118182142Y-88027795D01*
X118182142Y-88027795D02*
X118182142Y-88170652D01*
X118182142Y-88170652D02*
X118134523Y-88265890D01*
X118134523Y-88265890D02*
X118086904Y-88313509D01*
X118086904Y-88313509D02*
X117991666Y-88361128D01*
X117991666Y-88361128D02*
X117610714Y-88361128D01*
X119134523Y-88837319D02*
X118563095Y-88837319D01*
X118848809Y-88837319D02*
X118848809Y-87837319D01*
X118848809Y-87837319D02*
X118753571Y-87980176D01*
X118753571Y-87980176D02*
X118658333Y-88075414D01*
X118658333Y-88075414D02*
X118563095Y-88123033D01*
X119753571Y-87837319D02*
X119848809Y-87837319D01*
X119848809Y-87837319D02*
X119944047Y-87884938D01*
X119944047Y-87884938D02*
X119991666Y-87932557D01*
X119991666Y-87932557D02*
X120039285Y-88027795D01*
X120039285Y-88027795D02*
X120086904Y-88218271D01*
X120086904Y-88218271D02*
X120086904Y-88456366D01*
X120086904Y-88456366D02*
X120039285Y-88646842D01*
X120039285Y-88646842D02*
X119991666Y-88742080D01*
X119991666Y-88742080D02*
X119944047Y-88789700D01*
X119944047Y-88789700D02*
X119848809Y-88837319D01*
X119848809Y-88837319D02*
X119753571Y-88837319D01*
X119753571Y-88837319D02*
X119658333Y-88789700D01*
X119658333Y-88789700D02*
X119610714Y-88742080D01*
X119610714Y-88742080D02*
X119563095Y-88646842D01*
X119563095Y-88646842D02*
X119515476Y-88456366D01*
X119515476Y-88456366D02*
X119515476Y-88218271D01*
X119515476Y-88218271D02*
X119563095Y-88027795D01*
X119563095Y-88027795D02*
X119610714Y-87932557D01*
X119610714Y-87932557D02*
X119658333Y-87884938D01*
X119658333Y-87884938D02*
X119753571Y-87837319D01*
X149074819Y-85011357D02*
X148598628Y-85344690D01*
X149074819Y-85582785D02*
X148074819Y-85582785D01*
X148074819Y-85582785D02*
X148074819Y-85201833D01*
X148074819Y-85201833D02*
X148122438Y-85106595D01*
X148122438Y-85106595D02*
X148170057Y-85058976D01*
X148170057Y-85058976D02*
X148265295Y-85011357D01*
X148265295Y-85011357D02*
X148408152Y-85011357D01*
X148408152Y-85011357D02*
X148503390Y-85058976D01*
X148503390Y-85058976D02*
X148551009Y-85106595D01*
X148551009Y-85106595D02*
X148598628Y-85201833D01*
X148598628Y-85201833D02*
X148598628Y-85582785D01*
X148408152Y-84154214D02*
X149074819Y-84154214D01*
X148027200Y-84392309D02*
X148741485Y-84630404D01*
X148741485Y-84630404D02*
X148741485Y-84011357D01*
X148074819Y-83439928D02*
X148074819Y-83344690D01*
X148074819Y-83344690D02*
X148122438Y-83249452D01*
X148122438Y-83249452D02*
X148170057Y-83201833D01*
X148170057Y-83201833D02*
X148265295Y-83154214D01*
X148265295Y-83154214D02*
X148455771Y-83106595D01*
X148455771Y-83106595D02*
X148693866Y-83106595D01*
X148693866Y-83106595D02*
X148884342Y-83154214D01*
X148884342Y-83154214D02*
X148979580Y-83201833D01*
X148979580Y-83201833D02*
X149027200Y-83249452D01*
X149027200Y-83249452D02*
X149074819Y-83344690D01*
X149074819Y-83344690D02*
X149074819Y-83439928D01*
X149074819Y-83439928D02*
X149027200Y-83535166D01*
X149027200Y-83535166D02*
X148979580Y-83582785D01*
X148979580Y-83582785D02*
X148884342Y-83630404D01*
X148884342Y-83630404D02*
X148693866Y-83678023D01*
X148693866Y-83678023D02*
X148455771Y-83678023D01*
X148455771Y-83678023D02*
X148265295Y-83630404D01*
X148265295Y-83630404D02*
X148170057Y-83582785D01*
X148170057Y-83582785D02*
X148122438Y-83535166D01*
X148122438Y-83535166D02*
X148074819Y-83439928D01*
X143182142Y-97729580D02*
X143134523Y-97777200D01*
X143134523Y-97777200D02*
X142991666Y-97824819D01*
X142991666Y-97824819D02*
X142896428Y-97824819D01*
X142896428Y-97824819D02*
X142753571Y-97777200D01*
X142753571Y-97777200D02*
X142658333Y-97681961D01*
X142658333Y-97681961D02*
X142610714Y-97586723D01*
X142610714Y-97586723D02*
X142563095Y-97396247D01*
X142563095Y-97396247D02*
X142563095Y-97253390D01*
X142563095Y-97253390D02*
X142610714Y-97062914D01*
X142610714Y-97062914D02*
X142658333Y-96967676D01*
X142658333Y-96967676D02*
X142753571Y-96872438D01*
X142753571Y-96872438D02*
X142896428Y-96824819D01*
X142896428Y-96824819D02*
X142991666Y-96824819D01*
X142991666Y-96824819D02*
X143134523Y-96872438D01*
X143134523Y-96872438D02*
X143182142Y-96920057D01*
X144134523Y-97824819D02*
X143563095Y-97824819D01*
X143848809Y-97824819D02*
X143848809Y-96824819D01*
X143848809Y-96824819D02*
X143753571Y-96967676D01*
X143753571Y-96967676D02*
X143658333Y-97062914D01*
X143658333Y-97062914D02*
X143563095Y-97110533D01*
X144515476Y-96920057D02*
X144563095Y-96872438D01*
X144563095Y-96872438D02*
X144658333Y-96824819D01*
X144658333Y-96824819D02*
X144896428Y-96824819D01*
X144896428Y-96824819D02*
X144991666Y-96872438D01*
X144991666Y-96872438D02*
X145039285Y-96920057D01*
X145039285Y-96920057D02*
X145086904Y-97015295D01*
X145086904Y-97015295D02*
X145086904Y-97110533D01*
X145086904Y-97110533D02*
X145039285Y-97253390D01*
X145039285Y-97253390D02*
X144467857Y-97824819D01*
X144467857Y-97824819D02*
X145086904Y-97824819D01*
X102988095Y-102554819D02*
X102988095Y-101554819D01*
X102988095Y-102031009D02*
X103559523Y-102031009D01*
X103559523Y-102554819D02*
X103559523Y-101554819D01*
X104559523Y-102554819D02*
X103988095Y-102554819D01*
X104273809Y-102554819D02*
X104273809Y-101554819D01*
X104273809Y-101554819D02*
X104178571Y-101697676D01*
X104178571Y-101697676D02*
X104083333Y-101792914D01*
X104083333Y-101792914D02*
X103988095Y-101840533D01*
X118658333Y-66024819D02*
X118325000Y-65548628D01*
X118086905Y-66024819D02*
X118086905Y-65024819D01*
X118086905Y-65024819D02*
X118467857Y-65024819D01*
X118467857Y-65024819D02*
X118563095Y-65072438D01*
X118563095Y-65072438D02*
X118610714Y-65120057D01*
X118610714Y-65120057D02*
X118658333Y-65215295D01*
X118658333Y-65215295D02*
X118658333Y-65358152D01*
X118658333Y-65358152D02*
X118610714Y-65453390D01*
X118610714Y-65453390D02*
X118563095Y-65501009D01*
X118563095Y-65501009D02*
X118467857Y-65548628D01*
X118467857Y-65548628D02*
X118086905Y-65548628D01*
X119610714Y-66024819D02*
X119039286Y-66024819D01*
X119325000Y-66024819D02*
X119325000Y-65024819D01*
X119325000Y-65024819D02*
X119229762Y-65167676D01*
X119229762Y-65167676D02*
X119134524Y-65262914D01*
X119134524Y-65262914D02*
X119039286Y-65310533D01*
X87211905Y-130406819D02*
X87783333Y-130406819D01*
X87497619Y-131406819D02*
X87497619Y-130406819D01*
X88116667Y-131406819D02*
X88116667Y-130406819D01*
X88116667Y-130406819D02*
X88497619Y-130406819D01*
X88497619Y-130406819D02*
X88592857Y-130454438D01*
X88592857Y-130454438D02*
X88640476Y-130502057D01*
X88640476Y-130502057D02*
X88688095Y-130597295D01*
X88688095Y-130597295D02*
X88688095Y-130740152D01*
X88688095Y-130740152D02*
X88640476Y-130835390D01*
X88640476Y-130835390D02*
X88592857Y-130883009D01*
X88592857Y-130883009D02*
X88497619Y-130930628D01*
X88497619Y-130930628D02*
X88116667Y-130930628D01*
X89640476Y-131406819D02*
X89069048Y-131406819D01*
X89354762Y-131406819D02*
X89354762Y-130406819D01*
X89354762Y-130406819D02*
X89259524Y-130549676D01*
X89259524Y-130549676D02*
X89164286Y-130644914D01*
X89164286Y-130644914D02*
X89069048Y-130692533D01*
X90592857Y-131406819D02*
X90021429Y-131406819D01*
X90307143Y-131406819D02*
X90307143Y-130406819D01*
X90307143Y-130406819D02*
X90211905Y-130549676D01*
X90211905Y-130549676D02*
X90116667Y-130644914D01*
X90116667Y-130644914D02*
X90021429Y-130692533D01*
X135908333Y-99229580D02*
X135860714Y-99277200D01*
X135860714Y-99277200D02*
X135717857Y-99324819D01*
X135717857Y-99324819D02*
X135622619Y-99324819D01*
X135622619Y-99324819D02*
X135479762Y-99277200D01*
X135479762Y-99277200D02*
X135384524Y-99181961D01*
X135384524Y-99181961D02*
X135336905Y-99086723D01*
X135336905Y-99086723D02*
X135289286Y-98896247D01*
X135289286Y-98896247D02*
X135289286Y-98753390D01*
X135289286Y-98753390D02*
X135336905Y-98562914D01*
X135336905Y-98562914D02*
X135384524Y-98467676D01*
X135384524Y-98467676D02*
X135479762Y-98372438D01*
X135479762Y-98372438D02*
X135622619Y-98324819D01*
X135622619Y-98324819D02*
X135717857Y-98324819D01*
X135717857Y-98324819D02*
X135860714Y-98372438D01*
X135860714Y-98372438D02*
X135908333Y-98420057D01*
X136241667Y-98324819D02*
X136908333Y-98324819D01*
X136908333Y-98324819D02*
X136479762Y-99324819D01*
X112857142Y-85324819D02*
X112523809Y-84848628D01*
X112285714Y-85324819D02*
X112285714Y-84324819D01*
X112285714Y-84324819D02*
X112666666Y-84324819D01*
X112666666Y-84324819D02*
X112761904Y-84372438D01*
X112761904Y-84372438D02*
X112809523Y-84420057D01*
X112809523Y-84420057D02*
X112857142Y-84515295D01*
X112857142Y-84515295D02*
X112857142Y-84658152D01*
X112857142Y-84658152D02*
X112809523Y-84753390D01*
X112809523Y-84753390D02*
X112761904Y-84801009D01*
X112761904Y-84801009D02*
X112666666Y-84848628D01*
X112666666Y-84848628D02*
X112285714Y-84848628D01*
X113809523Y-85324819D02*
X113238095Y-85324819D01*
X113523809Y-85324819D02*
X113523809Y-84324819D01*
X113523809Y-84324819D02*
X113428571Y-84467676D01*
X113428571Y-84467676D02*
X113333333Y-84562914D01*
X113333333Y-84562914D02*
X113238095Y-84610533D01*
X114761904Y-85324819D02*
X114190476Y-85324819D01*
X114476190Y-85324819D02*
X114476190Y-84324819D01*
X114476190Y-84324819D02*
X114380952Y-84467676D01*
X114380952Y-84467676D02*
X114285714Y-84562914D01*
X114285714Y-84562914D02*
X114190476Y-84610533D01*
X149257142Y-82803318D02*
X148923809Y-82327127D01*
X148685714Y-82803318D02*
X148685714Y-81803318D01*
X148685714Y-81803318D02*
X149066666Y-81803318D01*
X149066666Y-81803318D02*
X149161904Y-81850937D01*
X149161904Y-81850937D02*
X149209523Y-81898556D01*
X149209523Y-81898556D02*
X149257142Y-81993794D01*
X149257142Y-81993794D02*
X149257142Y-82136651D01*
X149257142Y-82136651D02*
X149209523Y-82231889D01*
X149209523Y-82231889D02*
X149161904Y-82279508D01*
X149161904Y-82279508D02*
X149066666Y-82327127D01*
X149066666Y-82327127D02*
X148685714Y-82327127D01*
X150114285Y-82136651D02*
X150114285Y-82803318D01*
X149876190Y-81755699D02*
X149638095Y-82469984D01*
X149638095Y-82469984D02*
X150257142Y-82469984D01*
X150542857Y-81803318D02*
X151161904Y-81803318D01*
X151161904Y-81803318D02*
X150828571Y-82184270D01*
X150828571Y-82184270D02*
X150971428Y-82184270D01*
X150971428Y-82184270D02*
X151066666Y-82231889D01*
X151066666Y-82231889D02*
X151114285Y-82279508D01*
X151114285Y-82279508D02*
X151161904Y-82374746D01*
X151161904Y-82374746D02*
X151161904Y-82612841D01*
X151161904Y-82612841D02*
X151114285Y-82708079D01*
X151114285Y-82708079D02*
X151066666Y-82755699D01*
X151066666Y-82755699D02*
X150971428Y-82803318D01*
X150971428Y-82803318D02*
X150685714Y-82803318D01*
X150685714Y-82803318D02*
X150590476Y-82755699D01*
X150590476Y-82755699D02*
X150542857Y-82708079D01*
X137458333Y-97729580D02*
X137410714Y-97777200D01*
X137410714Y-97777200D02*
X137267857Y-97824819D01*
X137267857Y-97824819D02*
X137172619Y-97824819D01*
X137172619Y-97824819D02*
X137029762Y-97777200D01*
X137029762Y-97777200D02*
X136934524Y-97681961D01*
X136934524Y-97681961D02*
X136886905Y-97586723D01*
X136886905Y-97586723D02*
X136839286Y-97396247D01*
X136839286Y-97396247D02*
X136839286Y-97253390D01*
X136839286Y-97253390D02*
X136886905Y-97062914D01*
X136886905Y-97062914D02*
X136934524Y-96967676D01*
X136934524Y-96967676D02*
X137029762Y-96872438D01*
X137029762Y-96872438D02*
X137172619Y-96824819D01*
X137172619Y-96824819D02*
X137267857Y-96824819D01*
X137267857Y-96824819D02*
X137410714Y-96872438D01*
X137410714Y-96872438D02*
X137458333Y-96920057D01*
X138029762Y-97253390D02*
X137934524Y-97205771D01*
X137934524Y-97205771D02*
X137886905Y-97158152D01*
X137886905Y-97158152D02*
X137839286Y-97062914D01*
X137839286Y-97062914D02*
X137839286Y-97015295D01*
X137839286Y-97015295D02*
X137886905Y-96920057D01*
X137886905Y-96920057D02*
X137934524Y-96872438D01*
X137934524Y-96872438D02*
X138029762Y-96824819D01*
X138029762Y-96824819D02*
X138220238Y-96824819D01*
X138220238Y-96824819D02*
X138315476Y-96872438D01*
X138315476Y-96872438D02*
X138363095Y-96920057D01*
X138363095Y-96920057D02*
X138410714Y-97015295D01*
X138410714Y-97015295D02*
X138410714Y-97062914D01*
X138410714Y-97062914D02*
X138363095Y-97158152D01*
X138363095Y-97158152D02*
X138315476Y-97205771D01*
X138315476Y-97205771D02*
X138220238Y-97253390D01*
X138220238Y-97253390D02*
X138029762Y-97253390D01*
X138029762Y-97253390D02*
X137934524Y-97301009D01*
X137934524Y-97301009D02*
X137886905Y-97348628D01*
X137886905Y-97348628D02*
X137839286Y-97443866D01*
X137839286Y-97443866D02*
X137839286Y-97634342D01*
X137839286Y-97634342D02*
X137886905Y-97729580D01*
X137886905Y-97729580D02*
X137934524Y-97777200D01*
X137934524Y-97777200D02*
X138029762Y-97824819D01*
X138029762Y-97824819D02*
X138220238Y-97824819D01*
X138220238Y-97824819D02*
X138315476Y-97777200D01*
X138315476Y-97777200D02*
X138363095Y-97729580D01*
X138363095Y-97729580D02*
X138410714Y-97634342D01*
X138410714Y-97634342D02*
X138410714Y-97443866D01*
X138410714Y-97443866D02*
X138363095Y-97348628D01*
X138363095Y-97348628D02*
X138315476Y-97301009D01*
X138315476Y-97301009D02*
X138220238Y-97253390D01*
X143166669Y-63954818D02*
X143166669Y-64669103D01*
X143166669Y-64669103D02*
X143119050Y-64811960D01*
X143119050Y-64811960D02*
X143023812Y-64907199D01*
X143023812Y-64907199D02*
X142880955Y-64954818D01*
X142880955Y-64954818D02*
X142785717Y-64954818D01*
X143547622Y-63954818D02*
X144166669Y-63954818D01*
X144166669Y-63954818D02*
X143833336Y-64335770D01*
X143833336Y-64335770D02*
X143976193Y-64335770D01*
X143976193Y-64335770D02*
X144071431Y-64383389D01*
X144071431Y-64383389D02*
X144119050Y-64431008D01*
X144119050Y-64431008D02*
X144166669Y-64526246D01*
X144166669Y-64526246D02*
X144166669Y-64764341D01*
X144166669Y-64764341D02*
X144119050Y-64859579D01*
X144119050Y-64859579D02*
X144071431Y-64907199D01*
X144071431Y-64907199D02*
X143976193Y-64954818D01*
X143976193Y-64954818D02*
X143690479Y-64954818D01*
X143690479Y-64954818D02*
X143595241Y-64907199D01*
X143595241Y-64907199D02*
X143547622Y-64859579D01*
X118182142Y-98087319D02*
X117848809Y-97611128D01*
X117610714Y-98087319D02*
X117610714Y-97087319D01*
X117610714Y-97087319D02*
X117991666Y-97087319D01*
X117991666Y-97087319D02*
X118086904Y-97134938D01*
X118086904Y-97134938D02*
X118134523Y-97182557D01*
X118134523Y-97182557D02*
X118182142Y-97277795D01*
X118182142Y-97277795D02*
X118182142Y-97420652D01*
X118182142Y-97420652D02*
X118134523Y-97515890D01*
X118134523Y-97515890D02*
X118086904Y-97563509D01*
X118086904Y-97563509D02*
X117991666Y-97611128D01*
X117991666Y-97611128D02*
X117610714Y-97611128D01*
X119134523Y-98087319D02*
X118563095Y-98087319D01*
X118848809Y-98087319D02*
X118848809Y-97087319D01*
X118848809Y-97087319D02*
X118753571Y-97230176D01*
X118753571Y-97230176D02*
X118658333Y-97325414D01*
X118658333Y-97325414D02*
X118563095Y-97373033D01*
X119991666Y-97420652D02*
X119991666Y-98087319D01*
X119753571Y-97039700D02*
X119515476Y-97753985D01*
X119515476Y-97753985D02*
X120134523Y-97753985D01*
X118182142Y-93462319D02*
X117848809Y-92986128D01*
X117610714Y-93462319D02*
X117610714Y-92462319D01*
X117610714Y-92462319D02*
X117991666Y-92462319D01*
X117991666Y-92462319D02*
X118086904Y-92509938D01*
X118086904Y-92509938D02*
X118134523Y-92557557D01*
X118134523Y-92557557D02*
X118182142Y-92652795D01*
X118182142Y-92652795D02*
X118182142Y-92795652D01*
X118182142Y-92795652D02*
X118134523Y-92890890D01*
X118134523Y-92890890D02*
X118086904Y-92938509D01*
X118086904Y-92938509D02*
X117991666Y-92986128D01*
X117991666Y-92986128D02*
X117610714Y-92986128D01*
X119134523Y-93462319D02*
X118563095Y-93462319D01*
X118848809Y-93462319D02*
X118848809Y-92462319D01*
X118848809Y-92462319D02*
X118753571Y-92605176D01*
X118753571Y-92605176D02*
X118658333Y-92700414D01*
X118658333Y-92700414D02*
X118563095Y-92748033D01*
X119515476Y-92557557D02*
X119563095Y-92509938D01*
X119563095Y-92509938D02*
X119658333Y-92462319D01*
X119658333Y-92462319D02*
X119896428Y-92462319D01*
X119896428Y-92462319D02*
X119991666Y-92509938D01*
X119991666Y-92509938D02*
X120039285Y-92557557D01*
X120039285Y-92557557D02*
X120086904Y-92652795D01*
X120086904Y-92652795D02*
X120086904Y-92748033D01*
X120086904Y-92748033D02*
X120039285Y-92890890D01*
X120039285Y-92890890D02*
X119467857Y-93462319D01*
X119467857Y-93462319D02*
X120086904Y-93462319D01*
X142197142Y-81109580D02*
X142149523Y-81157200D01*
X142149523Y-81157200D02*
X142006666Y-81204819D01*
X142006666Y-81204819D02*
X141911428Y-81204819D01*
X141911428Y-81204819D02*
X141768571Y-81157200D01*
X141768571Y-81157200D02*
X141673333Y-81061961D01*
X141673333Y-81061961D02*
X141625714Y-80966723D01*
X141625714Y-80966723D02*
X141578095Y-80776247D01*
X141578095Y-80776247D02*
X141578095Y-80633390D01*
X141578095Y-80633390D02*
X141625714Y-80442914D01*
X141625714Y-80442914D02*
X141673333Y-80347676D01*
X141673333Y-80347676D02*
X141768571Y-80252438D01*
X141768571Y-80252438D02*
X141911428Y-80204819D01*
X141911428Y-80204819D02*
X142006666Y-80204819D01*
X142006666Y-80204819D02*
X142149523Y-80252438D01*
X142149523Y-80252438D02*
X142197142Y-80300057D01*
X142578095Y-80300057D02*
X142625714Y-80252438D01*
X142625714Y-80252438D02*
X142720952Y-80204819D01*
X142720952Y-80204819D02*
X142959047Y-80204819D01*
X142959047Y-80204819D02*
X143054285Y-80252438D01*
X143054285Y-80252438D02*
X143101904Y-80300057D01*
X143101904Y-80300057D02*
X143149523Y-80395295D01*
X143149523Y-80395295D02*
X143149523Y-80490533D01*
X143149523Y-80490533D02*
X143101904Y-80633390D01*
X143101904Y-80633390D02*
X142530476Y-81204819D01*
X142530476Y-81204819D02*
X143149523Y-81204819D01*
X144054285Y-80204819D02*
X143578095Y-80204819D01*
X143578095Y-80204819D02*
X143530476Y-80681009D01*
X143530476Y-80681009D02*
X143578095Y-80633390D01*
X143578095Y-80633390D02*
X143673333Y-80585771D01*
X143673333Y-80585771D02*
X143911428Y-80585771D01*
X143911428Y-80585771D02*
X144006666Y-80633390D01*
X144006666Y-80633390D02*
X144054285Y-80681009D01*
X144054285Y-80681009D02*
X144101904Y-80776247D01*
X144101904Y-80776247D02*
X144101904Y-81014342D01*
X144101904Y-81014342D02*
X144054285Y-81109580D01*
X144054285Y-81109580D02*
X144006666Y-81157200D01*
X144006666Y-81157200D02*
X143911428Y-81204819D01*
X143911428Y-81204819D02*
X143673333Y-81204819D01*
X143673333Y-81204819D02*
X143578095Y-81157200D01*
X143578095Y-81157200D02*
X143530476Y-81109580D01*
X146554819Y-76652857D02*
X146078628Y-76986190D01*
X146554819Y-77224285D02*
X145554819Y-77224285D01*
X145554819Y-77224285D02*
X145554819Y-76843333D01*
X145554819Y-76843333D02*
X145602438Y-76748095D01*
X145602438Y-76748095D02*
X145650057Y-76700476D01*
X145650057Y-76700476D02*
X145745295Y-76652857D01*
X145745295Y-76652857D02*
X145888152Y-76652857D01*
X145888152Y-76652857D02*
X145983390Y-76700476D01*
X145983390Y-76700476D02*
X146031009Y-76748095D01*
X146031009Y-76748095D02*
X146078628Y-76843333D01*
X146078628Y-76843333D02*
X146078628Y-77224285D01*
X145554819Y-76319523D02*
X145554819Y-75700476D01*
X145554819Y-75700476D02*
X145935771Y-76033809D01*
X145935771Y-76033809D02*
X145935771Y-75890952D01*
X145935771Y-75890952D02*
X145983390Y-75795714D01*
X145983390Y-75795714D02*
X146031009Y-75748095D01*
X146031009Y-75748095D02*
X146126247Y-75700476D01*
X146126247Y-75700476D02*
X146364342Y-75700476D01*
X146364342Y-75700476D02*
X146459580Y-75748095D01*
X146459580Y-75748095D02*
X146507200Y-75795714D01*
X146507200Y-75795714D02*
X146554819Y-75890952D01*
X146554819Y-75890952D02*
X146554819Y-76176666D01*
X146554819Y-76176666D02*
X146507200Y-76271904D01*
X146507200Y-76271904D02*
X146459580Y-76319523D01*
X145554819Y-74795714D02*
X145554819Y-75271904D01*
X145554819Y-75271904D02*
X146031009Y-75319523D01*
X146031009Y-75319523D02*
X145983390Y-75271904D01*
X145983390Y-75271904D02*
X145935771Y-75176666D01*
X145935771Y-75176666D02*
X145935771Y-74938571D01*
X145935771Y-74938571D02*
X145983390Y-74843333D01*
X145983390Y-74843333D02*
X146031009Y-74795714D01*
X146031009Y-74795714D02*
X146126247Y-74748095D01*
X146126247Y-74748095D02*
X146364342Y-74748095D01*
X146364342Y-74748095D02*
X146459580Y-74795714D01*
X146459580Y-74795714D02*
X146507200Y-74843333D01*
X146507200Y-74843333D02*
X146554819Y-74938571D01*
X146554819Y-74938571D02*
X146554819Y-75176666D01*
X146554819Y-75176666D02*
X146507200Y-75271904D01*
X146507200Y-75271904D02*
X146459580Y-75319523D01*
X137857142Y-78679580D02*
X137809523Y-78727200D01*
X137809523Y-78727200D02*
X137666666Y-78774819D01*
X137666666Y-78774819D02*
X137571428Y-78774819D01*
X137571428Y-78774819D02*
X137428571Y-78727200D01*
X137428571Y-78727200D02*
X137333333Y-78631961D01*
X137333333Y-78631961D02*
X137285714Y-78536723D01*
X137285714Y-78536723D02*
X137238095Y-78346247D01*
X137238095Y-78346247D02*
X137238095Y-78203390D01*
X137238095Y-78203390D02*
X137285714Y-78012914D01*
X137285714Y-78012914D02*
X137333333Y-77917676D01*
X137333333Y-77917676D02*
X137428571Y-77822438D01*
X137428571Y-77822438D02*
X137571428Y-77774819D01*
X137571428Y-77774819D02*
X137666666Y-77774819D01*
X137666666Y-77774819D02*
X137809523Y-77822438D01*
X137809523Y-77822438D02*
X137857142Y-77870057D01*
X138238095Y-77870057D02*
X138285714Y-77822438D01*
X138285714Y-77822438D02*
X138380952Y-77774819D01*
X138380952Y-77774819D02*
X138619047Y-77774819D01*
X138619047Y-77774819D02*
X138714285Y-77822438D01*
X138714285Y-77822438D02*
X138761904Y-77870057D01*
X138761904Y-77870057D02*
X138809523Y-77965295D01*
X138809523Y-77965295D02*
X138809523Y-78060533D01*
X138809523Y-78060533D02*
X138761904Y-78203390D01*
X138761904Y-78203390D02*
X138190476Y-78774819D01*
X138190476Y-78774819D02*
X138809523Y-78774819D01*
X139761904Y-78774819D02*
X139190476Y-78774819D01*
X139476190Y-78774819D02*
X139476190Y-77774819D01*
X139476190Y-77774819D02*
X139380952Y-77917676D01*
X139380952Y-77917676D02*
X139285714Y-78012914D01*
X139285714Y-78012914D02*
X139190476Y-78060533D01*
X93738095Y-140506819D02*
X94309523Y-140506819D01*
X94023809Y-141506819D02*
X94023809Y-140506819D01*
X94642857Y-141506819D02*
X94642857Y-140506819D01*
X94642857Y-140506819D02*
X95023809Y-140506819D01*
X95023809Y-140506819D02*
X95119047Y-140554438D01*
X95119047Y-140554438D02*
X95166666Y-140602057D01*
X95166666Y-140602057D02*
X95214285Y-140697295D01*
X95214285Y-140697295D02*
X95214285Y-140840152D01*
X95214285Y-140840152D02*
X95166666Y-140935390D01*
X95166666Y-140935390D02*
X95119047Y-140983009D01*
X95119047Y-140983009D02*
X95023809Y-141030628D01*
X95023809Y-141030628D02*
X94642857Y-141030628D01*
X96166666Y-141506819D02*
X95595238Y-141506819D01*
X95880952Y-141506819D02*
X95880952Y-140506819D01*
X95880952Y-140506819D02*
X95785714Y-140649676D01*
X95785714Y-140649676D02*
X95690476Y-140744914D01*
X95690476Y-140744914D02*
X95595238Y-140792533D01*
X99359481Y-87506266D02*
X98645196Y-87506266D01*
X98645196Y-87506266D02*
X98502339Y-87458647D01*
X98502339Y-87458647D02*
X98407101Y-87363409D01*
X98407101Y-87363409D02*
X98359481Y-87220552D01*
X98359481Y-87220552D02*
X98359481Y-87125314D01*
X99026148Y-88411028D02*
X98359481Y-88411028D01*
X99407101Y-88172933D02*
X98692815Y-87934838D01*
X98692815Y-87934838D02*
X98692815Y-88553885D01*
X152144819Y-76967856D02*
X151668628Y-77301189D01*
X152144819Y-77539284D02*
X151144819Y-77539284D01*
X151144819Y-77539284D02*
X151144819Y-77158332D01*
X151144819Y-77158332D02*
X151192438Y-77063094D01*
X151192438Y-77063094D02*
X151240057Y-77015475D01*
X151240057Y-77015475D02*
X151335295Y-76967856D01*
X151335295Y-76967856D02*
X151478152Y-76967856D01*
X151478152Y-76967856D02*
X151573390Y-77015475D01*
X151573390Y-77015475D02*
X151621009Y-77063094D01*
X151621009Y-77063094D02*
X151668628Y-77158332D01*
X151668628Y-77158332D02*
X151668628Y-77539284D01*
X151240057Y-76586903D02*
X151192438Y-76539284D01*
X151192438Y-76539284D02*
X151144819Y-76444046D01*
X151144819Y-76444046D02*
X151144819Y-76205951D01*
X151144819Y-76205951D02*
X151192438Y-76110713D01*
X151192438Y-76110713D02*
X151240057Y-76063094D01*
X151240057Y-76063094D02*
X151335295Y-76015475D01*
X151335295Y-76015475D02*
X151430533Y-76015475D01*
X151430533Y-76015475D02*
X151573390Y-76063094D01*
X151573390Y-76063094D02*
X152144819Y-76634522D01*
X152144819Y-76634522D02*
X152144819Y-76015475D01*
X152144819Y-75539284D02*
X152144819Y-75348808D01*
X152144819Y-75348808D02*
X152097200Y-75253570D01*
X152097200Y-75253570D02*
X152049580Y-75205951D01*
X152049580Y-75205951D02*
X151906723Y-75110713D01*
X151906723Y-75110713D02*
X151716247Y-75063094D01*
X151716247Y-75063094D02*
X151335295Y-75063094D01*
X151335295Y-75063094D02*
X151240057Y-75110713D01*
X151240057Y-75110713D02*
X151192438Y-75158332D01*
X151192438Y-75158332D02*
X151144819Y-75253570D01*
X151144819Y-75253570D02*
X151144819Y-75444046D01*
X151144819Y-75444046D02*
X151192438Y-75539284D01*
X151192438Y-75539284D02*
X151240057Y-75586903D01*
X151240057Y-75586903D02*
X151335295Y-75634522D01*
X151335295Y-75634522D02*
X151573390Y-75634522D01*
X151573390Y-75634522D02*
X151668628Y-75586903D01*
X151668628Y-75586903D02*
X151716247Y-75539284D01*
X151716247Y-75539284D02*
X151763866Y-75444046D01*
X151763866Y-75444046D02*
X151763866Y-75253570D01*
X151763866Y-75253570D02*
X151716247Y-75158332D01*
X151716247Y-75158332D02*
X151668628Y-75110713D01*
X151668628Y-75110713D02*
X151573390Y-75063094D01*
X93738095Y-130406819D02*
X94309523Y-130406819D01*
X94023809Y-131406819D02*
X94023809Y-130406819D01*
X94642857Y-131406819D02*
X94642857Y-130406819D01*
X94642857Y-130406819D02*
X95023809Y-130406819D01*
X95023809Y-130406819D02*
X95119047Y-130454438D01*
X95119047Y-130454438D02*
X95166666Y-130502057D01*
X95166666Y-130502057D02*
X95214285Y-130597295D01*
X95214285Y-130597295D02*
X95214285Y-130740152D01*
X95214285Y-130740152D02*
X95166666Y-130835390D01*
X95166666Y-130835390D02*
X95119047Y-130883009D01*
X95119047Y-130883009D02*
X95023809Y-130930628D01*
X95023809Y-130930628D02*
X94642857Y-130930628D01*
X95690476Y-131406819D02*
X95880952Y-131406819D01*
X95880952Y-131406819D02*
X95976190Y-131359200D01*
X95976190Y-131359200D02*
X96023809Y-131311580D01*
X96023809Y-131311580D02*
X96119047Y-131168723D01*
X96119047Y-131168723D02*
X96166666Y-130978247D01*
X96166666Y-130978247D02*
X96166666Y-130597295D01*
X96166666Y-130597295D02*
X96119047Y-130502057D01*
X96119047Y-130502057D02*
X96071428Y-130454438D01*
X96071428Y-130454438D02*
X95976190Y-130406819D01*
X95976190Y-130406819D02*
X95785714Y-130406819D01*
X95785714Y-130406819D02*
X95690476Y-130454438D01*
X95690476Y-130454438D02*
X95642857Y-130502057D01*
X95642857Y-130502057D02*
X95595238Y-130597295D01*
X95595238Y-130597295D02*
X95595238Y-130835390D01*
X95595238Y-130835390D02*
X95642857Y-130930628D01*
X95642857Y-130930628D02*
X95690476Y-130978247D01*
X95690476Y-130978247D02*
X95785714Y-131025866D01*
X95785714Y-131025866D02*
X95976190Y-131025866D01*
X95976190Y-131025866D02*
X96071428Y-130978247D01*
X96071428Y-130978247D02*
X96119047Y-130930628D01*
X96119047Y-130930628D02*
X96166666Y-130835390D01*
X141922139Y-76639579D02*
X141874520Y-76687199D01*
X141874520Y-76687199D02*
X141731663Y-76734818D01*
X141731663Y-76734818D02*
X141636425Y-76734818D01*
X141636425Y-76734818D02*
X141493568Y-76687199D01*
X141493568Y-76687199D02*
X141398330Y-76591960D01*
X141398330Y-76591960D02*
X141350711Y-76496722D01*
X141350711Y-76496722D02*
X141303092Y-76306246D01*
X141303092Y-76306246D02*
X141303092Y-76163389D01*
X141303092Y-76163389D02*
X141350711Y-75972913D01*
X141350711Y-75972913D02*
X141398330Y-75877675D01*
X141398330Y-75877675D02*
X141493568Y-75782437D01*
X141493568Y-75782437D02*
X141636425Y-75734818D01*
X141636425Y-75734818D02*
X141731663Y-75734818D01*
X141731663Y-75734818D02*
X141874520Y-75782437D01*
X141874520Y-75782437D02*
X141922139Y-75830056D01*
X142255473Y-75734818D02*
X142874520Y-75734818D01*
X142874520Y-75734818D02*
X142541187Y-76115770D01*
X142541187Y-76115770D02*
X142684044Y-76115770D01*
X142684044Y-76115770D02*
X142779282Y-76163389D01*
X142779282Y-76163389D02*
X142826901Y-76211008D01*
X142826901Y-76211008D02*
X142874520Y-76306246D01*
X142874520Y-76306246D02*
X142874520Y-76544341D01*
X142874520Y-76544341D02*
X142826901Y-76639579D01*
X142826901Y-76639579D02*
X142779282Y-76687199D01*
X142779282Y-76687199D02*
X142684044Y-76734818D01*
X142684044Y-76734818D02*
X142398330Y-76734818D01*
X142398330Y-76734818D02*
X142303092Y-76687199D01*
X142303092Y-76687199D02*
X142255473Y-76639579D01*
X143255473Y-75830056D02*
X143303092Y-75782437D01*
X143303092Y-75782437D02*
X143398330Y-75734818D01*
X143398330Y-75734818D02*
X143636425Y-75734818D01*
X143636425Y-75734818D02*
X143731663Y-75782437D01*
X143731663Y-75782437D02*
X143779282Y-75830056D01*
X143779282Y-75830056D02*
X143826901Y-75925294D01*
X143826901Y-75925294D02*
X143826901Y-76020532D01*
X143826901Y-76020532D02*
X143779282Y-76163389D01*
X143779282Y-76163389D02*
X143207854Y-76734818D01*
X143207854Y-76734818D02*
X143826901Y-76734818D01*
X87211905Y-138506819D02*
X87783333Y-138506819D01*
X87497619Y-139506819D02*
X87497619Y-138506819D01*
X88116667Y-139506819D02*
X88116667Y-138506819D01*
X88116667Y-138506819D02*
X88497619Y-138506819D01*
X88497619Y-138506819D02*
X88592857Y-138554438D01*
X88592857Y-138554438D02*
X88640476Y-138602057D01*
X88640476Y-138602057D02*
X88688095Y-138697295D01*
X88688095Y-138697295D02*
X88688095Y-138840152D01*
X88688095Y-138840152D02*
X88640476Y-138935390D01*
X88640476Y-138935390D02*
X88592857Y-138983009D01*
X88592857Y-138983009D02*
X88497619Y-139030628D01*
X88497619Y-139030628D02*
X88116667Y-139030628D01*
X89640476Y-139506819D02*
X89069048Y-139506819D01*
X89354762Y-139506819D02*
X89354762Y-138506819D01*
X89354762Y-138506819D02*
X89259524Y-138649676D01*
X89259524Y-138649676D02*
X89164286Y-138744914D01*
X89164286Y-138744914D02*
X89069048Y-138792533D01*
X89973810Y-138506819D02*
X90592857Y-138506819D01*
X90592857Y-138506819D02*
X90259524Y-138887771D01*
X90259524Y-138887771D02*
X90402381Y-138887771D01*
X90402381Y-138887771D02*
X90497619Y-138935390D01*
X90497619Y-138935390D02*
X90545238Y-138983009D01*
X90545238Y-138983009D02*
X90592857Y-139078247D01*
X90592857Y-139078247D02*
X90592857Y-139316342D01*
X90592857Y-139316342D02*
X90545238Y-139411580D01*
X90545238Y-139411580D02*
X90497619Y-139459200D01*
X90497619Y-139459200D02*
X90402381Y-139506819D01*
X90402381Y-139506819D02*
X90116667Y-139506819D01*
X90116667Y-139506819D02*
X90021429Y-139459200D01*
X90021429Y-139459200D02*
X89973810Y-139411580D01*
X93261905Y-134456819D02*
X93833333Y-134456819D01*
X93547619Y-135456819D02*
X93547619Y-134456819D01*
X94166667Y-135456819D02*
X94166667Y-134456819D01*
X94166667Y-134456819D02*
X94547619Y-134456819D01*
X94547619Y-134456819D02*
X94642857Y-134504438D01*
X94642857Y-134504438D02*
X94690476Y-134552057D01*
X94690476Y-134552057D02*
X94738095Y-134647295D01*
X94738095Y-134647295D02*
X94738095Y-134790152D01*
X94738095Y-134790152D02*
X94690476Y-134885390D01*
X94690476Y-134885390D02*
X94642857Y-134933009D01*
X94642857Y-134933009D02*
X94547619Y-134980628D01*
X94547619Y-134980628D02*
X94166667Y-134980628D01*
X95690476Y-135456819D02*
X95119048Y-135456819D01*
X95404762Y-135456819D02*
X95404762Y-134456819D01*
X95404762Y-134456819D02*
X95309524Y-134599676D01*
X95309524Y-134599676D02*
X95214286Y-134694914D01*
X95214286Y-134694914D02*
X95119048Y-134742533D01*
X96309524Y-134456819D02*
X96404762Y-134456819D01*
X96404762Y-134456819D02*
X96500000Y-134504438D01*
X96500000Y-134504438D02*
X96547619Y-134552057D01*
X96547619Y-134552057D02*
X96595238Y-134647295D01*
X96595238Y-134647295D02*
X96642857Y-134837771D01*
X96642857Y-134837771D02*
X96642857Y-135075866D01*
X96642857Y-135075866D02*
X96595238Y-135266342D01*
X96595238Y-135266342D02*
X96547619Y-135361580D01*
X96547619Y-135361580D02*
X96500000Y-135409200D01*
X96500000Y-135409200D02*
X96404762Y-135456819D01*
X96404762Y-135456819D02*
X96309524Y-135456819D01*
X96309524Y-135456819D02*
X96214286Y-135409200D01*
X96214286Y-135409200D02*
X96166667Y-135361580D01*
X96166667Y-135361580D02*
X96119048Y-135266342D01*
X96119048Y-135266342D02*
X96071429Y-135075866D01*
X96071429Y-135075866D02*
X96071429Y-134837771D01*
X96071429Y-134837771D02*
X96119048Y-134647295D01*
X96119048Y-134647295D02*
X96166667Y-134552057D01*
X96166667Y-134552057D02*
X96214286Y-134504438D01*
X96214286Y-134504438D02*
X96309524Y-134456819D01*
X113333333Y-71449819D02*
X113000000Y-70973628D01*
X112761905Y-71449819D02*
X112761905Y-70449819D01*
X112761905Y-70449819D02*
X113142857Y-70449819D01*
X113142857Y-70449819D02*
X113238095Y-70497438D01*
X113238095Y-70497438D02*
X113285714Y-70545057D01*
X113285714Y-70545057D02*
X113333333Y-70640295D01*
X113333333Y-70640295D02*
X113333333Y-70783152D01*
X113333333Y-70783152D02*
X113285714Y-70878390D01*
X113285714Y-70878390D02*
X113238095Y-70926009D01*
X113238095Y-70926009D02*
X113142857Y-70973628D01*
X113142857Y-70973628D02*
X112761905Y-70973628D01*
X114238095Y-70449819D02*
X113761905Y-70449819D01*
X113761905Y-70449819D02*
X113714286Y-70926009D01*
X113714286Y-70926009D02*
X113761905Y-70878390D01*
X113761905Y-70878390D02*
X113857143Y-70830771D01*
X113857143Y-70830771D02*
X114095238Y-70830771D01*
X114095238Y-70830771D02*
X114190476Y-70878390D01*
X114190476Y-70878390D02*
X114238095Y-70926009D01*
X114238095Y-70926009D02*
X114285714Y-71021247D01*
X114285714Y-71021247D02*
X114285714Y-71259342D01*
X114285714Y-71259342D02*
X114238095Y-71354580D01*
X114238095Y-71354580D02*
X114190476Y-71402200D01*
X114190476Y-71402200D02*
X114095238Y-71449819D01*
X114095238Y-71449819D02*
X113857143Y-71449819D01*
X113857143Y-71449819D02*
X113761905Y-71402200D01*
X113761905Y-71402200D02*
X113714286Y-71354580D01*
X149257142Y-84703320D02*
X148923809Y-84227129D01*
X148685714Y-84703320D02*
X148685714Y-83703320D01*
X148685714Y-83703320D02*
X149066666Y-83703320D01*
X149066666Y-83703320D02*
X149161904Y-83750939D01*
X149161904Y-83750939D02*
X149209523Y-83798558D01*
X149209523Y-83798558D02*
X149257142Y-83893796D01*
X149257142Y-83893796D02*
X149257142Y-84036653D01*
X149257142Y-84036653D02*
X149209523Y-84131891D01*
X149209523Y-84131891D02*
X149161904Y-84179510D01*
X149161904Y-84179510D02*
X149066666Y-84227129D01*
X149066666Y-84227129D02*
X148685714Y-84227129D01*
X150114285Y-84036653D02*
X150114285Y-84703320D01*
X149876190Y-83655701D02*
X149638095Y-84369986D01*
X149638095Y-84369986D02*
X150257142Y-84369986D01*
X151066666Y-84036653D02*
X151066666Y-84703320D01*
X150828571Y-83655701D02*
X150590476Y-84369986D01*
X150590476Y-84369986D02*
X151209523Y-84369986D01*
X79268180Y-85506265D02*
X78553895Y-85506265D01*
X78553895Y-85506265D02*
X78411038Y-85458646D01*
X78411038Y-85458646D02*
X78315800Y-85363408D01*
X78315800Y-85363408D02*
X78268180Y-85220551D01*
X78268180Y-85220551D02*
X78268180Y-85125313D01*
X78934847Y-86411027D02*
X78268180Y-86411027D01*
X79315800Y-86172932D02*
X78601514Y-85934837D01*
X78601514Y-85934837D02*
X78601514Y-86553884D01*
X118658333Y-84212319D02*
X118325000Y-83736128D01*
X118086905Y-84212319D02*
X118086905Y-83212319D01*
X118086905Y-83212319D02*
X118467857Y-83212319D01*
X118467857Y-83212319D02*
X118563095Y-83259938D01*
X118563095Y-83259938D02*
X118610714Y-83307557D01*
X118610714Y-83307557D02*
X118658333Y-83402795D01*
X118658333Y-83402795D02*
X118658333Y-83545652D01*
X118658333Y-83545652D02*
X118610714Y-83640890D01*
X118610714Y-83640890D02*
X118563095Y-83688509D01*
X118563095Y-83688509D02*
X118467857Y-83736128D01*
X118467857Y-83736128D02*
X118086905Y-83736128D01*
X119229762Y-83640890D02*
X119134524Y-83593271D01*
X119134524Y-83593271D02*
X119086905Y-83545652D01*
X119086905Y-83545652D02*
X119039286Y-83450414D01*
X119039286Y-83450414D02*
X119039286Y-83402795D01*
X119039286Y-83402795D02*
X119086905Y-83307557D01*
X119086905Y-83307557D02*
X119134524Y-83259938D01*
X119134524Y-83259938D02*
X119229762Y-83212319D01*
X119229762Y-83212319D02*
X119420238Y-83212319D01*
X119420238Y-83212319D02*
X119515476Y-83259938D01*
X119515476Y-83259938D02*
X119563095Y-83307557D01*
X119563095Y-83307557D02*
X119610714Y-83402795D01*
X119610714Y-83402795D02*
X119610714Y-83450414D01*
X119610714Y-83450414D02*
X119563095Y-83545652D01*
X119563095Y-83545652D02*
X119515476Y-83593271D01*
X119515476Y-83593271D02*
X119420238Y-83640890D01*
X119420238Y-83640890D02*
X119229762Y-83640890D01*
X119229762Y-83640890D02*
X119134524Y-83688509D01*
X119134524Y-83688509D02*
X119086905Y-83736128D01*
X119086905Y-83736128D02*
X119039286Y-83831366D01*
X119039286Y-83831366D02*
X119039286Y-84021842D01*
X119039286Y-84021842D02*
X119086905Y-84117080D01*
X119086905Y-84117080D02*
X119134524Y-84164700D01*
X119134524Y-84164700D02*
X119229762Y-84212319D01*
X119229762Y-84212319D02*
X119420238Y-84212319D01*
X119420238Y-84212319D02*
X119515476Y-84164700D01*
X119515476Y-84164700D02*
X119563095Y-84117080D01*
X119563095Y-84117080D02*
X119610714Y-84021842D01*
X119610714Y-84021842D02*
X119610714Y-83831366D01*
X119610714Y-83831366D02*
X119563095Y-83736128D01*
X119563095Y-83736128D02*
X119515476Y-83688509D01*
X119515476Y-83688509D02*
X119420238Y-83640890D01*
X150624816Y-76652857D02*
X150148625Y-76986190D01*
X150624816Y-77224285D02*
X149624816Y-77224285D01*
X149624816Y-77224285D02*
X149624816Y-76843333D01*
X149624816Y-76843333D02*
X149672435Y-76748095D01*
X149672435Y-76748095D02*
X149720054Y-76700476D01*
X149720054Y-76700476D02*
X149815292Y-76652857D01*
X149815292Y-76652857D02*
X149958149Y-76652857D01*
X149958149Y-76652857D02*
X150053387Y-76700476D01*
X150053387Y-76700476D02*
X150101006Y-76748095D01*
X150101006Y-76748095D02*
X150148625Y-76843333D01*
X150148625Y-76843333D02*
X150148625Y-77224285D01*
X149624816Y-76319523D02*
X149624816Y-75700476D01*
X149624816Y-75700476D02*
X150005768Y-76033809D01*
X150005768Y-76033809D02*
X150005768Y-75890952D01*
X150005768Y-75890952D02*
X150053387Y-75795714D01*
X150053387Y-75795714D02*
X150101006Y-75748095D01*
X150101006Y-75748095D02*
X150196244Y-75700476D01*
X150196244Y-75700476D02*
X150434339Y-75700476D01*
X150434339Y-75700476D02*
X150529577Y-75748095D01*
X150529577Y-75748095D02*
X150577197Y-75795714D01*
X150577197Y-75795714D02*
X150624816Y-75890952D01*
X150624816Y-75890952D02*
X150624816Y-76176666D01*
X150624816Y-76176666D02*
X150577197Y-76271904D01*
X150577197Y-76271904D02*
X150529577Y-76319523D01*
X149624816Y-74843333D02*
X149624816Y-75033809D01*
X149624816Y-75033809D02*
X149672435Y-75129047D01*
X149672435Y-75129047D02*
X149720054Y-75176666D01*
X149720054Y-75176666D02*
X149862911Y-75271904D01*
X149862911Y-75271904D02*
X150053387Y-75319523D01*
X150053387Y-75319523D02*
X150434339Y-75319523D01*
X150434339Y-75319523D02*
X150529577Y-75271904D01*
X150529577Y-75271904D02*
X150577197Y-75224285D01*
X150577197Y-75224285D02*
X150624816Y-75129047D01*
X150624816Y-75129047D02*
X150624816Y-74938571D01*
X150624816Y-74938571D02*
X150577197Y-74843333D01*
X150577197Y-74843333D02*
X150529577Y-74795714D01*
X150529577Y-74795714D02*
X150434339Y-74748095D01*
X150434339Y-74748095D02*
X150196244Y-74748095D01*
X150196244Y-74748095D02*
X150101006Y-74795714D01*
X150101006Y-74795714D02*
X150053387Y-74843333D01*
X150053387Y-74843333D02*
X150005768Y-74938571D01*
X150005768Y-74938571D02*
X150005768Y-75129047D01*
X150005768Y-75129047D02*
X150053387Y-75224285D01*
X150053387Y-75224285D02*
X150101006Y-75271904D01*
X150101006Y-75271904D02*
X150196244Y-75319523D01*
X145224816Y-76967857D02*
X144748625Y-77301190D01*
X145224816Y-77539285D02*
X144224816Y-77539285D01*
X144224816Y-77539285D02*
X144224816Y-77158333D01*
X144224816Y-77158333D02*
X144272435Y-77063095D01*
X144272435Y-77063095D02*
X144320054Y-77015476D01*
X144320054Y-77015476D02*
X144415292Y-76967857D01*
X144415292Y-76967857D02*
X144558149Y-76967857D01*
X144558149Y-76967857D02*
X144653387Y-77015476D01*
X144653387Y-77015476D02*
X144701006Y-77063095D01*
X144701006Y-77063095D02*
X144748625Y-77158333D01*
X144748625Y-77158333D02*
X144748625Y-77539285D01*
X144320054Y-76586904D02*
X144272435Y-76539285D01*
X144272435Y-76539285D02*
X144224816Y-76444047D01*
X144224816Y-76444047D02*
X144224816Y-76205952D01*
X144224816Y-76205952D02*
X144272435Y-76110714D01*
X144272435Y-76110714D02*
X144320054Y-76063095D01*
X144320054Y-76063095D02*
X144415292Y-76015476D01*
X144415292Y-76015476D02*
X144510530Y-76015476D01*
X144510530Y-76015476D02*
X144653387Y-76063095D01*
X144653387Y-76063095D02*
X145224816Y-76634523D01*
X145224816Y-76634523D02*
X145224816Y-76015476D01*
X144224816Y-75682142D02*
X144224816Y-75015476D01*
X144224816Y-75015476D02*
X145224816Y-75444047D01*
X97788095Y-144556819D02*
X98359523Y-144556819D01*
X98073809Y-145556819D02*
X98073809Y-144556819D01*
X98692857Y-145556819D02*
X98692857Y-144556819D01*
X98692857Y-144556819D02*
X99073809Y-144556819D01*
X99073809Y-144556819D02*
X99169047Y-144604438D01*
X99169047Y-144604438D02*
X99216666Y-144652057D01*
X99216666Y-144652057D02*
X99264285Y-144747295D01*
X99264285Y-144747295D02*
X99264285Y-144890152D01*
X99264285Y-144890152D02*
X99216666Y-144985390D01*
X99216666Y-144985390D02*
X99169047Y-145033009D01*
X99169047Y-145033009D02*
X99073809Y-145080628D01*
X99073809Y-145080628D02*
X98692857Y-145080628D01*
X100121428Y-144890152D02*
X100121428Y-145556819D01*
X99883333Y-144509200D02*
X99645238Y-145223485D01*
X99645238Y-145223485D02*
X100264285Y-145223485D01*
X131258333Y-97729580D02*
X131210714Y-97777200D01*
X131210714Y-97777200D02*
X131067857Y-97824819D01*
X131067857Y-97824819D02*
X130972619Y-97824819D01*
X130972619Y-97824819D02*
X130829762Y-97777200D01*
X130829762Y-97777200D02*
X130734524Y-97681961D01*
X130734524Y-97681961D02*
X130686905Y-97586723D01*
X130686905Y-97586723D02*
X130639286Y-97396247D01*
X130639286Y-97396247D02*
X130639286Y-97253390D01*
X130639286Y-97253390D02*
X130686905Y-97062914D01*
X130686905Y-97062914D02*
X130734524Y-96967676D01*
X130734524Y-96967676D02*
X130829762Y-96872438D01*
X130829762Y-96872438D02*
X130972619Y-96824819D01*
X130972619Y-96824819D02*
X131067857Y-96824819D01*
X131067857Y-96824819D02*
X131210714Y-96872438D01*
X131210714Y-96872438D02*
X131258333Y-96920057D01*
X131639286Y-96920057D02*
X131686905Y-96872438D01*
X131686905Y-96872438D02*
X131782143Y-96824819D01*
X131782143Y-96824819D02*
X132020238Y-96824819D01*
X132020238Y-96824819D02*
X132115476Y-96872438D01*
X132115476Y-96872438D02*
X132163095Y-96920057D01*
X132163095Y-96920057D02*
X132210714Y-97015295D01*
X132210714Y-97015295D02*
X132210714Y-97110533D01*
X132210714Y-97110533D02*
X132163095Y-97253390D01*
X132163095Y-97253390D02*
X131591667Y-97824819D01*
X131591667Y-97824819D02*
X132210714Y-97824819D01*
X140082142Y-97729580D02*
X140034523Y-97777200D01*
X140034523Y-97777200D02*
X139891666Y-97824819D01*
X139891666Y-97824819D02*
X139796428Y-97824819D01*
X139796428Y-97824819D02*
X139653571Y-97777200D01*
X139653571Y-97777200D02*
X139558333Y-97681961D01*
X139558333Y-97681961D02*
X139510714Y-97586723D01*
X139510714Y-97586723D02*
X139463095Y-97396247D01*
X139463095Y-97396247D02*
X139463095Y-97253390D01*
X139463095Y-97253390D02*
X139510714Y-97062914D01*
X139510714Y-97062914D02*
X139558333Y-96967676D01*
X139558333Y-96967676D02*
X139653571Y-96872438D01*
X139653571Y-96872438D02*
X139796428Y-96824819D01*
X139796428Y-96824819D02*
X139891666Y-96824819D01*
X139891666Y-96824819D02*
X140034523Y-96872438D01*
X140034523Y-96872438D02*
X140082142Y-96920057D01*
X141034523Y-97824819D02*
X140463095Y-97824819D01*
X140748809Y-97824819D02*
X140748809Y-96824819D01*
X140748809Y-96824819D02*
X140653571Y-96967676D01*
X140653571Y-96967676D02*
X140558333Y-97062914D01*
X140558333Y-97062914D02*
X140463095Y-97110533D01*
X141653571Y-96824819D02*
X141748809Y-96824819D01*
X141748809Y-96824819D02*
X141844047Y-96872438D01*
X141844047Y-96872438D02*
X141891666Y-96920057D01*
X141891666Y-96920057D02*
X141939285Y-97015295D01*
X141939285Y-97015295D02*
X141986904Y-97205771D01*
X141986904Y-97205771D02*
X141986904Y-97443866D01*
X141986904Y-97443866D02*
X141939285Y-97634342D01*
X141939285Y-97634342D02*
X141891666Y-97729580D01*
X141891666Y-97729580D02*
X141844047Y-97777200D01*
X141844047Y-97777200D02*
X141748809Y-97824819D01*
X141748809Y-97824819D02*
X141653571Y-97824819D01*
X141653571Y-97824819D02*
X141558333Y-97777200D01*
X141558333Y-97777200D02*
X141510714Y-97729580D01*
X141510714Y-97729580D02*
X141463095Y-97634342D01*
X141463095Y-97634342D02*
X141415476Y-97443866D01*
X141415476Y-97443866D02*
X141415476Y-97205771D01*
X141415476Y-97205771D02*
X141463095Y-97015295D01*
X141463095Y-97015295D02*
X141510714Y-96920057D01*
X141510714Y-96920057D02*
X141558333Y-96872438D01*
X141558333Y-96872438D02*
X141653571Y-96824819D01*
X132808333Y-99229580D02*
X132760714Y-99277200D01*
X132760714Y-99277200D02*
X132617857Y-99324819D01*
X132617857Y-99324819D02*
X132522619Y-99324819D01*
X132522619Y-99324819D02*
X132379762Y-99277200D01*
X132379762Y-99277200D02*
X132284524Y-99181961D01*
X132284524Y-99181961D02*
X132236905Y-99086723D01*
X132236905Y-99086723D02*
X132189286Y-98896247D01*
X132189286Y-98896247D02*
X132189286Y-98753390D01*
X132189286Y-98753390D02*
X132236905Y-98562914D01*
X132236905Y-98562914D02*
X132284524Y-98467676D01*
X132284524Y-98467676D02*
X132379762Y-98372438D01*
X132379762Y-98372438D02*
X132522619Y-98324819D01*
X132522619Y-98324819D02*
X132617857Y-98324819D01*
X132617857Y-98324819D02*
X132760714Y-98372438D01*
X132760714Y-98372438D02*
X132808333Y-98420057D01*
X133713095Y-98324819D02*
X133236905Y-98324819D01*
X133236905Y-98324819D02*
X133189286Y-98801009D01*
X133189286Y-98801009D02*
X133236905Y-98753390D01*
X133236905Y-98753390D02*
X133332143Y-98705771D01*
X133332143Y-98705771D02*
X133570238Y-98705771D01*
X133570238Y-98705771D02*
X133665476Y-98753390D01*
X133665476Y-98753390D02*
X133713095Y-98801009D01*
X133713095Y-98801009D02*
X133760714Y-98896247D01*
X133760714Y-98896247D02*
X133760714Y-99134342D01*
X133760714Y-99134342D02*
X133713095Y-99229580D01*
X133713095Y-99229580D02*
X133665476Y-99277200D01*
X133665476Y-99277200D02*
X133570238Y-99324819D01*
X133570238Y-99324819D02*
X133332143Y-99324819D01*
X133332143Y-99324819D02*
X133236905Y-99277200D01*
X133236905Y-99277200D02*
X133189286Y-99229580D01*
X149457142Y-105389580D02*
X149409523Y-105437200D01*
X149409523Y-105437200D02*
X149266666Y-105484819D01*
X149266666Y-105484819D02*
X149171428Y-105484819D01*
X149171428Y-105484819D02*
X149028571Y-105437200D01*
X149028571Y-105437200D02*
X148933333Y-105341961D01*
X148933333Y-105341961D02*
X148885714Y-105246723D01*
X148885714Y-105246723D02*
X148838095Y-105056247D01*
X148838095Y-105056247D02*
X148838095Y-104913390D01*
X148838095Y-104913390D02*
X148885714Y-104722914D01*
X148885714Y-104722914D02*
X148933333Y-104627676D01*
X148933333Y-104627676D02*
X149028571Y-104532438D01*
X149028571Y-104532438D02*
X149171428Y-104484819D01*
X149171428Y-104484819D02*
X149266666Y-104484819D01*
X149266666Y-104484819D02*
X149409523Y-104532438D01*
X149409523Y-104532438D02*
X149457142Y-104580057D01*
X149838095Y-104580057D02*
X149885714Y-104532438D01*
X149885714Y-104532438D02*
X149980952Y-104484819D01*
X149980952Y-104484819D02*
X150219047Y-104484819D01*
X150219047Y-104484819D02*
X150314285Y-104532438D01*
X150314285Y-104532438D02*
X150361904Y-104580057D01*
X150361904Y-104580057D02*
X150409523Y-104675295D01*
X150409523Y-104675295D02*
X150409523Y-104770533D01*
X150409523Y-104770533D02*
X150361904Y-104913390D01*
X150361904Y-104913390D02*
X149790476Y-105484819D01*
X149790476Y-105484819D02*
X150409523Y-105484819D01*
X150790476Y-104580057D02*
X150838095Y-104532438D01*
X150838095Y-104532438D02*
X150933333Y-104484819D01*
X150933333Y-104484819D02*
X151171428Y-104484819D01*
X151171428Y-104484819D02*
X151266666Y-104532438D01*
X151266666Y-104532438D02*
X151314285Y-104580057D01*
X151314285Y-104580057D02*
X151361904Y-104675295D01*
X151361904Y-104675295D02*
X151361904Y-104770533D01*
X151361904Y-104770533D02*
X151314285Y-104913390D01*
X151314285Y-104913390D02*
X150742857Y-105484819D01*
X150742857Y-105484819D02*
X151361904Y-105484819D01*
X116397042Y-57174819D02*
X116063709Y-56698628D01*
X115825614Y-57174819D02*
X115825614Y-56174819D01*
X115825614Y-56174819D02*
X116206566Y-56174819D01*
X116206566Y-56174819D02*
X116301804Y-56222438D01*
X116301804Y-56222438D02*
X116349423Y-56270057D01*
X116349423Y-56270057D02*
X116397042Y-56365295D01*
X116397042Y-56365295D02*
X116397042Y-56508152D01*
X116397042Y-56508152D02*
X116349423Y-56603390D01*
X116349423Y-56603390D02*
X116301804Y-56651009D01*
X116301804Y-56651009D02*
X116206566Y-56698628D01*
X116206566Y-56698628D02*
X115825614Y-56698628D01*
X116777995Y-56270057D02*
X116825614Y-56222438D01*
X116825614Y-56222438D02*
X116920852Y-56174819D01*
X116920852Y-56174819D02*
X117158947Y-56174819D01*
X117158947Y-56174819D02*
X117254185Y-56222438D01*
X117254185Y-56222438D02*
X117301804Y-56270057D01*
X117301804Y-56270057D02*
X117349423Y-56365295D01*
X117349423Y-56365295D02*
X117349423Y-56460533D01*
X117349423Y-56460533D02*
X117301804Y-56603390D01*
X117301804Y-56603390D02*
X116730376Y-57174819D01*
X116730376Y-57174819D02*
X117349423Y-57174819D01*
X117968471Y-56174819D02*
X118063709Y-56174819D01*
X118063709Y-56174819D02*
X118158947Y-56222438D01*
X118158947Y-56222438D02*
X118206566Y-56270057D01*
X118206566Y-56270057D02*
X118254185Y-56365295D01*
X118254185Y-56365295D02*
X118301804Y-56555771D01*
X118301804Y-56555771D02*
X118301804Y-56793866D01*
X118301804Y-56793866D02*
X118254185Y-56984342D01*
X118254185Y-56984342D02*
X118206566Y-57079580D01*
X118206566Y-57079580D02*
X118158947Y-57127200D01*
X118158947Y-57127200D02*
X118063709Y-57174819D01*
X118063709Y-57174819D02*
X117968471Y-57174819D01*
X117968471Y-57174819D02*
X117873233Y-57127200D01*
X117873233Y-57127200D02*
X117825614Y-57079580D01*
X117825614Y-57079580D02*
X117777995Y-56984342D01*
X117777995Y-56984342D02*
X117730376Y-56793866D01*
X117730376Y-56793866D02*
X117730376Y-56555771D01*
X117730376Y-56555771D02*
X117777995Y-56365295D01*
X117777995Y-56365295D02*
X117825614Y-56270057D01*
X117825614Y-56270057D02*
X117873233Y-56222438D01*
X117873233Y-56222438D02*
X117968471Y-56174819D01*
X170488095Y-65054819D02*
X170488095Y-64054819D01*
X170488095Y-64531009D02*
X171059523Y-64531009D01*
X171059523Y-65054819D02*
X171059523Y-64054819D01*
X171440476Y-64054819D02*
X172059523Y-64054819D01*
X172059523Y-64054819D02*
X171726190Y-64435771D01*
X171726190Y-64435771D02*
X171869047Y-64435771D01*
X171869047Y-64435771D02*
X171964285Y-64483390D01*
X171964285Y-64483390D02*
X172011904Y-64531009D01*
X172011904Y-64531009D02*
X172059523Y-64626247D01*
X172059523Y-64626247D02*
X172059523Y-64864342D01*
X172059523Y-64864342D02*
X172011904Y-64959580D01*
X172011904Y-64959580D02*
X171964285Y-65007200D01*
X171964285Y-65007200D02*
X171869047Y-65054819D01*
X171869047Y-65054819D02*
X171583333Y-65054819D01*
X171583333Y-65054819D02*
X171488095Y-65007200D01*
X171488095Y-65007200D02*
X171440476Y-64959580D01*
X171083333Y-91045180D02*
X171083333Y-90330895D01*
X171083333Y-90330895D02*
X171130952Y-90188038D01*
X171130952Y-90188038D02*
X171226190Y-90092800D01*
X171226190Y-90092800D02*
X171369047Y-90045180D01*
X171369047Y-90045180D02*
X171464285Y-90045180D01*
X170654761Y-90949942D02*
X170607142Y-90997561D01*
X170607142Y-90997561D02*
X170511904Y-91045180D01*
X170511904Y-91045180D02*
X170273809Y-91045180D01*
X170273809Y-91045180D02*
X170178571Y-90997561D01*
X170178571Y-90997561D02*
X170130952Y-90949942D01*
X170130952Y-90949942D02*
X170083333Y-90854704D01*
X170083333Y-90854704D02*
X170083333Y-90759466D01*
X170083333Y-90759466D02*
X170130952Y-90616609D01*
X170130952Y-90616609D02*
X170702380Y-90045180D01*
X170702380Y-90045180D02*
X170083333Y-90045180D01*
X113333333Y-76074819D02*
X113000000Y-75598628D01*
X112761905Y-76074819D02*
X112761905Y-75074819D01*
X112761905Y-75074819D02*
X113142857Y-75074819D01*
X113142857Y-75074819D02*
X113238095Y-75122438D01*
X113238095Y-75122438D02*
X113285714Y-75170057D01*
X113285714Y-75170057D02*
X113333333Y-75265295D01*
X113333333Y-75265295D02*
X113333333Y-75408152D01*
X113333333Y-75408152D02*
X113285714Y-75503390D01*
X113285714Y-75503390D02*
X113238095Y-75551009D01*
X113238095Y-75551009D02*
X113142857Y-75598628D01*
X113142857Y-75598628D02*
X112761905Y-75598628D01*
X113666667Y-75074819D02*
X114333333Y-75074819D01*
X114333333Y-75074819D02*
X113904762Y-76074819D01*
X147653030Y-94762857D02*
X147700650Y-94810476D01*
X147700650Y-94810476D02*
X147748269Y-94953333D01*
X147748269Y-94953333D02*
X147748269Y-95048571D01*
X147748269Y-95048571D02*
X147700650Y-95191428D01*
X147700650Y-95191428D02*
X147605411Y-95286666D01*
X147605411Y-95286666D02*
X147510173Y-95334285D01*
X147510173Y-95334285D02*
X147319697Y-95381904D01*
X147319697Y-95381904D02*
X147176840Y-95381904D01*
X147176840Y-95381904D02*
X146986364Y-95334285D01*
X146986364Y-95334285D02*
X146891126Y-95286666D01*
X146891126Y-95286666D02*
X146795888Y-95191428D01*
X146795888Y-95191428D02*
X146748269Y-95048571D01*
X146748269Y-95048571D02*
X146748269Y-94953333D01*
X146748269Y-94953333D02*
X146795888Y-94810476D01*
X146795888Y-94810476D02*
X146843507Y-94762857D01*
X146748269Y-94429523D02*
X146748269Y-93810476D01*
X146748269Y-93810476D02*
X147129221Y-94143809D01*
X147129221Y-94143809D02*
X147129221Y-94000952D01*
X147129221Y-94000952D02*
X147176840Y-93905714D01*
X147176840Y-93905714D02*
X147224459Y-93858095D01*
X147224459Y-93858095D02*
X147319697Y-93810476D01*
X147319697Y-93810476D02*
X147557792Y-93810476D01*
X147557792Y-93810476D02*
X147653030Y-93858095D01*
X147653030Y-93858095D02*
X147700650Y-93905714D01*
X147700650Y-93905714D02*
X147748269Y-94000952D01*
X147748269Y-94000952D02*
X147748269Y-94286666D01*
X147748269Y-94286666D02*
X147700650Y-94381904D01*
X147700650Y-94381904D02*
X147653030Y-94429523D01*
X146748269Y-93477142D02*
X146748269Y-92810476D01*
X146748269Y-92810476D02*
X147748269Y-93239047D01*
X149210592Y-93884819D02*
X148877259Y-93408628D01*
X148639164Y-93884819D02*
X148639164Y-92884819D01*
X148639164Y-92884819D02*
X149020116Y-92884819D01*
X149020116Y-92884819D02*
X149115354Y-92932438D01*
X149115354Y-92932438D02*
X149162973Y-92980057D01*
X149162973Y-92980057D02*
X149210592Y-93075295D01*
X149210592Y-93075295D02*
X149210592Y-93218152D01*
X149210592Y-93218152D02*
X149162973Y-93313390D01*
X149162973Y-93313390D02*
X149115354Y-93361009D01*
X149115354Y-93361009D02*
X149020116Y-93408628D01*
X149020116Y-93408628D02*
X148639164Y-93408628D01*
X150067735Y-93218152D02*
X150067735Y-93884819D01*
X149829640Y-92837200D02*
X149591545Y-93551485D01*
X149591545Y-93551485D02*
X150210592Y-93551485D01*
X151115354Y-93884819D02*
X150543926Y-93884819D01*
X150829640Y-93884819D02*
X150829640Y-92884819D01*
X150829640Y-92884819D02*
X150734402Y-93027676D01*
X150734402Y-93027676D02*
X150639164Y-93122914D01*
X150639164Y-93122914D02*
X150543926Y-93170533D01*
X93738095Y-144556819D02*
X94309523Y-144556819D01*
X94023809Y-145556819D02*
X94023809Y-144556819D01*
X94642857Y-145556819D02*
X94642857Y-144556819D01*
X94642857Y-144556819D02*
X95023809Y-144556819D01*
X95023809Y-144556819D02*
X95119047Y-144604438D01*
X95119047Y-144604438D02*
X95166666Y-144652057D01*
X95166666Y-144652057D02*
X95214285Y-144747295D01*
X95214285Y-144747295D02*
X95214285Y-144890152D01*
X95214285Y-144890152D02*
X95166666Y-144985390D01*
X95166666Y-144985390D02*
X95119047Y-145033009D01*
X95119047Y-145033009D02*
X95023809Y-145080628D01*
X95023809Y-145080628D02*
X94642857Y-145080628D01*
X95595238Y-144652057D02*
X95642857Y-144604438D01*
X95642857Y-144604438D02*
X95738095Y-144556819D01*
X95738095Y-144556819D02*
X95976190Y-144556819D01*
X95976190Y-144556819D02*
X96071428Y-144604438D01*
X96071428Y-144604438D02*
X96119047Y-144652057D01*
X96119047Y-144652057D02*
X96166666Y-144747295D01*
X96166666Y-144747295D02*
X96166666Y-144842533D01*
X96166666Y-144842533D02*
X96119047Y-144985390D01*
X96119047Y-144985390D02*
X95547619Y-145556819D01*
X95547619Y-145556819D02*
X96166666Y-145556819D01*
X149078269Y-96192858D02*
X148602078Y-96526191D01*
X149078269Y-96764286D02*
X148078269Y-96764286D01*
X148078269Y-96764286D02*
X148078269Y-96383334D01*
X148078269Y-96383334D02*
X148125888Y-96288096D01*
X148125888Y-96288096D02*
X148173507Y-96240477D01*
X148173507Y-96240477D02*
X148268745Y-96192858D01*
X148268745Y-96192858D02*
X148411602Y-96192858D01*
X148411602Y-96192858D02*
X148506840Y-96240477D01*
X148506840Y-96240477D02*
X148554459Y-96288096D01*
X148554459Y-96288096D02*
X148602078Y-96383334D01*
X148602078Y-96383334D02*
X148602078Y-96764286D01*
X148078269Y-95859524D02*
X148078269Y-95240477D01*
X148078269Y-95240477D02*
X148459221Y-95573810D01*
X148459221Y-95573810D02*
X148459221Y-95430953D01*
X148459221Y-95430953D02*
X148506840Y-95335715D01*
X148506840Y-95335715D02*
X148554459Y-95288096D01*
X148554459Y-95288096D02*
X148649697Y-95240477D01*
X148649697Y-95240477D02*
X148887792Y-95240477D01*
X148887792Y-95240477D02*
X148983030Y-95288096D01*
X148983030Y-95288096D02*
X149030650Y-95335715D01*
X149030650Y-95335715D02*
X149078269Y-95430953D01*
X149078269Y-95430953D02*
X149078269Y-95716667D01*
X149078269Y-95716667D02*
X149030650Y-95811905D01*
X149030650Y-95811905D02*
X148983030Y-95859524D01*
X149078269Y-94764286D02*
X149078269Y-94573810D01*
X149078269Y-94573810D02*
X149030650Y-94478572D01*
X149030650Y-94478572D02*
X148983030Y-94430953D01*
X148983030Y-94430953D02*
X148840173Y-94335715D01*
X148840173Y-94335715D02*
X148649697Y-94288096D01*
X148649697Y-94288096D02*
X148268745Y-94288096D01*
X148268745Y-94288096D02*
X148173507Y-94335715D01*
X148173507Y-94335715D02*
X148125888Y-94383334D01*
X148125888Y-94383334D02*
X148078269Y-94478572D01*
X148078269Y-94478572D02*
X148078269Y-94669048D01*
X148078269Y-94669048D02*
X148125888Y-94764286D01*
X148125888Y-94764286D02*
X148173507Y-94811905D01*
X148173507Y-94811905D02*
X148268745Y-94859524D01*
X148268745Y-94859524D02*
X148506840Y-94859524D01*
X148506840Y-94859524D02*
X148602078Y-94811905D01*
X148602078Y-94811905D02*
X148649697Y-94764286D01*
X148649697Y-94764286D02*
X148697316Y-94669048D01*
X148697316Y-94669048D02*
X148697316Y-94478572D01*
X148697316Y-94478572D02*
X148649697Y-94383334D01*
X148649697Y-94383334D02*
X148602078Y-94335715D01*
X148602078Y-94335715D02*
X148506840Y-94288096D01*
X148837139Y-76639580D02*
X148789520Y-76687200D01*
X148789520Y-76687200D02*
X148646663Y-76734819D01*
X148646663Y-76734819D02*
X148551425Y-76734819D01*
X148551425Y-76734819D02*
X148408568Y-76687200D01*
X148408568Y-76687200D02*
X148313330Y-76591961D01*
X148313330Y-76591961D02*
X148265711Y-76496723D01*
X148265711Y-76496723D02*
X148218092Y-76306247D01*
X148218092Y-76306247D02*
X148218092Y-76163390D01*
X148218092Y-76163390D02*
X148265711Y-75972914D01*
X148265711Y-75972914D02*
X148313330Y-75877676D01*
X148313330Y-75877676D02*
X148408568Y-75782438D01*
X148408568Y-75782438D02*
X148551425Y-75734819D01*
X148551425Y-75734819D02*
X148646663Y-75734819D01*
X148646663Y-75734819D02*
X148789520Y-75782438D01*
X148789520Y-75782438D02*
X148837139Y-75830057D01*
X149170473Y-75734819D02*
X149789520Y-75734819D01*
X149789520Y-75734819D02*
X149456187Y-76115771D01*
X149456187Y-76115771D02*
X149599044Y-76115771D01*
X149599044Y-76115771D02*
X149694282Y-76163390D01*
X149694282Y-76163390D02*
X149741901Y-76211009D01*
X149741901Y-76211009D02*
X149789520Y-76306247D01*
X149789520Y-76306247D02*
X149789520Y-76544342D01*
X149789520Y-76544342D02*
X149741901Y-76639580D01*
X149741901Y-76639580D02*
X149694282Y-76687200D01*
X149694282Y-76687200D02*
X149599044Y-76734819D01*
X149599044Y-76734819D02*
X149313330Y-76734819D01*
X149313330Y-76734819D02*
X149218092Y-76687200D01*
X149218092Y-76687200D02*
X149170473Y-76639580D01*
X150646663Y-76068152D02*
X150646663Y-76734819D01*
X150408568Y-75687200D02*
X150170473Y-76401485D01*
X150170473Y-76401485D02*
X150789520Y-76401485D01*
X132909816Y-76967856D02*
X132433625Y-77301189D01*
X132909816Y-77539284D02*
X131909816Y-77539284D01*
X131909816Y-77539284D02*
X131909816Y-77158332D01*
X131909816Y-77158332D02*
X131957435Y-77063094D01*
X131957435Y-77063094D02*
X132005054Y-77015475D01*
X132005054Y-77015475D02*
X132100292Y-76967856D01*
X132100292Y-76967856D02*
X132243149Y-76967856D01*
X132243149Y-76967856D02*
X132338387Y-77015475D01*
X132338387Y-77015475D02*
X132386006Y-77063094D01*
X132386006Y-77063094D02*
X132433625Y-77158332D01*
X132433625Y-77158332D02*
X132433625Y-77539284D01*
X132005054Y-76586903D02*
X131957435Y-76539284D01*
X131957435Y-76539284D02*
X131909816Y-76444046D01*
X131909816Y-76444046D02*
X131909816Y-76205951D01*
X131909816Y-76205951D02*
X131957435Y-76110713D01*
X131957435Y-76110713D02*
X132005054Y-76063094D01*
X132005054Y-76063094D02*
X132100292Y-76015475D01*
X132100292Y-76015475D02*
X132195530Y-76015475D01*
X132195530Y-76015475D02*
X132338387Y-76063094D01*
X132338387Y-76063094D02*
X132909816Y-76634522D01*
X132909816Y-76634522D02*
X132909816Y-76015475D01*
X132243149Y-75158332D02*
X132909816Y-75158332D01*
X131862197Y-75396427D02*
X132576482Y-75634522D01*
X132576482Y-75634522D02*
X132576482Y-75015475D01*
X153464819Y-76652856D02*
X152988628Y-76986189D01*
X153464819Y-77224284D02*
X152464819Y-77224284D01*
X152464819Y-77224284D02*
X152464819Y-76843332D01*
X152464819Y-76843332D02*
X152512438Y-76748094D01*
X152512438Y-76748094D02*
X152560057Y-76700475D01*
X152560057Y-76700475D02*
X152655295Y-76652856D01*
X152655295Y-76652856D02*
X152798152Y-76652856D01*
X152798152Y-76652856D02*
X152893390Y-76700475D01*
X152893390Y-76700475D02*
X152941009Y-76748094D01*
X152941009Y-76748094D02*
X152988628Y-76843332D01*
X152988628Y-76843332D02*
X152988628Y-77224284D01*
X152464819Y-76319522D02*
X152464819Y-75700475D01*
X152464819Y-75700475D02*
X152845771Y-76033808D01*
X152845771Y-76033808D02*
X152845771Y-75890951D01*
X152845771Y-75890951D02*
X152893390Y-75795713D01*
X152893390Y-75795713D02*
X152941009Y-75748094D01*
X152941009Y-75748094D02*
X153036247Y-75700475D01*
X153036247Y-75700475D02*
X153274342Y-75700475D01*
X153274342Y-75700475D02*
X153369580Y-75748094D01*
X153369580Y-75748094D02*
X153417200Y-75795713D01*
X153417200Y-75795713D02*
X153464819Y-75890951D01*
X153464819Y-75890951D02*
X153464819Y-76176665D01*
X153464819Y-76176665D02*
X153417200Y-76271903D01*
X153417200Y-76271903D02*
X153369580Y-76319522D01*
X152464819Y-75367141D02*
X152464819Y-74700475D01*
X152464819Y-74700475D02*
X153464819Y-75129046D01*
X112857142Y-94574819D02*
X112523809Y-94098628D01*
X112285714Y-94574819D02*
X112285714Y-93574819D01*
X112285714Y-93574819D02*
X112666666Y-93574819D01*
X112666666Y-93574819D02*
X112761904Y-93622438D01*
X112761904Y-93622438D02*
X112809523Y-93670057D01*
X112809523Y-93670057D02*
X112857142Y-93765295D01*
X112857142Y-93765295D02*
X112857142Y-93908152D01*
X112857142Y-93908152D02*
X112809523Y-94003390D01*
X112809523Y-94003390D02*
X112761904Y-94051009D01*
X112761904Y-94051009D02*
X112666666Y-94098628D01*
X112666666Y-94098628D02*
X112285714Y-94098628D01*
X113809523Y-94574819D02*
X113238095Y-94574819D01*
X113523809Y-94574819D02*
X113523809Y-93574819D01*
X113523809Y-93574819D02*
X113428571Y-93717676D01*
X113428571Y-93717676D02*
X113333333Y-93812914D01*
X113333333Y-93812914D02*
X113238095Y-93860533D01*
X114714285Y-93574819D02*
X114238095Y-93574819D01*
X114238095Y-93574819D02*
X114190476Y-94051009D01*
X114190476Y-94051009D02*
X114238095Y-94003390D01*
X114238095Y-94003390D02*
X114333333Y-93955771D01*
X114333333Y-93955771D02*
X114571428Y-93955771D01*
X114571428Y-93955771D02*
X114666666Y-94003390D01*
X114666666Y-94003390D02*
X114714285Y-94051009D01*
X114714285Y-94051009D02*
X114761904Y-94146247D01*
X114761904Y-94146247D02*
X114761904Y-94384342D01*
X114761904Y-94384342D02*
X114714285Y-94479580D01*
X114714285Y-94479580D02*
X114666666Y-94527200D01*
X114666666Y-94527200D02*
X114571428Y-94574819D01*
X114571428Y-94574819D02*
X114333333Y-94574819D01*
X114333333Y-94574819D02*
X114238095Y-94527200D01*
X114238095Y-94527200D02*
X114190476Y-94479580D01*
X139834816Y-76967856D02*
X139358625Y-77301189D01*
X139834816Y-77539284D02*
X138834816Y-77539284D01*
X138834816Y-77539284D02*
X138834816Y-77158332D01*
X138834816Y-77158332D02*
X138882435Y-77063094D01*
X138882435Y-77063094D02*
X138930054Y-77015475D01*
X138930054Y-77015475D02*
X139025292Y-76967856D01*
X139025292Y-76967856D02*
X139168149Y-76967856D01*
X139168149Y-76967856D02*
X139263387Y-77015475D01*
X139263387Y-77015475D02*
X139311006Y-77063094D01*
X139311006Y-77063094D02*
X139358625Y-77158332D01*
X139358625Y-77158332D02*
X139358625Y-77539284D01*
X138930054Y-76586903D02*
X138882435Y-76539284D01*
X138882435Y-76539284D02*
X138834816Y-76444046D01*
X138834816Y-76444046D02*
X138834816Y-76205951D01*
X138834816Y-76205951D02*
X138882435Y-76110713D01*
X138882435Y-76110713D02*
X138930054Y-76063094D01*
X138930054Y-76063094D02*
X139025292Y-76015475D01*
X139025292Y-76015475D02*
X139120530Y-76015475D01*
X139120530Y-76015475D02*
X139263387Y-76063094D01*
X139263387Y-76063094D02*
X139834816Y-76634522D01*
X139834816Y-76634522D02*
X139834816Y-76015475D01*
X138834816Y-75158332D02*
X138834816Y-75348808D01*
X138834816Y-75348808D02*
X138882435Y-75444046D01*
X138882435Y-75444046D02*
X138930054Y-75491665D01*
X138930054Y-75491665D02*
X139072911Y-75586903D01*
X139072911Y-75586903D02*
X139263387Y-75634522D01*
X139263387Y-75634522D02*
X139644339Y-75634522D01*
X139644339Y-75634522D02*
X139739577Y-75586903D01*
X139739577Y-75586903D02*
X139787197Y-75539284D01*
X139787197Y-75539284D02*
X139834816Y-75444046D01*
X139834816Y-75444046D02*
X139834816Y-75253570D01*
X139834816Y-75253570D02*
X139787197Y-75158332D01*
X139787197Y-75158332D02*
X139739577Y-75110713D01*
X139739577Y-75110713D02*
X139644339Y-75063094D01*
X139644339Y-75063094D02*
X139406244Y-75063094D01*
X139406244Y-75063094D02*
X139311006Y-75110713D01*
X139311006Y-75110713D02*
X139263387Y-75158332D01*
X139263387Y-75158332D02*
X139215768Y-75253570D01*
X139215768Y-75253570D02*
X139215768Y-75444046D01*
X139215768Y-75444046D02*
X139263387Y-75539284D01*
X139263387Y-75539284D02*
X139311006Y-75586903D01*
X139311006Y-75586903D02*
X139406244Y-75634522D01*
X135788094Y-81604818D02*
X135788094Y-82414341D01*
X135788094Y-82414341D02*
X135835713Y-82509579D01*
X135835713Y-82509579D02*
X135883332Y-82557199D01*
X135883332Y-82557199D02*
X135978570Y-82604818D01*
X135978570Y-82604818D02*
X136169046Y-82604818D01*
X136169046Y-82604818D02*
X136264284Y-82557199D01*
X136264284Y-82557199D02*
X136311903Y-82509579D01*
X136311903Y-82509579D02*
X136359522Y-82414341D01*
X136359522Y-82414341D02*
X136359522Y-81604818D01*
X137359522Y-82604818D02*
X136788094Y-82604818D01*
X137073808Y-82604818D02*
X137073808Y-81604818D01*
X137073808Y-81604818D02*
X136978570Y-81747675D01*
X136978570Y-81747675D02*
X136883332Y-81842913D01*
X136883332Y-81842913D02*
X136788094Y-81890532D01*
X149969580Y-86541358D02*
X150017200Y-86588977D01*
X150017200Y-86588977D02*
X150064819Y-86731834D01*
X150064819Y-86731834D02*
X150064819Y-86827072D01*
X150064819Y-86827072D02*
X150017200Y-86969929D01*
X150017200Y-86969929D02*
X149921961Y-87065167D01*
X149921961Y-87065167D02*
X149826723Y-87112786D01*
X149826723Y-87112786D02*
X149636247Y-87160405D01*
X149636247Y-87160405D02*
X149493390Y-87160405D01*
X149493390Y-87160405D02*
X149302914Y-87112786D01*
X149302914Y-87112786D02*
X149207676Y-87065167D01*
X149207676Y-87065167D02*
X149112438Y-86969929D01*
X149112438Y-86969929D02*
X149064819Y-86827072D01*
X149064819Y-86827072D02*
X149064819Y-86731834D01*
X149064819Y-86731834D02*
X149112438Y-86588977D01*
X149112438Y-86588977D02*
X149160057Y-86541358D01*
X149398152Y-85684215D02*
X150064819Y-85684215D01*
X149017200Y-85922310D02*
X149731485Y-86160405D01*
X149731485Y-86160405D02*
X149731485Y-85541358D01*
X149064819Y-84969929D02*
X149064819Y-84874691D01*
X149064819Y-84874691D02*
X149112438Y-84779453D01*
X149112438Y-84779453D02*
X149160057Y-84731834D01*
X149160057Y-84731834D02*
X149255295Y-84684215D01*
X149255295Y-84684215D02*
X149445771Y-84636596D01*
X149445771Y-84636596D02*
X149683866Y-84636596D01*
X149683866Y-84636596D02*
X149874342Y-84684215D01*
X149874342Y-84684215D02*
X149969580Y-84731834D01*
X149969580Y-84731834D02*
X150017200Y-84779453D01*
X150017200Y-84779453D02*
X150064819Y-84874691D01*
X150064819Y-84874691D02*
X150064819Y-84969929D01*
X150064819Y-84969929D02*
X150017200Y-85065167D01*
X150017200Y-85065167D02*
X149969580Y-85112786D01*
X149969580Y-85112786D02*
X149874342Y-85160405D01*
X149874342Y-85160405D02*
X149683866Y-85208024D01*
X149683866Y-85208024D02*
X149445771Y-85208024D01*
X149445771Y-85208024D02*
X149255295Y-85160405D01*
X149255295Y-85160405D02*
X149160057Y-85112786D01*
X149160057Y-85112786D02*
X149112438Y-85065167D01*
X149112438Y-85065167D02*
X149064819Y-84969929D01*
X144649258Y-57572219D02*
X144315925Y-57096028D01*
X144077830Y-57572219D02*
X144077830Y-56572219D01*
X144077830Y-56572219D02*
X144458782Y-56572219D01*
X144458782Y-56572219D02*
X144554020Y-56619838D01*
X144554020Y-56619838D02*
X144601639Y-56667457D01*
X144601639Y-56667457D02*
X144649258Y-56762695D01*
X144649258Y-56762695D02*
X144649258Y-56905552D01*
X144649258Y-56905552D02*
X144601639Y-57000790D01*
X144601639Y-57000790D02*
X144554020Y-57048409D01*
X144554020Y-57048409D02*
X144458782Y-57096028D01*
X144458782Y-57096028D02*
X144077830Y-57096028D01*
X145030211Y-56667457D02*
X145077830Y-56619838D01*
X145077830Y-56619838D02*
X145173068Y-56572219D01*
X145173068Y-56572219D02*
X145411163Y-56572219D01*
X145411163Y-56572219D02*
X145506401Y-56619838D01*
X145506401Y-56619838D02*
X145554020Y-56667457D01*
X145554020Y-56667457D02*
X145601639Y-56762695D01*
X145601639Y-56762695D02*
X145601639Y-56857933D01*
X145601639Y-56857933D02*
X145554020Y-57000790D01*
X145554020Y-57000790D02*
X144982592Y-57572219D01*
X144982592Y-57572219D02*
X145601639Y-57572219D01*
X145982592Y-56667457D02*
X146030211Y-56619838D01*
X146030211Y-56619838D02*
X146125449Y-56572219D01*
X146125449Y-56572219D02*
X146363544Y-56572219D01*
X146363544Y-56572219D02*
X146458782Y-56619838D01*
X146458782Y-56619838D02*
X146506401Y-56667457D01*
X146506401Y-56667457D02*
X146554020Y-56762695D01*
X146554020Y-56762695D02*
X146554020Y-56857933D01*
X146554020Y-56857933D02*
X146506401Y-57000790D01*
X146506401Y-57000790D02*
X145934973Y-57572219D01*
X145934973Y-57572219D02*
X146554020Y-57572219D01*
X109428571Y-129131009D02*
X109095238Y-129131009D01*
X109095238Y-129654819D02*
X109095238Y-128654819D01*
X109095238Y-128654819D02*
X109571428Y-128654819D01*
X109952381Y-129654819D02*
X109952381Y-128654819D01*
X110428571Y-129654819D02*
X110428571Y-128654819D01*
X110428571Y-128654819D02*
X110666666Y-128654819D01*
X110666666Y-128654819D02*
X110809523Y-128702438D01*
X110809523Y-128702438D02*
X110904761Y-128797676D01*
X110904761Y-128797676D02*
X110952380Y-128892914D01*
X110952380Y-128892914D02*
X110999999Y-129083390D01*
X110999999Y-129083390D02*
X110999999Y-129226247D01*
X110999999Y-129226247D02*
X110952380Y-129416723D01*
X110952380Y-129416723D02*
X110904761Y-129511961D01*
X110904761Y-129511961D02*
X110809523Y-129607200D01*
X110809523Y-129607200D02*
X110666666Y-129654819D01*
X110666666Y-129654819D02*
X110428571Y-129654819D01*
X111952380Y-129654819D02*
X111380952Y-129654819D01*
X111666666Y-129654819D02*
X111666666Y-128654819D01*
X111666666Y-128654819D02*
X111571428Y-128797676D01*
X111571428Y-128797676D02*
X111476190Y-128892914D01*
X111476190Y-128892914D02*
X111380952Y-128940533D01*
X146749816Y-76967857D02*
X146273625Y-77301190D01*
X146749816Y-77539285D02*
X145749816Y-77539285D01*
X145749816Y-77539285D02*
X145749816Y-77158333D01*
X145749816Y-77158333D02*
X145797435Y-77063095D01*
X145797435Y-77063095D02*
X145845054Y-77015476D01*
X145845054Y-77015476D02*
X145940292Y-76967857D01*
X145940292Y-76967857D02*
X146083149Y-76967857D01*
X146083149Y-76967857D02*
X146178387Y-77015476D01*
X146178387Y-77015476D02*
X146226006Y-77063095D01*
X146226006Y-77063095D02*
X146273625Y-77158333D01*
X146273625Y-77158333D02*
X146273625Y-77539285D01*
X145845054Y-76586904D02*
X145797435Y-76539285D01*
X145797435Y-76539285D02*
X145749816Y-76444047D01*
X145749816Y-76444047D02*
X145749816Y-76205952D01*
X145749816Y-76205952D02*
X145797435Y-76110714D01*
X145797435Y-76110714D02*
X145845054Y-76063095D01*
X145845054Y-76063095D02*
X145940292Y-76015476D01*
X145940292Y-76015476D02*
X146035530Y-76015476D01*
X146035530Y-76015476D02*
X146178387Y-76063095D01*
X146178387Y-76063095D02*
X146749816Y-76634523D01*
X146749816Y-76634523D02*
X146749816Y-76015476D01*
X146178387Y-75444047D02*
X146130768Y-75539285D01*
X146130768Y-75539285D02*
X146083149Y-75586904D01*
X146083149Y-75586904D02*
X145987911Y-75634523D01*
X145987911Y-75634523D02*
X145940292Y-75634523D01*
X145940292Y-75634523D02*
X145845054Y-75586904D01*
X145845054Y-75586904D02*
X145797435Y-75539285D01*
X145797435Y-75539285D02*
X145749816Y-75444047D01*
X145749816Y-75444047D02*
X145749816Y-75253571D01*
X145749816Y-75253571D02*
X145797435Y-75158333D01*
X145797435Y-75158333D02*
X145845054Y-75110714D01*
X145845054Y-75110714D02*
X145940292Y-75063095D01*
X145940292Y-75063095D02*
X145987911Y-75063095D01*
X145987911Y-75063095D02*
X146083149Y-75110714D01*
X146083149Y-75110714D02*
X146130768Y-75158333D01*
X146130768Y-75158333D02*
X146178387Y-75253571D01*
X146178387Y-75253571D02*
X146178387Y-75444047D01*
X146178387Y-75444047D02*
X146226006Y-75539285D01*
X146226006Y-75539285D02*
X146273625Y-75586904D01*
X146273625Y-75586904D02*
X146368863Y-75634523D01*
X146368863Y-75634523D02*
X146559339Y-75634523D01*
X146559339Y-75634523D02*
X146654577Y-75586904D01*
X146654577Y-75586904D02*
X146702197Y-75539285D01*
X146702197Y-75539285D02*
X146749816Y-75444047D01*
X146749816Y-75444047D02*
X146749816Y-75253571D01*
X146749816Y-75253571D02*
X146702197Y-75158333D01*
X146702197Y-75158333D02*
X146654577Y-75110714D01*
X146654577Y-75110714D02*
X146559339Y-75063095D01*
X146559339Y-75063095D02*
X146368863Y-75063095D01*
X146368863Y-75063095D02*
X146273625Y-75110714D01*
X146273625Y-75110714D02*
X146226006Y-75158333D01*
X146226006Y-75158333D02*
X146178387Y-75253571D01*
X153586783Y-81828080D02*
X153539164Y-81875700D01*
X153539164Y-81875700D02*
X153396307Y-81923319D01*
X153396307Y-81923319D02*
X153301069Y-81923319D01*
X153301069Y-81923319D02*
X153158212Y-81875700D01*
X153158212Y-81875700D02*
X153062974Y-81780461D01*
X153062974Y-81780461D02*
X153015355Y-81685223D01*
X153015355Y-81685223D02*
X152967736Y-81494747D01*
X152967736Y-81494747D02*
X152967736Y-81351890D01*
X152967736Y-81351890D02*
X153015355Y-81161414D01*
X153015355Y-81161414D02*
X153062974Y-81066176D01*
X153062974Y-81066176D02*
X153158212Y-80970938D01*
X153158212Y-80970938D02*
X153301069Y-80923319D01*
X153301069Y-80923319D02*
X153396307Y-80923319D01*
X153396307Y-80923319D02*
X153539164Y-80970938D01*
X153539164Y-80970938D02*
X153586783Y-81018557D01*
X154586783Y-81923319D02*
X154253450Y-81447128D01*
X154015355Y-81923319D02*
X154015355Y-80923319D01*
X154015355Y-80923319D02*
X154396307Y-80923319D01*
X154396307Y-80923319D02*
X154491545Y-80970938D01*
X154491545Y-80970938D02*
X154539164Y-81018557D01*
X154539164Y-81018557D02*
X154586783Y-81113795D01*
X154586783Y-81113795D02*
X154586783Y-81256652D01*
X154586783Y-81256652D02*
X154539164Y-81351890D01*
X154539164Y-81351890D02*
X154491545Y-81399509D01*
X154491545Y-81399509D02*
X154396307Y-81447128D01*
X154396307Y-81447128D02*
X154015355Y-81447128D01*
X154967736Y-81018557D02*
X155015355Y-80970938D01*
X155015355Y-80970938D02*
X155110593Y-80923319D01*
X155110593Y-80923319D02*
X155348688Y-80923319D01*
X155348688Y-80923319D02*
X155443926Y-80970938D01*
X155443926Y-80970938D02*
X155491545Y-81018557D01*
X155491545Y-81018557D02*
X155539164Y-81113795D01*
X155539164Y-81113795D02*
X155539164Y-81209033D01*
X155539164Y-81209033D02*
X155491545Y-81351890D01*
X155491545Y-81351890D02*
X154920117Y-81923319D01*
X154920117Y-81923319D02*
X155539164Y-81923319D01*
X151350100Y-81347719D02*
X151350100Y-81585814D01*
X151112005Y-81490576D02*
X151350100Y-81585814D01*
X151350100Y-81585814D02*
X151588195Y-81490576D01*
X151207243Y-81776290D02*
X151350100Y-81585814D01*
X151350100Y-81585814D02*
X151492957Y-81776290D01*
X151350100Y-81347719D02*
X151350100Y-81585814D01*
X151112005Y-81490576D02*
X151350100Y-81585814D01*
X151350100Y-81585814D02*
X151588195Y-81490576D01*
X151207243Y-81776290D02*
X151350100Y-81585814D01*
X151350100Y-81585814D02*
X151492957Y-81776290D01*
X134997142Y-76669580D02*
X134949523Y-76717200D01*
X134949523Y-76717200D02*
X134806666Y-76764819D01*
X134806666Y-76764819D02*
X134711428Y-76764819D01*
X134711428Y-76764819D02*
X134568571Y-76717200D01*
X134568571Y-76717200D02*
X134473333Y-76621961D01*
X134473333Y-76621961D02*
X134425714Y-76526723D01*
X134425714Y-76526723D02*
X134378095Y-76336247D01*
X134378095Y-76336247D02*
X134378095Y-76193390D01*
X134378095Y-76193390D02*
X134425714Y-76002914D01*
X134425714Y-76002914D02*
X134473333Y-75907676D01*
X134473333Y-75907676D02*
X134568571Y-75812438D01*
X134568571Y-75812438D02*
X134711428Y-75764819D01*
X134711428Y-75764819D02*
X134806666Y-75764819D01*
X134806666Y-75764819D02*
X134949523Y-75812438D01*
X134949523Y-75812438D02*
X134997142Y-75860057D01*
X135330476Y-75764819D02*
X135949523Y-75764819D01*
X135949523Y-75764819D02*
X135616190Y-76145771D01*
X135616190Y-76145771D02*
X135759047Y-76145771D01*
X135759047Y-76145771D02*
X135854285Y-76193390D01*
X135854285Y-76193390D02*
X135901904Y-76241009D01*
X135901904Y-76241009D02*
X135949523Y-76336247D01*
X135949523Y-76336247D02*
X135949523Y-76574342D01*
X135949523Y-76574342D02*
X135901904Y-76669580D01*
X135901904Y-76669580D02*
X135854285Y-76717200D01*
X135854285Y-76717200D02*
X135759047Y-76764819D01*
X135759047Y-76764819D02*
X135473333Y-76764819D01*
X135473333Y-76764819D02*
X135378095Y-76717200D01*
X135378095Y-76717200D02*
X135330476Y-76669580D01*
X136568571Y-75764819D02*
X136663809Y-75764819D01*
X136663809Y-75764819D02*
X136759047Y-75812438D01*
X136759047Y-75812438D02*
X136806666Y-75860057D01*
X136806666Y-75860057D02*
X136854285Y-75955295D01*
X136854285Y-75955295D02*
X136901904Y-76145771D01*
X136901904Y-76145771D02*
X136901904Y-76383866D01*
X136901904Y-76383866D02*
X136854285Y-76574342D01*
X136854285Y-76574342D02*
X136806666Y-76669580D01*
X136806666Y-76669580D02*
X136759047Y-76717200D01*
X136759047Y-76717200D02*
X136663809Y-76764819D01*
X136663809Y-76764819D02*
X136568571Y-76764819D01*
X136568571Y-76764819D02*
X136473333Y-76717200D01*
X136473333Y-76717200D02*
X136425714Y-76669580D01*
X136425714Y-76669580D02*
X136378095Y-76574342D01*
X136378095Y-76574342D02*
X136330476Y-76383866D01*
X136330476Y-76383866D02*
X136330476Y-76145771D01*
X136330476Y-76145771D02*
X136378095Y-75955295D01*
X136378095Y-75955295D02*
X136425714Y-75860057D01*
X136425714Y-75860057D02*
X136473333Y-75812438D01*
X136473333Y-75812438D02*
X136568571Y-75764819D01*
X123993157Y-57845238D02*
X123945538Y-57940476D01*
X123945538Y-57940476D02*
X123850300Y-58035714D01*
X123850300Y-58035714D02*
X123707442Y-58178571D01*
X123707442Y-58178571D02*
X123659823Y-58273809D01*
X123659823Y-58273809D02*
X123659823Y-58369047D01*
X123897919Y-58321428D02*
X123850300Y-58416666D01*
X123850300Y-58416666D02*
X123755061Y-58511904D01*
X123755061Y-58511904D02*
X123564585Y-58559523D01*
X123564585Y-58559523D02*
X123231252Y-58559523D01*
X123231252Y-58559523D02*
X123040776Y-58511904D01*
X123040776Y-58511904D02*
X122945538Y-58416666D01*
X122945538Y-58416666D02*
X122897919Y-58321428D01*
X122897919Y-58321428D02*
X122897919Y-58130952D01*
X122897919Y-58130952D02*
X122945538Y-58035714D01*
X122945538Y-58035714D02*
X123040776Y-57940476D01*
X123040776Y-57940476D02*
X123231252Y-57892857D01*
X123231252Y-57892857D02*
X123564585Y-57892857D01*
X123564585Y-57892857D02*
X123755061Y-57940476D01*
X123755061Y-57940476D02*
X123850300Y-58035714D01*
X123850300Y-58035714D02*
X123897919Y-58130952D01*
X123897919Y-58130952D02*
X123897919Y-58321428D01*
X123897919Y-56940476D02*
X123897919Y-57511904D01*
X123897919Y-57226190D02*
X122897919Y-57226190D01*
X122897919Y-57226190D02*
X123040776Y-57321428D01*
X123040776Y-57321428D02*
X123136014Y-57416666D01*
X123136014Y-57416666D02*
X123183633Y-57511904D01*
X135397919Y-61749999D02*
X135636014Y-61749999D01*
X135540776Y-61988094D02*
X135636014Y-61749999D01*
X135636014Y-61749999D02*
X135540776Y-61511904D01*
X135826490Y-61892856D02*
X135636014Y-61749999D01*
X135636014Y-61749999D02*
X135826490Y-61607142D01*
X135397919Y-61749999D02*
X135636014Y-61749999D01*
X135540776Y-61988094D02*
X135636014Y-61749999D01*
X135636014Y-61749999D02*
X135540776Y-61511904D01*
X135826490Y-61892856D02*
X135636014Y-61749999D01*
X135636014Y-61749999D02*
X135826490Y-61607142D01*
X149973030Y-97622859D02*
X150020650Y-97670478D01*
X150020650Y-97670478D02*
X150068269Y-97813335D01*
X150068269Y-97813335D02*
X150068269Y-97908573D01*
X150068269Y-97908573D02*
X150020650Y-98051430D01*
X150020650Y-98051430D02*
X149925411Y-98146668D01*
X149925411Y-98146668D02*
X149830173Y-98194287D01*
X149830173Y-98194287D02*
X149639697Y-98241906D01*
X149639697Y-98241906D02*
X149496840Y-98241906D01*
X149496840Y-98241906D02*
X149306364Y-98194287D01*
X149306364Y-98194287D02*
X149211126Y-98146668D01*
X149211126Y-98146668D02*
X149115888Y-98051430D01*
X149115888Y-98051430D02*
X149068269Y-97908573D01*
X149068269Y-97908573D02*
X149068269Y-97813335D01*
X149068269Y-97813335D02*
X149115888Y-97670478D01*
X149115888Y-97670478D02*
X149163507Y-97622859D01*
X149068269Y-97289525D02*
X149068269Y-96670478D01*
X149068269Y-96670478D02*
X149449221Y-97003811D01*
X149449221Y-97003811D02*
X149449221Y-96860954D01*
X149449221Y-96860954D02*
X149496840Y-96765716D01*
X149496840Y-96765716D02*
X149544459Y-96718097D01*
X149544459Y-96718097D02*
X149639697Y-96670478D01*
X149639697Y-96670478D02*
X149877792Y-96670478D01*
X149877792Y-96670478D02*
X149973030Y-96718097D01*
X149973030Y-96718097D02*
X150020650Y-96765716D01*
X150020650Y-96765716D02*
X150068269Y-96860954D01*
X150068269Y-96860954D02*
X150068269Y-97146668D01*
X150068269Y-97146668D02*
X150020650Y-97241906D01*
X150020650Y-97241906D02*
X149973030Y-97289525D01*
X149496840Y-96099049D02*
X149449221Y-96194287D01*
X149449221Y-96194287D02*
X149401602Y-96241906D01*
X149401602Y-96241906D02*
X149306364Y-96289525D01*
X149306364Y-96289525D02*
X149258745Y-96289525D01*
X149258745Y-96289525D02*
X149163507Y-96241906D01*
X149163507Y-96241906D02*
X149115888Y-96194287D01*
X149115888Y-96194287D02*
X149068269Y-96099049D01*
X149068269Y-96099049D02*
X149068269Y-95908573D01*
X149068269Y-95908573D02*
X149115888Y-95813335D01*
X149115888Y-95813335D02*
X149163507Y-95765716D01*
X149163507Y-95765716D02*
X149258745Y-95718097D01*
X149258745Y-95718097D02*
X149306364Y-95718097D01*
X149306364Y-95718097D02*
X149401602Y-95765716D01*
X149401602Y-95765716D02*
X149449221Y-95813335D01*
X149449221Y-95813335D02*
X149496840Y-95908573D01*
X149496840Y-95908573D02*
X149496840Y-96099049D01*
X149496840Y-96099049D02*
X149544459Y-96194287D01*
X149544459Y-96194287D02*
X149592078Y-96241906D01*
X149592078Y-96241906D02*
X149687316Y-96289525D01*
X149687316Y-96289525D02*
X149877792Y-96289525D01*
X149877792Y-96289525D02*
X149973030Y-96241906D01*
X149973030Y-96241906D02*
X150020650Y-96194287D01*
X150020650Y-96194287D02*
X150068269Y-96099049D01*
X150068269Y-96099049D02*
X150068269Y-95908573D01*
X150068269Y-95908573D02*
X150020650Y-95813335D01*
X150020650Y-95813335D02*
X149973030Y-95765716D01*
X149973030Y-95765716D02*
X149877792Y-95718097D01*
X149877792Y-95718097D02*
X149687316Y-95718097D01*
X149687316Y-95718097D02*
X149592078Y-95765716D01*
X149592078Y-95765716D02*
X149544459Y-95813335D01*
X149544459Y-95813335D02*
X149496840Y-95908573D01*
X155010592Y-97069581D02*
X154962973Y-97117201D01*
X154962973Y-97117201D02*
X154820116Y-97164820D01*
X154820116Y-97164820D02*
X154724878Y-97164820D01*
X154724878Y-97164820D02*
X154582021Y-97117201D01*
X154582021Y-97117201D02*
X154486783Y-97021962D01*
X154486783Y-97021962D02*
X154439164Y-96926724D01*
X154439164Y-96926724D02*
X154391545Y-96736248D01*
X154391545Y-96736248D02*
X154391545Y-96593391D01*
X154391545Y-96593391D02*
X154439164Y-96402915D01*
X154439164Y-96402915D02*
X154486783Y-96307677D01*
X154486783Y-96307677D02*
X154582021Y-96212439D01*
X154582021Y-96212439D02*
X154724878Y-96164820D01*
X154724878Y-96164820D02*
X154820116Y-96164820D01*
X154820116Y-96164820D02*
X154962973Y-96212439D01*
X154962973Y-96212439D02*
X155010592Y-96260058D01*
X155867735Y-96498153D02*
X155867735Y-97164820D01*
X155629640Y-96117201D02*
X155391545Y-96831486D01*
X155391545Y-96831486D02*
X156010592Y-96831486D01*
X156915354Y-97164820D02*
X156343926Y-97164820D01*
X156629640Y-97164820D02*
X156629640Y-96164820D01*
X156629640Y-96164820D02*
X156534402Y-96307677D01*
X156534402Y-96307677D02*
X156439164Y-96402915D01*
X156439164Y-96402915D02*
X156343926Y-96450534D01*
X112857142Y-89949819D02*
X112523809Y-89473628D01*
X112285714Y-89949819D02*
X112285714Y-88949819D01*
X112285714Y-88949819D02*
X112666666Y-88949819D01*
X112666666Y-88949819D02*
X112761904Y-88997438D01*
X112761904Y-88997438D02*
X112809523Y-89045057D01*
X112809523Y-89045057D02*
X112857142Y-89140295D01*
X112857142Y-89140295D02*
X112857142Y-89283152D01*
X112857142Y-89283152D02*
X112809523Y-89378390D01*
X112809523Y-89378390D02*
X112761904Y-89426009D01*
X112761904Y-89426009D02*
X112666666Y-89473628D01*
X112666666Y-89473628D02*
X112285714Y-89473628D01*
X113809523Y-89949819D02*
X113238095Y-89949819D01*
X113523809Y-89949819D02*
X113523809Y-88949819D01*
X113523809Y-88949819D02*
X113428571Y-89092676D01*
X113428571Y-89092676D02*
X113333333Y-89187914D01*
X113333333Y-89187914D02*
X113238095Y-89235533D01*
X114142857Y-88949819D02*
X114761904Y-88949819D01*
X114761904Y-88949819D02*
X114428571Y-89330771D01*
X114428571Y-89330771D02*
X114571428Y-89330771D01*
X114571428Y-89330771D02*
X114666666Y-89378390D01*
X114666666Y-89378390D02*
X114714285Y-89426009D01*
X114714285Y-89426009D02*
X114761904Y-89521247D01*
X114761904Y-89521247D02*
X114761904Y-89759342D01*
X114761904Y-89759342D02*
X114714285Y-89854580D01*
X114714285Y-89854580D02*
X114666666Y-89902200D01*
X114666666Y-89902200D02*
X114571428Y-89949819D01*
X114571428Y-89949819D02*
X114285714Y-89949819D01*
X114285714Y-89949819D02*
X114190476Y-89902200D01*
X114190476Y-89902200D02*
X114142857Y-89854580D01*
X130332142Y-82289580D02*
X130284523Y-82337200D01*
X130284523Y-82337200D02*
X130141666Y-82384819D01*
X130141666Y-82384819D02*
X130046428Y-82384819D01*
X130046428Y-82384819D02*
X129903571Y-82337200D01*
X129903571Y-82337200D02*
X129808333Y-82241961D01*
X129808333Y-82241961D02*
X129760714Y-82146723D01*
X129760714Y-82146723D02*
X129713095Y-81956247D01*
X129713095Y-81956247D02*
X129713095Y-81813390D01*
X129713095Y-81813390D02*
X129760714Y-81622914D01*
X129760714Y-81622914D02*
X129808333Y-81527676D01*
X129808333Y-81527676D02*
X129903571Y-81432438D01*
X129903571Y-81432438D02*
X130046428Y-81384819D01*
X130046428Y-81384819D02*
X130141666Y-81384819D01*
X130141666Y-81384819D02*
X130284523Y-81432438D01*
X130284523Y-81432438D02*
X130332142Y-81480057D01*
X130713095Y-81480057D02*
X130760714Y-81432438D01*
X130760714Y-81432438D02*
X130855952Y-81384819D01*
X130855952Y-81384819D02*
X131094047Y-81384819D01*
X131094047Y-81384819D02*
X131189285Y-81432438D01*
X131189285Y-81432438D02*
X131236904Y-81480057D01*
X131236904Y-81480057D02*
X131284523Y-81575295D01*
X131284523Y-81575295D02*
X131284523Y-81670533D01*
X131284523Y-81670533D02*
X131236904Y-81813390D01*
X131236904Y-81813390D02*
X130665476Y-82384819D01*
X130665476Y-82384819D02*
X131284523Y-82384819D01*
X132141666Y-81384819D02*
X131951190Y-81384819D01*
X131951190Y-81384819D02*
X131855952Y-81432438D01*
X131855952Y-81432438D02*
X131808333Y-81480057D01*
X131808333Y-81480057D02*
X131713095Y-81622914D01*
X131713095Y-81622914D02*
X131665476Y-81813390D01*
X131665476Y-81813390D02*
X131665476Y-82194342D01*
X131665476Y-82194342D02*
X131713095Y-82289580D01*
X131713095Y-82289580D02*
X131760714Y-82337200D01*
X131760714Y-82337200D02*
X131855952Y-82384819D01*
X131855952Y-82384819D02*
X132046428Y-82384819D01*
X132046428Y-82384819D02*
X132141666Y-82337200D01*
X132141666Y-82337200D02*
X132189285Y-82289580D01*
X132189285Y-82289580D02*
X132236904Y-82194342D01*
X132236904Y-82194342D02*
X132236904Y-81956247D01*
X132236904Y-81956247D02*
X132189285Y-81861009D01*
X132189285Y-81861009D02*
X132141666Y-81813390D01*
X132141666Y-81813390D02*
X132046428Y-81765771D01*
X132046428Y-81765771D02*
X131855952Y-81765771D01*
X131855952Y-81765771D02*
X131760714Y-81813390D01*
X131760714Y-81813390D02*
X131713095Y-81861009D01*
X131713095Y-81861009D02*
X131665476Y-81956247D01*
X149757142Y-103489580D02*
X149709523Y-103537200D01*
X149709523Y-103537200D02*
X149566666Y-103584819D01*
X149566666Y-103584819D02*
X149471428Y-103584819D01*
X149471428Y-103584819D02*
X149328571Y-103537200D01*
X149328571Y-103537200D02*
X149233333Y-103441961D01*
X149233333Y-103441961D02*
X149185714Y-103346723D01*
X149185714Y-103346723D02*
X149138095Y-103156247D01*
X149138095Y-103156247D02*
X149138095Y-103013390D01*
X149138095Y-103013390D02*
X149185714Y-102822914D01*
X149185714Y-102822914D02*
X149233333Y-102727676D01*
X149233333Y-102727676D02*
X149328571Y-102632438D01*
X149328571Y-102632438D02*
X149471428Y-102584819D01*
X149471428Y-102584819D02*
X149566666Y-102584819D01*
X149566666Y-102584819D02*
X149709523Y-102632438D01*
X149709523Y-102632438D02*
X149757142Y-102680057D01*
X150138095Y-102680057D02*
X150185714Y-102632438D01*
X150185714Y-102632438D02*
X150280952Y-102584819D01*
X150280952Y-102584819D02*
X150519047Y-102584819D01*
X150519047Y-102584819D02*
X150614285Y-102632438D01*
X150614285Y-102632438D02*
X150661904Y-102680057D01*
X150661904Y-102680057D02*
X150709523Y-102775295D01*
X150709523Y-102775295D02*
X150709523Y-102870533D01*
X150709523Y-102870533D02*
X150661904Y-103013390D01*
X150661904Y-103013390D02*
X150090476Y-103584819D01*
X150090476Y-103584819D02*
X150709523Y-103584819D01*
X151042857Y-102584819D02*
X151661904Y-102584819D01*
X151661904Y-102584819D02*
X151328571Y-102965771D01*
X151328571Y-102965771D02*
X151471428Y-102965771D01*
X151471428Y-102965771D02*
X151566666Y-103013390D01*
X151566666Y-103013390D02*
X151614285Y-103061009D01*
X151614285Y-103061009D02*
X151661904Y-103156247D01*
X151661904Y-103156247D02*
X151661904Y-103394342D01*
X151661904Y-103394342D02*
X151614285Y-103489580D01*
X151614285Y-103489580D02*
X151566666Y-103537200D01*
X151566666Y-103537200D02*
X151471428Y-103584819D01*
X151471428Y-103584819D02*
X151185714Y-103584819D01*
X151185714Y-103584819D02*
X151090476Y-103537200D01*
X151090476Y-103537200D02*
X151042857Y-103489580D01*
X155057142Y-85988080D02*
X155009523Y-86035700D01*
X155009523Y-86035700D02*
X154866666Y-86083319D01*
X154866666Y-86083319D02*
X154771428Y-86083319D01*
X154771428Y-86083319D02*
X154628571Y-86035700D01*
X154628571Y-86035700D02*
X154533333Y-85940461D01*
X154533333Y-85940461D02*
X154485714Y-85845223D01*
X154485714Y-85845223D02*
X154438095Y-85654747D01*
X154438095Y-85654747D02*
X154438095Y-85511890D01*
X154438095Y-85511890D02*
X154485714Y-85321414D01*
X154485714Y-85321414D02*
X154533333Y-85226176D01*
X154533333Y-85226176D02*
X154628571Y-85130938D01*
X154628571Y-85130938D02*
X154771428Y-85083319D01*
X154771428Y-85083319D02*
X154866666Y-85083319D01*
X154866666Y-85083319D02*
X155009523Y-85130938D01*
X155009523Y-85130938D02*
X155057142Y-85178557D01*
X155914285Y-85416652D02*
X155914285Y-86083319D01*
X155676190Y-85035700D02*
X155438095Y-85749985D01*
X155438095Y-85749985D02*
X156057142Y-85749985D01*
X156390476Y-85178557D02*
X156438095Y-85130938D01*
X156438095Y-85130938D02*
X156533333Y-85083319D01*
X156533333Y-85083319D02*
X156771428Y-85083319D01*
X156771428Y-85083319D02*
X156866666Y-85130938D01*
X156866666Y-85130938D02*
X156914285Y-85178557D01*
X156914285Y-85178557D02*
X156961904Y-85273795D01*
X156961904Y-85273795D02*
X156961904Y-85369033D01*
X156961904Y-85369033D02*
X156914285Y-85511890D01*
X156914285Y-85511890D02*
X156342857Y-86083319D01*
X156342857Y-86083319D02*
X156961904Y-86083319D01*
X150717142Y-78959579D02*
X150669523Y-79007199D01*
X150669523Y-79007199D02*
X150526666Y-79054818D01*
X150526666Y-79054818D02*
X150431428Y-79054818D01*
X150431428Y-79054818D02*
X150288571Y-79007199D01*
X150288571Y-79007199D02*
X150193333Y-78911960D01*
X150193333Y-78911960D02*
X150145714Y-78816722D01*
X150145714Y-78816722D02*
X150098095Y-78626246D01*
X150098095Y-78626246D02*
X150098095Y-78483389D01*
X150098095Y-78483389D02*
X150145714Y-78292913D01*
X150145714Y-78292913D02*
X150193333Y-78197675D01*
X150193333Y-78197675D02*
X150288571Y-78102437D01*
X150288571Y-78102437D02*
X150431428Y-78054818D01*
X150431428Y-78054818D02*
X150526666Y-78054818D01*
X150526666Y-78054818D02*
X150669523Y-78102437D01*
X150669523Y-78102437D02*
X150717142Y-78150056D01*
X151050476Y-78054818D02*
X151669523Y-78054818D01*
X151669523Y-78054818D02*
X151336190Y-78435770D01*
X151336190Y-78435770D02*
X151479047Y-78435770D01*
X151479047Y-78435770D02*
X151574285Y-78483389D01*
X151574285Y-78483389D02*
X151621904Y-78531008D01*
X151621904Y-78531008D02*
X151669523Y-78626246D01*
X151669523Y-78626246D02*
X151669523Y-78864341D01*
X151669523Y-78864341D02*
X151621904Y-78959579D01*
X151621904Y-78959579D02*
X151574285Y-79007199D01*
X151574285Y-79007199D02*
X151479047Y-79054818D01*
X151479047Y-79054818D02*
X151193333Y-79054818D01*
X151193333Y-79054818D02*
X151098095Y-79007199D01*
X151098095Y-79007199D02*
X151050476Y-78959579D01*
X152574285Y-78054818D02*
X152098095Y-78054818D01*
X152098095Y-78054818D02*
X152050476Y-78531008D01*
X152050476Y-78531008D02*
X152098095Y-78483389D01*
X152098095Y-78483389D02*
X152193333Y-78435770D01*
X152193333Y-78435770D02*
X152431428Y-78435770D01*
X152431428Y-78435770D02*
X152526666Y-78483389D01*
X152526666Y-78483389D02*
X152574285Y-78531008D01*
X152574285Y-78531008D02*
X152621904Y-78626246D01*
X152621904Y-78626246D02*
X152621904Y-78864341D01*
X152621904Y-78864341D02*
X152574285Y-78959579D01*
X152574285Y-78959579D02*
X152526666Y-79007199D01*
X152526666Y-79007199D02*
X152431428Y-79054818D01*
X152431428Y-79054818D02*
X152193333Y-79054818D01*
X152193333Y-79054818D02*
X152098095Y-79007199D01*
X152098095Y-79007199D02*
X152050476Y-78959579D01*
X118658333Y-74962319D02*
X118325000Y-74486128D01*
X118086905Y-74962319D02*
X118086905Y-73962319D01*
X118086905Y-73962319D02*
X118467857Y-73962319D01*
X118467857Y-73962319D02*
X118563095Y-74009938D01*
X118563095Y-74009938D02*
X118610714Y-74057557D01*
X118610714Y-74057557D02*
X118658333Y-74152795D01*
X118658333Y-74152795D02*
X118658333Y-74295652D01*
X118658333Y-74295652D02*
X118610714Y-74390890D01*
X118610714Y-74390890D02*
X118563095Y-74438509D01*
X118563095Y-74438509D02*
X118467857Y-74486128D01*
X118467857Y-74486128D02*
X118086905Y-74486128D01*
X119515476Y-74295652D02*
X119515476Y-74962319D01*
X119277381Y-73914700D02*
X119039286Y-74628985D01*
X119039286Y-74628985D02*
X119658333Y-74628985D01*
X102988095Y-65054819D02*
X102988095Y-64054819D01*
X102988095Y-64531009D02*
X103559523Y-64531009D01*
X103559523Y-65054819D02*
X103559523Y-64054819D01*
X104464285Y-64388152D02*
X104464285Y-65054819D01*
X104226190Y-64007200D02*
X103988095Y-64721485D01*
X103988095Y-64721485D02*
X104607142Y-64721485D01*
X139008333Y-99229580D02*
X138960714Y-99277200D01*
X138960714Y-99277200D02*
X138817857Y-99324819D01*
X138817857Y-99324819D02*
X138722619Y-99324819D01*
X138722619Y-99324819D02*
X138579762Y-99277200D01*
X138579762Y-99277200D02*
X138484524Y-99181961D01*
X138484524Y-99181961D02*
X138436905Y-99086723D01*
X138436905Y-99086723D02*
X138389286Y-98896247D01*
X138389286Y-98896247D02*
X138389286Y-98753390D01*
X138389286Y-98753390D02*
X138436905Y-98562914D01*
X138436905Y-98562914D02*
X138484524Y-98467676D01*
X138484524Y-98467676D02*
X138579762Y-98372438D01*
X138579762Y-98372438D02*
X138722619Y-98324819D01*
X138722619Y-98324819D02*
X138817857Y-98324819D01*
X138817857Y-98324819D02*
X138960714Y-98372438D01*
X138960714Y-98372438D02*
X139008333Y-98420057D01*
X139484524Y-99324819D02*
X139675000Y-99324819D01*
X139675000Y-99324819D02*
X139770238Y-99277200D01*
X139770238Y-99277200D02*
X139817857Y-99229580D01*
X139817857Y-99229580D02*
X139913095Y-99086723D01*
X139913095Y-99086723D02*
X139960714Y-98896247D01*
X139960714Y-98896247D02*
X139960714Y-98515295D01*
X139960714Y-98515295D02*
X139913095Y-98420057D01*
X139913095Y-98420057D02*
X139865476Y-98372438D01*
X139865476Y-98372438D02*
X139770238Y-98324819D01*
X139770238Y-98324819D02*
X139579762Y-98324819D01*
X139579762Y-98324819D02*
X139484524Y-98372438D01*
X139484524Y-98372438D02*
X139436905Y-98420057D01*
X139436905Y-98420057D02*
X139389286Y-98515295D01*
X139389286Y-98515295D02*
X139389286Y-98753390D01*
X139389286Y-98753390D02*
X139436905Y-98848628D01*
X139436905Y-98848628D02*
X139484524Y-98896247D01*
X139484524Y-98896247D02*
X139579762Y-98943866D01*
X139579762Y-98943866D02*
X139770238Y-98943866D01*
X139770238Y-98943866D02*
X139865476Y-98896247D01*
X139865476Y-98896247D02*
X139913095Y-98848628D01*
X139913095Y-98848628D02*
X139960714Y-98753390D01*
X97788095Y-140506819D02*
X98359523Y-140506819D01*
X98073809Y-141506819D02*
X98073809Y-140506819D01*
X98692857Y-141506819D02*
X98692857Y-140506819D01*
X98692857Y-140506819D02*
X99073809Y-140506819D01*
X99073809Y-140506819D02*
X99169047Y-140554438D01*
X99169047Y-140554438D02*
X99216666Y-140602057D01*
X99216666Y-140602057D02*
X99264285Y-140697295D01*
X99264285Y-140697295D02*
X99264285Y-140840152D01*
X99264285Y-140840152D02*
X99216666Y-140935390D01*
X99216666Y-140935390D02*
X99169047Y-140983009D01*
X99169047Y-140983009D02*
X99073809Y-141030628D01*
X99073809Y-141030628D02*
X98692857Y-141030628D01*
X99597619Y-140506819D02*
X100216666Y-140506819D01*
X100216666Y-140506819D02*
X99883333Y-140887771D01*
X99883333Y-140887771D02*
X100026190Y-140887771D01*
X100026190Y-140887771D02*
X100121428Y-140935390D01*
X100121428Y-140935390D02*
X100169047Y-140983009D01*
X100169047Y-140983009D02*
X100216666Y-141078247D01*
X100216666Y-141078247D02*
X100216666Y-141316342D01*
X100216666Y-141316342D02*
X100169047Y-141411580D01*
X100169047Y-141411580D02*
X100121428Y-141459200D01*
X100121428Y-141459200D02*
X100026190Y-141506819D01*
X100026190Y-141506819D02*
X99740476Y-141506819D01*
X99740476Y-141506819D02*
X99645238Y-141459200D01*
X99645238Y-141459200D02*
X99597619Y-141411580D01*
X118658333Y-79587319D02*
X118325000Y-79111128D01*
X118086905Y-79587319D02*
X118086905Y-78587319D01*
X118086905Y-78587319D02*
X118467857Y-78587319D01*
X118467857Y-78587319D02*
X118563095Y-78634938D01*
X118563095Y-78634938D02*
X118610714Y-78682557D01*
X118610714Y-78682557D02*
X118658333Y-78777795D01*
X118658333Y-78777795D02*
X118658333Y-78920652D01*
X118658333Y-78920652D02*
X118610714Y-79015890D01*
X118610714Y-79015890D02*
X118563095Y-79063509D01*
X118563095Y-79063509D02*
X118467857Y-79111128D01*
X118467857Y-79111128D02*
X118086905Y-79111128D01*
X119515476Y-78587319D02*
X119325000Y-78587319D01*
X119325000Y-78587319D02*
X119229762Y-78634938D01*
X119229762Y-78634938D02*
X119182143Y-78682557D01*
X119182143Y-78682557D02*
X119086905Y-78825414D01*
X119086905Y-78825414D02*
X119039286Y-79015890D01*
X119039286Y-79015890D02*
X119039286Y-79396842D01*
X119039286Y-79396842D02*
X119086905Y-79492080D01*
X119086905Y-79492080D02*
X119134524Y-79539700D01*
X119134524Y-79539700D02*
X119229762Y-79587319D01*
X119229762Y-79587319D02*
X119420238Y-79587319D01*
X119420238Y-79587319D02*
X119515476Y-79539700D01*
X119515476Y-79539700D02*
X119563095Y-79492080D01*
X119563095Y-79492080D02*
X119610714Y-79396842D01*
X119610714Y-79396842D02*
X119610714Y-79158747D01*
X119610714Y-79158747D02*
X119563095Y-79063509D01*
X119563095Y-79063509D02*
X119515476Y-79015890D01*
X119515476Y-79015890D02*
X119420238Y-78968271D01*
X119420238Y-78968271D02*
X119229762Y-78968271D01*
X119229762Y-78968271D02*
X119134524Y-79015890D01*
X119134524Y-79015890D02*
X119086905Y-79063509D01*
X119086905Y-79063509D02*
X119039286Y-79158747D01*
X149210592Y-95784821D02*
X148877259Y-95308630D01*
X148639164Y-95784821D02*
X148639164Y-94784821D01*
X148639164Y-94784821D02*
X149020116Y-94784821D01*
X149020116Y-94784821D02*
X149115354Y-94832440D01*
X149115354Y-94832440D02*
X149162973Y-94880059D01*
X149162973Y-94880059D02*
X149210592Y-94975297D01*
X149210592Y-94975297D02*
X149210592Y-95118154D01*
X149210592Y-95118154D02*
X149162973Y-95213392D01*
X149162973Y-95213392D02*
X149115354Y-95261011D01*
X149115354Y-95261011D02*
X149020116Y-95308630D01*
X149020116Y-95308630D02*
X148639164Y-95308630D01*
X150067735Y-95118154D02*
X150067735Y-95784821D01*
X149829640Y-94737202D02*
X149591545Y-95451487D01*
X149591545Y-95451487D02*
X150210592Y-95451487D01*
X150543926Y-94880059D02*
X150591545Y-94832440D01*
X150591545Y-94832440D02*
X150686783Y-94784821D01*
X150686783Y-94784821D02*
X150924878Y-94784821D01*
X150924878Y-94784821D02*
X151020116Y-94832440D01*
X151020116Y-94832440D02*
X151067735Y-94880059D01*
X151067735Y-94880059D02*
X151115354Y-94975297D01*
X151115354Y-94975297D02*
X151115354Y-95070535D01*
X151115354Y-95070535D02*
X151067735Y-95213392D01*
X151067735Y-95213392D02*
X150496307Y-95784821D01*
X150496307Y-95784821D02*
X151115354Y-95784821D01*
X113333333Y-66824819D02*
X113000000Y-66348628D01*
X112761905Y-66824819D02*
X112761905Y-65824819D01*
X112761905Y-65824819D02*
X113142857Y-65824819D01*
X113142857Y-65824819D02*
X113238095Y-65872438D01*
X113238095Y-65872438D02*
X113285714Y-65920057D01*
X113285714Y-65920057D02*
X113333333Y-66015295D01*
X113333333Y-66015295D02*
X113333333Y-66158152D01*
X113333333Y-66158152D02*
X113285714Y-66253390D01*
X113285714Y-66253390D02*
X113238095Y-66301009D01*
X113238095Y-66301009D02*
X113142857Y-66348628D01*
X113142857Y-66348628D02*
X112761905Y-66348628D01*
X113666667Y-65824819D02*
X114285714Y-65824819D01*
X114285714Y-65824819D02*
X113952381Y-66205771D01*
X113952381Y-66205771D02*
X114095238Y-66205771D01*
X114095238Y-66205771D02*
X114190476Y-66253390D01*
X114190476Y-66253390D02*
X114238095Y-66301009D01*
X114238095Y-66301009D02*
X114285714Y-66396247D01*
X114285714Y-66396247D02*
X114285714Y-66634342D01*
X114285714Y-66634342D02*
X114238095Y-66729580D01*
X114238095Y-66729580D02*
X114190476Y-66777200D01*
X114190476Y-66777200D02*
X114095238Y-66824819D01*
X114095238Y-66824819D02*
X113809524Y-66824819D01*
X113809524Y-66824819D02*
X113714286Y-66777200D01*
X113714286Y-66777200D02*
X113666667Y-66729580D01*
X87211905Y-142556819D02*
X87783333Y-142556819D01*
X87497619Y-143556819D02*
X87497619Y-142556819D01*
X88116667Y-143556819D02*
X88116667Y-142556819D01*
X88116667Y-142556819D02*
X88497619Y-142556819D01*
X88497619Y-142556819D02*
X88592857Y-142604438D01*
X88592857Y-142604438D02*
X88640476Y-142652057D01*
X88640476Y-142652057D02*
X88688095Y-142747295D01*
X88688095Y-142747295D02*
X88688095Y-142890152D01*
X88688095Y-142890152D02*
X88640476Y-142985390D01*
X88640476Y-142985390D02*
X88592857Y-143033009D01*
X88592857Y-143033009D02*
X88497619Y-143080628D01*
X88497619Y-143080628D02*
X88116667Y-143080628D01*
X89640476Y-143556819D02*
X89069048Y-143556819D01*
X89354762Y-143556819D02*
X89354762Y-142556819D01*
X89354762Y-142556819D02*
X89259524Y-142699676D01*
X89259524Y-142699676D02*
X89164286Y-142794914D01*
X89164286Y-142794914D02*
X89069048Y-142842533D01*
X90497619Y-142890152D02*
X90497619Y-143556819D01*
X90259524Y-142509200D02*
X90021429Y-143223485D01*
X90021429Y-143223485D02*
X90640476Y-143223485D01*
%TO.C,R2*%
D11*
X118587742Y-70790000D02*
X119062258Y-70790000D01*
X118587742Y-71835000D02*
X119062258Y-71835000D01*
%TO.C,R34*%
X141704997Y-75856358D02*
X141704997Y-76163640D01*
X142464997Y-75856358D02*
X142464997Y-76163640D01*
%TO.C,R9*%
X111322936Y-81165000D02*
X115677064Y-81165000D01*
X111322936Y-84585000D02*
X115677064Y-84585000D01*
%TO.C,C39*%
X148090000Y-83146335D02*
X148090000Y-82930663D01*
X148810000Y-83146335D02*
X148810000Y-82930663D01*
%TO.C,C1*%
X128465580Y-98290000D02*
X128184420Y-98290000D01*
X128465580Y-99310000D02*
X128184420Y-99310000D01*
%TO.C,D2*%
D12*
X133650701Y-79772100D02*
X133650701Y-81727900D01*
X133650701Y-81727900D02*
X133914861Y-81727900D01*
X133914861Y-79772100D02*
X133650701Y-79772100D01*
X134885141Y-81727900D02*
X135149301Y-81727900D01*
X135149301Y-79772100D02*
X134885141Y-79772100D01*
X135149301Y-81727900D02*
X135149301Y-79772100D01*
%TO.C,C27*%
D11*
X135281464Y-53790000D02*
X135497136Y-53790000D01*
X135281464Y-54510000D02*
X135497136Y-54510000D01*
%TO.C,C29*%
X130712836Y-77110000D02*
X130497164Y-77110000D01*
X130712836Y-77830000D02*
X130497164Y-77830000D01*
%TO.C,R25*%
X138762497Y-76562257D02*
X138762497Y-76087741D01*
X139807497Y-76562257D02*
X139807497Y-76087741D01*
%TO.C,R32*%
X134780000Y-75856358D02*
X134780000Y-76163640D01*
X135540000Y-75856358D02*
X135540000Y-76163640D01*
%TO.C,R38*%
X155549997Y-75856358D02*
X155549997Y-76163640D01*
X156309997Y-75856358D02*
X156309997Y-76163640D01*
%TO.C,J1*%
D12*
X168160399Y-90547000D02*
X168160399Y-100453000D01*
X168160399Y-100453000D02*
X169883807Y-100453000D01*
X169883807Y-90547000D02*
X168160399Y-90547000D01*
X171616193Y-100453000D02*
X173976999Y-100453000D01*
X173976999Y-90547000D02*
X171616193Y-90547000D01*
X173976999Y-100453000D02*
X173976999Y-90547000D01*
D13*
X171067500Y-101397901D02*
G75*
G02*
X170432500Y-101397901I-317500J0D01*
G01*
X170432500Y-101397901D02*
G75*
G02*
X171067500Y-101397901I317500J0D01*
G01*
%TO.C,TP8*%
D11*
X108350000Y-147100000D02*
G75*
G02*
X105950000Y-147100000I-1200000J0D01*
G01*
X105950000Y-147100000D02*
G75*
G02*
X108350000Y-147100000I1200000J0D01*
G01*
%TO.C,R16*%
X118587742Y-103165000D02*
X119062258Y-103165000D01*
X118587742Y-104210000D02*
X119062258Y-104210000D01*
%TO.C,C33*%
X144557836Y-77080000D02*
X144342164Y-77080000D01*
X144557836Y-77800000D02*
X144342164Y-77800000D01*
%TO.C,R19*%
X111322936Y-104290000D02*
X115677064Y-104290000D01*
X111322936Y-107710000D02*
X115677064Y-107710000D01*
%TO.C,CR1*%
D12*
X151927950Y-95174040D02*
X151927950Y-95925962D01*
X151927950Y-97175601D02*
X153578950Y-97175601D01*
X153578950Y-93924401D02*
X151927950Y-93924401D01*
X153578950Y-94975961D02*
X153578950Y-93924401D01*
X153578950Y-97175601D02*
X153578950Y-96124041D01*
%TO.C,C24*%
D11*
X140840000Y-81711252D02*
X140840000Y-80288748D01*
X142660000Y-81711252D02*
X142660000Y-80288748D01*
%TO.C,TP12*%
X90150000Y-137000000D02*
G75*
G02*
X87750000Y-137000000I-1200000J0D01*
G01*
X87750000Y-137000000D02*
G75*
G02*
X90150000Y-137000000I1200000J0D01*
G01*
%TO.C,R17*%
X111322936Y-99665000D02*
X115677064Y-99665000D01*
X111322936Y-103085000D02*
X115677064Y-103085000D01*
%TO.C,R23*%
X131837497Y-76562257D02*
X131837497Y-76087741D01*
X132882497Y-76562257D02*
X132882497Y-76087741D01*
%TO.C,D1*%
D14*
X144766100Y-58992000D02*
X144308900Y-58992000D01*
X144778800Y-60008000D02*
X144296200Y-60008000D01*
D15*
X146231088Y-59500000D02*
G75*
G02*
X146017496Y-59500000I-106796J0D01*
G01*
X146017496Y-59500000D02*
G75*
G02*
X146231088Y-59500000I106796J0D01*
G01*
%TO.C,U2*%
D12*
X158080500Y-90724001D02*
X158080500Y-92334361D01*
X158080500Y-93685641D02*
X158080500Y-94874361D01*
X158080500Y-96225641D02*
X158080500Y-97414361D01*
X158080500Y-98765641D02*
X158080500Y-100376001D01*
X158080500Y-100376001D02*
X165319500Y-100376001D01*
X165319500Y-90724001D02*
X158080500Y-90724001D01*
X165319500Y-92334361D02*
X165319500Y-90724001D01*
X165319500Y-94874361D02*
X165319500Y-93685641D01*
X165319500Y-97414361D02*
X165319500Y-96225641D01*
X165319500Y-100376001D02*
X165319500Y-98765641D01*
%TO.C,C31*%
D11*
X137632833Y-77104999D02*
X137417161Y-77104999D01*
X137632833Y-77824999D02*
X137417161Y-77824999D01*
%TO.C,C36*%
X156302161Y-77079999D02*
X156517833Y-77079999D01*
X156302161Y-77799999D02*
X156517833Y-77799999D01*
%TO.C,TP7*%
X108350000Y-143050000D02*
G75*
G02*
X105950000Y-143050000I-1200000J0D01*
G01*
X105950000Y-143050000D02*
G75*
G02*
X108350000Y-143050000I1200000J0D01*
G01*
%TO.C,TP6*%
X104300000Y-147100000D02*
G75*
G02*
X101900000Y-147100000I-1200000J0D01*
G01*
X101900000Y-147100000D02*
G75*
G02*
X104300000Y-147100000I1200000J0D01*
G01*
%TO.C,R30*%
X154137497Y-76562257D02*
X154137497Y-76087741D01*
X155182497Y-76562257D02*
X155182497Y-76087741D01*
%TO.C,U3*%
D12*
X158080500Y-79642500D02*
X158080500Y-81252860D01*
X158080500Y-82604140D02*
X158080500Y-83792860D01*
X158080500Y-85144140D02*
X158080500Y-86332860D01*
X158080500Y-87684140D02*
X158080500Y-89294500D01*
X158080500Y-89294500D02*
X165319500Y-89294500D01*
X165319500Y-79642500D02*
X158080500Y-79642500D01*
X165319500Y-81252860D02*
X165319500Y-79642500D01*
X165319500Y-83792860D02*
X165319500Y-82604140D01*
X165319500Y-86332860D02*
X165319500Y-85144140D01*
X165319500Y-89294500D02*
X165319500Y-87684140D01*
%TO.C,C11*%
D11*
X142134420Y-99790000D02*
X142415580Y-99790000D01*
X142134420Y-100810000D02*
X142415580Y-100810000D01*
%TO.C,TP5*%
X104300000Y-143050000D02*
G75*
G02*
X101900000Y-143050000I-1200000J0D01*
G01*
X101900000Y-143050000D02*
G75*
G02*
X104300000Y-143050000I1200000J0D01*
G01*
%TO.C,R18*%
X118587742Y-107477500D02*
X119062258Y-107477500D01*
X118587742Y-108522500D02*
X119062258Y-108522500D01*
%TO.C,C28*%
X122588652Y-55515000D02*
X122066148Y-55515000D01*
X122588652Y-56985000D02*
X122066148Y-56985000D01*
%TO.C,C6*%
X134384420Y-98290000D02*
X134665580Y-98290000D01*
X134384420Y-99310000D02*
X134665580Y-99310000D01*
%TO.C,R21*%
X122513637Y-57645000D02*
X121066163Y-57645000D01*
X122513637Y-60355000D02*
X121066163Y-60355000D01*
%TO.C,R31*%
X130705000Y-75856358D02*
X130705000Y-76163640D01*
X131465000Y-75856358D02*
X131465000Y-76163640D01*
%TO.C,R33*%
X137624997Y-75856358D02*
X137624997Y-76163640D01*
X138384997Y-75856358D02*
X138384997Y-76163640D01*
%TO.C,R10*%
X118587742Y-89290000D02*
X119062258Y-89290000D01*
X118587742Y-90335000D02*
X119062258Y-90335000D01*
%TO.C,R40*%
X147070000Y-84214859D02*
X147070000Y-84522141D01*
X147830000Y-84214859D02*
X147830000Y-84522141D01*
%TO.C,C12*%
X143684420Y-98290000D02*
X143965580Y-98290000D01*
X143684420Y-99310000D02*
X143965580Y-99310000D01*
%TO.C,R1*%
X118587742Y-66477500D02*
X119062258Y-66477500D01*
X118587742Y-67522500D02*
X119062258Y-67522500D01*
%TO.C,TP11*%
X90150000Y-132950000D02*
G75*
G02*
X87750000Y-132950000I-1200000J0D01*
G01*
X87750000Y-132950000D02*
G75*
G02*
X90150000Y-132950000I1200000J0D01*
G01*
%TO.C,C7*%
X135934420Y-99790000D02*
X136215580Y-99790000D01*
X135934420Y-100810000D02*
X136215580Y-100810000D01*
%TO.C,R11*%
X111322936Y-85790000D02*
X115677064Y-85790000D01*
X111322936Y-89210000D02*
X115677064Y-89210000D01*
%TO.C,R43*%
X149746359Y-83138499D02*
X150053641Y-83138499D01*
X149746359Y-83898499D02*
X150053641Y-83898499D01*
%TO.C,C8*%
X137484420Y-98290000D02*
X137765580Y-98290000D01*
X137484420Y-99310000D02*
X137765580Y-99310000D01*
%TO.C,J3*%
D12*
X129301403Y-65572999D02*
X129301403Y-67547989D01*
X129301403Y-68572009D02*
X129301403Y-74589999D01*
X129301403Y-74589999D02*
X157698603Y-74589999D01*
X157698603Y-65572999D02*
X129301403Y-65572999D01*
X157698603Y-67547989D02*
X157698603Y-65572999D01*
X157698603Y-74589999D02*
X157698603Y-68572009D01*
D13*
X158905103Y-71999999D02*
G75*
G02*
X158270103Y-71999999I-317500J0D01*
G01*
X158270103Y-71999999D02*
G75*
G02*
X158905103Y-71999999I317500J0D01*
G01*
%TO.C,R14*%
D11*
X118587742Y-98540000D02*
X119062258Y-98540000D01*
X118587742Y-99585000D02*
X119062258Y-99585000D01*
%TO.C,R12*%
X118587742Y-93915000D02*
X119062258Y-93915000D01*
X118587742Y-94960000D02*
X119062258Y-94960000D01*
%TO.C,C25*%
X143640000Y-80857836D02*
X143640000Y-80642164D01*
X144360000Y-80857836D02*
X144360000Y-80642164D01*
%TO.C,R35*%
X144550000Y-75856359D02*
X144550000Y-76163641D01*
X145310000Y-75856359D02*
X145310000Y-76163641D01*
%TO.C,C21*%
X138238748Y-79265000D02*
X138761252Y-79265000D01*
X138238748Y-80735000D02*
X138761252Y-80735000D01*
%TO.C,TP1*%
X96200000Y-143050000D02*
G75*
G02*
X93800000Y-143050000I-1200000J0D01*
G01*
X93800000Y-143050000D02*
G75*
G02*
X96200000Y-143050000I1200000J0D01*
G01*
%TO.C,J4*%
D12*
X84771301Y-76638200D02*
X84771301Y-99041000D01*
X84771301Y-99041000D02*
X94931301Y-99041000D01*
X94931301Y-76638200D02*
X84771301Y-76638200D01*
X94931301Y-99041000D02*
X94931301Y-76638200D01*
D13*
X94131801Y-99930000D02*
G75*
G02*
X93496801Y-99930000I-317500J0D01*
G01*
X93496801Y-99930000D02*
G75*
G02*
X94131801Y-99930000I317500J0D01*
G01*
%TO.C,R29*%
D11*
X152597500Y-76562257D02*
X152597500Y-76087741D01*
X153642500Y-76562257D02*
X153642500Y-76087741D01*
%TO.C,TP9*%
X96200000Y-132950000D02*
G75*
G02*
X93800000Y-132950000I-1200000J0D01*
G01*
X93800000Y-132950000D02*
G75*
G02*
X96200000Y-132950000I1200000J0D01*
G01*
%TO.C,C32*%
X142457161Y-77079999D02*
X142672833Y-77079999D01*
X142457161Y-77799999D02*
X142672833Y-77799999D01*
%TO.C,TP13*%
X90150000Y-141050000D02*
G75*
G02*
X87750000Y-141050000I-1200000J0D01*
G01*
X87750000Y-141050000D02*
G75*
G02*
X90150000Y-141050000I1200000J0D01*
G01*
%TO.C,TP10*%
X96200000Y-137000000D02*
G75*
G02*
X93800000Y-137000000I-1200000J0D01*
G01*
X93800000Y-137000000D02*
G75*
G02*
X96200000Y-137000000I1200000J0D01*
G01*
%TO.C,R5*%
X111322936Y-71915000D02*
X115677064Y-71915000D01*
X111322936Y-75335000D02*
X115677064Y-75335000D01*
%TO.C,R44*%
X149746359Y-85038501D02*
X150053641Y-85038501D01*
X149746359Y-85798501D02*
X150053641Y-85798501D01*
%TO.C,J4*%
D12*
X67170001Y-65887900D02*
X67170001Y-105791300D01*
X67170001Y-105791300D02*
X77330000Y-105791300D01*
X77330000Y-65887900D02*
X67170001Y-65887900D01*
X77330000Y-69168536D02*
X77330000Y-65887900D01*
X77330000Y-72168535D02*
X77330000Y-69510673D01*
X77330000Y-75168534D02*
X77330000Y-72510672D01*
X77330000Y-78168533D02*
X77330000Y-75510671D01*
X77330000Y-81168532D02*
X77330000Y-78510671D01*
X77330000Y-84168531D02*
X77330000Y-81510670D01*
X77330000Y-87168530D02*
X77330000Y-84510669D01*
X77330000Y-90168530D02*
X77330000Y-87510668D01*
X77330000Y-93168529D02*
X77330000Y-90510667D01*
X77330000Y-96168528D02*
X77330000Y-93510666D01*
X77330000Y-99168527D02*
X77330000Y-96510665D01*
X77330000Y-102168526D02*
X77330000Y-99510664D01*
X77330000Y-105791300D02*
X77330000Y-102510663D01*
D13*
X76540500Y-106680300D02*
G75*
G02*
X75905500Y-106680300I-317500J0D01*
G01*
X75905500Y-106680300D02*
G75*
G02*
X76540500Y-106680300I317500J0D01*
G01*
%TO.C,R8*%
D11*
X118587742Y-84665000D02*
X119062258Y-84665000D01*
X118587742Y-85710000D02*
X119062258Y-85710000D01*
%TO.C,R36*%
X148619997Y-75856359D02*
X148619997Y-76163641D01*
X149379997Y-75856359D02*
X149379997Y-76163641D01*
%TO.C,R27*%
X145677497Y-76562258D02*
X145677497Y-76087742D01*
X146722497Y-76562258D02*
X146722497Y-76087742D01*
%TO.C,TP4*%
X100250000Y-147100000D02*
G75*
G02*
X97850000Y-147100000I-1200000J0D01*
G01*
X97850000Y-147100000D02*
G75*
G02*
X100250000Y-147100000I1200000J0D01*
G01*
%TO.C,C2*%
X131284420Y-98290000D02*
X131565580Y-98290000D01*
X131284420Y-99310000D02*
X131565580Y-99310000D01*
%TO.C,C10*%
X140584420Y-98290000D02*
X140865580Y-98290000D01*
X140584420Y-99310000D02*
X140865580Y-99310000D01*
%TO.C,C5*%
X132834420Y-99790000D02*
X133115580Y-99790000D01*
X132834420Y-100810000D02*
X133115580Y-100810000D01*
%TO.C,C22*%
X150240580Y-103090000D02*
X149959420Y-103090000D01*
X150240580Y-104110000D02*
X149959420Y-104110000D01*
%TO.C,R20*%
X116316163Y-57645000D02*
X117763637Y-57645000D01*
X116316163Y-60355000D02*
X117763637Y-60355000D01*
%TO.C,J2*%
D12*
X167041600Y-80410000D02*
X167041600Y-86441632D01*
X167041600Y-87438367D02*
X167041600Y-89427000D01*
X167041600Y-89427000D02*
X174458400Y-89427000D01*
X174458400Y-80410000D02*
X167041600Y-80410000D01*
X174458400Y-86441632D02*
X174458400Y-80410000D01*
X174458400Y-89427000D02*
X174458400Y-87438367D01*
D13*
X166470100Y-83000000D02*
G75*
G02*
X165835100Y-83000000I-317500J0D01*
G01*
X165835100Y-83000000D02*
G75*
G02*
X166470100Y-83000000I317500J0D01*
G01*
%TO.C,R7*%
D11*
X111322936Y-76540000D02*
X115677064Y-76540000D01*
X111322936Y-79960000D02*
X115677064Y-79960000D01*
%TO.C,C37*%
X148093450Y-94227836D02*
X148093450Y-94012164D01*
X148813450Y-94227836D02*
X148813450Y-94012164D01*
%TO.C,R41*%
X149699809Y-94220000D02*
X150007091Y-94220000D01*
X149699809Y-94980000D02*
X150007091Y-94980000D01*
%TO.C,TP2*%
X96200000Y-147100000D02*
G75*
G02*
X93800000Y-147100000I-1200000J0D01*
G01*
X93800000Y-147100000D02*
G75*
G02*
X96200000Y-147100000I1200000J0D01*
G01*
%TO.C,R39*%
X147073450Y-95396360D02*
X147073450Y-95703642D01*
X147833450Y-95396360D02*
X147833450Y-95703642D01*
%TO.C,C34*%
X149372161Y-77080000D02*
X149587833Y-77080000D01*
X149372161Y-77800000D02*
X149587833Y-77800000D01*
%TO.C,R24*%
X133362497Y-76562257D02*
X133362497Y-76087741D01*
X134407497Y-76562257D02*
X134407497Y-76087741D01*
%TO.C,R37*%
X151460000Y-75856358D02*
X151460000Y-76163640D01*
X152220000Y-75856358D02*
X152220000Y-76163640D01*
%TO.C,R15*%
X111322936Y-95040000D02*
X115677064Y-95040000D01*
X111322936Y-98460000D02*
X115677064Y-98460000D01*
%TO.C,R26*%
X140287497Y-76562257D02*
X140287497Y-76087741D01*
X141332497Y-76562257D02*
X141332497Y-76087741D01*
%TO.C,U1*%
D16*
X130949999Y-85049999D02*
X131774999Y-85049999D01*
X130949999Y-85874999D02*
X130949999Y-85049999D01*
X130949999Y-95249999D02*
X130949999Y-94424999D01*
X130949999Y-95249999D02*
X131774999Y-95249999D01*
X140324999Y-85049999D02*
X141149999Y-85049999D01*
X140324999Y-95249999D02*
X141149999Y-95249999D01*
X141149999Y-85874999D02*
X141149999Y-85049999D01*
X141149999Y-95249999D02*
X141149999Y-94424999D01*
D17*
X130475001Y-85699998D02*
G75*
G02*
X130224999Y-85699998I-125001J0D01*
G01*
X130224999Y-85699998D02*
G75*
G02*
X130475001Y-85699998I125001J0D01*
G01*
%TO.C,C40*%
D11*
X148090000Y-85790665D02*
X148090000Y-86006337D01*
X148810000Y-85790665D02*
X148810000Y-86006337D01*
%TO.C,R22*%
X145138475Y-57907400D02*
X145445757Y-57907400D01*
X145138475Y-58667400D02*
X145445757Y-58667400D01*
%TO.C,R28*%
X147202497Y-76562258D02*
X147202497Y-76087742D01*
X148247497Y-76562258D02*
X148247497Y-76087742D01*
%TO.C,CR2*%
D12*
X151927950Y-84092539D02*
X151927950Y-84844461D01*
X151927950Y-86094100D02*
X153578950Y-86094100D01*
X153578950Y-82842900D02*
X151927950Y-82842900D01*
X153578950Y-83894460D02*
X153578950Y-82842900D01*
X153578950Y-86094100D02*
X153578950Y-85042540D01*
%TO.C,C30*%
D11*
X135532164Y-77110000D02*
X135747836Y-77110000D01*
X135532164Y-77830000D02*
X135747836Y-77830000D01*
%TO.C,Q1*%
D12*
X126217300Y-54270200D02*
X126217300Y-54661360D01*
X126217300Y-60838640D02*
X126217300Y-61229800D01*
X126217300Y-61229800D02*
X132668900Y-61229800D01*
X132668900Y-54270200D02*
X126217300Y-54270200D01*
X132668900Y-61229800D02*
X132668900Y-54270200D01*
X133151500Y-55025499D02*
X134269100Y-55025499D01*
X133151500Y-55914499D02*
X134269100Y-55914499D01*
X133151500Y-59585501D02*
X134269100Y-59585501D01*
X133151500Y-60474501D02*
X134269100Y-60474501D01*
%TO.C,C38*%
D11*
X148093450Y-96872166D02*
X148093450Y-97087838D01*
X148813450Y-96872166D02*
X148813450Y-97087838D01*
%TO.C,C41*%
X155761286Y-95190001D02*
X155545614Y-95190001D01*
X155761286Y-95910001D02*
X155545614Y-95910001D01*
%TO.C,R13*%
X111322936Y-90415000D02*
X115677064Y-90415000D01*
X111322936Y-93835000D02*
X115677064Y-93835000D01*
%TO.C,C26*%
X131115580Y-79990000D02*
X130834420Y-79990000D01*
X131115580Y-81010000D02*
X130834420Y-81010000D01*
%TO.C,C23*%
X150540580Y-101190000D02*
X150259420Y-101190000D01*
X150540580Y-102210000D02*
X150259420Y-102210000D01*
%TO.C,C42*%
X155807836Y-84108500D02*
X155592164Y-84108500D01*
X155807836Y-84828500D02*
X155592164Y-84828500D01*
%TO.C,C35*%
X151467836Y-77079999D02*
X151252164Y-77079999D01*
X151467836Y-77799999D02*
X151252164Y-77799999D01*
%TO.C,R4*%
X118587742Y-75415000D02*
X119062258Y-75415000D01*
X118587742Y-76460000D02*
X119062258Y-76460000D01*
%TO.C,C9*%
X139034420Y-99790000D02*
X139315580Y-99790000D01*
X139034420Y-100810000D02*
X139315580Y-100810000D01*
%TO.C,TP3*%
X100250000Y-143050000D02*
G75*
G02*
X97850000Y-143050000I-1200000J0D01*
G01*
X97850000Y-143050000D02*
G75*
G02*
X100250000Y-143050000I1200000J0D01*
G01*
%TO.C,R6*%
X118587742Y-80040000D02*
X119062258Y-80040000D01*
X118587742Y-81085000D02*
X119062258Y-81085000D01*
%TO.C,R42*%
X149699809Y-96120002D02*
X150007091Y-96120002D01*
X149699809Y-96880002D02*
X150007091Y-96880002D01*
%TO.C,R3*%
X111322936Y-67290000D02*
X115677064Y-67290000D01*
X111322936Y-70710000D02*
X115677064Y-70710000D01*
%TO.C,TP14*%
X90150000Y-145100000D02*
G75*
G02*
X87750000Y-145100000I-1200000J0D01*
G01*
X87750000Y-145100000D02*
G75*
G02*
X90150000Y-145100000I1200000J0D01*
G01*
%TD*%
%LPC*%
D18*
%TO.C,U1*%
G36*
X139300000Y-86949998D02*
G01*
X139300000Y-93350000D01*
X139250000Y-93400000D01*
X132849998Y-93400000D01*
X132799998Y-93350000D01*
X132799998Y-86949998D01*
X132849998Y-86899998D01*
X139250000Y-86899998D01*
X139300000Y-86949998D01*
G37*
%TD*%
D19*
%TO.C,R2*%
X118000000Y-71312500D03*
X119650000Y-71312500D03*
%TD*%
D20*
%TO.C,R34*%
X142084997Y-75499999D03*
X142084997Y-76519999D03*
%TD*%
D21*
%TO.C,R9*%
X110537500Y-82875000D03*
X116462500Y-82875000D03*
%TD*%
D22*
%TO.C,C39*%
X148450000Y-83518499D03*
X148450000Y-82558499D03*
%TD*%
D23*
%TO.C,C1*%
X129100000Y-98800000D03*
X127550000Y-98800000D03*
%TD*%
D24*
%TO.C,D2*%
X134400001Y-79607000D03*
X134400001Y-81893000D03*
%TD*%
D25*
%TO.C,C27*%
X134909300Y-54150000D03*
X135869300Y-54150000D03*
%TD*%
D26*
%TO.C,C29*%
X131085000Y-77470000D03*
X130125000Y-77470000D03*
%TD*%
D27*
%TO.C,R25*%
X139284997Y-77149999D03*
X139284997Y-75499999D03*
%TD*%
D28*
%TO.C,FID2*%
X110500000Y-133200000D03*
%TD*%
D20*
%TO.C,R32*%
X135160000Y-75499999D03*
X135160000Y-76519999D03*
%TD*%
%TO.C,R38*%
X155929997Y-75499999D03*
X155929997Y-76519999D03*
%TD*%
D29*
%TO.C,J1*%
X170750000Y-91850000D03*
X170750000Y-99150001D03*
D30*
X170750000Y-97000000D03*
X170750000Y-94000001D03*
%TD*%
D31*
%TO.C,TP8*%
X107150000Y-147100000D03*
%TD*%
D19*
%TO.C,R16*%
X118000000Y-103687500D03*
X119650000Y-103687500D03*
%TD*%
D26*
%TO.C,C33*%
X144930000Y-77440000D03*
X143970000Y-77440000D03*
%TD*%
D21*
%TO.C,R19*%
X110537500Y-106000000D03*
X116462500Y-106000000D03*
%TD*%
D32*
%TO.C,CR1*%
X151604100Y-94600000D03*
X151604100Y-96500002D03*
X153902800Y-95550001D03*
%TD*%
D33*
%TO.C,C24*%
X141750000Y-82475000D03*
X141750000Y-79525000D03*
%TD*%
D31*
%TO.C,TP12*%
X88950000Y-137000000D03*
%TD*%
D21*
%TO.C,R17*%
X110537500Y-101375000D03*
X116462500Y-101375000D03*
%TD*%
D27*
%TO.C,R23*%
X132359997Y-77149999D03*
X132359997Y-75499999D03*
%TD*%
D34*
%TO.C,D1*%
X145325000Y-59500000D03*
X143750000Y-59500000D03*
%TD*%
D28*
%TO.C,FID3*%
X110500000Y-135750000D03*
%TD*%
D35*
%TO.C,U2*%
X157553450Y-93010001D03*
X157553450Y-95550001D03*
X157553450Y-98090001D03*
X165846550Y-98090001D03*
X165846550Y-95550001D03*
X165846550Y-93010001D03*
%TD*%
D36*
%TO.C,H2*%
X171250000Y-106250000D03*
%TD*%
D26*
%TO.C,C31*%
X138004997Y-77464999D03*
X137044997Y-77464999D03*
%TD*%
D25*
%TO.C,C36*%
X155929997Y-77439999D03*
X156889997Y-77439999D03*
%TD*%
D31*
%TO.C,TP7*%
X107150000Y-143050000D03*
%TD*%
%TO.C,TP6*%
X103100000Y-147100000D03*
%TD*%
D27*
%TO.C,R30*%
X154659997Y-77149999D03*
X154659997Y-75499999D03*
%TD*%
D35*
%TO.C,U3*%
X157553450Y-81928500D03*
X157553450Y-84468500D03*
X157553450Y-87008500D03*
X165846550Y-87008500D03*
X165846550Y-84468500D03*
X165846550Y-81928500D03*
%TD*%
D37*
%TO.C,C11*%
X141500000Y-100300000D03*
X143050000Y-100300000D03*
%TD*%
D31*
%TO.C,TP5*%
X103100000Y-143050000D03*
%TD*%
D19*
%TO.C,R18*%
X118000000Y-108000000D03*
X119650000Y-108000000D03*
%TD*%
D38*
%TO.C,C28*%
X123277400Y-56250000D03*
X121377400Y-56250000D03*
%TD*%
D37*
%TO.C,C6*%
X133750000Y-98800000D03*
X135300000Y-98800000D03*
%TD*%
D39*
%TO.C,R21*%
X123252400Y-59000000D03*
X120327400Y-59000000D03*
%TD*%
D20*
%TO.C,R31*%
X131085000Y-75499999D03*
X131085000Y-76519999D03*
%TD*%
%TO.C,R33*%
X138004997Y-75499999D03*
X138004997Y-76519999D03*
%TD*%
D19*
%TO.C,R10*%
X118000000Y-89812500D03*
X119650000Y-89812500D03*
%TD*%
D20*
%TO.C,R40*%
X147450000Y-83858500D03*
X147450000Y-84878500D03*
%TD*%
D37*
%TO.C,C12*%
X143050000Y-98800000D03*
X144600000Y-98800000D03*
%TD*%
D36*
%TO.C,H1*%
X103750000Y-106250000D03*
%TD*%
D19*
%TO.C,R1*%
X118000000Y-67000000D03*
X119650000Y-67000000D03*
%TD*%
D31*
%TO.C,TP11*%
X88950000Y-132950000D03*
%TD*%
D37*
%TO.C,C7*%
X135300000Y-100300000D03*
X136850000Y-100300000D03*
%TD*%
D21*
%TO.C,R11*%
X110537500Y-87500000D03*
X116462500Y-87500000D03*
%TD*%
D40*
%TO.C,R43*%
X149390000Y-83518499D03*
X150410000Y-83518499D03*
%TD*%
D37*
%TO.C,C8*%
X136850000Y-98800000D03*
X138400000Y-98800000D03*
%TD*%
D41*
%TO.C,J3*%
X130000005Y-68059999D03*
X157000001Y-68059999D03*
D30*
X154000000Y-71999999D03*
X151000001Y-71999999D03*
X148000002Y-71999999D03*
X145000002Y-71999999D03*
X142000003Y-71999999D03*
X139000004Y-71999999D03*
X136000005Y-71999999D03*
X133000006Y-71999999D03*
X154000000Y-69000000D03*
X151000001Y-69000000D03*
X148000002Y-69000000D03*
X145000002Y-69000000D03*
X142000003Y-69000000D03*
X139000004Y-69000000D03*
X136000005Y-69000000D03*
X133000006Y-69000000D03*
%TD*%
D19*
%TO.C,R14*%
X118000000Y-99062500D03*
X119650000Y-99062500D03*
%TD*%
%TO.C,R12*%
X118000000Y-94437500D03*
X119650000Y-94437500D03*
%TD*%
D22*
%TO.C,C25*%
X144000000Y-81230000D03*
X144000000Y-80270000D03*
%TD*%
D20*
%TO.C,R35*%
X144930000Y-75500000D03*
X144930000Y-76520000D03*
%TD*%
D42*
%TO.C,C21*%
X137550000Y-80000000D03*
X139450000Y-80000000D03*
%TD*%
D31*
%TO.C,TP1*%
X95000000Y-143050000D03*
%TD*%
D30*
%TO.C,J4*%
X93814301Y-95339598D03*
X93814301Y-92339599D03*
X93814301Y-89339600D03*
X93814301Y-86339600D03*
X93814301Y-83339601D03*
X93814301Y-80339602D03*
X96814300Y-95339598D03*
X96814300Y-92339599D03*
X96814300Y-89339600D03*
X96814300Y-86339600D03*
X96814300Y-83339601D03*
X96814300Y-80339602D03*
%TD*%
D27*
%TO.C,R29*%
X153120000Y-77149999D03*
X153120000Y-75499999D03*
%TD*%
D31*
%TO.C,TP9*%
X95000000Y-132950000D03*
%TD*%
D25*
%TO.C,C32*%
X142084997Y-77439999D03*
X143044997Y-77439999D03*
%TD*%
D31*
%TO.C,TP13*%
X88950000Y-141050000D03*
%TD*%
%TO.C,TP10*%
X95000000Y-137000000D03*
%TD*%
D21*
%TO.C,R5*%
X110537500Y-73625000D03*
X116462500Y-73625000D03*
%TD*%
D40*
%TO.C,R44*%
X149390000Y-85418501D03*
X150410000Y-85418501D03*
%TD*%
D30*
%TO.C,J4*%
X76223000Y-102339594D03*
X76223000Y-99339595D03*
X76223000Y-96339596D03*
X76223000Y-93339597D03*
X76223000Y-90339598D03*
X76223000Y-87339599D03*
X76223000Y-84339600D03*
X76223000Y-81339601D03*
X76223000Y-78339602D03*
X76223000Y-75339603D03*
X76223000Y-72339604D03*
X76223000Y-69339605D03*
%TD*%
D19*
%TO.C,R8*%
X118000000Y-85187500D03*
X119650000Y-85187500D03*
%TD*%
D20*
%TO.C,R36*%
X148999997Y-75500000D03*
X148999997Y-76520000D03*
%TD*%
D27*
%TO.C,R27*%
X146199997Y-77150000D03*
X146199997Y-75500000D03*
%TD*%
D31*
%TO.C,TP4*%
X99050000Y-147100000D03*
%TD*%
D37*
%TO.C,C2*%
X130650000Y-98800000D03*
X132200000Y-98800000D03*
%TD*%
%TO.C,C10*%
X139950000Y-98800000D03*
X141500000Y-98800000D03*
%TD*%
%TO.C,C5*%
X132200000Y-100300000D03*
X133750000Y-100300000D03*
%TD*%
D23*
%TO.C,C22*%
X150875000Y-103600000D03*
X149325000Y-103600000D03*
%TD*%
D43*
%TO.C,R20*%
X115577400Y-59000000D03*
X118502400Y-59000000D03*
%TD*%
D36*
%TO.C,H3*%
X171250000Y-68750000D03*
%TD*%
D41*
%TO.C,J2*%
X173750002Y-86940000D03*
X167749998Y-86940000D03*
D30*
X170750000Y-83000000D03*
X170750000Y-85999999D03*
%TD*%
D21*
%TO.C,R7*%
X110537500Y-78250000D03*
X116462500Y-78250000D03*
%TD*%
D22*
%TO.C,C37*%
X148453450Y-94600000D03*
X148453450Y-93640000D03*
%TD*%
D40*
%TO.C,R41*%
X149343450Y-94600000D03*
X150363450Y-94600000D03*
%TD*%
D31*
%TO.C,TP2*%
X95000000Y-147100000D03*
%TD*%
D20*
%TO.C,R39*%
X147453450Y-95040001D03*
X147453450Y-96060001D03*
%TD*%
D25*
%TO.C,C34*%
X148999997Y-77440000D03*
X149959997Y-77440000D03*
%TD*%
D27*
%TO.C,R24*%
X133884997Y-77149999D03*
X133884997Y-75499999D03*
%TD*%
D20*
%TO.C,R37*%
X151840000Y-75499999D03*
X151840000Y-76519999D03*
%TD*%
D21*
%TO.C,R15*%
X110537500Y-96750000D03*
X116462500Y-96750000D03*
%TD*%
D27*
%TO.C,R26*%
X140809997Y-77149999D03*
X140809997Y-75499999D03*
%TD*%
D44*
%TO.C,U1*%
X130350000Y-86399999D03*
X130350000Y-86899998D03*
X130350000Y-87399999D03*
X130350000Y-87899998D03*
X130350000Y-88400000D03*
X130350000Y-88899999D03*
X130350000Y-89399998D03*
X130350000Y-89899999D03*
X130350000Y-90399999D03*
X130350000Y-90900000D03*
X130350000Y-91399999D03*
X130350000Y-91899998D03*
X130350000Y-92400000D03*
X130350000Y-92899999D03*
X130350000Y-93400000D03*
X130350000Y-93899999D03*
D45*
X132299999Y-95849998D03*
X132799998Y-95849998D03*
X133299999Y-95849998D03*
X133799998Y-95849998D03*
X134300000Y-95849998D03*
X134799999Y-95849998D03*
X135299998Y-95849998D03*
X135799999Y-95849998D03*
X136299999Y-95849998D03*
X136800000Y-95849998D03*
X137299999Y-95849998D03*
X137799998Y-95849998D03*
X138300000Y-95849998D03*
X138799999Y-95849998D03*
X139300000Y-95849998D03*
X139799999Y-95849998D03*
D44*
X141749998Y-93899999D03*
X141749998Y-93400000D03*
X141749998Y-92899999D03*
X141749998Y-92400000D03*
X141749998Y-91899998D03*
X141749998Y-91399999D03*
X141749998Y-90900000D03*
X141749998Y-90399999D03*
X141749998Y-89899999D03*
X141749998Y-89399998D03*
X141749998Y-88899999D03*
X141749998Y-88400000D03*
X141749998Y-87899998D03*
X141749998Y-87399999D03*
X141749998Y-86899998D03*
X141749998Y-86399999D03*
D45*
X139799999Y-84450000D03*
X139300000Y-84450000D03*
X138799999Y-84450000D03*
X138300000Y-84450000D03*
X137799998Y-84450000D03*
X137299999Y-84450000D03*
X136800000Y-84450000D03*
X136299999Y-84450000D03*
X135799999Y-84450000D03*
X135299998Y-84450000D03*
X134799999Y-84450000D03*
X134300000Y-84450000D03*
X133799998Y-84450000D03*
X133299999Y-84450000D03*
X132799998Y-84450000D03*
X132299999Y-84450000D03*
D46*
X132799998Y-86899998D03*
X132799998Y-88199998D03*
X132799998Y-89500000D03*
X132799998Y-90800000D03*
X132799998Y-92100000D03*
X132799998Y-93400000D03*
X134099998Y-86899998D03*
X134099998Y-88199998D03*
X134099998Y-89500000D03*
X134099998Y-90800000D03*
X134099998Y-92100000D03*
X134099998Y-93400000D03*
X135399998Y-86899998D03*
X135399998Y-88199998D03*
X135399998Y-89500000D03*
X135399998Y-90800000D03*
X135399998Y-92100000D03*
X135399998Y-93400000D03*
X136700000Y-86899998D03*
X136700000Y-88199998D03*
X136700000Y-89500000D03*
X136700000Y-90800000D03*
X136700000Y-92100000D03*
X136700000Y-93400000D03*
X138000000Y-86899998D03*
X138000000Y-88199998D03*
X138000000Y-89500000D03*
X138000000Y-90800000D03*
X138000000Y-92100000D03*
X138000000Y-93400000D03*
X139300000Y-86899998D03*
X139300000Y-88199998D03*
X139300000Y-89500000D03*
X139300000Y-90800000D03*
X139300000Y-92100000D03*
X139300000Y-93400000D03*
%TD*%
D47*
%TO.C,C40*%
X148450000Y-85418501D03*
X148450000Y-86378501D03*
%TD*%
D40*
%TO.C,R22*%
X144782116Y-58287400D03*
X145802116Y-58287400D03*
%TD*%
D28*
%TO.C,FID1*%
X110500000Y-130650000D03*
%TD*%
D27*
%TO.C,R28*%
X147724997Y-77150000D03*
X147724997Y-75500000D03*
%TD*%
D32*
%TO.C,CR2*%
X151604100Y-83518499D03*
X151604100Y-85418501D03*
X153902800Y-84468500D03*
%TD*%
D25*
%TO.C,C30*%
X135160000Y-77470000D03*
X136120000Y-77470000D03*
%TD*%
D48*
%TO.C,Q1*%
X127500000Y-57750000D03*
D49*
X135869300Y-60030001D03*
X135869300Y-55469999D03*
%TD*%
D47*
%TO.C,C38*%
X148453450Y-96500002D03*
X148453450Y-97460002D03*
%TD*%
D26*
%TO.C,C41*%
X156133450Y-95550001D03*
X155173450Y-95550001D03*
%TD*%
D21*
%TO.C,R13*%
X110537500Y-92125000D03*
X116462500Y-92125000D03*
%TD*%
D23*
%TO.C,C26*%
X131750000Y-80500000D03*
X130200000Y-80500000D03*
%TD*%
%TO.C,C23*%
X151175000Y-101700000D03*
X149625000Y-101700000D03*
%TD*%
D26*
%TO.C,C42*%
X156180000Y-84468500D03*
X155220000Y-84468500D03*
%TD*%
%TO.C,C35*%
X151840000Y-77439999D03*
X150880000Y-77439999D03*
%TD*%
D19*
%TO.C,R4*%
X118000000Y-75937500D03*
X119650000Y-75937500D03*
%TD*%
D36*
%TO.C,H4*%
X103750000Y-68750000D03*
%TD*%
D37*
%TO.C,C9*%
X138400000Y-100300000D03*
X139950000Y-100300000D03*
%TD*%
D31*
%TO.C,TP3*%
X99050000Y-143050000D03*
%TD*%
D19*
%TO.C,R6*%
X118000000Y-80562500D03*
X119650000Y-80562500D03*
%TD*%
D40*
%TO.C,R42*%
X149343450Y-96500002D03*
X150363450Y-96500002D03*
%TD*%
D21*
%TO.C,R3*%
X110537500Y-69000000D03*
X116462500Y-69000000D03*
%TD*%
D31*
%TO.C,TP14*%
X88950000Y-145100000D03*
%TD*%
%LPD*%
M02*
