M48
; DRILL file KiCad 10.0.5-unknown-202607221313~667fa36054~ubuntu25.10.1 date 2026-10-07T14:48:38
; FORMAT={-:-/ absolute / metric / decimal}
; #@! TF.CreationDate,2026-10-07T14:48:38+00:00
; #@! TF.GenerationSoftware,Kicad,Pcbnew,10.0.5-unknown-202607221313~667fa36054~ubuntu25.10.1
; #@! TF.FileFunction,Plated,1,4,PTH
FMAT,2
METRIC
; #@! TA.AperFunction,Plated,PTH,ViaDrill
T1C0.200
; #@! TA.AperFunction,Plated,PTH,ComponentDrill
T2C0.203
; #@! TA.AperFunction,Plated,PTH,ViaDrill
T3C0.250
; #@! TA.AperFunction,Plated,PTH,ViaDrill
T4C0.300
; #@! TA.AperFunction,Plated,PTH,ComponentDrill
T5C1.067
; #@! TA.AperFunction,Plated,PTH,ComponentDrill
T6C2.464
%
G90
G05
T1
X123.15Y-69.0
X123.15Y-73.625
X123.15Y-78.25
X123.15Y-82.875
X123.15Y-87.5
X123.15Y-92.125
X123.15Y-96.75
X123.15Y-101.375
X123.15Y-106.0
X123.9Y-69.0
X123.9Y-73.625
X123.9Y-78.25
X123.9Y-82.875
X123.9Y-87.5
X123.9Y-92.125
X123.9Y-96.75
X123.9Y-101.375
X123.9Y-106.0
X134.108Y-85.621
X134.9Y-83.228
X135.0Y-85.684
X135.627Y-83.228
X135.9Y-85.684
X136.8Y-85.684
X137.716Y-85.684
X140.577Y-91.25
X142.925Y-92.4
X142.943Y-91.629
X143.75Y-91.75
X144.401Y-87.289
X144.508Y-91.814
X144.931Y-86.758
X144.959Y-89.347
X145.039Y-92.344
X145.461Y-86.228
X145.489Y-88.816
X145.569Y-92.875
X145.582Y-90.272
X145.85Y-93.637
X145.85Y-94.387
X145.85Y-95.137
X145.85Y-95.887
X145.85Y-96.637
X145.85Y-97.387
X145.85Y-98.137
X145.85Y-98.887
X145.85Y-99.637
X145.85Y-100.387
X145.85Y-101.137
X145.85Y-101.887
X145.85Y-102.637
X145.85Y-103.387
X145.992Y-85.698
X146.02Y-88.286
X146.113Y-90.802
X146.449Y-104.51
X146.522Y-85.167
X146.55Y-87.756
X146.643Y-91.332
X147.08Y-87.225
X147.173Y-91.863
X147.7Y-93.016
X147.7Y-93.766
X147.7Y-94.516
X147.7Y-95.266
X147.7Y-96.016
X147.7Y-96.766
X147.7Y-97.516
X147.7Y-98.266
X147.7Y-99.016
X147.7Y-99.766
X147.7Y-100.516
X147.7Y-101.266
X147.7Y-102.016
T2
X132.8Y-86.9
X132.8Y-88.2
X132.8Y-89.5
X132.8Y-90.8
X132.8Y-92.1
X132.8Y-93.4
X134.1Y-86.9
X134.1Y-88.2
X134.1Y-89.5
X134.1Y-90.8
X134.1Y-92.1
X134.1Y-93.4
X135.4Y-86.9
X135.4Y-88.2
X135.4Y-89.5
X135.4Y-90.8
X135.4Y-92.1
X135.4Y-93.4
X136.7Y-86.9
X136.7Y-88.2
X136.7Y-89.5
X136.7Y-90.8
X136.7Y-92.1
X136.7Y-93.4
X138.0Y-86.9
X138.0Y-88.2
X138.0Y-89.5
X138.0Y-90.8
X138.0Y-92.1
X138.0Y-93.4
X139.3Y-86.9
X139.3Y-88.2
X139.3Y-89.5
X139.3Y-90.8
X139.3Y-92.1
X139.3Y-93.4
T3
X131.85Y-95.764
X153.5Y-85.969
X153.5Y-104.05
T4
X132.073Y-97.195
X132.581Y-98.453
X133.926Y-98.176
X135.5Y-98.0
X136.75Y-98.5
X138.0Y-98.25
X139.25Y-97.5
X140.55Y-88.0
X140.576Y-87.2
X140.75Y-97.5
X143.1Y-93.7
T5
X108.9Y-80.0
X108.9Y-83.0
X108.9Y-86.0
X108.9Y-89.0
X108.9Y-92.0
X108.9Y-95.0
X111.9Y-80.0
X111.9Y-83.0
X111.9Y-86.0
X111.9Y-89.0
X111.9Y-92.0
X111.9Y-95.0
X149.5Y-69.0
X149.5Y-72.0
X152.5Y-69.0
X152.5Y-72.0
X155.5Y-69.0
X155.5Y-72.0
X158.5Y-69.0
X158.5Y-72.0
X161.5Y-69.0
X161.5Y-72.0
X171.3Y-84.5
X171.3Y-87.5
X171.3Y-102.5
X171.3Y-105.5
T6
X147.35Y-70.5
X163.65Y-70.5
M30
