%TF.GenerationSoftware,KiCad,Pcbnew,10.0.5-unknown-202607221313~667fa36054~ubuntu25.10.1*%
%TF.CreationDate,Date%
%TF.ProjectId,bms_slave,626d735f-736c-4617-9665-2e6b69636164,+ (Unreleased)*%
%TF.SameCoordinates,Original*%
%TF.FileFunction,Copper,L2,Inr*%
%TF.FilePolarity,Positive*%
%FSLAX46Y46*%
G04 Gerber Fmt 4.6, Leading zero omitted, Abs format (unit mm)*
G04 Created by KiCad*
%MOMM*%
%LPD*%
G01*
G04 APERTURE LIST*
%TA.AperFunction,ComponentPad*%
%ADD10C,1.574800*%
%TD*%
%TA.AperFunction,ComponentPad*%
%ADD11C,0.499999*%
%TD*%
%TA.AperFunction,ComponentPad*%
%ADD12C,2.971800*%
%TD*%
%TA.AperFunction,ViaPad*%
%ADD13C,0.500000*%
%TD*%
%TA.AperFunction,ViaPad*%
%ADD14C,0.600000*%
%TD*%
%TA.AperFunction,ViaPad*%
%ADD15C,0.550000*%
%TD*%
G04 APERTURE END LIST*
D10*
%TO.N,/Project Architecture/Cell Sense & Balance/TAP0*%
%TO.C,J3*%
X108900000Y-95000000D03*
%TO.N,/Project Architecture/Cell Sense & Balance/TAP2*%
X108900000Y-92000001D03*
%TO.N,/Project Architecture/GND*%
X108900000Y-89000002D03*
X108900000Y-86000002D03*
%TO.N,/Project Architecture/Cell Sense & Balance/TAP8*%
X108900000Y-83000003D03*
%TO.N,/Project Architecture/VMODULE*%
X108900000Y-80000004D03*
%TO.N,/Project Architecture/Cell Sense & Balance/TAP1*%
X111899999Y-95000000D03*
%TO.N,/Project Architecture/Cell Sense & Balance/TAP3*%
X111899999Y-92000001D03*
%TO.N,/Project Architecture/Cell Sense & Balance/TAP4*%
X111899999Y-89000002D03*
%TO.N,/Project Architecture/Cell Sense & Balance/TAP5*%
X111899999Y-86000002D03*
%TO.N,/Project Architecture/Cell Sense & Balance/TAP6*%
X111899999Y-83000003D03*
%TO.N,/Project Architecture/Cell Sense & Balance/TAP7*%
X111899999Y-80000004D03*
%TD*%
%TO.N,/Project Architecture/Connectors/COML.P*%
%TO.C,J1*%
X171300000Y-105500000D03*
%TO.N,/Project Architecture/Connectors/COML.N*%
X171300000Y-102500001D03*
%TD*%
%TO.N,/Project Architecture/Connectors/COMH.P*%
%TO.C,J2*%
X171300000Y-84500001D03*
%TO.N,/Project Architecture/Connectors/COMH.N*%
X171300000Y-87500000D03*
%TD*%
D11*
%TO.N,/Project Architecture/GND*%
%TO.C,U1*%
X132800000Y-86899998D03*
X132800000Y-88199998D03*
X132800000Y-89500000D03*
X132800000Y-90800000D03*
X132800000Y-92100000D03*
X132800000Y-93400000D03*
X134100000Y-86899998D03*
X134100000Y-88199998D03*
X134100000Y-89500000D03*
X134100000Y-90800000D03*
X134100000Y-92100000D03*
X134100000Y-93400000D03*
X135400000Y-86899998D03*
X135400000Y-88199998D03*
X135400000Y-89500000D03*
X135400000Y-90800000D03*
X135400000Y-92100000D03*
X135400000Y-93400000D03*
X136700002Y-86899998D03*
X136700002Y-88199998D03*
X136700002Y-89500000D03*
X136700002Y-90800000D03*
X136700002Y-92100000D03*
X136700002Y-93400000D03*
X138000002Y-86899998D03*
X138000002Y-88199998D03*
X138000002Y-89500000D03*
X138000002Y-90800000D03*
X138000002Y-92100000D03*
X138000002Y-93400000D03*
X139300002Y-86899998D03*
X139300002Y-88199998D03*
X139300002Y-89500000D03*
X139300002Y-90800000D03*
X139300002Y-92100000D03*
X139300002Y-93400000D03*
%TD*%
D10*
%TO.N,/Project Architecture/Connectors/T_P8*%
%TO.C,J4*%
X161500000Y-72000000D03*
%TO.N,/Project Architecture/Connectors/T_P7*%
X158500001Y-72000000D03*
%TO.N,/Project Architecture/Connectors/T_P6*%
X155500002Y-72000000D03*
%TO.N,/Project Architecture/Connectors/T_P5*%
X152500003Y-72000000D03*
%TO.N,/Project Architecture/Connectors/T_P4*%
X149500004Y-72000000D03*
%TO.N,/Project Architecture/Connectors/T_P3*%
X161500000Y-69000001D03*
%TO.N,/Project Architecture/Connectors/T_P2*%
X158500001Y-69000001D03*
%TO.N,/Project Architecture/Connectors/T_P1*%
X155500002Y-69000001D03*
%TO.N,/Project Architecture/GND*%
X152500003Y-69000001D03*
X149500004Y-69000001D03*
D12*
X147350003Y-70500000D03*
X163650001Y-70500000D03*
%TD*%
D13*
%TO.N,/Project Architecture/Temperature Sense/GPIO4*%
X135000000Y-85684180D03*
D14*
%TO.N,/Project Architecture/Cell Sense & Balance/CB5*%
X135500000Y-98000000D03*
D13*
X123150000Y-82875000D03*
X123900000Y-82875000D03*
%TO.N,/Project Architecture/GND*%
X142925000Y-92400000D03*
X140600000Y-90775000D03*
D15*
%TO.N,/Project Architecture/Cell Sense & Balance/BAT*%
X131500000Y-96500000D03*
D13*
%TO.N,/Project Architecture/Temperature Sense/GPIO2*%
X134108006Y-85621349D03*
%TO.N,/Project Architecture/Temperature Sense/GPIO8*%
X137715983Y-85684180D03*
X168000000Y-78400000D03*
%TO.N,/Project Architecture/Temperature Sense/GPIO5*%
X135626967Y-83228089D03*
%TO.N,/Project Architecture/Cell Sense & Balance/CB0*%
X123150000Y-106000000D03*
D14*
X143100000Y-93700000D03*
D13*
X123900000Y-106000000D03*
%TO.N,/Project Architecture/Cell Sense & Balance/CB1*%
X123900000Y-101375000D03*
D14*
X140750000Y-97500000D03*
D13*
X123150000Y-101375000D03*
%TO.N,/Project Architecture/Temperature Sense/GPIO3*%
X134900000Y-83228089D03*
D14*
%TO.N,/Project Architecture/Cell Sense & Balance/CB4*%
X136750000Y-98500000D03*
D13*
X123150000Y-87500000D03*
X123900000Y-87500000D03*
%TO.N,/Project Architecture/Cell Sense & Balance/CB7*%
X123150000Y-73625000D03*
D14*
X132581315Y-98453180D03*
D13*
X123900000Y-73625000D03*
%TO.N,/Project Architecture/Temperature Sense/GPIO6*%
X135900000Y-85684180D03*
%TO.N,/Project Architecture/Cell Sense & Balance/CB6*%
X123150000Y-78250000D03*
D14*
X133926052Y-98176052D03*
D13*
X123900000Y-78250000D03*
%TO.N,/Project Architecture/Temperature Sense/GPIO7*%
X136800001Y-85684180D03*
D14*
%TO.N,/Project Architecture/Cell Sense & Balance/CB2*%
X139250000Y-97500000D03*
D13*
X123900000Y-96750000D03*
X123150000Y-96750000D03*
D14*
%TO.N,/Project Architecture/Cell Sense & Balance/CB8*%
X131750000Y-97500000D03*
D13*
X123900000Y-69000000D03*
X123150000Y-69000000D03*
D14*
%TO.N,/Project Architecture/Cell Sense & Balance/CB3*%
X138000000Y-98250000D03*
D13*
X123150000Y-92125000D03*
X123900000Y-92125000D03*
%TO.N,/Project Architecture/Power & Reference/REFHP*%
X142942997Y-91629086D03*
%TO.N,/Project Architecture/Power & Reference/AVDD*%
X140577091Y-91596216D03*
%TD*%
M02*
