%TF.GenerationSoftware,KiCad,Pcbnew,10.0.5-unknown-202607221313~667fa36054~ubuntu25.10.1*%
%TF.CreationDate,Date%
%TF.ProjectId,bms_slave,626d735f-736c-4617-9665-2e6b69636164,+ (Unreleased)*%
%TF.SameCoordinates,Original*%
%TF.FileFunction,Legend,Bot*%
%TF.FilePolarity,Positive*%
%FSLAX46Y46*%
G04 Gerber Fmt 4.6, Leading zero omitted, Abs format (unit mm)*
G04 Created by KiCad*
%MOMM*%
%LPD*%
G01*
G04 APERTURE LIST*
G04 Aperture macros list*
%AMRoundRect*
0 Rectangle with rounded corners*
0 $1 Rounding radius*
0 $2 $3 $4 $5 $6 $7 $8 $9 X,Y pos of 4 corners*
0 Add a 4 corners polygon primitive as box body*
4,1,4,$2,$3,$4,$5,$6,$7,$8,$9,$2,$3,0*
0 Add four circle primitives for the rounded corners*
1,1,$1+$1,$2,$3*
1,1,$1+$1,$4,$5*
1,1,$1+$1,$6,$7*
1,1,$1+$1,$8,$9*
0 Add four rect primitives between the rounded corners*
20,1,$1+$1,$2,$3,$4,$5,0*
20,1,$1+$1,$4,$5,$6,$7,0*
20,1,$1+$1,$6,$7,$8,$9,0*
20,1,$1+$1,$8,$9,$2,$3,0*%
G04 Aperture macros list end*
%ADD10C,0.200000*%
%ADD11C,0.508000*%
%ADD12C,0.635000*%
%ADD13C,0.120000*%
%ADD14C,1.574800*%
%ADD15C,2.463800*%
%ADD16C,3.200000*%
%ADD17C,1.066800*%
%ADD18C,0.499999*%
%ADD19C,2.971800*%
%ADD20RoundRect,0.225000X-0.225000X-0.250000X0.225000X-0.250000X0.225000X0.250000X-0.225000X0.250000X0*%
%ADD21RoundRect,0.250000X0.650000X-0.325000X0.650000X0.325000X-0.650000X0.325000X-0.650000X-0.325000X0*%
%ADD22RoundRect,0.225000X0.225000X0.250000X-0.225000X0.250000X-0.225000X-0.250000X0.225000X-0.250000X0*%
%ADD23RoundRect,0.225000X-0.250000X0.225000X-0.250000X-0.225000X0.250000X-0.225000X0.250000X0.225000X0*%
%ADD24RoundRect,0.225000X0.250000X-0.225000X0.250000X0.225000X-0.250000X0.225000X-0.250000X-0.225000X0*%
G04 APERTURE END LIST*
D10*
G36*
X141145803Y-98219291D02*
G01*
X141145803Y-98539738D01*
X141172426Y-98539738D01*
X141191682Y-98477514D01*
X141216927Y-98425261D01*
X141247832Y-98381589D01*
X141284472Y-98345443D01*
X141342018Y-98307682D01*
X141403431Y-98285423D01*
X141470280Y-98277909D01*
X141526533Y-98283494D01*
X141579228Y-98300083D01*
X141629404Y-98328101D01*
X141673499Y-98365109D01*
X141708575Y-98408592D01*
X141735283Y-98459321D01*
X141758836Y-98529713D01*
X141773338Y-98606366D01*
X141778331Y-98690252D01*
X141774659Y-98773196D01*
X141764038Y-98848882D01*
X141746946Y-98918070D01*
X141720789Y-98983430D01*
X141687920Y-99034388D01*
X141648577Y-99073347D01*
X141601342Y-99101751D01*
X141544316Y-99119572D01*
X141475042Y-99125921D01*
X141417713Y-99121555D01*
X141364586Y-99108742D01*
X141314880Y-99087575D01*
X141269027Y-99058446D01*
X141218172Y-99015353D01*
X141161496Y-98955256D01*
X141161496Y-99035184D01*
X141215906Y-99084229D01*
X141269871Y-99121810D01*
X141323734Y-99149185D01*
X141381037Y-99168293D01*
X141446317Y-99180317D01*
X141520838Y-99184539D01*
X141618192Y-99177633D01*
X141705448Y-99157680D01*
X141784193Y-99125310D01*
X141838875Y-99092167D01*
X141886329Y-99052979D01*
X141927188Y-99007481D01*
X141961818Y-98955134D01*
X141996662Y-98879190D01*
X142017348Y-98800827D01*
X142024283Y-98718951D01*
X142016641Y-98632735D01*
X141993753Y-98549628D01*
X141954980Y-98468419D01*
X141916950Y-98412101D01*
X141873280Y-98363031D01*
X141823710Y-98320650D01*
X141767767Y-98284626D01*
X141687161Y-98248182D01*
X141604087Y-98226544D01*
X141517419Y-98219291D01*
X141452893Y-98223454D01*
X141384347Y-98236365D01*
X141311094Y-98258859D01*
X141253376Y-98277825D01*
X141231166Y-98281817D01*
X141210766Y-98278081D01*
X141193247Y-98266857D01*
X141180573Y-98248706D01*
X141172426Y-98219291D01*
X141145803Y-98219291D01*
G37*
G36*
X140613781Y-98219291D02*
G01*
X140613781Y-98977421D01*
X140611293Y-99055998D01*
X140606271Y-99087452D01*
X140594923Y-99108750D01*
X140574885Y-99126409D01*
X140546898Y-99137113D01*
X140498315Y-99141552D01*
X140477127Y-99141552D01*
X140477127Y-99165000D01*
X140964880Y-99165000D01*
X140964880Y-99141552D01*
X140940273Y-99141552D01*
X140885397Y-99137406D01*
X140855581Y-99127752D01*
X140834160Y-99111096D01*
X140821449Y-99089834D01*
X140815492Y-99057847D01*
X140812534Y-98977421D01*
X140812534Y-98496751D01*
X140814614Y-98437998D01*
X140818701Y-98415907D01*
X140827254Y-98401232D01*
X140841599Y-98388490D01*
X140859420Y-98380075D01*
X140880189Y-98377194D01*
X140916317Y-98382032D01*
X140964941Y-98399054D01*
X140977214Y-98375607D01*
X140636312Y-98219291D01*
X140613781Y-98219291D01*
G37*
G36*
X140078503Y-98224246D02*
G01*
X140136240Y-98238182D01*
X140184953Y-98260179D01*
X140226107Y-98290000D01*
X140261702Y-98328147D01*
X140285946Y-98367670D01*
X140300207Y-98409190D01*
X140304997Y-98453642D01*
X140301374Y-98499691D01*
X140290918Y-98540613D01*
X140273917Y-98577290D01*
X140249515Y-98610305D01*
X140205058Y-98654322D01*
X140132867Y-98712356D01*
X140198230Y-98747277D01*
X140245152Y-98781619D01*
X140277337Y-98815366D01*
X140301332Y-98854760D01*
X140315751Y-98898079D01*
X140320690Y-98946463D01*
X140315948Y-98993925D01*
X140302063Y-99036808D01*
X140278919Y-99076157D01*
X140245585Y-99112670D01*
X140206399Y-99141105D01*
X140159082Y-99162262D01*
X140101999Y-99175786D01*
X140033094Y-99180631D01*
X139960950Y-99175244D01*
X139899909Y-99160045D01*
X139848065Y-99135941D01*
X139803933Y-99103084D01*
X139766535Y-99061500D01*
X139740520Y-99016633D01*
X139734354Y-98997327D01*
X139903340Y-98997327D01*
X139907501Y-99038312D01*
X139919085Y-99071028D01*
X139937534Y-99097283D01*
X139962207Y-99117643D01*
X139989844Y-99129638D01*
X140021492Y-99133736D01*
X140052743Y-99129077D01*
X140084018Y-99114563D01*
X140110157Y-99090353D01*
X140130852Y-99051976D01*
X140142769Y-99005581D01*
X140147216Y-98944204D01*
X140144445Y-98894944D01*
X140136286Y-98848400D01*
X140123800Y-98805593D01*
X140111679Y-98778607D01*
X140100643Y-98763057D01*
X140081637Y-98743681D01*
X140010349Y-98798928D01*
X139960379Y-98851192D01*
X139927702Y-98901034D01*
X139909296Y-98949345D01*
X139903340Y-98997327D01*
X139734354Y-98997327D01*
X139724889Y-98967690D01*
X139719547Y-98913490D01*
X139723922Y-98861248D01*
X139736628Y-98814314D01*
X139757466Y-98771707D01*
X139785996Y-98733242D01*
X139829861Y-98689043D01*
X139893081Y-98638107D01*
X139840768Y-98608254D01*
X139801573Y-98578079D01*
X139773219Y-98547615D01*
X139751812Y-98512477D01*
X139739000Y-98474189D01*
X139735101Y-98436362D01*
X139895158Y-98436362D01*
X139898330Y-98485066D01*
X139907431Y-98528197D01*
X139923030Y-98568159D01*
X139944983Y-98603790D01*
X140014375Y-98554169D01*
X140059635Y-98513985D01*
X140086766Y-98481547D01*
X140107439Y-98445131D01*
X140118950Y-98411470D01*
X140122609Y-98379759D01*
X140118929Y-98348798D01*
X140108274Y-98322148D01*
X140090491Y-98298792D01*
X140067419Y-98280591D01*
X140041772Y-98269850D01*
X140012638Y-98266186D01*
X139980650Y-98270361D01*
X139954715Y-98282240D01*
X139933382Y-98301967D01*
X139913202Y-98335161D01*
X139900024Y-98378948D01*
X139895158Y-98436362D01*
X139735101Y-98436362D01*
X139734629Y-98431782D01*
X139739051Y-98389801D01*
X139752093Y-98351376D01*
X139774049Y-98315583D01*
X139806009Y-98281817D01*
X139843069Y-98255807D01*
X139888234Y-98236322D01*
X139943158Y-98223797D01*
X140009891Y-98219291D01*
X140078503Y-98224246D01*
G37*
G36*
X130421047Y-100969291D02*
G01*
X130421047Y-101289738D01*
X130447670Y-101289738D01*
X130466926Y-101227514D01*
X130492171Y-101175261D01*
X130523076Y-101131589D01*
X130559716Y-101095443D01*
X130617262Y-101057682D01*
X130678675Y-101035423D01*
X130745524Y-101027909D01*
X130801777Y-101033494D01*
X130854472Y-101050083D01*
X130904648Y-101078101D01*
X130948743Y-101115109D01*
X130983819Y-101158592D01*
X131010527Y-101209321D01*
X131034080Y-101279713D01*
X131048582Y-101356366D01*
X131053575Y-101440252D01*
X131049903Y-101523196D01*
X131039282Y-101598882D01*
X131022190Y-101668070D01*
X130996033Y-101733430D01*
X130963164Y-101784388D01*
X130923821Y-101823347D01*
X130876586Y-101851751D01*
X130819560Y-101869572D01*
X130750286Y-101875921D01*
X130692957Y-101871555D01*
X130639830Y-101858742D01*
X130590124Y-101837575D01*
X130544271Y-101808446D01*
X130493416Y-101765353D01*
X130436740Y-101705256D01*
X130436740Y-101785184D01*
X130491150Y-101834229D01*
X130545115Y-101871810D01*
X130598978Y-101899185D01*
X130656281Y-101918293D01*
X130721561Y-101930317D01*
X130796082Y-101934539D01*
X130893436Y-101927633D01*
X130980692Y-101907680D01*
X131059437Y-101875310D01*
X131114119Y-101842167D01*
X131161573Y-101802979D01*
X131202432Y-101757481D01*
X131237062Y-101705134D01*
X131271906Y-101629190D01*
X131292592Y-101550827D01*
X131299527Y-101468951D01*
X131291885Y-101382735D01*
X131268997Y-101299628D01*
X131230224Y-101218419D01*
X131192194Y-101162101D01*
X131148524Y-101113031D01*
X131098954Y-101070650D01*
X131043011Y-101034626D01*
X130962405Y-100998182D01*
X130879331Y-100976544D01*
X130792663Y-100969291D01*
X130728137Y-100973454D01*
X130659591Y-100986365D01*
X130586338Y-101008859D01*
X130528620Y-101027825D01*
X130506410Y-101031817D01*
X130486010Y-101028081D01*
X130468491Y-101016857D01*
X130455817Y-100998706D01*
X130447670Y-100969291D01*
X130421047Y-100969291D01*
G37*
G36*
X130309794Y-101567198D02*
G01*
X130309794Y-101707882D01*
X129974388Y-101707882D01*
X129974388Y-101915000D01*
X129786565Y-101915000D01*
X129786565Y-101707882D01*
X129701874Y-101707882D01*
X129701874Y-101567198D01*
X129786565Y-101567198D01*
X129974388Y-101567198D01*
X130243544Y-101567198D01*
X129974388Y-101201383D01*
X129974388Y-101567198D01*
X129786565Y-101567198D01*
X129786565Y-100969291D01*
X129869913Y-100969291D01*
X130309794Y-101567198D01*
G37*
G36*
X139770803Y-87069291D02*
G01*
X139770803Y-87389738D01*
X139797426Y-87389738D01*
X139816682Y-87327514D01*
X139841927Y-87275261D01*
X139872832Y-87231589D01*
X139909472Y-87195443D01*
X139967018Y-87157682D01*
X140028431Y-87135423D01*
X140095280Y-87127909D01*
X140151533Y-87133494D01*
X140204228Y-87150083D01*
X140254404Y-87178101D01*
X140298499Y-87215109D01*
X140333575Y-87258592D01*
X140360283Y-87309321D01*
X140383836Y-87379713D01*
X140398338Y-87456366D01*
X140403331Y-87540252D01*
X140399659Y-87623196D01*
X140389038Y-87698882D01*
X140371946Y-87768070D01*
X140345789Y-87833430D01*
X140312920Y-87884388D01*
X140273577Y-87923347D01*
X140226342Y-87951751D01*
X140169316Y-87969572D01*
X140100042Y-87975921D01*
X140042713Y-87971555D01*
X139989586Y-87958742D01*
X139939880Y-87937575D01*
X139894027Y-87908446D01*
X139843172Y-87865353D01*
X139786496Y-87805256D01*
X139786496Y-87885184D01*
X139840906Y-87934229D01*
X139894871Y-87971810D01*
X139948734Y-87999185D01*
X140006037Y-88018293D01*
X140071317Y-88030317D01*
X140145838Y-88034539D01*
X140243192Y-88027633D01*
X140330448Y-88007680D01*
X140409193Y-87975310D01*
X140463875Y-87942167D01*
X140511329Y-87902979D01*
X140552188Y-87857481D01*
X140586818Y-87805134D01*
X140621662Y-87729190D01*
X140642348Y-87650827D01*
X140649283Y-87568951D01*
X140641641Y-87482735D01*
X140618753Y-87399628D01*
X140579980Y-87318419D01*
X140541950Y-87262101D01*
X140498280Y-87213031D01*
X140448710Y-87170650D01*
X140392767Y-87134626D01*
X140312161Y-87098182D01*
X140229087Y-87076544D01*
X140142419Y-87069291D01*
X140077893Y-87073454D01*
X140009347Y-87086365D01*
X139936094Y-87108859D01*
X139878376Y-87127825D01*
X139856166Y-87131817D01*
X139835766Y-87128081D01*
X139818247Y-87116857D01*
X139805573Y-87098706D01*
X139797426Y-87069291D01*
X139770803Y-87069291D01*
G37*
G36*
X139115133Y-88015000D02*
G01*
X139660283Y-88015000D01*
X139660283Y-87999918D01*
X139491906Y-87793078D01*
X139399010Y-87667605D01*
X139355957Y-87598016D01*
X139325427Y-87527681D01*
X139307945Y-87460772D01*
X139302284Y-87396332D01*
X139307438Y-87350218D01*
X139322245Y-87310957D01*
X139346675Y-87277020D01*
X139378759Y-87250452D01*
X139414522Y-87234837D01*
X139455302Y-87229515D01*
X139504527Y-87236002D01*
X139547171Y-87254959D01*
X139584952Y-87287156D01*
X139618579Y-87335272D01*
X139643858Y-87326296D01*
X139613002Y-87242052D01*
X139575454Y-87178664D01*
X139531872Y-87132184D01*
X139478972Y-87097136D01*
X139421646Y-87076350D01*
X139358338Y-87069291D01*
X139312315Y-87073016D01*
X139269740Y-87083957D01*
X139229927Y-87102081D01*
X139193866Y-87126729D01*
X139163749Y-87156506D01*
X139139069Y-87191840D01*
X139113904Y-87248921D01*
X139106279Y-87298635D01*
X139111631Y-87358005D01*
X139128112Y-87419156D01*
X139156838Y-87482978D01*
X139210046Y-87563885D01*
X139305321Y-87678091D01*
X139458050Y-87835237D01*
X139257893Y-87835237D01*
X139190473Y-87833307D01*
X139161906Y-87829314D01*
X139141353Y-87821105D01*
X139125330Y-87809103D01*
X139110939Y-87790429D01*
X139087778Y-87749263D01*
X139063232Y-87749263D01*
X139115133Y-88015000D01*
G37*
G36*
X138960039Y-87667198D02*
G01*
X138960039Y-87807882D01*
X138624632Y-87807882D01*
X138624632Y-88015000D01*
X138436810Y-88015000D01*
X138436810Y-87807882D01*
X138352118Y-87807882D01*
X138352118Y-87667198D01*
X138436810Y-87667198D01*
X138624632Y-87667198D01*
X138893788Y-87667198D01*
X138624632Y-87301383D01*
X138624632Y-87667198D01*
X138436810Y-87667198D01*
X138436810Y-87069291D01*
X138520158Y-87069291D01*
X138960039Y-87667198D01*
G37*
G36*
X142695803Y-102399291D02*
G01*
X142695803Y-102719738D01*
X142722426Y-102719738D01*
X142741682Y-102657514D01*
X142766927Y-102605261D01*
X142797832Y-102561589D01*
X142834472Y-102525443D01*
X142892018Y-102487682D01*
X142953431Y-102465423D01*
X143020280Y-102457909D01*
X143076533Y-102463494D01*
X143129228Y-102480083D01*
X143179404Y-102508101D01*
X143223499Y-102545109D01*
X143258575Y-102588592D01*
X143285283Y-102639321D01*
X143308836Y-102709713D01*
X143323338Y-102786366D01*
X143328331Y-102870252D01*
X143324659Y-102953196D01*
X143314038Y-103028882D01*
X143296946Y-103098070D01*
X143270789Y-103163430D01*
X143237920Y-103214388D01*
X143198577Y-103253347D01*
X143151342Y-103281751D01*
X143094316Y-103299572D01*
X143025042Y-103305921D01*
X142967713Y-103301555D01*
X142914586Y-103288742D01*
X142864880Y-103267575D01*
X142819027Y-103238446D01*
X142768172Y-103195353D01*
X142711496Y-103135256D01*
X142711496Y-103215184D01*
X142765906Y-103264229D01*
X142819871Y-103301810D01*
X142873734Y-103329185D01*
X142931037Y-103348293D01*
X142996317Y-103360317D01*
X143070838Y-103364539D01*
X143168192Y-103357633D01*
X143255448Y-103337680D01*
X143334193Y-103305310D01*
X143388875Y-103272167D01*
X143436329Y-103232979D01*
X143477188Y-103187481D01*
X143511818Y-103135134D01*
X143546662Y-103059190D01*
X143567348Y-102980827D01*
X143574283Y-102898951D01*
X143566641Y-102812735D01*
X143543753Y-102729628D01*
X143504980Y-102648419D01*
X143466950Y-102592101D01*
X143423280Y-102543031D01*
X143373710Y-102500650D01*
X143317767Y-102464626D01*
X143237161Y-102428182D01*
X143154087Y-102406544D01*
X143067419Y-102399291D01*
X143002893Y-102403454D01*
X142934347Y-102416365D01*
X142861094Y-102438859D01*
X142803376Y-102457825D01*
X142781166Y-102461817D01*
X142760766Y-102458081D01*
X142743247Y-102446857D01*
X142730573Y-102428706D01*
X142722426Y-102399291D01*
X142695803Y-102399291D01*
G37*
G36*
X142163781Y-102399291D02*
G01*
X142163781Y-103157421D01*
X142161293Y-103235998D01*
X142156271Y-103267452D01*
X142144923Y-103288750D01*
X142124885Y-103306409D01*
X142096898Y-103317113D01*
X142048315Y-103321552D01*
X142027127Y-103321552D01*
X142027127Y-103345000D01*
X142514880Y-103345000D01*
X142514880Y-103321552D01*
X142490273Y-103321552D01*
X142435397Y-103317406D01*
X142405581Y-103307752D01*
X142384160Y-103291096D01*
X142371449Y-103269834D01*
X142365492Y-103237847D01*
X142362534Y-103157421D01*
X142362534Y-102676751D01*
X142364614Y-102617998D01*
X142368701Y-102595907D01*
X142377254Y-102581232D01*
X142391599Y-102568490D01*
X142409420Y-102560075D01*
X142430189Y-102557194D01*
X142466317Y-102562032D01*
X142514941Y-102579054D01*
X142527214Y-102555607D01*
X142186312Y-102399291D01*
X142163781Y-102399291D01*
G37*
G36*
X141631937Y-102403853D02*
G01*
X141680424Y-102417625D01*
X141728662Y-102441179D01*
X141771834Y-102472782D01*
X141807750Y-102511787D01*
X141836923Y-102559026D01*
X141857821Y-102610833D01*
X141870512Y-102666325D01*
X141874842Y-102726271D01*
X141869959Y-102791801D01*
X141856205Y-102847034D01*
X141834435Y-102893748D01*
X141804805Y-102933328D01*
X141767325Y-102966589D01*
X141726212Y-102989921D01*
X141680675Y-103004057D01*
X141629561Y-103008921D01*
X141597321Y-103006768D01*
X141567096Y-103000434D01*
X141536214Y-102989415D01*
X141494983Y-102970087D01*
X141510733Y-103033142D01*
X141532313Y-103089751D01*
X141559524Y-103140629D01*
X141593539Y-103186939D01*
X141634989Y-103228311D01*
X141684577Y-103265010D01*
X141738846Y-103294787D01*
X141802507Y-103320289D01*
X141876857Y-103341092D01*
X141876857Y-103360631D01*
X141782332Y-103352152D01*
X141696874Y-103334421D01*
X141619397Y-103307997D01*
X141548961Y-103273131D01*
X141482920Y-103228729D01*
X141426653Y-103178446D01*
X141379300Y-103122053D01*
X141340316Y-103059052D01*
X141309419Y-102990882D01*
X141287643Y-102921938D01*
X141274633Y-102851772D01*
X141270280Y-102779883D01*
X141270351Y-102778845D01*
X141477947Y-102778845D01*
X141484786Y-102912873D01*
X141527045Y-102930067D01*
X141555128Y-102934672D01*
X141585898Y-102929603D01*
X141611876Y-102914649D01*
X141634385Y-102888387D01*
X141651422Y-102852958D01*
X141665646Y-102801248D01*
X141675627Y-102728329D01*
X141679447Y-102628513D01*
X141675507Y-102552373D01*
X141665802Y-102504103D01*
X141652825Y-102475434D01*
X141638193Y-102459012D01*
X141620748Y-102449472D01*
X141599519Y-102446186D01*
X141574251Y-102450104D01*
X141555128Y-102461146D01*
X141528119Y-102494798D01*
X141506646Y-102548218D01*
X141490933Y-102619958D01*
X141481260Y-102696662D01*
X141477947Y-102778845D01*
X141270351Y-102778845D01*
X141275304Y-102705983D01*
X141289817Y-102639645D01*
X141313327Y-102579726D01*
X141346148Y-102524572D01*
X141384564Y-102480299D01*
X141428793Y-102445575D01*
X141478630Y-102419617D01*
X141529576Y-102404372D01*
X141582483Y-102399291D01*
X141631937Y-102403853D01*
G37*
G36*
X136495803Y-102399291D02*
G01*
X136495803Y-102719738D01*
X136522426Y-102719738D01*
X136541682Y-102657514D01*
X136566927Y-102605261D01*
X136597832Y-102561589D01*
X136634472Y-102525443D01*
X136692018Y-102487682D01*
X136753431Y-102465423D01*
X136820280Y-102457909D01*
X136876533Y-102463494D01*
X136929228Y-102480083D01*
X136979404Y-102508101D01*
X137023499Y-102545109D01*
X137058575Y-102588592D01*
X137085283Y-102639321D01*
X137108836Y-102709713D01*
X137123338Y-102786366D01*
X137128331Y-102870252D01*
X137124659Y-102953196D01*
X137114038Y-103028882D01*
X137096946Y-103098070D01*
X137070789Y-103163430D01*
X137037920Y-103214388D01*
X136998577Y-103253347D01*
X136951342Y-103281751D01*
X136894316Y-103299572D01*
X136825042Y-103305921D01*
X136767713Y-103301555D01*
X136714586Y-103288742D01*
X136664880Y-103267575D01*
X136619027Y-103238446D01*
X136568172Y-103195353D01*
X136511496Y-103135256D01*
X136511496Y-103215184D01*
X136565906Y-103264229D01*
X136619871Y-103301810D01*
X136673734Y-103329185D01*
X136731037Y-103348293D01*
X136796317Y-103360317D01*
X136870838Y-103364539D01*
X136968192Y-103357633D01*
X137055448Y-103337680D01*
X137134193Y-103305310D01*
X137188875Y-103272167D01*
X137236329Y-103232979D01*
X137277188Y-103187481D01*
X137311818Y-103135134D01*
X137346662Y-103059190D01*
X137367348Y-102980827D01*
X137374283Y-102898951D01*
X137366641Y-102812735D01*
X137343753Y-102729628D01*
X137304980Y-102648419D01*
X137266950Y-102592101D01*
X137223280Y-102543031D01*
X137173710Y-102500650D01*
X137117767Y-102464626D01*
X137037161Y-102428182D01*
X136954087Y-102406544D01*
X136867419Y-102399291D01*
X136802893Y-102403454D01*
X136734347Y-102416365D01*
X136661094Y-102438859D01*
X136603376Y-102457825D01*
X136581166Y-102461817D01*
X136560766Y-102458081D01*
X136543247Y-102446857D01*
X136530573Y-102428706D01*
X136522426Y-102399291D01*
X136495803Y-102399291D01*
G37*
G36*
X135963781Y-102399291D02*
G01*
X135963781Y-103157421D01*
X135961293Y-103235998D01*
X135956271Y-103267452D01*
X135944923Y-103288750D01*
X135924885Y-103306409D01*
X135896898Y-103317113D01*
X135848315Y-103321552D01*
X135827127Y-103321552D01*
X135827127Y-103345000D01*
X136314880Y-103345000D01*
X136314880Y-103321552D01*
X136290273Y-103321552D01*
X136235397Y-103317406D01*
X136205581Y-103307752D01*
X136184160Y-103291096D01*
X136171449Y-103269834D01*
X136165492Y-103237847D01*
X136162534Y-103157421D01*
X136162534Y-102676751D01*
X136164614Y-102617998D01*
X136168701Y-102595907D01*
X136177254Y-102581232D01*
X136191599Y-102568490D01*
X136209420Y-102560075D01*
X136230189Y-102557194D01*
X136266317Y-102562032D01*
X136314941Y-102579054D01*
X136327214Y-102555607D01*
X135986312Y-102399291D01*
X135963781Y-102399291D01*
G37*
G36*
X135506742Y-102418831D02*
G01*
X135072966Y-102418831D01*
X135141965Y-102598593D01*
X135506742Y-102598593D01*
X135541607Y-102692383D01*
X135444620Y-102700706D01*
X135361596Y-102717160D01*
X135290679Y-102740755D01*
X135230238Y-102770836D01*
X135178907Y-102807116D01*
X135132340Y-102854545D01*
X135100184Y-102905879D01*
X135080943Y-102962069D01*
X135074371Y-103024614D01*
X135079588Y-103078942D01*
X135095460Y-103133044D01*
X135122853Y-103187768D01*
X135159236Y-103236834D01*
X135204433Y-103278784D01*
X135259446Y-103314042D01*
X135319666Y-103339786D01*
X135383797Y-103355340D01*
X135452764Y-103360631D01*
X135527555Y-103355197D01*
X135584325Y-103340598D01*
X135626970Y-103318621D01*
X135651724Y-103296397D01*
X135665075Y-103274109D01*
X135669346Y-103250844D01*
X135663915Y-103223670D01*
X135647181Y-103199370D01*
X135622929Y-103182459D01*
X135595585Y-103176960D01*
X135569097Y-103179483D01*
X135541668Y-103187280D01*
X135510169Y-103202739D01*
X135448062Y-103241318D01*
X135407171Y-103265272D01*
X135376316Y-103278688D01*
X135354267Y-103284377D01*
X135328505Y-103286381D01*
X135292840Y-103281833D01*
X135261445Y-103268491D01*
X135233190Y-103245837D01*
X135211298Y-103216829D01*
X135198346Y-103184724D01*
X135193928Y-103148445D01*
X135201095Y-103095128D01*
X135222345Y-103047328D01*
X135258942Y-103003366D01*
X135314156Y-102962515D01*
X135375022Y-102932499D01*
X135444882Y-102910143D01*
X135525148Y-102895999D01*
X135617445Y-102891013D01*
X135672766Y-102891685D01*
X135506742Y-102418831D01*
G37*
G36*
X138045803Y-98219291D02*
G01*
X138045803Y-98539738D01*
X138072426Y-98539738D01*
X138091682Y-98477514D01*
X138116927Y-98425261D01*
X138147832Y-98381589D01*
X138184472Y-98345443D01*
X138242018Y-98307682D01*
X138303431Y-98285423D01*
X138370280Y-98277909D01*
X138426533Y-98283494D01*
X138479228Y-98300083D01*
X138529404Y-98328101D01*
X138573499Y-98365109D01*
X138608575Y-98408592D01*
X138635283Y-98459321D01*
X138658836Y-98529713D01*
X138673338Y-98606366D01*
X138678331Y-98690252D01*
X138674659Y-98773196D01*
X138664038Y-98848882D01*
X138646946Y-98918070D01*
X138620789Y-98983430D01*
X138587920Y-99034388D01*
X138548577Y-99073347D01*
X138501342Y-99101751D01*
X138444316Y-99119572D01*
X138375042Y-99125921D01*
X138317713Y-99121555D01*
X138264586Y-99108742D01*
X138214880Y-99087575D01*
X138169027Y-99058446D01*
X138118172Y-99015353D01*
X138061496Y-98955256D01*
X138061496Y-99035184D01*
X138115906Y-99084229D01*
X138169871Y-99121810D01*
X138223734Y-99149185D01*
X138281037Y-99168293D01*
X138346317Y-99180317D01*
X138420838Y-99184539D01*
X138518192Y-99177633D01*
X138605448Y-99157680D01*
X138684193Y-99125310D01*
X138738875Y-99092167D01*
X138786329Y-99052979D01*
X138827188Y-99007481D01*
X138861818Y-98955134D01*
X138896662Y-98879190D01*
X138917348Y-98800827D01*
X138924283Y-98718951D01*
X138916641Y-98632735D01*
X138893753Y-98549628D01*
X138854980Y-98468419D01*
X138816950Y-98412101D01*
X138773280Y-98363031D01*
X138723710Y-98320650D01*
X138667767Y-98284626D01*
X138587161Y-98248182D01*
X138504087Y-98226544D01*
X138417419Y-98219291D01*
X138352893Y-98223454D01*
X138284347Y-98236365D01*
X138211094Y-98258859D01*
X138153376Y-98277825D01*
X138131166Y-98281817D01*
X138110766Y-98278081D01*
X138093247Y-98266857D01*
X138080573Y-98248706D01*
X138072426Y-98219291D01*
X138045803Y-98219291D01*
G37*
G36*
X137513781Y-98219291D02*
G01*
X137513781Y-98977421D01*
X137511293Y-99055998D01*
X137506271Y-99087452D01*
X137494923Y-99108750D01*
X137474885Y-99126409D01*
X137446898Y-99137113D01*
X137398315Y-99141552D01*
X137377127Y-99141552D01*
X137377127Y-99165000D01*
X137864880Y-99165000D01*
X137864880Y-99141552D01*
X137840273Y-99141552D01*
X137785397Y-99137406D01*
X137755581Y-99127752D01*
X137734160Y-99111096D01*
X137721449Y-99089834D01*
X137715492Y-99057847D01*
X137712534Y-98977421D01*
X137712534Y-98496751D01*
X137714614Y-98437998D01*
X137718701Y-98415907D01*
X137727254Y-98401232D01*
X137741599Y-98388490D01*
X137759420Y-98380075D01*
X137780189Y-98377194D01*
X137816317Y-98382032D01*
X137864941Y-98399054D01*
X137877214Y-98375607D01*
X137536312Y-98219291D01*
X137513781Y-98219291D01*
G37*
G36*
X136702586Y-98225154D02*
G01*
X136784898Y-98240871D01*
X136860680Y-98265984D01*
X136930773Y-98300380D01*
X136996301Y-98344166D01*
X137053128Y-98394253D01*
X137101952Y-98450907D01*
X137143204Y-98514642D01*
X137176017Y-98583372D01*
X137199284Y-98654093D01*
X137213284Y-98727334D01*
X137218003Y-98803703D01*
X137213378Y-98872863D01*
X137199789Y-98937480D01*
X137177398Y-98998304D01*
X137145896Y-99054422D01*
X137108275Y-99099243D01*
X137064313Y-99134225D01*
X137014381Y-99160090D01*
X136962073Y-99175456D01*
X136906471Y-99180631D01*
X136855264Y-99176013D01*
X136806343Y-99162225D01*
X136758949Y-99138927D01*
X136716686Y-99107477D01*
X136681316Y-99068377D01*
X136652398Y-99020713D01*
X136631664Y-98968526D01*
X136627459Y-98949883D01*
X136809507Y-98949883D01*
X136813232Y-99025115D01*
X136822273Y-99071279D01*
X136834114Y-99097466D01*
X136852492Y-99118716D01*
X136870898Y-99130105D01*
X136890107Y-99133736D01*
X136918460Y-99127617D01*
X136943413Y-99108640D01*
X136960858Y-99083125D01*
X136977607Y-99043723D01*
X136992933Y-98985847D01*
X137006437Y-98897321D01*
X137011007Y-98804680D01*
X137005512Y-98667660D01*
X136963144Y-98650010D01*
X136934498Y-98645251D01*
X136903718Y-98650309D01*
X136877741Y-98665228D01*
X136855241Y-98691413D01*
X136837922Y-98726774D01*
X136823491Y-98778266D01*
X136813376Y-98850761D01*
X136809507Y-98949883D01*
X136627459Y-98949883D01*
X136619077Y-98912722D01*
X136614784Y-98852552D01*
X136619614Y-98787512D01*
X136633229Y-98732591D01*
X136654792Y-98686050D01*
X136684149Y-98646533D01*
X136721284Y-98613254D01*
X136761945Y-98589949D01*
X136806909Y-98575849D01*
X136857317Y-98571001D01*
X136902043Y-98574440D01*
X136946771Y-98584862D01*
X136967337Y-98593803D01*
X136996658Y-98611973D01*
X136977625Y-98543848D01*
X136955055Y-98486394D01*
X136929369Y-98438255D01*
X136897392Y-98394349D01*
X136858236Y-98354693D01*
X136811217Y-98319064D01*
X136759615Y-98290095D01*
X136694294Y-98263164D01*
X136612769Y-98238831D01*
X136612769Y-98219291D01*
X136702586Y-98225154D01*
G37*
G36*
X144245803Y-98219291D02*
G01*
X144245803Y-98539738D01*
X144272426Y-98539738D01*
X144291682Y-98477514D01*
X144316927Y-98425261D01*
X144347832Y-98381589D01*
X144384472Y-98345443D01*
X144442018Y-98307682D01*
X144503431Y-98285423D01*
X144570280Y-98277909D01*
X144626533Y-98283494D01*
X144679228Y-98300083D01*
X144729404Y-98328101D01*
X144773499Y-98365109D01*
X144808575Y-98408592D01*
X144835283Y-98459321D01*
X144858836Y-98529713D01*
X144873338Y-98606366D01*
X144878331Y-98690252D01*
X144874659Y-98773196D01*
X144864038Y-98848882D01*
X144846946Y-98918070D01*
X144820789Y-98983430D01*
X144787920Y-99034388D01*
X144748577Y-99073347D01*
X144701342Y-99101751D01*
X144644316Y-99119572D01*
X144575042Y-99125921D01*
X144517713Y-99121555D01*
X144464586Y-99108742D01*
X144414880Y-99087575D01*
X144369027Y-99058446D01*
X144318172Y-99015353D01*
X144261496Y-98955256D01*
X144261496Y-99035184D01*
X144315906Y-99084229D01*
X144369871Y-99121810D01*
X144423734Y-99149185D01*
X144481037Y-99168293D01*
X144546317Y-99180317D01*
X144620838Y-99184539D01*
X144718192Y-99177633D01*
X144805448Y-99157680D01*
X144884193Y-99125310D01*
X144938875Y-99092167D01*
X144986329Y-99052979D01*
X145027188Y-99007481D01*
X145061818Y-98955134D01*
X145096662Y-98879190D01*
X145117348Y-98800827D01*
X145124283Y-98718951D01*
X145116641Y-98632735D01*
X145093753Y-98549628D01*
X145054980Y-98468419D01*
X145016950Y-98412101D01*
X144973280Y-98363031D01*
X144923710Y-98320650D01*
X144867767Y-98284626D01*
X144787161Y-98248182D01*
X144704087Y-98226544D01*
X144617419Y-98219291D01*
X144552893Y-98223454D01*
X144484347Y-98236365D01*
X144411094Y-98258859D01*
X144353376Y-98277825D01*
X144331166Y-98281817D01*
X144310766Y-98278081D01*
X144293247Y-98266857D01*
X144280573Y-98248706D01*
X144272426Y-98219291D01*
X144245803Y-98219291D01*
G37*
G36*
X143590133Y-99165000D02*
G01*
X144135283Y-99165000D01*
X144135283Y-99149918D01*
X143966906Y-98943078D01*
X143874010Y-98817605D01*
X143830957Y-98748016D01*
X143800427Y-98677681D01*
X143782945Y-98610772D01*
X143777284Y-98546332D01*
X143782438Y-98500218D01*
X143797245Y-98460957D01*
X143821675Y-98427020D01*
X143853759Y-98400452D01*
X143889522Y-98384837D01*
X143930302Y-98379515D01*
X143979527Y-98386002D01*
X144022171Y-98404959D01*
X144059952Y-98437156D01*
X144093579Y-98485272D01*
X144118858Y-98476296D01*
X144088002Y-98392052D01*
X144050454Y-98328664D01*
X144006872Y-98282184D01*
X143953972Y-98247136D01*
X143896646Y-98226350D01*
X143833338Y-98219291D01*
X143787315Y-98223016D01*
X143744740Y-98233957D01*
X143704927Y-98252081D01*
X143668866Y-98276729D01*
X143638749Y-98306506D01*
X143614069Y-98341840D01*
X143588904Y-98398921D01*
X143581279Y-98448635D01*
X143586631Y-98508005D01*
X143603112Y-98569156D01*
X143631838Y-98632978D01*
X143685046Y-98713885D01*
X143780321Y-98828091D01*
X143933050Y-98985237D01*
X143732893Y-98985237D01*
X143665473Y-98983307D01*
X143636906Y-98979314D01*
X143616353Y-98971105D01*
X143600330Y-98959103D01*
X143585939Y-98940429D01*
X143562778Y-98899263D01*
X143538232Y-98899263D01*
X143590133Y-99165000D01*
G37*
G36*
X143171846Y-98225242D02*
G01*
X143221587Y-98243326D01*
X143271152Y-98274795D01*
X143313281Y-98315733D01*
X143348593Y-98368235D01*
X143376970Y-98434408D01*
X143400144Y-98519370D01*
X143414434Y-98611218D01*
X143419346Y-98710830D01*
X143411959Y-98820456D01*
X143389976Y-98926008D01*
X143364261Y-98998312D01*
X143337403Y-99049228D01*
X143291598Y-99106282D01*
X143241721Y-99146620D01*
X143204492Y-99165439D01*
X143164446Y-99176770D01*
X143120820Y-99180631D01*
X143064100Y-99173693D01*
X143012255Y-99153093D01*
X142965410Y-99120976D01*
X142923106Y-99078538D01*
X142888730Y-99026652D01*
X142860580Y-98958004D01*
X142839182Y-98877243D01*
X142826090Y-98791445D01*
X142821623Y-98699961D01*
X143032038Y-98699961D01*
X143034786Y-98993724D01*
X143041049Y-99046509D01*
X143052398Y-99084775D01*
X143067576Y-99111877D01*
X143088185Y-99127960D01*
X143118805Y-99133736D01*
X143147850Y-99129411D01*
X143169364Y-99117372D01*
X143184896Y-99095817D01*
X143198673Y-99052465D01*
X143207999Y-98969397D01*
X143212350Y-98788743D01*
X143209134Y-98462464D01*
X143203497Y-98366936D01*
X143194713Y-98327369D01*
X143183054Y-98300295D01*
X143169303Y-98282550D01*
X143149838Y-98270512D01*
X143122897Y-98266186D01*
X143088729Y-98272137D01*
X143067576Y-98288046D01*
X143054275Y-98312264D01*
X143042810Y-98352834D01*
X143034786Y-98416456D01*
X143032038Y-98699961D01*
X142821623Y-98699961D01*
X142826909Y-98600023D01*
X142842325Y-98507510D01*
X142867419Y-98421524D01*
X142894007Y-98362937D01*
X142928217Y-98314232D01*
X142970245Y-98274124D01*
X143019084Y-98243163D01*
X143068906Y-98225233D01*
X143120820Y-98219291D01*
X143171846Y-98225242D01*
G37*
G36*
X139770803Y-90219291D02*
G01*
X139770803Y-90539738D01*
X139797426Y-90539738D01*
X139816682Y-90477514D01*
X139841927Y-90425261D01*
X139872832Y-90381589D01*
X139909472Y-90345443D01*
X139967018Y-90307682D01*
X140028431Y-90285423D01*
X140095280Y-90277909D01*
X140151533Y-90283494D01*
X140204228Y-90300083D01*
X140254404Y-90328101D01*
X140298499Y-90365109D01*
X140333575Y-90408592D01*
X140360283Y-90459321D01*
X140383836Y-90529713D01*
X140398338Y-90606366D01*
X140403331Y-90690252D01*
X140399659Y-90773196D01*
X140389038Y-90848882D01*
X140371946Y-90918070D01*
X140345789Y-90983430D01*
X140312920Y-91034388D01*
X140273577Y-91073347D01*
X140226342Y-91101751D01*
X140169316Y-91119572D01*
X140100042Y-91125921D01*
X140042713Y-91121555D01*
X139989586Y-91108742D01*
X139939880Y-91087575D01*
X139894027Y-91058446D01*
X139843172Y-91015353D01*
X139786496Y-90955256D01*
X139786496Y-91035184D01*
X139840906Y-91084229D01*
X139894871Y-91121810D01*
X139948734Y-91149185D01*
X140006037Y-91168293D01*
X140071317Y-91180317D01*
X140145838Y-91184539D01*
X140243192Y-91177633D01*
X140330448Y-91157680D01*
X140409193Y-91125310D01*
X140463875Y-91092167D01*
X140511329Y-91052979D01*
X140552188Y-91007481D01*
X140586818Y-90955134D01*
X140621662Y-90879190D01*
X140642348Y-90800827D01*
X140649283Y-90718951D01*
X140641641Y-90632735D01*
X140618753Y-90549628D01*
X140579980Y-90468419D01*
X140541950Y-90412101D01*
X140498280Y-90363031D01*
X140448710Y-90320650D01*
X140392767Y-90284626D01*
X140312161Y-90248182D01*
X140229087Y-90226544D01*
X140142419Y-90219291D01*
X140077893Y-90223454D01*
X140009347Y-90236365D01*
X139936094Y-90258859D01*
X139878376Y-90277825D01*
X139856166Y-90281817D01*
X139835766Y-90278081D01*
X139818247Y-90266857D01*
X139805573Y-90248706D01*
X139797426Y-90219291D01*
X139770803Y-90219291D01*
G37*
G36*
X139115133Y-91165000D02*
G01*
X139660283Y-91165000D01*
X139660283Y-91149918D01*
X139491906Y-90943078D01*
X139399010Y-90817605D01*
X139355957Y-90748016D01*
X139325427Y-90677681D01*
X139307945Y-90610772D01*
X139302284Y-90546332D01*
X139307438Y-90500218D01*
X139322245Y-90460957D01*
X139346675Y-90427020D01*
X139378759Y-90400452D01*
X139414522Y-90384837D01*
X139455302Y-90379515D01*
X139504527Y-90386002D01*
X139547171Y-90404959D01*
X139584952Y-90437156D01*
X139618579Y-90485272D01*
X139643858Y-90476296D01*
X139613002Y-90392052D01*
X139575454Y-90328664D01*
X139531872Y-90282184D01*
X139478972Y-90247136D01*
X139421646Y-90226350D01*
X139358338Y-90219291D01*
X139312315Y-90223016D01*
X139269740Y-90233957D01*
X139229927Y-90252081D01*
X139193866Y-90276729D01*
X139163749Y-90306506D01*
X139139069Y-90341840D01*
X139113904Y-90398921D01*
X139106279Y-90448635D01*
X139111631Y-90508005D01*
X139128112Y-90569156D01*
X139156838Y-90632978D01*
X139210046Y-90713885D01*
X139305321Y-90828091D01*
X139458050Y-90985237D01*
X139257893Y-90985237D01*
X139190473Y-90983307D01*
X139161906Y-90979314D01*
X139141353Y-90971105D01*
X139125330Y-90959103D01*
X139110939Y-90940429D01*
X139087778Y-90899263D01*
X139063232Y-90899263D01*
X139115133Y-91165000D01*
G37*
G36*
X138415622Y-91165000D02*
G01*
X138960772Y-91165000D01*
X138960772Y-91149918D01*
X138792395Y-90943078D01*
X138699498Y-90817605D01*
X138656445Y-90748016D01*
X138625916Y-90677681D01*
X138608433Y-90610772D01*
X138602773Y-90546332D01*
X138607927Y-90500218D01*
X138622734Y-90460957D01*
X138647164Y-90427020D01*
X138679248Y-90400452D01*
X138715011Y-90384837D01*
X138755791Y-90379515D01*
X138805015Y-90386002D01*
X138847659Y-90404959D01*
X138885441Y-90437156D01*
X138919067Y-90485272D01*
X138944346Y-90476296D01*
X138913491Y-90392052D01*
X138875943Y-90328664D01*
X138832361Y-90282184D01*
X138779460Y-90247136D01*
X138722135Y-90226350D01*
X138658826Y-90219291D01*
X138612803Y-90223016D01*
X138570228Y-90233957D01*
X138530416Y-90252081D01*
X138494355Y-90276729D01*
X138464238Y-90306506D01*
X138439557Y-90341840D01*
X138414392Y-90398921D01*
X138406768Y-90448635D01*
X138412119Y-90508005D01*
X138428601Y-90569156D01*
X138457326Y-90632978D01*
X138510535Y-90713885D01*
X138605810Y-90828091D01*
X138758539Y-90985237D01*
X138558382Y-90985237D01*
X138490961Y-90983307D01*
X138462394Y-90979314D01*
X138441841Y-90971105D01*
X138425819Y-90959103D01*
X138411427Y-90940429D01*
X138388266Y-90899263D01*
X138363720Y-90899263D01*
X138415622Y-91165000D01*
G37*
G36*
X139595803Y-102399291D02*
G01*
X139595803Y-102719738D01*
X139622426Y-102719738D01*
X139641682Y-102657514D01*
X139666927Y-102605261D01*
X139697832Y-102561589D01*
X139734472Y-102525443D01*
X139792018Y-102487682D01*
X139853431Y-102465423D01*
X139920280Y-102457909D01*
X139976533Y-102463494D01*
X140029228Y-102480083D01*
X140079404Y-102508101D01*
X140123499Y-102545109D01*
X140158575Y-102588592D01*
X140185283Y-102639321D01*
X140208836Y-102709713D01*
X140223338Y-102786366D01*
X140228331Y-102870252D01*
X140224659Y-102953196D01*
X140214038Y-103028882D01*
X140196946Y-103098070D01*
X140170789Y-103163430D01*
X140137920Y-103214388D01*
X140098577Y-103253347D01*
X140051342Y-103281751D01*
X139994316Y-103299572D01*
X139925042Y-103305921D01*
X139867713Y-103301555D01*
X139814586Y-103288742D01*
X139764880Y-103267575D01*
X139719027Y-103238446D01*
X139668172Y-103195353D01*
X139611496Y-103135256D01*
X139611496Y-103215184D01*
X139665906Y-103264229D01*
X139719871Y-103301810D01*
X139773734Y-103329185D01*
X139831037Y-103348293D01*
X139896317Y-103360317D01*
X139970838Y-103364539D01*
X140068192Y-103357633D01*
X140155448Y-103337680D01*
X140234193Y-103305310D01*
X140288875Y-103272167D01*
X140336329Y-103232979D01*
X140377188Y-103187481D01*
X140411818Y-103135134D01*
X140446662Y-103059190D01*
X140467348Y-102980827D01*
X140474283Y-102898951D01*
X140466641Y-102812735D01*
X140443753Y-102729628D01*
X140404980Y-102648419D01*
X140366950Y-102592101D01*
X140323280Y-102543031D01*
X140273710Y-102500650D01*
X140217767Y-102464626D01*
X140137161Y-102428182D01*
X140054087Y-102406544D01*
X139967419Y-102399291D01*
X139902893Y-102403454D01*
X139834347Y-102416365D01*
X139761094Y-102438859D01*
X139703376Y-102457825D01*
X139681166Y-102461817D01*
X139660766Y-102458081D01*
X139643247Y-102446857D01*
X139630573Y-102428706D01*
X139622426Y-102399291D01*
X139595803Y-102399291D01*
G37*
G36*
X139063781Y-102399291D02*
G01*
X139063781Y-103157421D01*
X139061293Y-103235998D01*
X139056271Y-103267452D01*
X139044923Y-103288750D01*
X139024885Y-103306409D01*
X138996898Y-103317113D01*
X138948315Y-103321552D01*
X138927127Y-103321552D01*
X138927127Y-103345000D01*
X139414880Y-103345000D01*
X139414880Y-103321552D01*
X139390273Y-103321552D01*
X139335397Y-103317406D01*
X139305581Y-103307752D01*
X139284160Y-103291096D01*
X139271449Y-103269834D01*
X139265492Y-103237847D01*
X139262534Y-103157421D01*
X139262534Y-102676751D01*
X139264614Y-102617998D01*
X139268701Y-102595907D01*
X139277254Y-102581232D01*
X139291599Y-102568490D01*
X139309420Y-102560075D01*
X139330189Y-102557194D01*
X139366317Y-102562032D01*
X139414941Y-102579054D01*
X139427214Y-102555607D01*
X139086312Y-102399291D01*
X139063781Y-102399291D01*
G37*
G36*
X138571937Y-103364539D02*
G01*
X138319878Y-102598593D01*
X138511853Y-102598593D01*
X138587150Y-102602524D01*
X138642106Y-102612818D01*
X138681236Y-102627658D01*
X138704901Y-102644069D01*
X138726745Y-102668886D01*
X138746815Y-102704106D01*
X138772766Y-102704106D01*
X138705843Y-102418831D01*
X138153854Y-102418831D01*
X138464653Y-103364539D01*
X138571937Y-103364539D01*
G37*
G36*
X133395803Y-102399291D02*
G01*
X133395803Y-102719738D01*
X133422426Y-102719738D01*
X133441682Y-102657514D01*
X133466927Y-102605261D01*
X133497832Y-102561589D01*
X133534472Y-102525443D01*
X133592018Y-102487682D01*
X133653431Y-102465423D01*
X133720280Y-102457909D01*
X133776533Y-102463494D01*
X133829228Y-102480083D01*
X133879404Y-102508101D01*
X133923499Y-102545109D01*
X133958575Y-102588592D01*
X133985283Y-102639321D01*
X134008836Y-102709713D01*
X134023338Y-102786366D01*
X134028331Y-102870252D01*
X134024659Y-102953196D01*
X134014038Y-103028882D01*
X133996946Y-103098070D01*
X133970789Y-103163430D01*
X133937920Y-103214388D01*
X133898577Y-103253347D01*
X133851342Y-103281751D01*
X133794316Y-103299572D01*
X133725042Y-103305921D01*
X133667713Y-103301555D01*
X133614586Y-103288742D01*
X133564880Y-103267575D01*
X133519027Y-103238446D01*
X133468172Y-103195353D01*
X133411496Y-103135256D01*
X133411496Y-103215184D01*
X133465906Y-103264229D01*
X133519871Y-103301810D01*
X133573734Y-103329185D01*
X133631037Y-103348293D01*
X133696317Y-103360317D01*
X133770838Y-103364539D01*
X133868192Y-103357633D01*
X133955448Y-103337680D01*
X134034193Y-103305310D01*
X134088875Y-103272167D01*
X134136329Y-103232979D01*
X134177188Y-103187481D01*
X134211818Y-103135134D01*
X134246662Y-103059190D01*
X134267348Y-102980827D01*
X134274283Y-102898951D01*
X134266641Y-102812735D01*
X134243753Y-102729628D01*
X134204980Y-102648419D01*
X134166950Y-102592101D01*
X134123280Y-102543031D01*
X134073710Y-102500650D01*
X134017767Y-102464626D01*
X133937161Y-102428182D01*
X133854087Y-102406544D01*
X133767419Y-102399291D01*
X133702893Y-102403454D01*
X133634347Y-102416365D01*
X133561094Y-102438859D01*
X133503376Y-102457825D01*
X133481166Y-102461817D01*
X133460766Y-102458081D01*
X133443247Y-102446857D01*
X133430573Y-102428706D01*
X133422426Y-102399291D01*
X133395803Y-102399291D01*
G37*
G36*
X132863781Y-102399291D02*
G01*
X132863781Y-103157421D01*
X132861293Y-103235998D01*
X132856271Y-103267452D01*
X132844923Y-103288750D01*
X132824885Y-103306409D01*
X132796898Y-103317113D01*
X132748315Y-103321552D01*
X132727127Y-103321552D01*
X132727127Y-103345000D01*
X133214880Y-103345000D01*
X133214880Y-103321552D01*
X133190273Y-103321552D01*
X133135397Y-103317406D01*
X133105581Y-103307752D01*
X133084160Y-103291096D01*
X133071449Y-103269834D01*
X133065492Y-103237847D01*
X133062534Y-103157421D01*
X133062534Y-102676751D01*
X133064614Y-102617998D01*
X133068701Y-102595907D01*
X133077254Y-102581232D01*
X133091599Y-102568490D01*
X133109420Y-102560075D01*
X133130189Y-102557194D01*
X133166317Y-102562032D01*
X133214941Y-102579054D01*
X133227214Y-102555607D01*
X132886312Y-102399291D01*
X132863781Y-102399291D01*
G37*
G36*
X132412909Y-102876053D02*
G01*
X132412909Y-102856514D01*
X132341541Y-102832575D01*
X132305014Y-102814504D01*
X132277764Y-102790810D01*
X132253052Y-102755092D01*
X132236516Y-102714311D01*
X132231192Y-102674064D01*
X132235803Y-102638001D01*
X132249384Y-102605924D01*
X132272530Y-102576734D01*
X132302185Y-102554218D01*
X132336011Y-102540727D01*
X132375295Y-102536067D01*
X132419832Y-102542057D01*
X132461027Y-102560034D01*
X132500174Y-102591310D01*
X132537900Y-102638771D01*
X132563179Y-102629856D01*
X132525484Y-102556584D01*
X132483422Y-102499869D01*
X132437150Y-102457116D01*
X132383572Y-102424804D01*
X132326961Y-102405720D01*
X132266058Y-102399291D01*
X132204127Y-102406109D01*
X132151898Y-102425605D01*
X132107239Y-102457604D01*
X132071887Y-102499628D01*
X132051527Y-102544552D01*
X132044713Y-102593892D01*
X132051824Y-102643253D01*
X132073778Y-102691833D01*
X132095685Y-102720796D01*
X132125603Y-102748455D01*
X132164941Y-102774876D01*
X132114048Y-102804037D01*
X132073907Y-102836004D01*
X132043003Y-102870741D01*
X132020212Y-102910612D01*
X132006010Y-102957646D01*
X132000993Y-103013562D01*
X132007660Y-103083687D01*
X132027158Y-103147143D01*
X132059535Y-103205376D01*
X132105895Y-103259392D01*
X132161103Y-103302641D01*
X132225128Y-103334058D01*
X132299667Y-103353707D01*
X132386958Y-103360631D01*
X132464843Y-103355286D01*
X132520136Y-103341370D01*
X132558416Y-103321186D01*
X132580492Y-103300386D01*
X132593112Y-103276970D01*
X132597373Y-103249867D01*
X132591741Y-103220391D01*
X132574842Y-103195584D01*
X132550319Y-103178570D01*
X132522879Y-103173053D01*
X132500974Y-103175478D01*
X132480564Y-103182700D01*
X132403017Y-103243211D01*
X132356405Y-103275485D01*
X132315362Y-103292771D01*
X132278331Y-103298105D01*
X132246355Y-103293714D01*
X132217776Y-103280692D01*
X132191564Y-103258232D01*
X132171726Y-103229801D01*
X132159601Y-103196503D01*
X132155355Y-103156994D01*
X132162479Y-103097002D01*
X132183918Y-103040065D01*
X132220934Y-102984802D01*
X132255965Y-102949762D01*
X132298813Y-102919896D01*
X132350630Y-102895198D01*
X132412909Y-102876053D01*
G37*
G36*
X131519291Y-96578952D02*
G01*
X131839738Y-96578952D01*
X131839738Y-96552329D01*
X131777514Y-96533073D01*
X131725261Y-96507828D01*
X131681589Y-96476923D01*
X131645443Y-96440283D01*
X131607682Y-96382737D01*
X131585423Y-96321324D01*
X131577909Y-96254475D01*
X131583494Y-96198222D01*
X131600083Y-96145527D01*
X131628101Y-96095351D01*
X131665109Y-96051256D01*
X131708592Y-96016180D01*
X131759321Y-95989472D01*
X131829713Y-95965919D01*
X131906366Y-95951417D01*
X131990252Y-95946424D01*
X132073196Y-95950096D01*
X132148882Y-95960717D01*
X132218070Y-95977809D01*
X132283430Y-96003966D01*
X132334388Y-96036835D01*
X132373347Y-96076178D01*
X132401751Y-96123413D01*
X132419572Y-96180439D01*
X132425921Y-96249713D01*
X132421555Y-96307042D01*
X132408742Y-96360169D01*
X132387575Y-96409875D01*
X132358446Y-96455728D01*
X132315353Y-96506583D01*
X132255256Y-96563259D01*
X132335184Y-96563259D01*
X132384229Y-96508849D01*
X132421810Y-96454884D01*
X132449185Y-96401021D01*
X132468293Y-96343718D01*
X132480317Y-96278438D01*
X132484539Y-96203917D01*
X132477633Y-96106563D01*
X132457680Y-96019307D01*
X132425310Y-95940562D01*
X132392167Y-95885880D01*
X132352979Y-95838426D01*
X132307481Y-95797567D01*
X132255134Y-95762937D01*
X132179190Y-95728093D01*
X132100827Y-95707407D01*
X132018951Y-95700472D01*
X131932735Y-95708114D01*
X131849628Y-95731002D01*
X131768419Y-95769775D01*
X131712101Y-95807805D01*
X131663031Y-95851475D01*
X131620650Y-95901045D01*
X131584626Y-95956988D01*
X131548182Y-96037594D01*
X131526544Y-96120668D01*
X131519291Y-96207336D01*
X131523454Y-96271862D01*
X131536365Y-96340408D01*
X131558859Y-96413661D01*
X131577825Y-96471379D01*
X131581817Y-96493589D01*
X131578081Y-96513989D01*
X131566857Y-96531508D01*
X131548706Y-96544182D01*
X131519291Y-96552329D01*
X131519291Y-96578952D01*
G37*
G36*
X131996053Y-96862335D02*
G01*
X131976514Y-96862335D01*
X131952575Y-96933702D01*
X131934504Y-96970229D01*
X131910810Y-96997480D01*
X131875092Y-97022192D01*
X131834311Y-97038728D01*
X131794064Y-97044051D01*
X131758001Y-97039441D01*
X131725924Y-97025859D01*
X131696734Y-97002713D01*
X131674218Y-96973058D01*
X131660727Y-96939232D01*
X131656067Y-96899948D01*
X131662057Y-96855412D01*
X131680034Y-96814216D01*
X131711310Y-96775070D01*
X131758771Y-96737343D01*
X131749856Y-96712064D01*
X131676584Y-96749760D01*
X131619869Y-96791822D01*
X131577116Y-96838094D01*
X131544804Y-96891671D01*
X131525720Y-96948282D01*
X131519291Y-97009186D01*
X131526109Y-97071117D01*
X131545605Y-97123346D01*
X131577604Y-97168005D01*
X131619628Y-97203357D01*
X131664552Y-97223717D01*
X131713892Y-97230531D01*
X131763253Y-97223419D01*
X131811833Y-97201466D01*
X131840796Y-97179559D01*
X131868455Y-97149640D01*
X131894876Y-97110302D01*
X131924037Y-97161195D01*
X131956004Y-97201337D01*
X131990741Y-97232241D01*
X132030612Y-97255031D01*
X132077646Y-97269233D01*
X132133562Y-97274250D01*
X132203687Y-97267583D01*
X132267143Y-97248085D01*
X132325376Y-97215708D01*
X132379392Y-97169348D01*
X132422641Y-97114140D01*
X132454058Y-97050115D01*
X132473707Y-96975577D01*
X132480631Y-96888286D01*
X132475286Y-96810400D01*
X132461370Y-96755108D01*
X132441186Y-96716827D01*
X132420386Y-96694752D01*
X132396970Y-96682132D01*
X132369867Y-96677870D01*
X132340391Y-96683503D01*
X132315584Y-96700402D01*
X132298570Y-96724925D01*
X132293053Y-96752364D01*
X132295478Y-96774269D01*
X132302700Y-96794679D01*
X132363211Y-96872227D01*
X132395485Y-96918838D01*
X132412771Y-96959881D01*
X132418105Y-96996913D01*
X132413714Y-97028888D01*
X132400692Y-97057468D01*
X132378232Y-97083680D01*
X132349801Y-97103518D01*
X132316503Y-97115643D01*
X132276994Y-97119889D01*
X132217002Y-97112765D01*
X132160065Y-97091326D01*
X132104802Y-97054310D01*
X132069762Y-97019279D01*
X132039896Y-96976431D01*
X132015198Y-96924614D01*
X131996053Y-96862335D01*
G37*
G36*
X139770803Y-92519291D02*
G01*
X139770803Y-92839738D01*
X139797426Y-92839738D01*
X139816682Y-92777514D01*
X139841927Y-92725261D01*
X139872832Y-92681589D01*
X139909472Y-92645443D01*
X139967018Y-92607682D01*
X140028431Y-92585423D01*
X140095280Y-92577909D01*
X140151533Y-92583494D01*
X140204228Y-92600083D01*
X140254404Y-92628101D01*
X140298499Y-92665109D01*
X140333575Y-92708592D01*
X140360283Y-92759321D01*
X140383836Y-92829713D01*
X140398338Y-92906366D01*
X140403331Y-92990252D01*
X140399659Y-93073196D01*
X140389038Y-93148882D01*
X140371946Y-93218070D01*
X140345789Y-93283430D01*
X140312920Y-93334388D01*
X140273577Y-93373347D01*
X140226342Y-93401751D01*
X140169316Y-93419572D01*
X140100042Y-93425921D01*
X140042713Y-93421555D01*
X139989586Y-93408742D01*
X139939880Y-93387575D01*
X139894027Y-93358446D01*
X139843172Y-93315353D01*
X139786496Y-93255256D01*
X139786496Y-93335184D01*
X139840906Y-93384229D01*
X139894871Y-93421810D01*
X139948734Y-93449185D01*
X140006037Y-93468293D01*
X140071317Y-93480317D01*
X140145838Y-93484539D01*
X140243192Y-93477633D01*
X140330448Y-93457680D01*
X140409193Y-93425310D01*
X140463875Y-93392167D01*
X140511329Y-93352979D01*
X140552188Y-93307481D01*
X140586818Y-93255134D01*
X140621662Y-93179190D01*
X140642348Y-93100827D01*
X140649283Y-93018951D01*
X140641641Y-92932735D01*
X140618753Y-92849628D01*
X140579980Y-92768419D01*
X140541950Y-92712101D01*
X140498280Y-92663031D01*
X140448710Y-92620650D01*
X140392767Y-92584626D01*
X140312161Y-92548182D01*
X140229087Y-92526544D01*
X140142419Y-92519291D01*
X140077893Y-92523454D01*
X140009347Y-92536365D01*
X139936094Y-92558859D01*
X139878376Y-92577825D01*
X139856166Y-92581817D01*
X139835766Y-92578081D01*
X139818247Y-92566857D01*
X139805573Y-92548706D01*
X139797426Y-92519291D01*
X139770803Y-92519291D01*
G37*
G36*
X139115133Y-93465000D02*
G01*
X139660283Y-93465000D01*
X139660283Y-93449918D01*
X139491906Y-93243078D01*
X139399010Y-93117605D01*
X139355957Y-93048016D01*
X139325427Y-92977681D01*
X139307945Y-92910772D01*
X139302284Y-92846332D01*
X139307438Y-92800218D01*
X139322245Y-92760957D01*
X139346675Y-92727020D01*
X139378759Y-92700452D01*
X139414522Y-92684837D01*
X139455302Y-92679515D01*
X139504527Y-92686002D01*
X139547171Y-92704959D01*
X139584952Y-92737156D01*
X139618579Y-92785272D01*
X139643858Y-92776296D01*
X139613002Y-92692052D01*
X139575454Y-92628664D01*
X139531872Y-92582184D01*
X139478972Y-92547136D01*
X139421646Y-92526350D01*
X139358338Y-92519291D01*
X139312315Y-92523016D01*
X139269740Y-92533957D01*
X139229927Y-92552081D01*
X139193866Y-92576729D01*
X139163749Y-92606506D01*
X139139069Y-92641840D01*
X139113904Y-92698921D01*
X139106279Y-92748635D01*
X139111631Y-92808005D01*
X139128112Y-92869156D01*
X139156838Y-92932978D01*
X139210046Y-93013885D01*
X139305321Y-93128091D01*
X139458050Y-93285237D01*
X139257893Y-93285237D01*
X139190473Y-93283307D01*
X139161906Y-93279314D01*
X139141353Y-93271105D01*
X139125330Y-93259103D01*
X139110939Y-93240429D01*
X139087778Y-93199263D01*
X139063232Y-93199263D01*
X139115133Y-93465000D01*
G37*
G36*
X138787909Y-92996053D02*
G01*
X138787909Y-92976514D01*
X138716541Y-92952575D01*
X138680014Y-92934504D01*
X138652764Y-92910810D01*
X138628052Y-92875092D01*
X138611516Y-92834311D01*
X138606192Y-92794064D01*
X138610803Y-92758001D01*
X138624384Y-92725924D01*
X138647530Y-92696734D01*
X138677185Y-92674218D01*
X138711011Y-92660727D01*
X138750295Y-92656067D01*
X138794832Y-92662057D01*
X138836027Y-92680034D01*
X138875174Y-92711310D01*
X138912900Y-92758771D01*
X138938179Y-92749856D01*
X138900484Y-92676584D01*
X138858422Y-92619869D01*
X138812150Y-92577116D01*
X138758572Y-92544804D01*
X138701961Y-92525720D01*
X138641058Y-92519291D01*
X138579127Y-92526109D01*
X138526898Y-92545605D01*
X138482239Y-92577604D01*
X138446887Y-92619628D01*
X138426527Y-92664552D01*
X138419713Y-92713892D01*
X138426824Y-92763253D01*
X138448778Y-92811833D01*
X138470685Y-92840796D01*
X138500603Y-92868455D01*
X138539941Y-92894876D01*
X138489048Y-92924037D01*
X138448907Y-92956004D01*
X138418003Y-92990741D01*
X138395212Y-93030612D01*
X138381010Y-93077646D01*
X138375993Y-93133562D01*
X138382660Y-93203687D01*
X138402158Y-93267143D01*
X138434535Y-93325376D01*
X138480895Y-93379392D01*
X138536103Y-93422641D01*
X138600128Y-93454058D01*
X138674667Y-93473707D01*
X138761958Y-93480631D01*
X138839843Y-93475286D01*
X138895136Y-93461370D01*
X138933416Y-93441186D01*
X138955492Y-93420386D01*
X138968112Y-93396970D01*
X138972373Y-93369867D01*
X138966741Y-93340391D01*
X138949842Y-93315584D01*
X138925319Y-93298570D01*
X138897879Y-93293053D01*
X138875974Y-93295478D01*
X138855564Y-93302700D01*
X138778017Y-93363211D01*
X138731405Y-93395485D01*
X138690362Y-93412771D01*
X138653331Y-93418105D01*
X138621355Y-93413714D01*
X138592776Y-93400692D01*
X138566564Y-93378232D01*
X138546726Y-93349801D01*
X138534601Y-93316503D01*
X138530355Y-93276994D01*
X138537479Y-93217002D01*
X138558918Y-93160065D01*
X138595934Y-93104802D01*
X138630965Y-93069762D01*
X138673813Y-93039896D01*
X138725630Y-93015198D01*
X138787909Y-92996053D01*
G37*
G36*
X134945803Y-98219291D02*
G01*
X134945803Y-98539738D01*
X134972426Y-98539738D01*
X134991682Y-98477514D01*
X135016927Y-98425261D01*
X135047832Y-98381589D01*
X135084472Y-98345443D01*
X135142018Y-98307682D01*
X135203431Y-98285423D01*
X135270280Y-98277909D01*
X135326533Y-98283494D01*
X135379228Y-98300083D01*
X135429404Y-98328101D01*
X135473499Y-98365109D01*
X135508575Y-98408592D01*
X135535283Y-98459321D01*
X135558836Y-98529713D01*
X135573338Y-98606366D01*
X135578331Y-98690252D01*
X135574659Y-98773196D01*
X135564038Y-98848882D01*
X135546946Y-98918070D01*
X135520789Y-98983430D01*
X135487920Y-99034388D01*
X135448577Y-99073347D01*
X135401342Y-99101751D01*
X135344316Y-99119572D01*
X135275042Y-99125921D01*
X135217713Y-99121555D01*
X135164586Y-99108742D01*
X135114880Y-99087575D01*
X135069027Y-99058446D01*
X135018172Y-99015353D01*
X134961496Y-98955256D01*
X134961496Y-99035184D01*
X135015906Y-99084229D01*
X135069871Y-99121810D01*
X135123734Y-99149185D01*
X135181037Y-99168293D01*
X135246317Y-99180317D01*
X135320838Y-99184539D01*
X135418192Y-99177633D01*
X135505448Y-99157680D01*
X135584193Y-99125310D01*
X135638875Y-99092167D01*
X135686329Y-99052979D01*
X135727188Y-99007481D01*
X135761818Y-98955134D01*
X135796662Y-98879190D01*
X135817348Y-98800827D01*
X135824283Y-98718951D01*
X135816641Y-98632735D01*
X135793753Y-98549628D01*
X135754980Y-98468419D01*
X135716950Y-98412101D01*
X135673280Y-98363031D01*
X135623710Y-98320650D01*
X135567767Y-98284626D01*
X135487161Y-98248182D01*
X135404087Y-98226544D01*
X135317419Y-98219291D01*
X135252893Y-98223454D01*
X135184347Y-98236365D01*
X135111094Y-98258859D01*
X135053376Y-98277825D01*
X135031166Y-98281817D01*
X135010766Y-98278081D01*
X134993247Y-98266857D01*
X134980573Y-98248706D01*
X134972426Y-98219291D01*
X134945803Y-98219291D01*
G37*
G36*
X134413781Y-98219291D02*
G01*
X134413781Y-98977421D01*
X134411293Y-99055998D01*
X134406271Y-99087452D01*
X134394923Y-99108750D01*
X134374885Y-99126409D01*
X134346898Y-99137113D01*
X134298315Y-99141552D01*
X134277127Y-99141552D01*
X134277127Y-99165000D01*
X134764880Y-99165000D01*
X134764880Y-99141552D01*
X134740273Y-99141552D01*
X134685397Y-99137406D01*
X134655581Y-99127752D01*
X134634160Y-99111096D01*
X134621449Y-99089834D01*
X134615492Y-99057847D01*
X134612534Y-98977421D01*
X134612534Y-98496751D01*
X134614614Y-98437998D01*
X134618701Y-98415907D01*
X134627254Y-98401232D01*
X134641599Y-98388490D01*
X134659420Y-98380075D01*
X134680189Y-98377194D01*
X134716317Y-98382032D01*
X134764941Y-98399054D01*
X134777214Y-98375607D01*
X134436312Y-98219291D01*
X134413781Y-98219291D01*
G37*
G36*
X134135039Y-98817198D02*
G01*
X134135039Y-98957882D01*
X133799632Y-98957882D01*
X133799632Y-99165000D01*
X133611810Y-99165000D01*
X133611810Y-98957882D01*
X133527118Y-98957882D01*
X133527118Y-98817198D01*
X133611810Y-98817198D01*
X133799632Y-98817198D01*
X134068788Y-98817198D01*
X133799632Y-98451383D01*
X133799632Y-98817198D01*
X133611810Y-98817198D01*
X133611810Y-98219291D01*
X133695158Y-98219291D01*
X134135039Y-98817198D01*
G37*
%TO.C,J3*%
D11*
X109281000Y-99590402D02*
G75*
G02*
X108519000Y-99590402I-381000J0D01*
G01*
X108519000Y-99590402D02*
G75*
G02*
X109281000Y-99590402I381000J0D01*
G01*
%TO.C,J1*%
D12*
X171617500Y-109897901D02*
G75*
G02*
X170982500Y-109897901I-317500J0D01*
G01*
X170982500Y-109897901D02*
G75*
G02*
X171617500Y-109897901I317500J0D01*
G01*
%TO.C,J2*%
X167020100Y-84500001D02*
G75*
G02*
X166385100Y-84500001I-317500J0D01*
G01*
X166385100Y-84500001D02*
G75*
G02*
X167020100Y-84500001I317500J0D01*
G01*
%TO.C,J4*%
X166469401Y-72000000D02*
G75*
G02*
X165834401Y-72000000I-317500J0D01*
G01*
X165834401Y-72000000D02*
G75*
G02*
X166469401Y-72000000I317500J0D01*
G01*
%TO.C,C18*%
D13*
X140734420Y-99490000D02*
X141015580Y-99490000D01*
X140734420Y-100510000D02*
X141015580Y-100510000D01*
%TO.C,C4*%
X131434420Y-99490000D02*
X131715580Y-99490000D01*
X131434420Y-100510000D02*
X131715580Y-100510000D01*
%TO.C,C24*%
X140840000Y-88311252D02*
X140840000Y-86888748D01*
X142660000Y-88311252D02*
X142660000Y-86888748D01*
%TO.C,C19*%
X142284420Y-100990000D02*
X142565580Y-100990000D01*
X142284420Y-102010000D02*
X142565580Y-102010000D01*
%TO.C,C15*%
X136084420Y-100990000D02*
X136365580Y-100990000D01*
X136084420Y-102010000D02*
X136365580Y-102010000D01*
%TO.C,C16*%
X137634420Y-99490000D02*
X137915580Y-99490000D01*
X137634420Y-100510000D02*
X137915580Y-100510000D01*
%TO.C,C20*%
X143834420Y-99490000D02*
X144115580Y-99490000D01*
X143834420Y-100510000D02*
X144115580Y-100510000D01*
%TO.C,C22*%
X142640580Y-90265000D02*
X142359420Y-90265000D01*
X142640580Y-91285000D02*
X142359420Y-91285000D01*
%TO.C,C17*%
X139184420Y-100990000D02*
X139465580Y-100990000D01*
X139184420Y-102010000D02*
X139465580Y-102010000D01*
%TO.C,C13*%
X132984420Y-100990000D02*
X133265580Y-100990000D01*
X132984420Y-102010000D02*
X133265580Y-102010000D01*
%TO.C,C3*%
X130290000Y-96359420D02*
X130290000Y-96640580D01*
X131310000Y-96359420D02*
X131310000Y-96640580D01*
%TO.C,C23*%
X141240000Y-93190580D02*
X141240000Y-92909420D01*
X142260000Y-93190580D02*
X142260000Y-92909420D01*
%TO.C,C14*%
X134534420Y-99490000D02*
X134815580Y-99490000D01*
X134534420Y-100510000D02*
X134815580Y-100510000D01*
%TD*%
%LPC*%
D14*
%TO.C,J3*%
X108900000Y-95000000D03*
X108900000Y-92000001D03*
X108900000Y-89000002D03*
X108900000Y-86000002D03*
X108900000Y-83000003D03*
X108900000Y-80000004D03*
X111899999Y-95000000D03*
X111899999Y-92000001D03*
X111899999Y-89000002D03*
X111899999Y-86000002D03*
X111899999Y-83000003D03*
X111899999Y-80000004D03*
%TD*%
D15*
%TO.C,J1*%
X171300000Y-100350000D03*
X171300000Y-107650001D03*
D14*
X171300000Y-105500000D03*
X171300000Y-102500001D03*
%TD*%
D16*
%TO.C,H2*%
X171800000Y-95000000D03*
%TD*%
%TO.C,H1*%
X103750000Y-106250000D03*
%TD*%
%TO.C,H5*%
X152475000Y-94725000D03*
%TD*%
%TO.C,H3*%
X172750000Y-68750000D03*
%TD*%
D17*
%TO.C,J2*%
X174300002Y-88440001D03*
X168299998Y-88440001D03*
D14*
X171300000Y-84500001D03*
X171300000Y-87500000D03*
%TD*%
D18*
%TO.C,U1*%
X132800000Y-86899998D03*
X132800000Y-88199998D03*
X132800000Y-89500000D03*
X132800000Y-90800000D03*
X132800000Y-92100000D03*
X132800000Y-93400000D03*
X134100000Y-86899998D03*
X134100000Y-88199998D03*
X134100000Y-89500000D03*
X134100000Y-90800000D03*
X134100000Y-92100000D03*
X134100000Y-93400000D03*
X135400000Y-86899998D03*
X135400000Y-88199998D03*
X135400000Y-89500000D03*
X135400000Y-90800000D03*
X135400000Y-92100000D03*
X135400000Y-93400000D03*
X136700002Y-86899998D03*
X136700002Y-88199998D03*
X136700002Y-89500000D03*
X136700002Y-90800000D03*
X136700002Y-92100000D03*
X136700002Y-93400000D03*
X138000002Y-86899998D03*
X138000002Y-88199998D03*
X138000002Y-89500000D03*
X138000002Y-90800000D03*
X138000002Y-92100000D03*
X138000002Y-93400000D03*
X139300002Y-86899998D03*
X139300002Y-88199998D03*
X139300002Y-89500000D03*
X139300002Y-90800000D03*
X139300002Y-92100000D03*
X139300002Y-93400000D03*
%TD*%
D17*
%TO.C,J4*%
X146500002Y-68060000D03*
X164500002Y-68060000D03*
D14*
X161500000Y-72000000D03*
X158500001Y-72000000D03*
X155500002Y-72000000D03*
X152500003Y-72000000D03*
X149500004Y-72000000D03*
X161500000Y-69000001D03*
X158500001Y-69000001D03*
X155500002Y-69000001D03*
X152500003Y-69000001D03*
X149500004Y-69000001D03*
D19*
X147350003Y-70500000D03*
X163650001Y-70500000D03*
%TD*%
D16*
%TO.C,H4*%
X103750000Y-68750000D03*
%TD*%
D20*
%TO.C,C18*%
X140100000Y-100000000D03*
X141650000Y-100000000D03*
%TD*%
%TO.C,C4*%
X130800000Y-100000000D03*
X132350000Y-100000000D03*
%TD*%
D21*
%TO.C,C24*%
X141750000Y-89075000D03*
X141750000Y-86125000D03*
%TD*%
D20*
%TO.C,C19*%
X141650000Y-101500000D03*
X143200000Y-101500000D03*
%TD*%
%TO.C,C15*%
X135450000Y-101500000D03*
X137000000Y-101500000D03*
%TD*%
%TO.C,C16*%
X137000000Y-100000000D03*
X138550000Y-100000000D03*
%TD*%
%TO.C,C20*%
X143200000Y-100000000D03*
X144750000Y-100000000D03*
%TD*%
D22*
%TO.C,C22*%
X143275000Y-90775000D03*
X141725000Y-90775000D03*
%TD*%
D20*
%TO.C,C17*%
X138550000Y-101500000D03*
X140100000Y-101500000D03*
%TD*%
%TO.C,C13*%
X132350000Y-101500000D03*
X133900000Y-101500000D03*
%TD*%
D23*
%TO.C,C3*%
X130800000Y-95725000D03*
X130800000Y-97275000D03*
%TD*%
D24*
%TO.C,C23*%
X141750000Y-93825000D03*
X141750000Y-92275000D03*
%TD*%
D20*
%TO.C,C14*%
X133900000Y-100000000D03*
X135450000Y-100000000D03*
%TD*%
%LPD*%
M02*
