%TF.GenerationSoftware,KiCad,Pcbnew,10.0.5-unknown-202607221313~667fa36054~ubuntu25.10.1*%
%TF.CreationDate,Date%
%TF.ProjectId,bms_slave,626d735f-736c-4617-9665-2e6b69636164,+ (Unreleased)*%
%TF.SameCoordinates,Original*%
%TF.FileFunction,Soldermask,Bot*%
%TF.FilePolarity,Negative*%
%FSLAX46Y46*%
G04 Gerber Fmt 4.6, Leading zero omitted, Abs format (unit mm)*
G04 Created by KiCad*
%MOMM*%
%LPD*%
G01*
G04 APERTURE LIST*
G04 Aperture macros list*
%AMRoundRect*
0 Rectangle with rounded corners*
0 $1 Rounding radius*
0 $2 $3 $4 $5 $6 $7 $8 $9 X,Y pos of 4 corners*
0 Add a 4 corners polygon primitive as box body*
4,1,4,$2,$3,$4,$5,$6,$7,$8,$9,$2,$3,0*
0 Add four circle primitives for the rounded corners*
1,1,$1+$1,$2,$3*
1,1,$1+$1,$4,$5*
1,1,$1+$1,$6,$7*
1,1,$1+$1,$8,$9*
0 Add four rect primitives between the rounded corners*
20,1,$1+$1,$2,$3,$4,$5,0*
20,1,$1+$1,$4,$5,$6,$7,0*
20,1,$1+$1,$6,$7,$8,$9,0*
20,1,$1+$1,$8,$9,$2,$3,0*%
G04 Aperture macros list end*
%ADD10C,2.463800*%
%ADD11C,1.574800*%
%ADD12C,3.200000*%
%ADD13C,1.066800*%
%ADD14C,0.499999*%
%ADD15RoundRect,0.225000X-0.225000X-0.250000X0.225000X-0.250000X0.225000X0.250000X-0.225000X0.250000X0*%
G04 APERTURE END LIST*
D10*
%TO.C,J1*%
X170750000Y-91850000D03*
X170750000Y-99150001D03*
D11*
X170750000Y-97000000D03*
X170750000Y-94000001D03*
%TD*%
D12*
%TO.C,H2*%
X171250000Y-106250000D03*
%TD*%
%TO.C,H1*%
X103750000Y-106250000D03*
%TD*%
D13*
%TO.C,J3*%
X130000005Y-68059999D03*
X157000001Y-68059999D03*
D11*
X154000000Y-71999999D03*
X151000001Y-71999999D03*
X148000002Y-71999999D03*
X145000002Y-71999999D03*
X142000003Y-71999999D03*
X139000004Y-71999999D03*
X136000005Y-71999999D03*
X133000006Y-71999999D03*
X154000000Y-69000000D03*
X151000001Y-69000000D03*
X148000002Y-69000000D03*
X145000002Y-69000000D03*
X142000003Y-69000000D03*
X139000004Y-69000000D03*
X136000005Y-69000000D03*
X133000006Y-69000000D03*
%TD*%
%TO.C,J4*%
X93814301Y-95339598D03*
X93814301Y-92339599D03*
X93814301Y-89339600D03*
X93814301Y-86339600D03*
X93814301Y-83339601D03*
X93814301Y-80339602D03*
X96814300Y-95339598D03*
X96814300Y-92339599D03*
X96814300Y-89339600D03*
X96814300Y-86339600D03*
X96814300Y-83339601D03*
X96814300Y-80339602D03*
%TD*%
%TO.C,J4*%
X76223000Y-102339594D03*
X76223000Y-99339595D03*
X76223000Y-96339596D03*
X76223000Y-93339597D03*
X76223000Y-90339598D03*
X76223000Y-87339599D03*
X76223000Y-84339600D03*
X76223000Y-81339601D03*
X76223000Y-78339602D03*
X76223000Y-75339603D03*
X76223000Y-72339604D03*
X76223000Y-69339605D03*
%TD*%
D12*
%TO.C,H3*%
X171250000Y-68750000D03*
%TD*%
D13*
%TO.C,J2*%
X173750002Y-86940000D03*
X167749998Y-86940000D03*
D11*
X170750000Y-83000000D03*
X170750000Y-85999999D03*
%TD*%
D14*
%TO.C,U1*%
X132799998Y-86899998D03*
X132799998Y-88199998D03*
X132799998Y-89500000D03*
X132799998Y-90800000D03*
X132799998Y-92100000D03*
X132799998Y-93400000D03*
X134099998Y-86899998D03*
X134099998Y-88199998D03*
X134099998Y-89500000D03*
X134099998Y-90800000D03*
X134099998Y-92100000D03*
X134099998Y-93400000D03*
X135399998Y-86899998D03*
X135399998Y-88199998D03*
X135399998Y-89500000D03*
X135399998Y-90800000D03*
X135399998Y-92100000D03*
X135399998Y-93400000D03*
X136700000Y-86899998D03*
X136700000Y-88199998D03*
X136700000Y-89500000D03*
X136700000Y-90800000D03*
X136700000Y-92100000D03*
X136700000Y-93400000D03*
X138000000Y-86899998D03*
X138000000Y-88199998D03*
X138000000Y-89500000D03*
X138000000Y-90800000D03*
X138000000Y-92100000D03*
X138000000Y-93400000D03*
X139300000Y-86899998D03*
X139300000Y-88199998D03*
X139300000Y-89500000D03*
X139300000Y-90800000D03*
X139300000Y-92100000D03*
X139300000Y-93400000D03*
%TD*%
D12*
%TO.C,H4*%
X103750000Y-68750000D03*
%TD*%
D15*
%TO.C,C18*%
X136500000Y-99000000D03*
X138050000Y-99000000D03*
%TD*%
%TO.C,C4*%
X127475000Y-99000000D03*
X129025000Y-99000000D03*
%TD*%
%TO.C,C19*%
X137975000Y-100500000D03*
X139525000Y-100500000D03*
%TD*%
%TO.C,C15*%
X131950000Y-100500000D03*
X133500000Y-100500000D03*
%TD*%
%TO.C,C16*%
X133450000Y-99000000D03*
X135000000Y-99000000D03*
%TD*%
%TO.C,C20*%
X139475000Y-99000000D03*
X141025000Y-99000000D03*
%TD*%
%TO.C,C17*%
X134950000Y-100500000D03*
X136500000Y-100500000D03*
%TD*%
%TO.C,C13*%
X128950000Y-100500000D03*
X130500000Y-100500000D03*
%TD*%
%TO.C,C3*%
X125975000Y-100500000D03*
X127525000Y-100500000D03*
%TD*%
%TO.C,C14*%
X130450000Y-99000000D03*
X132000000Y-99000000D03*
%TD*%
M02*
