%TF.GenerationSoftware,KiCad,Pcbnew,10.0.5-unknown-202607221313~667fa36054~ubuntu25.10.1*%
%TF.CreationDate,Date%
%TF.ProjectId,bms_slave,626d735f-736c-4617-9665-2e6b69636164,+ (Unreleased)*%
%TF.SameCoordinates,Original*%
%TF.FileFunction,Legend,Top*%
%TF.FilePolarity,Positive*%
%FSLAX46Y46*%
G04 Gerber Fmt 4.6, Leading zero omitted, Abs format (unit mm)*
G04 Created by KiCad*
%MOMM*%
%LPD*%
G01*
G04 APERTURE LIST*
G04 Aperture macros list*
%AMRoundRect*
0 Rectangle with rounded corners*
0 $1 Rounding radius*
0 $2 $3 $4 $5 $6 $7 $8 $9 X,Y pos of 4 corners*
0 Add a 4 corners polygon primitive as box body*
4,1,4,$2,$3,$4,$5,$6,$7,$8,$9,$2,$3,0*
0 Add four circle primitives for the rounded corners*
1,1,$1+$1,$2,$3*
1,1,$1+$1,$4,$5*
1,1,$1+$1,$6,$7*
1,1,$1+$1,$8,$9*
0 Add four rect primitives between the rounded corners*
20,1,$1+$1,$2,$3,$4,$5,0*
20,1,$1+$1,$4,$5,$6,$7,0*
20,1,$1+$1,$6,$7,$8,$9,0*
20,1,$1+$1,$8,$9,$2,$3,0*%
G04 Aperture macros list end*
%ADD10C,0.150000*%
%ADD11C,0.120000*%
%ADD12C,0.152400*%
%ADD13C,0.635000*%
%ADD14C,0.100000*%
%ADD15C,0.213592*%
%ADD16C,0.508000*%
%ADD17C,0.200000*%
%ADD18C,0.250000*%
%ADD19C,0.000000*%
%ADD20RoundRect,0.200000X-0.200000X-0.275000X0.200000X-0.275000X0.200000X0.275000X-0.200000X0.275000X0*%
%ADD21RoundRect,0.135000X-0.185000X0.135000X-0.185000X-0.135000X0.185000X-0.135000X0.185000X0.135000X0*%
%ADD22RoundRect,0.250000X-0.362500X-1.425000X0.362500X-1.425000X0.362500X1.425000X-0.362500X1.425000X0*%
%ADD23RoundRect,0.140000X0.170000X-0.140000X0.170000X0.140000X-0.170000X0.140000X-0.170000X-0.140000X0*%
%ADD24RoundRect,0.225000X0.225000X0.250000X-0.225000X0.250000X-0.225000X-0.250000X0.225000X-0.250000X0*%
%ADD25R,0.304800X0.609600*%
%ADD26RoundRect,0.140000X-0.140000X-0.170000X0.140000X-0.170000X0.140000X0.170000X-0.140000X0.170000X0*%
%ADD27C,1.574800*%
%ADD28RoundRect,0.140000X0.140000X0.170000X-0.140000X0.170000X-0.140000X-0.170000X0.140000X-0.170000X0*%
%ADD29RoundRect,0.200000X0.275000X-0.200000X0.275000X0.200000X-0.275000X0.200000X-0.275000X-0.200000X0*%
%ADD30C,1.000000*%
%ADD31C,2.463800*%
%ADD32C,2.000000*%
%ADD33R,0.901700X0.482600*%
%ADD34RoundRect,0.250000X0.650000X-0.325000X0.650000X0.325000X-0.650000X0.325000X-0.650000X-0.325000X0*%
%ADD35RoundRect,0.218750X0.218750X0.256250X-0.218750X0.256250X-0.218750X-0.256250X0.218750X-0.256250X0*%
%ADD36R,1.308100X0.685800*%
%ADD37C,3.200000*%
%ADD38RoundRect,0.225000X-0.225000X-0.250000X0.225000X-0.250000X0.225000X0.250000X-0.225000X0.250000X0*%
%ADD39RoundRect,0.250000X0.250000X0.475000X-0.250000X0.475000X-0.250000X-0.475000X0.250000X-0.475000X0*%
%ADD40RoundRect,0.250000X0.312500X1.075000X-0.312500X1.075000X-0.312500X-1.075000X0.312500X-1.075000X0*%
%ADD41RoundRect,0.135000X-0.135000X-0.185000X0.135000X-0.185000X0.135000X0.185000X-0.135000X0.185000X0*%
%ADD42RoundRect,0.250000X-0.250000X-0.475000X0.250000X-0.475000X0.250000X0.475000X-0.250000X0.475000X0*%
%ADD43RoundRect,0.250000X-0.312500X-1.075000X0.312500X-1.075000X0.312500X1.075000X-0.312500X1.075000X0*%
%ADD44C,1.066800*%
%ADD45C,1.778800*%
%ADD46C,3.175800*%
%ADD47R,1.500000X0.299999*%
%ADD48R,0.299999X1.500000*%
%ADD49C,0.499999*%
%ADD50RoundRect,0.140000X-0.170000X0.140000X-0.170000X-0.140000X0.170000X-0.140000X0.170000X0.140000X0*%
%ADD51R,5.918200X5.511800*%
%ADD52R,2.489200X0.939800*%
G04 APERTURE END LIST*
D10*
X121695833Y-70337319D02*
X121362500Y-69861128D01*
X121124405Y-70337319D02*
X121124405Y-69337319D01*
X121124405Y-69337319D02*
X121505357Y-69337319D01*
X121505357Y-69337319D02*
X121600595Y-69384938D01*
X121600595Y-69384938D02*
X121648214Y-69432557D01*
X121648214Y-69432557D02*
X121695833Y-69527795D01*
X121695833Y-69527795D02*
X121695833Y-69670652D01*
X121695833Y-69670652D02*
X121648214Y-69765890D01*
X121648214Y-69765890D02*
X121600595Y-69813509D01*
X121600595Y-69813509D02*
X121505357Y-69861128D01*
X121505357Y-69861128D02*
X121124405Y-69861128D01*
X122076786Y-69432557D02*
X122124405Y-69384938D01*
X122124405Y-69384938D02*
X122219643Y-69337319D01*
X122219643Y-69337319D02*
X122457738Y-69337319D01*
X122457738Y-69337319D02*
X122552976Y-69384938D01*
X122552976Y-69384938D02*
X122600595Y-69432557D01*
X122600595Y-69432557D02*
X122648214Y-69527795D01*
X122648214Y-69527795D02*
X122648214Y-69623033D01*
X122648214Y-69623033D02*
X122600595Y-69765890D01*
X122600595Y-69765890D02*
X122029167Y-70337319D01*
X122029167Y-70337319D02*
X122648214Y-70337319D01*
X151300816Y-75901456D02*
X150824625Y-76234789D01*
X151300816Y-76472884D02*
X150300816Y-76472884D01*
X150300816Y-76472884D02*
X150300816Y-76091932D01*
X150300816Y-76091932D02*
X150348435Y-75996694D01*
X150348435Y-75996694D02*
X150396054Y-75949075D01*
X150396054Y-75949075D02*
X150491292Y-75901456D01*
X150491292Y-75901456D02*
X150634149Y-75901456D01*
X150634149Y-75901456D02*
X150729387Y-75949075D01*
X150729387Y-75949075D02*
X150777006Y-75996694D01*
X150777006Y-75996694D02*
X150824625Y-76091932D01*
X150824625Y-76091932D02*
X150824625Y-76472884D01*
X150300816Y-75568122D02*
X150300816Y-74949075D01*
X150300816Y-74949075D02*
X150681768Y-75282408D01*
X150681768Y-75282408D02*
X150681768Y-75139551D01*
X150681768Y-75139551D02*
X150729387Y-75044313D01*
X150729387Y-75044313D02*
X150777006Y-74996694D01*
X150777006Y-74996694D02*
X150872244Y-74949075D01*
X150872244Y-74949075D02*
X151110339Y-74949075D01*
X151110339Y-74949075D02*
X151205577Y-74996694D01*
X151205577Y-74996694D02*
X151253197Y-75044313D01*
X151253197Y-75044313D02*
X151300816Y-75139551D01*
X151300816Y-75139551D02*
X151300816Y-75425265D01*
X151300816Y-75425265D02*
X151253197Y-75520503D01*
X151253197Y-75520503D02*
X151205577Y-75568122D01*
X150634149Y-74091932D02*
X151300816Y-74091932D01*
X150253197Y-74330027D02*
X150967482Y-74568122D01*
X150967482Y-74568122D02*
X150967482Y-73949075D01*
X116370833Y-80699819D02*
X116037500Y-80223628D01*
X115799405Y-80699819D02*
X115799405Y-79699819D01*
X115799405Y-79699819D02*
X116180357Y-79699819D01*
X116180357Y-79699819D02*
X116275595Y-79747438D01*
X116275595Y-79747438D02*
X116323214Y-79795057D01*
X116323214Y-79795057D02*
X116370833Y-79890295D01*
X116370833Y-79890295D02*
X116370833Y-80033152D01*
X116370833Y-80033152D02*
X116323214Y-80128390D01*
X116323214Y-80128390D02*
X116275595Y-80176009D01*
X116275595Y-80176009D02*
X116180357Y-80223628D01*
X116180357Y-80223628D02*
X115799405Y-80223628D01*
X116847024Y-80699819D02*
X117037500Y-80699819D01*
X117037500Y-80699819D02*
X117132738Y-80652200D01*
X117132738Y-80652200D02*
X117180357Y-80604580D01*
X117180357Y-80604580D02*
X117275595Y-80461723D01*
X117275595Y-80461723D02*
X117323214Y-80271247D01*
X117323214Y-80271247D02*
X117323214Y-79890295D01*
X117323214Y-79890295D02*
X117275595Y-79795057D01*
X117275595Y-79795057D02*
X117227976Y-79747438D01*
X117227976Y-79747438D02*
X117132738Y-79699819D01*
X117132738Y-79699819D02*
X116942262Y-79699819D01*
X116942262Y-79699819D02*
X116847024Y-79747438D01*
X116847024Y-79747438D02*
X116799405Y-79795057D01*
X116799405Y-79795057D02*
X116751786Y-79890295D01*
X116751786Y-79890295D02*
X116751786Y-80128390D01*
X116751786Y-80128390D02*
X116799405Y-80223628D01*
X116799405Y-80223628D02*
X116847024Y-80271247D01*
X116847024Y-80271247D02*
X116942262Y-80318866D01*
X116942262Y-80318866D02*
X117132738Y-80318866D01*
X117132738Y-80318866D02*
X117227976Y-80271247D01*
X117227976Y-80271247D02*
X117275595Y-80223628D01*
X117275595Y-80223628D02*
X117323214Y-80128390D01*
X147649580Y-83681356D02*
X147697200Y-83728975D01*
X147697200Y-83728975D02*
X147744819Y-83871832D01*
X147744819Y-83871832D02*
X147744819Y-83967070D01*
X147744819Y-83967070D02*
X147697200Y-84109927D01*
X147697200Y-84109927D02*
X147601961Y-84205165D01*
X147601961Y-84205165D02*
X147506723Y-84252784D01*
X147506723Y-84252784D02*
X147316247Y-84300403D01*
X147316247Y-84300403D02*
X147173390Y-84300403D01*
X147173390Y-84300403D02*
X146982914Y-84252784D01*
X146982914Y-84252784D02*
X146887676Y-84205165D01*
X146887676Y-84205165D02*
X146792438Y-84109927D01*
X146792438Y-84109927D02*
X146744819Y-83967070D01*
X146744819Y-83967070D02*
X146744819Y-83871832D01*
X146744819Y-83871832D02*
X146792438Y-83728975D01*
X146792438Y-83728975D02*
X146840057Y-83681356D01*
X146744819Y-83348022D02*
X146744819Y-82728975D01*
X146744819Y-82728975D02*
X147125771Y-83062308D01*
X147125771Y-83062308D02*
X147125771Y-82919451D01*
X147125771Y-82919451D02*
X147173390Y-82824213D01*
X147173390Y-82824213D02*
X147221009Y-82776594D01*
X147221009Y-82776594D02*
X147316247Y-82728975D01*
X147316247Y-82728975D02*
X147554342Y-82728975D01*
X147554342Y-82728975D02*
X147649580Y-82776594D01*
X147649580Y-82776594D02*
X147697200Y-82824213D01*
X147697200Y-82824213D02*
X147744819Y-82919451D01*
X147744819Y-82919451D02*
X147744819Y-83205165D01*
X147744819Y-83205165D02*
X147697200Y-83300403D01*
X147697200Y-83300403D02*
X147649580Y-83348022D01*
X147744819Y-82252784D02*
X147744819Y-82062308D01*
X147744819Y-82062308D02*
X147697200Y-81967070D01*
X147697200Y-81967070D02*
X147649580Y-81919451D01*
X147649580Y-81919451D02*
X147506723Y-81824213D01*
X147506723Y-81824213D02*
X147316247Y-81776594D01*
X147316247Y-81776594D02*
X146935295Y-81776594D01*
X146935295Y-81776594D02*
X146840057Y-81824213D01*
X146840057Y-81824213D02*
X146792438Y-81871832D01*
X146792438Y-81871832D02*
X146744819Y-81967070D01*
X146744819Y-81967070D02*
X146744819Y-82157546D01*
X146744819Y-82157546D02*
X146792438Y-82252784D01*
X146792438Y-82252784D02*
X146840057Y-82300403D01*
X146840057Y-82300403D02*
X146935295Y-82348022D01*
X146935295Y-82348022D02*
X147173390Y-82348022D01*
X147173390Y-82348022D02*
X147268628Y-82300403D01*
X147268628Y-82300403D02*
X147316247Y-82252784D01*
X147316247Y-82252784D02*
X147363866Y-82157546D01*
X147363866Y-82157546D02*
X147363866Y-81967070D01*
X147363866Y-81967070D02*
X147316247Y-81871832D01*
X147316247Y-81871832D02*
X147268628Y-81824213D01*
X147268628Y-81824213D02*
X147173390Y-81776594D01*
X128308333Y-101789580D02*
X128260714Y-101837200D01*
X128260714Y-101837200D02*
X128117857Y-101884819D01*
X128117857Y-101884819D02*
X128022619Y-101884819D01*
X128022619Y-101884819D02*
X127879762Y-101837200D01*
X127879762Y-101837200D02*
X127784524Y-101741961D01*
X127784524Y-101741961D02*
X127736905Y-101646723D01*
X127736905Y-101646723D02*
X127689286Y-101456247D01*
X127689286Y-101456247D02*
X127689286Y-101313390D01*
X127689286Y-101313390D02*
X127736905Y-101122914D01*
X127736905Y-101122914D02*
X127784524Y-101027676D01*
X127784524Y-101027676D02*
X127879762Y-100932438D01*
X127879762Y-100932438D02*
X128022619Y-100884819D01*
X128022619Y-100884819D02*
X128117857Y-100884819D01*
X128117857Y-100884819D02*
X128260714Y-100932438D01*
X128260714Y-100932438D02*
X128308333Y-100980057D01*
X129260714Y-101884819D02*
X128689286Y-101884819D01*
X128975000Y-101884819D02*
X128975000Y-100884819D01*
X128975000Y-100884819D02*
X128879762Y-101027676D01*
X128879762Y-101027676D02*
X128784524Y-101122914D01*
X128784524Y-101122914D02*
X128689286Y-101170533D01*
X138545180Y-80761905D02*
X139545180Y-80761905D01*
X139545180Y-80761905D02*
X139545180Y-81000000D01*
X139545180Y-81000000D02*
X139497561Y-81142857D01*
X139497561Y-81142857D02*
X139402323Y-81238095D01*
X139402323Y-81238095D02*
X139307085Y-81285714D01*
X139307085Y-81285714D02*
X139116609Y-81333333D01*
X139116609Y-81333333D02*
X138973752Y-81333333D01*
X138973752Y-81333333D02*
X138783276Y-81285714D01*
X138783276Y-81285714D02*
X138688038Y-81238095D01*
X138688038Y-81238095D02*
X138592800Y-81142857D01*
X138592800Y-81142857D02*
X138545180Y-81000000D01*
X138545180Y-81000000D02*
X138545180Y-80761905D01*
X139449942Y-81714286D02*
X139497561Y-81761905D01*
X139497561Y-81761905D02*
X139545180Y-81857143D01*
X139545180Y-81857143D02*
X139545180Y-82095238D01*
X139545180Y-82095238D02*
X139497561Y-82190476D01*
X139497561Y-82190476D02*
X139449942Y-82238095D01*
X139449942Y-82238095D02*
X139354704Y-82285714D01*
X139354704Y-82285714D02*
X139259466Y-82285714D01*
X139259466Y-82285714D02*
X139116609Y-82238095D01*
X139116609Y-82238095D02*
X138545180Y-81666667D01*
X138545180Y-81666667D02*
X138545180Y-82285714D01*
X136454819Y-79671199D02*
X136692914Y-79671199D01*
X136597676Y-79909294D02*
X136692914Y-79671199D01*
X136692914Y-79671199D02*
X136597676Y-79433104D01*
X136883390Y-79814056D02*
X136692914Y-79671199D01*
X136692914Y-79671199D02*
X136883390Y-79528342D01*
X137545180Y-79671200D02*
X137307085Y-79671200D01*
X137402323Y-79433105D02*
X137307085Y-79671200D01*
X137307085Y-79671200D02*
X137402323Y-79909295D01*
X137116609Y-79528343D02*
X137307085Y-79671200D01*
X137307085Y-79671200D02*
X137116609Y-79814057D01*
X136127142Y-53819579D02*
X136079523Y-53867199D01*
X136079523Y-53867199D02*
X135936666Y-53914818D01*
X135936666Y-53914818D02*
X135841428Y-53914818D01*
X135841428Y-53914818D02*
X135698571Y-53867199D01*
X135698571Y-53867199D02*
X135603333Y-53771960D01*
X135603333Y-53771960D02*
X135555714Y-53676722D01*
X135555714Y-53676722D02*
X135508095Y-53486246D01*
X135508095Y-53486246D02*
X135508095Y-53343389D01*
X135508095Y-53343389D02*
X135555714Y-53152913D01*
X135555714Y-53152913D02*
X135603333Y-53057675D01*
X135603333Y-53057675D02*
X135698571Y-52962437D01*
X135698571Y-52962437D02*
X135841428Y-52914818D01*
X135841428Y-52914818D02*
X135936666Y-52914818D01*
X135936666Y-52914818D02*
X136079523Y-52962437D01*
X136079523Y-52962437D02*
X136127142Y-53010056D01*
X136508095Y-53010056D02*
X136555714Y-52962437D01*
X136555714Y-52962437D02*
X136650952Y-52914818D01*
X136650952Y-52914818D02*
X136889047Y-52914818D01*
X136889047Y-52914818D02*
X136984285Y-52962437D01*
X136984285Y-52962437D02*
X137031904Y-53010056D01*
X137031904Y-53010056D02*
X137079523Y-53105294D01*
X137079523Y-53105294D02*
X137079523Y-53200532D01*
X137079523Y-53200532D02*
X137031904Y-53343389D01*
X137031904Y-53343389D02*
X136460476Y-53914818D01*
X136460476Y-53914818D02*
X137079523Y-53914818D01*
X137412857Y-52914818D02*
X138079523Y-52914818D01*
X138079523Y-52914818D02*
X137650952Y-53914818D01*
X112545180Y-87166668D02*
X111830895Y-87166668D01*
X111830895Y-87166668D02*
X111688038Y-87119049D01*
X111688038Y-87119049D02*
X111592800Y-87023811D01*
X111592800Y-87023811D02*
X111545180Y-86880954D01*
X111545180Y-86880954D02*
X111545180Y-86785716D01*
X112545180Y-87547621D02*
X112545180Y-88166668D01*
X112545180Y-88166668D02*
X112164228Y-87833335D01*
X112164228Y-87833335D02*
X112164228Y-87976192D01*
X112164228Y-87976192D02*
X112116609Y-88071430D01*
X112116609Y-88071430D02*
X112068990Y-88119049D01*
X112068990Y-88119049D02*
X111973752Y-88166668D01*
X111973752Y-88166668D02*
X111735657Y-88166668D01*
X111735657Y-88166668D02*
X111640419Y-88119049D01*
X111640419Y-88119049D02*
X111592800Y-88071430D01*
X111592800Y-88071430D02*
X111545180Y-87976192D01*
X111545180Y-87976192D02*
X111545180Y-87690478D01*
X111545180Y-87690478D02*
X111592800Y-87595240D01*
X111592800Y-87595240D02*
X111640419Y-87547621D01*
X137553142Y-78238180D02*
X137505523Y-78285800D01*
X137505523Y-78285800D02*
X137362666Y-78333419D01*
X137362666Y-78333419D02*
X137267428Y-78333419D01*
X137267428Y-78333419D02*
X137124571Y-78285800D01*
X137124571Y-78285800D02*
X137029333Y-78190561D01*
X137029333Y-78190561D02*
X136981714Y-78095323D01*
X136981714Y-78095323D02*
X136934095Y-77904847D01*
X136934095Y-77904847D02*
X136934095Y-77761990D01*
X136934095Y-77761990D02*
X136981714Y-77571514D01*
X136981714Y-77571514D02*
X137029333Y-77476276D01*
X137029333Y-77476276D02*
X137124571Y-77381038D01*
X137124571Y-77381038D02*
X137267428Y-77333419D01*
X137267428Y-77333419D02*
X137362666Y-77333419D01*
X137362666Y-77333419D02*
X137505523Y-77381038D01*
X137505523Y-77381038D02*
X137553142Y-77428657D01*
X137934095Y-77428657D02*
X137981714Y-77381038D01*
X137981714Y-77381038D02*
X138076952Y-77333419D01*
X138076952Y-77333419D02*
X138315047Y-77333419D01*
X138315047Y-77333419D02*
X138410285Y-77381038D01*
X138410285Y-77381038D02*
X138457904Y-77428657D01*
X138457904Y-77428657D02*
X138505523Y-77523895D01*
X138505523Y-77523895D02*
X138505523Y-77619133D01*
X138505523Y-77619133D02*
X138457904Y-77761990D01*
X138457904Y-77761990D02*
X137886476Y-78333419D01*
X137886476Y-78333419D02*
X138505523Y-78333419D01*
X138981714Y-78333419D02*
X139172190Y-78333419D01*
X139172190Y-78333419D02*
X139267428Y-78285800D01*
X139267428Y-78285800D02*
X139315047Y-78238180D01*
X139315047Y-78238180D02*
X139410285Y-78095323D01*
X139410285Y-78095323D02*
X139457904Y-77904847D01*
X139457904Y-77904847D02*
X139457904Y-77523895D01*
X139457904Y-77523895D02*
X139410285Y-77428657D01*
X139410285Y-77428657D02*
X139362666Y-77381038D01*
X139362666Y-77381038D02*
X139267428Y-77333419D01*
X139267428Y-77333419D02*
X139076952Y-77333419D01*
X139076952Y-77333419D02*
X138981714Y-77381038D01*
X138981714Y-77381038D02*
X138934095Y-77428657D01*
X138934095Y-77428657D02*
X138886476Y-77523895D01*
X138886476Y-77523895D02*
X138886476Y-77761990D01*
X138886476Y-77761990D02*
X138934095Y-77857228D01*
X138934095Y-77857228D02*
X138981714Y-77904847D01*
X138981714Y-77904847D02*
X139076952Y-77952466D01*
X139076952Y-77952466D02*
X139267428Y-77952466D01*
X139267428Y-77952466D02*
X139362666Y-77904847D01*
X139362666Y-77904847D02*
X139410285Y-77857228D01*
X139410285Y-77857228D02*
X139457904Y-77761990D01*
X145900816Y-76216456D02*
X145424625Y-76549789D01*
X145900816Y-76787884D02*
X144900816Y-76787884D01*
X144900816Y-76787884D02*
X144900816Y-76406932D01*
X144900816Y-76406932D02*
X144948435Y-76311694D01*
X144948435Y-76311694D02*
X144996054Y-76264075D01*
X144996054Y-76264075D02*
X145091292Y-76216456D01*
X145091292Y-76216456D02*
X145234149Y-76216456D01*
X145234149Y-76216456D02*
X145329387Y-76264075D01*
X145329387Y-76264075D02*
X145377006Y-76311694D01*
X145377006Y-76311694D02*
X145424625Y-76406932D01*
X145424625Y-76406932D02*
X145424625Y-76787884D01*
X144996054Y-75835503D02*
X144948435Y-75787884D01*
X144948435Y-75787884D02*
X144900816Y-75692646D01*
X144900816Y-75692646D02*
X144900816Y-75454551D01*
X144900816Y-75454551D02*
X144948435Y-75359313D01*
X144948435Y-75359313D02*
X144996054Y-75311694D01*
X144996054Y-75311694D02*
X145091292Y-75264075D01*
X145091292Y-75264075D02*
X145186530Y-75264075D01*
X145186530Y-75264075D02*
X145329387Y-75311694D01*
X145329387Y-75311694D02*
X145900816Y-75883122D01*
X145900816Y-75883122D02*
X145900816Y-75264075D01*
X144900816Y-74359313D02*
X144900816Y-74835503D01*
X144900816Y-74835503D02*
X145377006Y-74883122D01*
X145377006Y-74883122D02*
X145329387Y-74835503D01*
X145329387Y-74835503D02*
X145281768Y-74740265D01*
X145281768Y-74740265D02*
X145281768Y-74502170D01*
X145281768Y-74502170D02*
X145329387Y-74406932D01*
X145329387Y-74406932D02*
X145377006Y-74359313D01*
X145377006Y-74359313D02*
X145472244Y-74311694D01*
X145472244Y-74311694D02*
X145710339Y-74311694D01*
X145710339Y-74311694D02*
X145805577Y-74359313D01*
X145805577Y-74359313D02*
X145853197Y-74406932D01*
X145853197Y-74406932D02*
X145900816Y-74502170D01*
X145900816Y-74502170D02*
X145900816Y-74740265D01*
X145900816Y-74740265D02*
X145853197Y-74835503D01*
X145853197Y-74835503D02*
X145805577Y-74883122D01*
X165928571Y-104981009D02*
X165595238Y-104981009D01*
X165595238Y-105504819D02*
X165595238Y-104504819D01*
X165595238Y-104504819D02*
X166071428Y-104504819D01*
X166452381Y-105504819D02*
X166452381Y-104504819D01*
X166928571Y-105504819D02*
X166928571Y-104504819D01*
X166928571Y-104504819D02*
X167166666Y-104504819D01*
X167166666Y-104504819D02*
X167309523Y-104552438D01*
X167309523Y-104552438D02*
X167404761Y-104647676D01*
X167404761Y-104647676D02*
X167452380Y-104742914D01*
X167452380Y-104742914D02*
X167499999Y-104933390D01*
X167499999Y-104933390D02*
X167499999Y-105076247D01*
X167499999Y-105076247D02*
X167452380Y-105266723D01*
X167452380Y-105266723D02*
X167404761Y-105361961D01*
X167404761Y-105361961D02*
X167309523Y-105457200D01*
X167309523Y-105457200D02*
X167166666Y-105504819D01*
X167166666Y-105504819D02*
X166928571Y-105504819D01*
X167880952Y-104600057D02*
X167928571Y-104552438D01*
X167928571Y-104552438D02*
X168023809Y-104504819D01*
X168023809Y-104504819D02*
X168261904Y-104504819D01*
X168261904Y-104504819D02*
X168357142Y-104552438D01*
X168357142Y-104552438D02*
X168404761Y-104600057D01*
X168404761Y-104600057D02*
X168452380Y-104695295D01*
X168452380Y-104695295D02*
X168452380Y-104790533D01*
X168452380Y-104790533D02*
X168404761Y-104933390D01*
X168404761Y-104933390D02*
X167833333Y-105504819D01*
X167833333Y-105504819D02*
X168452380Y-105504819D01*
X144375819Y-75901456D02*
X143899628Y-76234789D01*
X144375819Y-76472884D02*
X143375819Y-76472884D01*
X143375819Y-76472884D02*
X143375819Y-76091932D01*
X143375819Y-76091932D02*
X143423438Y-75996694D01*
X143423438Y-75996694D02*
X143471057Y-75949075D01*
X143471057Y-75949075D02*
X143566295Y-75901456D01*
X143566295Y-75901456D02*
X143709152Y-75901456D01*
X143709152Y-75901456D02*
X143804390Y-75949075D01*
X143804390Y-75949075D02*
X143852009Y-75996694D01*
X143852009Y-75996694D02*
X143899628Y-76091932D01*
X143899628Y-76091932D02*
X143899628Y-76472884D01*
X143375819Y-75568122D02*
X143375819Y-74949075D01*
X143375819Y-74949075D02*
X143756771Y-75282408D01*
X143756771Y-75282408D02*
X143756771Y-75139551D01*
X143756771Y-75139551D02*
X143804390Y-75044313D01*
X143804390Y-75044313D02*
X143852009Y-74996694D01*
X143852009Y-74996694D02*
X143947247Y-74949075D01*
X143947247Y-74949075D02*
X144185342Y-74949075D01*
X144185342Y-74949075D02*
X144280580Y-74996694D01*
X144280580Y-74996694D02*
X144328200Y-75044313D01*
X144328200Y-75044313D02*
X144375819Y-75139551D01*
X144375819Y-75139551D02*
X144375819Y-75425265D01*
X144375819Y-75425265D02*
X144328200Y-75520503D01*
X144328200Y-75520503D02*
X144280580Y-75568122D01*
X143471057Y-74568122D02*
X143423438Y-74520503D01*
X143423438Y-74520503D02*
X143375819Y-74425265D01*
X143375819Y-74425265D02*
X143375819Y-74187170D01*
X143375819Y-74187170D02*
X143423438Y-74091932D01*
X143423438Y-74091932D02*
X143471057Y-74044313D01*
X143471057Y-74044313D02*
X143566295Y-73996694D01*
X143566295Y-73996694D02*
X143661533Y-73996694D01*
X143661533Y-73996694D02*
X143804390Y-74044313D01*
X143804390Y-74044313D02*
X144375819Y-74615741D01*
X144375819Y-74615741D02*
X144375819Y-73996694D01*
X165145816Y-75901456D02*
X164669625Y-76234789D01*
X165145816Y-76472884D02*
X164145816Y-76472884D01*
X164145816Y-76472884D02*
X164145816Y-76091932D01*
X164145816Y-76091932D02*
X164193435Y-75996694D01*
X164193435Y-75996694D02*
X164241054Y-75949075D01*
X164241054Y-75949075D02*
X164336292Y-75901456D01*
X164336292Y-75901456D02*
X164479149Y-75901456D01*
X164479149Y-75901456D02*
X164574387Y-75949075D01*
X164574387Y-75949075D02*
X164622006Y-75996694D01*
X164622006Y-75996694D02*
X164669625Y-76091932D01*
X164669625Y-76091932D02*
X164669625Y-76472884D01*
X164145816Y-75568122D02*
X164145816Y-74949075D01*
X164145816Y-74949075D02*
X164526768Y-75282408D01*
X164526768Y-75282408D02*
X164526768Y-75139551D01*
X164526768Y-75139551D02*
X164574387Y-75044313D01*
X164574387Y-75044313D02*
X164622006Y-74996694D01*
X164622006Y-74996694D02*
X164717244Y-74949075D01*
X164717244Y-74949075D02*
X164955339Y-74949075D01*
X164955339Y-74949075D02*
X165050577Y-74996694D01*
X165050577Y-74996694D02*
X165098197Y-75044313D01*
X165098197Y-75044313D02*
X165145816Y-75139551D01*
X165145816Y-75139551D02*
X165145816Y-75425265D01*
X165145816Y-75425265D02*
X165098197Y-75520503D01*
X165098197Y-75520503D02*
X165050577Y-75568122D01*
X164574387Y-74377646D02*
X164526768Y-74472884D01*
X164526768Y-74472884D02*
X164479149Y-74520503D01*
X164479149Y-74520503D02*
X164383911Y-74568122D01*
X164383911Y-74568122D02*
X164336292Y-74568122D01*
X164336292Y-74568122D02*
X164241054Y-74520503D01*
X164241054Y-74520503D02*
X164193435Y-74472884D01*
X164193435Y-74472884D02*
X164145816Y-74377646D01*
X164145816Y-74377646D02*
X164145816Y-74187170D01*
X164145816Y-74187170D02*
X164193435Y-74091932D01*
X164193435Y-74091932D02*
X164241054Y-74044313D01*
X164241054Y-74044313D02*
X164336292Y-73996694D01*
X164336292Y-73996694D02*
X164383911Y-73996694D01*
X164383911Y-73996694D02*
X164479149Y-74044313D01*
X164479149Y-74044313D02*
X164526768Y-74091932D01*
X164526768Y-74091932D02*
X164574387Y-74187170D01*
X164574387Y-74187170D02*
X164574387Y-74377646D01*
X164574387Y-74377646D02*
X164622006Y-74472884D01*
X164622006Y-74472884D02*
X164669625Y-74520503D01*
X164669625Y-74520503D02*
X164764863Y-74568122D01*
X164764863Y-74568122D02*
X164955339Y-74568122D01*
X164955339Y-74568122D02*
X165050577Y-74520503D01*
X165050577Y-74520503D02*
X165098197Y-74472884D01*
X165098197Y-74472884D02*
X165145816Y-74377646D01*
X165145816Y-74377646D02*
X165145816Y-74187170D01*
X165145816Y-74187170D02*
X165098197Y-74091932D01*
X165098197Y-74091932D02*
X165050577Y-74044313D01*
X165050577Y-74044313D02*
X164955339Y-73996694D01*
X164955339Y-73996694D02*
X164764863Y-73996694D01*
X164764863Y-73996694D02*
X164669625Y-74044313D01*
X164669625Y-74044313D02*
X164622006Y-74091932D01*
X164622006Y-74091932D02*
X164574387Y-74187170D01*
X175795180Y-95166666D02*
X175080895Y-95166666D01*
X175080895Y-95166666D02*
X174938038Y-95119047D01*
X174938038Y-95119047D02*
X174842800Y-95023809D01*
X174842800Y-95023809D02*
X174795180Y-94880952D01*
X174795180Y-94880952D02*
X174795180Y-94785714D01*
X174795180Y-96166666D02*
X174795180Y-95595238D01*
X174795180Y-95880952D02*
X175795180Y-95880952D01*
X175795180Y-95880952D02*
X175652323Y-95785714D01*
X175652323Y-95785714D02*
X175557085Y-95690476D01*
X175557085Y-95690476D02*
X175509466Y-95595238D01*
X105888095Y-144556819D02*
X106459523Y-144556819D01*
X106173809Y-145556819D02*
X106173809Y-144556819D01*
X106792857Y-145556819D02*
X106792857Y-144556819D01*
X106792857Y-144556819D02*
X107173809Y-144556819D01*
X107173809Y-144556819D02*
X107269047Y-144604438D01*
X107269047Y-144604438D02*
X107316666Y-144652057D01*
X107316666Y-144652057D02*
X107364285Y-144747295D01*
X107364285Y-144747295D02*
X107364285Y-144890152D01*
X107364285Y-144890152D02*
X107316666Y-144985390D01*
X107316666Y-144985390D02*
X107269047Y-145033009D01*
X107269047Y-145033009D02*
X107173809Y-145080628D01*
X107173809Y-145080628D02*
X106792857Y-145080628D01*
X107935714Y-144985390D02*
X107840476Y-144937771D01*
X107840476Y-144937771D02*
X107792857Y-144890152D01*
X107792857Y-144890152D02*
X107745238Y-144794914D01*
X107745238Y-144794914D02*
X107745238Y-144747295D01*
X107745238Y-144747295D02*
X107792857Y-144652057D01*
X107792857Y-144652057D02*
X107840476Y-144604438D01*
X107840476Y-144604438D02*
X107935714Y-144556819D01*
X107935714Y-144556819D02*
X108126190Y-144556819D01*
X108126190Y-144556819D02*
X108221428Y-144604438D01*
X108221428Y-144604438D02*
X108269047Y-144652057D01*
X108269047Y-144652057D02*
X108316666Y-144747295D01*
X108316666Y-144747295D02*
X108316666Y-144794914D01*
X108316666Y-144794914D02*
X108269047Y-144890152D01*
X108269047Y-144890152D02*
X108221428Y-144937771D01*
X108221428Y-144937771D02*
X108126190Y-144985390D01*
X108126190Y-144985390D02*
X107935714Y-144985390D01*
X107935714Y-144985390D02*
X107840476Y-145033009D01*
X107840476Y-145033009D02*
X107792857Y-145080628D01*
X107792857Y-145080628D02*
X107745238Y-145175866D01*
X107745238Y-145175866D02*
X107745238Y-145366342D01*
X107745238Y-145366342D02*
X107792857Y-145461580D01*
X107792857Y-145461580D02*
X107840476Y-145509200D01*
X107840476Y-145509200D02*
X107935714Y-145556819D01*
X107935714Y-145556819D02*
X108126190Y-145556819D01*
X108126190Y-145556819D02*
X108221428Y-145509200D01*
X108221428Y-145509200D02*
X108269047Y-145461580D01*
X108269047Y-145461580D02*
X108316666Y-145366342D01*
X108316666Y-145366342D02*
X108316666Y-145175866D01*
X108316666Y-145175866D02*
X108269047Y-145080628D01*
X108269047Y-145080628D02*
X108221428Y-145033009D01*
X108221428Y-145033009D02*
X108126190Y-144985390D01*
X121219642Y-102712319D02*
X120886309Y-102236128D01*
X120648214Y-102712319D02*
X120648214Y-101712319D01*
X120648214Y-101712319D02*
X121029166Y-101712319D01*
X121029166Y-101712319D02*
X121124404Y-101759938D01*
X121124404Y-101759938D02*
X121172023Y-101807557D01*
X121172023Y-101807557D02*
X121219642Y-101902795D01*
X121219642Y-101902795D02*
X121219642Y-102045652D01*
X121219642Y-102045652D02*
X121172023Y-102140890D01*
X121172023Y-102140890D02*
X121124404Y-102188509D01*
X121124404Y-102188509D02*
X121029166Y-102236128D01*
X121029166Y-102236128D02*
X120648214Y-102236128D01*
X122172023Y-102712319D02*
X121600595Y-102712319D01*
X121886309Y-102712319D02*
X121886309Y-101712319D01*
X121886309Y-101712319D02*
X121791071Y-101855176D01*
X121791071Y-101855176D02*
X121695833Y-101950414D01*
X121695833Y-101950414D02*
X121600595Y-101998033D01*
X123029166Y-101712319D02*
X122838690Y-101712319D01*
X122838690Y-101712319D02*
X122743452Y-101759938D01*
X122743452Y-101759938D02*
X122695833Y-101807557D01*
X122695833Y-101807557D02*
X122600595Y-101950414D01*
X122600595Y-101950414D02*
X122552976Y-102140890D01*
X122552976Y-102140890D02*
X122552976Y-102521842D01*
X122552976Y-102521842D02*
X122600595Y-102617080D01*
X122600595Y-102617080D02*
X122648214Y-102664700D01*
X122648214Y-102664700D02*
X122743452Y-102712319D01*
X122743452Y-102712319D02*
X122933928Y-102712319D01*
X122933928Y-102712319D02*
X123029166Y-102664700D01*
X123029166Y-102664700D02*
X123076785Y-102617080D01*
X123076785Y-102617080D02*
X123124404Y-102521842D01*
X123124404Y-102521842D02*
X123124404Y-102283747D01*
X123124404Y-102283747D02*
X123076785Y-102188509D01*
X123076785Y-102188509D02*
X123029166Y-102140890D01*
X123029166Y-102140890D02*
X122933928Y-102093271D01*
X122933928Y-102093271D02*
X122743452Y-102093271D01*
X122743452Y-102093271D02*
X122648214Y-102140890D01*
X122648214Y-102140890D02*
X122600595Y-102188509D01*
X122600595Y-102188509D02*
X122552976Y-102283747D01*
X151398142Y-78208180D02*
X151350523Y-78255800D01*
X151350523Y-78255800D02*
X151207666Y-78303419D01*
X151207666Y-78303419D02*
X151112428Y-78303419D01*
X151112428Y-78303419D02*
X150969571Y-78255800D01*
X150969571Y-78255800D02*
X150874333Y-78160561D01*
X150874333Y-78160561D02*
X150826714Y-78065323D01*
X150826714Y-78065323D02*
X150779095Y-77874847D01*
X150779095Y-77874847D02*
X150779095Y-77731990D01*
X150779095Y-77731990D02*
X150826714Y-77541514D01*
X150826714Y-77541514D02*
X150874333Y-77446276D01*
X150874333Y-77446276D02*
X150969571Y-77351038D01*
X150969571Y-77351038D02*
X151112428Y-77303419D01*
X151112428Y-77303419D02*
X151207666Y-77303419D01*
X151207666Y-77303419D02*
X151350523Y-77351038D01*
X151350523Y-77351038D02*
X151398142Y-77398657D01*
X151731476Y-77303419D02*
X152350523Y-77303419D01*
X152350523Y-77303419D02*
X152017190Y-77684371D01*
X152017190Y-77684371D02*
X152160047Y-77684371D01*
X152160047Y-77684371D02*
X152255285Y-77731990D01*
X152255285Y-77731990D02*
X152302904Y-77779609D01*
X152302904Y-77779609D02*
X152350523Y-77874847D01*
X152350523Y-77874847D02*
X152350523Y-78112942D01*
X152350523Y-78112942D02*
X152302904Y-78208180D01*
X152302904Y-78208180D02*
X152255285Y-78255800D01*
X152255285Y-78255800D02*
X152160047Y-78303419D01*
X152160047Y-78303419D02*
X151874333Y-78303419D01*
X151874333Y-78303419D02*
X151779095Y-78255800D01*
X151779095Y-78255800D02*
X151731476Y-78208180D01*
X152683857Y-77303419D02*
X153302904Y-77303419D01*
X153302904Y-77303419D02*
X152969571Y-77684371D01*
X152969571Y-77684371D02*
X153112428Y-77684371D01*
X153112428Y-77684371D02*
X153207666Y-77731990D01*
X153207666Y-77731990D02*
X153255285Y-77779609D01*
X153255285Y-77779609D02*
X153302904Y-77874847D01*
X153302904Y-77874847D02*
X153302904Y-78112942D01*
X153302904Y-78112942D02*
X153255285Y-78208180D01*
X153255285Y-78208180D02*
X153207666Y-78255800D01*
X153207666Y-78255800D02*
X153112428Y-78303419D01*
X153112428Y-78303419D02*
X152826714Y-78303419D01*
X152826714Y-78303419D02*
X152731476Y-78255800D01*
X152731476Y-78255800D02*
X152683857Y-78208180D01*
X115894642Y-103824819D02*
X115561309Y-103348628D01*
X115323214Y-103824819D02*
X115323214Y-102824819D01*
X115323214Y-102824819D02*
X115704166Y-102824819D01*
X115704166Y-102824819D02*
X115799404Y-102872438D01*
X115799404Y-102872438D02*
X115847023Y-102920057D01*
X115847023Y-102920057D02*
X115894642Y-103015295D01*
X115894642Y-103015295D02*
X115894642Y-103158152D01*
X115894642Y-103158152D02*
X115847023Y-103253390D01*
X115847023Y-103253390D02*
X115799404Y-103301009D01*
X115799404Y-103301009D02*
X115704166Y-103348628D01*
X115704166Y-103348628D02*
X115323214Y-103348628D01*
X116847023Y-103824819D02*
X116275595Y-103824819D01*
X116561309Y-103824819D02*
X116561309Y-102824819D01*
X116561309Y-102824819D02*
X116466071Y-102967676D01*
X116466071Y-102967676D02*
X116370833Y-103062914D01*
X116370833Y-103062914D02*
X116275595Y-103110533D01*
X117323214Y-103824819D02*
X117513690Y-103824819D01*
X117513690Y-103824819D02*
X117608928Y-103777200D01*
X117608928Y-103777200D02*
X117656547Y-103729580D01*
X117656547Y-103729580D02*
X117751785Y-103586723D01*
X117751785Y-103586723D02*
X117799404Y-103396247D01*
X117799404Y-103396247D02*
X117799404Y-103015295D01*
X117799404Y-103015295D02*
X117751785Y-102920057D01*
X117751785Y-102920057D02*
X117704166Y-102872438D01*
X117704166Y-102872438D02*
X117608928Y-102824819D01*
X117608928Y-102824819D02*
X117418452Y-102824819D01*
X117418452Y-102824819D02*
X117323214Y-102872438D01*
X117323214Y-102872438D02*
X117275595Y-102920057D01*
X117275595Y-102920057D02*
X117227976Y-103015295D01*
X117227976Y-103015295D02*
X117227976Y-103253390D01*
X117227976Y-103253390D02*
X117275595Y-103348628D01*
X117275595Y-103348628D02*
X117323214Y-103396247D01*
X117323214Y-103396247D02*
X117418452Y-103443866D01*
X117418452Y-103443866D02*
X117608928Y-103443866D01*
X117608928Y-103443866D02*
X117704166Y-103396247D01*
X117704166Y-103396247D02*
X117751785Y-103348628D01*
X117751785Y-103348628D02*
X117799404Y-103253390D01*
X153586783Y-92909581D02*
X153539164Y-92957201D01*
X153539164Y-92957201D02*
X153396307Y-93004820D01*
X153396307Y-93004820D02*
X153301069Y-93004820D01*
X153301069Y-93004820D02*
X153158212Y-92957201D01*
X153158212Y-92957201D02*
X153062974Y-92861962D01*
X153062974Y-92861962D02*
X153015355Y-92766724D01*
X153015355Y-92766724D02*
X152967736Y-92576248D01*
X152967736Y-92576248D02*
X152967736Y-92433391D01*
X152967736Y-92433391D02*
X153015355Y-92242915D01*
X153015355Y-92242915D02*
X153062974Y-92147677D01*
X153062974Y-92147677D02*
X153158212Y-92052439D01*
X153158212Y-92052439D02*
X153301069Y-92004820D01*
X153301069Y-92004820D02*
X153396307Y-92004820D01*
X153396307Y-92004820D02*
X153539164Y-92052439D01*
X153539164Y-92052439D02*
X153586783Y-92100058D01*
X154586783Y-93004820D02*
X154253450Y-92528629D01*
X154015355Y-93004820D02*
X154015355Y-92004820D01*
X154015355Y-92004820D02*
X154396307Y-92004820D01*
X154396307Y-92004820D02*
X154491545Y-92052439D01*
X154491545Y-92052439D02*
X154539164Y-92100058D01*
X154539164Y-92100058D02*
X154586783Y-92195296D01*
X154586783Y-92195296D02*
X154586783Y-92338153D01*
X154586783Y-92338153D02*
X154539164Y-92433391D01*
X154539164Y-92433391D02*
X154491545Y-92481010D01*
X154491545Y-92481010D02*
X154396307Y-92528629D01*
X154396307Y-92528629D02*
X154015355Y-92528629D01*
X155539164Y-93004820D02*
X154967736Y-93004820D01*
X155253450Y-93004820D02*
X155253450Y-92004820D01*
X155253450Y-92004820D02*
X155158212Y-92147677D01*
X155158212Y-92147677D02*
X155062974Y-92242915D01*
X155062974Y-92242915D02*
X154967736Y-92290534D01*
X151350100Y-92429220D02*
X151350100Y-92667315D01*
X151112005Y-92572077D02*
X151350100Y-92667315D01*
X151350100Y-92667315D02*
X151588195Y-92572077D01*
X151207243Y-92857791D02*
X151350100Y-92667315D01*
X151350100Y-92667315D02*
X151492957Y-92857791D01*
X151350100Y-92429220D02*
X151350100Y-92667315D01*
X151112005Y-92572077D02*
X151350100Y-92667315D01*
X151350100Y-92667315D02*
X151588195Y-92572077D01*
X151207243Y-92857791D02*
X151350100Y-92667315D01*
X151350100Y-92667315D02*
X151492957Y-92857791D01*
X142034580Y-81642857D02*
X142082200Y-81690476D01*
X142082200Y-81690476D02*
X142129819Y-81833333D01*
X142129819Y-81833333D02*
X142129819Y-81928571D01*
X142129819Y-81928571D02*
X142082200Y-82071428D01*
X142082200Y-82071428D02*
X141986961Y-82166666D01*
X141986961Y-82166666D02*
X141891723Y-82214285D01*
X141891723Y-82214285D02*
X141701247Y-82261904D01*
X141701247Y-82261904D02*
X141558390Y-82261904D01*
X141558390Y-82261904D02*
X141367914Y-82214285D01*
X141367914Y-82214285D02*
X141272676Y-82166666D01*
X141272676Y-82166666D02*
X141177438Y-82071428D01*
X141177438Y-82071428D02*
X141129819Y-81928571D01*
X141129819Y-81928571D02*
X141129819Y-81833333D01*
X141129819Y-81833333D02*
X141177438Y-81690476D01*
X141177438Y-81690476D02*
X141225057Y-81642857D01*
X141225057Y-81261904D02*
X141177438Y-81214285D01*
X141177438Y-81214285D02*
X141129819Y-81119047D01*
X141129819Y-81119047D02*
X141129819Y-80880952D01*
X141129819Y-80880952D02*
X141177438Y-80785714D01*
X141177438Y-80785714D02*
X141225057Y-80738095D01*
X141225057Y-80738095D02*
X141320295Y-80690476D01*
X141320295Y-80690476D02*
X141415533Y-80690476D01*
X141415533Y-80690476D02*
X141558390Y-80738095D01*
X141558390Y-80738095D02*
X142129819Y-81309523D01*
X142129819Y-81309523D02*
X142129819Y-80690476D01*
X141463152Y-79833333D02*
X142129819Y-79833333D01*
X141082200Y-80071428D02*
X141796485Y-80309523D01*
X141796485Y-80309523D02*
X141796485Y-79690476D01*
X87211905Y-134456819D02*
X87783333Y-134456819D01*
X87497619Y-135456819D02*
X87497619Y-134456819D01*
X88116667Y-135456819D02*
X88116667Y-134456819D01*
X88116667Y-134456819D02*
X88497619Y-134456819D01*
X88497619Y-134456819D02*
X88592857Y-134504438D01*
X88592857Y-134504438D02*
X88640476Y-134552057D01*
X88640476Y-134552057D02*
X88688095Y-134647295D01*
X88688095Y-134647295D02*
X88688095Y-134790152D01*
X88688095Y-134790152D02*
X88640476Y-134885390D01*
X88640476Y-134885390D02*
X88592857Y-134933009D01*
X88592857Y-134933009D02*
X88497619Y-134980628D01*
X88497619Y-134980628D02*
X88116667Y-134980628D01*
X89640476Y-135456819D02*
X89069048Y-135456819D01*
X89354762Y-135456819D02*
X89354762Y-134456819D01*
X89354762Y-134456819D02*
X89259524Y-134599676D01*
X89259524Y-134599676D02*
X89164286Y-134694914D01*
X89164286Y-134694914D02*
X89069048Y-134742533D01*
X90021429Y-134552057D02*
X90069048Y-134504438D01*
X90069048Y-134504438D02*
X90164286Y-134456819D01*
X90164286Y-134456819D02*
X90402381Y-134456819D01*
X90402381Y-134456819D02*
X90497619Y-134504438D01*
X90497619Y-134504438D02*
X90545238Y-134552057D01*
X90545238Y-134552057D02*
X90592857Y-134647295D01*
X90592857Y-134647295D02*
X90592857Y-134742533D01*
X90592857Y-134742533D02*
X90545238Y-134885390D01*
X90545238Y-134885390D02*
X89973810Y-135456819D01*
X89973810Y-135456819D02*
X90592857Y-135456819D01*
X115894642Y-99199819D02*
X115561309Y-98723628D01*
X115323214Y-99199819D02*
X115323214Y-98199819D01*
X115323214Y-98199819D02*
X115704166Y-98199819D01*
X115704166Y-98199819D02*
X115799404Y-98247438D01*
X115799404Y-98247438D02*
X115847023Y-98295057D01*
X115847023Y-98295057D02*
X115894642Y-98390295D01*
X115894642Y-98390295D02*
X115894642Y-98533152D01*
X115894642Y-98533152D02*
X115847023Y-98628390D01*
X115847023Y-98628390D02*
X115799404Y-98676009D01*
X115799404Y-98676009D02*
X115704166Y-98723628D01*
X115704166Y-98723628D02*
X115323214Y-98723628D01*
X116847023Y-99199819D02*
X116275595Y-99199819D01*
X116561309Y-99199819D02*
X116561309Y-98199819D01*
X116561309Y-98199819D02*
X116466071Y-98342676D01*
X116466071Y-98342676D02*
X116370833Y-98437914D01*
X116370833Y-98437914D02*
X116275595Y-98485533D01*
X117180357Y-98199819D02*
X117847023Y-98199819D01*
X117847023Y-98199819D02*
X117418452Y-99199819D01*
X138975816Y-76216456D02*
X138499625Y-76549789D01*
X138975816Y-76787884D02*
X137975816Y-76787884D01*
X137975816Y-76787884D02*
X137975816Y-76406932D01*
X137975816Y-76406932D02*
X138023435Y-76311694D01*
X138023435Y-76311694D02*
X138071054Y-76264075D01*
X138071054Y-76264075D02*
X138166292Y-76216456D01*
X138166292Y-76216456D02*
X138309149Y-76216456D01*
X138309149Y-76216456D02*
X138404387Y-76264075D01*
X138404387Y-76264075D02*
X138452006Y-76311694D01*
X138452006Y-76311694D02*
X138499625Y-76406932D01*
X138499625Y-76406932D02*
X138499625Y-76787884D01*
X138071054Y-75835503D02*
X138023435Y-75787884D01*
X138023435Y-75787884D02*
X137975816Y-75692646D01*
X137975816Y-75692646D02*
X137975816Y-75454551D01*
X137975816Y-75454551D02*
X138023435Y-75359313D01*
X138023435Y-75359313D02*
X138071054Y-75311694D01*
X138071054Y-75311694D02*
X138166292Y-75264075D01*
X138166292Y-75264075D02*
X138261530Y-75264075D01*
X138261530Y-75264075D02*
X138404387Y-75311694D01*
X138404387Y-75311694D02*
X138975816Y-75883122D01*
X138975816Y-75883122D02*
X138975816Y-75264075D01*
X137975816Y-74930741D02*
X137975816Y-74311694D01*
X137975816Y-74311694D02*
X138356768Y-74645027D01*
X138356768Y-74645027D02*
X138356768Y-74502170D01*
X138356768Y-74502170D02*
X138404387Y-74406932D01*
X138404387Y-74406932D02*
X138452006Y-74359313D01*
X138452006Y-74359313D02*
X138547244Y-74311694D01*
X138547244Y-74311694D02*
X138785339Y-74311694D01*
X138785339Y-74311694D02*
X138880577Y-74359313D01*
X138880577Y-74359313D02*
X138928197Y-74406932D01*
X138928197Y-74406932D02*
X138975816Y-74502170D01*
X138975816Y-74502170D02*
X138975816Y-74787884D01*
X138975816Y-74787884D02*
X138928197Y-74883122D01*
X138928197Y-74883122D02*
X138880577Y-74930741D01*
X143799405Y-61384819D02*
X143799405Y-60384819D01*
X143799405Y-60384819D02*
X144037500Y-60384819D01*
X144037500Y-60384819D02*
X144180357Y-60432438D01*
X144180357Y-60432438D02*
X144275595Y-60527676D01*
X144275595Y-60527676D02*
X144323214Y-60622914D01*
X144323214Y-60622914D02*
X144370833Y-60813390D01*
X144370833Y-60813390D02*
X144370833Y-60956247D01*
X144370833Y-60956247D02*
X144323214Y-61146723D01*
X144323214Y-61146723D02*
X144275595Y-61241961D01*
X144275595Y-61241961D02*
X144180357Y-61337200D01*
X144180357Y-61337200D02*
X144037500Y-61384819D01*
X144037500Y-61384819D02*
X143799405Y-61384819D01*
X145323214Y-61384819D02*
X144751786Y-61384819D01*
X145037500Y-61384819D02*
X145037500Y-60384819D01*
X145037500Y-60384819D02*
X144942262Y-60527676D01*
X144942262Y-60527676D02*
X144847024Y-60622914D01*
X144847024Y-60622914D02*
X144751786Y-60670533D01*
X165928571Y-67231009D02*
X165595238Y-67231009D01*
X165595238Y-67754819D02*
X165595238Y-66754819D01*
X165595238Y-66754819D02*
X166071428Y-66754819D01*
X166452381Y-67754819D02*
X166452381Y-66754819D01*
X166928571Y-67754819D02*
X166928571Y-66754819D01*
X166928571Y-66754819D02*
X167166666Y-66754819D01*
X167166666Y-66754819D02*
X167309523Y-66802438D01*
X167309523Y-66802438D02*
X167404761Y-66897676D01*
X167404761Y-66897676D02*
X167452380Y-66992914D01*
X167452380Y-66992914D02*
X167499999Y-67183390D01*
X167499999Y-67183390D02*
X167499999Y-67326247D01*
X167499999Y-67326247D02*
X167452380Y-67516723D01*
X167452380Y-67516723D02*
X167404761Y-67611961D01*
X167404761Y-67611961D02*
X167309523Y-67707200D01*
X167309523Y-67707200D02*
X167166666Y-67754819D01*
X167166666Y-67754819D02*
X166928571Y-67754819D01*
X167833333Y-66754819D02*
X168452380Y-66754819D01*
X168452380Y-66754819D02*
X168119047Y-67135771D01*
X168119047Y-67135771D02*
X168261904Y-67135771D01*
X168261904Y-67135771D02*
X168357142Y-67183390D01*
X168357142Y-67183390D02*
X168404761Y-67231009D01*
X168404761Y-67231009D02*
X168452380Y-67326247D01*
X168452380Y-67326247D02*
X168452380Y-67564342D01*
X168452380Y-67564342D02*
X168404761Y-67659580D01*
X168404761Y-67659580D02*
X168357142Y-67707200D01*
X168357142Y-67707200D02*
X168261904Y-67754819D01*
X168261904Y-67754819D02*
X167976190Y-67754819D01*
X167976190Y-67754819D02*
X167880952Y-67707200D01*
X167880952Y-67707200D02*
X167833333Y-67659580D01*
X160938095Y-89004820D02*
X160938095Y-89814343D01*
X160938095Y-89814343D02*
X160985714Y-89909581D01*
X160985714Y-89909581D02*
X161033333Y-89957201D01*
X161033333Y-89957201D02*
X161128571Y-90004820D01*
X161128571Y-90004820D02*
X161319047Y-90004820D01*
X161319047Y-90004820D02*
X161414285Y-89957201D01*
X161414285Y-89957201D02*
X161461904Y-89909581D01*
X161461904Y-89909581D02*
X161509523Y-89814343D01*
X161509523Y-89814343D02*
X161509523Y-89004820D01*
X161938095Y-89100058D02*
X161985714Y-89052439D01*
X161985714Y-89052439D02*
X162080952Y-89004820D01*
X162080952Y-89004820D02*
X162319047Y-89004820D01*
X162319047Y-89004820D02*
X162414285Y-89052439D01*
X162414285Y-89052439D02*
X162461904Y-89100058D01*
X162461904Y-89100058D02*
X162509523Y-89195296D01*
X162509523Y-89195296D02*
X162509523Y-89290534D01*
X162509523Y-89290534D02*
X162461904Y-89433391D01*
X162461904Y-89433391D02*
X161890476Y-90004820D01*
X161890476Y-90004820D02*
X162509523Y-90004820D01*
X157299450Y-90636020D02*
X157299450Y-90874115D01*
X157061355Y-90778877D02*
X157299450Y-90874115D01*
X157299450Y-90874115D02*
X157537545Y-90778877D01*
X157156593Y-91064591D02*
X157299450Y-90874115D01*
X157299450Y-90874115D02*
X157442307Y-91064591D01*
X157299450Y-90636020D02*
X157299450Y-90874115D01*
X157061355Y-90778877D02*
X157299450Y-90874115D01*
X157299450Y-90874115D02*
X157537545Y-90778877D01*
X157156593Y-91064591D02*
X157299450Y-90874115D01*
X157299450Y-90874115D02*
X157442307Y-91064591D01*
X170488095Y-102554819D02*
X170488095Y-101554819D01*
X170488095Y-102031009D02*
X171059523Y-102031009D01*
X171059523Y-102554819D02*
X171059523Y-101554819D01*
X171488095Y-101650057D02*
X171535714Y-101602438D01*
X171535714Y-101602438D02*
X171630952Y-101554819D01*
X171630952Y-101554819D02*
X171869047Y-101554819D01*
X171869047Y-101554819D02*
X171964285Y-101602438D01*
X171964285Y-101602438D02*
X172011904Y-101650057D01*
X172011904Y-101650057D02*
X172059523Y-101745295D01*
X172059523Y-101745295D02*
X172059523Y-101840533D01*
X172059523Y-101840533D02*
X172011904Y-101983390D01*
X172011904Y-101983390D02*
X171440476Y-102554819D01*
X171440476Y-102554819D02*
X172059523Y-102554819D01*
X144473139Y-78233179D02*
X144425520Y-78280799D01*
X144425520Y-78280799D02*
X144282663Y-78328418D01*
X144282663Y-78328418D02*
X144187425Y-78328418D01*
X144187425Y-78328418D02*
X144044568Y-78280799D01*
X144044568Y-78280799D02*
X143949330Y-78185560D01*
X143949330Y-78185560D02*
X143901711Y-78090322D01*
X143901711Y-78090322D02*
X143854092Y-77899846D01*
X143854092Y-77899846D02*
X143854092Y-77756989D01*
X143854092Y-77756989D02*
X143901711Y-77566513D01*
X143901711Y-77566513D02*
X143949330Y-77471275D01*
X143949330Y-77471275D02*
X144044568Y-77376037D01*
X144044568Y-77376037D02*
X144187425Y-77328418D01*
X144187425Y-77328418D02*
X144282663Y-77328418D01*
X144282663Y-77328418D02*
X144425520Y-77376037D01*
X144425520Y-77376037D02*
X144473139Y-77423656D01*
X144806473Y-77328418D02*
X145425520Y-77328418D01*
X145425520Y-77328418D02*
X145092187Y-77709370D01*
X145092187Y-77709370D02*
X145235044Y-77709370D01*
X145235044Y-77709370D02*
X145330282Y-77756989D01*
X145330282Y-77756989D02*
X145377901Y-77804608D01*
X145377901Y-77804608D02*
X145425520Y-77899846D01*
X145425520Y-77899846D02*
X145425520Y-78137941D01*
X145425520Y-78137941D02*
X145377901Y-78233179D01*
X145377901Y-78233179D02*
X145330282Y-78280799D01*
X145330282Y-78280799D02*
X145235044Y-78328418D01*
X145235044Y-78328418D02*
X144949330Y-78328418D01*
X144949330Y-78328418D02*
X144854092Y-78280799D01*
X144854092Y-78280799D02*
X144806473Y-78233179D01*
X146377901Y-78328418D02*
X145806473Y-78328418D01*
X146092187Y-78328418D02*
X146092187Y-77328418D01*
X146092187Y-77328418D02*
X145996949Y-77471275D01*
X145996949Y-77471275D02*
X145901711Y-77566513D01*
X145901711Y-77566513D02*
X145806473Y-77614132D01*
X163358139Y-75888179D02*
X163310520Y-75935799D01*
X163310520Y-75935799D02*
X163167663Y-75983418D01*
X163167663Y-75983418D02*
X163072425Y-75983418D01*
X163072425Y-75983418D02*
X162929568Y-75935799D01*
X162929568Y-75935799D02*
X162834330Y-75840560D01*
X162834330Y-75840560D02*
X162786711Y-75745322D01*
X162786711Y-75745322D02*
X162739092Y-75554846D01*
X162739092Y-75554846D02*
X162739092Y-75411989D01*
X162739092Y-75411989D02*
X162786711Y-75221513D01*
X162786711Y-75221513D02*
X162834330Y-75126275D01*
X162834330Y-75126275D02*
X162929568Y-75031037D01*
X162929568Y-75031037D02*
X163072425Y-74983418D01*
X163072425Y-74983418D02*
X163167663Y-74983418D01*
X163167663Y-74983418D02*
X163310520Y-75031037D01*
X163310520Y-75031037D02*
X163358139Y-75078656D01*
X163691473Y-74983418D02*
X164310520Y-74983418D01*
X164310520Y-74983418D02*
X163977187Y-75364370D01*
X163977187Y-75364370D02*
X164120044Y-75364370D01*
X164120044Y-75364370D02*
X164215282Y-75411989D01*
X164215282Y-75411989D02*
X164262901Y-75459608D01*
X164262901Y-75459608D02*
X164310520Y-75554846D01*
X164310520Y-75554846D02*
X164310520Y-75792941D01*
X164310520Y-75792941D02*
X164262901Y-75888179D01*
X164262901Y-75888179D02*
X164215282Y-75935799D01*
X164215282Y-75935799D02*
X164120044Y-75983418D01*
X164120044Y-75983418D02*
X163834330Y-75983418D01*
X163834330Y-75983418D02*
X163739092Y-75935799D01*
X163739092Y-75935799D02*
X163691473Y-75888179D01*
X165167663Y-74983418D02*
X164977187Y-74983418D01*
X164977187Y-74983418D02*
X164881949Y-75031037D01*
X164881949Y-75031037D02*
X164834330Y-75078656D01*
X164834330Y-75078656D02*
X164739092Y-75221513D01*
X164739092Y-75221513D02*
X164691473Y-75411989D01*
X164691473Y-75411989D02*
X164691473Y-75792941D01*
X164691473Y-75792941D02*
X164739092Y-75888179D01*
X164739092Y-75888179D02*
X164786711Y-75935799D01*
X164786711Y-75935799D02*
X164881949Y-75983418D01*
X164881949Y-75983418D02*
X165072425Y-75983418D01*
X165072425Y-75983418D02*
X165167663Y-75935799D01*
X165167663Y-75935799D02*
X165215282Y-75888179D01*
X165215282Y-75888179D02*
X165262901Y-75792941D01*
X165262901Y-75792941D02*
X165262901Y-75554846D01*
X165262901Y-75554846D02*
X165215282Y-75459608D01*
X165215282Y-75459608D02*
X165167663Y-75411989D01*
X165167663Y-75411989D02*
X165072425Y-75364370D01*
X165072425Y-75364370D02*
X164881949Y-75364370D01*
X164881949Y-75364370D02*
X164786711Y-75411989D01*
X164786711Y-75411989D02*
X164739092Y-75459608D01*
X164739092Y-75459608D02*
X164691473Y-75554846D01*
X105888095Y-140506819D02*
X106459523Y-140506819D01*
X106173809Y-141506819D02*
X106173809Y-140506819D01*
X106792857Y-141506819D02*
X106792857Y-140506819D01*
X106792857Y-140506819D02*
X107173809Y-140506819D01*
X107173809Y-140506819D02*
X107269047Y-140554438D01*
X107269047Y-140554438D02*
X107316666Y-140602057D01*
X107316666Y-140602057D02*
X107364285Y-140697295D01*
X107364285Y-140697295D02*
X107364285Y-140840152D01*
X107364285Y-140840152D02*
X107316666Y-140935390D01*
X107316666Y-140935390D02*
X107269047Y-140983009D01*
X107269047Y-140983009D02*
X107173809Y-141030628D01*
X107173809Y-141030628D02*
X106792857Y-141030628D01*
X107697619Y-140506819D02*
X108364285Y-140506819D01*
X108364285Y-140506819D02*
X107935714Y-141506819D01*
X101838095Y-144556819D02*
X102409523Y-144556819D01*
X102123809Y-145556819D02*
X102123809Y-144556819D01*
X102742857Y-145556819D02*
X102742857Y-144556819D01*
X102742857Y-144556819D02*
X103123809Y-144556819D01*
X103123809Y-144556819D02*
X103219047Y-144604438D01*
X103219047Y-144604438D02*
X103266666Y-144652057D01*
X103266666Y-144652057D02*
X103314285Y-144747295D01*
X103314285Y-144747295D02*
X103314285Y-144890152D01*
X103314285Y-144890152D02*
X103266666Y-144985390D01*
X103266666Y-144985390D02*
X103219047Y-145033009D01*
X103219047Y-145033009D02*
X103123809Y-145080628D01*
X103123809Y-145080628D02*
X102742857Y-145080628D01*
X104171428Y-144556819D02*
X103980952Y-144556819D01*
X103980952Y-144556819D02*
X103885714Y-144604438D01*
X103885714Y-144604438D02*
X103838095Y-144652057D01*
X103838095Y-144652057D02*
X103742857Y-144794914D01*
X103742857Y-144794914D02*
X103695238Y-144985390D01*
X103695238Y-144985390D02*
X103695238Y-145366342D01*
X103695238Y-145366342D02*
X103742857Y-145461580D01*
X103742857Y-145461580D02*
X103790476Y-145509200D01*
X103790476Y-145509200D02*
X103885714Y-145556819D01*
X103885714Y-145556819D02*
X104076190Y-145556819D01*
X104076190Y-145556819D02*
X104171428Y-145509200D01*
X104171428Y-145509200D02*
X104219047Y-145461580D01*
X104219047Y-145461580D02*
X104266666Y-145366342D01*
X104266666Y-145366342D02*
X104266666Y-145128247D01*
X104266666Y-145128247D02*
X104219047Y-145033009D01*
X104219047Y-145033009D02*
X104171428Y-144985390D01*
X104171428Y-144985390D02*
X104076190Y-144937771D01*
X104076190Y-144937771D02*
X103885714Y-144937771D01*
X103885714Y-144937771D02*
X103790476Y-144985390D01*
X103790476Y-144985390D02*
X103742857Y-145033009D01*
X103742857Y-145033009D02*
X103695238Y-145128247D01*
X161275816Y-76216456D02*
X160799625Y-76549789D01*
X161275816Y-76787884D02*
X160275816Y-76787884D01*
X160275816Y-76787884D02*
X160275816Y-76406932D01*
X160275816Y-76406932D02*
X160323435Y-76311694D01*
X160323435Y-76311694D02*
X160371054Y-76264075D01*
X160371054Y-76264075D02*
X160466292Y-76216456D01*
X160466292Y-76216456D02*
X160609149Y-76216456D01*
X160609149Y-76216456D02*
X160704387Y-76264075D01*
X160704387Y-76264075D02*
X160752006Y-76311694D01*
X160752006Y-76311694D02*
X160799625Y-76406932D01*
X160799625Y-76406932D02*
X160799625Y-76787884D01*
X160275816Y-75883122D02*
X160275816Y-75264075D01*
X160275816Y-75264075D02*
X160656768Y-75597408D01*
X160656768Y-75597408D02*
X160656768Y-75454551D01*
X160656768Y-75454551D02*
X160704387Y-75359313D01*
X160704387Y-75359313D02*
X160752006Y-75311694D01*
X160752006Y-75311694D02*
X160847244Y-75264075D01*
X160847244Y-75264075D02*
X161085339Y-75264075D01*
X161085339Y-75264075D02*
X161180577Y-75311694D01*
X161180577Y-75311694D02*
X161228197Y-75359313D01*
X161228197Y-75359313D02*
X161275816Y-75454551D01*
X161275816Y-75454551D02*
X161275816Y-75740265D01*
X161275816Y-75740265D02*
X161228197Y-75835503D01*
X161228197Y-75835503D02*
X161180577Y-75883122D01*
X160275816Y-74645027D02*
X160275816Y-74549789D01*
X160275816Y-74549789D02*
X160323435Y-74454551D01*
X160323435Y-74454551D02*
X160371054Y-74406932D01*
X160371054Y-74406932D02*
X160466292Y-74359313D01*
X160466292Y-74359313D02*
X160656768Y-74311694D01*
X160656768Y-74311694D02*
X160894863Y-74311694D01*
X160894863Y-74311694D02*
X161085339Y-74359313D01*
X161085339Y-74359313D02*
X161180577Y-74406932D01*
X161180577Y-74406932D02*
X161228197Y-74454551D01*
X161228197Y-74454551D02*
X161275816Y-74549789D01*
X161275816Y-74549789D02*
X161275816Y-74645027D01*
X161275816Y-74645027D02*
X161228197Y-74740265D01*
X161228197Y-74740265D02*
X161180577Y-74787884D01*
X161180577Y-74787884D02*
X161085339Y-74835503D01*
X161085339Y-74835503D02*
X160894863Y-74883122D01*
X160894863Y-74883122D02*
X160656768Y-74883122D01*
X160656768Y-74883122D02*
X160466292Y-74835503D01*
X160466292Y-74835503D02*
X160371054Y-74787884D01*
X160371054Y-74787884D02*
X160323435Y-74740265D01*
X160323435Y-74740265D02*
X160275816Y-74645027D01*
X160938095Y-77923319D02*
X160938095Y-78732842D01*
X160938095Y-78732842D02*
X160985714Y-78828080D01*
X160985714Y-78828080D02*
X161033333Y-78875700D01*
X161033333Y-78875700D02*
X161128571Y-78923319D01*
X161128571Y-78923319D02*
X161319047Y-78923319D01*
X161319047Y-78923319D02*
X161414285Y-78875700D01*
X161414285Y-78875700D02*
X161461904Y-78828080D01*
X161461904Y-78828080D02*
X161509523Y-78732842D01*
X161509523Y-78732842D02*
X161509523Y-77923319D01*
X161890476Y-77923319D02*
X162509523Y-77923319D01*
X162509523Y-77923319D02*
X162176190Y-78304271D01*
X162176190Y-78304271D02*
X162319047Y-78304271D01*
X162319047Y-78304271D02*
X162414285Y-78351890D01*
X162414285Y-78351890D02*
X162461904Y-78399509D01*
X162461904Y-78399509D02*
X162509523Y-78494747D01*
X162509523Y-78494747D02*
X162509523Y-78732842D01*
X162509523Y-78732842D02*
X162461904Y-78828080D01*
X162461904Y-78828080D02*
X162414285Y-78875700D01*
X162414285Y-78875700D02*
X162319047Y-78923319D01*
X162319047Y-78923319D02*
X162033333Y-78923319D01*
X162033333Y-78923319D02*
X161938095Y-78875700D01*
X161938095Y-78875700D02*
X161890476Y-78828080D01*
X157299450Y-79554519D02*
X157299450Y-79792614D01*
X157061355Y-79697376D02*
X157299450Y-79792614D01*
X157299450Y-79792614D02*
X157537545Y-79697376D01*
X157156593Y-79983090D02*
X157299450Y-79792614D01*
X157299450Y-79792614D02*
X157442307Y-79983090D01*
X157299450Y-79554519D02*
X157299450Y-79792614D01*
X157061355Y-79697376D02*
X157299450Y-79792614D01*
X157299450Y-79792614D02*
X157537545Y-79697376D01*
X157156593Y-79983090D02*
X157299450Y-79792614D01*
X157299450Y-79792614D02*
X157442307Y-79983090D01*
X141782142Y-100429580D02*
X141734523Y-100477200D01*
X141734523Y-100477200D02*
X141591666Y-100524819D01*
X141591666Y-100524819D02*
X141496428Y-100524819D01*
X141496428Y-100524819D02*
X141353571Y-100477200D01*
X141353571Y-100477200D02*
X141258333Y-100381961D01*
X141258333Y-100381961D02*
X141210714Y-100286723D01*
X141210714Y-100286723D02*
X141163095Y-100096247D01*
X141163095Y-100096247D02*
X141163095Y-99953390D01*
X141163095Y-99953390D02*
X141210714Y-99762914D01*
X141210714Y-99762914D02*
X141258333Y-99667676D01*
X141258333Y-99667676D02*
X141353571Y-99572438D01*
X141353571Y-99572438D02*
X141496428Y-99524819D01*
X141496428Y-99524819D02*
X141591666Y-99524819D01*
X141591666Y-99524819D02*
X141734523Y-99572438D01*
X141734523Y-99572438D02*
X141782142Y-99620057D01*
X142734523Y-100524819D02*
X142163095Y-100524819D01*
X142448809Y-100524819D02*
X142448809Y-99524819D01*
X142448809Y-99524819D02*
X142353571Y-99667676D01*
X142353571Y-99667676D02*
X142258333Y-99762914D01*
X142258333Y-99762914D02*
X142163095Y-99810533D01*
X143686904Y-100524819D02*
X143115476Y-100524819D01*
X143401190Y-100524819D02*
X143401190Y-99524819D01*
X143401190Y-99524819D02*
X143305952Y-99667676D01*
X143305952Y-99667676D02*
X143210714Y-99762914D01*
X143210714Y-99762914D02*
X143115476Y-99810533D01*
X101838095Y-140506819D02*
X102409523Y-140506819D01*
X102123809Y-141506819D02*
X102123809Y-140506819D01*
X102742857Y-141506819D02*
X102742857Y-140506819D01*
X102742857Y-140506819D02*
X103123809Y-140506819D01*
X103123809Y-140506819D02*
X103219047Y-140554438D01*
X103219047Y-140554438D02*
X103266666Y-140602057D01*
X103266666Y-140602057D02*
X103314285Y-140697295D01*
X103314285Y-140697295D02*
X103314285Y-140840152D01*
X103314285Y-140840152D02*
X103266666Y-140935390D01*
X103266666Y-140935390D02*
X103219047Y-140983009D01*
X103219047Y-140983009D02*
X103123809Y-141030628D01*
X103123809Y-141030628D02*
X102742857Y-141030628D01*
X104219047Y-140506819D02*
X103742857Y-140506819D01*
X103742857Y-140506819D02*
X103695238Y-140983009D01*
X103695238Y-140983009D02*
X103742857Y-140935390D01*
X103742857Y-140935390D02*
X103838095Y-140887771D01*
X103838095Y-140887771D02*
X104076190Y-140887771D01*
X104076190Y-140887771D02*
X104171428Y-140935390D01*
X104171428Y-140935390D02*
X104219047Y-140983009D01*
X104219047Y-140983009D02*
X104266666Y-141078247D01*
X104266666Y-141078247D02*
X104266666Y-141316342D01*
X104266666Y-141316342D02*
X104219047Y-141411580D01*
X104219047Y-141411580D02*
X104171428Y-141459200D01*
X104171428Y-141459200D02*
X104076190Y-141506819D01*
X104076190Y-141506819D02*
X103838095Y-141506819D01*
X103838095Y-141506819D02*
X103742857Y-141459200D01*
X103742857Y-141459200D02*
X103695238Y-141411580D01*
X121219642Y-107024819D02*
X120886309Y-106548628D01*
X120648214Y-107024819D02*
X120648214Y-106024819D01*
X120648214Y-106024819D02*
X121029166Y-106024819D01*
X121029166Y-106024819D02*
X121124404Y-106072438D01*
X121124404Y-106072438D02*
X121172023Y-106120057D01*
X121172023Y-106120057D02*
X121219642Y-106215295D01*
X121219642Y-106215295D02*
X121219642Y-106358152D01*
X121219642Y-106358152D02*
X121172023Y-106453390D01*
X121172023Y-106453390D02*
X121124404Y-106501009D01*
X121124404Y-106501009D02*
X121029166Y-106548628D01*
X121029166Y-106548628D02*
X120648214Y-106548628D01*
X122172023Y-107024819D02*
X121600595Y-107024819D01*
X121886309Y-107024819D02*
X121886309Y-106024819D01*
X121886309Y-106024819D02*
X121791071Y-106167676D01*
X121791071Y-106167676D02*
X121695833Y-106262914D01*
X121695833Y-106262914D02*
X121600595Y-106310533D01*
X122743452Y-106453390D02*
X122648214Y-106405771D01*
X122648214Y-106405771D02*
X122600595Y-106358152D01*
X122600595Y-106358152D02*
X122552976Y-106262914D01*
X122552976Y-106262914D02*
X122552976Y-106215295D01*
X122552976Y-106215295D02*
X122600595Y-106120057D01*
X122600595Y-106120057D02*
X122648214Y-106072438D01*
X122648214Y-106072438D02*
X122743452Y-106024819D01*
X122743452Y-106024819D02*
X122933928Y-106024819D01*
X122933928Y-106024819D02*
X123029166Y-106072438D01*
X123029166Y-106072438D02*
X123076785Y-106120057D01*
X123076785Y-106120057D02*
X123124404Y-106215295D01*
X123124404Y-106215295D02*
X123124404Y-106262914D01*
X123124404Y-106262914D02*
X123076785Y-106358152D01*
X123076785Y-106358152D02*
X123029166Y-106405771D01*
X123029166Y-106405771D02*
X122933928Y-106453390D01*
X122933928Y-106453390D02*
X122743452Y-106453390D01*
X122743452Y-106453390D02*
X122648214Y-106501009D01*
X122648214Y-106501009D02*
X122600595Y-106548628D01*
X122600595Y-106548628D02*
X122552976Y-106643866D01*
X122552976Y-106643866D02*
X122552976Y-106834342D01*
X122552976Y-106834342D02*
X122600595Y-106929580D01*
X122600595Y-106929580D02*
X122648214Y-106977200D01*
X122648214Y-106977200D02*
X122743452Y-107024819D01*
X122743452Y-107024819D02*
X122933928Y-107024819D01*
X122933928Y-107024819D02*
X123029166Y-106977200D01*
X123029166Y-106977200D02*
X123076785Y-106929580D01*
X123076785Y-106929580D02*
X123124404Y-106834342D01*
X123124404Y-106834342D02*
X123124404Y-106643866D01*
X123124404Y-106643866D02*
X123076785Y-106548628D01*
X123076785Y-106548628D02*
X123029166Y-106501009D01*
X123029166Y-106501009D02*
X122933928Y-106453390D01*
X113184542Y-55539580D02*
X113136923Y-55587200D01*
X113136923Y-55587200D02*
X112994066Y-55634819D01*
X112994066Y-55634819D02*
X112898828Y-55634819D01*
X112898828Y-55634819D02*
X112755971Y-55587200D01*
X112755971Y-55587200D02*
X112660733Y-55491961D01*
X112660733Y-55491961D02*
X112613114Y-55396723D01*
X112613114Y-55396723D02*
X112565495Y-55206247D01*
X112565495Y-55206247D02*
X112565495Y-55063390D01*
X112565495Y-55063390D02*
X112613114Y-54872914D01*
X112613114Y-54872914D02*
X112660733Y-54777676D01*
X112660733Y-54777676D02*
X112755971Y-54682438D01*
X112755971Y-54682438D02*
X112898828Y-54634819D01*
X112898828Y-54634819D02*
X112994066Y-54634819D01*
X112994066Y-54634819D02*
X113136923Y-54682438D01*
X113136923Y-54682438D02*
X113184542Y-54730057D01*
X113565495Y-54730057D02*
X113613114Y-54682438D01*
X113613114Y-54682438D02*
X113708352Y-54634819D01*
X113708352Y-54634819D02*
X113946447Y-54634819D01*
X113946447Y-54634819D02*
X114041685Y-54682438D01*
X114041685Y-54682438D02*
X114089304Y-54730057D01*
X114089304Y-54730057D02*
X114136923Y-54825295D01*
X114136923Y-54825295D02*
X114136923Y-54920533D01*
X114136923Y-54920533D02*
X114089304Y-55063390D01*
X114089304Y-55063390D02*
X113517876Y-55634819D01*
X113517876Y-55634819D02*
X114136923Y-55634819D01*
X114708352Y-55063390D02*
X114613114Y-55015771D01*
X114613114Y-55015771D02*
X114565495Y-54968152D01*
X114565495Y-54968152D02*
X114517876Y-54872914D01*
X114517876Y-54872914D02*
X114517876Y-54825295D01*
X114517876Y-54825295D02*
X114565495Y-54730057D01*
X114565495Y-54730057D02*
X114613114Y-54682438D01*
X114613114Y-54682438D02*
X114708352Y-54634819D01*
X114708352Y-54634819D02*
X114898828Y-54634819D01*
X114898828Y-54634819D02*
X114994066Y-54682438D01*
X114994066Y-54682438D02*
X115041685Y-54730057D01*
X115041685Y-54730057D02*
X115089304Y-54825295D01*
X115089304Y-54825295D02*
X115089304Y-54872914D01*
X115089304Y-54872914D02*
X115041685Y-54968152D01*
X115041685Y-54968152D02*
X114994066Y-55015771D01*
X114994066Y-55015771D02*
X114898828Y-55063390D01*
X114898828Y-55063390D02*
X114708352Y-55063390D01*
X114708352Y-55063390D02*
X114613114Y-55111009D01*
X114613114Y-55111009D02*
X114565495Y-55158628D01*
X114565495Y-55158628D02*
X114517876Y-55253866D01*
X114517876Y-55253866D02*
X114517876Y-55444342D01*
X114517876Y-55444342D02*
X114565495Y-55539580D01*
X114565495Y-55539580D02*
X114613114Y-55587200D01*
X114613114Y-55587200D02*
X114708352Y-55634819D01*
X114708352Y-55634819D02*
X114898828Y-55634819D01*
X114898828Y-55634819D02*
X114994066Y-55587200D01*
X114994066Y-55587200D02*
X115041685Y-55539580D01*
X115041685Y-55539580D02*
X115089304Y-55444342D01*
X115089304Y-55444342D02*
X115089304Y-55253866D01*
X115089304Y-55253866D02*
X115041685Y-55158628D01*
X115041685Y-55158628D02*
X114994066Y-55111009D01*
X114994066Y-55111009D02*
X114898828Y-55063390D01*
X134508333Y-98929580D02*
X134460714Y-98977200D01*
X134460714Y-98977200D02*
X134317857Y-99024819D01*
X134317857Y-99024819D02*
X134222619Y-99024819D01*
X134222619Y-99024819D02*
X134079762Y-98977200D01*
X134079762Y-98977200D02*
X133984524Y-98881961D01*
X133984524Y-98881961D02*
X133936905Y-98786723D01*
X133936905Y-98786723D02*
X133889286Y-98596247D01*
X133889286Y-98596247D02*
X133889286Y-98453390D01*
X133889286Y-98453390D02*
X133936905Y-98262914D01*
X133936905Y-98262914D02*
X133984524Y-98167676D01*
X133984524Y-98167676D02*
X134079762Y-98072438D01*
X134079762Y-98072438D02*
X134222619Y-98024819D01*
X134222619Y-98024819D02*
X134317857Y-98024819D01*
X134317857Y-98024819D02*
X134460714Y-98072438D01*
X134460714Y-98072438D02*
X134508333Y-98120057D01*
X135365476Y-98024819D02*
X135175000Y-98024819D01*
X135175000Y-98024819D02*
X135079762Y-98072438D01*
X135079762Y-98072438D02*
X135032143Y-98120057D01*
X135032143Y-98120057D02*
X134936905Y-98262914D01*
X134936905Y-98262914D02*
X134889286Y-98453390D01*
X134889286Y-98453390D02*
X134889286Y-98834342D01*
X134889286Y-98834342D02*
X134936905Y-98929580D01*
X134936905Y-98929580D02*
X134984524Y-98977200D01*
X134984524Y-98977200D02*
X135079762Y-99024819D01*
X135079762Y-99024819D02*
X135270238Y-99024819D01*
X135270238Y-99024819D02*
X135365476Y-98977200D01*
X135365476Y-98977200D02*
X135413095Y-98929580D01*
X135413095Y-98929580D02*
X135460714Y-98834342D01*
X135460714Y-98834342D02*
X135460714Y-98596247D01*
X135460714Y-98596247D02*
X135413095Y-98501009D01*
X135413095Y-98501009D02*
X135365476Y-98453390D01*
X135365476Y-98453390D02*
X135270238Y-98405771D01*
X135270238Y-98405771D02*
X135079762Y-98405771D01*
X135079762Y-98405771D02*
X134984524Y-98453390D01*
X134984524Y-98453390D02*
X134936905Y-98501009D01*
X134936905Y-98501009D02*
X134889286Y-98596247D01*
X112647042Y-58984819D02*
X112313709Y-58508628D01*
X112075614Y-58984819D02*
X112075614Y-57984819D01*
X112075614Y-57984819D02*
X112456566Y-57984819D01*
X112456566Y-57984819D02*
X112551804Y-58032438D01*
X112551804Y-58032438D02*
X112599423Y-58080057D01*
X112599423Y-58080057D02*
X112647042Y-58175295D01*
X112647042Y-58175295D02*
X112647042Y-58318152D01*
X112647042Y-58318152D02*
X112599423Y-58413390D01*
X112599423Y-58413390D02*
X112551804Y-58461009D01*
X112551804Y-58461009D02*
X112456566Y-58508628D01*
X112456566Y-58508628D02*
X112075614Y-58508628D01*
X113027995Y-58080057D02*
X113075614Y-58032438D01*
X113075614Y-58032438D02*
X113170852Y-57984819D01*
X113170852Y-57984819D02*
X113408947Y-57984819D01*
X113408947Y-57984819D02*
X113504185Y-58032438D01*
X113504185Y-58032438D02*
X113551804Y-58080057D01*
X113551804Y-58080057D02*
X113599423Y-58175295D01*
X113599423Y-58175295D02*
X113599423Y-58270533D01*
X113599423Y-58270533D02*
X113551804Y-58413390D01*
X113551804Y-58413390D02*
X112980376Y-58984819D01*
X112980376Y-58984819D02*
X113599423Y-58984819D01*
X114551804Y-58984819D02*
X113980376Y-58984819D01*
X114266090Y-58984819D02*
X114266090Y-57984819D01*
X114266090Y-57984819D02*
X114170852Y-58127676D01*
X114170852Y-58127676D02*
X114075614Y-58222914D01*
X114075614Y-58222914D02*
X113980376Y-58270533D01*
X140300819Y-75901456D02*
X139824628Y-76234789D01*
X140300819Y-76472884D02*
X139300819Y-76472884D01*
X139300819Y-76472884D02*
X139300819Y-76091932D01*
X139300819Y-76091932D02*
X139348438Y-75996694D01*
X139348438Y-75996694D02*
X139396057Y-75949075D01*
X139396057Y-75949075D02*
X139491295Y-75901456D01*
X139491295Y-75901456D02*
X139634152Y-75901456D01*
X139634152Y-75901456D02*
X139729390Y-75949075D01*
X139729390Y-75949075D02*
X139777009Y-75996694D01*
X139777009Y-75996694D02*
X139824628Y-76091932D01*
X139824628Y-76091932D02*
X139824628Y-76472884D01*
X139300819Y-75568122D02*
X139300819Y-74949075D01*
X139300819Y-74949075D02*
X139681771Y-75282408D01*
X139681771Y-75282408D02*
X139681771Y-75139551D01*
X139681771Y-75139551D02*
X139729390Y-75044313D01*
X139729390Y-75044313D02*
X139777009Y-74996694D01*
X139777009Y-74996694D02*
X139872247Y-74949075D01*
X139872247Y-74949075D02*
X140110342Y-74949075D01*
X140110342Y-74949075D02*
X140205580Y-74996694D01*
X140205580Y-74996694D02*
X140253200Y-75044313D01*
X140253200Y-75044313D02*
X140300819Y-75139551D01*
X140300819Y-75139551D02*
X140300819Y-75425265D01*
X140300819Y-75425265D02*
X140253200Y-75520503D01*
X140253200Y-75520503D02*
X140205580Y-75568122D01*
X140300819Y-73996694D02*
X140300819Y-74568122D01*
X140300819Y-74282408D02*
X139300819Y-74282408D01*
X139300819Y-74282408D02*
X139443676Y-74377646D01*
X139443676Y-74377646D02*
X139538914Y-74472884D01*
X139538914Y-74472884D02*
X139586533Y-74568122D01*
X147220816Y-75901456D02*
X146744625Y-76234789D01*
X147220816Y-76472884D02*
X146220816Y-76472884D01*
X146220816Y-76472884D02*
X146220816Y-76091932D01*
X146220816Y-76091932D02*
X146268435Y-75996694D01*
X146268435Y-75996694D02*
X146316054Y-75949075D01*
X146316054Y-75949075D02*
X146411292Y-75901456D01*
X146411292Y-75901456D02*
X146554149Y-75901456D01*
X146554149Y-75901456D02*
X146649387Y-75949075D01*
X146649387Y-75949075D02*
X146697006Y-75996694D01*
X146697006Y-75996694D02*
X146744625Y-76091932D01*
X146744625Y-76091932D02*
X146744625Y-76472884D01*
X146220816Y-75568122D02*
X146220816Y-74949075D01*
X146220816Y-74949075D02*
X146601768Y-75282408D01*
X146601768Y-75282408D02*
X146601768Y-75139551D01*
X146601768Y-75139551D02*
X146649387Y-75044313D01*
X146649387Y-75044313D02*
X146697006Y-74996694D01*
X146697006Y-74996694D02*
X146792244Y-74949075D01*
X146792244Y-74949075D02*
X147030339Y-74949075D01*
X147030339Y-74949075D02*
X147125577Y-74996694D01*
X147125577Y-74996694D02*
X147173197Y-75044313D01*
X147173197Y-75044313D02*
X147220816Y-75139551D01*
X147220816Y-75139551D02*
X147220816Y-75425265D01*
X147220816Y-75425265D02*
X147173197Y-75520503D01*
X147173197Y-75520503D02*
X147125577Y-75568122D01*
X146220816Y-74615741D02*
X146220816Y-73996694D01*
X146220816Y-73996694D02*
X146601768Y-74330027D01*
X146601768Y-74330027D02*
X146601768Y-74187170D01*
X146601768Y-74187170D02*
X146649387Y-74091932D01*
X146649387Y-74091932D02*
X146697006Y-74044313D01*
X146697006Y-74044313D02*
X146792244Y-73996694D01*
X146792244Y-73996694D02*
X147030339Y-73996694D01*
X147030339Y-73996694D02*
X147125577Y-74044313D01*
X147125577Y-74044313D02*
X147173197Y-74091932D01*
X147173197Y-74091932D02*
X147220816Y-74187170D01*
X147220816Y-74187170D02*
X147220816Y-74472884D01*
X147220816Y-74472884D02*
X147173197Y-74568122D01*
X147173197Y-74568122D02*
X147125577Y-74615741D01*
X121219642Y-88837319D02*
X120886309Y-88361128D01*
X120648214Y-88837319D02*
X120648214Y-87837319D01*
X120648214Y-87837319D02*
X121029166Y-87837319D01*
X121029166Y-87837319D02*
X121124404Y-87884938D01*
X121124404Y-87884938D02*
X121172023Y-87932557D01*
X121172023Y-87932557D02*
X121219642Y-88027795D01*
X121219642Y-88027795D02*
X121219642Y-88170652D01*
X121219642Y-88170652D02*
X121172023Y-88265890D01*
X121172023Y-88265890D02*
X121124404Y-88313509D01*
X121124404Y-88313509D02*
X121029166Y-88361128D01*
X121029166Y-88361128D02*
X120648214Y-88361128D01*
X122172023Y-88837319D02*
X121600595Y-88837319D01*
X121886309Y-88837319D02*
X121886309Y-87837319D01*
X121886309Y-87837319D02*
X121791071Y-87980176D01*
X121791071Y-87980176D02*
X121695833Y-88075414D01*
X121695833Y-88075414D02*
X121600595Y-88123033D01*
X122791071Y-87837319D02*
X122886309Y-87837319D01*
X122886309Y-87837319D02*
X122981547Y-87884938D01*
X122981547Y-87884938D02*
X123029166Y-87932557D01*
X123029166Y-87932557D02*
X123076785Y-88027795D01*
X123076785Y-88027795D02*
X123124404Y-88218271D01*
X123124404Y-88218271D02*
X123124404Y-88456366D01*
X123124404Y-88456366D02*
X123076785Y-88646842D01*
X123076785Y-88646842D02*
X123029166Y-88742080D01*
X123029166Y-88742080D02*
X122981547Y-88789700D01*
X122981547Y-88789700D02*
X122886309Y-88837319D01*
X122886309Y-88837319D02*
X122791071Y-88837319D01*
X122791071Y-88837319D02*
X122695833Y-88789700D01*
X122695833Y-88789700D02*
X122648214Y-88742080D01*
X122648214Y-88742080D02*
X122600595Y-88646842D01*
X122600595Y-88646842D02*
X122552976Y-88456366D01*
X122552976Y-88456366D02*
X122552976Y-88218271D01*
X122552976Y-88218271D02*
X122600595Y-88027795D01*
X122600595Y-88027795D02*
X122648214Y-87932557D01*
X122648214Y-87932557D02*
X122695833Y-87884938D01*
X122695833Y-87884938D02*
X122791071Y-87837319D01*
X149074819Y-85011357D02*
X148598628Y-85344690D01*
X149074819Y-85582785D02*
X148074819Y-85582785D01*
X148074819Y-85582785D02*
X148074819Y-85201833D01*
X148074819Y-85201833D02*
X148122438Y-85106595D01*
X148122438Y-85106595D02*
X148170057Y-85058976D01*
X148170057Y-85058976D02*
X148265295Y-85011357D01*
X148265295Y-85011357D02*
X148408152Y-85011357D01*
X148408152Y-85011357D02*
X148503390Y-85058976D01*
X148503390Y-85058976D02*
X148551009Y-85106595D01*
X148551009Y-85106595D02*
X148598628Y-85201833D01*
X148598628Y-85201833D02*
X148598628Y-85582785D01*
X148408152Y-84154214D02*
X149074819Y-84154214D01*
X148027200Y-84392309D02*
X148741485Y-84630404D01*
X148741485Y-84630404D02*
X148741485Y-84011357D01*
X148074819Y-83439928D02*
X148074819Y-83344690D01*
X148074819Y-83344690D02*
X148122438Y-83249452D01*
X148122438Y-83249452D02*
X148170057Y-83201833D01*
X148170057Y-83201833D02*
X148265295Y-83154214D01*
X148265295Y-83154214D02*
X148455771Y-83106595D01*
X148455771Y-83106595D02*
X148693866Y-83106595D01*
X148693866Y-83106595D02*
X148884342Y-83154214D01*
X148884342Y-83154214D02*
X148979580Y-83201833D01*
X148979580Y-83201833D02*
X149027200Y-83249452D01*
X149027200Y-83249452D02*
X149074819Y-83344690D01*
X149074819Y-83344690D02*
X149074819Y-83439928D01*
X149074819Y-83439928D02*
X149027200Y-83535166D01*
X149027200Y-83535166D02*
X148979580Y-83582785D01*
X148979580Y-83582785D02*
X148884342Y-83630404D01*
X148884342Y-83630404D02*
X148693866Y-83678023D01*
X148693866Y-83678023D02*
X148455771Y-83678023D01*
X148455771Y-83678023D02*
X148265295Y-83630404D01*
X148265295Y-83630404D02*
X148170057Y-83582785D01*
X148170057Y-83582785D02*
X148122438Y-83535166D01*
X148122438Y-83535166D02*
X148074819Y-83439928D01*
X143332142Y-98929580D02*
X143284523Y-98977200D01*
X143284523Y-98977200D02*
X143141666Y-99024819D01*
X143141666Y-99024819D02*
X143046428Y-99024819D01*
X143046428Y-99024819D02*
X142903571Y-98977200D01*
X142903571Y-98977200D02*
X142808333Y-98881961D01*
X142808333Y-98881961D02*
X142760714Y-98786723D01*
X142760714Y-98786723D02*
X142713095Y-98596247D01*
X142713095Y-98596247D02*
X142713095Y-98453390D01*
X142713095Y-98453390D02*
X142760714Y-98262914D01*
X142760714Y-98262914D02*
X142808333Y-98167676D01*
X142808333Y-98167676D02*
X142903571Y-98072438D01*
X142903571Y-98072438D02*
X143046428Y-98024819D01*
X143046428Y-98024819D02*
X143141666Y-98024819D01*
X143141666Y-98024819D02*
X143284523Y-98072438D01*
X143284523Y-98072438D02*
X143332142Y-98120057D01*
X144284523Y-99024819D02*
X143713095Y-99024819D01*
X143998809Y-99024819D02*
X143998809Y-98024819D01*
X143998809Y-98024819D02*
X143903571Y-98167676D01*
X143903571Y-98167676D02*
X143808333Y-98262914D01*
X143808333Y-98262914D02*
X143713095Y-98310533D01*
X144665476Y-98120057D02*
X144713095Y-98072438D01*
X144713095Y-98072438D02*
X144808333Y-98024819D01*
X144808333Y-98024819D02*
X145046428Y-98024819D01*
X145046428Y-98024819D02*
X145141666Y-98072438D01*
X145141666Y-98072438D02*
X145189285Y-98120057D01*
X145189285Y-98120057D02*
X145236904Y-98215295D01*
X145236904Y-98215295D02*
X145236904Y-98310533D01*
X145236904Y-98310533D02*
X145189285Y-98453390D01*
X145189285Y-98453390D02*
X144617857Y-99024819D01*
X144617857Y-99024819D02*
X145236904Y-99024819D01*
X102988095Y-102554819D02*
X102988095Y-101554819D01*
X102988095Y-102031009D02*
X103559523Y-102031009D01*
X103559523Y-102554819D02*
X103559523Y-101554819D01*
X104559523Y-102554819D02*
X103988095Y-102554819D01*
X104273809Y-102554819D02*
X104273809Y-101554819D01*
X104273809Y-101554819D02*
X104178571Y-101697676D01*
X104178571Y-101697676D02*
X104083333Y-101792914D01*
X104083333Y-101792914D02*
X103988095Y-101840533D01*
X121695833Y-66024819D02*
X121362500Y-65548628D01*
X121124405Y-66024819D02*
X121124405Y-65024819D01*
X121124405Y-65024819D02*
X121505357Y-65024819D01*
X121505357Y-65024819D02*
X121600595Y-65072438D01*
X121600595Y-65072438D02*
X121648214Y-65120057D01*
X121648214Y-65120057D02*
X121695833Y-65215295D01*
X121695833Y-65215295D02*
X121695833Y-65358152D01*
X121695833Y-65358152D02*
X121648214Y-65453390D01*
X121648214Y-65453390D02*
X121600595Y-65501009D01*
X121600595Y-65501009D02*
X121505357Y-65548628D01*
X121505357Y-65548628D02*
X121124405Y-65548628D01*
X122648214Y-66024819D02*
X122076786Y-66024819D01*
X122362500Y-66024819D02*
X122362500Y-65024819D01*
X122362500Y-65024819D02*
X122267262Y-65167676D01*
X122267262Y-65167676D02*
X122172024Y-65262914D01*
X122172024Y-65262914D02*
X122076786Y-65310533D01*
X87211905Y-130406819D02*
X87783333Y-130406819D01*
X87497619Y-131406819D02*
X87497619Y-130406819D01*
X88116667Y-131406819D02*
X88116667Y-130406819D01*
X88116667Y-130406819D02*
X88497619Y-130406819D01*
X88497619Y-130406819D02*
X88592857Y-130454438D01*
X88592857Y-130454438D02*
X88640476Y-130502057D01*
X88640476Y-130502057D02*
X88688095Y-130597295D01*
X88688095Y-130597295D02*
X88688095Y-130740152D01*
X88688095Y-130740152D02*
X88640476Y-130835390D01*
X88640476Y-130835390D02*
X88592857Y-130883009D01*
X88592857Y-130883009D02*
X88497619Y-130930628D01*
X88497619Y-130930628D02*
X88116667Y-130930628D01*
X89640476Y-131406819D02*
X89069048Y-131406819D01*
X89354762Y-131406819D02*
X89354762Y-130406819D01*
X89354762Y-130406819D02*
X89259524Y-130549676D01*
X89259524Y-130549676D02*
X89164286Y-130644914D01*
X89164286Y-130644914D02*
X89069048Y-130692533D01*
X90592857Y-131406819D02*
X90021429Y-131406819D01*
X90307143Y-131406819D02*
X90307143Y-130406819D01*
X90307143Y-130406819D02*
X90211905Y-130549676D01*
X90211905Y-130549676D02*
X90116667Y-130644914D01*
X90116667Y-130644914D02*
X90021429Y-130692533D01*
X136058333Y-100429580D02*
X136010714Y-100477200D01*
X136010714Y-100477200D02*
X135867857Y-100524819D01*
X135867857Y-100524819D02*
X135772619Y-100524819D01*
X135772619Y-100524819D02*
X135629762Y-100477200D01*
X135629762Y-100477200D02*
X135534524Y-100381961D01*
X135534524Y-100381961D02*
X135486905Y-100286723D01*
X135486905Y-100286723D02*
X135439286Y-100096247D01*
X135439286Y-100096247D02*
X135439286Y-99953390D01*
X135439286Y-99953390D02*
X135486905Y-99762914D01*
X135486905Y-99762914D02*
X135534524Y-99667676D01*
X135534524Y-99667676D02*
X135629762Y-99572438D01*
X135629762Y-99572438D02*
X135772619Y-99524819D01*
X135772619Y-99524819D02*
X135867857Y-99524819D01*
X135867857Y-99524819D02*
X136010714Y-99572438D01*
X136010714Y-99572438D02*
X136058333Y-99620057D01*
X136391667Y-99524819D02*
X137058333Y-99524819D01*
X137058333Y-99524819D02*
X136629762Y-100524819D01*
X115894642Y-85324819D02*
X115561309Y-84848628D01*
X115323214Y-85324819D02*
X115323214Y-84324819D01*
X115323214Y-84324819D02*
X115704166Y-84324819D01*
X115704166Y-84324819D02*
X115799404Y-84372438D01*
X115799404Y-84372438D02*
X115847023Y-84420057D01*
X115847023Y-84420057D02*
X115894642Y-84515295D01*
X115894642Y-84515295D02*
X115894642Y-84658152D01*
X115894642Y-84658152D02*
X115847023Y-84753390D01*
X115847023Y-84753390D02*
X115799404Y-84801009D01*
X115799404Y-84801009D02*
X115704166Y-84848628D01*
X115704166Y-84848628D02*
X115323214Y-84848628D01*
X116847023Y-85324819D02*
X116275595Y-85324819D01*
X116561309Y-85324819D02*
X116561309Y-84324819D01*
X116561309Y-84324819D02*
X116466071Y-84467676D01*
X116466071Y-84467676D02*
X116370833Y-84562914D01*
X116370833Y-84562914D02*
X116275595Y-84610533D01*
X117799404Y-85324819D02*
X117227976Y-85324819D01*
X117513690Y-85324819D02*
X117513690Y-84324819D01*
X117513690Y-84324819D02*
X117418452Y-84467676D01*
X117418452Y-84467676D02*
X117323214Y-84562914D01*
X117323214Y-84562914D02*
X117227976Y-84610533D01*
X149257142Y-82803318D02*
X148923809Y-82327127D01*
X148685714Y-82803318D02*
X148685714Y-81803318D01*
X148685714Y-81803318D02*
X149066666Y-81803318D01*
X149066666Y-81803318D02*
X149161904Y-81850937D01*
X149161904Y-81850937D02*
X149209523Y-81898556D01*
X149209523Y-81898556D02*
X149257142Y-81993794D01*
X149257142Y-81993794D02*
X149257142Y-82136651D01*
X149257142Y-82136651D02*
X149209523Y-82231889D01*
X149209523Y-82231889D02*
X149161904Y-82279508D01*
X149161904Y-82279508D02*
X149066666Y-82327127D01*
X149066666Y-82327127D02*
X148685714Y-82327127D01*
X150114285Y-82136651D02*
X150114285Y-82803318D01*
X149876190Y-81755699D02*
X149638095Y-82469984D01*
X149638095Y-82469984D02*
X150257142Y-82469984D01*
X150542857Y-81803318D02*
X151161904Y-81803318D01*
X151161904Y-81803318D02*
X150828571Y-82184270D01*
X150828571Y-82184270D02*
X150971428Y-82184270D01*
X150971428Y-82184270D02*
X151066666Y-82231889D01*
X151066666Y-82231889D02*
X151114285Y-82279508D01*
X151114285Y-82279508D02*
X151161904Y-82374746D01*
X151161904Y-82374746D02*
X151161904Y-82612841D01*
X151161904Y-82612841D02*
X151114285Y-82708079D01*
X151114285Y-82708079D02*
X151066666Y-82755699D01*
X151066666Y-82755699D02*
X150971428Y-82803318D01*
X150971428Y-82803318D02*
X150685714Y-82803318D01*
X150685714Y-82803318D02*
X150590476Y-82755699D01*
X150590476Y-82755699D02*
X150542857Y-82708079D01*
X137608333Y-98929580D02*
X137560714Y-98977200D01*
X137560714Y-98977200D02*
X137417857Y-99024819D01*
X137417857Y-99024819D02*
X137322619Y-99024819D01*
X137322619Y-99024819D02*
X137179762Y-98977200D01*
X137179762Y-98977200D02*
X137084524Y-98881961D01*
X137084524Y-98881961D02*
X137036905Y-98786723D01*
X137036905Y-98786723D02*
X136989286Y-98596247D01*
X136989286Y-98596247D02*
X136989286Y-98453390D01*
X136989286Y-98453390D02*
X137036905Y-98262914D01*
X137036905Y-98262914D02*
X137084524Y-98167676D01*
X137084524Y-98167676D02*
X137179762Y-98072438D01*
X137179762Y-98072438D02*
X137322619Y-98024819D01*
X137322619Y-98024819D02*
X137417857Y-98024819D01*
X137417857Y-98024819D02*
X137560714Y-98072438D01*
X137560714Y-98072438D02*
X137608333Y-98120057D01*
X138179762Y-98453390D02*
X138084524Y-98405771D01*
X138084524Y-98405771D02*
X138036905Y-98358152D01*
X138036905Y-98358152D02*
X137989286Y-98262914D01*
X137989286Y-98262914D02*
X137989286Y-98215295D01*
X137989286Y-98215295D02*
X138036905Y-98120057D01*
X138036905Y-98120057D02*
X138084524Y-98072438D01*
X138084524Y-98072438D02*
X138179762Y-98024819D01*
X138179762Y-98024819D02*
X138370238Y-98024819D01*
X138370238Y-98024819D02*
X138465476Y-98072438D01*
X138465476Y-98072438D02*
X138513095Y-98120057D01*
X138513095Y-98120057D02*
X138560714Y-98215295D01*
X138560714Y-98215295D02*
X138560714Y-98262914D01*
X138560714Y-98262914D02*
X138513095Y-98358152D01*
X138513095Y-98358152D02*
X138465476Y-98405771D01*
X138465476Y-98405771D02*
X138370238Y-98453390D01*
X138370238Y-98453390D02*
X138179762Y-98453390D01*
X138179762Y-98453390D02*
X138084524Y-98501009D01*
X138084524Y-98501009D02*
X138036905Y-98548628D01*
X138036905Y-98548628D02*
X137989286Y-98643866D01*
X137989286Y-98643866D02*
X137989286Y-98834342D01*
X137989286Y-98834342D02*
X138036905Y-98929580D01*
X138036905Y-98929580D02*
X138084524Y-98977200D01*
X138084524Y-98977200D02*
X138179762Y-99024819D01*
X138179762Y-99024819D02*
X138370238Y-99024819D01*
X138370238Y-99024819D02*
X138465476Y-98977200D01*
X138465476Y-98977200D02*
X138513095Y-98929580D01*
X138513095Y-98929580D02*
X138560714Y-98834342D01*
X138560714Y-98834342D02*
X138560714Y-98643866D01*
X138560714Y-98643866D02*
X138513095Y-98548628D01*
X138513095Y-98548628D02*
X138465476Y-98501009D01*
X138465476Y-98501009D02*
X138370238Y-98453390D01*
X121219642Y-98087319D02*
X120886309Y-97611128D01*
X120648214Y-98087319D02*
X120648214Y-97087319D01*
X120648214Y-97087319D02*
X121029166Y-97087319D01*
X121029166Y-97087319D02*
X121124404Y-97134938D01*
X121124404Y-97134938D02*
X121172023Y-97182557D01*
X121172023Y-97182557D02*
X121219642Y-97277795D01*
X121219642Y-97277795D02*
X121219642Y-97420652D01*
X121219642Y-97420652D02*
X121172023Y-97515890D01*
X121172023Y-97515890D02*
X121124404Y-97563509D01*
X121124404Y-97563509D02*
X121029166Y-97611128D01*
X121029166Y-97611128D02*
X120648214Y-97611128D01*
X122172023Y-98087319D02*
X121600595Y-98087319D01*
X121886309Y-98087319D02*
X121886309Y-97087319D01*
X121886309Y-97087319D02*
X121791071Y-97230176D01*
X121791071Y-97230176D02*
X121695833Y-97325414D01*
X121695833Y-97325414D02*
X121600595Y-97373033D01*
X123029166Y-97420652D02*
X123029166Y-98087319D01*
X122791071Y-97039700D02*
X122552976Y-97753985D01*
X122552976Y-97753985D02*
X123172023Y-97753985D01*
X121219642Y-93462319D02*
X120886309Y-92986128D01*
X120648214Y-93462319D02*
X120648214Y-92462319D01*
X120648214Y-92462319D02*
X121029166Y-92462319D01*
X121029166Y-92462319D02*
X121124404Y-92509938D01*
X121124404Y-92509938D02*
X121172023Y-92557557D01*
X121172023Y-92557557D02*
X121219642Y-92652795D01*
X121219642Y-92652795D02*
X121219642Y-92795652D01*
X121219642Y-92795652D02*
X121172023Y-92890890D01*
X121172023Y-92890890D02*
X121124404Y-92938509D01*
X121124404Y-92938509D02*
X121029166Y-92986128D01*
X121029166Y-92986128D02*
X120648214Y-92986128D01*
X122172023Y-93462319D02*
X121600595Y-93462319D01*
X121886309Y-93462319D02*
X121886309Y-92462319D01*
X121886309Y-92462319D02*
X121791071Y-92605176D01*
X121791071Y-92605176D02*
X121695833Y-92700414D01*
X121695833Y-92700414D02*
X121600595Y-92748033D01*
X122552976Y-92557557D02*
X122600595Y-92509938D01*
X122600595Y-92509938D02*
X122695833Y-92462319D01*
X122695833Y-92462319D02*
X122933928Y-92462319D01*
X122933928Y-92462319D02*
X123029166Y-92509938D01*
X123029166Y-92509938D02*
X123076785Y-92557557D01*
X123076785Y-92557557D02*
X123124404Y-92652795D01*
X123124404Y-92652795D02*
X123124404Y-92748033D01*
X123124404Y-92748033D02*
X123076785Y-92890890D01*
X123076785Y-92890890D02*
X122505357Y-93462319D01*
X122505357Y-93462319D02*
X123124404Y-93462319D01*
X143972142Y-81109580D02*
X143924523Y-81157200D01*
X143924523Y-81157200D02*
X143781666Y-81204819D01*
X143781666Y-81204819D02*
X143686428Y-81204819D01*
X143686428Y-81204819D02*
X143543571Y-81157200D01*
X143543571Y-81157200D02*
X143448333Y-81061961D01*
X143448333Y-81061961D02*
X143400714Y-80966723D01*
X143400714Y-80966723D02*
X143353095Y-80776247D01*
X143353095Y-80776247D02*
X143353095Y-80633390D01*
X143353095Y-80633390D02*
X143400714Y-80442914D01*
X143400714Y-80442914D02*
X143448333Y-80347676D01*
X143448333Y-80347676D02*
X143543571Y-80252438D01*
X143543571Y-80252438D02*
X143686428Y-80204819D01*
X143686428Y-80204819D02*
X143781666Y-80204819D01*
X143781666Y-80204819D02*
X143924523Y-80252438D01*
X143924523Y-80252438D02*
X143972142Y-80300057D01*
X144353095Y-80300057D02*
X144400714Y-80252438D01*
X144400714Y-80252438D02*
X144495952Y-80204819D01*
X144495952Y-80204819D02*
X144734047Y-80204819D01*
X144734047Y-80204819D02*
X144829285Y-80252438D01*
X144829285Y-80252438D02*
X144876904Y-80300057D01*
X144876904Y-80300057D02*
X144924523Y-80395295D01*
X144924523Y-80395295D02*
X144924523Y-80490533D01*
X144924523Y-80490533D02*
X144876904Y-80633390D01*
X144876904Y-80633390D02*
X144305476Y-81204819D01*
X144305476Y-81204819D02*
X144924523Y-81204819D01*
X145829285Y-80204819D02*
X145353095Y-80204819D01*
X145353095Y-80204819D02*
X145305476Y-80681009D01*
X145305476Y-80681009D02*
X145353095Y-80633390D01*
X145353095Y-80633390D02*
X145448333Y-80585771D01*
X145448333Y-80585771D02*
X145686428Y-80585771D01*
X145686428Y-80585771D02*
X145781666Y-80633390D01*
X145781666Y-80633390D02*
X145829285Y-80681009D01*
X145829285Y-80681009D02*
X145876904Y-80776247D01*
X145876904Y-80776247D02*
X145876904Y-81014342D01*
X145876904Y-81014342D02*
X145829285Y-81109580D01*
X145829285Y-81109580D02*
X145781666Y-81157200D01*
X145781666Y-81157200D02*
X145686428Y-81204819D01*
X145686428Y-81204819D02*
X145448333Y-81204819D01*
X145448333Y-81204819D02*
X145353095Y-81157200D01*
X145353095Y-81157200D02*
X145305476Y-81109580D01*
X154145819Y-75901457D02*
X153669628Y-76234790D01*
X154145819Y-76472885D02*
X153145819Y-76472885D01*
X153145819Y-76472885D02*
X153145819Y-76091933D01*
X153145819Y-76091933D02*
X153193438Y-75996695D01*
X153193438Y-75996695D02*
X153241057Y-75949076D01*
X153241057Y-75949076D02*
X153336295Y-75901457D01*
X153336295Y-75901457D02*
X153479152Y-75901457D01*
X153479152Y-75901457D02*
X153574390Y-75949076D01*
X153574390Y-75949076D02*
X153622009Y-75996695D01*
X153622009Y-75996695D02*
X153669628Y-76091933D01*
X153669628Y-76091933D02*
X153669628Y-76472885D01*
X153145819Y-75568123D02*
X153145819Y-74949076D01*
X153145819Y-74949076D02*
X153526771Y-75282409D01*
X153526771Y-75282409D02*
X153526771Y-75139552D01*
X153526771Y-75139552D02*
X153574390Y-75044314D01*
X153574390Y-75044314D02*
X153622009Y-74996695D01*
X153622009Y-74996695D02*
X153717247Y-74949076D01*
X153717247Y-74949076D02*
X153955342Y-74949076D01*
X153955342Y-74949076D02*
X154050580Y-74996695D01*
X154050580Y-74996695D02*
X154098200Y-75044314D01*
X154098200Y-75044314D02*
X154145819Y-75139552D01*
X154145819Y-75139552D02*
X154145819Y-75425266D01*
X154145819Y-75425266D02*
X154098200Y-75520504D01*
X154098200Y-75520504D02*
X154050580Y-75568123D01*
X153145819Y-74044314D02*
X153145819Y-74520504D01*
X153145819Y-74520504D02*
X153622009Y-74568123D01*
X153622009Y-74568123D02*
X153574390Y-74520504D01*
X153574390Y-74520504D02*
X153526771Y-74425266D01*
X153526771Y-74425266D02*
X153526771Y-74187171D01*
X153526771Y-74187171D02*
X153574390Y-74091933D01*
X153574390Y-74091933D02*
X153622009Y-74044314D01*
X153622009Y-74044314D02*
X153717247Y-73996695D01*
X153717247Y-73996695D02*
X153955342Y-73996695D01*
X153955342Y-73996695D02*
X154050580Y-74044314D01*
X154050580Y-74044314D02*
X154098200Y-74091933D01*
X154098200Y-74091933D02*
X154145819Y-74187171D01*
X154145819Y-74187171D02*
X154145819Y-74425266D01*
X154145819Y-74425266D02*
X154098200Y-74520504D01*
X154098200Y-74520504D02*
X154050580Y-74568123D01*
X139632142Y-78679580D02*
X139584523Y-78727200D01*
X139584523Y-78727200D02*
X139441666Y-78774819D01*
X139441666Y-78774819D02*
X139346428Y-78774819D01*
X139346428Y-78774819D02*
X139203571Y-78727200D01*
X139203571Y-78727200D02*
X139108333Y-78631961D01*
X139108333Y-78631961D02*
X139060714Y-78536723D01*
X139060714Y-78536723D02*
X139013095Y-78346247D01*
X139013095Y-78346247D02*
X139013095Y-78203390D01*
X139013095Y-78203390D02*
X139060714Y-78012914D01*
X139060714Y-78012914D02*
X139108333Y-77917676D01*
X139108333Y-77917676D02*
X139203571Y-77822438D01*
X139203571Y-77822438D02*
X139346428Y-77774819D01*
X139346428Y-77774819D02*
X139441666Y-77774819D01*
X139441666Y-77774819D02*
X139584523Y-77822438D01*
X139584523Y-77822438D02*
X139632142Y-77870057D01*
X140013095Y-77870057D02*
X140060714Y-77822438D01*
X140060714Y-77822438D02*
X140155952Y-77774819D01*
X140155952Y-77774819D02*
X140394047Y-77774819D01*
X140394047Y-77774819D02*
X140489285Y-77822438D01*
X140489285Y-77822438D02*
X140536904Y-77870057D01*
X140536904Y-77870057D02*
X140584523Y-77965295D01*
X140584523Y-77965295D02*
X140584523Y-78060533D01*
X140584523Y-78060533D02*
X140536904Y-78203390D01*
X140536904Y-78203390D02*
X139965476Y-78774819D01*
X139965476Y-78774819D02*
X140584523Y-78774819D01*
X141536904Y-78774819D02*
X140965476Y-78774819D01*
X141251190Y-78774819D02*
X141251190Y-77774819D01*
X141251190Y-77774819D02*
X141155952Y-77917676D01*
X141155952Y-77917676D02*
X141060714Y-78012914D01*
X141060714Y-78012914D02*
X140965476Y-78060533D01*
X93738095Y-140506819D02*
X94309523Y-140506819D01*
X94023809Y-141506819D02*
X94023809Y-140506819D01*
X94642857Y-141506819D02*
X94642857Y-140506819D01*
X94642857Y-140506819D02*
X95023809Y-140506819D01*
X95023809Y-140506819D02*
X95119047Y-140554438D01*
X95119047Y-140554438D02*
X95166666Y-140602057D01*
X95166666Y-140602057D02*
X95214285Y-140697295D01*
X95214285Y-140697295D02*
X95214285Y-140840152D01*
X95214285Y-140840152D02*
X95166666Y-140935390D01*
X95166666Y-140935390D02*
X95119047Y-140983009D01*
X95119047Y-140983009D02*
X95023809Y-141030628D01*
X95023809Y-141030628D02*
X94642857Y-141030628D01*
X96166666Y-141506819D02*
X95595238Y-141506819D01*
X95880952Y-141506819D02*
X95880952Y-140506819D01*
X95880952Y-140506819D02*
X95785714Y-140649676D01*
X95785714Y-140649676D02*
X95690476Y-140744914D01*
X95690476Y-140744914D02*
X95595238Y-140792533D01*
X159735819Y-76216456D02*
X159259628Y-76549789D01*
X159735819Y-76787884D02*
X158735819Y-76787884D01*
X158735819Y-76787884D02*
X158735819Y-76406932D01*
X158735819Y-76406932D02*
X158783438Y-76311694D01*
X158783438Y-76311694D02*
X158831057Y-76264075D01*
X158831057Y-76264075D02*
X158926295Y-76216456D01*
X158926295Y-76216456D02*
X159069152Y-76216456D01*
X159069152Y-76216456D02*
X159164390Y-76264075D01*
X159164390Y-76264075D02*
X159212009Y-76311694D01*
X159212009Y-76311694D02*
X159259628Y-76406932D01*
X159259628Y-76406932D02*
X159259628Y-76787884D01*
X158831057Y-75835503D02*
X158783438Y-75787884D01*
X158783438Y-75787884D02*
X158735819Y-75692646D01*
X158735819Y-75692646D02*
X158735819Y-75454551D01*
X158735819Y-75454551D02*
X158783438Y-75359313D01*
X158783438Y-75359313D02*
X158831057Y-75311694D01*
X158831057Y-75311694D02*
X158926295Y-75264075D01*
X158926295Y-75264075D02*
X159021533Y-75264075D01*
X159021533Y-75264075D02*
X159164390Y-75311694D01*
X159164390Y-75311694D02*
X159735819Y-75883122D01*
X159735819Y-75883122D02*
X159735819Y-75264075D01*
X159735819Y-74787884D02*
X159735819Y-74597408D01*
X159735819Y-74597408D02*
X159688200Y-74502170D01*
X159688200Y-74502170D02*
X159640580Y-74454551D01*
X159640580Y-74454551D02*
X159497723Y-74359313D01*
X159497723Y-74359313D02*
X159307247Y-74311694D01*
X159307247Y-74311694D02*
X158926295Y-74311694D01*
X158926295Y-74311694D02*
X158831057Y-74359313D01*
X158831057Y-74359313D02*
X158783438Y-74406932D01*
X158783438Y-74406932D02*
X158735819Y-74502170D01*
X158735819Y-74502170D02*
X158735819Y-74692646D01*
X158735819Y-74692646D02*
X158783438Y-74787884D01*
X158783438Y-74787884D02*
X158831057Y-74835503D01*
X158831057Y-74835503D02*
X158926295Y-74883122D01*
X158926295Y-74883122D02*
X159164390Y-74883122D01*
X159164390Y-74883122D02*
X159259628Y-74835503D01*
X159259628Y-74835503D02*
X159307247Y-74787884D01*
X159307247Y-74787884D02*
X159354866Y-74692646D01*
X159354866Y-74692646D02*
X159354866Y-74502170D01*
X159354866Y-74502170D02*
X159307247Y-74406932D01*
X159307247Y-74406932D02*
X159259628Y-74359313D01*
X159259628Y-74359313D02*
X159164390Y-74311694D01*
X93738095Y-130406819D02*
X94309523Y-130406819D01*
X94023809Y-131406819D02*
X94023809Y-130406819D01*
X94642857Y-131406819D02*
X94642857Y-130406819D01*
X94642857Y-130406819D02*
X95023809Y-130406819D01*
X95023809Y-130406819D02*
X95119047Y-130454438D01*
X95119047Y-130454438D02*
X95166666Y-130502057D01*
X95166666Y-130502057D02*
X95214285Y-130597295D01*
X95214285Y-130597295D02*
X95214285Y-130740152D01*
X95214285Y-130740152D02*
X95166666Y-130835390D01*
X95166666Y-130835390D02*
X95119047Y-130883009D01*
X95119047Y-130883009D02*
X95023809Y-130930628D01*
X95023809Y-130930628D02*
X94642857Y-130930628D01*
X95690476Y-131406819D02*
X95880952Y-131406819D01*
X95880952Y-131406819D02*
X95976190Y-131359200D01*
X95976190Y-131359200D02*
X96023809Y-131311580D01*
X96023809Y-131311580D02*
X96119047Y-131168723D01*
X96119047Y-131168723D02*
X96166666Y-130978247D01*
X96166666Y-130978247D02*
X96166666Y-130597295D01*
X96166666Y-130597295D02*
X96119047Y-130502057D01*
X96119047Y-130502057D02*
X96071428Y-130454438D01*
X96071428Y-130454438D02*
X95976190Y-130406819D01*
X95976190Y-130406819D02*
X95785714Y-130406819D01*
X95785714Y-130406819D02*
X95690476Y-130454438D01*
X95690476Y-130454438D02*
X95642857Y-130502057D01*
X95642857Y-130502057D02*
X95595238Y-130597295D01*
X95595238Y-130597295D02*
X95595238Y-130835390D01*
X95595238Y-130835390D02*
X95642857Y-130930628D01*
X95642857Y-130930628D02*
X95690476Y-130978247D01*
X95690476Y-130978247D02*
X95785714Y-131025866D01*
X95785714Y-131025866D02*
X95976190Y-131025866D01*
X95976190Y-131025866D02*
X96071428Y-130978247D01*
X96071428Y-130978247D02*
X96119047Y-130930628D01*
X96119047Y-130930628D02*
X96166666Y-130835390D01*
X149513139Y-75888179D02*
X149465520Y-75935799D01*
X149465520Y-75935799D02*
X149322663Y-75983418D01*
X149322663Y-75983418D02*
X149227425Y-75983418D01*
X149227425Y-75983418D02*
X149084568Y-75935799D01*
X149084568Y-75935799D02*
X148989330Y-75840560D01*
X148989330Y-75840560D02*
X148941711Y-75745322D01*
X148941711Y-75745322D02*
X148894092Y-75554846D01*
X148894092Y-75554846D02*
X148894092Y-75411989D01*
X148894092Y-75411989D02*
X148941711Y-75221513D01*
X148941711Y-75221513D02*
X148989330Y-75126275D01*
X148989330Y-75126275D02*
X149084568Y-75031037D01*
X149084568Y-75031037D02*
X149227425Y-74983418D01*
X149227425Y-74983418D02*
X149322663Y-74983418D01*
X149322663Y-74983418D02*
X149465520Y-75031037D01*
X149465520Y-75031037D02*
X149513139Y-75078656D01*
X149846473Y-74983418D02*
X150465520Y-74983418D01*
X150465520Y-74983418D02*
X150132187Y-75364370D01*
X150132187Y-75364370D02*
X150275044Y-75364370D01*
X150275044Y-75364370D02*
X150370282Y-75411989D01*
X150370282Y-75411989D02*
X150417901Y-75459608D01*
X150417901Y-75459608D02*
X150465520Y-75554846D01*
X150465520Y-75554846D02*
X150465520Y-75792941D01*
X150465520Y-75792941D02*
X150417901Y-75888179D01*
X150417901Y-75888179D02*
X150370282Y-75935799D01*
X150370282Y-75935799D02*
X150275044Y-75983418D01*
X150275044Y-75983418D02*
X149989330Y-75983418D01*
X149989330Y-75983418D02*
X149894092Y-75935799D01*
X149894092Y-75935799D02*
X149846473Y-75888179D01*
X150846473Y-75078656D02*
X150894092Y-75031037D01*
X150894092Y-75031037D02*
X150989330Y-74983418D01*
X150989330Y-74983418D02*
X151227425Y-74983418D01*
X151227425Y-74983418D02*
X151322663Y-75031037D01*
X151322663Y-75031037D02*
X151370282Y-75078656D01*
X151370282Y-75078656D02*
X151417901Y-75173894D01*
X151417901Y-75173894D02*
X151417901Y-75269132D01*
X151417901Y-75269132D02*
X151370282Y-75411989D01*
X151370282Y-75411989D02*
X150798854Y-75983418D01*
X150798854Y-75983418D02*
X151417901Y-75983418D01*
X87211905Y-138506819D02*
X87783333Y-138506819D01*
X87497619Y-139506819D02*
X87497619Y-138506819D01*
X88116667Y-139506819D02*
X88116667Y-138506819D01*
X88116667Y-138506819D02*
X88497619Y-138506819D01*
X88497619Y-138506819D02*
X88592857Y-138554438D01*
X88592857Y-138554438D02*
X88640476Y-138602057D01*
X88640476Y-138602057D02*
X88688095Y-138697295D01*
X88688095Y-138697295D02*
X88688095Y-138840152D01*
X88688095Y-138840152D02*
X88640476Y-138935390D01*
X88640476Y-138935390D02*
X88592857Y-138983009D01*
X88592857Y-138983009D02*
X88497619Y-139030628D01*
X88497619Y-139030628D02*
X88116667Y-139030628D01*
X89640476Y-139506819D02*
X89069048Y-139506819D01*
X89354762Y-139506819D02*
X89354762Y-138506819D01*
X89354762Y-138506819D02*
X89259524Y-138649676D01*
X89259524Y-138649676D02*
X89164286Y-138744914D01*
X89164286Y-138744914D02*
X89069048Y-138792533D01*
X89973810Y-138506819D02*
X90592857Y-138506819D01*
X90592857Y-138506819D02*
X90259524Y-138887771D01*
X90259524Y-138887771D02*
X90402381Y-138887771D01*
X90402381Y-138887771D02*
X90497619Y-138935390D01*
X90497619Y-138935390D02*
X90545238Y-138983009D01*
X90545238Y-138983009D02*
X90592857Y-139078247D01*
X90592857Y-139078247D02*
X90592857Y-139316342D01*
X90592857Y-139316342D02*
X90545238Y-139411580D01*
X90545238Y-139411580D02*
X90497619Y-139459200D01*
X90497619Y-139459200D02*
X90402381Y-139506819D01*
X90402381Y-139506819D02*
X90116667Y-139506819D01*
X90116667Y-139506819D02*
X90021429Y-139459200D01*
X90021429Y-139459200D02*
X89973810Y-139411580D01*
X93261905Y-134456819D02*
X93833333Y-134456819D01*
X93547619Y-135456819D02*
X93547619Y-134456819D01*
X94166667Y-135456819D02*
X94166667Y-134456819D01*
X94166667Y-134456819D02*
X94547619Y-134456819D01*
X94547619Y-134456819D02*
X94642857Y-134504438D01*
X94642857Y-134504438D02*
X94690476Y-134552057D01*
X94690476Y-134552057D02*
X94738095Y-134647295D01*
X94738095Y-134647295D02*
X94738095Y-134790152D01*
X94738095Y-134790152D02*
X94690476Y-134885390D01*
X94690476Y-134885390D02*
X94642857Y-134933009D01*
X94642857Y-134933009D02*
X94547619Y-134980628D01*
X94547619Y-134980628D02*
X94166667Y-134980628D01*
X95690476Y-135456819D02*
X95119048Y-135456819D01*
X95404762Y-135456819D02*
X95404762Y-134456819D01*
X95404762Y-134456819D02*
X95309524Y-134599676D01*
X95309524Y-134599676D02*
X95214286Y-134694914D01*
X95214286Y-134694914D02*
X95119048Y-134742533D01*
X96309524Y-134456819D02*
X96404762Y-134456819D01*
X96404762Y-134456819D02*
X96500000Y-134504438D01*
X96500000Y-134504438D02*
X96547619Y-134552057D01*
X96547619Y-134552057D02*
X96595238Y-134647295D01*
X96595238Y-134647295D02*
X96642857Y-134837771D01*
X96642857Y-134837771D02*
X96642857Y-135075866D01*
X96642857Y-135075866D02*
X96595238Y-135266342D01*
X96595238Y-135266342D02*
X96547619Y-135361580D01*
X96547619Y-135361580D02*
X96500000Y-135409200D01*
X96500000Y-135409200D02*
X96404762Y-135456819D01*
X96404762Y-135456819D02*
X96309524Y-135456819D01*
X96309524Y-135456819D02*
X96214286Y-135409200D01*
X96214286Y-135409200D02*
X96166667Y-135361580D01*
X96166667Y-135361580D02*
X96119048Y-135266342D01*
X96119048Y-135266342D02*
X96071429Y-135075866D01*
X96071429Y-135075866D02*
X96071429Y-134837771D01*
X96071429Y-134837771D02*
X96119048Y-134647295D01*
X96119048Y-134647295D02*
X96166667Y-134552057D01*
X96166667Y-134552057D02*
X96214286Y-134504438D01*
X96214286Y-134504438D02*
X96309524Y-134456819D01*
X116370833Y-71449819D02*
X116037500Y-70973628D01*
X115799405Y-71449819D02*
X115799405Y-70449819D01*
X115799405Y-70449819D02*
X116180357Y-70449819D01*
X116180357Y-70449819D02*
X116275595Y-70497438D01*
X116275595Y-70497438D02*
X116323214Y-70545057D01*
X116323214Y-70545057D02*
X116370833Y-70640295D01*
X116370833Y-70640295D02*
X116370833Y-70783152D01*
X116370833Y-70783152D02*
X116323214Y-70878390D01*
X116323214Y-70878390D02*
X116275595Y-70926009D01*
X116275595Y-70926009D02*
X116180357Y-70973628D01*
X116180357Y-70973628D02*
X115799405Y-70973628D01*
X117275595Y-70449819D02*
X116799405Y-70449819D01*
X116799405Y-70449819D02*
X116751786Y-70926009D01*
X116751786Y-70926009D02*
X116799405Y-70878390D01*
X116799405Y-70878390D02*
X116894643Y-70830771D01*
X116894643Y-70830771D02*
X117132738Y-70830771D01*
X117132738Y-70830771D02*
X117227976Y-70878390D01*
X117227976Y-70878390D02*
X117275595Y-70926009D01*
X117275595Y-70926009D02*
X117323214Y-71021247D01*
X117323214Y-71021247D02*
X117323214Y-71259342D01*
X117323214Y-71259342D02*
X117275595Y-71354580D01*
X117275595Y-71354580D02*
X117227976Y-71402200D01*
X117227976Y-71402200D02*
X117132738Y-71449819D01*
X117132738Y-71449819D02*
X116894643Y-71449819D01*
X116894643Y-71449819D02*
X116799405Y-71402200D01*
X116799405Y-71402200D02*
X116751786Y-71354580D01*
X149257142Y-84703320D02*
X148923809Y-84227129D01*
X148685714Y-84703320D02*
X148685714Y-83703320D01*
X148685714Y-83703320D02*
X149066666Y-83703320D01*
X149066666Y-83703320D02*
X149161904Y-83750939D01*
X149161904Y-83750939D02*
X149209523Y-83798558D01*
X149209523Y-83798558D02*
X149257142Y-83893796D01*
X149257142Y-83893796D02*
X149257142Y-84036653D01*
X149257142Y-84036653D02*
X149209523Y-84131891D01*
X149209523Y-84131891D02*
X149161904Y-84179510D01*
X149161904Y-84179510D02*
X149066666Y-84227129D01*
X149066666Y-84227129D02*
X148685714Y-84227129D01*
X150114285Y-84036653D02*
X150114285Y-84703320D01*
X149876190Y-83655701D02*
X149638095Y-84369986D01*
X149638095Y-84369986D02*
X150257142Y-84369986D01*
X151066666Y-84036653D02*
X151066666Y-84703320D01*
X150828571Y-83655701D02*
X150590476Y-84369986D01*
X150590476Y-84369986D02*
X151209523Y-84369986D01*
X121695833Y-84212319D02*
X121362500Y-83736128D01*
X121124405Y-84212319D02*
X121124405Y-83212319D01*
X121124405Y-83212319D02*
X121505357Y-83212319D01*
X121505357Y-83212319D02*
X121600595Y-83259938D01*
X121600595Y-83259938D02*
X121648214Y-83307557D01*
X121648214Y-83307557D02*
X121695833Y-83402795D01*
X121695833Y-83402795D02*
X121695833Y-83545652D01*
X121695833Y-83545652D02*
X121648214Y-83640890D01*
X121648214Y-83640890D02*
X121600595Y-83688509D01*
X121600595Y-83688509D02*
X121505357Y-83736128D01*
X121505357Y-83736128D02*
X121124405Y-83736128D01*
X122267262Y-83640890D02*
X122172024Y-83593271D01*
X122172024Y-83593271D02*
X122124405Y-83545652D01*
X122124405Y-83545652D02*
X122076786Y-83450414D01*
X122076786Y-83450414D02*
X122076786Y-83402795D01*
X122076786Y-83402795D02*
X122124405Y-83307557D01*
X122124405Y-83307557D02*
X122172024Y-83259938D01*
X122172024Y-83259938D02*
X122267262Y-83212319D01*
X122267262Y-83212319D02*
X122457738Y-83212319D01*
X122457738Y-83212319D02*
X122552976Y-83259938D01*
X122552976Y-83259938D02*
X122600595Y-83307557D01*
X122600595Y-83307557D02*
X122648214Y-83402795D01*
X122648214Y-83402795D02*
X122648214Y-83450414D01*
X122648214Y-83450414D02*
X122600595Y-83545652D01*
X122600595Y-83545652D02*
X122552976Y-83593271D01*
X122552976Y-83593271D02*
X122457738Y-83640890D01*
X122457738Y-83640890D02*
X122267262Y-83640890D01*
X122267262Y-83640890D02*
X122172024Y-83688509D01*
X122172024Y-83688509D02*
X122124405Y-83736128D01*
X122124405Y-83736128D02*
X122076786Y-83831366D01*
X122076786Y-83831366D02*
X122076786Y-84021842D01*
X122076786Y-84021842D02*
X122124405Y-84117080D01*
X122124405Y-84117080D02*
X122172024Y-84164700D01*
X122172024Y-84164700D02*
X122267262Y-84212319D01*
X122267262Y-84212319D02*
X122457738Y-84212319D01*
X122457738Y-84212319D02*
X122552976Y-84164700D01*
X122552976Y-84164700D02*
X122600595Y-84117080D01*
X122600595Y-84117080D02*
X122648214Y-84021842D01*
X122648214Y-84021842D02*
X122648214Y-83831366D01*
X122648214Y-83831366D02*
X122600595Y-83736128D01*
X122600595Y-83736128D02*
X122552976Y-83688509D01*
X122552976Y-83688509D02*
X122457738Y-83640890D01*
X158215816Y-75901457D02*
X157739625Y-76234790D01*
X158215816Y-76472885D02*
X157215816Y-76472885D01*
X157215816Y-76472885D02*
X157215816Y-76091933D01*
X157215816Y-76091933D02*
X157263435Y-75996695D01*
X157263435Y-75996695D02*
X157311054Y-75949076D01*
X157311054Y-75949076D02*
X157406292Y-75901457D01*
X157406292Y-75901457D02*
X157549149Y-75901457D01*
X157549149Y-75901457D02*
X157644387Y-75949076D01*
X157644387Y-75949076D02*
X157692006Y-75996695D01*
X157692006Y-75996695D02*
X157739625Y-76091933D01*
X157739625Y-76091933D02*
X157739625Y-76472885D01*
X157215816Y-75568123D02*
X157215816Y-74949076D01*
X157215816Y-74949076D02*
X157596768Y-75282409D01*
X157596768Y-75282409D02*
X157596768Y-75139552D01*
X157596768Y-75139552D02*
X157644387Y-75044314D01*
X157644387Y-75044314D02*
X157692006Y-74996695D01*
X157692006Y-74996695D02*
X157787244Y-74949076D01*
X157787244Y-74949076D02*
X158025339Y-74949076D01*
X158025339Y-74949076D02*
X158120577Y-74996695D01*
X158120577Y-74996695D02*
X158168197Y-75044314D01*
X158168197Y-75044314D02*
X158215816Y-75139552D01*
X158215816Y-75139552D02*
X158215816Y-75425266D01*
X158215816Y-75425266D02*
X158168197Y-75520504D01*
X158168197Y-75520504D02*
X158120577Y-75568123D01*
X157215816Y-74091933D02*
X157215816Y-74282409D01*
X157215816Y-74282409D02*
X157263435Y-74377647D01*
X157263435Y-74377647D02*
X157311054Y-74425266D01*
X157311054Y-74425266D02*
X157453911Y-74520504D01*
X157453911Y-74520504D02*
X157644387Y-74568123D01*
X157644387Y-74568123D02*
X158025339Y-74568123D01*
X158025339Y-74568123D02*
X158120577Y-74520504D01*
X158120577Y-74520504D02*
X158168197Y-74472885D01*
X158168197Y-74472885D02*
X158215816Y-74377647D01*
X158215816Y-74377647D02*
X158215816Y-74187171D01*
X158215816Y-74187171D02*
X158168197Y-74091933D01*
X158168197Y-74091933D02*
X158120577Y-74044314D01*
X158120577Y-74044314D02*
X158025339Y-73996695D01*
X158025339Y-73996695D02*
X157787244Y-73996695D01*
X157787244Y-73996695D02*
X157692006Y-74044314D01*
X157692006Y-74044314D02*
X157644387Y-74091933D01*
X157644387Y-74091933D02*
X157596768Y-74187171D01*
X157596768Y-74187171D02*
X157596768Y-74377647D01*
X157596768Y-74377647D02*
X157644387Y-74472885D01*
X157644387Y-74472885D02*
X157692006Y-74520504D01*
X157692006Y-74520504D02*
X157787244Y-74568123D01*
X152815816Y-76216457D02*
X152339625Y-76549790D01*
X152815816Y-76787885D02*
X151815816Y-76787885D01*
X151815816Y-76787885D02*
X151815816Y-76406933D01*
X151815816Y-76406933D02*
X151863435Y-76311695D01*
X151863435Y-76311695D02*
X151911054Y-76264076D01*
X151911054Y-76264076D02*
X152006292Y-76216457D01*
X152006292Y-76216457D02*
X152149149Y-76216457D01*
X152149149Y-76216457D02*
X152244387Y-76264076D01*
X152244387Y-76264076D02*
X152292006Y-76311695D01*
X152292006Y-76311695D02*
X152339625Y-76406933D01*
X152339625Y-76406933D02*
X152339625Y-76787885D01*
X151911054Y-75835504D02*
X151863435Y-75787885D01*
X151863435Y-75787885D02*
X151815816Y-75692647D01*
X151815816Y-75692647D02*
X151815816Y-75454552D01*
X151815816Y-75454552D02*
X151863435Y-75359314D01*
X151863435Y-75359314D02*
X151911054Y-75311695D01*
X151911054Y-75311695D02*
X152006292Y-75264076D01*
X152006292Y-75264076D02*
X152101530Y-75264076D01*
X152101530Y-75264076D02*
X152244387Y-75311695D01*
X152244387Y-75311695D02*
X152815816Y-75883123D01*
X152815816Y-75883123D02*
X152815816Y-75264076D01*
X151815816Y-74930742D02*
X151815816Y-74264076D01*
X151815816Y-74264076D02*
X152815816Y-74692647D01*
X97788095Y-144556819D02*
X98359523Y-144556819D01*
X98073809Y-145556819D02*
X98073809Y-144556819D01*
X98692857Y-145556819D02*
X98692857Y-144556819D01*
X98692857Y-144556819D02*
X99073809Y-144556819D01*
X99073809Y-144556819D02*
X99169047Y-144604438D01*
X99169047Y-144604438D02*
X99216666Y-144652057D01*
X99216666Y-144652057D02*
X99264285Y-144747295D01*
X99264285Y-144747295D02*
X99264285Y-144890152D01*
X99264285Y-144890152D02*
X99216666Y-144985390D01*
X99216666Y-144985390D02*
X99169047Y-145033009D01*
X99169047Y-145033009D02*
X99073809Y-145080628D01*
X99073809Y-145080628D02*
X98692857Y-145080628D01*
X100121428Y-144890152D02*
X100121428Y-145556819D01*
X99883333Y-144509200D02*
X99645238Y-145223485D01*
X99645238Y-145223485D02*
X100264285Y-145223485D01*
X131408333Y-98929580D02*
X131360714Y-98977200D01*
X131360714Y-98977200D02*
X131217857Y-99024819D01*
X131217857Y-99024819D02*
X131122619Y-99024819D01*
X131122619Y-99024819D02*
X130979762Y-98977200D01*
X130979762Y-98977200D02*
X130884524Y-98881961D01*
X130884524Y-98881961D02*
X130836905Y-98786723D01*
X130836905Y-98786723D02*
X130789286Y-98596247D01*
X130789286Y-98596247D02*
X130789286Y-98453390D01*
X130789286Y-98453390D02*
X130836905Y-98262914D01*
X130836905Y-98262914D02*
X130884524Y-98167676D01*
X130884524Y-98167676D02*
X130979762Y-98072438D01*
X130979762Y-98072438D02*
X131122619Y-98024819D01*
X131122619Y-98024819D02*
X131217857Y-98024819D01*
X131217857Y-98024819D02*
X131360714Y-98072438D01*
X131360714Y-98072438D02*
X131408333Y-98120057D01*
X131789286Y-98120057D02*
X131836905Y-98072438D01*
X131836905Y-98072438D02*
X131932143Y-98024819D01*
X131932143Y-98024819D02*
X132170238Y-98024819D01*
X132170238Y-98024819D02*
X132265476Y-98072438D01*
X132265476Y-98072438D02*
X132313095Y-98120057D01*
X132313095Y-98120057D02*
X132360714Y-98215295D01*
X132360714Y-98215295D02*
X132360714Y-98310533D01*
X132360714Y-98310533D02*
X132313095Y-98453390D01*
X132313095Y-98453390D02*
X131741667Y-99024819D01*
X131741667Y-99024819D02*
X132360714Y-99024819D01*
X140232142Y-98929580D02*
X140184523Y-98977200D01*
X140184523Y-98977200D02*
X140041666Y-99024819D01*
X140041666Y-99024819D02*
X139946428Y-99024819D01*
X139946428Y-99024819D02*
X139803571Y-98977200D01*
X139803571Y-98977200D02*
X139708333Y-98881961D01*
X139708333Y-98881961D02*
X139660714Y-98786723D01*
X139660714Y-98786723D02*
X139613095Y-98596247D01*
X139613095Y-98596247D02*
X139613095Y-98453390D01*
X139613095Y-98453390D02*
X139660714Y-98262914D01*
X139660714Y-98262914D02*
X139708333Y-98167676D01*
X139708333Y-98167676D02*
X139803571Y-98072438D01*
X139803571Y-98072438D02*
X139946428Y-98024819D01*
X139946428Y-98024819D02*
X140041666Y-98024819D01*
X140041666Y-98024819D02*
X140184523Y-98072438D01*
X140184523Y-98072438D02*
X140232142Y-98120057D01*
X141184523Y-99024819D02*
X140613095Y-99024819D01*
X140898809Y-99024819D02*
X140898809Y-98024819D01*
X140898809Y-98024819D02*
X140803571Y-98167676D01*
X140803571Y-98167676D02*
X140708333Y-98262914D01*
X140708333Y-98262914D02*
X140613095Y-98310533D01*
X141803571Y-98024819D02*
X141898809Y-98024819D01*
X141898809Y-98024819D02*
X141994047Y-98072438D01*
X141994047Y-98072438D02*
X142041666Y-98120057D01*
X142041666Y-98120057D02*
X142089285Y-98215295D01*
X142089285Y-98215295D02*
X142136904Y-98405771D01*
X142136904Y-98405771D02*
X142136904Y-98643866D01*
X142136904Y-98643866D02*
X142089285Y-98834342D01*
X142089285Y-98834342D02*
X142041666Y-98929580D01*
X142041666Y-98929580D02*
X141994047Y-98977200D01*
X141994047Y-98977200D02*
X141898809Y-99024819D01*
X141898809Y-99024819D02*
X141803571Y-99024819D01*
X141803571Y-99024819D02*
X141708333Y-98977200D01*
X141708333Y-98977200D02*
X141660714Y-98929580D01*
X141660714Y-98929580D02*
X141613095Y-98834342D01*
X141613095Y-98834342D02*
X141565476Y-98643866D01*
X141565476Y-98643866D02*
X141565476Y-98405771D01*
X141565476Y-98405771D02*
X141613095Y-98215295D01*
X141613095Y-98215295D02*
X141660714Y-98120057D01*
X141660714Y-98120057D02*
X141708333Y-98072438D01*
X141708333Y-98072438D02*
X141803571Y-98024819D01*
X132958333Y-100429580D02*
X132910714Y-100477200D01*
X132910714Y-100477200D02*
X132767857Y-100524819D01*
X132767857Y-100524819D02*
X132672619Y-100524819D01*
X132672619Y-100524819D02*
X132529762Y-100477200D01*
X132529762Y-100477200D02*
X132434524Y-100381961D01*
X132434524Y-100381961D02*
X132386905Y-100286723D01*
X132386905Y-100286723D02*
X132339286Y-100096247D01*
X132339286Y-100096247D02*
X132339286Y-99953390D01*
X132339286Y-99953390D02*
X132386905Y-99762914D01*
X132386905Y-99762914D02*
X132434524Y-99667676D01*
X132434524Y-99667676D02*
X132529762Y-99572438D01*
X132529762Y-99572438D02*
X132672619Y-99524819D01*
X132672619Y-99524819D02*
X132767857Y-99524819D01*
X132767857Y-99524819D02*
X132910714Y-99572438D01*
X132910714Y-99572438D02*
X132958333Y-99620057D01*
X133863095Y-99524819D02*
X133386905Y-99524819D01*
X133386905Y-99524819D02*
X133339286Y-100001009D01*
X133339286Y-100001009D02*
X133386905Y-99953390D01*
X133386905Y-99953390D02*
X133482143Y-99905771D01*
X133482143Y-99905771D02*
X133720238Y-99905771D01*
X133720238Y-99905771D02*
X133815476Y-99953390D01*
X133815476Y-99953390D02*
X133863095Y-100001009D01*
X133863095Y-100001009D02*
X133910714Y-100096247D01*
X133910714Y-100096247D02*
X133910714Y-100334342D01*
X133910714Y-100334342D02*
X133863095Y-100429580D01*
X133863095Y-100429580D02*
X133815476Y-100477200D01*
X133815476Y-100477200D02*
X133720238Y-100524819D01*
X133720238Y-100524819D02*
X133482143Y-100524819D01*
X133482143Y-100524819D02*
X133386905Y-100477200D01*
X133386905Y-100477200D02*
X133339286Y-100429580D01*
X149457142Y-105389580D02*
X149409523Y-105437200D01*
X149409523Y-105437200D02*
X149266666Y-105484819D01*
X149266666Y-105484819D02*
X149171428Y-105484819D01*
X149171428Y-105484819D02*
X149028571Y-105437200D01*
X149028571Y-105437200D02*
X148933333Y-105341961D01*
X148933333Y-105341961D02*
X148885714Y-105246723D01*
X148885714Y-105246723D02*
X148838095Y-105056247D01*
X148838095Y-105056247D02*
X148838095Y-104913390D01*
X148838095Y-104913390D02*
X148885714Y-104722914D01*
X148885714Y-104722914D02*
X148933333Y-104627676D01*
X148933333Y-104627676D02*
X149028571Y-104532438D01*
X149028571Y-104532438D02*
X149171428Y-104484819D01*
X149171428Y-104484819D02*
X149266666Y-104484819D01*
X149266666Y-104484819D02*
X149409523Y-104532438D01*
X149409523Y-104532438D02*
X149457142Y-104580057D01*
X149838095Y-104580057D02*
X149885714Y-104532438D01*
X149885714Y-104532438D02*
X149980952Y-104484819D01*
X149980952Y-104484819D02*
X150219047Y-104484819D01*
X150219047Y-104484819D02*
X150314285Y-104532438D01*
X150314285Y-104532438D02*
X150361904Y-104580057D01*
X150361904Y-104580057D02*
X150409523Y-104675295D01*
X150409523Y-104675295D02*
X150409523Y-104770533D01*
X150409523Y-104770533D02*
X150361904Y-104913390D01*
X150361904Y-104913390D02*
X149790476Y-105484819D01*
X149790476Y-105484819D02*
X150409523Y-105484819D01*
X150790476Y-104580057D02*
X150838095Y-104532438D01*
X150838095Y-104532438D02*
X150933333Y-104484819D01*
X150933333Y-104484819D02*
X151171428Y-104484819D01*
X151171428Y-104484819D02*
X151266666Y-104532438D01*
X151266666Y-104532438D02*
X151314285Y-104580057D01*
X151314285Y-104580057D02*
X151361904Y-104675295D01*
X151361904Y-104675295D02*
X151361904Y-104770533D01*
X151361904Y-104770533D02*
X151314285Y-104913390D01*
X151314285Y-104913390D02*
X150742857Y-105484819D01*
X150742857Y-105484819D02*
X151361904Y-105484819D01*
X107897042Y-54424819D02*
X107563709Y-53948628D01*
X107325614Y-54424819D02*
X107325614Y-53424819D01*
X107325614Y-53424819D02*
X107706566Y-53424819D01*
X107706566Y-53424819D02*
X107801804Y-53472438D01*
X107801804Y-53472438D02*
X107849423Y-53520057D01*
X107849423Y-53520057D02*
X107897042Y-53615295D01*
X107897042Y-53615295D02*
X107897042Y-53758152D01*
X107897042Y-53758152D02*
X107849423Y-53853390D01*
X107849423Y-53853390D02*
X107801804Y-53901009D01*
X107801804Y-53901009D02*
X107706566Y-53948628D01*
X107706566Y-53948628D02*
X107325614Y-53948628D01*
X108277995Y-53520057D02*
X108325614Y-53472438D01*
X108325614Y-53472438D02*
X108420852Y-53424819D01*
X108420852Y-53424819D02*
X108658947Y-53424819D01*
X108658947Y-53424819D02*
X108754185Y-53472438D01*
X108754185Y-53472438D02*
X108801804Y-53520057D01*
X108801804Y-53520057D02*
X108849423Y-53615295D01*
X108849423Y-53615295D02*
X108849423Y-53710533D01*
X108849423Y-53710533D02*
X108801804Y-53853390D01*
X108801804Y-53853390D02*
X108230376Y-54424819D01*
X108230376Y-54424819D02*
X108849423Y-54424819D01*
X109468471Y-53424819D02*
X109563709Y-53424819D01*
X109563709Y-53424819D02*
X109658947Y-53472438D01*
X109658947Y-53472438D02*
X109706566Y-53520057D01*
X109706566Y-53520057D02*
X109754185Y-53615295D01*
X109754185Y-53615295D02*
X109801804Y-53805771D01*
X109801804Y-53805771D02*
X109801804Y-54043866D01*
X109801804Y-54043866D02*
X109754185Y-54234342D01*
X109754185Y-54234342D02*
X109706566Y-54329580D01*
X109706566Y-54329580D02*
X109658947Y-54377200D01*
X109658947Y-54377200D02*
X109563709Y-54424819D01*
X109563709Y-54424819D02*
X109468471Y-54424819D01*
X109468471Y-54424819D02*
X109373233Y-54377200D01*
X109373233Y-54377200D02*
X109325614Y-54329580D01*
X109325614Y-54329580D02*
X109277995Y-54234342D01*
X109277995Y-54234342D02*
X109230376Y-54043866D01*
X109230376Y-54043866D02*
X109230376Y-53805771D01*
X109230376Y-53805771D02*
X109277995Y-53615295D01*
X109277995Y-53615295D02*
X109325614Y-53520057D01*
X109325614Y-53520057D02*
X109373233Y-53472438D01*
X109373233Y-53472438D02*
X109468471Y-53424819D01*
X170488095Y-65054819D02*
X170488095Y-64054819D01*
X170488095Y-64531009D02*
X171059523Y-64531009D01*
X171059523Y-65054819D02*
X171059523Y-64054819D01*
X171440476Y-64054819D02*
X172059523Y-64054819D01*
X172059523Y-64054819D02*
X171726190Y-64435771D01*
X171726190Y-64435771D02*
X171869047Y-64435771D01*
X171869047Y-64435771D02*
X171964285Y-64483390D01*
X171964285Y-64483390D02*
X172011904Y-64531009D01*
X172011904Y-64531009D02*
X172059523Y-64626247D01*
X172059523Y-64626247D02*
X172059523Y-64864342D01*
X172059523Y-64864342D02*
X172011904Y-64959580D01*
X172011904Y-64959580D02*
X171964285Y-65007200D01*
X171964285Y-65007200D02*
X171869047Y-65054819D01*
X171869047Y-65054819D02*
X171583333Y-65054819D01*
X171583333Y-65054819D02*
X171488095Y-65007200D01*
X171488095Y-65007200D02*
X171440476Y-64959580D01*
X171083333Y-91045180D02*
X171083333Y-90330895D01*
X171083333Y-90330895D02*
X171130952Y-90188038D01*
X171130952Y-90188038D02*
X171226190Y-90092800D01*
X171226190Y-90092800D02*
X171369047Y-90045180D01*
X171369047Y-90045180D02*
X171464285Y-90045180D01*
X170654761Y-90949942D02*
X170607142Y-90997561D01*
X170607142Y-90997561D02*
X170511904Y-91045180D01*
X170511904Y-91045180D02*
X170273809Y-91045180D01*
X170273809Y-91045180D02*
X170178571Y-90997561D01*
X170178571Y-90997561D02*
X170130952Y-90949942D01*
X170130952Y-90949942D02*
X170083333Y-90854704D01*
X170083333Y-90854704D02*
X170083333Y-90759466D01*
X170083333Y-90759466D02*
X170130952Y-90616609D01*
X170130952Y-90616609D02*
X170702380Y-90045180D01*
X170702380Y-90045180D02*
X170083333Y-90045180D01*
X116370833Y-76074819D02*
X116037500Y-75598628D01*
X115799405Y-76074819D02*
X115799405Y-75074819D01*
X115799405Y-75074819D02*
X116180357Y-75074819D01*
X116180357Y-75074819D02*
X116275595Y-75122438D01*
X116275595Y-75122438D02*
X116323214Y-75170057D01*
X116323214Y-75170057D02*
X116370833Y-75265295D01*
X116370833Y-75265295D02*
X116370833Y-75408152D01*
X116370833Y-75408152D02*
X116323214Y-75503390D01*
X116323214Y-75503390D02*
X116275595Y-75551009D01*
X116275595Y-75551009D02*
X116180357Y-75598628D01*
X116180357Y-75598628D02*
X115799405Y-75598628D01*
X116704167Y-75074819D02*
X117370833Y-75074819D01*
X117370833Y-75074819D02*
X116942262Y-76074819D01*
X147653030Y-94762857D02*
X147700650Y-94810476D01*
X147700650Y-94810476D02*
X147748269Y-94953333D01*
X147748269Y-94953333D02*
X147748269Y-95048571D01*
X147748269Y-95048571D02*
X147700650Y-95191428D01*
X147700650Y-95191428D02*
X147605411Y-95286666D01*
X147605411Y-95286666D02*
X147510173Y-95334285D01*
X147510173Y-95334285D02*
X147319697Y-95381904D01*
X147319697Y-95381904D02*
X147176840Y-95381904D01*
X147176840Y-95381904D02*
X146986364Y-95334285D01*
X146986364Y-95334285D02*
X146891126Y-95286666D01*
X146891126Y-95286666D02*
X146795888Y-95191428D01*
X146795888Y-95191428D02*
X146748269Y-95048571D01*
X146748269Y-95048571D02*
X146748269Y-94953333D01*
X146748269Y-94953333D02*
X146795888Y-94810476D01*
X146795888Y-94810476D02*
X146843507Y-94762857D01*
X146748269Y-94429523D02*
X146748269Y-93810476D01*
X146748269Y-93810476D02*
X147129221Y-94143809D01*
X147129221Y-94143809D02*
X147129221Y-94000952D01*
X147129221Y-94000952D02*
X147176840Y-93905714D01*
X147176840Y-93905714D02*
X147224459Y-93858095D01*
X147224459Y-93858095D02*
X147319697Y-93810476D01*
X147319697Y-93810476D02*
X147557792Y-93810476D01*
X147557792Y-93810476D02*
X147653030Y-93858095D01*
X147653030Y-93858095D02*
X147700650Y-93905714D01*
X147700650Y-93905714D02*
X147748269Y-94000952D01*
X147748269Y-94000952D02*
X147748269Y-94286666D01*
X147748269Y-94286666D02*
X147700650Y-94381904D01*
X147700650Y-94381904D02*
X147653030Y-94429523D01*
X146748269Y-93477142D02*
X146748269Y-92810476D01*
X146748269Y-92810476D02*
X147748269Y-93239047D01*
X149210592Y-93884819D02*
X148877259Y-93408628D01*
X148639164Y-93884819D02*
X148639164Y-92884819D01*
X148639164Y-92884819D02*
X149020116Y-92884819D01*
X149020116Y-92884819D02*
X149115354Y-92932438D01*
X149115354Y-92932438D02*
X149162973Y-92980057D01*
X149162973Y-92980057D02*
X149210592Y-93075295D01*
X149210592Y-93075295D02*
X149210592Y-93218152D01*
X149210592Y-93218152D02*
X149162973Y-93313390D01*
X149162973Y-93313390D02*
X149115354Y-93361009D01*
X149115354Y-93361009D02*
X149020116Y-93408628D01*
X149020116Y-93408628D02*
X148639164Y-93408628D01*
X150067735Y-93218152D02*
X150067735Y-93884819D01*
X149829640Y-92837200D02*
X149591545Y-93551485D01*
X149591545Y-93551485D02*
X150210592Y-93551485D01*
X151115354Y-93884819D02*
X150543926Y-93884819D01*
X150829640Y-93884819D02*
X150829640Y-92884819D01*
X150829640Y-92884819D02*
X150734402Y-93027676D01*
X150734402Y-93027676D02*
X150639164Y-93122914D01*
X150639164Y-93122914D02*
X150543926Y-93170533D01*
X93738095Y-144556819D02*
X94309523Y-144556819D01*
X94023809Y-145556819D02*
X94023809Y-144556819D01*
X94642857Y-145556819D02*
X94642857Y-144556819D01*
X94642857Y-144556819D02*
X95023809Y-144556819D01*
X95023809Y-144556819D02*
X95119047Y-144604438D01*
X95119047Y-144604438D02*
X95166666Y-144652057D01*
X95166666Y-144652057D02*
X95214285Y-144747295D01*
X95214285Y-144747295D02*
X95214285Y-144890152D01*
X95214285Y-144890152D02*
X95166666Y-144985390D01*
X95166666Y-144985390D02*
X95119047Y-145033009D01*
X95119047Y-145033009D02*
X95023809Y-145080628D01*
X95023809Y-145080628D02*
X94642857Y-145080628D01*
X95595238Y-144652057D02*
X95642857Y-144604438D01*
X95642857Y-144604438D02*
X95738095Y-144556819D01*
X95738095Y-144556819D02*
X95976190Y-144556819D01*
X95976190Y-144556819D02*
X96071428Y-144604438D01*
X96071428Y-144604438D02*
X96119047Y-144652057D01*
X96119047Y-144652057D02*
X96166666Y-144747295D01*
X96166666Y-144747295D02*
X96166666Y-144842533D01*
X96166666Y-144842533D02*
X96119047Y-144985390D01*
X96119047Y-144985390D02*
X95547619Y-145556819D01*
X95547619Y-145556819D02*
X96166666Y-145556819D01*
X149078269Y-96192858D02*
X148602078Y-96526191D01*
X149078269Y-96764286D02*
X148078269Y-96764286D01*
X148078269Y-96764286D02*
X148078269Y-96383334D01*
X148078269Y-96383334D02*
X148125888Y-96288096D01*
X148125888Y-96288096D02*
X148173507Y-96240477D01*
X148173507Y-96240477D02*
X148268745Y-96192858D01*
X148268745Y-96192858D02*
X148411602Y-96192858D01*
X148411602Y-96192858D02*
X148506840Y-96240477D01*
X148506840Y-96240477D02*
X148554459Y-96288096D01*
X148554459Y-96288096D02*
X148602078Y-96383334D01*
X148602078Y-96383334D02*
X148602078Y-96764286D01*
X148078269Y-95859524D02*
X148078269Y-95240477D01*
X148078269Y-95240477D02*
X148459221Y-95573810D01*
X148459221Y-95573810D02*
X148459221Y-95430953D01*
X148459221Y-95430953D02*
X148506840Y-95335715D01*
X148506840Y-95335715D02*
X148554459Y-95288096D01*
X148554459Y-95288096D02*
X148649697Y-95240477D01*
X148649697Y-95240477D02*
X148887792Y-95240477D01*
X148887792Y-95240477D02*
X148983030Y-95288096D01*
X148983030Y-95288096D02*
X149030650Y-95335715D01*
X149030650Y-95335715D02*
X149078269Y-95430953D01*
X149078269Y-95430953D02*
X149078269Y-95716667D01*
X149078269Y-95716667D02*
X149030650Y-95811905D01*
X149030650Y-95811905D02*
X148983030Y-95859524D01*
X149078269Y-94764286D02*
X149078269Y-94573810D01*
X149078269Y-94573810D02*
X149030650Y-94478572D01*
X149030650Y-94478572D02*
X148983030Y-94430953D01*
X148983030Y-94430953D02*
X148840173Y-94335715D01*
X148840173Y-94335715D02*
X148649697Y-94288096D01*
X148649697Y-94288096D02*
X148268745Y-94288096D01*
X148268745Y-94288096D02*
X148173507Y-94335715D01*
X148173507Y-94335715D02*
X148125888Y-94383334D01*
X148125888Y-94383334D02*
X148078269Y-94478572D01*
X148078269Y-94478572D02*
X148078269Y-94669048D01*
X148078269Y-94669048D02*
X148125888Y-94764286D01*
X148125888Y-94764286D02*
X148173507Y-94811905D01*
X148173507Y-94811905D02*
X148268745Y-94859524D01*
X148268745Y-94859524D02*
X148506840Y-94859524D01*
X148506840Y-94859524D02*
X148602078Y-94811905D01*
X148602078Y-94811905D02*
X148649697Y-94764286D01*
X148649697Y-94764286D02*
X148697316Y-94669048D01*
X148697316Y-94669048D02*
X148697316Y-94478572D01*
X148697316Y-94478572D02*
X148649697Y-94383334D01*
X148649697Y-94383334D02*
X148602078Y-94335715D01*
X148602078Y-94335715D02*
X148506840Y-94288096D01*
X156428139Y-75888180D02*
X156380520Y-75935800D01*
X156380520Y-75935800D02*
X156237663Y-75983419D01*
X156237663Y-75983419D02*
X156142425Y-75983419D01*
X156142425Y-75983419D02*
X155999568Y-75935800D01*
X155999568Y-75935800D02*
X155904330Y-75840561D01*
X155904330Y-75840561D02*
X155856711Y-75745323D01*
X155856711Y-75745323D02*
X155809092Y-75554847D01*
X155809092Y-75554847D02*
X155809092Y-75411990D01*
X155809092Y-75411990D02*
X155856711Y-75221514D01*
X155856711Y-75221514D02*
X155904330Y-75126276D01*
X155904330Y-75126276D02*
X155999568Y-75031038D01*
X155999568Y-75031038D02*
X156142425Y-74983419D01*
X156142425Y-74983419D02*
X156237663Y-74983419D01*
X156237663Y-74983419D02*
X156380520Y-75031038D01*
X156380520Y-75031038D02*
X156428139Y-75078657D01*
X156761473Y-74983419D02*
X157380520Y-74983419D01*
X157380520Y-74983419D02*
X157047187Y-75364371D01*
X157047187Y-75364371D02*
X157190044Y-75364371D01*
X157190044Y-75364371D02*
X157285282Y-75411990D01*
X157285282Y-75411990D02*
X157332901Y-75459609D01*
X157332901Y-75459609D02*
X157380520Y-75554847D01*
X157380520Y-75554847D02*
X157380520Y-75792942D01*
X157380520Y-75792942D02*
X157332901Y-75888180D01*
X157332901Y-75888180D02*
X157285282Y-75935800D01*
X157285282Y-75935800D02*
X157190044Y-75983419D01*
X157190044Y-75983419D02*
X156904330Y-75983419D01*
X156904330Y-75983419D02*
X156809092Y-75935800D01*
X156809092Y-75935800D02*
X156761473Y-75888180D01*
X158237663Y-75316752D02*
X158237663Y-75983419D01*
X157999568Y-74935800D02*
X157761473Y-75650085D01*
X157761473Y-75650085D02*
X158380520Y-75650085D01*
X140500816Y-76216456D02*
X140024625Y-76549789D01*
X140500816Y-76787884D02*
X139500816Y-76787884D01*
X139500816Y-76787884D02*
X139500816Y-76406932D01*
X139500816Y-76406932D02*
X139548435Y-76311694D01*
X139548435Y-76311694D02*
X139596054Y-76264075D01*
X139596054Y-76264075D02*
X139691292Y-76216456D01*
X139691292Y-76216456D02*
X139834149Y-76216456D01*
X139834149Y-76216456D02*
X139929387Y-76264075D01*
X139929387Y-76264075D02*
X139977006Y-76311694D01*
X139977006Y-76311694D02*
X140024625Y-76406932D01*
X140024625Y-76406932D02*
X140024625Y-76787884D01*
X139596054Y-75835503D02*
X139548435Y-75787884D01*
X139548435Y-75787884D02*
X139500816Y-75692646D01*
X139500816Y-75692646D02*
X139500816Y-75454551D01*
X139500816Y-75454551D02*
X139548435Y-75359313D01*
X139548435Y-75359313D02*
X139596054Y-75311694D01*
X139596054Y-75311694D02*
X139691292Y-75264075D01*
X139691292Y-75264075D02*
X139786530Y-75264075D01*
X139786530Y-75264075D02*
X139929387Y-75311694D01*
X139929387Y-75311694D02*
X140500816Y-75883122D01*
X140500816Y-75883122D02*
X140500816Y-75264075D01*
X139834149Y-74406932D02*
X140500816Y-74406932D01*
X139453197Y-74645027D02*
X140167482Y-74883122D01*
X140167482Y-74883122D02*
X140167482Y-74264075D01*
X161055819Y-75901456D02*
X160579628Y-76234789D01*
X161055819Y-76472884D02*
X160055819Y-76472884D01*
X160055819Y-76472884D02*
X160055819Y-76091932D01*
X160055819Y-76091932D02*
X160103438Y-75996694D01*
X160103438Y-75996694D02*
X160151057Y-75949075D01*
X160151057Y-75949075D02*
X160246295Y-75901456D01*
X160246295Y-75901456D02*
X160389152Y-75901456D01*
X160389152Y-75901456D02*
X160484390Y-75949075D01*
X160484390Y-75949075D02*
X160532009Y-75996694D01*
X160532009Y-75996694D02*
X160579628Y-76091932D01*
X160579628Y-76091932D02*
X160579628Y-76472884D01*
X160055819Y-75568122D02*
X160055819Y-74949075D01*
X160055819Y-74949075D02*
X160436771Y-75282408D01*
X160436771Y-75282408D02*
X160436771Y-75139551D01*
X160436771Y-75139551D02*
X160484390Y-75044313D01*
X160484390Y-75044313D02*
X160532009Y-74996694D01*
X160532009Y-74996694D02*
X160627247Y-74949075D01*
X160627247Y-74949075D02*
X160865342Y-74949075D01*
X160865342Y-74949075D02*
X160960580Y-74996694D01*
X160960580Y-74996694D02*
X161008200Y-75044313D01*
X161008200Y-75044313D02*
X161055819Y-75139551D01*
X161055819Y-75139551D02*
X161055819Y-75425265D01*
X161055819Y-75425265D02*
X161008200Y-75520503D01*
X161008200Y-75520503D02*
X160960580Y-75568122D01*
X160055819Y-74615741D02*
X160055819Y-73949075D01*
X160055819Y-73949075D02*
X161055819Y-74377646D01*
X115894642Y-94574819D02*
X115561309Y-94098628D01*
X115323214Y-94574819D02*
X115323214Y-93574819D01*
X115323214Y-93574819D02*
X115704166Y-93574819D01*
X115704166Y-93574819D02*
X115799404Y-93622438D01*
X115799404Y-93622438D02*
X115847023Y-93670057D01*
X115847023Y-93670057D02*
X115894642Y-93765295D01*
X115894642Y-93765295D02*
X115894642Y-93908152D01*
X115894642Y-93908152D02*
X115847023Y-94003390D01*
X115847023Y-94003390D02*
X115799404Y-94051009D01*
X115799404Y-94051009D02*
X115704166Y-94098628D01*
X115704166Y-94098628D02*
X115323214Y-94098628D01*
X116847023Y-94574819D02*
X116275595Y-94574819D01*
X116561309Y-94574819D02*
X116561309Y-93574819D01*
X116561309Y-93574819D02*
X116466071Y-93717676D01*
X116466071Y-93717676D02*
X116370833Y-93812914D01*
X116370833Y-93812914D02*
X116275595Y-93860533D01*
X117751785Y-93574819D02*
X117275595Y-93574819D01*
X117275595Y-93574819D02*
X117227976Y-94051009D01*
X117227976Y-94051009D02*
X117275595Y-94003390D01*
X117275595Y-94003390D02*
X117370833Y-93955771D01*
X117370833Y-93955771D02*
X117608928Y-93955771D01*
X117608928Y-93955771D02*
X117704166Y-94003390D01*
X117704166Y-94003390D02*
X117751785Y-94051009D01*
X117751785Y-94051009D02*
X117799404Y-94146247D01*
X117799404Y-94146247D02*
X117799404Y-94384342D01*
X117799404Y-94384342D02*
X117751785Y-94479580D01*
X117751785Y-94479580D02*
X117704166Y-94527200D01*
X117704166Y-94527200D02*
X117608928Y-94574819D01*
X117608928Y-94574819D02*
X117370833Y-94574819D01*
X117370833Y-94574819D02*
X117275595Y-94527200D01*
X117275595Y-94527200D02*
X117227976Y-94479580D01*
X147425816Y-76216456D02*
X146949625Y-76549789D01*
X147425816Y-76787884D02*
X146425816Y-76787884D01*
X146425816Y-76787884D02*
X146425816Y-76406932D01*
X146425816Y-76406932D02*
X146473435Y-76311694D01*
X146473435Y-76311694D02*
X146521054Y-76264075D01*
X146521054Y-76264075D02*
X146616292Y-76216456D01*
X146616292Y-76216456D02*
X146759149Y-76216456D01*
X146759149Y-76216456D02*
X146854387Y-76264075D01*
X146854387Y-76264075D02*
X146902006Y-76311694D01*
X146902006Y-76311694D02*
X146949625Y-76406932D01*
X146949625Y-76406932D02*
X146949625Y-76787884D01*
X146521054Y-75835503D02*
X146473435Y-75787884D01*
X146473435Y-75787884D02*
X146425816Y-75692646D01*
X146425816Y-75692646D02*
X146425816Y-75454551D01*
X146425816Y-75454551D02*
X146473435Y-75359313D01*
X146473435Y-75359313D02*
X146521054Y-75311694D01*
X146521054Y-75311694D02*
X146616292Y-75264075D01*
X146616292Y-75264075D02*
X146711530Y-75264075D01*
X146711530Y-75264075D02*
X146854387Y-75311694D01*
X146854387Y-75311694D02*
X147425816Y-75883122D01*
X147425816Y-75883122D02*
X147425816Y-75264075D01*
X146425816Y-74406932D02*
X146425816Y-74597408D01*
X146425816Y-74597408D02*
X146473435Y-74692646D01*
X146473435Y-74692646D02*
X146521054Y-74740265D01*
X146521054Y-74740265D02*
X146663911Y-74835503D01*
X146663911Y-74835503D02*
X146854387Y-74883122D01*
X146854387Y-74883122D02*
X147235339Y-74883122D01*
X147235339Y-74883122D02*
X147330577Y-74835503D01*
X147330577Y-74835503D02*
X147378197Y-74787884D01*
X147378197Y-74787884D02*
X147425816Y-74692646D01*
X147425816Y-74692646D02*
X147425816Y-74502170D01*
X147425816Y-74502170D02*
X147378197Y-74406932D01*
X147378197Y-74406932D02*
X147330577Y-74359313D01*
X147330577Y-74359313D02*
X147235339Y-74311694D01*
X147235339Y-74311694D02*
X146997244Y-74311694D01*
X146997244Y-74311694D02*
X146902006Y-74359313D01*
X146902006Y-74359313D02*
X146854387Y-74406932D01*
X146854387Y-74406932D02*
X146806768Y-74502170D01*
X146806768Y-74502170D02*
X146806768Y-74692646D01*
X146806768Y-74692646D02*
X146854387Y-74787884D01*
X146854387Y-74787884D02*
X146902006Y-74835503D01*
X146902006Y-74835503D02*
X146997244Y-74883122D01*
X153968166Y-62885219D02*
X153968166Y-63599504D01*
X153968166Y-63599504D02*
X153920547Y-63742361D01*
X153920547Y-63742361D02*
X153825309Y-63837600D01*
X153825309Y-63837600D02*
X153682452Y-63885219D01*
X153682452Y-63885219D02*
X153587214Y-63885219D01*
X154872928Y-63218552D02*
X154872928Y-63885219D01*
X154634833Y-62837600D02*
X154396738Y-63551885D01*
X154396738Y-63551885D02*
X155015785Y-63551885D01*
X135788094Y-81604818D02*
X135788094Y-82414341D01*
X135788094Y-82414341D02*
X135835713Y-82509579D01*
X135835713Y-82509579D02*
X135883332Y-82557199D01*
X135883332Y-82557199D02*
X135978570Y-82604818D01*
X135978570Y-82604818D02*
X136169046Y-82604818D01*
X136169046Y-82604818D02*
X136264284Y-82557199D01*
X136264284Y-82557199D02*
X136311903Y-82509579D01*
X136311903Y-82509579D02*
X136359522Y-82414341D01*
X136359522Y-82414341D02*
X136359522Y-81604818D01*
X137359522Y-82604818D02*
X136788094Y-82604818D01*
X137073808Y-82604818D02*
X137073808Y-81604818D01*
X137073808Y-81604818D02*
X136978570Y-81747675D01*
X136978570Y-81747675D02*
X136883332Y-81842913D01*
X136883332Y-81842913D02*
X136788094Y-81890532D01*
X149969580Y-86541358D02*
X150017200Y-86588977D01*
X150017200Y-86588977D02*
X150064819Y-86731834D01*
X150064819Y-86731834D02*
X150064819Y-86827072D01*
X150064819Y-86827072D02*
X150017200Y-86969929D01*
X150017200Y-86969929D02*
X149921961Y-87065167D01*
X149921961Y-87065167D02*
X149826723Y-87112786D01*
X149826723Y-87112786D02*
X149636247Y-87160405D01*
X149636247Y-87160405D02*
X149493390Y-87160405D01*
X149493390Y-87160405D02*
X149302914Y-87112786D01*
X149302914Y-87112786D02*
X149207676Y-87065167D01*
X149207676Y-87065167D02*
X149112438Y-86969929D01*
X149112438Y-86969929D02*
X149064819Y-86827072D01*
X149064819Y-86827072D02*
X149064819Y-86731834D01*
X149064819Y-86731834D02*
X149112438Y-86588977D01*
X149112438Y-86588977D02*
X149160057Y-86541358D01*
X149398152Y-85684215D02*
X150064819Y-85684215D01*
X149017200Y-85922310D02*
X149731485Y-86160405D01*
X149731485Y-86160405D02*
X149731485Y-85541358D01*
X149064819Y-84969929D02*
X149064819Y-84874691D01*
X149064819Y-84874691D02*
X149112438Y-84779453D01*
X149112438Y-84779453D02*
X149160057Y-84731834D01*
X149160057Y-84731834D02*
X149255295Y-84684215D01*
X149255295Y-84684215D02*
X149445771Y-84636596D01*
X149445771Y-84636596D02*
X149683866Y-84636596D01*
X149683866Y-84636596D02*
X149874342Y-84684215D01*
X149874342Y-84684215D02*
X149969580Y-84731834D01*
X149969580Y-84731834D02*
X150017200Y-84779453D01*
X150017200Y-84779453D02*
X150064819Y-84874691D01*
X150064819Y-84874691D02*
X150064819Y-84969929D01*
X150064819Y-84969929D02*
X150017200Y-85065167D01*
X150017200Y-85065167D02*
X149969580Y-85112786D01*
X149969580Y-85112786D02*
X149874342Y-85160405D01*
X149874342Y-85160405D02*
X149683866Y-85208024D01*
X149683866Y-85208024D02*
X149445771Y-85208024D01*
X149445771Y-85208024D02*
X149255295Y-85160405D01*
X149255295Y-85160405D02*
X149160057Y-85112786D01*
X149160057Y-85112786D02*
X149112438Y-85065167D01*
X149112438Y-85065167D02*
X149064819Y-84969929D01*
X144649258Y-57572219D02*
X144315925Y-57096028D01*
X144077830Y-57572219D02*
X144077830Y-56572219D01*
X144077830Y-56572219D02*
X144458782Y-56572219D01*
X144458782Y-56572219D02*
X144554020Y-56619838D01*
X144554020Y-56619838D02*
X144601639Y-56667457D01*
X144601639Y-56667457D02*
X144649258Y-56762695D01*
X144649258Y-56762695D02*
X144649258Y-56905552D01*
X144649258Y-56905552D02*
X144601639Y-57000790D01*
X144601639Y-57000790D02*
X144554020Y-57048409D01*
X144554020Y-57048409D02*
X144458782Y-57096028D01*
X144458782Y-57096028D02*
X144077830Y-57096028D01*
X145030211Y-56667457D02*
X145077830Y-56619838D01*
X145077830Y-56619838D02*
X145173068Y-56572219D01*
X145173068Y-56572219D02*
X145411163Y-56572219D01*
X145411163Y-56572219D02*
X145506401Y-56619838D01*
X145506401Y-56619838D02*
X145554020Y-56667457D01*
X145554020Y-56667457D02*
X145601639Y-56762695D01*
X145601639Y-56762695D02*
X145601639Y-56857933D01*
X145601639Y-56857933D02*
X145554020Y-57000790D01*
X145554020Y-57000790D02*
X144982592Y-57572219D01*
X144982592Y-57572219D02*
X145601639Y-57572219D01*
X145982592Y-56667457D02*
X146030211Y-56619838D01*
X146030211Y-56619838D02*
X146125449Y-56572219D01*
X146125449Y-56572219D02*
X146363544Y-56572219D01*
X146363544Y-56572219D02*
X146458782Y-56619838D01*
X146458782Y-56619838D02*
X146506401Y-56667457D01*
X146506401Y-56667457D02*
X146554020Y-56762695D01*
X146554020Y-56762695D02*
X146554020Y-56857933D01*
X146554020Y-56857933D02*
X146506401Y-57000790D01*
X146506401Y-57000790D02*
X145934973Y-57572219D01*
X145934973Y-57572219D02*
X146554020Y-57572219D01*
X106928571Y-104731009D02*
X106595238Y-104731009D01*
X106595238Y-105254819D02*
X106595238Y-104254819D01*
X106595238Y-104254819D02*
X107071428Y-104254819D01*
X107452381Y-105254819D02*
X107452381Y-104254819D01*
X107928571Y-105254819D02*
X107928571Y-104254819D01*
X107928571Y-104254819D02*
X108166666Y-104254819D01*
X108166666Y-104254819D02*
X108309523Y-104302438D01*
X108309523Y-104302438D02*
X108404761Y-104397676D01*
X108404761Y-104397676D02*
X108452380Y-104492914D01*
X108452380Y-104492914D02*
X108499999Y-104683390D01*
X108499999Y-104683390D02*
X108499999Y-104826247D01*
X108499999Y-104826247D02*
X108452380Y-105016723D01*
X108452380Y-105016723D02*
X108404761Y-105111961D01*
X108404761Y-105111961D02*
X108309523Y-105207200D01*
X108309523Y-105207200D02*
X108166666Y-105254819D01*
X108166666Y-105254819D02*
X107928571Y-105254819D01*
X109452380Y-105254819D02*
X108880952Y-105254819D01*
X109166666Y-105254819D02*
X109166666Y-104254819D01*
X109166666Y-104254819D02*
X109071428Y-104397676D01*
X109071428Y-104397676D02*
X108976190Y-104492914D01*
X108976190Y-104492914D02*
X108880952Y-104540533D01*
X154340816Y-76216457D02*
X153864625Y-76549790D01*
X154340816Y-76787885D02*
X153340816Y-76787885D01*
X153340816Y-76787885D02*
X153340816Y-76406933D01*
X153340816Y-76406933D02*
X153388435Y-76311695D01*
X153388435Y-76311695D02*
X153436054Y-76264076D01*
X153436054Y-76264076D02*
X153531292Y-76216457D01*
X153531292Y-76216457D02*
X153674149Y-76216457D01*
X153674149Y-76216457D02*
X153769387Y-76264076D01*
X153769387Y-76264076D02*
X153817006Y-76311695D01*
X153817006Y-76311695D02*
X153864625Y-76406933D01*
X153864625Y-76406933D02*
X153864625Y-76787885D01*
X153436054Y-75835504D02*
X153388435Y-75787885D01*
X153388435Y-75787885D02*
X153340816Y-75692647D01*
X153340816Y-75692647D02*
X153340816Y-75454552D01*
X153340816Y-75454552D02*
X153388435Y-75359314D01*
X153388435Y-75359314D02*
X153436054Y-75311695D01*
X153436054Y-75311695D02*
X153531292Y-75264076D01*
X153531292Y-75264076D02*
X153626530Y-75264076D01*
X153626530Y-75264076D02*
X153769387Y-75311695D01*
X153769387Y-75311695D02*
X154340816Y-75883123D01*
X154340816Y-75883123D02*
X154340816Y-75264076D01*
X153769387Y-74692647D02*
X153721768Y-74787885D01*
X153721768Y-74787885D02*
X153674149Y-74835504D01*
X153674149Y-74835504D02*
X153578911Y-74883123D01*
X153578911Y-74883123D02*
X153531292Y-74883123D01*
X153531292Y-74883123D02*
X153436054Y-74835504D01*
X153436054Y-74835504D02*
X153388435Y-74787885D01*
X153388435Y-74787885D02*
X153340816Y-74692647D01*
X153340816Y-74692647D02*
X153340816Y-74502171D01*
X153340816Y-74502171D02*
X153388435Y-74406933D01*
X153388435Y-74406933D02*
X153436054Y-74359314D01*
X153436054Y-74359314D02*
X153531292Y-74311695D01*
X153531292Y-74311695D02*
X153578911Y-74311695D01*
X153578911Y-74311695D02*
X153674149Y-74359314D01*
X153674149Y-74359314D02*
X153721768Y-74406933D01*
X153721768Y-74406933D02*
X153769387Y-74502171D01*
X153769387Y-74502171D02*
X153769387Y-74692647D01*
X153769387Y-74692647D02*
X153817006Y-74787885D01*
X153817006Y-74787885D02*
X153864625Y-74835504D01*
X153864625Y-74835504D02*
X153959863Y-74883123D01*
X153959863Y-74883123D02*
X154150339Y-74883123D01*
X154150339Y-74883123D02*
X154245577Y-74835504D01*
X154245577Y-74835504D02*
X154293197Y-74787885D01*
X154293197Y-74787885D02*
X154340816Y-74692647D01*
X154340816Y-74692647D02*
X154340816Y-74502171D01*
X154340816Y-74502171D02*
X154293197Y-74406933D01*
X154293197Y-74406933D02*
X154245577Y-74359314D01*
X154245577Y-74359314D02*
X154150339Y-74311695D01*
X154150339Y-74311695D02*
X153959863Y-74311695D01*
X153959863Y-74311695D02*
X153864625Y-74359314D01*
X153864625Y-74359314D02*
X153817006Y-74406933D01*
X153817006Y-74406933D02*
X153769387Y-74502171D01*
X153586783Y-81828080D02*
X153539164Y-81875700D01*
X153539164Y-81875700D02*
X153396307Y-81923319D01*
X153396307Y-81923319D02*
X153301069Y-81923319D01*
X153301069Y-81923319D02*
X153158212Y-81875700D01*
X153158212Y-81875700D02*
X153062974Y-81780461D01*
X153062974Y-81780461D02*
X153015355Y-81685223D01*
X153015355Y-81685223D02*
X152967736Y-81494747D01*
X152967736Y-81494747D02*
X152967736Y-81351890D01*
X152967736Y-81351890D02*
X153015355Y-81161414D01*
X153015355Y-81161414D02*
X153062974Y-81066176D01*
X153062974Y-81066176D02*
X153158212Y-80970938D01*
X153158212Y-80970938D02*
X153301069Y-80923319D01*
X153301069Y-80923319D02*
X153396307Y-80923319D01*
X153396307Y-80923319D02*
X153539164Y-80970938D01*
X153539164Y-80970938D02*
X153586783Y-81018557D01*
X154586783Y-81923319D02*
X154253450Y-81447128D01*
X154015355Y-81923319D02*
X154015355Y-80923319D01*
X154015355Y-80923319D02*
X154396307Y-80923319D01*
X154396307Y-80923319D02*
X154491545Y-80970938D01*
X154491545Y-80970938D02*
X154539164Y-81018557D01*
X154539164Y-81018557D02*
X154586783Y-81113795D01*
X154586783Y-81113795D02*
X154586783Y-81256652D01*
X154586783Y-81256652D02*
X154539164Y-81351890D01*
X154539164Y-81351890D02*
X154491545Y-81399509D01*
X154491545Y-81399509D02*
X154396307Y-81447128D01*
X154396307Y-81447128D02*
X154015355Y-81447128D01*
X154967736Y-81018557D02*
X155015355Y-80970938D01*
X155015355Y-80970938D02*
X155110593Y-80923319D01*
X155110593Y-80923319D02*
X155348688Y-80923319D01*
X155348688Y-80923319D02*
X155443926Y-80970938D01*
X155443926Y-80970938D02*
X155491545Y-81018557D01*
X155491545Y-81018557D02*
X155539164Y-81113795D01*
X155539164Y-81113795D02*
X155539164Y-81209033D01*
X155539164Y-81209033D02*
X155491545Y-81351890D01*
X155491545Y-81351890D02*
X154920117Y-81923319D01*
X154920117Y-81923319D02*
X155539164Y-81923319D01*
X151350100Y-81347719D02*
X151350100Y-81585814D01*
X151112005Y-81490576D02*
X151350100Y-81585814D01*
X151350100Y-81585814D02*
X151588195Y-81490576D01*
X151207243Y-81776290D02*
X151350100Y-81585814D01*
X151350100Y-81585814D02*
X151492957Y-81776290D01*
X151350100Y-81347719D02*
X151350100Y-81585814D01*
X151112005Y-81490576D02*
X151350100Y-81585814D01*
X151350100Y-81585814D02*
X151588195Y-81490576D01*
X151207243Y-81776290D02*
X151350100Y-81585814D01*
X151350100Y-81585814D02*
X151492957Y-81776290D01*
X142588142Y-75918180D02*
X142540523Y-75965800D01*
X142540523Y-75965800D02*
X142397666Y-76013419D01*
X142397666Y-76013419D02*
X142302428Y-76013419D01*
X142302428Y-76013419D02*
X142159571Y-75965800D01*
X142159571Y-75965800D02*
X142064333Y-75870561D01*
X142064333Y-75870561D02*
X142016714Y-75775323D01*
X142016714Y-75775323D02*
X141969095Y-75584847D01*
X141969095Y-75584847D02*
X141969095Y-75441990D01*
X141969095Y-75441990D02*
X142016714Y-75251514D01*
X142016714Y-75251514D02*
X142064333Y-75156276D01*
X142064333Y-75156276D02*
X142159571Y-75061038D01*
X142159571Y-75061038D02*
X142302428Y-75013419D01*
X142302428Y-75013419D02*
X142397666Y-75013419D01*
X142397666Y-75013419D02*
X142540523Y-75061038D01*
X142540523Y-75061038D02*
X142588142Y-75108657D01*
X142921476Y-75013419D02*
X143540523Y-75013419D01*
X143540523Y-75013419D02*
X143207190Y-75394371D01*
X143207190Y-75394371D02*
X143350047Y-75394371D01*
X143350047Y-75394371D02*
X143445285Y-75441990D01*
X143445285Y-75441990D02*
X143492904Y-75489609D01*
X143492904Y-75489609D02*
X143540523Y-75584847D01*
X143540523Y-75584847D02*
X143540523Y-75822942D01*
X143540523Y-75822942D02*
X143492904Y-75918180D01*
X143492904Y-75918180D02*
X143445285Y-75965800D01*
X143445285Y-75965800D02*
X143350047Y-76013419D01*
X143350047Y-76013419D02*
X143064333Y-76013419D01*
X143064333Y-76013419D02*
X142969095Y-75965800D01*
X142969095Y-75965800D02*
X142921476Y-75918180D01*
X144159571Y-75013419D02*
X144254809Y-75013419D01*
X144254809Y-75013419D02*
X144350047Y-75061038D01*
X144350047Y-75061038D02*
X144397666Y-75108657D01*
X144397666Y-75108657D02*
X144445285Y-75203895D01*
X144445285Y-75203895D02*
X144492904Y-75394371D01*
X144492904Y-75394371D02*
X144492904Y-75632466D01*
X144492904Y-75632466D02*
X144445285Y-75822942D01*
X144445285Y-75822942D02*
X144397666Y-75918180D01*
X144397666Y-75918180D02*
X144350047Y-75965800D01*
X144350047Y-75965800D02*
X144254809Y-76013419D01*
X144254809Y-76013419D02*
X144159571Y-76013419D01*
X144159571Y-76013419D02*
X144064333Y-75965800D01*
X144064333Y-75965800D02*
X144016714Y-75918180D01*
X144016714Y-75918180D02*
X143969095Y-75822942D01*
X143969095Y-75822942D02*
X143921476Y-75632466D01*
X143921476Y-75632466D02*
X143921476Y-75394371D01*
X143921476Y-75394371D02*
X143969095Y-75203895D01*
X143969095Y-75203895D02*
X144016714Y-75108657D01*
X144016714Y-75108657D02*
X144064333Y-75061038D01*
X144064333Y-75061038D02*
X144159571Y-75013419D01*
X115493157Y-55095238D02*
X115445538Y-55190476D01*
X115445538Y-55190476D02*
X115350300Y-55285714D01*
X115350300Y-55285714D02*
X115207442Y-55428571D01*
X115207442Y-55428571D02*
X115159823Y-55523809D01*
X115159823Y-55523809D02*
X115159823Y-55619047D01*
X115397919Y-55571428D02*
X115350300Y-55666666D01*
X115350300Y-55666666D02*
X115255061Y-55761904D01*
X115255061Y-55761904D02*
X115064585Y-55809523D01*
X115064585Y-55809523D02*
X114731252Y-55809523D01*
X114731252Y-55809523D02*
X114540776Y-55761904D01*
X114540776Y-55761904D02*
X114445538Y-55666666D01*
X114445538Y-55666666D02*
X114397919Y-55571428D01*
X114397919Y-55571428D02*
X114397919Y-55380952D01*
X114397919Y-55380952D02*
X114445538Y-55285714D01*
X114445538Y-55285714D02*
X114540776Y-55190476D01*
X114540776Y-55190476D02*
X114731252Y-55142857D01*
X114731252Y-55142857D02*
X115064585Y-55142857D01*
X115064585Y-55142857D02*
X115255061Y-55190476D01*
X115255061Y-55190476D02*
X115350300Y-55285714D01*
X115350300Y-55285714D02*
X115397919Y-55380952D01*
X115397919Y-55380952D02*
X115397919Y-55571428D01*
X115397919Y-54190476D02*
X115397919Y-54761904D01*
X115397919Y-54476190D02*
X114397919Y-54476190D01*
X114397919Y-54476190D02*
X114540776Y-54571428D01*
X114540776Y-54571428D02*
X114636014Y-54666666D01*
X114636014Y-54666666D02*
X114683633Y-54761904D01*
X126897919Y-58999999D02*
X127136014Y-58999999D01*
X127040776Y-59238094D02*
X127136014Y-58999999D01*
X127136014Y-58999999D02*
X127040776Y-58761904D01*
X127326490Y-59142856D02*
X127136014Y-58999999D01*
X127136014Y-58999999D02*
X127326490Y-58857142D01*
X126897919Y-58999999D02*
X127136014Y-58999999D01*
X127040776Y-59238094D02*
X127136014Y-58999999D01*
X127136014Y-58999999D02*
X127040776Y-58761904D01*
X127326490Y-59142856D02*
X127136014Y-58999999D01*
X127136014Y-58999999D02*
X127326490Y-58857142D01*
X149973030Y-97622859D02*
X150020650Y-97670478D01*
X150020650Y-97670478D02*
X150068269Y-97813335D01*
X150068269Y-97813335D02*
X150068269Y-97908573D01*
X150068269Y-97908573D02*
X150020650Y-98051430D01*
X150020650Y-98051430D02*
X149925411Y-98146668D01*
X149925411Y-98146668D02*
X149830173Y-98194287D01*
X149830173Y-98194287D02*
X149639697Y-98241906D01*
X149639697Y-98241906D02*
X149496840Y-98241906D01*
X149496840Y-98241906D02*
X149306364Y-98194287D01*
X149306364Y-98194287D02*
X149211126Y-98146668D01*
X149211126Y-98146668D02*
X149115888Y-98051430D01*
X149115888Y-98051430D02*
X149068269Y-97908573D01*
X149068269Y-97908573D02*
X149068269Y-97813335D01*
X149068269Y-97813335D02*
X149115888Y-97670478D01*
X149115888Y-97670478D02*
X149163507Y-97622859D01*
X149068269Y-97289525D02*
X149068269Y-96670478D01*
X149068269Y-96670478D02*
X149449221Y-97003811D01*
X149449221Y-97003811D02*
X149449221Y-96860954D01*
X149449221Y-96860954D02*
X149496840Y-96765716D01*
X149496840Y-96765716D02*
X149544459Y-96718097D01*
X149544459Y-96718097D02*
X149639697Y-96670478D01*
X149639697Y-96670478D02*
X149877792Y-96670478D01*
X149877792Y-96670478D02*
X149973030Y-96718097D01*
X149973030Y-96718097D02*
X150020650Y-96765716D01*
X150020650Y-96765716D02*
X150068269Y-96860954D01*
X150068269Y-96860954D02*
X150068269Y-97146668D01*
X150068269Y-97146668D02*
X150020650Y-97241906D01*
X150020650Y-97241906D02*
X149973030Y-97289525D01*
X149496840Y-96099049D02*
X149449221Y-96194287D01*
X149449221Y-96194287D02*
X149401602Y-96241906D01*
X149401602Y-96241906D02*
X149306364Y-96289525D01*
X149306364Y-96289525D02*
X149258745Y-96289525D01*
X149258745Y-96289525D02*
X149163507Y-96241906D01*
X149163507Y-96241906D02*
X149115888Y-96194287D01*
X149115888Y-96194287D02*
X149068269Y-96099049D01*
X149068269Y-96099049D02*
X149068269Y-95908573D01*
X149068269Y-95908573D02*
X149115888Y-95813335D01*
X149115888Y-95813335D02*
X149163507Y-95765716D01*
X149163507Y-95765716D02*
X149258745Y-95718097D01*
X149258745Y-95718097D02*
X149306364Y-95718097D01*
X149306364Y-95718097D02*
X149401602Y-95765716D01*
X149401602Y-95765716D02*
X149449221Y-95813335D01*
X149449221Y-95813335D02*
X149496840Y-95908573D01*
X149496840Y-95908573D02*
X149496840Y-96099049D01*
X149496840Y-96099049D02*
X149544459Y-96194287D01*
X149544459Y-96194287D02*
X149592078Y-96241906D01*
X149592078Y-96241906D02*
X149687316Y-96289525D01*
X149687316Y-96289525D02*
X149877792Y-96289525D01*
X149877792Y-96289525D02*
X149973030Y-96241906D01*
X149973030Y-96241906D02*
X150020650Y-96194287D01*
X150020650Y-96194287D02*
X150068269Y-96099049D01*
X150068269Y-96099049D02*
X150068269Y-95908573D01*
X150068269Y-95908573D02*
X150020650Y-95813335D01*
X150020650Y-95813335D02*
X149973030Y-95765716D01*
X149973030Y-95765716D02*
X149877792Y-95718097D01*
X149877792Y-95718097D02*
X149687316Y-95718097D01*
X149687316Y-95718097D02*
X149592078Y-95765716D01*
X149592078Y-95765716D02*
X149544459Y-95813335D01*
X149544459Y-95813335D02*
X149496840Y-95908573D01*
X155010592Y-97069581D02*
X154962973Y-97117201D01*
X154962973Y-97117201D02*
X154820116Y-97164820D01*
X154820116Y-97164820D02*
X154724878Y-97164820D01*
X154724878Y-97164820D02*
X154582021Y-97117201D01*
X154582021Y-97117201D02*
X154486783Y-97021962D01*
X154486783Y-97021962D02*
X154439164Y-96926724D01*
X154439164Y-96926724D02*
X154391545Y-96736248D01*
X154391545Y-96736248D02*
X154391545Y-96593391D01*
X154391545Y-96593391D02*
X154439164Y-96402915D01*
X154439164Y-96402915D02*
X154486783Y-96307677D01*
X154486783Y-96307677D02*
X154582021Y-96212439D01*
X154582021Y-96212439D02*
X154724878Y-96164820D01*
X154724878Y-96164820D02*
X154820116Y-96164820D01*
X154820116Y-96164820D02*
X154962973Y-96212439D01*
X154962973Y-96212439D02*
X155010592Y-96260058D01*
X155867735Y-96498153D02*
X155867735Y-97164820D01*
X155629640Y-96117201D02*
X155391545Y-96831486D01*
X155391545Y-96831486D02*
X156010592Y-96831486D01*
X156915354Y-97164820D02*
X156343926Y-97164820D01*
X156629640Y-97164820D02*
X156629640Y-96164820D01*
X156629640Y-96164820D02*
X156534402Y-96307677D01*
X156534402Y-96307677D02*
X156439164Y-96402915D01*
X156439164Y-96402915D02*
X156343926Y-96450534D01*
X115894642Y-89949819D02*
X115561309Y-89473628D01*
X115323214Y-89949819D02*
X115323214Y-88949819D01*
X115323214Y-88949819D02*
X115704166Y-88949819D01*
X115704166Y-88949819D02*
X115799404Y-88997438D01*
X115799404Y-88997438D02*
X115847023Y-89045057D01*
X115847023Y-89045057D02*
X115894642Y-89140295D01*
X115894642Y-89140295D02*
X115894642Y-89283152D01*
X115894642Y-89283152D02*
X115847023Y-89378390D01*
X115847023Y-89378390D02*
X115799404Y-89426009D01*
X115799404Y-89426009D02*
X115704166Y-89473628D01*
X115704166Y-89473628D02*
X115323214Y-89473628D01*
X116847023Y-89949819D02*
X116275595Y-89949819D01*
X116561309Y-89949819D02*
X116561309Y-88949819D01*
X116561309Y-88949819D02*
X116466071Y-89092676D01*
X116466071Y-89092676D02*
X116370833Y-89187914D01*
X116370833Y-89187914D02*
X116275595Y-89235533D01*
X117180357Y-88949819D02*
X117799404Y-88949819D01*
X117799404Y-88949819D02*
X117466071Y-89330771D01*
X117466071Y-89330771D02*
X117608928Y-89330771D01*
X117608928Y-89330771D02*
X117704166Y-89378390D01*
X117704166Y-89378390D02*
X117751785Y-89426009D01*
X117751785Y-89426009D02*
X117799404Y-89521247D01*
X117799404Y-89521247D02*
X117799404Y-89759342D01*
X117799404Y-89759342D02*
X117751785Y-89854580D01*
X117751785Y-89854580D02*
X117704166Y-89902200D01*
X117704166Y-89902200D02*
X117608928Y-89949819D01*
X117608928Y-89949819D02*
X117323214Y-89949819D01*
X117323214Y-89949819D02*
X117227976Y-89902200D01*
X117227976Y-89902200D02*
X117180357Y-89854580D01*
X133357142Y-84539580D02*
X133309523Y-84587200D01*
X133309523Y-84587200D02*
X133166666Y-84634819D01*
X133166666Y-84634819D02*
X133071428Y-84634819D01*
X133071428Y-84634819D02*
X132928571Y-84587200D01*
X132928571Y-84587200D02*
X132833333Y-84491961D01*
X132833333Y-84491961D02*
X132785714Y-84396723D01*
X132785714Y-84396723D02*
X132738095Y-84206247D01*
X132738095Y-84206247D02*
X132738095Y-84063390D01*
X132738095Y-84063390D02*
X132785714Y-83872914D01*
X132785714Y-83872914D02*
X132833333Y-83777676D01*
X132833333Y-83777676D02*
X132928571Y-83682438D01*
X132928571Y-83682438D02*
X133071428Y-83634819D01*
X133071428Y-83634819D02*
X133166666Y-83634819D01*
X133166666Y-83634819D02*
X133309523Y-83682438D01*
X133309523Y-83682438D02*
X133357142Y-83730057D01*
X133738095Y-83730057D02*
X133785714Y-83682438D01*
X133785714Y-83682438D02*
X133880952Y-83634819D01*
X133880952Y-83634819D02*
X134119047Y-83634819D01*
X134119047Y-83634819D02*
X134214285Y-83682438D01*
X134214285Y-83682438D02*
X134261904Y-83730057D01*
X134261904Y-83730057D02*
X134309523Y-83825295D01*
X134309523Y-83825295D02*
X134309523Y-83920533D01*
X134309523Y-83920533D02*
X134261904Y-84063390D01*
X134261904Y-84063390D02*
X133690476Y-84634819D01*
X133690476Y-84634819D02*
X134309523Y-84634819D01*
X135166666Y-83634819D02*
X134976190Y-83634819D01*
X134976190Y-83634819D02*
X134880952Y-83682438D01*
X134880952Y-83682438D02*
X134833333Y-83730057D01*
X134833333Y-83730057D02*
X134738095Y-83872914D01*
X134738095Y-83872914D02*
X134690476Y-84063390D01*
X134690476Y-84063390D02*
X134690476Y-84444342D01*
X134690476Y-84444342D02*
X134738095Y-84539580D01*
X134738095Y-84539580D02*
X134785714Y-84587200D01*
X134785714Y-84587200D02*
X134880952Y-84634819D01*
X134880952Y-84634819D02*
X135071428Y-84634819D01*
X135071428Y-84634819D02*
X135166666Y-84587200D01*
X135166666Y-84587200D02*
X135214285Y-84539580D01*
X135214285Y-84539580D02*
X135261904Y-84444342D01*
X135261904Y-84444342D02*
X135261904Y-84206247D01*
X135261904Y-84206247D02*
X135214285Y-84111009D01*
X135214285Y-84111009D02*
X135166666Y-84063390D01*
X135166666Y-84063390D02*
X135071428Y-84015771D01*
X135071428Y-84015771D02*
X134880952Y-84015771D01*
X134880952Y-84015771D02*
X134785714Y-84063390D01*
X134785714Y-84063390D02*
X134738095Y-84111009D01*
X134738095Y-84111009D02*
X134690476Y-84206247D01*
X149757142Y-103489580D02*
X149709523Y-103537200D01*
X149709523Y-103537200D02*
X149566666Y-103584819D01*
X149566666Y-103584819D02*
X149471428Y-103584819D01*
X149471428Y-103584819D02*
X149328571Y-103537200D01*
X149328571Y-103537200D02*
X149233333Y-103441961D01*
X149233333Y-103441961D02*
X149185714Y-103346723D01*
X149185714Y-103346723D02*
X149138095Y-103156247D01*
X149138095Y-103156247D02*
X149138095Y-103013390D01*
X149138095Y-103013390D02*
X149185714Y-102822914D01*
X149185714Y-102822914D02*
X149233333Y-102727676D01*
X149233333Y-102727676D02*
X149328571Y-102632438D01*
X149328571Y-102632438D02*
X149471428Y-102584819D01*
X149471428Y-102584819D02*
X149566666Y-102584819D01*
X149566666Y-102584819D02*
X149709523Y-102632438D01*
X149709523Y-102632438D02*
X149757142Y-102680057D01*
X150138095Y-102680057D02*
X150185714Y-102632438D01*
X150185714Y-102632438D02*
X150280952Y-102584819D01*
X150280952Y-102584819D02*
X150519047Y-102584819D01*
X150519047Y-102584819D02*
X150614285Y-102632438D01*
X150614285Y-102632438D02*
X150661904Y-102680057D01*
X150661904Y-102680057D02*
X150709523Y-102775295D01*
X150709523Y-102775295D02*
X150709523Y-102870533D01*
X150709523Y-102870533D02*
X150661904Y-103013390D01*
X150661904Y-103013390D02*
X150090476Y-103584819D01*
X150090476Y-103584819D02*
X150709523Y-103584819D01*
X151042857Y-102584819D02*
X151661904Y-102584819D01*
X151661904Y-102584819D02*
X151328571Y-102965771D01*
X151328571Y-102965771D02*
X151471428Y-102965771D01*
X151471428Y-102965771D02*
X151566666Y-103013390D01*
X151566666Y-103013390D02*
X151614285Y-103061009D01*
X151614285Y-103061009D02*
X151661904Y-103156247D01*
X151661904Y-103156247D02*
X151661904Y-103394342D01*
X151661904Y-103394342D02*
X151614285Y-103489580D01*
X151614285Y-103489580D02*
X151566666Y-103537200D01*
X151566666Y-103537200D02*
X151471428Y-103584819D01*
X151471428Y-103584819D02*
X151185714Y-103584819D01*
X151185714Y-103584819D02*
X151090476Y-103537200D01*
X151090476Y-103537200D02*
X151042857Y-103489580D01*
X155057142Y-85988080D02*
X155009523Y-86035700D01*
X155009523Y-86035700D02*
X154866666Y-86083319D01*
X154866666Y-86083319D02*
X154771428Y-86083319D01*
X154771428Y-86083319D02*
X154628571Y-86035700D01*
X154628571Y-86035700D02*
X154533333Y-85940461D01*
X154533333Y-85940461D02*
X154485714Y-85845223D01*
X154485714Y-85845223D02*
X154438095Y-85654747D01*
X154438095Y-85654747D02*
X154438095Y-85511890D01*
X154438095Y-85511890D02*
X154485714Y-85321414D01*
X154485714Y-85321414D02*
X154533333Y-85226176D01*
X154533333Y-85226176D02*
X154628571Y-85130938D01*
X154628571Y-85130938D02*
X154771428Y-85083319D01*
X154771428Y-85083319D02*
X154866666Y-85083319D01*
X154866666Y-85083319D02*
X155009523Y-85130938D01*
X155009523Y-85130938D02*
X155057142Y-85178557D01*
X155914285Y-85416652D02*
X155914285Y-86083319D01*
X155676190Y-85035700D02*
X155438095Y-85749985D01*
X155438095Y-85749985D02*
X156057142Y-85749985D01*
X156390476Y-85178557D02*
X156438095Y-85130938D01*
X156438095Y-85130938D02*
X156533333Y-85083319D01*
X156533333Y-85083319D02*
X156771428Y-85083319D01*
X156771428Y-85083319D02*
X156866666Y-85130938D01*
X156866666Y-85130938D02*
X156914285Y-85178557D01*
X156914285Y-85178557D02*
X156961904Y-85273795D01*
X156961904Y-85273795D02*
X156961904Y-85369033D01*
X156961904Y-85369033D02*
X156914285Y-85511890D01*
X156914285Y-85511890D02*
X156342857Y-86083319D01*
X156342857Y-86083319D02*
X156961904Y-86083319D01*
X158308142Y-78208179D02*
X158260523Y-78255799D01*
X158260523Y-78255799D02*
X158117666Y-78303418D01*
X158117666Y-78303418D02*
X158022428Y-78303418D01*
X158022428Y-78303418D02*
X157879571Y-78255799D01*
X157879571Y-78255799D02*
X157784333Y-78160560D01*
X157784333Y-78160560D02*
X157736714Y-78065322D01*
X157736714Y-78065322D02*
X157689095Y-77874846D01*
X157689095Y-77874846D02*
X157689095Y-77731989D01*
X157689095Y-77731989D02*
X157736714Y-77541513D01*
X157736714Y-77541513D02*
X157784333Y-77446275D01*
X157784333Y-77446275D02*
X157879571Y-77351037D01*
X157879571Y-77351037D02*
X158022428Y-77303418D01*
X158022428Y-77303418D02*
X158117666Y-77303418D01*
X158117666Y-77303418D02*
X158260523Y-77351037D01*
X158260523Y-77351037D02*
X158308142Y-77398656D01*
X158641476Y-77303418D02*
X159260523Y-77303418D01*
X159260523Y-77303418D02*
X158927190Y-77684370D01*
X158927190Y-77684370D02*
X159070047Y-77684370D01*
X159070047Y-77684370D02*
X159165285Y-77731989D01*
X159165285Y-77731989D02*
X159212904Y-77779608D01*
X159212904Y-77779608D02*
X159260523Y-77874846D01*
X159260523Y-77874846D02*
X159260523Y-78112941D01*
X159260523Y-78112941D02*
X159212904Y-78208179D01*
X159212904Y-78208179D02*
X159165285Y-78255799D01*
X159165285Y-78255799D02*
X159070047Y-78303418D01*
X159070047Y-78303418D02*
X158784333Y-78303418D01*
X158784333Y-78303418D02*
X158689095Y-78255799D01*
X158689095Y-78255799D02*
X158641476Y-78208179D01*
X160165285Y-77303418D02*
X159689095Y-77303418D01*
X159689095Y-77303418D02*
X159641476Y-77779608D01*
X159641476Y-77779608D02*
X159689095Y-77731989D01*
X159689095Y-77731989D02*
X159784333Y-77684370D01*
X159784333Y-77684370D02*
X160022428Y-77684370D01*
X160022428Y-77684370D02*
X160117666Y-77731989D01*
X160117666Y-77731989D02*
X160165285Y-77779608D01*
X160165285Y-77779608D02*
X160212904Y-77874846D01*
X160212904Y-77874846D02*
X160212904Y-78112941D01*
X160212904Y-78112941D02*
X160165285Y-78208179D01*
X160165285Y-78208179D02*
X160117666Y-78255799D01*
X160117666Y-78255799D02*
X160022428Y-78303418D01*
X160022428Y-78303418D02*
X159784333Y-78303418D01*
X159784333Y-78303418D02*
X159689095Y-78255799D01*
X159689095Y-78255799D02*
X159641476Y-78208179D01*
X121695833Y-74962319D02*
X121362500Y-74486128D01*
X121124405Y-74962319D02*
X121124405Y-73962319D01*
X121124405Y-73962319D02*
X121505357Y-73962319D01*
X121505357Y-73962319D02*
X121600595Y-74009938D01*
X121600595Y-74009938D02*
X121648214Y-74057557D01*
X121648214Y-74057557D02*
X121695833Y-74152795D01*
X121695833Y-74152795D02*
X121695833Y-74295652D01*
X121695833Y-74295652D02*
X121648214Y-74390890D01*
X121648214Y-74390890D02*
X121600595Y-74438509D01*
X121600595Y-74438509D02*
X121505357Y-74486128D01*
X121505357Y-74486128D02*
X121124405Y-74486128D01*
X122552976Y-74295652D02*
X122552976Y-74962319D01*
X122314881Y-73914700D02*
X122076786Y-74628985D01*
X122076786Y-74628985D02*
X122695833Y-74628985D01*
X102988095Y-65054819D02*
X102988095Y-64054819D01*
X102988095Y-64531009D02*
X103559523Y-64531009D01*
X103559523Y-65054819D02*
X103559523Y-64054819D01*
X104464285Y-64388152D02*
X104464285Y-65054819D01*
X104226190Y-64007200D02*
X103988095Y-64721485D01*
X103988095Y-64721485D02*
X104607142Y-64721485D01*
X139158333Y-100429580D02*
X139110714Y-100477200D01*
X139110714Y-100477200D02*
X138967857Y-100524819D01*
X138967857Y-100524819D02*
X138872619Y-100524819D01*
X138872619Y-100524819D02*
X138729762Y-100477200D01*
X138729762Y-100477200D02*
X138634524Y-100381961D01*
X138634524Y-100381961D02*
X138586905Y-100286723D01*
X138586905Y-100286723D02*
X138539286Y-100096247D01*
X138539286Y-100096247D02*
X138539286Y-99953390D01*
X138539286Y-99953390D02*
X138586905Y-99762914D01*
X138586905Y-99762914D02*
X138634524Y-99667676D01*
X138634524Y-99667676D02*
X138729762Y-99572438D01*
X138729762Y-99572438D02*
X138872619Y-99524819D01*
X138872619Y-99524819D02*
X138967857Y-99524819D01*
X138967857Y-99524819D02*
X139110714Y-99572438D01*
X139110714Y-99572438D02*
X139158333Y-99620057D01*
X139634524Y-100524819D02*
X139825000Y-100524819D01*
X139825000Y-100524819D02*
X139920238Y-100477200D01*
X139920238Y-100477200D02*
X139967857Y-100429580D01*
X139967857Y-100429580D02*
X140063095Y-100286723D01*
X140063095Y-100286723D02*
X140110714Y-100096247D01*
X140110714Y-100096247D02*
X140110714Y-99715295D01*
X140110714Y-99715295D02*
X140063095Y-99620057D01*
X140063095Y-99620057D02*
X140015476Y-99572438D01*
X140015476Y-99572438D02*
X139920238Y-99524819D01*
X139920238Y-99524819D02*
X139729762Y-99524819D01*
X139729762Y-99524819D02*
X139634524Y-99572438D01*
X139634524Y-99572438D02*
X139586905Y-99620057D01*
X139586905Y-99620057D02*
X139539286Y-99715295D01*
X139539286Y-99715295D02*
X139539286Y-99953390D01*
X139539286Y-99953390D02*
X139586905Y-100048628D01*
X139586905Y-100048628D02*
X139634524Y-100096247D01*
X139634524Y-100096247D02*
X139729762Y-100143866D01*
X139729762Y-100143866D02*
X139920238Y-100143866D01*
X139920238Y-100143866D02*
X140015476Y-100096247D01*
X140015476Y-100096247D02*
X140063095Y-100048628D01*
X140063095Y-100048628D02*
X140110714Y-99953390D01*
X97788095Y-140506819D02*
X98359523Y-140506819D01*
X98073809Y-141506819D02*
X98073809Y-140506819D01*
X98692857Y-141506819D02*
X98692857Y-140506819D01*
X98692857Y-140506819D02*
X99073809Y-140506819D01*
X99073809Y-140506819D02*
X99169047Y-140554438D01*
X99169047Y-140554438D02*
X99216666Y-140602057D01*
X99216666Y-140602057D02*
X99264285Y-140697295D01*
X99264285Y-140697295D02*
X99264285Y-140840152D01*
X99264285Y-140840152D02*
X99216666Y-140935390D01*
X99216666Y-140935390D02*
X99169047Y-140983009D01*
X99169047Y-140983009D02*
X99073809Y-141030628D01*
X99073809Y-141030628D02*
X98692857Y-141030628D01*
X99597619Y-140506819D02*
X100216666Y-140506819D01*
X100216666Y-140506819D02*
X99883333Y-140887771D01*
X99883333Y-140887771D02*
X100026190Y-140887771D01*
X100026190Y-140887771D02*
X100121428Y-140935390D01*
X100121428Y-140935390D02*
X100169047Y-140983009D01*
X100169047Y-140983009D02*
X100216666Y-141078247D01*
X100216666Y-141078247D02*
X100216666Y-141316342D01*
X100216666Y-141316342D02*
X100169047Y-141411580D01*
X100169047Y-141411580D02*
X100121428Y-141459200D01*
X100121428Y-141459200D02*
X100026190Y-141506819D01*
X100026190Y-141506819D02*
X99740476Y-141506819D01*
X99740476Y-141506819D02*
X99645238Y-141459200D01*
X99645238Y-141459200D02*
X99597619Y-141411580D01*
X121695833Y-79587319D02*
X121362500Y-79111128D01*
X121124405Y-79587319D02*
X121124405Y-78587319D01*
X121124405Y-78587319D02*
X121505357Y-78587319D01*
X121505357Y-78587319D02*
X121600595Y-78634938D01*
X121600595Y-78634938D02*
X121648214Y-78682557D01*
X121648214Y-78682557D02*
X121695833Y-78777795D01*
X121695833Y-78777795D02*
X121695833Y-78920652D01*
X121695833Y-78920652D02*
X121648214Y-79015890D01*
X121648214Y-79015890D02*
X121600595Y-79063509D01*
X121600595Y-79063509D02*
X121505357Y-79111128D01*
X121505357Y-79111128D02*
X121124405Y-79111128D01*
X122552976Y-78587319D02*
X122362500Y-78587319D01*
X122362500Y-78587319D02*
X122267262Y-78634938D01*
X122267262Y-78634938D02*
X122219643Y-78682557D01*
X122219643Y-78682557D02*
X122124405Y-78825414D01*
X122124405Y-78825414D02*
X122076786Y-79015890D01*
X122076786Y-79015890D02*
X122076786Y-79396842D01*
X122076786Y-79396842D02*
X122124405Y-79492080D01*
X122124405Y-79492080D02*
X122172024Y-79539700D01*
X122172024Y-79539700D02*
X122267262Y-79587319D01*
X122267262Y-79587319D02*
X122457738Y-79587319D01*
X122457738Y-79587319D02*
X122552976Y-79539700D01*
X122552976Y-79539700D02*
X122600595Y-79492080D01*
X122600595Y-79492080D02*
X122648214Y-79396842D01*
X122648214Y-79396842D02*
X122648214Y-79158747D01*
X122648214Y-79158747D02*
X122600595Y-79063509D01*
X122600595Y-79063509D02*
X122552976Y-79015890D01*
X122552976Y-79015890D02*
X122457738Y-78968271D01*
X122457738Y-78968271D02*
X122267262Y-78968271D01*
X122267262Y-78968271D02*
X122172024Y-79015890D01*
X122172024Y-79015890D02*
X122124405Y-79063509D01*
X122124405Y-79063509D02*
X122076786Y-79158747D01*
X149210592Y-95784821D02*
X148877259Y-95308630D01*
X148639164Y-95784821D02*
X148639164Y-94784821D01*
X148639164Y-94784821D02*
X149020116Y-94784821D01*
X149020116Y-94784821D02*
X149115354Y-94832440D01*
X149115354Y-94832440D02*
X149162973Y-94880059D01*
X149162973Y-94880059D02*
X149210592Y-94975297D01*
X149210592Y-94975297D02*
X149210592Y-95118154D01*
X149210592Y-95118154D02*
X149162973Y-95213392D01*
X149162973Y-95213392D02*
X149115354Y-95261011D01*
X149115354Y-95261011D02*
X149020116Y-95308630D01*
X149020116Y-95308630D02*
X148639164Y-95308630D01*
X150067735Y-95118154D02*
X150067735Y-95784821D01*
X149829640Y-94737202D02*
X149591545Y-95451487D01*
X149591545Y-95451487D02*
X150210592Y-95451487D01*
X150543926Y-94880059D02*
X150591545Y-94832440D01*
X150591545Y-94832440D02*
X150686783Y-94784821D01*
X150686783Y-94784821D02*
X150924878Y-94784821D01*
X150924878Y-94784821D02*
X151020116Y-94832440D01*
X151020116Y-94832440D02*
X151067735Y-94880059D01*
X151067735Y-94880059D02*
X151115354Y-94975297D01*
X151115354Y-94975297D02*
X151115354Y-95070535D01*
X151115354Y-95070535D02*
X151067735Y-95213392D01*
X151067735Y-95213392D02*
X150496307Y-95784821D01*
X150496307Y-95784821D02*
X151115354Y-95784821D01*
X116370833Y-66824819D02*
X116037500Y-66348628D01*
X115799405Y-66824819D02*
X115799405Y-65824819D01*
X115799405Y-65824819D02*
X116180357Y-65824819D01*
X116180357Y-65824819D02*
X116275595Y-65872438D01*
X116275595Y-65872438D02*
X116323214Y-65920057D01*
X116323214Y-65920057D02*
X116370833Y-66015295D01*
X116370833Y-66015295D02*
X116370833Y-66158152D01*
X116370833Y-66158152D02*
X116323214Y-66253390D01*
X116323214Y-66253390D02*
X116275595Y-66301009D01*
X116275595Y-66301009D02*
X116180357Y-66348628D01*
X116180357Y-66348628D02*
X115799405Y-66348628D01*
X116704167Y-65824819D02*
X117323214Y-65824819D01*
X117323214Y-65824819D02*
X116989881Y-66205771D01*
X116989881Y-66205771D02*
X117132738Y-66205771D01*
X117132738Y-66205771D02*
X117227976Y-66253390D01*
X117227976Y-66253390D02*
X117275595Y-66301009D01*
X117275595Y-66301009D02*
X117323214Y-66396247D01*
X117323214Y-66396247D02*
X117323214Y-66634342D01*
X117323214Y-66634342D02*
X117275595Y-66729580D01*
X117275595Y-66729580D02*
X117227976Y-66777200D01*
X117227976Y-66777200D02*
X117132738Y-66824819D01*
X117132738Y-66824819D02*
X116847024Y-66824819D01*
X116847024Y-66824819D02*
X116751786Y-66777200D01*
X116751786Y-66777200D02*
X116704167Y-66729580D01*
X87211905Y-142556819D02*
X87783333Y-142556819D01*
X87497619Y-143556819D02*
X87497619Y-142556819D01*
X88116667Y-143556819D02*
X88116667Y-142556819D01*
X88116667Y-142556819D02*
X88497619Y-142556819D01*
X88497619Y-142556819D02*
X88592857Y-142604438D01*
X88592857Y-142604438D02*
X88640476Y-142652057D01*
X88640476Y-142652057D02*
X88688095Y-142747295D01*
X88688095Y-142747295D02*
X88688095Y-142890152D01*
X88688095Y-142890152D02*
X88640476Y-142985390D01*
X88640476Y-142985390D02*
X88592857Y-143033009D01*
X88592857Y-143033009D02*
X88497619Y-143080628D01*
X88497619Y-143080628D02*
X88116667Y-143080628D01*
X89640476Y-143556819D02*
X89069048Y-143556819D01*
X89354762Y-143556819D02*
X89354762Y-142556819D01*
X89354762Y-142556819D02*
X89259524Y-142699676D01*
X89259524Y-142699676D02*
X89164286Y-142794914D01*
X89164286Y-142794914D02*
X89069048Y-142842533D01*
X90497619Y-142890152D02*
X90497619Y-143556819D01*
X90259524Y-142509200D02*
X90021429Y-143223485D01*
X90021429Y-143223485D02*
X90640476Y-143223485D01*
%TO.C,R2*%
D11*
X121625242Y-70790000D02*
X122099758Y-70790000D01*
X121625242Y-71835000D02*
X122099758Y-71835000D01*
%TO.C,R34*%
X149295997Y-75104958D02*
X149295997Y-75412240D01*
X150055997Y-75104958D02*
X150055997Y-75412240D01*
%TO.C,R9*%
X114360436Y-81165000D02*
X118714564Y-81165000D01*
X114360436Y-84585000D02*
X118714564Y-84585000D01*
%TO.C,C39*%
X148090000Y-83146335D02*
X148090000Y-82930663D01*
X148810000Y-83146335D02*
X148810000Y-82930663D01*
%TO.C,C1*%
X128615580Y-99490000D02*
X128334420Y-99490000D01*
X128615580Y-100510000D02*
X128334420Y-100510000D01*
%TO.C,D2*%
D12*
X136250700Y-80522100D02*
X136250700Y-82477900D01*
X136250700Y-82477900D02*
X136514860Y-82477900D01*
X136514860Y-80522100D02*
X136250700Y-80522100D01*
X137485140Y-82477900D02*
X137749300Y-82477900D01*
X137749300Y-80522100D02*
X137485140Y-80522100D01*
X137749300Y-82477900D02*
X137749300Y-80522100D01*
%TO.C,C27*%
D11*
X136662164Y-54259999D02*
X136877836Y-54259999D01*
X136662164Y-54979999D02*
X136877836Y-54979999D01*
%TO.C,J3*%
D12*
X97957000Y-76298602D02*
X97957000Y-98701402D01*
X97957000Y-98701402D02*
X108117000Y-98701402D01*
X108117000Y-76298602D02*
X97957000Y-76298602D01*
X108117000Y-98701402D02*
X108117000Y-76298602D01*
D13*
X107317500Y-99590402D02*
G75*
G02*
X106682500Y-99590402I-317500J0D01*
G01*
X106682500Y-99590402D02*
G75*
G02*
X107317500Y-99590402I317500J0D01*
G01*
%TO.C,C29*%
D11*
X138303836Y-76358600D02*
X138088164Y-76358600D01*
X138303836Y-77078600D02*
X138088164Y-77078600D01*
%TO.C,R25*%
X146353497Y-75810857D02*
X146353497Y-75336341D01*
X147398497Y-75810857D02*
X147398497Y-75336341D01*
%TO.C,R32*%
X142371000Y-75104958D02*
X142371000Y-75412240D01*
X143131000Y-75104958D02*
X143131000Y-75412240D01*
%TO.C,R38*%
X163140997Y-75104958D02*
X163140997Y-75412240D01*
X163900997Y-75104958D02*
X163900997Y-75412240D01*
%TO.C,J1*%
D12*
X168160399Y-90547000D02*
X168160399Y-100453000D01*
X168160399Y-100453000D02*
X169883807Y-100453000D01*
X169883807Y-90547000D02*
X168160399Y-90547000D01*
X171616193Y-100453000D02*
X173976999Y-100453000D01*
X173976999Y-90547000D02*
X171616193Y-90547000D01*
X173976999Y-100453000D02*
X173976999Y-90547000D01*
D13*
X171067500Y-101397901D02*
G75*
G02*
X170432500Y-101397901I-317500J0D01*
G01*
X170432500Y-101397901D02*
G75*
G02*
X171067500Y-101397901I317500J0D01*
G01*
%TO.C,TP8*%
D11*
X108350000Y-147100000D02*
G75*
G02*
X105950000Y-147100000I-1200000J0D01*
G01*
X105950000Y-147100000D02*
G75*
G02*
X108350000Y-147100000I1200000J0D01*
G01*
%TO.C,R16*%
X121625242Y-103165000D02*
X122099758Y-103165000D01*
X121625242Y-104210000D02*
X122099758Y-104210000D01*
%TO.C,C33*%
X152148836Y-76328600D02*
X151933164Y-76328600D01*
X152148836Y-77048600D02*
X151933164Y-77048600D01*
%TO.C,R19*%
X114360436Y-104290000D02*
X118714564Y-104290000D01*
X114360436Y-107710000D02*
X118714564Y-107710000D01*
%TO.C,CR1*%
D12*
X151927950Y-95174040D02*
X151927950Y-95925962D01*
X151927950Y-97175601D02*
X153578950Y-97175601D01*
X153578950Y-93924401D02*
X151927950Y-93924401D01*
X153578950Y-94975961D02*
X153578950Y-93924401D01*
X153578950Y-97175601D02*
X153578950Y-96124041D01*
%TO.C,C24*%
D11*
X142615000Y-81711252D02*
X142615000Y-80288748D01*
X144435000Y-81711252D02*
X144435000Y-80288748D01*
%TO.C,TP12*%
X90150000Y-137000000D02*
G75*
G02*
X87750000Y-137000000I-1200000J0D01*
G01*
X87750000Y-137000000D02*
G75*
G02*
X90150000Y-137000000I1200000J0D01*
G01*
%TO.C,R17*%
X114360436Y-99665000D02*
X118714564Y-99665000D01*
X114360436Y-103085000D02*
X118714564Y-103085000D01*
%TO.C,R23*%
X139428497Y-75810857D02*
X139428497Y-75336341D01*
X140473497Y-75810857D02*
X140473497Y-75336341D01*
%TO.C,D1*%
D14*
X144766100Y-58992000D02*
X144308900Y-58992000D01*
X144778800Y-60008000D02*
X144296200Y-60008000D01*
D15*
X146231088Y-59500000D02*
G75*
G02*
X146017496Y-59500000I-106796J0D01*
G01*
X146017496Y-59500000D02*
G75*
G02*
X146231088Y-59500000I106796J0D01*
G01*
%TO.C,U2*%
D12*
X158080500Y-90724001D02*
X158080500Y-92334361D01*
X158080500Y-93685641D02*
X158080500Y-94874361D01*
X158080500Y-96225641D02*
X158080500Y-97414361D01*
X158080500Y-98765641D02*
X158080500Y-100376001D01*
X158080500Y-100376001D02*
X165319500Y-100376001D01*
X165319500Y-90724001D02*
X158080500Y-90724001D01*
X165319500Y-92334361D02*
X165319500Y-90724001D01*
X165319500Y-94874361D02*
X165319500Y-93685641D01*
X165319500Y-97414361D02*
X165319500Y-96225641D01*
X165319500Y-100376001D02*
X165319500Y-98765641D01*
%TO.C,C31*%
D11*
X145223833Y-76353599D02*
X145008161Y-76353599D01*
X145223833Y-77073599D02*
X145008161Y-77073599D01*
%TO.C,C36*%
X163893161Y-76328599D02*
X164108833Y-76328599D01*
X163893161Y-77048599D02*
X164108833Y-77048599D01*
%TO.C,TP7*%
X108350000Y-143050000D02*
G75*
G02*
X105950000Y-143050000I-1200000J0D01*
G01*
X105950000Y-143050000D02*
G75*
G02*
X108350000Y-143050000I1200000J0D01*
G01*
%TO.C,TP6*%
X104300000Y-147100000D02*
G75*
G02*
X101900000Y-147100000I-1200000J0D01*
G01*
X101900000Y-147100000D02*
G75*
G02*
X104300000Y-147100000I1200000J0D01*
G01*
%TO.C,R30*%
X161728497Y-75810857D02*
X161728497Y-75336341D01*
X162773497Y-75810857D02*
X162773497Y-75336341D01*
%TO.C,U3*%
D12*
X158080500Y-79642500D02*
X158080500Y-81252860D01*
X158080500Y-82604140D02*
X158080500Y-83792860D01*
X158080500Y-85144140D02*
X158080500Y-86332860D01*
X158080500Y-87684140D02*
X158080500Y-89294500D01*
X158080500Y-89294500D02*
X165319500Y-89294500D01*
X165319500Y-79642500D02*
X158080500Y-79642500D01*
X165319500Y-81252860D02*
X165319500Y-79642500D01*
X165319500Y-83792860D02*
X165319500Y-82604140D01*
X165319500Y-86332860D02*
X165319500Y-85144140D01*
X165319500Y-89294500D02*
X165319500Y-87684140D01*
%TO.C,C11*%
D11*
X142284420Y-100990000D02*
X142565580Y-100990000D01*
X142284420Y-102010000D02*
X142565580Y-102010000D01*
%TO.C,TP5*%
X104300000Y-143050000D02*
G75*
G02*
X101900000Y-143050000I-1200000J0D01*
G01*
X101900000Y-143050000D02*
G75*
G02*
X104300000Y-143050000I1200000J0D01*
G01*
%TO.C,R18*%
X121625242Y-107477500D02*
X122099758Y-107477500D01*
X121625242Y-108522500D02*
X122099758Y-108522500D01*
%TO.C,C28*%
X114088652Y-52765000D02*
X113566148Y-52765000D01*
X114088652Y-54235000D02*
X113566148Y-54235000D01*
%TO.C,C6*%
X134534420Y-99490000D02*
X134815580Y-99490000D01*
X134534420Y-100510000D02*
X134815580Y-100510000D01*
%TO.C,R21*%
X114013637Y-54895000D02*
X112566163Y-54895000D01*
X114013637Y-57605000D02*
X112566163Y-57605000D01*
%TO.C,R31*%
X138296000Y-75104958D02*
X138296000Y-75412240D01*
X139056000Y-75104958D02*
X139056000Y-75412240D01*
%TO.C,R33*%
X145215997Y-75104958D02*
X145215997Y-75412240D01*
X145975997Y-75104958D02*
X145975997Y-75412240D01*
%TO.C,R10*%
X121625242Y-89290000D02*
X122099758Y-89290000D01*
X121625242Y-90335000D02*
X122099758Y-90335000D01*
%TO.C,R40*%
X147070000Y-84214859D02*
X147070000Y-84522141D01*
X147830000Y-84214859D02*
X147830000Y-84522141D01*
%TO.C,C12*%
X143834420Y-99490000D02*
X144115580Y-99490000D01*
X143834420Y-100510000D02*
X144115580Y-100510000D01*
%TO.C,R1*%
X121625242Y-66477500D02*
X122099758Y-66477500D01*
X121625242Y-67522500D02*
X122099758Y-67522500D01*
%TO.C,TP11*%
X90150000Y-132950000D02*
G75*
G02*
X87750000Y-132950000I-1200000J0D01*
G01*
X87750000Y-132950000D02*
G75*
G02*
X90150000Y-132950000I1200000J0D01*
G01*
%TO.C,C7*%
X136084420Y-100990000D02*
X136365580Y-100990000D01*
X136084420Y-102010000D02*
X136365580Y-102010000D01*
%TO.C,R11*%
X114360436Y-85790000D02*
X118714564Y-85790000D01*
X114360436Y-89210000D02*
X118714564Y-89210000D01*
%TO.C,R43*%
X149746359Y-83138499D02*
X150053641Y-83138499D01*
X149746359Y-83898499D02*
X150053641Y-83898499D01*
%TO.C,C8*%
X137634420Y-99490000D02*
X137915580Y-99490000D01*
X137634420Y-100510000D02*
X137915580Y-100510000D01*
%TO.C,R14*%
X121625242Y-98540000D02*
X122099758Y-98540000D01*
X121625242Y-99585000D02*
X122099758Y-99585000D01*
%TO.C,R12*%
X121625242Y-93915000D02*
X122099758Y-93915000D01*
X121625242Y-94960000D02*
X122099758Y-94960000D01*
%TO.C,C25*%
X145415000Y-80857836D02*
X145415000Y-80642164D01*
X146135000Y-80857836D02*
X146135000Y-80642164D01*
%TO.C,R35*%
X152141000Y-75104959D02*
X152141000Y-75412241D01*
X152901000Y-75104959D02*
X152901000Y-75412241D01*
%TO.C,C21*%
X140013748Y-79265000D02*
X140536252Y-79265000D01*
X140013748Y-80735000D02*
X140536252Y-80735000D01*
%TO.C,TP1*%
X96200000Y-143050000D02*
G75*
G02*
X93800000Y-143050000I-1200000J0D01*
G01*
X93800000Y-143050000D02*
G75*
G02*
X96200000Y-143050000I1200000J0D01*
G01*
%TO.C,R29*%
X160188500Y-75810857D02*
X160188500Y-75336341D01*
X161233500Y-75810857D02*
X161233500Y-75336341D01*
%TO.C,TP9*%
X96200000Y-132950000D02*
G75*
G02*
X93800000Y-132950000I-1200000J0D01*
G01*
X93800000Y-132950000D02*
G75*
G02*
X96200000Y-132950000I1200000J0D01*
G01*
%TO.C,C32*%
X150048161Y-76328599D02*
X150263833Y-76328599D01*
X150048161Y-77048599D02*
X150263833Y-77048599D01*
%TO.C,TP13*%
X90150000Y-141050000D02*
G75*
G02*
X87750000Y-141050000I-1200000J0D01*
G01*
X87750000Y-141050000D02*
G75*
G02*
X90150000Y-141050000I1200000J0D01*
G01*
%TO.C,TP10*%
X96200000Y-137000000D02*
G75*
G02*
X93800000Y-137000000I-1200000J0D01*
G01*
X93800000Y-137000000D02*
G75*
G02*
X96200000Y-137000000I1200000J0D01*
G01*
%TO.C,R5*%
X114360436Y-71915000D02*
X118714564Y-71915000D01*
X114360436Y-75335000D02*
X118714564Y-75335000D01*
%TO.C,R44*%
X149746359Y-85038501D02*
X150053641Y-85038501D01*
X149746359Y-85798501D02*
X150053641Y-85798501D01*
%TO.C,R8*%
X121625242Y-84665000D02*
X122099758Y-84665000D01*
X121625242Y-85710000D02*
X122099758Y-85710000D01*
%TO.C,R36*%
X156210997Y-75104959D02*
X156210997Y-75412241D01*
X156970997Y-75104959D02*
X156970997Y-75412241D01*
%TO.C,R27*%
X153268497Y-75810858D02*
X153268497Y-75336342D01*
X154313497Y-75810858D02*
X154313497Y-75336342D01*
%TO.C,TP4*%
X100250000Y-147100000D02*
G75*
G02*
X97850000Y-147100000I-1200000J0D01*
G01*
X97850000Y-147100000D02*
G75*
G02*
X100250000Y-147100000I1200000J0D01*
G01*
%TO.C,C2*%
X131434420Y-99490000D02*
X131715580Y-99490000D01*
X131434420Y-100510000D02*
X131715580Y-100510000D01*
%TO.C,C10*%
X140734420Y-99490000D02*
X141015580Y-99490000D01*
X140734420Y-100510000D02*
X141015580Y-100510000D01*
%TO.C,C5*%
X132984420Y-100990000D02*
X133265580Y-100990000D01*
X132984420Y-102010000D02*
X133265580Y-102010000D01*
%TO.C,C22*%
X150240580Y-103090000D02*
X149959420Y-103090000D01*
X150240580Y-104110000D02*
X149959420Y-104110000D01*
%TO.C,R20*%
X107816163Y-54895000D02*
X109263637Y-54895000D01*
X107816163Y-57605000D02*
X109263637Y-57605000D01*
%TO.C,J2*%
D12*
X167041600Y-80410000D02*
X167041600Y-86441632D01*
X167041600Y-87438367D02*
X167041600Y-89427000D01*
X167041600Y-89427000D02*
X174458400Y-89427000D01*
X174458400Y-80410000D02*
X167041600Y-80410000D01*
X174458400Y-86441632D02*
X174458400Y-80410000D01*
X174458400Y-89427000D02*
X174458400Y-87438367D01*
D13*
X166470100Y-83000000D02*
G75*
G02*
X165835100Y-83000000I-317500J0D01*
G01*
X165835100Y-83000000D02*
G75*
G02*
X166470100Y-83000000I317500J0D01*
G01*
%TO.C,R7*%
D11*
X114360436Y-76540000D02*
X118714564Y-76540000D01*
X114360436Y-79960000D02*
X118714564Y-79960000D01*
%TO.C,C37*%
X148093450Y-94227836D02*
X148093450Y-94012164D01*
X148813450Y-94227836D02*
X148813450Y-94012164D01*
%TO.C,R41*%
X149699809Y-94220000D02*
X150007091Y-94220000D01*
X149699809Y-94980000D02*
X150007091Y-94980000D01*
%TO.C,TP2*%
X96200000Y-147100000D02*
G75*
G02*
X93800000Y-147100000I-1200000J0D01*
G01*
X93800000Y-147100000D02*
G75*
G02*
X96200000Y-147100000I1200000J0D01*
G01*
%TO.C,R39*%
X147073450Y-95396360D02*
X147073450Y-95703642D01*
X147833450Y-95396360D02*
X147833450Y-95703642D01*
%TO.C,C34*%
X156963161Y-76328600D02*
X157178833Y-76328600D01*
X156963161Y-77048600D02*
X157178833Y-77048600D01*
%TO.C,R24*%
X140953497Y-75810857D02*
X140953497Y-75336341D01*
X141998497Y-75810857D02*
X141998497Y-75336341D01*
%TO.C,R37*%
X159051000Y-75104958D02*
X159051000Y-75412240D01*
X159811000Y-75104958D02*
X159811000Y-75412240D01*
%TO.C,R15*%
X114360436Y-95040000D02*
X118714564Y-95040000D01*
X114360436Y-98460000D02*
X118714564Y-98460000D01*
%TO.C,R26*%
X147878497Y-75810857D02*
X147878497Y-75336341D01*
X148923497Y-75810857D02*
X148923497Y-75336341D01*
%TO.C,J4*%
D12*
X144700300Y-64478800D02*
X144700300Y-66485400D01*
X144700300Y-67501400D02*
X144700300Y-68492000D01*
X144700300Y-70371600D02*
X144700300Y-73521200D01*
X144700300Y-73521200D02*
X164105900Y-73521200D01*
X164105900Y-64478800D02*
X144700300Y-64478800D01*
X164105900Y-66485400D02*
X164105900Y-64478800D01*
X164105900Y-68492000D02*
X164105900Y-67501400D01*
X164105900Y-73521200D02*
X164105900Y-70371600D01*
D16*
X164359900Y-70930400D02*
G75*
G02*
X165121900Y-70930400I381000J0D01*
G01*
X165121900Y-70930400D02*
G75*
G02*
X164359900Y-70930400I-381000J0D01*
G01*
%TO.C,U1*%
D17*
X130949999Y-85049999D02*
X131774999Y-85049999D01*
X130949999Y-85874999D02*
X130949999Y-85049999D01*
X130949999Y-95249999D02*
X130949999Y-94424999D01*
X130949999Y-95249999D02*
X131774999Y-95249999D01*
X140324999Y-85049999D02*
X141149999Y-85049999D01*
X140324999Y-95249999D02*
X141149999Y-95249999D01*
X141149999Y-85874999D02*
X141149999Y-85049999D01*
X141149999Y-95249999D02*
X141149999Y-94424999D01*
D18*
X130475001Y-85699998D02*
G75*
G02*
X130224999Y-85699998I-125001J0D01*
G01*
X130224999Y-85699998D02*
G75*
G02*
X130475001Y-85699998I125001J0D01*
G01*
%TO.C,C40*%
D11*
X148090000Y-85790665D02*
X148090000Y-86006337D01*
X148810000Y-85790665D02*
X148810000Y-86006337D01*
%TO.C,R22*%
X145138475Y-57907400D02*
X145445757Y-57907400D01*
X145138475Y-58667400D02*
X145445757Y-58667400D01*
%TO.C,R28*%
X154793497Y-75810858D02*
X154793497Y-75336342D01*
X155838497Y-75810858D02*
X155838497Y-75336342D01*
%TO.C,CR2*%
D12*
X151927950Y-84092539D02*
X151927950Y-84844461D01*
X151927950Y-86094100D02*
X153578950Y-86094100D01*
X153578950Y-82842900D02*
X151927950Y-82842900D01*
X153578950Y-83894460D02*
X153578950Y-82842900D01*
X153578950Y-86094100D02*
X153578950Y-85042540D01*
%TO.C,C30*%
D11*
X143123164Y-76358600D02*
X143338836Y-76358600D01*
X143123164Y-77078600D02*
X143338836Y-77078600D01*
%TO.C,Q1*%
D12*
X117717300Y-51520200D02*
X117717300Y-51911360D01*
X117717300Y-58088640D02*
X117717300Y-58479800D01*
X117717300Y-58479800D02*
X124168900Y-58479800D01*
X124168900Y-51520200D02*
X117717300Y-51520200D01*
X124168900Y-58479800D02*
X124168900Y-51520200D01*
X124651500Y-52275499D02*
X125769100Y-52275499D01*
X124651500Y-53164499D02*
X125769100Y-53164499D01*
X124651500Y-56835501D02*
X125769100Y-56835501D01*
X124651500Y-57724501D02*
X125769100Y-57724501D01*
%TO.C,C38*%
D11*
X148093450Y-96872166D02*
X148093450Y-97087838D01*
X148813450Y-96872166D02*
X148813450Y-97087838D01*
%TO.C,C41*%
X155761286Y-95190001D02*
X155545614Y-95190001D01*
X155761286Y-95910001D02*
X155545614Y-95910001D01*
%TO.C,R13*%
X114360436Y-90415000D02*
X118714564Y-90415000D01*
X114360436Y-93835000D02*
X118714564Y-93835000D01*
%TO.C,C26*%
X134140580Y-82240000D02*
X133859420Y-82240000D01*
X134140580Y-83260000D02*
X133859420Y-83260000D01*
%TO.C,C23*%
X150540580Y-101190000D02*
X150259420Y-101190000D01*
X150540580Y-102210000D02*
X150259420Y-102210000D01*
%TO.C,C42*%
X155807836Y-84108500D02*
X155592164Y-84108500D01*
X155807836Y-84828500D02*
X155592164Y-84828500D01*
%TO.C,C35*%
X159058836Y-76328599D02*
X158843164Y-76328599D01*
X159058836Y-77048599D02*
X158843164Y-77048599D01*
%TO.C,R4*%
X121625242Y-75415000D02*
X122099758Y-75415000D01*
X121625242Y-76460000D02*
X122099758Y-76460000D01*
%TO.C,C9*%
X139184420Y-100990000D02*
X139465580Y-100990000D01*
X139184420Y-102010000D02*
X139465580Y-102010000D01*
%TO.C,TP3*%
X100250000Y-143050000D02*
G75*
G02*
X97850000Y-143050000I-1200000J0D01*
G01*
X97850000Y-143050000D02*
G75*
G02*
X100250000Y-143050000I1200000J0D01*
G01*
%TO.C,R6*%
X121625242Y-80040000D02*
X122099758Y-80040000D01*
X121625242Y-81085000D02*
X122099758Y-81085000D01*
%TO.C,R42*%
X149699809Y-96120002D02*
X150007091Y-96120002D01*
X149699809Y-96880002D02*
X150007091Y-96880002D01*
%TO.C,R3*%
X114360436Y-67290000D02*
X118714564Y-67290000D01*
X114360436Y-70710000D02*
X118714564Y-70710000D01*
%TO.C,TP14*%
X90150000Y-145100000D02*
G75*
G02*
X87750000Y-145100000I-1200000J0D01*
G01*
X87750000Y-145100000D02*
G75*
G02*
X90150000Y-145100000I1200000J0D01*
G01*
%TD*%
%LPC*%
D19*
%TO.C,U1*%
G36*
X139300000Y-86949998D02*
G01*
X139300000Y-93350000D01*
X139250000Y-93400000D01*
X132849998Y-93400000D01*
X132799998Y-93350000D01*
X132799998Y-86949998D01*
X132849998Y-86899998D01*
X139250000Y-86899998D01*
X139300000Y-86949998D01*
G37*
%TD*%
D20*
%TO.C,R2*%
X121037500Y-71312500D03*
X122687500Y-71312500D03*
%TD*%
D21*
%TO.C,R34*%
X149675997Y-74748599D03*
X149675997Y-75768599D03*
%TD*%
D22*
%TO.C,R9*%
X113575000Y-82875000D03*
X119500000Y-82875000D03*
%TD*%
D23*
%TO.C,C39*%
X148450000Y-83518499D03*
X148450000Y-82558499D03*
%TD*%
D24*
%TO.C,C1*%
X129250000Y-100000000D03*
X127700000Y-100000000D03*
%TD*%
D25*
%TO.C,D2*%
X137000000Y-80357000D03*
X137000000Y-82643000D03*
%TD*%
D26*
%TO.C,C27*%
X136290000Y-54619999D03*
X137250000Y-54619999D03*
%TD*%
D27*
%TO.C,J3*%
X107000000Y-95000000D03*
X107000000Y-92000001D03*
X107000000Y-89000002D03*
X107000000Y-86000002D03*
X107000000Y-83000003D03*
X107000000Y-80000004D03*
X109999999Y-95000000D03*
X109999999Y-92000001D03*
X109999999Y-89000002D03*
X109999999Y-86000002D03*
X109999999Y-83000003D03*
X109999999Y-80000004D03*
%TD*%
D28*
%TO.C,C29*%
X138676000Y-76718600D03*
X137716000Y-76718600D03*
%TD*%
D29*
%TO.C,R25*%
X146875997Y-76398599D03*
X146875997Y-74748599D03*
%TD*%
D30*
%TO.C,FID2*%
X167000000Y-106500000D03*
%TD*%
D21*
%TO.C,R32*%
X142751000Y-74748599D03*
X142751000Y-75768599D03*
%TD*%
%TO.C,R38*%
X163520997Y-74748599D03*
X163520997Y-75768599D03*
%TD*%
D31*
%TO.C,J1*%
X170750000Y-91850000D03*
X170750000Y-99150001D03*
D27*
X170750000Y-97000000D03*
X170750000Y-94000001D03*
%TD*%
D32*
%TO.C,TP8*%
X107150000Y-147100000D03*
%TD*%
D20*
%TO.C,R16*%
X121037500Y-103687500D03*
X122687500Y-103687500D03*
%TD*%
D28*
%TO.C,C33*%
X152521000Y-76688600D03*
X151561000Y-76688600D03*
%TD*%
D22*
%TO.C,R19*%
X113575000Y-106000000D03*
X119500000Y-106000000D03*
%TD*%
D33*
%TO.C,CR1*%
X151604100Y-94600000D03*
X151604100Y-96500002D03*
X153902800Y-95550001D03*
%TD*%
D34*
%TO.C,C24*%
X143525000Y-82475000D03*
X143525000Y-79525000D03*
%TD*%
D32*
%TO.C,TP12*%
X88950000Y-137000000D03*
%TD*%
D22*
%TO.C,R17*%
X113575000Y-101375000D03*
X119500000Y-101375000D03*
%TD*%
D29*
%TO.C,R23*%
X139950997Y-76398599D03*
X139950997Y-74748599D03*
%TD*%
D35*
%TO.C,D1*%
X145325000Y-59500000D03*
X143750000Y-59500000D03*
%TD*%
D30*
%TO.C,FID3*%
X167000000Y-68750000D03*
%TD*%
D36*
%TO.C,U2*%
X157553450Y-93010001D03*
X157553450Y-95550001D03*
X157553450Y-98090001D03*
X165846550Y-98090001D03*
X165846550Y-95550001D03*
X165846550Y-93010001D03*
%TD*%
D37*
%TO.C,H2*%
X171250000Y-106250000D03*
%TD*%
D28*
%TO.C,C31*%
X145595997Y-76713599D03*
X144635997Y-76713599D03*
%TD*%
D26*
%TO.C,C36*%
X163520997Y-76688599D03*
X164480997Y-76688599D03*
%TD*%
D32*
%TO.C,TP7*%
X107150000Y-143050000D03*
%TD*%
%TO.C,TP6*%
X103100000Y-147100000D03*
%TD*%
D29*
%TO.C,R30*%
X162250997Y-76398599D03*
X162250997Y-74748599D03*
%TD*%
D36*
%TO.C,U3*%
X157553450Y-81928500D03*
X157553450Y-84468500D03*
X157553450Y-87008500D03*
X165846550Y-87008500D03*
X165846550Y-84468500D03*
X165846550Y-81928500D03*
%TD*%
D38*
%TO.C,C11*%
X141650000Y-101500000D03*
X143200000Y-101500000D03*
%TD*%
D32*
%TO.C,TP5*%
X103100000Y-143050000D03*
%TD*%
D20*
%TO.C,R18*%
X121037500Y-108000000D03*
X122687500Y-108000000D03*
%TD*%
D39*
%TO.C,C28*%
X114777400Y-53500000D03*
X112877400Y-53500000D03*
%TD*%
D38*
%TO.C,C6*%
X133900000Y-100000000D03*
X135450000Y-100000000D03*
%TD*%
D40*
%TO.C,R21*%
X114752400Y-56250000D03*
X111827400Y-56250000D03*
%TD*%
D21*
%TO.C,R31*%
X138676000Y-74748599D03*
X138676000Y-75768599D03*
%TD*%
%TO.C,R33*%
X145595997Y-74748599D03*
X145595997Y-75768599D03*
%TD*%
D20*
%TO.C,R10*%
X121037500Y-89812500D03*
X122687500Y-89812500D03*
%TD*%
D21*
%TO.C,R40*%
X147450000Y-83858500D03*
X147450000Y-84878500D03*
%TD*%
D38*
%TO.C,C12*%
X143200000Y-100000000D03*
X144750000Y-100000000D03*
%TD*%
D37*
%TO.C,H1*%
X103750000Y-106250000D03*
%TD*%
D20*
%TO.C,R1*%
X121037500Y-67000000D03*
X122687500Y-67000000D03*
%TD*%
D32*
%TO.C,TP11*%
X88950000Y-132950000D03*
%TD*%
D38*
%TO.C,C7*%
X135450000Y-101500000D03*
X137000000Y-101500000D03*
%TD*%
D22*
%TO.C,R11*%
X113575000Y-87500000D03*
X119500000Y-87500000D03*
%TD*%
D41*
%TO.C,R43*%
X149390000Y-83518499D03*
X150410000Y-83518499D03*
%TD*%
D38*
%TO.C,C8*%
X137000000Y-100000000D03*
X138550000Y-100000000D03*
%TD*%
D20*
%TO.C,R14*%
X121037500Y-99062500D03*
X122687500Y-99062500D03*
%TD*%
%TO.C,R12*%
X121037500Y-94437500D03*
X122687500Y-94437500D03*
%TD*%
D23*
%TO.C,C25*%
X145775000Y-81230000D03*
X145775000Y-80270000D03*
%TD*%
D21*
%TO.C,R35*%
X152521000Y-74748600D03*
X152521000Y-75768600D03*
%TD*%
D42*
%TO.C,C21*%
X139325000Y-80000000D03*
X141225000Y-80000000D03*
%TD*%
D32*
%TO.C,TP1*%
X95000000Y-143050000D03*
%TD*%
D29*
%TO.C,R29*%
X160711000Y-76398599D03*
X160711000Y-74748599D03*
%TD*%
D32*
%TO.C,TP9*%
X95000000Y-132950000D03*
%TD*%
D26*
%TO.C,C32*%
X149675997Y-76688599D03*
X150635997Y-76688599D03*
%TD*%
D32*
%TO.C,TP13*%
X88950000Y-141050000D03*
%TD*%
%TO.C,TP10*%
X95000000Y-137000000D03*
%TD*%
D22*
%TO.C,R5*%
X113575000Y-73625000D03*
X119500000Y-73625000D03*
%TD*%
D41*
%TO.C,R44*%
X149390000Y-85418501D03*
X150410000Y-85418501D03*
%TD*%
D20*
%TO.C,R8*%
X121037500Y-85187500D03*
X122687500Y-85187500D03*
%TD*%
D21*
%TO.C,R36*%
X156590997Y-74748600D03*
X156590997Y-75768600D03*
%TD*%
D29*
%TO.C,R27*%
X153790997Y-76398600D03*
X153790997Y-74748600D03*
%TD*%
D32*
%TO.C,TP4*%
X99050000Y-147100000D03*
%TD*%
D38*
%TO.C,C2*%
X130800000Y-100000000D03*
X132350000Y-100000000D03*
%TD*%
%TO.C,C10*%
X140100000Y-100000000D03*
X141650000Y-100000000D03*
%TD*%
%TO.C,C5*%
X132350000Y-101500000D03*
X133900000Y-101500000D03*
%TD*%
D24*
%TO.C,C22*%
X150875000Y-103600000D03*
X149325000Y-103600000D03*
%TD*%
D43*
%TO.C,R20*%
X107077400Y-56250000D03*
X110002400Y-56250000D03*
%TD*%
D37*
%TO.C,H3*%
X171250000Y-68750000D03*
%TD*%
D44*
%TO.C,J2*%
X173750002Y-86940000D03*
X167749998Y-86940000D03*
D27*
X170750000Y-83000000D03*
X170750000Y-85999999D03*
%TD*%
D22*
%TO.C,R7*%
X113575000Y-78250000D03*
X119500000Y-78250000D03*
%TD*%
D23*
%TO.C,C37*%
X148453450Y-94600000D03*
X148453450Y-93640000D03*
%TD*%
D41*
%TO.C,R41*%
X149343450Y-94600000D03*
X150363450Y-94600000D03*
%TD*%
D32*
%TO.C,TP2*%
X95000000Y-147100000D03*
%TD*%
D21*
%TO.C,R39*%
X147453450Y-95040001D03*
X147453450Y-96060001D03*
%TD*%
D26*
%TO.C,C34*%
X156590997Y-76688600D03*
X157550997Y-76688600D03*
%TD*%
D29*
%TO.C,R24*%
X141475997Y-76398599D03*
X141475997Y-74748599D03*
%TD*%
D21*
%TO.C,R37*%
X159431000Y-74748599D03*
X159431000Y-75768599D03*
%TD*%
D22*
%TO.C,R15*%
X113575000Y-96750000D03*
X119500000Y-96750000D03*
%TD*%
D29*
%TO.C,R26*%
X148400997Y-76398599D03*
X148400997Y-74748599D03*
%TD*%
D44*
%TO.C,J4*%
X145386100Y-66993400D03*
X163394700Y-66993400D03*
D45*
X160397500Y-70930400D03*
X157400300Y-70930400D03*
X154403100Y-70930400D03*
X151405900Y-70930400D03*
X148408700Y-70930400D03*
X160397500Y-67933200D03*
X157400300Y-67933200D03*
X154403100Y-67933200D03*
X151405900Y-67933200D03*
X148408700Y-67933200D03*
D46*
X146249700Y-69431800D03*
X162556500Y-69431800D03*
%TD*%
D47*
%TO.C,U1*%
X130350000Y-86399999D03*
X130350000Y-86899998D03*
X130350000Y-87399999D03*
X130350000Y-87899998D03*
X130350000Y-88400000D03*
X130350000Y-88899999D03*
X130350000Y-89399998D03*
X130350000Y-89899999D03*
X130350000Y-90399999D03*
X130350000Y-90900000D03*
X130350000Y-91399999D03*
X130350000Y-91899998D03*
X130350000Y-92400000D03*
X130350000Y-92899999D03*
X130350000Y-93400000D03*
X130350000Y-93899999D03*
D48*
X132299999Y-95849998D03*
X132799998Y-95849998D03*
X133299999Y-95849998D03*
X133799998Y-95849998D03*
X134300000Y-95849998D03*
X134799999Y-95849998D03*
X135299998Y-95849998D03*
X135799999Y-95849998D03*
X136299999Y-95849998D03*
X136800000Y-95849998D03*
X137299999Y-95849998D03*
X137799998Y-95849998D03*
X138300000Y-95849998D03*
X138799999Y-95849998D03*
X139300000Y-95849998D03*
X139799999Y-95849998D03*
D47*
X141749998Y-93899999D03*
X141749998Y-93400000D03*
X141749998Y-92899999D03*
X141749998Y-92400000D03*
X141749998Y-91899998D03*
X141749998Y-91399999D03*
X141749998Y-90900000D03*
X141749998Y-90399999D03*
X141749998Y-89899999D03*
X141749998Y-89399998D03*
X141749998Y-88899999D03*
X141749998Y-88400000D03*
X141749998Y-87899998D03*
X141749998Y-87399999D03*
X141749998Y-86899998D03*
X141749998Y-86399999D03*
D48*
X139799999Y-84450000D03*
X139300000Y-84450000D03*
X138799999Y-84450000D03*
X138300000Y-84450000D03*
X137799998Y-84450000D03*
X137299999Y-84450000D03*
X136800000Y-84450000D03*
X136299999Y-84450000D03*
X135799999Y-84450000D03*
X135299998Y-84450000D03*
X134799999Y-84450000D03*
X134300000Y-84450000D03*
X133799998Y-84450000D03*
X133299999Y-84450000D03*
X132799998Y-84450000D03*
X132299999Y-84450000D03*
D49*
X132799998Y-86899998D03*
X132799998Y-88199998D03*
X132799998Y-89500000D03*
X132799998Y-90800000D03*
X132799998Y-92100000D03*
X132799998Y-93400000D03*
X134099998Y-86899998D03*
X134099998Y-88199998D03*
X134099998Y-89500000D03*
X134099998Y-90800000D03*
X134099998Y-92100000D03*
X134099998Y-93400000D03*
X135399998Y-86899998D03*
X135399998Y-88199998D03*
X135399998Y-89500000D03*
X135399998Y-90800000D03*
X135399998Y-92100000D03*
X135399998Y-93400000D03*
X136700000Y-86899998D03*
X136700000Y-88199998D03*
X136700000Y-89500000D03*
X136700000Y-90800000D03*
X136700000Y-92100000D03*
X136700000Y-93400000D03*
X138000000Y-86899998D03*
X138000000Y-88199998D03*
X138000000Y-89500000D03*
X138000000Y-90800000D03*
X138000000Y-92100000D03*
X138000000Y-93400000D03*
X139300000Y-86899998D03*
X139300000Y-88199998D03*
X139300000Y-89500000D03*
X139300000Y-90800000D03*
X139300000Y-92100000D03*
X139300000Y-93400000D03*
%TD*%
D50*
%TO.C,C40*%
X148450000Y-85418501D03*
X148450000Y-86378501D03*
%TD*%
D41*
%TO.C,R22*%
X144782116Y-58287400D03*
X145802116Y-58287400D03*
%TD*%
D30*
%TO.C,FID1*%
X108000000Y-106250000D03*
%TD*%
D29*
%TO.C,R28*%
X155315997Y-76398600D03*
X155315997Y-74748600D03*
%TD*%
D33*
%TO.C,CR2*%
X151604100Y-83518499D03*
X151604100Y-85418501D03*
X153902800Y-84468500D03*
%TD*%
D26*
%TO.C,C30*%
X142751000Y-76718600D03*
X143711000Y-76718600D03*
%TD*%
D51*
%TO.C,Q1*%
X119000000Y-55000000D03*
D52*
X127369300Y-57280001D03*
X127369300Y-52719999D03*
%TD*%
D50*
%TO.C,C38*%
X148453450Y-96500002D03*
X148453450Y-97460002D03*
%TD*%
D28*
%TO.C,C41*%
X156133450Y-95550001D03*
X155173450Y-95550001D03*
%TD*%
D22*
%TO.C,R13*%
X113575000Y-92125000D03*
X119500000Y-92125000D03*
%TD*%
D24*
%TO.C,C26*%
X134775000Y-82750000D03*
X133225000Y-82750000D03*
%TD*%
%TO.C,C23*%
X151175000Y-101700000D03*
X149625000Y-101700000D03*
%TD*%
D28*
%TO.C,C42*%
X156180000Y-84468500D03*
X155220000Y-84468500D03*
%TD*%
%TO.C,C35*%
X159431000Y-76688599D03*
X158471000Y-76688599D03*
%TD*%
D20*
%TO.C,R4*%
X121037500Y-75937500D03*
X122687500Y-75937500D03*
%TD*%
D37*
%TO.C,H4*%
X103750000Y-68750000D03*
%TD*%
D38*
%TO.C,C9*%
X138550000Y-101500000D03*
X140100000Y-101500000D03*
%TD*%
D32*
%TO.C,TP3*%
X99050000Y-143050000D03*
%TD*%
D20*
%TO.C,R6*%
X121037500Y-80562500D03*
X122687500Y-80562500D03*
%TD*%
D41*
%TO.C,R42*%
X149343450Y-96500002D03*
X150363450Y-96500002D03*
%TD*%
D22*
%TO.C,R3*%
X113575000Y-69000000D03*
X119500000Y-69000000D03*
%TD*%
D32*
%TO.C,TP14*%
X88950000Y-145100000D03*
%TD*%
%LPD*%
M02*
