%TF.GenerationSoftware,KiCad,Pcbnew,10.0.5-unknown-202607221313~667fa36054~ubuntu25.10.1*%
%TF.CreationDate,Date%
%TF.ProjectId,bms_slave,626d735f-736c-4617-9665-2e6b69636164,+ (Unreleased)*%
%TF.SameCoordinates,Original*%
%TF.FileFunction,Legend,Bot*%
%TF.FilePolarity,Positive*%
%FSLAX46Y46*%
G04 Gerber Fmt 4.6, Leading zero omitted, Abs format (unit mm)*
G04 Created by KiCad*
%MOMM*%
%LPD*%
G01*
G04 APERTURE LIST*
G04 Aperture macros list*
%AMRoundRect*
0 Rectangle with rounded corners*
0 $1 Rounding radius*
0 $2 $3 $4 $5 $6 $7 $8 $9 X,Y pos of 4 corners*
0 Add a 4 corners polygon primitive as box body*
4,1,4,$2,$3,$4,$5,$6,$7,$8,$9,$2,$3,0*
0 Add four circle primitives for the rounded corners*
1,1,$1+$1,$2,$3*
1,1,$1+$1,$4,$5*
1,1,$1+$1,$6,$7*
1,1,$1+$1,$8,$9*
0 Add four rect primitives between the rounded corners*
20,1,$1+$1,$2,$3,$4,$5,0*
20,1,$1+$1,$4,$5,$6,$7,0*
20,1,$1+$1,$6,$7,$8,$9,0*
20,1,$1+$1,$8,$9,$2,$3,0*%
G04 Aperture macros list end*
%ADD10C,0.150000*%
%ADD11C,0.635000*%
%ADD12C,0.508000*%
%ADD13C,0.120000*%
%ADD14C,2.463800*%
%ADD15C,1.574800*%
%ADD16C,3.200000*%
%ADD17C,1.066800*%
%ADD18C,0.499999*%
%ADD19RoundRect,0.225000X-0.225000X-0.250000X0.225000X-0.250000X0.225000X0.250000X-0.225000X0.250000X0*%
G04 APERTURE END LIST*
D10*
X137917857Y-100789580D02*
X137965476Y-100837200D01*
X137965476Y-100837200D02*
X138108333Y-100884819D01*
X138108333Y-100884819D02*
X138203571Y-100884819D01*
X138203571Y-100884819D02*
X138346428Y-100837200D01*
X138346428Y-100837200D02*
X138441666Y-100741961D01*
X138441666Y-100741961D02*
X138489285Y-100646723D01*
X138489285Y-100646723D02*
X138536904Y-100456247D01*
X138536904Y-100456247D02*
X138536904Y-100313390D01*
X138536904Y-100313390D02*
X138489285Y-100122914D01*
X138489285Y-100122914D02*
X138441666Y-100027676D01*
X138441666Y-100027676D02*
X138346428Y-99932438D01*
X138346428Y-99932438D02*
X138203571Y-99884819D01*
X138203571Y-99884819D02*
X138108333Y-99884819D01*
X138108333Y-99884819D02*
X137965476Y-99932438D01*
X137965476Y-99932438D02*
X137917857Y-99980057D01*
X136965476Y-100884819D02*
X137536904Y-100884819D01*
X137251190Y-100884819D02*
X137251190Y-99884819D01*
X137251190Y-99884819D02*
X137346428Y-100027676D01*
X137346428Y-100027676D02*
X137441666Y-100122914D01*
X137441666Y-100122914D02*
X137536904Y-100170533D01*
X136394047Y-100313390D02*
X136489285Y-100265771D01*
X136489285Y-100265771D02*
X136536904Y-100218152D01*
X136536904Y-100218152D02*
X136584523Y-100122914D01*
X136584523Y-100122914D02*
X136584523Y-100075295D01*
X136584523Y-100075295D02*
X136536904Y-99980057D01*
X136536904Y-99980057D02*
X136489285Y-99932438D01*
X136489285Y-99932438D02*
X136394047Y-99884819D01*
X136394047Y-99884819D02*
X136203571Y-99884819D01*
X136203571Y-99884819D02*
X136108333Y-99932438D01*
X136108333Y-99932438D02*
X136060714Y-99980057D01*
X136060714Y-99980057D02*
X136013095Y-100075295D01*
X136013095Y-100075295D02*
X136013095Y-100122914D01*
X136013095Y-100122914D02*
X136060714Y-100218152D01*
X136060714Y-100218152D02*
X136108333Y-100265771D01*
X136108333Y-100265771D02*
X136203571Y-100313390D01*
X136203571Y-100313390D02*
X136394047Y-100313390D01*
X136394047Y-100313390D02*
X136489285Y-100361009D01*
X136489285Y-100361009D02*
X136536904Y-100408628D01*
X136536904Y-100408628D02*
X136584523Y-100503866D01*
X136584523Y-100503866D02*
X136584523Y-100694342D01*
X136584523Y-100694342D02*
X136536904Y-100789580D01*
X136536904Y-100789580D02*
X136489285Y-100837200D01*
X136489285Y-100837200D02*
X136394047Y-100884819D01*
X136394047Y-100884819D02*
X136203571Y-100884819D01*
X136203571Y-100884819D02*
X136108333Y-100837200D01*
X136108333Y-100837200D02*
X136060714Y-100789580D01*
X136060714Y-100789580D02*
X136013095Y-100694342D01*
X136013095Y-100694342D02*
X136013095Y-100503866D01*
X136013095Y-100503866D02*
X136060714Y-100408628D01*
X136060714Y-100408628D02*
X136108333Y-100361009D01*
X136108333Y-100361009D02*
X136203571Y-100313390D01*
X128416666Y-100789580D02*
X128464285Y-100837200D01*
X128464285Y-100837200D02*
X128607142Y-100884819D01*
X128607142Y-100884819D02*
X128702380Y-100884819D01*
X128702380Y-100884819D02*
X128845237Y-100837200D01*
X128845237Y-100837200D02*
X128940475Y-100741961D01*
X128940475Y-100741961D02*
X128988094Y-100646723D01*
X128988094Y-100646723D02*
X129035713Y-100456247D01*
X129035713Y-100456247D02*
X129035713Y-100313390D01*
X129035713Y-100313390D02*
X128988094Y-100122914D01*
X128988094Y-100122914D02*
X128940475Y-100027676D01*
X128940475Y-100027676D02*
X128845237Y-99932438D01*
X128845237Y-99932438D02*
X128702380Y-99884819D01*
X128702380Y-99884819D02*
X128607142Y-99884819D01*
X128607142Y-99884819D02*
X128464285Y-99932438D01*
X128464285Y-99932438D02*
X128416666Y-99980057D01*
X127559523Y-100218152D02*
X127559523Y-100884819D01*
X127797618Y-99837200D02*
X128035713Y-100551485D01*
X128035713Y-100551485D02*
X127416666Y-100551485D01*
X139392857Y-102289580D02*
X139440476Y-102337200D01*
X139440476Y-102337200D02*
X139583333Y-102384819D01*
X139583333Y-102384819D02*
X139678571Y-102384819D01*
X139678571Y-102384819D02*
X139821428Y-102337200D01*
X139821428Y-102337200D02*
X139916666Y-102241961D01*
X139916666Y-102241961D02*
X139964285Y-102146723D01*
X139964285Y-102146723D02*
X140011904Y-101956247D01*
X140011904Y-101956247D02*
X140011904Y-101813390D01*
X140011904Y-101813390D02*
X139964285Y-101622914D01*
X139964285Y-101622914D02*
X139916666Y-101527676D01*
X139916666Y-101527676D02*
X139821428Y-101432438D01*
X139821428Y-101432438D02*
X139678571Y-101384819D01*
X139678571Y-101384819D02*
X139583333Y-101384819D01*
X139583333Y-101384819D02*
X139440476Y-101432438D01*
X139440476Y-101432438D02*
X139392857Y-101480057D01*
X138440476Y-102384819D02*
X139011904Y-102384819D01*
X138726190Y-102384819D02*
X138726190Y-101384819D01*
X138726190Y-101384819D02*
X138821428Y-101527676D01*
X138821428Y-101527676D02*
X138916666Y-101622914D01*
X138916666Y-101622914D02*
X139011904Y-101670533D01*
X137964285Y-102384819D02*
X137773809Y-102384819D01*
X137773809Y-102384819D02*
X137678571Y-102337200D01*
X137678571Y-102337200D02*
X137630952Y-102289580D01*
X137630952Y-102289580D02*
X137535714Y-102146723D01*
X137535714Y-102146723D02*
X137488095Y-101956247D01*
X137488095Y-101956247D02*
X137488095Y-101575295D01*
X137488095Y-101575295D02*
X137535714Y-101480057D01*
X137535714Y-101480057D02*
X137583333Y-101432438D01*
X137583333Y-101432438D02*
X137678571Y-101384819D01*
X137678571Y-101384819D02*
X137869047Y-101384819D01*
X137869047Y-101384819D02*
X137964285Y-101432438D01*
X137964285Y-101432438D02*
X138011904Y-101480057D01*
X138011904Y-101480057D02*
X138059523Y-101575295D01*
X138059523Y-101575295D02*
X138059523Y-101813390D01*
X138059523Y-101813390D02*
X138011904Y-101908628D01*
X138011904Y-101908628D02*
X137964285Y-101956247D01*
X137964285Y-101956247D02*
X137869047Y-102003866D01*
X137869047Y-102003866D02*
X137678571Y-102003866D01*
X137678571Y-102003866D02*
X137583333Y-101956247D01*
X137583333Y-101956247D02*
X137535714Y-101908628D01*
X137535714Y-101908628D02*
X137488095Y-101813390D01*
X133367857Y-102289580D02*
X133415476Y-102337200D01*
X133415476Y-102337200D02*
X133558333Y-102384819D01*
X133558333Y-102384819D02*
X133653571Y-102384819D01*
X133653571Y-102384819D02*
X133796428Y-102337200D01*
X133796428Y-102337200D02*
X133891666Y-102241961D01*
X133891666Y-102241961D02*
X133939285Y-102146723D01*
X133939285Y-102146723D02*
X133986904Y-101956247D01*
X133986904Y-101956247D02*
X133986904Y-101813390D01*
X133986904Y-101813390D02*
X133939285Y-101622914D01*
X133939285Y-101622914D02*
X133891666Y-101527676D01*
X133891666Y-101527676D02*
X133796428Y-101432438D01*
X133796428Y-101432438D02*
X133653571Y-101384819D01*
X133653571Y-101384819D02*
X133558333Y-101384819D01*
X133558333Y-101384819D02*
X133415476Y-101432438D01*
X133415476Y-101432438D02*
X133367857Y-101480057D01*
X132415476Y-102384819D02*
X132986904Y-102384819D01*
X132701190Y-102384819D02*
X132701190Y-101384819D01*
X132701190Y-101384819D02*
X132796428Y-101527676D01*
X132796428Y-101527676D02*
X132891666Y-101622914D01*
X132891666Y-101622914D02*
X132986904Y-101670533D01*
X131510714Y-101384819D02*
X131986904Y-101384819D01*
X131986904Y-101384819D02*
X132034523Y-101861009D01*
X132034523Y-101861009D02*
X131986904Y-101813390D01*
X131986904Y-101813390D02*
X131891666Y-101765771D01*
X131891666Y-101765771D02*
X131653571Y-101765771D01*
X131653571Y-101765771D02*
X131558333Y-101813390D01*
X131558333Y-101813390D02*
X131510714Y-101861009D01*
X131510714Y-101861009D02*
X131463095Y-101956247D01*
X131463095Y-101956247D02*
X131463095Y-102194342D01*
X131463095Y-102194342D02*
X131510714Y-102289580D01*
X131510714Y-102289580D02*
X131558333Y-102337200D01*
X131558333Y-102337200D02*
X131653571Y-102384819D01*
X131653571Y-102384819D02*
X131891666Y-102384819D01*
X131891666Y-102384819D02*
X131986904Y-102337200D01*
X131986904Y-102337200D02*
X132034523Y-102289580D01*
X134867857Y-100789580D02*
X134915476Y-100837200D01*
X134915476Y-100837200D02*
X135058333Y-100884819D01*
X135058333Y-100884819D02*
X135153571Y-100884819D01*
X135153571Y-100884819D02*
X135296428Y-100837200D01*
X135296428Y-100837200D02*
X135391666Y-100741961D01*
X135391666Y-100741961D02*
X135439285Y-100646723D01*
X135439285Y-100646723D02*
X135486904Y-100456247D01*
X135486904Y-100456247D02*
X135486904Y-100313390D01*
X135486904Y-100313390D02*
X135439285Y-100122914D01*
X135439285Y-100122914D02*
X135391666Y-100027676D01*
X135391666Y-100027676D02*
X135296428Y-99932438D01*
X135296428Y-99932438D02*
X135153571Y-99884819D01*
X135153571Y-99884819D02*
X135058333Y-99884819D01*
X135058333Y-99884819D02*
X134915476Y-99932438D01*
X134915476Y-99932438D02*
X134867857Y-99980057D01*
X133915476Y-100884819D02*
X134486904Y-100884819D01*
X134201190Y-100884819D02*
X134201190Y-99884819D01*
X134201190Y-99884819D02*
X134296428Y-100027676D01*
X134296428Y-100027676D02*
X134391666Y-100122914D01*
X134391666Y-100122914D02*
X134486904Y-100170533D01*
X133058333Y-99884819D02*
X133248809Y-99884819D01*
X133248809Y-99884819D02*
X133344047Y-99932438D01*
X133344047Y-99932438D02*
X133391666Y-99980057D01*
X133391666Y-99980057D02*
X133486904Y-100122914D01*
X133486904Y-100122914D02*
X133534523Y-100313390D01*
X133534523Y-100313390D02*
X133534523Y-100694342D01*
X133534523Y-100694342D02*
X133486904Y-100789580D01*
X133486904Y-100789580D02*
X133439285Y-100837200D01*
X133439285Y-100837200D02*
X133344047Y-100884819D01*
X133344047Y-100884819D02*
X133153571Y-100884819D01*
X133153571Y-100884819D02*
X133058333Y-100837200D01*
X133058333Y-100837200D02*
X133010714Y-100789580D01*
X133010714Y-100789580D02*
X132963095Y-100694342D01*
X132963095Y-100694342D02*
X132963095Y-100456247D01*
X132963095Y-100456247D02*
X133010714Y-100361009D01*
X133010714Y-100361009D02*
X133058333Y-100313390D01*
X133058333Y-100313390D02*
X133153571Y-100265771D01*
X133153571Y-100265771D02*
X133344047Y-100265771D01*
X133344047Y-100265771D02*
X133439285Y-100313390D01*
X133439285Y-100313390D02*
X133486904Y-100361009D01*
X133486904Y-100361009D02*
X133534523Y-100456247D01*
X140892857Y-100789580D02*
X140940476Y-100837200D01*
X140940476Y-100837200D02*
X141083333Y-100884819D01*
X141083333Y-100884819D02*
X141178571Y-100884819D01*
X141178571Y-100884819D02*
X141321428Y-100837200D01*
X141321428Y-100837200D02*
X141416666Y-100741961D01*
X141416666Y-100741961D02*
X141464285Y-100646723D01*
X141464285Y-100646723D02*
X141511904Y-100456247D01*
X141511904Y-100456247D02*
X141511904Y-100313390D01*
X141511904Y-100313390D02*
X141464285Y-100122914D01*
X141464285Y-100122914D02*
X141416666Y-100027676D01*
X141416666Y-100027676D02*
X141321428Y-99932438D01*
X141321428Y-99932438D02*
X141178571Y-99884819D01*
X141178571Y-99884819D02*
X141083333Y-99884819D01*
X141083333Y-99884819D02*
X140940476Y-99932438D01*
X140940476Y-99932438D02*
X140892857Y-99980057D01*
X140511904Y-99980057D02*
X140464285Y-99932438D01*
X140464285Y-99932438D02*
X140369047Y-99884819D01*
X140369047Y-99884819D02*
X140130952Y-99884819D01*
X140130952Y-99884819D02*
X140035714Y-99932438D01*
X140035714Y-99932438D02*
X139988095Y-99980057D01*
X139988095Y-99980057D02*
X139940476Y-100075295D01*
X139940476Y-100075295D02*
X139940476Y-100170533D01*
X139940476Y-100170533D02*
X139988095Y-100313390D01*
X139988095Y-100313390D02*
X140559523Y-100884819D01*
X140559523Y-100884819D02*
X139940476Y-100884819D01*
X139321428Y-99884819D02*
X139226190Y-99884819D01*
X139226190Y-99884819D02*
X139130952Y-99932438D01*
X139130952Y-99932438D02*
X139083333Y-99980057D01*
X139083333Y-99980057D02*
X139035714Y-100075295D01*
X139035714Y-100075295D02*
X138988095Y-100265771D01*
X138988095Y-100265771D02*
X138988095Y-100503866D01*
X138988095Y-100503866D02*
X139035714Y-100694342D01*
X139035714Y-100694342D02*
X139083333Y-100789580D01*
X139083333Y-100789580D02*
X139130952Y-100837200D01*
X139130952Y-100837200D02*
X139226190Y-100884819D01*
X139226190Y-100884819D02*
X139321428Y-100884819D01*
X139321428Y-100884819D02*
X139416666Y-100837200D01*
X139416666Y-100837200D02*
X139464285Y-100789580D01*
X139464285Y-100789580D02*
X139511904Y-100694342D01*
X139511904Y-100694342D02*
X139559523Y-100503866D01*
X139559523Y-100503866D02*
X139559523Y-100265771D01*
X139559523Y-100265771D02*
X139511904Y-100075295D01*
X139511904Y-100075295D02*
X139464285Y-99980057D01*
X139464285Y-99980057D02*
X139416666Y-99932438D01*
X139416666Y-99932438D02*
X139321428Y-99884819D01*
X136367857Y-102289580D02*
X136415476Y-102337200D01*
X136415476Y-102337200D02*
X136558333Y-102384819D01*
X136558333Y-102384819D02*
X136653571Y-102384819D01*
X136653571Y-102384819D02*
X136796428Y-102337200D01*
X136796428Y-102337200D02*
X136891666Y-102241961D01*
X136891666Y-102241961D02*
X136939285Y-102146723D01*
X136939285Y-102146723D02*
X136986904Y-101956247D01*
X136986904Y-101956247D02*
X136986904Y-101813390D01*
X136986904Y-101813390D02*
X136939285Y-101622914D01*
X136939285Y-101622914D02*
X136891666Y-101527676D01*
X136891666Y-101527676D02*
X136796428Y-101432438D01*
X136796428Y-101432438D02*
X136653571Y-101384819D01*
X136653571Y-101384819D02*
X136558333Y-101384819D01*
X136558333Y-101384819D02*
X136415476Y-101432438D01*
X136415476Y-101432438D02*
X136367857Y-101480057D01*
X135415476Y-102384819D02*
X135986904Y-102384819D01*
X135701190Y-102384819D02*
X135701190Y-101384819D01*
X135701190Y-101384819D02*
X135796428Y-101527676D01*
X135796428Y-101527676D02*
X135891666Y-101622914D01*
X135891666Y-101622914D02*
X135986904Y-101670533D01*
X135082142Y-101384819D02*
X134415476Y-101384819D01*
X134415476Y-101384819D02*
X134844047Y-102384819D01*
X130367857Y-102289580D02*
X130415476Y-102337200D01*
X130415476Y-102337200D02*
X130558333Y-102384819D01*
X130558333Y-102384819D02*
X130653571Y-102384819D01*
X130653571Y-102384819D02*
X130796428Y-102337200D01*
X130796428Y-102337200D02*
X130891666Y-102241961D01*
X130891666Y-102241961D02*
X130939285Y-102146723D01*
X130939285Y-102146723D02*
X130986904Y-101956247D01*
X130986904Y-101956247D02*
X130986904Y-101813390D01*
X130986904Y-101813390D02*
X130939285Y-101622914D01*
X130939285Y-101622914D02*
X130891666Y-101527676D01*
X130891666Y-101527676D02*
X130796428Y-101432438D01*
X130796428Y-101432438D02*
X130653571Y-101384819D01*
X130653571Y-101384819D02*
X130558333Y-101384819D01*
X130558333Y-101384819D02*
X130415476Y-101432438D01*
X130415476Y-101432438D02*
X130367857Y-101480057D01*
X129415476Y-102384819D02*
X129986904Y-102384819D01*
X129701190Y-102384819D02*
X129701190Y-101384819D01*
X129701190Y-101384819D02*
X129796428Y-101527676D01*
X129796428Y-101527676D02*
X129891666Y-101622914D01*
X129891666Y-101622914D02*
X129986904Y-101670533D01*
X129082142Y-101384819D02*
X128463095Y-101384819D01*
X128463095Y-101384819D02*
X128796428Y-101765771D01*
X128796428Y-101765771D02*
X128653571Y-101765771D01*
X128653571Y-101765771D02*
X128558333Y-101813390D01*
X128558333Y-101813390D02*
X128510714Y-101861009D01*
X128510714Y-101861009D02*
X128463095Y-101956247D01*
X128463095Y-101956247D02*
X128463095Y-102194342D01*
X128463095Y-102194342D02*
X128510714Y-102289580D01*
X128510714Y-102289580D02*
X128558333Y-102337200D01*
X128558333Y-102337200D02*
X128653571Y-102384819D01*
X128653571Y-102384819D02*
X128939285Y-102384819D01*
X128939285Y-102384819D02*
X129034523Y-102337200D01*
X129034523Y-102337200D02*
X129082142Y-102289580D01*
X126916666Y-102289580D02*
X126964285Y-102337200D01*
X126964285Y-102337200D02*
X127107142Y-102384819D01*
X127107142Y-102384819D02*
X127202380Y-102384819D01*
X127202380Y-102384819D02*
X127345237Y-102337200D01*
X127345237Y-102337200D02*
X127440475Y-102241961D01*
X127440475Y-102241961D02*
X127488094Y-102146723D01*
X127488094Y-102146723D02*
X127535713Y-101956247D01*
X127535713Y-101956247D02*
X127535713Y-101813390D01*
X127535713Y-101813390D02*
X127488094Y-101622914D01*
X127488094Y-101622914D02*
X127440475Y-101527676D01*
X127440475Y-101527676D02*
X127345237Y-101432438D01*
X127345237Y-101432438D02*
X127202380Y-101384819D01*
X127202380Y-101384819D02*
X127107142Y-101384819D01*
X127107142Y-101384819D02*
X126964285Y-101432438D01*
X126964285Y-101432438D02*
X126916666Y-101480057D01*
X126583332Y-101384819D02*
X125964285Y-101384819D01*
X125964285Y-101384819D02*
X126297618Y-101765771D01*
X126297618Y-101765771D02*
X126154761Y-101765771D01*
X126154761Y-101765771D02*
X126059523Y-101813390D01*
X126059523Y-101813390D02*
X126011904Y-101861009D01*
X126011904Y-101861009D02*
X125964285Y-101956247D01*
X125964285Y-101956247D02*
X125964285Y-102194342D01*
X125964285Y-102194342D02*
X126011904Y-102289580D01*
X126011904Y-102289580D02*
X126059523Y-102337200D01*
X126059523Y-102337200D02*
X126154761Y-102384819D01*
X126154761Y-102384819D02*
X126440475Y-102384819D01*
X126440475Y-102384819D02*
X126535713Y-102337200D01*
X126535713Y-102337200D02*
X126583332Y-102289580D01*
X131867857Y-100789580D02*
X131915476Y-100837200D01*
X131915476Y-100837200D02*
X132058333Y-100884819D01*
X132058333Y-100884819D02*
X132153571Y-100884819D01*
X132153571Y-100884819D02*
X132296428Y-100837200D01*
X132296428Y-100837200D02*
X132391666Y-100741961D01*
X132391666Y-100741961D02*
X132439285Y-100646723D01*
X132439285Y-100646723D02*
X132486904Y-100456247D01*
X132486904Y-100456247D02*
X132486904Y-100313390D01*
X132486904Y-100313390D02*
X132439285Y-100122914D01*
X132439285Y-100122914D02*
X132391666Y-100027676D01*
X132391666Y-100027676D02*
X132296428Y-99932438D01*
X132296428Y-99932438D02*
X132153571Y-99884819D01*
X132153571Y-99884819D02*
X132058333Y-99884819D01*
X132058333Y-99884819D02*
X131915476Y-99932438D01*
X131915476Y-99932438D02*
X131867857Y-99980057D01*
X130915476Y-100884819D02*
X131486904Y-100884819D01*
X131201190Y-100884819D02*
X131201190Y-99884819D01*
X131201190Y-99884819D02*
X131296428Y-100027676D01*
X131296428Y-100027676D02*
X131391666Y-100122914D01*
X131391666Y-100122914D02*
X131486904Y-100170533D01*
X130058333Y-100218152D02*
X130058333Y-100884819D01*
X130296428Y-99837200D02*
X130534523Y-100551485D01*
X130534523Y-100551485D02*
X129915476Y-100551485D01*
%TO.C,J1*%
D11*
X171067500Y-101397901D02*
G75*
G02*
X170432500Y-101397901I-317500J0D01*
G01*
X170432500Y-101397901D02*
G75*
G02*
X171067500Y-101397901I317500J0D01*
G01*
%TO.C,J3*%
D12*
X158968603Y-71999999D02*
G75*
G02*
X158206603Y-71999999I-381000J0D01*
G01*
X158206603Y-71999999D02*
G75*
G02*
X158968603Y-71999999I381000J0D01*
G01*
%TO.C,J4*%
X94195301Y-99930000D02*
G75*
G02*
X93433301Y-99930000I-381000J0D01*
G01*
X93433301Y-99930000D02*
G75*
G02*
X94195301Y-99930000I381000J0D01*
G01*
D11*
X76540500Y-106680300D02*
G75*
G02*
X75905500Y-106680300I-317500J0D01*
G01*
X75905500Y-106680300D02*
G75*
G02*
X76540500Y-106680300I317500J0D01*
G01*
%TO.C,J2*%
X166470100Y-83000000D02*
G75*
G02*
X165835100Y-83000000I-317500J0D01*
G01*
X165835100Y-83000000D02*
G75*
G02*
X166470100Y-83000000I317500J0D01*
G01*
%TO.C,C18*%
D13*
X137134420Y-98490000D02*
X137415580Y-98490000D01*
X137134420Y-99510000D02*
X137415580Y-99510000D01*
%TO.C,C4*%
X128109420Y-98490000D02*
X128390580Y-98490000D01*
X128109420Y-99510000D02*
X128390580Y-99510000D01*
%TO.C,C19*%
X138609420Y-99990000D02*
X138890580Y-99990000D01*
X138609420Y-101010000D02*
X138890580Y-101010000D01*
%TO.C,C15*%
X132584420Y-99990000D02*
X132865580Y-99990000D01*
X132584420Y-101010000D02*
X132865580Y-101010000D01*
%TO.C,C16*%
X134084420Y-98490000D02*
X134365580Y-98490000D01*
X134084420Y-99510000D02*
X134365580Y-99510000D01*
%TO.C,C20*%
X140109420Y-98490000D02*
X140390580Y-98490000D01*
X140109420Y-99510000D02*
X140390580Y-99510000D01*
%TO.C,C17*%
X135584420Y-99990000D02*
X135865580Y-99990000D01*
X135584420Y-101010000D02*
X135865580Y-101010000D01*
%TO.C,C13*%
X129584420Y-99990000D02*
X129865580Y-99990000D01*
X129584420Y-101010000D02*
X129865580Y-101010000D01*
%TO.C,C3*%
X126609420Y-99990000D02*
X126890580Y-99990000D01*
X126609420Y-101010000D02*
X126890580Y-101010000D01*
%TO.C,C14*%
X131084420Y-98490000D02*
X131365580Y-98490000D01*
X131084420Y-99510000D02*
X131365580Y-99510000D01*
%TD*%
%LPC*%
D14*
%TO.C,J1*%
X170750000Y-91850000D03*
X170750000Y-99150001D03*
D15*
X170750000Y-97000000D03*
X170750000Y-94000001D03*
%TD*%
D16*
%TO.C,H2*%
X171250000Y-106250000D03*
%TD*%
%TO.C,H1*%
X103750000Y-106250000D03*
%TD*%
D17*
%TO.C,J3*%
X130000005Y-68059999D03*
X157000001Y-68059999D03*
D15*
X154000000Y-71999999D03*
X151000001Y-71999999D03*
X148000002Y-71999999D03*
X145000002Y-71999999D03*
X142000003Y-71999999D03*
X139000004Y-71999999D03*
X136000005Y-71999999D03*
X133000006Y-71999999D03*
X154000000Y-69000000D03*
X151000001Y-69000000D03*
X148000002Y-69000000D03*
X145000002Y-69000000D03*
X142000003Y-69000000D03*
X139000004Y-69000000D03*
X136000005Y-69000000D03*
X133000006Y-69000000D03*
%TD*%
%TO.C,J4*%
X93814301Y-95339598D03*
X93814301Y-92339599D03*
X93814301Y-89339600D03*
X93814301Y-86339600D03*
X93814301Y-83339601D03*
X93814301Y-80339602D03*
X96814300Y-95339598D03*
X96814300Y-92339599D03*
X96814300Y-89339600D03*
X96814300Y-86339600D03*
X96814300Y-83339601D03*
X96814300Y-80339602D03*
%TD*%
%TO.C,J4*%
X76223000Y-102339594D03*
X76223000Y-99339595D03*
X76223000Y-96339596D03*
X76223000Y-93339597D03*
X76223000Y-90339598D03*
X76223000Y-87339599D03*
X76223000Y-84339600D03*
X76223000Y-81339601D03*
X76223000Y-78339602D03*
X76223000Y-75339603D03*
X76223000Y-72339604D03*
X76223000Y-69339605D03*
%TD*%
D16*
%TO.C,H3*%
X171250000Y-68750000D03*
%TD*%
D17*
%TO.C,J2*%
X173750002Y-86940000D03*
X167749998Y-86940000D03*
D15*
X170750000Y-83000000D03*
X170750000Y-85999999D03*
%TD*%
D18*
%TO.C,U1*%
X132799998Y-86899998D03*
X132799998Y-88199998D03*
X132799998Y-89500000D03*
X132799998Y-90800000D03*
X132799998Y-92100000D03*
X132799998Y-93400000D03*
X134099998Y-86899998D03*
X134099998Y-88199998D03*
X134099998Y-89500000D03*
X134099998Y-90800000D03*
X134099998Y-92100000D03*
X134099998Y-93400000D03*
X135399998Y-86899998D03*
X135399998Y-88199998D03*
X135399998Y-89500000D03*
X135399998Y-90800000D03*
X135399998Y-92100000D03*
X135399998Y-93400000D03*
X136700000Y-86899998D03*
X136700000Y-88199998D03*
X136700000Y-89500000D03*
X136700000Y-90800000D03*
X136700000Y-92100000D03*
X136700000Y-93400000D03*
X138000000Y-86899998D03*
X138000000Y-88199998D03*
X138000000Y-89500000D03*
X138000000Y-90800000D03*
X138000000Y-92100000D03*
X138000000Y-93400000D03*
X139300000Y-86899998D03*
X139300000Y-88199998D03*
X139300000Y-89500000D03*
X139300000Y-90800000D03*
X139300000Y-92100000D03*
X139300000Y-93400000D03*
%TD*%
D16*
%TO.C,H4*%
X103750000Y-68750000D03*
%TD*%
D19*
%TO.C,C18*%
X136500000Y-99000000D03*
X138050000Y-99000000D03*
%TD*%
%TO.C,C4*%
X127475000Y-99000000D03*
X129025000Y-99000000D03*
%TD*%
%TO.C,C19*%
X137975000Y-100500000D03*
X139525000Y-100500000D03*
%TD*%
%TO.C,C15*%
X131950000Y-100500000D03*
X133500000Y-100500000D03*
%TD*%
%TO.C,C16*%
X133450000Y-99000000D03*
X135000000Y-99000000D03*
%TD*%
%TO.C,C20*%
X139475000Y-99000000D03*
X141025000Y-99000000D03*
%TD*%
%TO.C,C17*%
X134950000Y-100500000D03*
X136500000Y-100500000D03*
%TD*%
%TO.C,C13*%
X128950000Y-100500000D03*
X130500000Y-100500000D03*
%TD*%
%TO.C,C3*%
X125975000Y-100500000D03*
X127525000Y-100500000D03*
%TD*%
%TO.C,C14*%
X130450000Y-99000000D03*
X132000000Y-99000000D03*
%TD*%
%LPD*%
M02*
