%TF.GenerationSoftware,KiCad,Pcbnew,10.0.5-unknown-202607221313~667fa36054~ubuntu25.10.1*%
%TF.CreationDate,Date%
%TF.ProjectId,bms_slave,626d735f-736c-4617-9665-2e6b69636164,+ (Unreleased)*%
%TF.SameCoordinates,Original*%
%TF.FileFunction,Soldermask,Bot*%
%TF.FilePolarity,Negative*%
%FSLAX46Y46*%
G04 Gerber Fmt 4.6, Leading zero omitted, Abs format (unit mm)*
G04 Created by KiCad*
%MOMM*%
%LPD*%
G01*
G04 APERTURE LIST*
G04 Aperture macros list*
%AMRoundRect*
0 Rectangle with rounded corners*
0 $1 Rounding radius*
0 $2 $3 $4 $5 $6 $7 $8 $9 X,Y pos of 4 corners*
0 Add a 4 corners polygon primitive as box body*
4,1,4,$2,$3,$4,$5,$6,$7,$8,$9,$2,$3,0*
0 Add four circle primitives for the rounded corners*
1,1,$1+$1,$2,$3*
1,1,$1+$1,$4,$5*
1,1,$1+$1,$6,$7*
1,1,$1+$1,$8,$9*
0 Add four rect primitives between the rounded corners*
20,1,$1+$1,$2,$3,$4,$5,0*
20,1,$1+$1,$4,$5,$6,$7,0*
20,1,$1+$1,$6,$7,$8,$9,0*
20,1,$1+$1,$8,$9,$2,$3,0*%
G04 Aperture macros list end*
%ADD10C,1.574800*%
%ADD11C,2.463800*%
%ADD12C,3.200000*%
%ADD13C,1.066800*%
%ADD14C,0.499999*%
%ADD15C,2.971800*%
%ADD16RoundRect,0.225000X-0.225000X-0.250000X0.225000X-0.250000X0.225000X0.250000X-0.225000X0.250000X0*%
%ADD17RoundRect,0.250000X0.650000X-0.325000X0.650000X0.325000X-0.650000X0.325000X-0.650000X-0.325000X0*%
%ADD18RoundRect,0.225000X0.225000X0.250000X-0.225000X0.250000X-0.225000X-0.250000X0.225000X-0.250000X0*%
%ADD19RoundRect,0.225000X-0.250000X0.225000X-0.250000X-0.225000X0.250000X-0.225000X0.250000X0.225000X0*%
%ADD20RoundRect,0.225000X0.250000X-0.225000X0.250000X0.225000X-0.250000X0.225000X-0.250000X-0.225000X0*%
G04 APERTURE END LIST*
D10*
%TO.C,J3*%
X108900000Y-95000000D03*
X108900000Y-92000001D03*
X108900000Y-89000002D03*
X108900000Y-86000002D03*
X108900000Y-83000003D03*
X108900000Y-80000004D03*
X111899999Y-95000000D03*
X111899999Y-92000001D03*
X111899999Y-89000002D03*
X111899999Y-86000002D03*
X111899999Y-83000003D03*
X111899999Y-80000004D03*
%TD*%
D11*
%TO.C,J1*%
X171300000Y-100350000D03*
X171300000Y-107650001D03*
D10*
X171300000Y-105500000D03*
X171300000Y-102500001D03*
%TD*%
D12*
%TO.C,H2*%
X171800000Y-95000000D03*
%TD*%
%TO.C,H1*%
X103750000Y-106250000D03*
%TD*%
%TO.C,H5*%
X152475000Y-94725000D03*
%TD*%
%TO.C,H3*%
X172750000Y-68750000D03*
%TD*%
D13*
%TO.C,J2*%
X174300002Y-88440001D03*
X168299998Y-88440001D03*
D10*
X171300000Y-84500001D03*
X171300000Y-87500000D03*
%TD*%
D14*
%TO.C,U1*%
X132800000Y-86899998D03*
X132800000Y-88199998D03*
X132800000Y-89500000D03*
X132800000Y-90800000D03*
X132800000Y-92100000D03*
X132800000Y-93400000D03*
X134100000Y-86899998D03*
X134100000Y-88199998D03*
X134100000Y-89500000D03*
X134100000Y-90800000D03*
X134100000Y-92100000D03*
X134100000Y-93400000D03*
X135400000Y-86899998D03*
X135400000Y-88199998D03*
X135400000Y-89500000D03*
X135400000Y-90800000D03*
X135400000Y-92100000D03*
X135400000Y-93400000D03*
X136700002Y-86899998D03*
X136700002Y-88199998D03*
X136700002Y-89500000D03*
X136700002Y-90800000D03*
X136700002Y-92100000D03*
X136700002Y-93400000D03*
X138000002Y-86899998D03*
X138000002Y-88199998D03*
X138000002Y-89500000D03*
X138000002Y-90800000D03*
X138000002Y-92100000D03*
X138000002Y-93400000D03*
X139300002Y-86899998D03*
X139300002Y-88199998D03*
X139300002Y-89500000D03*
X139300002Y-90800000D03*
X139300002Y-92100000D03*
X139300002Y-93400000D03*
%TD*%
D13*
%TO.C,J4*%
X146500002Y-68060000D03*
X164500002Y-68060000D03*
D10*
X161500000Y-72000000D03*
X158500001Y-72000000D03*
X155500002Y-72000000D03*
X152500003Y-72000000D03*
X149500004Y-72000000D03*
X161500000Y-69000001D03*
X158500001Y-69000001D03*
X155500002Y-69000001D03*
X152500003Y-69000001D03*
X149500004Y-69000001D03*
D15*
X147350003Y-70500000D03*
X163650001Y-70500000D03*
%TD*%
D12*
%TO.C,H4*%
X103750000Y-68750000D03*
%TD*%
D16*
%TO.C,C18*%
X140100000Y-100000000D03*
X141650000Y-100000000D03*
%TD*%
%TO.C,C4*%
X130800000Y-100000000D03*
X132350000Y-100000000D03*
%TD*%
D17*
%TO.C,C24*%
X141750000Y-89075000D03*
X141750000Y-86125000D03*
%TD*%
D16*
%TO.C,C19*%
X141650000Y-101500000D03*
X143200000Y-101500000D03*
%TD*%
%TO.C,C15*%
X135450000Y-101500000D03*
X137000000Y-101500000D03*
%TD*%
%TO.C,C16*%
X137000000Y-100000000D03*
X138550000Y-100000000D03*
%TD*%
%TO.C,C20*%
X143200000Y-100000000D03*
X144750000Y-100000000D03*
%TD*%
D18*
%TO.C,C22*%
X143275000Y-90775000D03*
X141725000Y-90775000D03*
%TD*%
D16*
%TO.C,C17*%
X138550000Y-101500000D03*
X140100000Y-101500000D03*
%TD*%
%TO.C,C13*%
X132350000Y-101500000D03*
X133900000Y-101500000D03*
%TD*%
D19*
%TO.C,C3*%
X130800000Y-95725000D03*
X130800000Y-97275000D03*
%TD*%
D20*
%TO.C,C23*%
X141750000Y-93825000D03*
X141750000Y-92275000D03*
%TD*%
D16*
%TO.C,C14*%
X133900000Y-100000000D03*
X135450000Y-100000000D03*
%TD*%
M02*
