M48
; DRILL file KiCad 10.0.5-unknown-202607221313~667fa36054~ubuntu25.10.1 date 2026-10-04T04:05:22
; FORMAT={-:-/ absolute / metric / decimal}
; #@! TF.CreationDate,2026-10-04T04:05:22+00:00
; #@! TF.GenerationSoftware,Kicad,Pcbnew,10.0.5-unknown-202607221313~667fa36054~ubuntu25.10.1
; #@! TF.FileFunction,Plated,1,4,PTH
FMAT,2
METRIC
; #@! TA.AperFunction,Plated,PTH,ComponentDrill
T1C0.203
; #@! TA.AperFunction,Plated,PTH,ComponentDrill
T2C1.067
%
G90
G05
T1
X128.1Y-87.4
X128.1Y-88.7
X128.1Y-90.0
X128.1Y-91.3
X128.1Y-92.6
X128.1Y-93.9
X129.4Y-87.4
X129.4Y-88.7
X129.4Y-90.0
X129.4Y-91.3
X129.4Y-92.6
X129.4Y-93.9
X130.7Y-87.4
X130.7Y-88.7
X130.7Y-90.0
X130.7Y-91.3
X130.7Y-92.6
X130.7Y-93.9
X132.0Y-87.4
X132.0Y-88.7
X132.0Y-90.0
X132.0Y-91.3
X132.0Y-92.6
X132.0Y-93.9
X133.3Y-87.4
X133.3Y-88.7
X133.3Y-90.0
X133.3Y-91.3
X133.3Y-92.6
X133.3Y-93.9
X134.6Y-87.4
X134.6Y-88.7
X134.6Y-90.0
X134.6Y-91.3
X134.6Y-92.6
X134.6Y-93.9
T2
X89.5Y-80.5
X89.5Y-83.5
X89.5Y-86.5
X89.5Y-89.5
X89.5Y-92.5
X89.5Y-95.5
X92.5Y-80.5
X92.5Y-83.5
X92.5Y-86.5
X92.5Y-89.5
X92.5Y-92.5
X92.5Y-95.5
X107.69Y-70.905
X107.69Y-73.905
X107.69Y-76.905
X107.69Y-79.905
X107.69Y-82.905
X107.69Y-85.905
X107.69Y-88.905
X107.69Y-91.905
X107.69Y-94.905
X107.69Y-97.905
X107.69Y-100.905
X107.69Y-103.905
X133.0Y-69.0
X133.0Y-72.0
X136.0Y-69.0
X136.0Y-72.0
X139.0Y-69.0
X139.0Y-72.0
X142.0Y-69.0
X142.0Y-72.0
X145.0Y-69.0
X145.0Y-72.0
X148.0Y-69.0
X148.0Y-72.0
X151.0Y-69.0
X151.0Y-72.0
X154.0Y-69.0
X154.0Y-72.0
X170.75Y-83.0
X170.75Y-86.0
X170.75Y-94.0
X170.75Y-97.0
M30
