%TF.GenerationSoftware,KiCad,Pcbnew,10.0.5-unknown-202607221313~667fa36054~ubuntu25.10.1*%
%TF.CreationDate,Date%
%TF.ProjectId,bms_slave,626d735f-736c-4617-9665-2e6b69636164,+ (Unreleased)*%
%TF.SameCoordinates,Original*%
%TF.FileFunction,Copper,L4,Bot*%
%TF.FilePolarity,Positive*%
%FSLAX46Y46*%
G04 Gerber Fmt 4.6, Leading zero omitted, Abs format (unit mm)*
G04 Created by KiCad*
%MOMM*%
%LPD*%
G01*
G04 APERTURE LIST*
G04 Aperture macros list*
%AMRoundRect*
0 Rectangle with rounded corners*
0 $1 Rounding radius*
0 $2 $3 $4 $5 $6 $7 $8 $9 X,Y pos of 4 corners*
0 Add a 4 corners polygon primitive as box body*
4,1,4,$2,$3,$4,$5,$6,$7,$8,$9,$2,$3,0*
0 Add four circle primitives for the rounded corners*
1,1,$1+$1,$2,$3*
1,1,$1+$1,$4,$5*
1,1,$1+$1,$6,$7*
1,1,$1+$1,$8,$9*
0 Add four rect primitives between the rounded corners*
20,1,$1+$1,$2,$3,$4,$5,0*
20,1,$1+$1,$4,$5,$6,$7,0*
20,1,$1+$1,$6,$7,$8,$9,0*
20,1,$1+$1,$8,$9,$2,$3,0*%
G04 Aperture macros list end*
%TA.AperFunction,ComponentPad*%
%ADD10C,1.574800*%
%TD*%
%TA.AperFunction,ComponentPad*%
%ADD11C,2.971800*%
%TD*%
%TA.AperFunction,ComponentPad*%
%ADD12C,0.499999*%
%TD*%
%TA.AperFunction,SMDPad,CuDef*%
%ADD13RoundRect,0.225000X-0.225000X-0.250000X0.225000X-0.250000X0.225000X0.250000X-0.225000X0.250000X0*%
%TD*%
%TA.AperFunction,ViaPad*%
%ADD14C,0.600000*%
%TD*%
%TA.AperFunction,ViaPad*%
%ADD15C,0.500000*%
%TD*%
%TA.AperFunction,Conductor*%
%ADD16C,0.300000*%
%TD*%
G04 APERTURE END LIST*
D10*
%TO.P,J3,1,1_1*%
%TO.N,/Project Architecture/VMODULE*%
X107000000Y-95000000D03*
%TO.P,J3,2,2_2*%
%TO.N,unconnected-(J3-Pad2)*%
X107000000Y-92000001D03*
%TO.P,J3,3,3_3*%
%TO.N,/Project Architecture/Cell Sense & Balance/TAP8*%
X107000000Y-89000002D03*
%TO.P,J3,4,4_4*%
%TO.N,/Project Architecture/Cell Sense & Balance/TAP7*%
X107000000Y-86000002D03*
%TO.P,J3,5,5_5*%
%TO.N,/Project Architecture/Cell Sense & Balance/TAP6*%
X107000000Y-83000003D03*
%TO.P,J3,6,6_6*%
%TO.N,/Project Architecture/Cell Sense & Balance/TAP5*%
X107000000Y-80000004D03*
%TO.P,J3,7,7_7*%
%TO.N,/Project Architecture/Cell Sense & Balance/TAP4*%
X109999999Y-95000000D03*
%TO.P,J3,8,8_8*%
%TO.N,/Project Architecture/Cell Sense & Balance/TAP3*%
X109999999Y-92000001D03*
%TO.P,J3,9,9_9*%
%TO.N,/Project Architecture/Cell Sense & Balance/TAP2*%
X109999999Y-89000002D03*
%TO.P,J3,10,10_10*%
%TO.N,/Project Architecture/Cell Sense & Balance/TAP1*%
X109999999Y-86000002D03*
%TO.P,J3,11,11_11*%
%TO.N,/Project Architecture/Cell Sense & Balance/TAP0*%
X109999999Y-83000003D03*
%TO.P,J3,12,12_12*%
%TO.N,/Project Architecture/GND*%
X109999999Y-80000004D03*
%TD*%
%TO.P,J1,1,1_1*%
%TO.N,/Project Architecture/Connectors/COML.P*%
X170750000Y-97000000D03*
%TO.P,J1,2,2_2*%
%TO.N,/Project Architecture/Connectors/COML.N*%
X170750000Y-94000001D03*
%TD*%
%TO.P,J2,1,1_1*%
%TO.N,/Project Architecture/Connectors/COMH.P*%
X170750000Y-83000000D03*
%TO.P,J2,2,2_2*%
%TO.N,/Project Architecture/Connectors/COMH.N*%
X170750000Y-85999999D03*
%TD*%
%TO.P,J4,1,1_1*%
%TO.N,/Project Architecture/Connectors/T_P8*%
X160397500Y-70930400D03*
%TO.P,J4,2,2_2*%
%TO.N,/Project Architecture/Connectors/T_P7*%
X157400300Y-70930400D03*
%TO.P,J4,3,3_3*%
%TO.N,/Project Architecture/Connectors/T_P6*%
X154403100Y-70930400D03*
%TO.P,J4,4,4_4*%
%TO.N,/Project Architecture/Connectors/T_P5*%
X151405900Y-70930400D03*
%TO.P,J4,5,5_5*%
%TO.N,/Project Architecture/Connectors/T_P4*%
X148408700Y-70930400D03*
%TO.P,J4,6,6_6*%
%TO.N,/Project Architecture/Connectors/T_P3*%
X160397500Y-67933200D03*
%TO.P,J4,7,7_7*%
%TO.N,/Project Architecture/Connectors/T_P2*%
X157400300Y-67933200D03*
%TO.P,J4,8,8_8*%
%TO.N,/Project Architecture/Connectors/T_P1*%
X154403100Y-67933200D03*
%TO.P,J4,9,9_9*%
%TO.N,/Project Architecture/GND*%
X151405900Y-67933200D03*
%TO.P,J4,10,10_10*%
X148408700Y-67933200D03*
D11*
%TO.P,J4,11*%
%TO.N,N/C*%
X146249700Y-69431800D03*
%TO.P,J4,12*%
X162556500Y-69431800D03*
%TD*%
D12*
%TO.P,U1,65,PAD_65*%
%TO.N,/Project Architecture/GND*%
X132799998Y-86899998D03*
X132799998Y-88199998D03*
X132799998Y-89500000D03*
X132799998Y-90800000D03*
X132799998Y-92100000D03*
X132799998Y-93400000D03*
X134099998Y-86899998D03*
X134099998Y-88199998D03*
X134099998Y-89500000D03*
X134099998Y-90800000D03*
X134099998Y-92100000D03*
X134099998Y-93400000D03*
X135399998Y-86899998D03*
X135399998Y-88199998D03*
X135399998Y-89500000D03*
X135399998Y-90800000D03*
X135399998Y-92100000D03*
X135399998Y-93400000D03*
X136700000Y-86899998D03*
X136700000Y-88199998D03*
X136700000Y-89500000D03*
X136700000Y-90800000D03*
X136700000Y-92100000D03*
X136700000Y-93400000D03*
X138000000Y-86899998D03*
X138000000Y-88199998D03*
X138000000Y-89500000D03*
X138000000Y-90800000D03*
X138000000Y-92100000D03*
X138000000Y-93400000D03*
X139300000Y-86899998D03*
X139300000Y-88199998D03*
X139300000Y-89500000D03*
X139300000Y-90800000D03*
X139300000Y-92100000D03*
X139300000Y-93400000D03*
%TD*%
D13*
%TO.P,C18,1*%
%TO.N,/Project Architecture/Cell Sense & Balance/CB2*%
X140100000Y-100000000D03*
%TO.P,C18,2*%
%TO.N,/Project Architecture/Cell Sense & Balance/CB1*%
X141650000Y-100000000D03*
%TD*%
%TO.P,C4,1*%
%TO.N,/Project Architecture/Cell Sense & Balance/CB8*%
X130800000Y-100000000D03*
%TO.P,C4,2*%
%TO.N,/Project Architecture/Cell Sense & Balance/CB7*%
X132350000Y-100000000D03*
%TD*%
%TO.P,C19,1*%
%TO.N,/Project Architecture/Cell Sense & Balance/CB1*%
X141650000Y-101500000D03*
%TO.P,C19,2*%
%TO.N,/Project Architecture/Cell Sense & Balance/CB0*%
X143200000Y-101500000D03*
%TD*%
%TO.P,C15,1*%
%TO.N,/Project Architecture/Cell Sense & Balance/CB5*%
X135450000Y-101500000D03*
%TO.P,C15,2*%
%TO.N,/Project Architecture/Cell Sense & Balance/CB4*%
X137000000Y-101500000D03*
%TD*%
%TO.P,C16,1*%
%TO.N,/Project Architecture/Cell Sense & Balance/CB4*%
X137000000Y-100000000D03*
%TO.P,C16,2*%
%TO.N,/Project Architecture/Cell Sense & Balance/CB3*%
X138550000Y-100000000D03*
%TD*%
%TO.P,C20,1*%
%TO.N,/Project Architecture/Cell Sense & Balance/CB0*%
X143200000Y-100000000D03*
%TO.P,C20,2*%
%TO.N,/Project Architecture/GND*%
X144750000Y-100000000D03*
%TD*%
%TO.P,C17,1*%
%TO.N,/Project Architecture/Cell Sense & Balance/CB3*%
X138550000Y-101500000D03*
%TO.P,C17,2*%
%TO.N,/Project Architecture/Cell Sense & Balance/CB2*%
X140100000Y-101500000D03*
%TD*%
%TO.P,C13,1*%
%TO.N,/Project Architecture/Cell Sense & Balance/CB7*%
X132350000Y-101500000D03*
%TO.P,C13,2*%
%TO.N,/Project Architecture/Cell Sense & Balance/CB6*%
X133900000Y-101500000D03*
%TD*%
%TO.P,C3,1*%
%TO.N,/Project Architecture/Cell Sense & Balance/BAT*%
X129250000Y-101500000D03*
%TO.P,C3,2*%
%TO.N,/Project Architecture/Cell Sense & Balance/CB8*%
X130800000Y-101500000D03*
%TD*%
%TO.P,C14,1*%
%TO.N,/Project Architecture/Cell Sense & Balance/CB6*%
X133900000Y-100000000D03*
%TO.P,C14,2*%
%TO.N,/Project Architecture/Cell Sense & Balance/CB5*%
X135450000Y-100000000D03*
%TD*%
D14*
%TO.N,/Project Architecture/Cell Sense & Balance/CB5*%
X134750000Y-99000000D03*
D15*
%TO.N,/Project Architecture/GND*%
X144350000Y-93020989D03*
X145378014Y-90517354D03*
X144450000Y-86696700D03*
X144350000Y-94220989D03*
X144546267Y-89614394D03*
X143250000Y-91000000D03*
X144350000Y-92420989D03*
X146426543Y-94083039D03*
X144160247Y-91920907D03*
X146250000Y-91777485D03*
X144596642Y-94940147D03*
X146350000Y-86140204D03*
X145532663Y-83923833D03*
X144318450Y-87220890D03*
X144450000Y-85496700D03*
X146350000Y-86740204D03*
X145802278Y-90941618D03*
X144350000Y-93620989D03*
X146350000Y-87340204D03*
X146250000Y-92977485D03*
X145819059Y-88341601D03*
X143894186Y-87645154D03*
X143469922Y-88069418D03*
X144450000Y-86096700D03*
X146514035Y-85629470D03*
X145445171Y-95788675D03*
X146250000Y-93577485D03*
X145108399Y-84348097D03*
X145869435Y-96212939D03*
X144684135Y-84772361D03*
X144970531Y-89190129D03*
X145394795Y-88765865D03*
X146250000Y-92377485D03*
X144953750Y-90093089D03*
X143735983Y-91496643D03*
X145020907Y-95364411D03*
D14*
%TO.N,/Project Architecture/Cell Sense & Balance/CB0*%
X143100000Y-93700000D03*
%TO.N,/Project Architecture/Cell Sense & Balance/CB1*%
X140750000Y-99000000D03*
%TO.N,/Project Architecture/Cell Sense & Balance/CB4*%
X136741076Y-98925115D03*
%TO.N,/Project Architecture/Cell Sense & Balance/CB7*%
X131750000Y-99000000D03*
%TO.N,/Project Architecture/Cell Sense & Balance/CB6*%
X133250000Y-99000000D03*
%TO.N,/Project Architecture/Cell Sense & Balance/CB2*%
X139550000Y-98927437D03*
%TO.N,/Project Architecture/Cell Sense & Balance/CB8*%
X131716798Y-97846193D03*
%TO.N,/Project Architecture/Cell Sense & Balance/CB3*%
X137995168Y-98989041D03*
%TD*%
%TO.N,/Project Architecture/Cell Sense & Balance/CB5*%
D16*
X135450000Y-101500000D02*
X135450000Y-100000000D01*
%TO.N,/Project Architecture/Cell Sense & Balance/CB0*%
X143200000Y-100000000D02*
X143200000Y-101500000D01*
%TO.N,/Project Architecture/Cell Sense & Balance/CB1*%
X141650000Y-100000000D02*
X141650000Y-101500000D01*
%TO.N,/Project Architecture/Cell Sense & Balance/CB4*%
X137000000Y-100000000D02*
X137000000Y-101500000D01*
%TO.N,/Project Architecture/Cell Sense & Balance/CB7*%
X132350000Y-100000000D02*
X132350000Y-101500000D01*
%TO.N,/Project Architecture/Cell Sense & Balance/CB6*%
X133900000Y-101500000D02*
X133900000Y-100000000D01*
%TO.N,/Project Architecture/Cell Sense & Balance/CB2*%
X140100000Y-100000000D02*
X140100000Y-101500000D01*
%TO.N,/Project Architecture/Cell Sense & Balance/CB8*%
X130800000Y-101500000D02*
X130800000Y-100000000D01*
%TO.N,/Project Architecture/Cell Sense & Balance/CB3*%
X138550000Y-100000000D02*
X138550000Y-101500000D01*
%TD*%
M02*
