%TF.GenerationSoftware,KiCad,Pcbnew,10.0.5-unknown-202607221313~667fa36054~ubuntu25.10.1*%
%TF.CreationDate,Date%
%TF.ProjectId,bms_slave,626d735f-736c-4617-9665-2e6b69636164,+ (Unreleased)*%
%TF.SameCoordinates,Original*%
%TF.FileFunction,Legend,Bot*%
%TF.FilePolarity,Positive*%
%FSLAX46Y46*%
G04 Gerber Fmt 4.6, Leading zero omitted, Abs format (unit mm)*
G04 Created by KiCad*
%MOMM*%
%LPD*%
G01*
G04 APERTURE LIST*
G04 Aperture macros list*
%AMRoundRect*
0 Rectangle with rounded corners*
0 $1 Rounding radius*
0 $2 $3 $4 $5 $6 $7 $8 $9 X,Y pos of 4 corners*
0 Add a 4 corners polygon primitive as box body*
4,1,4,$2,$3,$4,$5,$6,$7,$8,$9,$2,$3,0*
0 Add four circle primitives for the rounded corners*
1,1,$1+$1,$2,$3*
1,1,$1+$1,$4,$5*
1,1,$1+$1,$6,$7*
1,1,$1+$1,$8,$9*
0 Add four rect primitives between the rounded corners*
20,1,$1+$1,$2,$3,$4,$5,0*
20,1,$1+$1,$4,$5,$6,$7,0*
20,1,$1+$1,$6,$7,$8,$9,0*
20,1,$1+$1,$8,$9,$2,$3,0*%
G04 Aperture macros list end*
%ADD10C,0.150000*%
%ADD11C,0.508000*%
%ADD12C,0.635000*%
%ADD13C,0.120000*%
%ADD14C,1.574800*%
%ADD15C,2.463800*%
%ADD16C,3.200000*%
%ADD17C,1.066800*%
%ADD18C,1.778800*%
%ADD19C,3.175800*%
%ADD20C,0.499999*%
%ADD21RoundRect,0.225000X-0.225000X-0.250000X0.225000X-0.250000X0.225000X0.250000X-0.225000X0.250000X0*%
G04 APERTURE END LIST*
D10*
X141517857Y-101789580D02*
X141565476Y-101837200D01*
X141565476Y-101837200D02*
X141708333Y-101884819D01*
X141708333Y-101884819D02*
X141803571Y-101884819D01*
X141803571Y-101884819D02*
X141946428Y-101837200D01*
X141946428Y-101837200D02*
X142041666Y-101741961D01*
X142041666Y-101741961D02*
X142089285Y-101646723D01*
X142089285Y-101646723D02*
X142136904Y-101456247D01*
X142136904Y-101456247D02*
X142136904Y-101313390D01*
X142136904Y-101313390D02*
X142089285Y-101122914D01*
X142089285Y-101122914D02*
X142041666Y-101027676D01*
X142041666Y-101027676D02*
X141946428Y-100932438D01*
X141946428Y-100932438D02*
X141803571Y-100884819D01*
X141803571Y-100884819D02*
X141708333Y-100884819D01*
X141708333Y-100884819D02*
X141565476Y-100932438D01*
X141565476Y-100932438D02*
X141517857Y-100980057D01*
X140565476Y-101884819D02*
X141136904Y-101884819D01*
X140851190Y-101884819D02*
X140851190Y-100884819D01*
X140851190Y-100884819D02*
X140946428Y-101027676D01*
X140946428Y-101027676D02*
X141041666Y-101122914D01*
X141041666Y-101122914D02*
X141136904Y-101170533D01*
X139994047Y-101313390D02*
X140089285Y-101265771D01*
X140089285Y-101265771D02*
X140136904Y-101218152D01*
X140136904Y-101218152D02*
X140184523Y-101122914D01*
X140184523Y-101122914D02*
X140184523Y-101075295D01*
X140184523Y-101075295D02*
X140136904Y-100980057D01*
X140136904Y-100980057D02*
X140089285Y-100932438D01*
X140089285Y-100932438D02*
X139994047Y-100884819D01*
X139994047Y-100884819D02*
X139803571Y-100884819D01*
X139803571Y-100884819D02*
X139708333Y-100932438D01*
X139708333Y-100932438D02*
X139660714Y-100980057D01*
X139660714Y-100980057D02*
X139613095Y-101075295D01*
X139613095Y-101075295D02*
X139613095Y-101122914D01*
X139613095Y-101122914D02*
X139660714Y-101218152D01*
X139660714Y-101218152D02*
X139708333Y-101265771D01*
X139708333Y-101265771D02*
X139803571Y-101313390D01*
X139803571Y-101313390D02*
X139994047Y-101313390D01*
X139994047Y-101313390D02*
X140089285Y-101361009D01*
X140089285Y-101361009D02*
X140136904Y-101408628D01*
X140136904Y-101408628D02*
X140184523Y-101503866D01*
X140184523Y-101503866D02*
X140184523Y-101694342D01*
X140184523Y-101694342D02*
X140136904Y-101789580D01*
X140136904Y-101789580D02*
X140089285Y-101837200D01*
X140089285Y-101837200D02*
X139994047Y-101884819D01*
X139994047Y-101884819D02*
X139803571Y-101884819D01*
X139803571Y-101884819D02*
X139708333Y-101837200D01*
X139708333Y-101837200D02*
X139660714Y-101789580D01*
X139660714Y-101789580D02*
X139613095Y-101694342D01*
X139613095Y-101694342D02*
X139613095Y-101503866D01*
X139613095Y-101503866D02*
X139660714Y-101408628D01*
X139660714Y-101408628D02*
X139708333Y-101361009D01*
X139708333Y-101361009D02*
X139803571Y-101313390D01*
X131741666Y-101789580D02*
X131789285Y-101837200D01*
X131789285Y-101837200D02*
X131932142Y-101884819D01*
X131932142Y-101884819D02*
X132027380Y-101884819D01*
X132027380Y-101884819D02*
X132170237Y-101837200D01*
X132170237Y-101837200D02*
X132265475Y-101741961D01*
X132265475Y-101741961D02*
X132313094Y-101646723D01*
X132313094Y-101646723D02*
X132360713Y-101456247D01*
X132360713Y-101456247D02*
X132360713Y-101313390D01*
X132360713Y-101313390D02*
X132313094Y-101122914D01*
X132313094Y-101122914D02*
X132265475Y-101027676D01*
X132265475Y-101027676D02*
X132170237Y-100932438D01*
X132170237Y-100932438D02*
X132027380Y-100884819D01*
X132027380Y-100884819D02*
X131932142Y-100884819D01*
X131932142Y-100884819D02*
X131789285Y-100932438D01*
X131789285Y-100932438D02*
X131741666Y-100980057D01*
X130884523Y-101218152D02*
X130884523Y-101884819D01*
X131122618Y-100837200D02*
X131360713Y-101551485D01*
X131360713Y-101551485D02*
X130741666Y-101551485D01*
X143067857Y-103289580D02*
X143115476Y-103337200D01*
X143115476Y-103337200D02*
X143258333Y-103384819D01*
X143258333Y-103384819D02*
X143353571Y-103384819D01*
X143353571Y-103384819D02*
X143496428Y-103337200D01*
X143496428Y-103337200D02*
X143591666Y-103241961D01*
X143591666Y-103241961D02*
X143639285Y-103146723D01*
X143639285Y-103146723D02*
X143686904Y-102956247D01*
X143686904Y-102956247D02*
X143686904Y-102813390D01*
X143686904Y-102813390D02*
X143639285Y-102622914D01*
X143639285Y-102622914D02*
X143591666Y-102527676D01*
X143591666Y-102527676D02*
X143496428Y-102432438D01*
X143496428Y-102432438D02*
X143353571Y-102384819D01*
X143353571Y-102384819D02*
X143258333Y-102384819D01*
X143258333Y-102384819D02*
X143115476Y-102432438D01*
X143115476Y-102432438D02*
X143067857Y-102480057D01*
X142115476Y-103384819D02*
X142686904Y-103384819D01*
X142401190Y-103384819D02*
X142401190Y-102384819D01*
X142401190Y-102384819D02*
X142496428Y-102527676D01*
X142496428Y-102527676D02*
X142591666Y-102622914D01*
X142591666Y-102622914D02*
X142686904Y-102670533D01*
X141639285Y-103384819D02*
X141448809Y-103384819D01*
X141448809Y-103384819D02*
X141353571Y-103337200D01*
X141353571Y-103337200D02*
X141305952Y-103289580D01*
X141305952Y-103289580D02*
X141210714Y-103146723D01*
X141210714Y-103146723D02*
X141163095Y-102956247D01*
X141163095Y-102956247D02*
X141163095Y-102575295D01*
X141163095Y-102575295D02*
X141210714Y-102480057D01*
X141210714Y-102480057D02*
X141258333Y-102432438D01*
X141258333Y-102432438D02*
X141353571Y-102384819D01*
X141353571Y-102384819D02*
X141544047Y-102384819D01*
X141544047Y-102384819D02*
X141639285Y-102432438D01*
X141639285Y-102432438D02*
X141686904Y-102480057D01*
X141686904Y-102480057D02*
X141734523Y-102575295D01*
X141734523Y-102575295D02*
X141734523Y-102813390D01*
X141734523Y-102813390D02*
X141686904Y-102908628D01*
X141686904Y-102908628D02*
X141639285Y-102956247D01*
X141639285Y-102956247D02*
X141544047Y-103003866D01*
X141544047Y-103003866D02*
X141353571Y-103003866D01*
X141353571Y-103003866D02*
X141258333Y-102956247D01*
X141258333Y-102956247D02*
X141210714Y-102908628D01*
X141210714Y-102908628D02*
X141163095Y-102813390D01*
X136867857Y-103289580D02*
X136915476Y-103337200D01*
X136915476Y-103337200D02*
X137058333Y-103384819D01*
X137058333Y-103384819D02*
X137153571Y-103384819D01*
X137153571Y-103384819D02*
X137296428Y-103337200D01*
X137296428Y-103337200D02*
X137391666Y-103241961D01*
X137391666Y-103241961D02*
X137439285Y-103146723D01*
X137439285Y-103146723D02*
X137486904Y-102956247D01*
X137486904Y-102956247D02*
X137486904Y-102813390D01*
X137486904Y-102813390D02*
X137439285Y-102622914D01*
X137439285Y-102622914D02*
X137391666Y-102527676D01*
X137391666Y-102527676D02*
X137296428Y-102432438D01*
X137296428Y-102432438D02*
X137153571Y-102384819D01*
X137153571Y-102384819D02*
X137058333Y-102384819D01*
X137058333Y-102384819D02*
X136915476Y-102432438D01*
X136915476Y-102432438D02*
X136867857Y-102480057D01*
X135915476Y-103384819D02*
X136486904Y-103384819D01*
X136201190Y-103384819D02*
X136201190Y-102384819D01*
X136201190Y-102384819D02*
X136296428Y-102527676D01*
X136296428Y-102527676D02*
X136391666Y-102622914D01*
X136391666Y-102622914D02*
X136486904Y-102670533D01*
X135010714Y-102384819D02*
X135486904Y-102384819D01*
X135486904Y-102384819D02*
X135534523Y-102861009D01*
X135534523Y-102861009D02*
X135486904Y-102813390D01*
X135486904Y-102813390D02*
X135391666Y-102765771D01*
X135391666Y-102765771D02*
X135153571Y-102765771D01*
X135153571Y-102765771D02*
X135058333Y-102813390D01*
X135058333Y-102813390D02*
X135010714Y-102861009D01*
X135010714Y-102861009D02*
X134963095Y-102956247D01*
X134963095Y-102956247D02*
X134963095Y-103194342D01*
X134963095Y-103194342D02*
X135010714Y-103289580D01*
X135010714Y-103289580D02*
X135058333Y-103337200D01*
X135058333Y-103337200D02*
X135153571Y-103384819D01*
X135153571Y-103384819D02*
X135391666Y-103384819D01*
X135391666Y-103384819D02*
X135486904Y-103337200D01*
X135486904Y-103337200D02*
X135534523Y-103289580D01*
X138417857Y-101789580D02*
X138465476Y-101837200D01*
X138465476Y-101837200D02*
X138608333Y-101884819D01*
X138608333Y-101884819D02*
X138703571Y-101884819D01*
X138703571Y-101884819D02*
X138846428Y-101837200D01*
X138846428Y-101837200D02*
X138941666Y-101741961D01*
X138941666Y-101741961D02*
X138989285Y-101646723D01*
X138989285Y-101646723D02*
X139036904Y-101456247D01*
X139036904Y-101456247D02*
X139036904Y-101313390D01*
X139036904Y-101313390D02*
X138989285Y-101122914D01*
X138989285Y-101122914D02*
X138941666Y-101027676D01*
X138941666Y-101027676D02*
X138846428Y-100932438D01*
X138846428Y-100932438D02*
X138703571Y-100884819D01*
X138703571Y-100884819D02*
X138608333Y-100884819D01*
X138608333Y-100884819D02*
X138465476Y-100932438D01*
X138465476Y-100932438D02*
X138417857Y-100980057D01*
X137465476Y-101884819D02*
X138036904Y-101884819D01*
X137751190Y-101884819D02*
X137751190Y-100884819D01*
X137751190Y-100884819D02*
X137846428Y-101027676D01*
X137846428Y-101027676D02*
X137941666Y-101122914D01*
X137941666Y-101122914D02*
X138036904Y-101170533D01*
X136608333Y-100884819D02*
X136798809Y-100884819D01*
X136798809Y-100884819D02*
X136894047Y-100932438D01*
X136894047Y-100932438D02*
X136941666Y-100980057D01*
X136941666Y-100980057D02*
X137036904Y-101122914D01*
X137036904Y-101122914D02*
X137084523Y-101313390D01*
X137084523Y-101313390D02*
X137084523Y-101694342D01*
X137084523Y-101694342D02*
X137036904Y-101789580D01*
X137036904Y-101789580D02*
X136989285Y-101837200D01*
X136989285Y-101837200D02*
X136894047Y-101884819D01*
X136894047Y-101884819D02*
X136703571Y-101884819D01*
X136703571Y-101884819D02*
X136608333Y-101837200D01*
X136608333Y-101837200D02*
X136560714Y-101789580D01*
X136560714Y-101789580D02*
X136513095Y-101694342D01*
X136513095Y-101694342D02*
X136513095Y-101456247D01*
X136513095Y-101456247D02*
X136560714Y-101361009D01*
X136560714Y-101361009D02*
X136608333Y-101313390D01*
X136608333Y-101313390D02*
X136703571Y-101265771D01*
X136703571Y-101265771D02*
X136894047Y-101265771D01*
X136894047Y-101265771D02*
X136989285Y-101313390D01*
X136989285Y-101313390D02*
X137036904Y-101361009D01*
X137036904Y-101361009D02*
X137084523Y-101456247D01*
X144617857Y-101789580D02*
X144665476Y-101837200D01*
X144665476Y-101837200D02*
X144808333Y-101884819D01*
X144808333Y-101884819D02*
X144903571Y-101884819D01*
X144903571Y-101884819D02*
X145046428Y-101837200D01*
X145046428Y-101837200D02*
X145141666Y-101741961D01*
X145141666Y-101741961D02*
X145189285Y-101646723D01*
X145189285Y-101646723D02*
X145236904Y-101456247D01*
X145236904Y-101456247D02*
X145236904Y-101313390D01*
X145236904Y-101313390D02*
X145189285Y-101122914D01*
X145189285Y-101122914D02*
X145141666Y-101027676D01*
X145141666Y-101027676D02*
X145046428Y-100932438D01*
X145046428Y-100932438D02*
X144903571Y-100884819D01*
X144903571Y-100884819D02*
X144808333Y-100884819D01*
X144808333Y-100884819D02*
X144665476Y-100932438D01*
X144665476Y-100932438D02*
X144617857Y-100980057D01*
X144236904Y-100980057D02*
X144189285Y-100932438D01*
X144189285Y-100932438D02*
X144094047Y-100884819D01*
X144094047Y-100884819D02*
X143855952Y-100884819D01*
X143855952Y-100884819D02*
X143760714Y-100932438D01*
X143760714Y-100932438D02*
X143713095Y-100980057D01*
X143713095Y-100980057D02*
X143665476Y-101075295D01*
X143665476Y-101075295D02*
X143665476Y-101170533D01*
X143665476Y-101170533D02*
X143713095Y-101313390D01*
X143713095Y-101313390D02*
X144284523Y-101884819D01*
X144284523Y-101884819D02*
X143665476Y-101884819D01*
X143046428Y-100884819D02*
X142951190Y-100884819D01*
X142951190Y-100884819D02*
X142855952Y-100932438D01*
X142855952Y-100932438D02*
X142808333Y-100980057D01*
X142808333Y-100980057D02*
X142760714Y-101075295D01*
X142760714Y-101075295D02*
X142713095Y-101265771D01*
X142713095Y-101265771D02*
X142713095Y-101503866D01*
X142713095Y-101503866D02*
X142760714Y-101694342D01*
X142760714Y-101694342D02*
X142808333Y-101789580D01*
X142808333Y-101789580D02*
X142855952Y-101837200D01*
X142855952Y-101837200D02*
X142951190Y-101884819D01*
X142951190Y-101884819D02*
X143046428Y-101884819D01*
X143046428Y-101884819D02*
X143141666Y-101837200D01*
X143141666Y-101837200D02*
X143189285Y-101789580D01*
X143189285Y-101789580D02*
X143236904Y-101694342D01*
X143236904Y-101694342D02*
X143284523Y-101503866D01*
X143284523Y-101503866D02*
X143284523Y-101265771D01*
X143284523Y-101265771D02*
X143236904Y-101075295D01*
X143236904Y-101075295D02*
X143189285Y-100980057D01*
X143189285Y-100980057D02*
X143141666Y-100932438D01*
X143141666Y-100932438D02*
X143046428Y-100884819D01*
X139967857Y-103289580D02*
X140015476Y-103337200D01*
X140015476Y-103337200D02*
X140158333Y-103384819D01*
X140158333Y-103384819D02*
X140253571Y-103384819D01*
X140253571Y-103384819D02*
X140396428Y-103337200D01*
X140396428Y-103337200D02*
X140491666Y-103241961D01*
X140491666Y-103241961D02*
X140539285Y-103146723D01*
X140539285Y-103146723D02*
X140586904Y-102956247D01*
X140586904Y-102956247D02*
X140586904Y-102813390D01*
X140586904Y-102813390D02*
X140539285Y-102622914D01*
X140539285Y-102622914D02*
X140491666Y-102527676D01*
X140491666Y-102527676D02*
X140396428Y-102432438D01*
X140396428Y-102432438D02*
X140253571Y-102384819D01*
X140253571Y-102384819D02*
X140158333Y-102384819D01*
X140158333Y-102384819D02*
X140015476Y-102432438D01*
X140015476Y-102432438D02*
X139967857Y-102480057D01*
X139015476Y-103384819D02*
X139586904Y-103384819D01*
X139301190Y-103384819D02*
X139301190Y-102384819D01*
X139301190Y-102384819D02*
X139396428Y-102527676D01*
X139396428Y-102527676D02*
X139491666Y-102622914D01*
X139491666Y-102622914D02*
X139586904Y-102670533D01*
X138682142Y-102384819D02*
X138015476Y-102384819D01*
X138015476Y-102384819D02*
X138444047Y-103384819D01*
X133767857Y-103289580D02*
X133815476Y-103337200D01*
X133815476Y-103337200D02*
X133958333Y-103384819D01*
X133958333Y-103384819D02*
X134053571Y-103384819D01*
X134053571Y-103384819D02*
X134196428Y-103337200D01*
X134196428Y-103337200D02*
X134291666Y-103241961D01*
X134291666Y-103241961D02*
X134339285Y-103146723D01*
X134339285Y-103146723D02*
X134386904Y-102956247D01*
X134386904Y-102956247D02*
X134386904Y-102813390D01*
X134386904Y-102813390D02*
X134339285Y-102622914D01*
X134339285Y-102622914D02*
X134291666Y-102527676D01*
X134291666Y-102527676D02*
X134196428Y-102432438D01*
X134196428Y-102432438D02*
X134053571Y-102384819D01*
X134053571Y-102384819D02*
X133958333Y-102384819D01*
X133958333Y-102384819D02*
X133815476Y-102432438D01*
X133815476Y-102432438D02*
X133767857Y-102480057D01*
X132815476Y-103384819D02*
X133386904Y-103384819D01*
X133101190Y-103384819D02*
X133101190Y-102384819D01*
X133101190Y-102384819D02*
X133196428Y-102527676D01*
X133196428Y-102527676D02*
X133291666Y-102622914D01*
X133291666Y-102622914D02*
X133386904Y-102670533D01*
X132482142Y-102384819D02*
X131863095Y-102384819D01*
X131863095Y-102384819D02*
X132196428Y-102765771D01*
X132196428Y-102765771D02*
X132053571Y-102765771D01*
X132053571Y-102765771D02*
X131958333Y-102813390D01*
X131958333Y-102813390D02*
X131910714Y-102861009D01*
X131910714Y-102861009D02*
X131863095Y-102956247D01*
X131863095Y-102956247D02*
X131863095Y-103194342D01*
X131863095Y-103194342D02*
X131910714Y-103289580D01*
X131910714Y-103289580D02*
X131958333Y-103337200D01*
X131958333Y-103337200D02*
X132053571Y-103384819D01*
X132053571Y-103384819D02*
X132339285Y-103384819D01*
X132339285Y-103384819D02*
X132434523Y-103337200D01*
X132434523Y-103337200D02*
X132482142Y-103289580D01*
X130191666Y-103289580D02*
X130239285Y-103337200D01*
X130239285Y-103337200D02*
X130382142Y-103384819D01*
X130382142Y-103384819D02*
X130477380Y-103384819D01*
X130477380Y-103384819D02*
X130620237Y-103337200D01*
X130620237Y-103337200D02*
X130715475Y-103241961D01*
X130715475Y-103241961D02*
X130763094Y-103146723D01*
X130763094Y-103146723D02*
X130810713Y-102956247D01*
X130810713Y-102956247D02*
X130810713Y-102813390D01*
X130810713Y-102813390D02*
X130763094Y-102622914D01*
X130763094Y-102622914D02*
X130715475Y-102527676D01*
X130715475Y-102527676D02*
X130620237Y-102432438D01*
X130620237Y-102432438D02*
X130477380Y-102384819D01*
X130477380Y-102384819D02*
X130382142Y-102384819D01*
X130382142Y-102384819D02*
X130239285Y-102432438D01*
X130239285Y-102432438D02*
X130191666Y-102480057D01*
X129858332Y-102384819D02*
X129239285Y-102384819D01*
X129239285Y-102384819D02*
X129572618Y-102765771D01*
X129572618Y-102765771D02*
X129429761Y-102765771D01*
X129429761Y-102765771D02*
X129334523Y-102813390D01*
X129334523Y-102813390D02*
X129286904Y-102861009D01*
X129286904Y-102861009D02*
X129239285Y-102956247D01*
X129239285Y-102956247D02*
X129239285Y-103194342D01*
X129239285Y-103194342D02*
X129286904Y-103289580D01*
X129286904Y-103289580D02*
X129334523Y-103337200D01*
X129334523Y-103337200D02*
X129429761Y-103384819D01*
X129429761Y-103384819D02*
X129715475Y-103384819D01*
X129715475Y-103384819D02*
X129810713Y-103337200D01*
X129810713Y-103337200D02*
X129858332Y-103289580D01*
X135317857Y-101789580D02*
X135365476Y-101837200D01*
X135365476Y-101837200D02*
X135508333Y-101884819D01*
X135508333Y-101884819D02*
X135603571Y-101884819D01*
X135603571Y-101884819D02*
X135746428Y-101837200D01*
X135746428Y-101837200D02*
X135841666Y-101741961D01*
X135841666Y-101741961D02*
X135889285Y-101646723D01*
X135889285Y-101646723D02*
X135936904Y-101456247D01*
X135936904Y-101456247D02*
X135936904Y-101313390D01*
X135936904Y-101313390D02*
X135889285Y-101122914D01*
X135889285Y-101122914D02*
X135841666Y-101027676D01*
X135841666Y-101027676D02*
X135746428Y-100932438D01*
X135746428Y-100932438D02*
X135603571Y-100884819D01*
X135603571Y-100884819D02*
X135508333Y-100884819D01*
X135508333Y-100884819D02*
X135365476Y-100932438D01*
X135365476Y-100932438D02*
X135317857Y-100980057D01*
X134365476Y-101884819D02*
X134936904Y-101884819D01*
X134651190Y-101884819D02*
X134651190Y-100884819D01*
X134651190Y-100884819D02*
X134746428Y-101027676D01*
X134746428Y-101027676D02*
X134841666Y-101122914D01*
X134841666Y-101122914D02*
X134936904Y-101170533D01*
X133508333Y-101218152D02*
X133508333Y-101884819D01*
X133746428Y-100837200D02*
X133984523Y-101551485D01*
X133984523Y-101551485D02*
X133365476Y-101551485D01*
%TO.C,J3*%
D11*
X107381000Y-99590402D02*
G75*
G02*
X106619000Y-99590402I-381000J0D01*
G01*
X106619000Y-99590402D02*
G75*
G02*
X107381000Y-99590402I381000J0D01*
G01*
%TO.C,J1*%
D12*
X171067500Y-101397901D02*
G75*
G02*
X170432500Y-101397901I-317500J0D01*
G01*
X170432500Y-101397901D02*
G75*
G02*
X171067500Y-101397901I317500J0D01*
G01*
%TO.C,J2*%
X166470100Y-83000000D02*
G75*
G02*
X165835100Y-83000000I-317500J0D01*
G01*
X165835100Y-83000000D02*
G75*
G02*
X166470100Y-83000000I317500J0D01*
G01*
%TO.C,J4*%
D11*
X164359900Y-70930400D02*
G75*
G02*
X165121900Y-70930400I381000J0D01*
G01*
X165121900Y-70930400D02*
G75*
G02*
X164359900Y-70930400I-381000J0D01*
G01*
%TO.C,C18*%
D13*
X140734420Y-99490000D02*
X141015580Y-99490000D01*
X140734420Y-100510000D02*
X141015580Y-100510000D01*
%TO.C,C4*%
X131434420Y-99490000D02*
X131715580Y-99490000D01*
X131434420Y-100510000D02*
X131715580Y-100510000D01*
%TO.C,C19*%
X142284420Y-100990000D02*
X142565580Y-100990000D01*
X142284420Y-102010000D02*
X142565580Y-102010000D01*
%TO.C,C15*%
X136084420Y-100990000D02*
X136365580Y-100990000D01*
X136084420Y-102010000D02*
X136365580Y-102010000D01*
%TO.C,C16*%
X137634420Y-99490000D02*
X137915580Y-99490000D01*
X137634420Y-100510000D02*
X137915580Y-100510000D01*
%TO.C,C20*%
X143834420Y-99490000D02*
X144115580Y-99490000D01*
X143834420Y-100510000D02*
X144115580Y-100510000D01*
%TO.C,C17*%
X139184420Y-100990000D02*
X139465580Y-100990000D01*
X139184420Y-102010000D02*
X139465580Y-102010000D01*
%TO.C,C13*%
X132984420Y-100990000D02*
X133265580Y-100990000D01*
X132984420Y-102010000D02*
X133265580Y-102010000D01*
%TO.C,C3*%
X129884420Y-100990000D02*
X130165580Y-100990000D01*
X129884420Y-102010000D02*
X130165580Y-102010000D01*
%TO.C,C14*%
X134534420Y-99490000D02*
X134815580Y-99490000D01*
X134534420Y-100510000D02*
X134815580Y-100510000D01*
%TD*%
%LPC*%
D14*
%TO.C,J3*%
X107000000Y-95000000D03*
X107000000Y-92000001D03*
X107000000Y-89000002D03*
X107000000Y-86000002D03*
X107000000Y-83000003D03*
X107000000Y-80000004D03*
X109999999Y-95000000D03*
X109999999Y-92000001D03*
X109999999Y-89000002D03*
X109999999Y-86000002D03*
X109999999Y-83000003D03*
X109999999Y-80000004D03*
%TD*%
D15*
%TO.C,J1*%
X170750000Y-91850000D03*
X170750000Y-99150001D03*
D14*
X170750000Y-97000000D03*
X170750000Y-94000001D03*
%TD*%
D16*
%TO.C,H2*%
X171250000Y-106250000D03*
%TD*%
%TO.C,H1*%
X103750000Y-106250000D03*
%TD*%
%TO.C,H3*%
X171250000Y-68750000D03*
%TD*%
D17*
%TO.C,J2*%
X173750002Y-86940000D03*
X167749998Y-86940000D03*
D14*
X170750000Y-83000000D03*
X170750000Y-85999999D03*
%TD*%
D17*
%TO.C,J4*%
X145386100Y-66993400D03*
X163394700Y-66993400D03*
D18*
X160397500Y-70930400D03*
X157400300Y-70930400D03*
X154403100Y-70930400D03*
X151405900Y-70930400D03*
X148408700Y-70930400D03*
X160397500Y-67933200D03*
X157400300Y-67933200D03*
X154403100Y-67933200D03*
X151405900Y-67933200D03*
X148408700Y-67933200D03*
D19*
X146249700Y-69431800D03*
X162556500Y-69431800D03*
%TD*%
D20*
%TO.C,U1*%
X132799998Y-86899998D03*
X132799998Y-88199998D03*
X132799998Y-89500000D03*
X132799998Y-90800000D03*
X132799998Y-92100000D03*
X132799998Y-93400000D03*
X134099998Y-86899998D03*
X134099998Y-88199998D03*
X134099998Y-89500000D03*
X134099998Y-90800000D03*
X134099998Y-92100000D03*
X134099998Y-93400000D03*
X135399998Y-86899998D03*
X135399998Y-88199998D03*
X135399998Y-89500000D03*
X135399998Y-90800000D03*
X135399998Y-92100000D03*
X135399998Y-93400000D03*
X136700000Y-86899998D03*
X136700000Y-88199998D03*
X136700000Y-89500000D03*
X136700000Y-90800000D03*
X136700000Y-92100000D03*
X136700000Y-93400000D03*
X138000000Y-86899998D03*
X138000000Y-88199998D03*
X138000000Y-89500000D03*
X138000000Y-90800000D03*
X138000000Y-92100000D03*
X138000000Y-93400000D03*
X139300000Y-86899998D03*
X139300000Y-88199998D03*
X139300000Y-89500000D03*
X139300000Y-90800000D03*
X139300000Y-92100000D03*
X139300000Y-93400000D03*
%TD*%
D16*
%TO.C,H4*%
X103750000Y-68750000D03*
%TD*%
D21*
%TO.C,C18*%
X140100000Y-100000000D03*
X141650000Y-100000000D03*
%TD*%
%TO.C,C4*%
X130800000Y-100000000D03*
X132350000Y-100000000D03*
%TD*%
%TO.C,C19*%
X141650000Y-101500000D03*
X143200000Y-101500000D03*
%TD*%
%TO.C,C15*%
X135450000Y-101500000D03*
X137000000Y-101500000D03*
%TD*%
%TO.C,C16*%
X137000000Y-100000000D03*
X138550000Y-100000000D03*
%TD*%
%TO.C,C20*%
X143200000Y-100000000D03*
X144750000Y-100000000D03*
%TD*%
%TO.C,C17*%
X138550000Y-101500000D03*
X140100000Y-101500000D03*
%TD*%
%TO.C,C13*%
X132350000Y-101500000D03*
X133900000Y-101500000D03*
%TD*%
%TO.C,C3*%
X129250000Y-101500000D03*
X130800000Y-101500000D03*
%TD*%
%TO.C,C14*%
X133900000Y-100000000D03*
X135450000Y-100000000D03*
%TD*%
%LPD*%
M02*
