%TF.GenerationSoftware,KiCad,Pcbnew,10.0.5-unknown-202607221313~667fa36054~ubuntu25.10.1*%
%TF.CreationDate,Date%
%TF.ProjectId,bms_slave,626d735f-736c-4617-9665-2e6b69636164,+ (Unreleased)*%
%TF.SameCoordinates,Original*%
%TF.FileFunction,Copper,L4,Bot*%
%TF.FilePolarity,Positive*%
%FSLAX46Y46*%
G04 Gerber Fmt 4.6, Leading zero omitted, Abs format (unit mm)*
G04 Created by KiCad*
%MOMM*%
%LPD*%
G01*
G04 APERTURE LIST*
G04 Aperture macros list*
%AMRoundRect*
0 Rectangle with rounded corners*
0 $1 Rounding radius*
0 $2 $3 $4 $5 $6 $7 $8 $9 X,Y pos of 4 corners*
0 Add a 4 corners polygon primitive as box body*
4,1,4,$2,$3,$4,$5,$6,$7,$8,$9,$2,$3,0*
0 Add four circle primitives for the rounded corners*
1,1,$1+$1,$2,$3*
1,1,$1+$1,$4,$5*
1,1,$1+$1,$6,$7*
1,1,$1+$1,$8,$9*
0 Add four rect primitives between the rounded corners*
20,1,$1+$1,$2,$3,$4,$5,0*
20,1,$1+$1,$4,$5,$6,$7,0*
20,1,$1+$1,$6,$7,$8,$9,0*
20,1,$1+$1,$8,$9,$2,$3,0*%
G04 Aperture macros list end*
%TA.AperFunction,ComponentPad*%
%ADD10C,1.574800*%
%TD*%
%TA.AperFunction,ComponentPad*%
%ADD11C,0.499999*%
%TD*%
%TA.AperFunction,SMDPad,CuDef*%
%ADD12RoundRect,0.225000X-0.225000X-0.250000X0.225000X-0.250000X0.225000X0.250000X-0.225000X0.250000X0*%
%TD*%
G04 APERTURE END LIST*
D10*
%TO.P,J1,1,1_1*%
%TO.N,/Project Architecture/Connectors/COML.P*%
X170750000Y-97000000D03*
%TO.P,J1,2,2_2*%
%TO.N,/Project Architecture/Connectors/COML.N*%
X170750000Y-94000001D03*
%TD*%
%TO.P,J3,1,1_1*%
%TO.N,/Project Architecture/Connectors/T_P8*%
X154000000Y-71999999D03*
%TO.P,J3,2,2_2*%
%TO.N,/Project Architecture/Connectors/T_P7*%
X151000001Y-71999999D03*
%TO.P,J3,3,3_3*%
%TO.N,/Project Architecture/Connectors/T_P6*%
X148000002Y-71999999D03*
%TO.P,J3,4,4_4*%
%TO.N,/Project Architecture/Connectors/T_P5*%
X145000002Y-71999999D03*
%TO.P,J3,5,5_5*%
%TO.N,/Project Architecture/Connectors/T_P4*%
X142000003Y-71999999D03*
%TO.P,J3,6,6_6*%
%TO.N,/Project Architecture/Connectors/T_P3*%
X139000004Y-71999999D03*
%TO.P,J3,7,7_7*%
%TO.N,/Project Architecture/Connectors/T_P2*%
X136000005Y-71999999D03*
%TO.P,J3,8,8_8*%
%TO.N,/Project Architecture/Connectors/T_P1*%
X133000006Y-71999999D03*
%TO.P,J3,9,9_9*%
%TO.N,/Project Architecture/GND*%
X154000000Y-69000000D03*
%TO.P,J3,10,10_10*%
X151000001Y-69000000D03*
%TO.P,J3,11,11_11*%
X148000002Y-69000000D03*
%TO.P,J3,12,12_12*%
X145000002Y-69000000D03*
%TO.P,J3,13,13_13*%
X142000003Y-69000000D03*
%TO.P,J3,14,14_14*%
X139000004Y-69000000D03*
%TO.P,J3,15,15_15*%
X136000005Y-69000000D03*
%TO.P,J3,16,16_16*%
X133000006Y-69000000D03*
%TD*%
%TO.P,J4,1,1_1*%
%TO.N,/Project Architecture/VMODULE*%
X89500000Y-95500000D03*
%TO.P,J4,2,2_2*%
%TO.N,unconnected-(J4-Pad2)*%
X89500000Y-92500001D03*
%TO.P,J4,3,3_3*%
%TO.N,/Project Architecture/Cell Sense & Balance/TAP8*%
X89500000Y-89500002D03*
%TO.P,J4,4,4_4*%
%TO.N,/Project Architecture/Cell Sense & Balance/TAP7*%
X89500000Y-86500002D03*
%TO.P,J4,5,5_5*%
%TO.N,/Project Architecture/Cell Sense & Balance/TAP6*%
X89500000Y-83500003D03*
%TO.P,J4,6,6_6*%
%TO.N,/Project Architecture/Cell Sense & Balance/TAP5*%
X89500000Y-80500004D03*
%TO.P,J4,7,7_7*%
%TO.N,/Project Architecture/Cell Sense & Balance/TAP4*%
X92499999Y-95500000D03*
%TO.P,J4,8,8_8*%
%TO.N,/Project Architecture/Cell Sense & Balance/TAP3*%
X92499999Y-92500001D03*
%TO.P,J4,9,9_9*%
%TO.N,/Project Architecture/Cell Sense & Balance/TAP2*%
X92499999Y-89500002D03*
%TO.P,J4,10,10_10*%
%TO.N,/Project Architecture/Cell Sense & Balance/TAP1*%
X92499999Y-86500002D03*
%TO.P,J4,11,11_11*%
%TO.N,/Project Architecture/Cell Sense & Balance/TAP0*%
X92499999Y-83500003D03*
%TO.P,J4,12,12_12*%
%TO.N,/Project Architecture/GND*%
X92499999Y-80500004D03*
%TD*%
%TO.P,J4,1,1_1*%
%TO.N,/Project Architecture/GND*%
X107689800Y-103904894D03*
%TO.P,J4,2,2_2*%
%TO.N,/Project Architecture/Cell Sense & Balance/TAP0*%
X107689800Y-100904895D03*
%TO.P,J4,3,3_3*%
%TO.N,/Project Architecture/Cell Sense & Balance/TAP1*%
X107689800Y-97904896D03*
%TO.P,J4,4,4_4*%
%TO.N,/Project Architecture/Cell Sense & Balance/TAP2*%
X107689800Y-94904897D03*
%TO.P,J4,5,5_5*%
%TO.N,/Project Architecture/Cell Sense & Balance/TAP3*%
X107689800Y-91904898D03*
%TO.P,J4,6,6_6*%
%TO.N,/Project Architecture/Cell Sense & Balance/TAP4*%
X107689800Y-88904899D03*
%TO.P,J4,7,7_7*%
%TO.N,/Project Architecture/Cell Sense & Balance/TAP5*%
X107689800Y-85904900D03*
%TO.P,J4,8,8_8*%
%TO.N,/Project Architecture/Cell Sense & Balance/TAP6*%
X107689800Y-82904901D03*
%TO.P,J4,9,9_9*%
%TO.N,/Project Architecture/Cell Sense & Balance/TAP7*%
X107689800Y-79904902D03*
%TO.P,J4,10,10_10*%
%TO.N,/Project Architecture/Cell Sense & Balance/TAP8*%
X107689800Y-76904903D03*
%TO.P,J4,11,11_11*%
%TO.N,unconnected-(J4-Pad11)*%
X107689800Y-73904904D03*
%TO.P,J4,12,12_12*%
%TO.N,/Project Architecture/VMODULE*%
X107689800Y-70904905D03*
%TD*%
%TO.P,J2,1,1_1*%
%TO.N,/Project Architecture/Connectors/COMH.P*%
X170750000Y-83000000D03*
%TO.P,J2,2,2_2*%
%TO.N,/Project Architecture/Connectors/COMH.N*%
X170750000Y-85999999D03*
%TD*%
D11*
%TO.P,U1,65,PAD_65*%
%TO.N,/Project Architecture/GND*%
X128099998Y-87399998D03*
X128099998Y-88699998D03*
X128099998Y-90000000D03*
X128099998Y-91300000D03*
X128099998Y-92600000D03*
X128099998Y-93900000D03*
X129399998Y-87399998D03*
X129399998Y-88699998D03*
X129399998Y-90000000D03*
X129399998Y-91300000D03*
X129399998Y-92600000D03*
X129399998Y-93900000D03*
X130699998Y-87399998D03*
X130699998Y-88699998D03*
X130699998Y-90000000D03*
X130699998Y-91300000D03*
X130699998Y-92600000D03*
X130699998Y-93900000D03*
X132000000Y-87399998D03*
X132000000Y-88699998D03*
X132000000Y-90000000D03*
X132000000Y-91300000D03*
X132000000Y-92600000D03*
X132000000Y-93900000D03*
X133300000Y-87399998D03*
X133300000Y-88699998D03*
X133300000Y-90000000D03*
X133300000Y-91300000D03*
X133300000Y-92600000D03*
X133300000Y-93900000D03*
X134600000Y-87399998D03*
X134600000Y-88699998D03*
X134600000Y-90000000D03*
X134600000Y-91300000D03*
X134600000Y-92600000D03*
X134600000Y-93900000D03*
%TD*%
D12*
%TO.P,C18,1*%
%TO.N,/Project Architecture/Cell Sense & Balance/CB2*%
X136500000Y-99000000D03*
%TO.P,C18,2*%
%TO.N,/Project Architecture/Cell Sense & Balance/CB1*%
X138050000Y-99000000D03*
%TD*%
%TO.P,C4,1*%
%TO.N,/Project Architecture/Cell Sense & Balance/CB8*%
X127475000Y-99000000D03*
%TO.P,C4,2*%
%TO.N,/Project Architecture/Cell Sense & Balance/CB7*%
X129025000Y-99000000D03*
%TD*%
%TO.P,C19,1*%
%TO.N,/Project Architecture/Cell Sense & Balance/CB1*%
X137975000Y-100500000D03*
%TO.P,C19,2*%
%TO.N,/Project Architecture/Cell Sense & Balance/CB0*%
X139525000Y-100500000D03*
%TD*%
%TO.P,C15,1*%
%TO.N,/Project Architecture/Cell Sense & Balance/CB5*%
X131950000Y-100500000D03*
%TO.P,C15,2*%
%TO.N,/Project Architecture/Cell Sense & Balance/CB4*%
X133500000Y-100500000D03*
%TD*%
%TO.P,C16,1*%
%TO.N,/Project Architecture/Cell Sense & Balance/CB4*%
X133450000Y-99000000D03*
%TO.P,C16,2*%
%TO.N,/Project Architecture/Cell Sense & Balance/CB3*%
X135000000Y-99000000D03*
%TD*%
%TO.P,C20,1*%
%TO.N,/Project Architecture/Cell Sense & Balance/CB0*%
X139475000Y-99000000D03*
%TO.P,C20,2*%
%TO.N,/Project Architecture/GND*%
X141025000Y-99000000D03*
%TD*%
%TO.P,C17,1*%
%TO.N,/Project Architecture/Cell Sense & Balance/CB3*%
X134950000Y-100500000D03*
%TO.P,C17,2*%
%TO.N,/Project Architecture/Cell Sense & Balance/CB2*%
X136500000Y-100500000D03*
%TD*%
%TO.P,C13,1*%
%TO.N,/Project Architecture/Cell Sense & Balance/CB7*%
X128950000Y-100500000D03*
%TO.P,C13,2*%
%TO.N,/Project Architecture/Cell Sense & Balance/CB6*%
X130500000Y-100500000D03*
%TD*%
%TO.P,C3,1*%
%TO.N,/Project Architecture/Cell Sense & Balance/BAT*%
X125975000Y-100500000D03*
%TO.P,C3,2*%
%TO.N,/Project Architecture/Cell Sense & Balance/CB8*%
X127525000Y-100500000D03*
%TD*%
%TO.P,C14,1*%
%TO.N,/Project Architecture/Cell Sense & Balance/CB6*%
X130450000Y-99000000D03*
%TO.P,C14,2*%
%TO.N,/Project Architecture/Cell Sense & Balance/CB5*%
X132000000Y-99000000D03*
%TD*%
M02*
