%TF.GenerationSoftware,KiCad,Pcbnew,10.0.5-unknown-202607221313~667fa36054~ubuntu25.10.1*%
%TF.CreationDate,Date%
%TF.ProjectId,bms_slave,626d735f-736c-4617-9665-2e6b69636164,+ (Unreleased)*%
%TF.SameCoordinates,Original*%
%TF.FileFunction,Copper,L1,Top*%
%TF.FilePolarity,Positive*%
%FSLAX46Y46*%
G04 Gerber Fmt 4.6, Leading zero omitted, Abs format (unit mm)*
G04 Created by KiCad*
%MOMM*%
%LPD*%
G01*
G04 APERTURE LIST*
G04 Aperture macros list*
%AMRoundRect*
0 Rectangle with rounded corners*
0 $1 Rounding radius*
0 $2 $3 $4 $5 $6 $7 $8 $9 X,Y pos of 4 corners*
0 Add a 4 corners polygon primitive as box body*
4,1,4,$2,$3,$4,$5,$6,$7,$8,$9,$2,$3,0*
0 Add four circle primitives for the rounded corners*
1,1,$1+$1,$2,$3*
1,1,$1+$1,$4,$5*
1,1,$1+$1,$6,$7*
1,1,$1+$1,$8,$9*
0 Add four rect primitives between the rounded corners*
20,1,$1+$1,$2,$3,$4,$5,0*
20,1,$1+$1,$4,$5,$6,$7,0*
20,1,$1+$1,$6,$7,$8,$9,0*
20,1,$1+$1,$8,$9,$2,$3,0*%
G04 Aperture macros list end*
%TA.AperFunction,SMDPad,CuDef*%
%ADD10RoundRect,0.200000X-0.200000X-0.275000X0.200000X-0.275000X0.200000X0.275000X-0.200000X0.275000X0*%
%TD*%
%TA.AperFunction,SMDPad,CuDef*%
%ADD11RoundRect,0.135000X-0.185000X0.135000X-0.185000X-0.135000X0.185000X-0.135000X0.185000X0.135000X0*%
%TD*%
%TA.AperFunction,SMDPad,CuDef*%
%ADD12RoundRect,0.250000X-0.362500X-1.425000X0.362500X-1.425000X0.362500X1.425000X-0.362500X1.425000X0*%
%TD*%
%TA.AperFunction,SMDPad,CuDef*%
%ADD13RoundRect,0.140000X0.170000X-0.140000X0.170000X0.140000X-0.170000X0.140000X-0.170000X-0.140000X0*%
%TD*%
%TA.AperFunction,SMDPad,CuDef*%
%ADD14RoundRect,0.225000X0.225000X0.250000X-0.225000X0.250000X-0.225000X-0.250000X0.225000X-0.250000X0*%
%TD*%
%TA.AperFunction,SMDPad,CuDef*%
%ADD15R,0.304800X0.609600*%
%TD*%
%TA.AperFunction,SMDPad,CuDef*%
%ADD16RoundRect,0.140000X-0.140000X-0.170000X0.140000X-0.170000X0.140000X0.170000X-0.140000X0.170000X0*%
%TD*%
%TA.AperFunction,SMDPad,CuDef*%
%ADD17RoundRect,0.140000X0.140000X0.170000X-0.140000X0.170000X-0.140000X-0.170000X0.140000X-0.170000X0*%
%TD*%
%TA.AperFunction,SMDPad,CuDef*%
%ADD18RoundRect,0.200000X0.275000X-0.200000X0.275000X0.200000X-0.275000X0.200000X-0.275000X-0.200000X0*%
%TD*%
%TA.AperFunction,SMDPad,CuDef*%
%ADD19C,0.500000*%
%TD*%
%TA.AperFunction,ComponentPad*%
%ADD20C,1.574800*%
%TD*%
%TA.AperFunction,SMDPad,CuDef*%
%ADD21C,2.000000*%
%TD*%
%TA.AperFunction,SMDPad,CuDef*%
%ADD22R,0.901700X0.482600*%
%TD*%
%TA.AperFunction,SMDPad,CuDef*%
%ADD23RoundRect,0.250000X0.650000X-0.325000X0.650000X0.325000X-0.650000X0.325000X-0.650000X-0.325000X0*%
%TD*%
%TA.AperFunction,SMDPad,CuDef*%
%ADD24RoundRect,0.218750X0.218750X0.256250X-0.218750X0.256250X-0.218750X-0.256250X0.218750X-0.256250X0*%
%TD*%
%TA.AperFunction,SMDPad,CuDef*%
%ADD25R,1.308100X0.685800*%
%TD*%
%TA.AperFunction,SMDPad,CuDef*%
%ADD26RoundRect,0.225000X-0.225000X-0.250000X0.225000X-0.250000X0.225000X0.250000X-0.225000X0.250000X0*%
%TD*%
%TA.AperFunction,SMDPad,CuDef*%
%ADD27RoundRect,0.250000X0.250000X0.475000X-0.250000X0.475000X-0.250000X-0.475000X0.250000X-0.475000X0*%
%TD*%
%TA.AperFunction,SMDPad,CuDef*%
%ADD28RoundRect,0.250000X0.312500X1.075000X-0.312500X1.075000X-0.312500X-1.075000X0.312500X-1.075000X0*%
%TD*%
%TA.AperFunction,SMDPad,CuDef*%
%ADD29RoundRect,0.135000X-0.135000X-0.185000X0.135000X-0.185000X0.135000X0.185000X-0.135000X0.185000X0*%
%TD*%
%TA.AperFunction,SMDPad,CuDef*%
%ADD30RoundRect,0.250000X-0.250000X-0.475000X0.250000X-0.475000X0.250000X0.475000X-0.250000X0.475000X0*%
%TD*%
%TA.AperFunction,SMDPad,CuDef*%
%ADD31RoundRect,0.250000X-0.312500X-1.075000X0.312500X-1.075000X0.312500X1.075000X-0.312500X1.075000X0*%
%TD*%
%TA.AperFunction,SMDPad,CuDef*%
%ADD32R,1.500000X0.299999*%
%TD*%
%TA.AperFunction,SMDPad,CuDef*%
%ADD33R,0.299999X1.500000*%
%TD*%
%TA.AperFunction,ComponentPad*%
%ADD34C,0.499999*%
%TD*%
%TA.AperFunction,SMDPad,CuDef*%
%ADD35R,8.000000X8.000000*%
%TD*%
%TA.AperFunction,SMDPad,CuDef*%
%ADD36RoundRect,0.140000X-0.170000X0.140000X-0.170000X-0.140000X0.170000X-0.140000X0.170000X0.140000X0*%
%TD*%
%TA.AperFunction,SMDPad,CuDef*%
%ADD37R,5.918200X5.511800*%
%TD*%
%TA.AperFunction,SMDPad,CuDef*%
%ADD38R,2.489200X0.939800*%
%TD*%
%TA.AperFunction,ViaPad*%
%ADD39C,0.500000*%
%TD*%
%TA.AperFunction,ViaPad*%
%ADD40C,0.600000*%
%TD*%
%TA.AperFunction,Conductor*%
%ADD41C,0.500000*%
%TD*%
%TA.AperFunction,Conductor*%
%ADD42C,0.350000*%
%TD*%
%TA.AperFunction,Conductor*%
%ADD43C,0.200000*%
%TD*%
%TA.AperFunction,Conductor*%
%ADD44C,0.400000*%
%TD*%
%TA.AperFunction,Conductor*%
%ADD45C,0.300000*%
%TD*%
G04 APERTURE END LIST*
D10*
%TO.P,R2,1*%
%TO.N,/Project Architecture/Cell Sense & Balance/TAP8*%
X118000000Y-71312500D03*
%TO.P,R2,2*%
%TO.N,/Project Architecture/Cell Sense & Balance/VC8*%
X119650000Y-71312500D03*
%TD*%
D11*
%TO.P,R34,1*%
%TO.N,/Project Architecture/Connectors/T_P4*%
X142084997Y-75499999D03*
%TO.P,R34,2*%
%TO.N,/Project Architecture/Temperature Sense/GPIO4*%
X142084997Y-76519999D03*
%TD*%
D12*
%TO.P,R9,1*%
%TO.N,/Project Architecture/Cell Sense & Balance/TAP5*%
X110537500Y-82875000D03*
%TO.P,R9,2*%
%TO.N,/Project Architecture/Cell Sense & Balance/CB5*%
X116462500Y-82875000D03*
%TD*%
D13*
%TO.P,C39,1*%
%TO.N,/Project Architecture/Daisy Chain/U1_COMHP*%
X148450000Y-83518499D03*
%TO.P,C39,2*%
%TO.N,/Project Architecture/GND*%
X148450000Y-82558499D03*
%TD*%
D14*
%TO.P,C1,1*%
%TO.N,/Project Architecture/Cell Sense & Balance/BAT*%
X129175000Y-98800000D03*
%TO.P,C1,2*%
%TO.N,/Project Architecture/GND*%
X127625000Y-98800000D03*
%TD*%
D15*
%TO.P,D2,1,C_1*%
%TO.N,/Project Architecture/Temperature Sense/TBIAS*%
X134400001Y-79607000D03*
%TO.P,D2,2,A_2*%
%TO.N,/Project Architecture/Power & Reference/TSREF*%
X134400001Y-81893000D03*
%TD*%
D16*
%TO.P,C27,1*%
%TO.N,/Project Architecture/GND*%
X134909300Y-54150000D03*
%TO.P,C27,2*%
%TO.N,/Project Architecture/Power & Reference/LDOIN*%
X135869300Y-54150000D03*
%TD*%
D17*
%TO.P,C29,1*%
%TO.N,/Project Architecture/Temperature Sense/GPIO1*%
X131085000Y-77470000D03*
%TO.P,C29,2*%
%TO.N,/Project Architecture/GND*%
X130125000Y-77470000D03*
%TD*%
D18*
%TO.P,R25,1*%
%TO.N,/Project Architecture/Temperature Sense/TBIAS*%
X139284997Y-77149999D03*
%TO.P,R25,2*%
%TO.N,/Project Architecture/Connectors/T_P3*%
X139284997Y-75499999D03*
%TD*%
D19*
%TO.P,FID2,*%
%TO.N,*%
X110500000Y-133200000D03*
%TD*%
D11*
%TO.P,R32,1*%
%TO.N,/Project Architecture/Connectors/T_P2*%
X135160000Y-75499999D03*
%TO.P,R32,2*%
%TO.N,/Project Architecture/Temperature Sense/GPIO2*%
X135160000Y-76519999D03*
%TD*%
%TO.P,R38,1*%
%TO.N,/Project Architecture/Connectors/T_P8*%
X155929997Y-75499999D03*
%TO.P,R38,2*%
%TO.N,/Project Architecture/Temperature Sense/GPIO8*%
X155929997Y-76519999D03*
%TD*%
D20*
%TO.P,J1,1,1_1*%
%TO.N,/Project Architecture/Connectors/COML.P*%
X170750000Y-97000000D03*
%TO.P,J1,2,2_2*%
%TO.N,/Project Architecture/Connectors/COML.N*%
X170750000Y-94000001D03*
%TD*%
D21*
%TO.P,TP8,1,1_1*%
%TO.N,/Project Architecture/GND*%
X107150000Y-147100000D03*
%TD*%
D10*
%TO.P,R16,1*%
%TO.N,/Project Architecture/Cell Sense & Balance/TAP1*%
X118000000Y-103687500D03*
%TO.P,R16,2*%
%TO.N,/Project Architecture/Cell Sense & Balance/VC1*%
X119650000Y-103687500D03*
%TD*%
D17*
%TO.P,C33,1*%
%TO.N,/Project Architecture/Temperature Sense/GPIO5*%
X144930000Y-77440000D03*
%TO.P,C33,2*%
%TO.N,/Project Architecture/GND*%
X143970000Y-77440000D03*
%TD*%
D12*
%TO.P,R19,1*%
%TO.N,/Project Architecture/Cell Sense & Balance/TAP0*%
X110537500Y-106000000D03*
%TO.P,R19,2*%
%TO.N,/Project Architecture/Cell Sense & Balance/CB0*%
X116462500Y-106000000D03*
%TD*%
D22*
%TO.P,CR1,1*%
%TO.N,/Project Architecture/Daisy Chain/COML_WP*%
X151604100Y-94600000D03*
%TO.P,CR1,2*%
X151604100Y-96500002D03*
%TO.P,CR1,3*%
%TO.N,/Project Architecture/GND*%
X153902800Y-95550001D03*
%TD*%
D23*
%TO.P,C24,1*%
%TO.N,/Project Architecture/CVDD*%
X141750000Y-82475000D03*
%TO.P,C24,2*%
%TO.N,/Project Architecture/GND*%
X141750000Y-79525000D03*
%TD*%
D21*
%TO.P,TP12,1,1_1*%
%TO.N,/Project Architecture/Daisy Chain/U1_COMLN*%
X88950000Y-137000000D03*
%TD*%
D12*
%TO.P,R17,1*%
%TO.N,/Project Architecture/Cell Sense & Balance/TAP1*%
X110537500Y-101375000D03*
%TO.P,R17,2*%
%TO.N,/Project Architecture/Cell Sense & Balance/CB1*%
X116462500Y-101375000D03*
%TD*%
D18*
%TO.P,R23,1*%
%TO.N,/Project Architecture/Temperature Sense/TBIAS*%
X132359997Y-77149999D03*
%TO.P,R23,2*%
%TO.N,/Project Architecture/Connectors/T_P1*%
X132359997Y-75499999D03*
%TD*%
D24*
%TO.P,D1,1,K_1*%
%TO.N,/Project Architecture/GND*%
X145325000Y-59500000D03*
%TO.P,D1,2,A_2*%
%TO.N,Net-(D1-A)*%
X143750000Y-59500000D03*
%TD*%
D19*
%TO.P,FID3,*%
%TO.N,*%
X110500000Y-135750000D03*
%TD*%
D25*
%TO.P,U2,1*%
%TO.N,/Project Architecture/Daisy Chain/COML_WP*%
X157553450Y-93010001D03*
%TO.P,U2,2*%
%TO.N,/Project Architecture/Daisy Chain/COML_CT*%
X157553450Y-95550001D03*
%TO.P,U2,3*%
%TO.N,/Project Architecture/Daisy Chain/COML_WP*%
X157553450Y-98090001D03*
%TO.P,U2,4*%
%TO.N,/Project Architecture/Connectors/COML.P*%
X165846550Y-98090001D03*
%TO.P,U2,5*%
%TO.N,unconnected-(U2-Pad5)*%
X165846550Y-95550001D03*
%TO.P,U2,6*%
%TO.N,/Project Architecture/Connectors/COML.N*%
X165846550Y-93010001D03*
%TD*%
D17*
%TO.P,C31,1*%
%TO.N,/Project Architecture/Temperature Sense/GPIO3*%
X138004997Y-77464999D03*
%TO.P,C31,2*%
%TO.N,/Project Architecture/GND*%
X137044997Y-77464999D03*
%TD*%
D16*
%TO.P,C36,1*%
%TO.N,/Project Architecture/Temperature Sense/GPIO8*%
X155929997Y-77439999D03*
%TO.P,C36,2*%
%TO.N,/Project Architecture/GND*%
X156889997Y-77439999D03*
%TD*%
D21*
%TO.P,TP7,1,1_1*%
%TO.N,/Project Architecture/Power & Reference/TSREF*%
X107150000Y-143050000D03*
%TD*%
%TO.P,TP6,1,1_1*%
%TO.N,/Project Architecture/Power & Reference/LDOIN*%
X103100000Y-147100000D03*
%TD*%
D18*
%TO.P,R30,1*%
%TO.N,/Project Architecture/Temperature Sense/TBIAS*%
X154659997Y-77149999D03*
%TO.P,R30,2*%
%TO.N,/Project Architecture/Connectors/T_P8*%
X154659997Y-75499999D03*
%TD*%
D25*
%TO.P,U3,1*%
%TO.N,/Project Architecture/Daisy Chain/COMH_WP*%
X157553450Y-81928500D03*
%TO.P,U3,2*%
%TO.N,/Project Architecture/Daisy Chain/COMH_CT*%
X157553450Y-84468500D03*
%TO.P,U3,3*%
%TO.N,/Project Architecture/Daisy Chain/COMH_WN*%
X157553450Y-87008500D03*
%TO.P,U3,4*%
%TO.N,/Project Architecture/Connectors/COMH.N*%
X165846550Y-87008500D03*
%TO.P,U3,5*%
%TO.N,unconnected-(U3-Pad5)*%
X165846550Y-84468500D03*
%TO.P,U3,6*%
%TO.N,/Project Architecture/Connectors/COMH.P*%
X165846550Y-81928500D03*
%TD*%
D26*
%TO.P,C11,1*%
%TO.N,/Project Architecture/Cell Sense & Balance/VC1*%
X141500000Y-100300000D03*
%TO.P,C11,2*%
%TO.N,/Project Architecture/Cell Sense & Balance/VC0*%
X143050000Y-100300000D03*
%TD*%
D21*
%TO.P,TP5,1,1_1*%
%TO.N,/Project Architecture/Power & Reference/VCOLL*%
X103100000Y-143050000D03*
%TD*%
D10*
%TO.P,R18,1*%
%TO.N,/Project Architecture/Cell Sense & Balance/TAP0*%
X118000000Y-108000000D03*
%TO.P,R18,2*%
%TO.N,/Project Architecture/Cell Sense & Balance/VC0*%
X119650000Y-108000000D03*
%TD*%
D27*
%TO.P,C28,1*%
%TO.N,/Project Architecture/Power & Reference/VCOLL*%
X123277400Y-56250000D03*
%TO.P,C28,2*%
%TO.N,/Project Architecture/GND*%
X121377400Y-56250000D03*
%TD*%
D26*
%TO.P,C6,1*%
%TO.N,/Project Architecture/Cell Sense & Balance/VC6*%
X133750000Y-98800000D03*
%TO.P,C6,2*%
%TO.N,/Project Architecture/Cell Sense & Balance/VC5*%
X135300000Y-98800000D03*
%TD*%
D28*
%TO.P,R21,1*%
%TO.N,/Project Architecture/Power & Reference/VCOLL_R*%
X123252400Y-59000000D03*
%TO.P,R21,2*%
%TO.N,/Project Architecture/Power & Reference/VCOLL*%
X120327400Y-59000000D03*
%TD*%
D11*
%TO.P,R31,1*%
%TO.N,/Project Architecture/Connectors/T_P1*%
X131085000Y-75499999D03*
%TO.P,R31,2*%
%TO.N,/Project Architecture/Temperature Sense/GPIO1*%
X131085000Y-76519999D03*
%TD*%
%TO.P,R33,1*%
%TO.N,/Project Architecture/Connectors/T_P3*%
X138004997Y-75499999D03*
%TO.P,R33,2*%
%TO.N,/Project Architecture/Temperature Sense/GPIO3*%
X138004997Y-76519999D03*
%TD*%
D10*
%TO.P,R10,1*%
%TO.N,/Project Architecture/Cell Sense & Balance/TAP4*%
X118000000Y-89812500D03*
%TO.P,R10,2*%
%TO.N,/Project Architecture/Cell Sense & Balance/VC4*%
X119650000Y-89812500D03*
%TD*%
D11*
%TO.P,R40,1*%
%TO.N,/Project Architecture/Daisy Chain/U1_COMHP*%
X147450000Y-83858500D03*
%TO.P,R40,2*%
%TO.N,/Project Architecture/Daisy Chain/U1_COMHN*%
X147450000Y-84878500D03*
%TD*%
D26*
%TO.P,C12,1*%
%TO.N,/Project Architecture/Cell Sense & Balance/VC0*%
X143050000Y-98800000D03*
%TO.P,C12,2*%
%TO.N,/Project Architecture/GND*%
X144600000Y-98800000D03*
%TD*%
D10*
%TO.P,R1,1*%
%TO.N,/Project Architecture/VMODULE*%
X118000000Y-67000000D03*
%TO.P,R1,2*%
%TO.N,/Project Architecture/Cell Sense & Balance/BAT*%
X119650000Y-67000000D03*
%TD*%
D21*
%TO.P,TP11,1,1_1*%
%TO.N,/Project Architecture/Daisy Chain/U1_COMLP*%
X88950000Y-132950000D03*
%TD*%
D26*
%TO.P,C7,1*%
%TO.N,/Project Architecture/Cell Sense & Balance/VC5*%
X135300000Y-100300000D03*
%TO.P,C7,2*%
%TO.N,/Project Architecture/Cell Sense & Balance/VC4*%
X136850000Y-100300000D03*
%TD*%
D12*
%TO.P,R11,1*%
%TO.N,/Project Architecture/Cell Sense & Balance/TAP4*%
X110537500Y-87500000D03*
%TO.P,R11,2*%
%TO.N,/Project Architecture/Cell Sense & Balance/CB4*%
X116462500Y-87500000D03*
%TD*%
D29*
%TO.P,R43,1*%
%TO.N,/Project Architecture/Daisy Chain/U1_COMHP*%
X149390000Y-83518499D03*
%TO.P,R43,2*%
%TO.N,/Project Architecture/Daisy Chain/COMH_WP*%
X150410000Y-83518499D03*
%TD*%
D26*
%TO.P,C8,1*%
%TO.N,/Project Architecture/Cell Sense & Balance/VC4*%
X136850000Y-98800000D03*
%TO.P,C8,2*%
%TO.N,/Project Architecture/Cell Sense & Balance/VC3*%
X138400000Y-98800000D03*
%TD*%
D20*
%TO.P,J3,1,1_1*%
%TO.N,/Project Architecture/Connectors/T_P8*%
X154000000Y-71999999D03*
%TO.P,J3,2,2_2*%
%TO.N,/Project Architecture/Connectors/T_P7*%
X151000001Y-71999999D03*
%TO.P,J3,3,3_3*%
%TO.N,/Project Architecture/Connectors/T_P6*%
X148000002Y-71999999D03*
%TO.P,J3,4,4_4*%
%TO.N,/Project Architecture/Connectors/T_P5*%
X145000002Y-71999999D03*
%TO.P,J3,5,5_5*%
%TO.N,/Project Architecture/Connectors/T_P4*%
X142000003Y-71999999D03*
%TO.P,J3,6,6_6*%
%TO.N,/Project Architecture/Connectors/T_P3*%
X139000004Y-71999999D03*
%TO.P,J3,7,7_7*%
%TO.N,/Project Architecture/Connectors/T_P2*%
X136000005Y-71999999D03*
%TO.P,J3,8,8_8*%
%TO.N,/Project Architecture/Connectors/T_P1*%
X133000006Y-71999999D03*
%TO.P,J3,9,9_9*%
%TO.N,/Project Architecture/GND*%
X154000000Y-69000000D03*
%TO.P,J3,10,10_10*%
X151000001Y-69000000D03*
%TO.P,J3,11,11_11*%
X148000002Y-69000000D03*
%TO.P,J3,12,12_12*%
X145000002Y-69000000D03*
%TO.P,J3,13,13_13*%
X142000003Y-69000000D03*
%TO.P,J3,14,14_14*%
X139000004Y-69000000D03*
%TO.P,J3,15,15_15*%
X136000005Y-69000000D03*
%TO.P,J3,16,16_16*%
X133000006Y-69000000D03*
%TD*%
D10*
%TO.P,R14,1*%
%TO.N,/Project Architecture/Cell Sense & Balance/TAP2*%
X118000000Y-99062500D03*
%TO.P,R14,2*%
%TO.N,/Project Architecture/Cell Sense & Balance/VC2*%
X119650000Y-99062500D03*
%TD*%
%TO.P,R12,1*%
%TO.N,/Project Architecture/Cell Sense & Balance/TAP3*%
X118000000Y-94437500D03*
%TO.P,R12,2*%
%TO.N,/Project Architecture/Cell Sense & Balance/VC3*%
X119650000Y-94437500D03*
%TD*%
D13*
%TO.P,C25,1*%
%TO.N,/Project Architecture/Power & Reference/NEG5V*%
X144000000Y-81230000D03*
%TO.P,C25,2*%
%TO.N,/Project Architecture/GND*%
X144000000Y-80270000D03*
%TD*%
D11*
%TO.P,R35,1*%
%TO.N,/Project Architecture/Connectors/T_P5*%
X144930000Y-75500000D03*
%TO.P,R35,2*%
%TO.N,/Project Architecture/Temperature Sense/GPIO5*%
X144930000Y-76520000D03*
%TD*%
D30*
%TO.P,C21,1*%
%TO.N,/Project Architecture/GND*%
X137550000Y-80000000D03*
%TO.P,C21,2*%
%TO.N,/Project Architecture/Power & Reference/DVDD*%
X139450000Y-80000000D03*
%TD*%
D21*
%TO.P,TP1,1,1_1*%
%TO.N,/Project Architecture/CVDD*%
X95000000Y-143050000D03*
%TD*%
D20*
%TO.P,J4,1,1_1*%
%TO.N,/Project Architecture/VMODULE*%
X93814301Y-95339598D03*
%TO.P,J4,2,2_2*%
%TO.N,unconnected-(J4-Pad2)*%
X93814301Y-92339599D03*
%TO.P,J4,3,3_3*%
%TO.N,/Project Architecture/Cell Sense & Balance/TAP8*%
X93814301Y-89339600D03*
%TO.P,J4,4,4_4*%
%TO.N,/Project Architecture/Cell Sense & Balance/TAP7*%
X93814301Y-86339600D03*
%TO.P,J4,5,5_5*%
%TO.N,/Project Architecture/Cell Sense & Balance/TAP6*%
X93814301Y-83339601D03*
%TO.P,J4,6,6_6*%
%TO.N,/Project Architecture/Cell Sense & Balance/TAP5*%
X93814301Y-80339602D03*
%TO.P,J4,7,7_7*%
%TO.N,/Project Architecture/Cell Sense & Balance/TAP4*%
X96814300Y-95339598D03*
%TO.P,J4,8,8_8*%
%TO.N,/Project Architecture/Cell Sense & Balance/TAP3*%
X96814300Y-92339599D03*
%TO.P,J4,9,9_9*%
%TO.N,/Project Architecture/Cell Sense & Balance/TAP2*%
X96814300Y-89339600D03*
%TO.P,J4,10,10_10*%
%TO.N,/Project Architecture/Cell Sense & Balance/TAP1*%
X96814300Y-86339600D03*
%TO.P,J4,11,11_11*%
%TO.N,/Project Architecture/Cell Sense & Balance/TAP0*%
X96814300Y-83339601D03*
%TO.P,J4,12,12_12*%
%TO.N,/Project Architecture/GND*%
X96814300Y-80339602D03*
%TD*%
D18*
%TO.P,R29,1*%
%TO.N,/Project Architecture/Temperature Sense/TBIAS*%
X153120000Y-77149999D03*
%TO.P,R29,2*%
%TO.N,/Project Architecture/Connectors/T_P7*%
X153120000Y-75499999D03*
%TD*%
D21*
%TO.P,TP9,1,1_1*%
%TO.N,/Project Architecture/Connectors/T_P1*%
X95000000Y-132950000D03*
%TD*%
D16*
%TO.P,C32,1*%
%TO.N,/Project Architecture/Temperature Sense/GPIO4*%
X142084997Y-77439999D03*
%TO.P,C32,2*%
%TO.N,/Project Architecture/GND*%
X143044997Y-77439999D03*
%TD*%
D21*
%TO.P,TP13,1,1_1*%
%TO.N,/Project Architecture/Daisy Chain/U1_COMHP*%
X88950000Y-141050000D03*
%TD*%
%TO.P,TP10,1,1_1*%
%TO.N,/Project Architecture/GND*%
X95000000Y-137000000D03*
%TD*%
D12*
%TO.P,R5,1*%
%TO.N,/Project Architecture/Cell Sense & Balance/TAP7*%
X110537500Y-73625000D03*
%TO.P,R5,2*%
%TO.N,/Project Architecture/Cell Sense & Balance/CB7*%
X116462500Y-73625000D03*
%TD*%
D29*
%TO.P,R44,1*%
%TO.N,/Project Architecture/Daisy Chain/U1_COMHN*%
X149390000Y-85418501D03*
%TO.P,R44,2*%
%TO.N,/Project Architecture/Daisy Chain/COMH_WN*%
X150410000Y-85418501D03*
%TD*%
D20*
%TO.P,J4,1,1_1*%
%TO.N,/Project Architecture/GND*%
X76223000Y-102339594D03*
%TO.P,J4,2,2_2*%
%TO.N,/Project Architecture/Cell Sense & Balance/TAP0*%
X76223000Y-99339595D03*
%TO.P,J4,3,3_3*%
%TO.N,/Project Architecture/Cell Sense & Balance/TAP1*%
X76223000Y-96339596D03*
%TO.P,J4,4,4_4*%
%TO.N,/Project Architecture/Cell Sense & Balance/TAP2*%
X76223000Y-93339597D03*
%TO.P,J4,5,5_5*%
%TO.N,/Project Architecture/Cell Sense & Balance/TAP3*%
X76223000Y-90339598D03*
%TO.P,J4,6,6_6*%
%TO.N,/Project Architecture/Cell Sense & Balance/TAP4*%
X76223000Y-87339599D03*
%TO.P,J4,7,7_7*%
%TO.N,/Project Architecture/Cell Sense & Balance/TAP5*%
X76223000Y-84339600D03*
%TO.P,J4,8,8_8*%
%TO.N,/Project Architecture/Cell Sense & Balance/TAP6*%
X76223000Y-81339601D03*
%TO.P,J4,9,9_9*%
%TO.N,/Project Architecture/Cell Sense & Balance/TAP7*%
X76223000Y-78339602D03*
%TO.P,J4,10,10_10*%
%TO.N,/Project Architecture/Cell Sense & Balance/TAP8*%
X76223000Y-75339603D03*
%TO.P,J4,11,11_11*%
%TO.N,unconnected-(J4-Pad11)*%
X76223000Y-72339604D03*
%TO.P,J4,12,12_12*%
%TO.N,/Project Architecture/VMODULE*%
X76223000Y-69339605D03*
%TD*%
D10*
%TO.P,R8,1*%
%TO.N,/Project Architecture/Cell Sense & Balance/TAP5*%
X118000000Y-85187500D03*
%TO.P,R8,2*%
%TO.N,/Project Architecture/Cell Sense & Balance/VC5*%
X119650000Y-85187500D03*
%TD*%
D11*
%TO.P,R36,1*%
%TO.N,/Project Architecture/Connectors/T_P6*%
X148999997Y-75500000D03*
%TO.P,R36,2*%
%TO.N,/Project Architecture/Temperature Sense/GPIO6*%
X148999997Y-76520000D03*
%TD*%
D18*
%TO.P,R27,1*%
%TO.N,/Project Architecture/Temperature Sense/TBIAS*%
X146199997Y-77150000D03*
%TO.P,R27,2*%
%TO.N,/Project Architecture/Connectors/T_P5*%
X146199997Y-75500000D03*
%TD*%
D21*
%TO.P,TP4,1,1_1*%
%TO.N,/Project Architecture/Power & Reference/LDOIN*%
X99050000Y-147100000D03*
%TD*%
D26*
%TO.P,C2,1*%
%TO.N,/Project Architecture/Cell Sense & Balance/VC8*%
X130650000Y-98800000D03*
%TO.P,C2,2*%
%TO.N,/Project Architecture/Cell Sense & Balance/VC7*%
X132200000Y-98800000D03*
%TD*%
%TO.P,C10,1*%
%TO.N,/Project Architecture/Cell Sense & Balance/VC2*%
X139950000Y-98800000D03*
%TO.P,C10,2*%
%TO.N,/Project Architecture/Cell Sense & Balance/VC1*%
X141500000Y-98800000D03*
%TD*%
%TO.P,C5,1*%
%TO.N,/Project Architecture/Cell Sense & Balance/VC7*%
X132200000Y-100300000D03*
%TO.P,C5,2*%
%TO.N,/Project Architecture/Cell Sense & Balance/VC6*%
X133750000Y-100300000D03*
%TD*%
D14*
%TO.P,C22,1*%
%TO.N,/Project Architecture/GND*%
X150875000Y-103600000D03*
%TO.P,C22,2*%
%TO.N,/Project Architecture/Power & Reference/AVDD*%
X149325000Y-103600000D03*
%TD*%
D31*
%TO.P,R20,1*%
%TO.N,/Project Architecture/VMODULE*%
X115577400Y-59000000D03*
%TO.P,R20,2*%
%TO.N,/Project Architecture/Power & Reference/VCOLL_R*%
X118502400Y-59000000D03*
%TD*%
D20*
%TO.P,J2,1,1_1*%
%TO.N,/Project Architecture/Connectors/COMH.P*%
X170750000Y-83000000D03*
%TO.P,J2,2,2_2*%
%TO.N,/Project Architecture/Connectors/COMH.N*%
X170750000Y-85999999D03*
%TD*%
D12*
%TO.P,R7,1*%
%TO.N,/Project Architecture/Cell Sense & Balance/TAP6*%
X110537500Y-78250000D03*
%TO.P,R7,2*%
%TO.N,/Project Architecture/Cell Sense & Balance/CB6*%
X116462500Y-78250000D03*
%TD*%
D13*
%TO.P,C37,1*%
%TO.N,/Project Architecture/Daisy Chain/U1_COMLN*%
X148453450Y-94600000D03*
%TO.P,C37,2*%
%TO.N,/Project Architecture/GND*%
X148453450Y-93640000D03*
%TD*%
D29*
%TO.P,R41,1*%
%TO.N,/Project Architecture/Daisy Chain/U1_COMLN*%
X149343450Y-94600000D03*
%TO.P,R41,2*%
%TO.N,/Project Architecture/Daisy Chain/COML_WP*%
X150363450Y-94600000D03*
%TD*%
D21*
%TO.P,TP2,1,1_1*%
%TO.N,/Project Architecture/Power & Reference/DVDD*%
X95000000Y-147100000D03*
%TD*%
D11*
%TO.P,R39,1*%
%TO.N,/Project Architecture/Daisy Chain/U1_COMLN*%
X147453450Y-95040001D03*
%TO.P,R39,2*%
%TO.N,/Project Architecture/Daisy Chain/U1_COMLP*%
X147453450Y-96060001D03*
%TD*%
D16*
%TO.P,C34,1*%
%TO.N,/Project Architecture/Temperature Sense/GPIO6*%
X148999997Y-77440000D03*
%TO.P,C34,2*%
%TO.N,/Project Architecture/GND*%
X149959997Y-77440000D03*
%TD*%
D18*
%TO.P,R24,1*%
%TO.N,/Project Architecture/Temperature Sense/TBIAS*%
X133884997Y-77149999D03*
%TO.P,R24,2*%
%TO.N,/Project Architecture/Connectors/T_P2*%
X133884997Y-75499999D03*
%TD*%
D11*
%TO.P,R37,1*%
%TO.N,/Project Architecture/Connectors/T_P7*%
X151840000Y-75499999D03*
%TO.P,R37,2*%
%TO.N,/Project Architecture/Temperature Sense/GPIO7*%
X151840000Y-76519999D03*
%TD*%
D12*
%TO.P,R15,1*%
%TO.N,/Project Architecture/Cell Sense & Balance/TAP2*%
X110537500Y-96750000D03*
%TO.P,R15,2*%
%TO.N,/Project Architecture/Cell Sense & Balance/CB2*%
X116462500Y-96750000D03*
%TD*%
D18*
%TO.P,R26,1*%
%TO.N,/Project Architecture/Temperature Sense/TBIAS*%
X140809997Y-77149999D03*
%TO.P,R26,2*%
%TO.N,/Project Architecture/Connectors/T_P4*%
X140809997Y-75499999D03*
%TD*%
D32*
%TO.P,U1,1,BAT_1*%
%TO.N,/Project Architecture/Cell Sense & Balance/BAT*%
X130350000Y-86399999D03*
%TO.P,U1,2,CB16_2*%
X130350000Y-86899998D03*
%TO.P,U1,3,VC16_3*%
X130350000Y-87399999D03*
%TO.P,U1,4,CB15_4*%
X130350000Y-87899998D03*
%TO.P,U1,5,VC15_5*%
X130350000Y-88400000D03*
%TO.P,U1,6,CB14_6*%
X130350000Y-88899999D03*
%TO.P,U1,7,VC14_7*%
X130350000Y-89399998D03*
%TO.P,U1,8,CB13_8*%
X130350000Y-89899999D03*
%TO.P,U1,9,VC13_9*%
X130350000Y-90399999D03*
%TO.P,U1,10,CB12_10*%
X130350000Y-90900000D03*
%TO.P,U1,11,VC12_11*%
X130350000Y-91399999D03*
%TO.P,U1,12,CB11_12*%
X130350000Y-91899998D03*
%TO.P,U1,13,VC11_13*%
X130350000Y-92400000D03*
%TO.P,U1,14,CB10_14*%
X130350000Y-92899999D03*
%TO.P,U1,15,VC10_15*%
X130350000Y-93400000D03*
%TO.P,U1,16,CB9_16*%
X130350000Y-93899999D03*
D33*
%TO.P,U1,17,VC9_17*%
X132299999Y-95849998D03*
%TO.P,U1,18,CB8_18*%
%TO.N,/Project Architecture/Cell Sense & Balance/CB8*%
X132799998Y-95849998D03*
%TO.P,U1,19,VC8_19*%
%TO.N,/Project Architecture/Cell Sense & Balance/VC8*%
X133299999Y-95849998D03*
%TO.P,U1,20,CB7_20*%
%TO.N,/Project Architecture/Cell Sense & Balance/CB7*%
X133799998Y-95849998D03*
%TO.P,U1,21,VC7_21*%
%TO.N,/Project Architecture/Cell Sense & Balance/VC7*%
X134300000Y-95849998D03*
%TO.P,U1,22,CB6_22*%
%TO.N,/Project Architecture/Cell Sense & Balance/CB6*%
X134799999Y-95849998D03*
%TO.P,U1,23,VC6_23*%
%TO.N,/Project Architecture/Cell Sense & Balance/VC6*%
X135299998Y-95849998D03*
%TO.P,U1,24,CB5_24*%
%TO.N,/Project Architecture/Cell Sense & Balance/CB5*%
X135799999Y-95849998D03*
%TO.P,U1,25,VC5_25*%
%TO.N,/Project Architecture/Cell Sense & Balance/VC5*%
X136299999Y-95849998D03*
%TO.P,U1,26,CB4_26*%
%TO.N,/Project Architecture/Cell Sense & Balance/CB4*%
X136800000Y-95849998D03*
%TO.P,U1,27,VC4_27*%
%TO.N,/Project Architecture/Cell Sense & Balance/VC4*%
X137299999Y-95849998D03*
%TO.P,U1,28,CB3_28*%
%TO.N,/Project Architecture/Cell Sense & Balance/CB3*%
X137799998Y-95849998D03*
%TO.P,U1,29,VC3_29*%
%TO.N,/Project Architecture/Cell Sense & Balance/VC3*%
X138300000Y-95849998D03*
%TO.P,U1,30,CB2_30*%
%TO.N,/Project Architecture/Cell Sense & Balance/CB2*%
X138799999Y-95849998D03*
%TO.P,U1,31,VC2_31*%
%TO.N,/Project Architecture/Cell Sense & Balance/VC2*%
X139300000Y-95849998D03*
%TO.P,U1,32,CB1_32*%
%TO.N,/Project Architecture/Cell Sense & Balance/CB1*%
X139799999Y-95849998D03*
D32*
%TO.P,U1,33,VC1_33*%
%TO.N,/Project Architecture/Cell Sense & Balance/VC1*%
X141749998Y-93899999D03*
%TO.P,U1,34,CB0_34*%
%TO.N,/Project Architecture/Cell Sense & Balance/CB0*%
X141749998Y-93400000D03*
%TO.P,U1,35,VC0_35*%
%TO.N,/Project Architecture/Cell Sense & Balance/VC0*%
X141749998Y-92899999D03*
%TO.P,U1,36,REFHM_36*%
%TO.N,/Project Architecture/GND*%
X141749998Y-92400000D03*
%TO.P,U1,37,REFHP_37*%
%TO.N,/Project Architecture/Power & Reference/REFHP*%
X141749998Y-91899998D03*
%TO.P,U1,38,AVDD_38*%
%TO.N,/Project Architecture/Power & Reference/AVDD*%
X141749998Y-91399999D03*
%TO.P,U1,39,AVSS_39*%
%TO.N,/Project Architecture/GND*%
X141749998Y-90900000D03*
%TO.P,U1,40,COMLP_40*%
%TO.N,/Project Architecture/Daisy Chain/U1_COMLP*%
X141749998Y-90399999D03*
%TO.P,U1,41,COMLN_41*%
%TO.N,/Project Architecture/Daisy Chain/U1_COMLN*%
X141749998Y-89899999D03*
%TO.P,U1,42,COMHN_42*%
%TO.N,/Project Architecture/Daisy Chain/U1_COMHN*%
X141749998Y-89399998D03*
%TO.P,U1,43,COMHP_43*%
%TO.N,/Project Architecture/Daisy Chain/U1_COMHP*%
X141749998Y-88899999D03*
%TO.P,U1,44,NEG5V_44*%
%TO.N,/Project Architecture/Power & Reference/NEG5V*%
X141749998Y-88400000D03*
%TO.P,U1,45,CVDD_45*%
%TO.N,/Project Architecture/CVDD*%
X141749998Y-87899998D03*
%TO.P,U1,46,CVSS_46*%
%TO.N,/Project Architecture/GND*%
X141749998Y-87399999D03*
%TO.P,U1,47,LDOIN_47*%
%TO.N,/Project Architecture/Power & Reference/LDOIN*%
X141749998Y-86899998D03*
%TO.P,U1,48,NPNB_48*%
%TO.N,/Project Architecture/Power & Reference/NPNB*%
X141749998Y-86399999D03*
D33*
%TO.P,U1,49,DVDD_49*%
%TO.N,/Project Architecture/Power & Reference/DVDD*%
X139799999Y-84450000D03*
%TO.P,U1,50,DVSS_50*%
%TO.N,/Project Architecture/GND*%
X139300000Y-84450000D03*
%TO.P,U1,51,TSREF_51*%
%TO.N,/Project Architecture/Power & Reference/TSREF*%
X138799999Y-84450000D03*
%TO.P,U1,52,RX_52*%
%TO.N,/Project Architecture/CVDD*%
X138300000Y-84450000D03*
%TO.P,U1,53,TX_53*%
%TO.N,unconnected-(U1Communication-TX-Pad53)*%
X137799998Y-84450000D03*
%TO.P,U1,54,GPIO8_54*%
%TO.N,/Project Architecture/Temperature Sense/GPIO8*%
X137299999Y-84450000D03*
%TO.P,U1,55,GPIO7_55*%
%TO.N,/Project Architecture/Temperature Sense/GPIO7*%
X136800000Y-84450000D03*
%TO.P,U1,56,GPIO6_56*%
%TO.N,/Project Architecture/Temperature Sense/GPIO6*%
X136299999Y-84450000D03*
%TO.P,U1,57,GPIO5_57*%
%TO.N,/Project Architecture/Temperature Sense/GPIO5*%
X135799999Y-84450000D03*
%TO.P,U1,58,GPIO4_58*%
%TO.N,/Project Architecture/Temperature Sense/GPIO4*%
X135299998Y-84450000D03*
%TO.P,U1,59,GPIO3_59*%
%TO.N,/Project Architecture/Temperature Sense/GPIO3*%
X134799999Y-84450000D03*
%TO.P,U1,60,GPIO2_60*%
%TO.N,/Project Architecture/Temperature Sense/GPIO2*%
X134300000Y-84450000D03*
%TO.P,U1,61,GPIO1_61*%
%TO.N,/Project Architecture/Temperature Sense/GPIO1*%
X133799998Y-84450000D03*
%TO.P,U1,62,FAULT_N_62*%
%TO.N,unconnected-(U1Communication-FAULT_N-Pad62)*%
X133299999Y-84450000D03*
%TO.P,U1,63,BBN_63*%
%TO.N,unconnected-(U1Aux inputs-BBN-Pad63)*%
X132799998Y-84450000D03*
%TO.P,U1,64,BBP_64*%
%TO.N,unconnected-(U1Aux inputs-BBP-Pad64)*%
X132299999Y-84450000D03*
D34*
%TO.P,U1,65,PAD_65*%
%TO.N,/Project Architecture/GND*%
X132799998Y-86899998D03*
X132799998Y-88199998D03*
X132799998Y-89500000D03*
X132799998Y-90800000D03*
X132799998Y-92100000D03*
X132799998Y-93400000D03*
X134099998Y-86899998D03*
X134099998Y-88199998D03*
X134099998Y-89500000D03*
X134099998Y-90800000D03*
X134099998Y-92100000D03*
X134099998Y-93400000D03*
X135399998Y-86899998D03*
X135399998Y-88199998D03*
X135399998Y-89500000D03*
X135399998Y-90800000D03*
X135399998Y-92100000D03*
X135399998Y-93400000D03*
D35*
X136049999Y-90149999D03*
D34*
X136700000Y-86899998D03*
X136700000Y-88199998D03*
X136700000Y-89500000D03*
X136700000Y-90800000D03*
X136700000Y-92100000D03*
X136700000Y-93400000D03*
X138000000Y-86899998D03*
X138000000Y-88199998D03*
X138000000Y-89500000D03*
X138000000Y-90800000D03*
X138000000Y-92100000D03*
X138000000Y-93400000D03*
X139300000Y-86899998D03*
X139300000Y-88199998D03*
X139300000Y-89500000D03*
X139300000Y-90800000D03*
X139300000Y-92100000D03*
X139300000Y-93400000D03*
%TD*%
D36*
%TO.P,C40,1*%
%TO.N,/Project Architecture/Daisy Chain/U1_COMHN*%
X148450000Y-85418501D03*
%TO.P,C40,2*%
%TO.N,/Project Architecture/GND*%
X148450000Y-86378501D03*
%TD*%
D29*
%TO.P,R22,1*%
%TO.N,/Project Architecture/CVDD*%
X144782116Y-58287400D03*
%TO.P,R22,2*%
%TO.N,Net-(D1-A)*%
X145802116Y-58287400D03*
%TD*%
D19*
%TO.P,FID1,*%
%TO.N,*%
X110500000Y-130650000D03*
%TD*%
D18*
%TO.P,R28,1*%
%TO.N,/Project Architecture/Temperature Sense/TBIAS*%
X147724997Y-77150000D03*
%TO.P,R28,2*%
%TO.N,/Project Architecture/Connectors/T_P6*%
X147724997Y-75500000D03*
%TD*%
D22*
%TO.P,CR2,1*%
%TO.N,/Project Architecture/Daisy Chain/COMH_WP*%
X151604100Y-83518499D03*
%TO.P,CR2,2*%
%TO.N,/Project Architecture/Daisy Chain/COMH_WN*%
X151604100Y-85418501D03*
%TO.P,CR2,3*%
%TO.N,/Project Architecture/GND*%
X153902800Y-84468500D03*
%TD*%
D16*
%TO.P,C30,1*%
%TO.N,/Project Architecture/Temperature Sense/GPIO2*%
X135160000Y-77470000D03*
%TO.P,C30,2*%
%TO.N,/Project Architecture/GND*%
X136120000Y-77470000D03*
%TD*%
D37*
%TO.P,Q1,1,C_1*%
%TO.N,/Project Architecture/Power & Reference/VCOLL*%
X127500000Y-57750000D03*
D38*
%TO.P,Q1,2,B_2*%
%TO.N,/Project Architecture/Power & Reference/NPNB*%
X135869300Y-60030001D03*
%TO.P,Q1,3,E_3*%
%TO.N,/Project Architecture/Power & Reference/LDOIN*%
X135869300Y-55469999D03*
%TD*%
D36*
%TO.P,C38,1*%
%TO.N,/Project Architecture/Daisy Chain/U1_COMLP*%
X148453450Y-96500002D03*
%TO.P,C38,2*%
%TO.N,/Project Architecture/GND*%
X148453450Y-97460002D03*
%TD*%
D17*
%TO.P,C41,1*%
%TO.N,/Project Architecture/Daisy Chain/COML_CT*%
X156133450Y-95550001D03*
%TO.P,C41,2*%
%TO.N,/Project Architecture/GND*%
X155173450Y-95550001D03*
%TD*%
D12*
%TO.P,R13,1*%
%TO.N,/Project Architecture/Cell Sense & Balance/TAP3*%
X110537500Y-92125000D03*
%TO.P,R13,2*%
%TO.N,/Project Architecture/Cell Sense & Balance/CB3*%
X116462500Y-92125000D03*
%TD*%
D14*
%TO.P,C26,1*%
%TO.N,/Project Architecture/Power & Reference/TSREF*%
X131750000Y-80500000D03*
%TO.P,C26,2*%
%TO.N,/Project Architecture/GND*%
X130200000Y-80500000D03*
%TD*%
%TO.P,C23,1*%
%TO.N,/Project Architecture/GND*%
X151175000Y-101700000D03*
%TO.P,C23,2*%
%TO.N,/Project Architecture/Power & Reference/REFHP*%
X149625000Y-101700000D03*
%TD*%
D17*
%TO.P,C42,1*%
%TO.N,/Project Architecture/Daisy Chain/COMH_CT*%
X156180000Y-84468500D03*
%TO.P,C42,2*%
%TO.N,/Project Architecture/GND*%
X155220000Y-84468500D03*
%TD*%
%TO.P,C35,1*%
%TO.N,/Project Architecture/Temperature Sense/GPIO7*%
X151840000Y-77439999D03*
%TO.P,C35,2*%
%TO.N,/Project Architecture/GND*%
X150880000Y-77439999D03*
%TD*%
D10*
%TO.P,R4,1*%
%TO.N,/Project Architecture/Cell Sense & Balance/TAP7*%
X118000000Y-75937500D03*
%TO.P,R4,2*%
%TO.N,/Project Architecture/Cell Sense & Balance/VC7*%
X119650000Y-75937500D03*
%TD*%
D26*
%TO.P,C9,1*%
%TO.N,/Project Architecture/Cell Sense & Balance/VC3*%
X138400000Y-100300000D03*
%TO.P,C9,2*%
%TO.N,/Project Architecture/Cell Sense & Balance/VC2*%
X139950000Y-100300000D03*
%TD*%
D21*
%TO.P,TP3,1,1_1*%
%TO.N,/Project Architecture/Power & Reference/AVDD*%
X99050000Y-143050000D03*
%TD*%
D10*
%TO.P,R6,1*%
%TO.N,/Project Architecture/Cell Sense & Balance/TAP6*%
X118000000Y-80562500D03*
%TO.P,R6,2*%
%TO.N,/Project Architecture/Cell Sense & Balance/VC6*%
X119650000Y-80562500D03*
%TD*%
D29*
%TO.P,R42,1*%
%TO.N,/Project Architecture/Daisy Chain/U1_COMLP*%
X149343450Y-96500002D03*
%TO.P,R42,2*%
%TO.N,/Project Architecture/Daisy Chain/COML_WP*%
X150363450Y-96500002D03*
%TD*%
D12*
%TO.P,R3,1*%
%TO.N,/Project Architecture/Cell Sense & Balance/TAP8*%
X110537500Y-69000000D03*
%TO.P,R3,2*%
%TO.N,/Project Architecture/Cell Sense & Balance/CB8*%
X116462500Y-69000000D03*
%TD*%
D21*
%TO.P,TP14,1,1_1*%
%TO.N,/Project Architecture/Daisy Chain/U1_COMHN*%
X88950000Y-145100000D03*
%TD*%
D39*
%TO.N,/Project Architecture/GND*%
X144325000Y-91700000D03*
X144353684Y-94898633D03*
X144325000Y-94096175D03*
X145310570Y-95989430D03*
X144966289Y-89612570D03*
X144760570Y-95439430D03*
X144325000Y-92500000D03*
X145834167Y-96513027D03*
X144325000Y-93300000D03*
X146491529Y-96810001D03*
X143800000Y-91350000D03*
D40*
%TO.N,/Project Architecture/Cell Sense & Balance/CB0*%
X143100000Y-93700000D03*
%TD*%
%TO.N,/Project Architecture/Cell Sense & Balance/TAP8*%
D41*
X118000000Y-71312500D02*
X112850000Y-71312500D01*
X112850000Y-71312500D02*
X110537500Y-69000000D01*
%TO.N,/Project Architecture/Cell Sense & Balance/VC8*%
D42*
X124800000Y-101100000D02*
X126900000Y-103200000D01*
X129100000Y-103200000D02*
X130650000Y-101650000D01*
X126900000Y-103200000D02*
X129100000Y-103200000D01*
D43*
X133299999Y-96849996D02*
X132124995Y-98025000D01*
D42*
X119650000Y-71312500D02*
X124800000Y-76462500D01*
D43*
X133299999Y-95849998D02*
X133299999Y-96849996D01*
D42*
X130650000Y-101650000D02*
X130650000Y-98800000D01*
D43*
X132124995Y-98025000D02*
X131425000Y-98025000D01*
X131425000Y-98025000D02*
X130650000Y-98800000D01*
D42*
X124800000Y-76462500D02*
X124800000Y-101100000D01*
%TO.N,/Project Architecture/Connectors/T_P4*%
D43*
X142000003Y-75415005D02*
X142084997Y-75499999D01*
X140809997Y-75499999D02*
X142084997Y-75499999D01*
X142000003Y-71999999D02*
X142000003Y-75415005D01*
%TO.N,/Project Architecture/Temperature Sense/GPIO4*%
X142084997Y-76519999D02*
X142084997Y-77439999D01*
%TO.N,/Project Architecture/Cell Sense & Balance/TAP5*%
D41*
X112850000Y-85187500D02*
X110537500Y-82875000D01*
X118000000Y-85187500D02*
X112850000Y-85187500D01*
%TO.N,/Project Architecture/Daisy Chain/U1_COMHP*%
D43*
X146523302Y-83858500D02*
X145200000Y-85181802D01*
X144240901Y-88700000D02*
X143034314Y-88700000D01*
X147450000Y-83858500D02*
X148109999Y-83858500D01*
X147450000Y-83858500D02*
X146523302Y-83858500D01*
X148109999Y-83858500D02*
X148450000Y-83518499D01*
X148450000Y-83518499D02*
X149390000Y-83518499D01*
X145200000Y-87740901D02*
X144240901Y-88700000D01*
X143034314Y-88700000D02*
X142834316Y-88899999D01*
X145200000Y-85181802D02*
X145200000Y-87740901D01*
X142834316Y-88899999D02*
X141749998Y-88899999D01*
%TO.N,/Project Architecture/GND*%
D44*
X155173450Y-95550001D02*
X153902800Y-95550001D01*
X155220000Y-84468500D02*
X153902800Y-84468500D01*
%TO.N,/Project Architecture/Temperature Sense/GPIO1*%
D43*
X131085000Y-76519999D02*
X131085000Y-77470000D01*
%TO.N,/Project Architecture/Connectors/T_P3*%
X139284997Y-75499999D02*
X138004997Y-75499999D01*
X138004997Y-72995006D02*
X139000004Y-71999999D01*
X138004997Y-75499999D02*
X138004997Y-72995006D01*
%TO.N,/Project Architecture/Connectors/T_P2*%
X133884997Y-75499999D02*
X135160000Y-75499999D01*
%TO.N,/Project Architecture/Temperature Sense/GPIO2*%
X135160000Y-76519999D02*
X135160000Y-77470000D01*
%TO.N,/Project Architecture/Connectors/T_P8*%
X155929997Y-75499999D02*
X155929997Y-73929996D01*
X154659997Y-75499999D02*
X155929997Y-75499999D01*
X155929997Y-73929996D02*
X154000000Y-71999999D01*
%TO.N,/Project Architecture/Temperature Sense/GPIO8*%
X155929997Y-76519999D02*
X155929997Y-77439999D01*
%TO.N,/Project Architecture/Connectors/COML.P*%
X166860000Y-98090001D02*
X165846550Y-98090001D01*
X170750000Y-96050001D02*
X170487500Y-95787501D01*
X170487500Y-95787501D02*
X169162500Y-95787501D01*
X169162500Y-95787501D02*
X166860000Y-98090001D01*
X170750000Y-97000000D02*
X170750000Y-96050001D01*
%TO.N,/Project Architecture/Connectors/COML.N*%
X170750000Y-95100001D02*
X170462500Y-95387501D01*
X170462500Y-95387501D02*
X169187500Y-95387501D01*
X169187500Y-95387501D02*
X166810000Y-93010001D01*
X170750000Y-94000001D02*
X170750000Y-95100001D01*
X166810000Y-93010001D02*
X165846550Y-93010001D01*
%TO.N,/Project Architecture/Cell Sense & Balance/TAP1*%
D41*
X112850000Y-103687500D02*
X110537500Y-101375000D01*
X118000000Y-103687500D02*
X112850000Y-103687500D01*
%TO.N,/Project Architecture/Cell Sense & Balance/VC1*%
D42*
X123012500Y-107050000D02*
X134750000Y-107050000D01*
D43*
X141749998Y-93899999D02*
X141749998Y-98550002D01*
X141500000Y-98800000D02*
X141500000Y-100300000D01*
D42*
X134750000Y-107050000D02*
X141500000Y-100300000D01*
D43*
X141749998Y-98550002D02*
X141500000Y-98800000D01*
D42*
X119650000Y-103687500D02*
X123012500Y-107050000D01*
%TO.N,/Project Architecture/Temperature Sense/GPIO5*%
D43*
X144930000Y-76520000D02*
X144930000Y-77440000D01*
%TO.N,/Project Architecture/Cell Sense & Balance/CB0*%
D45*
X141749998Y-93400000D02*
X142800000Y-93400000D01*
X142800000Y-93400000D02*
X143100000Y-93700000D01*
%TO.N,/Project Architecture/Daisy Chain/COML_WP*%
D43*
X155963451Y-94600000D02*
X157553450Y-93010001D01*
X151604100Y-94600000D02*
X155963451Y-94600000D01*
X150363450Y-94600000D02*
X151604100Y-94600000D01*
X150363450Y-96500002D02*
X151604100Y-96500002D01*
X151604100Y-96500002D02*
X155963451Y-96500002D01*
X155963451Y-96500002D02*
X157553450Y-98090001D01*
%TO.N,/Project Architecture/Daisy Chain/U1_COMLN*%
X144500000Y-90200000D02*
X145525000Y-91225000D01*
X145525000Y-91225000D02*
X145525000Y-94506802D01*
X147453450Y-95040001D02*
X148013449Y-95040001D01*
X142899999Y-89899999D02*
X143200000Y-90200000D01*
X149343450Y-94600000D02*
X148453450Y-94600000D01*
X145525000Y-94506802D02*
X146343199Y-95325001D01*
X146343199Y-95325001D02*
X147168450Y-95325001D01*
X141749998Y-89899999D02*
X142899999Y-89899999D01*
X148013449Y-95040001D02*
X148453450Y-94600000D01*
X147168450Y-95325001D02*
X147453450Y-95040001D01*
X143200000Y-90200000D02*
X144500000Y-90200000D01*
%TO.N,/Project Architecture/Connectors/T_P1*%
X132359997Y-75499999D02*
X131085000Y-75499999D01*
X131085000Y-75499999D02*
X131085000Y-73915005D01*
X131085000Y-73915005D02*
X133000006Y-71999999D01*
%TO.N,/Project Architecture/Daisy Chain/COML_CT*%
X157553450Y-95550001D02*
X156133450Y-95550001D01*
%TO.N,/Project Architecture/Temperature Sense/GPIO3*%
X138004997Y-76519999D02*
X138004997Y-77464999D01*
%TO.N,/Project Architecture/Daisy Chain/COMH_WP*%
X155963451Y-83518499D02*
X157553450Y-81928500D01*
X151604100Y-83518499D02*
X155963451Y-83518499D01*
X151604100Y-83518499D02*
X150410000Y-83518499D01*
%TO.N,/Project Architecture/Daisy Chain/COMH_CT*%
X156180000Y-84468500D02*
X157553450Y-84468500D01*
%TO.N,/Project Architecture/Daisy Chain/COMH_WN*%
X151604100Y-85418501D02*
X155963451Y-85418501D01*
X150410000Y-85418501D02*
X151604100Y-85418501D01*
X155963451Y-85418501D02*
X157553450Y-87008500D01*
%TO.N,/Project Architecture/Connectors/COMH.N*%
X167293500Y-84725000D02*
X169475000Y-84725000D01*
X165846550Y-87008500D02*
X165846550Y-86171950D01*
X169475000Y-84725000D02*
X170750000Y-85999999D01*
X165846550Y-86171950D02*
X167293500Y-84725000D01*
%TO.N,/Project Architecture/Connectors/COMH.P*%
X165846550Y-81928500D02*
X165846550Y-82815050D01*
X165846550Y-82815050D02*
X167306500Y-84275000D01*
X167306500Y-84275000D02*
X169475000Y-84275000D01*
X169475000Y-84275000D02*
X170750000Y-83000000D01*
%TO.N,/Project Architecture/Cell Sense & Balance/VC0*%
X143050000Y-98800000D02*
X143050000Y-100300000D01*
X143399999Y-92899999D02*
X143800000Y-93300000D01*
D42*
X135350000Y-108000000D02*
X143050000Y-100300000D01*
D43*
X143800000Y-94000000D02*
X143050000Y-94750000D01*
X143800000Y-93300000D02*
X143800000Y-94000000D01*
D42*
X119650000Y-108000000D02*
X135350000Y-108000000D01*
D43*
X143050000Y-94750000D02*
X143050000Y-98800000D01*
X141749998Y-92899999D02*
X143399999Y-92899999D01*
%TO.N,/Project Architecture/Cell Sense & Balance/VC6*%
D42*
X129750000Y-104300000D02*
X133750000Y-100300000D01*
X126444366Y-104300000D02*
X129750000Y-104300000D01*
D43*
X135299998Y-97250002D02*
X135299998Y-95849998D01*
D42*
X123700000Y-84612500D02*
X123700000Y-101555636D01*
X123700000Y-101555636D02*
X126444366Y-104300000D01*
D43*
X133750000Y-98800000D02*
X133750000Y-100300000D01*
D42*
X119650000Y-80562500D02*
X123700000Y-84612500D01*
D43*
X133750000Y-98800000D02*
X135299998Y-97250002D01*
%TO.N,/Project Architecture/Cell Sense & Balance/VC5*%
D42*
X126216549Y-104850000D02*
X130750000Y-104850000D01*
X119650000Y-85187500D02*
X123150000Y-88687500D01*
X123150000Y-88687500D02*
X123150000Y-101783454D01*
D43*
X135300000Y-98800000D02*
X135300000Y-100300000D01*
D42*
X123150000Y-101783454D02*
X126216549Y-104850000D01*
X130750000Y-104850000D02*
X135300000Y-100300000D01*
%TO.N,/Project Architecture/Cell Sense & Balance/TAP4*%
D41*
X112850000Y-89812500D02*
X110537500Y-87500000D01*
X118000000Y-89812500D02*
X112850000Y-89812500D01*
%TO.N,/Project Architecture/Cell Sense & Balance/VC4*%
D42*
X125988732Y-105400000D02*
X131750000Y-105400000D01*
D43*
X136850000Y-98800000D02*
X136850000Y-100300000D01*
D42*
X119650000Y-89812500D02*
X122600000Y-92762500D01*
X122600000Y-102011272D02*
X125988732Y-105400000D01*
X122600000Y-92762500D02*
X122600000Y-102011272D01*
X131750000Y-105400000D02*
X136850000Y-100300000D01*
%TO.N,/Project Architecture/Daisy Chain/U1_COMHN*%
D43*
X144418198Y-89100000D02*
X145600000Y-87918198D01*
X147165000Y-84593500D02*
X147450000Y-84878500D01*
X142900002Y-89399998D02*
X143200000Y-89100000D01*
X145600000Y-85418198D02*
X146424698Y-84593500D01*
X143200000Y-89100000D02*
X144418198Y-89100000D01*
X147909999Y-84878500D02*
X148450000Y-85418501D01*
X147450000Y-84878500D02*
X147909999Y-84878500D01*
X145600000Y-87918198D02*
X145600000Y-85418198D01*
X146424698Y-84593500D02*
X147165000Y-84593500D01*
X149390000Y-85418501D02*
X148450000Y-85418501D01*
X141749998Y-89399998D02*
X142900002Y-89399998D01*
%TO.N,/Project Architecture/Daisy Chain/U1_COMLP*%
X146441803Y-96060001D02*
X145075000Y-94693198D01*
X145075000Y-94693198D02*
X145075000Y-91340686D01*
X143000000Y-90600000D02*
X142799999Y-90399999D01*
X144334314Y-90600000D02*
X143000000Y-90600000D01*
X142799999Y-90399999D02*
X141749998Y-90399999D01*
X147453450Y-96060001D02*
X146441803Y-96060001D01*
X145075000Y-91340686D02*
X144334314Y-90600000D01*
X149343450Y-96500002D02*
X148453450Y-96500002D01*
X147453450Y-96060001D02*
X148013449Y-96060001D01*
X148013449Y-96060001D02*
X148453450Y-96500002D01*
%TO.N,/Project Architecture/Cell Sense & Balance/VC3*%
X138400000Y-98800000D02*
X138300000Y-98700000D01*
D42*
X125760910Y-105950000D02*
X132750000Y-105950000D01*
X122050000Y-96837500D02*
X122050000Y-102239090D01*
X132750000Y-105950000D02*
X138400000Y-100300000D01*
D43*
X138400000Y-98800000D02*
X138400000Y-100300000D01*
D42*
X122050000Y-102239090D02*
X125760910Y-105950000D01*
X119650000Y-94437500D02*
X122050000Y-96837500D01*
%TO.N,/Project Architecture/Connectors/T_P7*%
D43*
X153120000Y-75499999D02*
X151840000Y-75499999D01*
X151840000Y-72839998D02*
X151000001Y-71999999D01*
X151840000Y-75499999D02*
X151840000Y-72839998D01*
%TO.N,/Project Architecture/Connectors/T_P6*%
X148999997Y-75500000D02*
X148999997Y-72999994D01*
X148999997Y-75500000D02*
X147724997Y-75500000D01*
X148999997Y-72999994D02*
X148000002Y-71999999D01*
%TO.N,/Project Architecture/Connectors/T_P5*%
X145000002Y-71999999D02*
X145000002Y-75429998D01*
X146199997Y-75500000D02*
X144930000Y-75500000D01*
X145000002Y-75429998D02*
X144930000Y-75500000D01*
%TO.N,/Project Architecture/Cell Sense & Balance/TAP2*%
D41*
X118000000Y-99062500D02*
X112850000Y-99062500D01*
X112850000Y-99062500D02*
X110537500Y-96750000D01*
%TO.N,/Project Architecture/Cell Sense & Balance/VC2*%
D42*
X133750000Y-106500000D02*
X139950000Y-100300000D01*
X119650000Y-99062500D02*
X119650000Y-100616907D01*
D43*
X139950000Y-98800000D02*
X139950000Y-100300000D01*
D42*
X119650000Y-100616907D02*
X125533093Y-106500000D01*
X125533093Y-106500000D02*
X133750000Y-106500000D01*
%TO.N,/Project Architecture/Cell Sense & Balance/TAP3*%
D41*
X118000000Y-94437500D02*
X112850000Y-94437500D01*
X112850000Y-94437500D02*
X110537500Y-92125000D01*
%TO.N,/Project Architecture/Cell Sense & Balance/TAP7*%
X112850000Y-75937500D02*
X110537500Y-73625000D01*
X118000000Y-75937500D02*
X112850000Y-75937500D01*
%TO.N,/Project Architecture/Cell Sense & Balance/TAP6*%
X112850000Y-80562500D02*
X110537500Y-78250000D01*
X118000000Y-80562500D02*
X112850000Y-80562500D01*
X110500000Y-78981150D02*
X110500000Y-77820000D01*
%TO.N,/Project Architecture/Temperature Sense/GPIO6*%
D43*
X148999997Y-76520000D02*
X148999997Y-77440000D01*
%TO.N,/Project Architecture/Cell Sense & Balance/VC7*%
X132200000Y-98800000D02*
X132200000Y-100300000D01*
D42*
X124250000Y-80537500D02*
X124250000Y-101327818D01*
X129327818Y-103750000D02*
X132200000Y-100877818D01*
D43*
X132200000Y-98800000D02*
X134300000Y-96700000D01*
D42*
X126672183Y-103750000D02*
X129327818Y-103750000D01*
X132200000Y-100877818D02*
X132200000Y-100300000D01*
X124250000Y-101327818D02*
X126672183Y-103750000D01*
X119650000Y-75937500D02*
X124250000Y-80537500D01*
D43*
X134300000Y-96700000D02*
X134300000Y-95849998D01*
%TO.N,/Project Architecture/Temperature Sense/GPIO7*%
X151840000Y-76519999D02*
X151840000Y-77439999D01*
%TD*%
M02*
