%TF.GenerationSoftware,KiCad,Pcbnew,10.0.5-unknown-202607221313~667fa36054~ubuntu25.10.1*%
%TF.CreationDate,Date%
%TF.ProjectId,bms_slave,626d735f-736c-4617-9665-2e6b69636164,+ (Unreleased)*%
%TF.SameCoordinates,Original*%
%TF.FileFunction,Soldermask,Top*%
%TF.FilePolarity,Negative*%
%FSLAX46Y46*%
G04 Gerber Fmt 4.6, Leading zero omitted, Abs format (unit mm)*
G04 Created by KiCad*
%MOMM*%
%LPD*%
G01*
G04 APERTURE LIST*
G04 Aperture macros list*
%AMRoundRect*
0 Rectangle with rounded corners*
0 $1 Rounding radius*
0 $2 $3 $4 $5 $6 $7 $8 $9 X,Y pos of 4 corners*
0 Add a 4 corners polygon primitive as box body*
4,1,4,$2,$3,$4,$5,$6,$7,$8,$9,$2,$3,0*
0 Add four circle primitives for the rounded corners*
1,1,$1+$1,$2,$3*
1,1,$1+$1,$4,$5*
1,1,$1+$1,$6,$7*
1,1,$1+$1,$8,$9*
0 Add four rect primitives between the rounded corners*
20,1,$1+$1,$2,$3,$4,$5,0*
20,1,$1+$1,$4,$5,$6,$7,0*
20,1,$1+$1,$6,$7,$8,$9,0*
20,1,$1+$1,$8,$9,$2,$3,0*%
G04 Aperture macros list end*
%ADD10C,0.000000*%
%ADD11RoundRect,0.200000X-0.200000X-0.275000X0.200000X-0.275000X0.200000X0.275000X-0.200000X0.275000X0*%
%ADD12RoundRect,0.135000X-0.185000X0.135000X-0.185000X-0.135000X0.185000X-0.135000X0.185000X0.135000X0*%
%ADD13RoundRect,0.250000X-0.362500X-1.425000X0.362500X-1.425000X0.362500X1.425000X-0.362500X1.425000X0*%
%ADD14RoundRect,0.140000X0.170000X-0.140000X0.170000X0.140000X-0.170000X0.140000X-0.170000X-0.140000X0*%
%ADD15RoundRect,0.225000X0.225000X0.250000X-0.225000X0.250000X-0.225000X-0.250000X0.225000X-0.250000X0*%
%ADD16R,0.304800X0.609600*%
%ADD17RoundRect,0.140000X-0.140000X-0.170000X0.140000X-0.170000X0.140000X0.170000X-0.140000X0.170000X0*%
%ADD18RoundRect,0.140000X0.140000X0.170000X-0.140000X0.170000X-0.140000X-0.170000X0.140000X-0.170000X0*%
%ADD19RoundRect,0.200000X0.275000X-0.200000X0.275000X0.200000X-0.275000X0.200000X-0.275000X-0.200000X0*%
%ADD20C,1.000000*%
%ADD21C,2.463800*%
%ADD22C,1.574800*%
%ADD23C,2.000000*%
%ADD24R,0.901700X0.482600*%
%ADD25RoundRect,0.250000X0.650000X-0.325000X0.650000X0.325000X-0.650000X0.325000X-0.650000X-0.325000X0*%
%ADD26RoundRect,0.218750X0.218750X0.256250X-0.218750X0.256250X-0.218750X-0.256250X0.218750X-0.256250X0*%
%ADD27R,1.308100X0.685800*%
%ADD28C,3.200000*%
%ADD29RoundRect,0.225000X-0.225000X-0.250000X0.225000X-0.250000X0.225000X0.250000X-0.225000X0.250000X0*%
%ADD30RoundRect,0.250000X0.250000X0.475000X-0.250000X0.475000X-0.250000X-0.475000X0.250000X-0.475000X0*%
%ADD31RoundRect,0.250000X0.312500X1.075000X-0.312500X1.075000X-0.312500X-1.075000X0.312500X-1.075000X0*%
%ADD32RoundRect,0.135000X-0.135000X-0.185000X0.135000X-0.185000X0.135000X0.185000X-0.135000X0.185000X0*%
%ADD33C,1.066800*%
%ADD34RoundRect,0.250000X-0.250000X-0.475000X0.250000X-0.475000X0.250000X0.475000X-0.250000X0.475000X0*%
%ADD35RoundRect,0.250000X-0.312500X-1.075000X0.312500X-1.075000X0.312500X1.075000X-0.312500X1.075000X0*%
%ADD36R,1.500000X0.299999*%
%ADD37R,0.299999X1.500000*%
%ADD38C,0.499999*%
%ADD39RoundRect,0.140000X-0.170000X0.140000X-0.170000X-0.140000X0.170000X-0.140000X0.170000X0.140000X0*%
%ADD40R,5.918200X5.511800*%
%ADD41R,2.489200X0.939800*%
G04 APERTURE END LIST*
D10*
%TO.C,U1*%
G36*
X134600000Y-87449998D02*
G01*
X134600000Y-93850000D01*
X134550000Y-93900000D01*
X128149998Y-93900000D01*
X128099998Y-93850000D01*
X128099998Y-87449998D01*
X128149998Y-87399998D01*
X134550000Y-87399998D01*
X134600000Y-87449998D01*
G37*
%TD*%
D11*
%TO.C,R2*%
X118000000Y-70500000D03*
X119650000Y-70500000D03*
%TD*%
D12*
%TO.C,R34*%
X142084997Y-75499999D03*
X142084997Y-76519999D03*
%TD*%
D13*
%TO.C,R9*%
X110500000Y-82730000D03*
X116425000Y-82730000D03*
%TD*%
D14*
%TO.C,C39*%
X148450000Y-83518499D03*
X148450000Y-82558499D03*
%TD*%
D15*
%TO.C,C1*%
X125525000Y-98225000D03*
X123975000Y-98225000D03*
%TD*%
D16*
%TO.C,D2*%
X133500000Y-79506999D03*
X133500000Y-81792999D03*
%TD*%
D17*
%TO.C,C27*%
X134909300Y-54150000D03*
X135869300Y-54150000D03*
%TD*%
D18*
%TO.C,C29*%
X131085000Y-77470000D03*
X130125000Y-77470000D03*
%TD*%
D19*
%TO.C,R25*%
X139284997Y-77149999D03*
X139284997Y-75499999D03*
%TD*%
D20*
%TO.C,FID2*%
X110500000Y-133200000D03*
%TD*%
D12*
%TO.C,R32*%
X135160000Y-75499999D03*
X135160000Y-76519999D03*
%TD*%
%TO.C,R38*%
X155929997Y-75499999D03*
X155929997Y-76519999D03*
%TD*%
D21*
%TO.C,J1*%
X170750000Y-91850000D03*
X170750000Y-99150001D03*
D22*
X170750000Y-97000000D03*
X170750000Y-94000001D03*
%TD*%
D23*
%TO.C,TP8*%
X107150000Y-147100000D03*
%TD*%
D11*
%TO.C,R16*%
X118000000Y-104750000D03*
X119650000Y-104750000D03*
%TD*%
D18*
%TO.C,C33*%
X144930000Y-77440000D03*
X143970000Y-77440000D03*
%TD*%
D13*
%TO.C,R19*%
X110500000Y-107000000D03*
X116425000Y-107000000D03*
%TD*%
D24*
%TO.C,CR1*%
X151604100Y-94600000D03*
X151604100Y-96500002D03*
X153902800Y-95550001D03*
%TD*%
D25*
%TO.C,C24*%
X138999999Y-85249999D03*
X138999999Y-82299999D03*
%TD*%
D23*
%TO.C,TP12*%
X88950000Y-137000000D03*
%TD*%
D13*
%TO.C,R17*%
X110500000Y-102370000D03*
X116425000Y-102370000D03*
%TD*%
D19*
%TO.C,R23*%
X132359997Y-77149999D03*
X132359997Y-75499999D03*
%TD*%
D26*
%TO.C,D1*%
X145325000Y-59500000D03*
X143750000Y-59500000D03*
%TD*%
D20*
%TO.C,FID3*%
X110500000Y-135750000D03*
%TD*%
D27*
%TO.C,U2*%
X157553450Y-93010001D03*
X157553450Y-95550001D03*
X157553450Y-98090001D03*
X165846550Y-98090001D03*
X165846550Y-95550001D03*
X165846550Y-93010001D03*
%TD*%
D28*
%TO.C,H2*%
X171250000Y-106250000D03*
%TD*%
D18*
%TO.C,C31*%
X138004997Y-77464999D03*
X137044997Y-77464999D03*
%TD*%
D17*
%TO.C,C36*%
X155929997Y-77439999D03*
X156889997Y-77439999D03*
%TD*%
D23*
%TO.C,TP7*%
X107150000Y-143050000D03*
%TD*%
%TO.C,TP6*%
X103100000Y-147100000D03*
%TD*%
D19*
%TO.C,R30*%
X154659997Y-77149999D03*
X154659997Y-75499999D03*
%TD*%
D27*
%TO.C,U3*%
X157553450Y-81928500D03*
X157553450Y-84468500D03*
X157553450Y-87008500D03*
X165846550Y-87008500D03*
X165846550Y-84468500D03*
X165846550Y-81928500D03*
%TD*%
D29*
%TO.C,C11*%
X137975000Y-100500000D03*
X139525000Y-100500000D03*
%TD*%
D23*
%TO.C,TP5*%
X103100000Y-143050000D03*
%TD*%
D11*
%TO.C,R18*%
X118000000Y-109250000D03*
X119650000Y-109250000D03*
%TD*%
D30*
%TO.C,C28*%
X123277400Y-56250000D03*
X121377400Y-56250000D03*
%TD*%
D29*
%TO.C,C6*%
X130475000Y-99000000D03*
X132025000Y-99000000D03*
%TD*%
D31*
%TO.C,R21*%
X123252400Y-59000000D03*
X120327400Y-59000000D03*
%TD*%
D12*
%TO.C,R31*%
X131085000Y-75499999D03*
X131085000Y-76519999D03*
%TD*%
%TO.C,R33*%
X138004997Y-75499999D03*
X138004997Y-76519999D03*
%TD*%
D11*
%TO.C,R10*%
X118000000Y-90000000D03*
X119650000Y-90000000D03*
%TD*%
D12*
%TO.C,R40*%
X147450000Y-83858500D03*
X147450000Y-84878500D03*
%TD*%
D29*
%TO.C,C12*%
X139475000Y-99000000D03*
X141025000Y-99000000D03*
%TD*%
D28*
%TO.C,H1*%
X103750000Y-106250000D03*
%TD*%
D11*
%TO.C,R1*%
X118000000Y-66000000D03*
X119650000Y-66000000D03*
%TD*%
D23*
%TO.C,TP11*%
X88950000Y-132950000D03*
%TD*%
D29*
%TO.C,C7*%
X131975000Y-100500000D03*
X133525000Y-100500000D03*
%TD*%
D13*
%TO.C,R11*%
X110500000Y-87640000D03*
X116425000Y-87640000D03*
%TD*%
D32*
%TO.C,R43*%
X149390000Y-83518499D03*
X150410000Y-83518499D03*
%TD*%
D29*
%TO.C,C8*%
X133475000Y-99000000D03*
X135025000Y-99000000D03*
%TD*%
D33*
%TO.C,J3*%
X130000005Y-68059999D03*
X157000001Y-68059999D03*
D22*
X154000000Y-71999999D03*
X151000001Y-71999999D03*
X148000002Y-71999999D03*
X145000002Y-71999999D03*
X142000003Y-71999999D03*
X139000004Y-71999999D03*
X136000005Y-71999999D03*
X133000006Y-71999999D03*
X154000000Y-69000000D03*
X151000001Y-69000000D03*
X148000002Y-69000000D03*
X145000002Y-69000000D03*
X142000003Y-69000000D03*
X139000004Y-69000000D03*
X136000005Y-69000000D03*
X133000006Y-69000000D03*
%TD*%
D11*
%TO.C,R14*%
X117925000Y-100000000D03*
X119575000Y-100000000D03*
%TD*%
%TO.C,R12*%
X118000000Y-95000000D03*
X119650000Y-95000000D03*
%TD*%
D14*
%TO.C,C25*%
X137299999Y-85654999D03*
X137299999Y-84694999D03*
%TD*%
D12*
%TO.C,R35*%
X144930000Y-75500000D03*
X144930000Y-76520000D03*
%TD*%
D34*
%TO.C,C21*%
X135050000Y-82899999D03*
X136950000Y-82899999D03*
%TD*%
D23*
%TO.C,TP1*%
X95000000Y-143050000D03*
%TD*%
D22*
%TO.C,J4*%
X89500000Y-95500000D03*
X89500000Y-92500001D03*
X89500000Y-89500002D03*
X89500000Y-86500002D03*
X89500000Y-83500003D03*
X89500000Y-80500004D03*
X92499999Y-95500000D03*
X92499999Y-92500001D03*
X92499999Y-89500002D03*
X92499999Y-86500002D03*
X92499999Y-83500003D03*
X92499999Y-80500004D03*
%TD*%
D19*
%TO.C,R29*%
X153120000Y-77149999D03*
X153120000Y-75499999D03*
%TD*%
D23*
%TO.C,TP9*%
X95000000Y-132950000D03*
%TD*%
D17*
%TO.C,C32*%
X142084997Y-77439999D03*
X143044997Y-77439999D03*
%TD*%
D23*
%TO.C,TP13*%
X88950000Y-141050000D03*
%TD*%
%TO.C,TP10*%
X95000000Y-137000000D03*
%TD*%
D13*
%TO.C,R5*%
X110500000Y-72910000D03*
X116425000Y-72910000D03*
%TD*%
D32*
%TO.C,R44*%
X149390000Y-85418501D03*
X150410000Y-85418501D03*
%TD*%
D22*
%TO.C,J4*%
X107689800Y-103904894D03*
X107689800Y-100904895D03*
X107689800Y-97904896D03*
X107689800Y-94904897D03*
X107689800Y-91904898D03*
X107689800Y-88904899D03*
X107689800Y-85904900D03*
X107689800Y-82904901D03*
X107689800Y-79904902D03*
X107689800Y-76904903D03*
X107689800Y-73904904D03*
X107689800Y-70904905D03*
%TD*%
D11*
%TO.C,R8*%
X118000000Y-85250000D03*
X119650000Y-85250000D03*
%TD*%
D12*
%TO.C,R36*%
X148999997Y-75500000D03*
X148999997Y-76520000D03*
%TD*%
D19*
%TO.C,R27*%
X146199997Y-77150000D03*
X146199997Y-75500000D03*
%TD*%
D23*
%TO.C,TP4*%
X99050000Y-147100000D03*
%TD*%
D29*
%TO.C,C2*%
X127475000Y-99000000D03*
X129025000Y-99000000D03*
%TD*%
%TO.C,C10*%
X136475000Y-99000000D03*
X138025000Y-99000000D03*
%TD*%
%TO.C,C5*%
X128975000Y-100500000D03*
X130525000Y-100500000D03*
%TD*%
D15*
%TO.C,C22*%
X145274999Y-98324999D03*
X143724999Y-98324999D03*
%TD*%
D35*
%TO.C,R20*%
X115577400Y-59000000D03*
X118502400Y-59000000D03*
%TD*%
D28*
%TO.C,H3*%
X171250000Y-68750000D03*
%TD*%
D33*
%TO.C,J2*%
X173750002Y-86940000D03*
X167749998Y-86940000D03*
D22*
X170750000Y-83000000D03*
X170750000Y-85999999D03*
%TD*%
D13*
%TO.C,R7*%
X110500000Y-77820000D03*
X116425000Y-77820000D03*
%TD*%
D14*
%TO.C,C37*%
X148453450Y-94600000D03*
X148453450Y-93640000D03*
%TD*%
D32*
%TO.C,R41*%
X149343450Y-94600000D03*
X150363450Y-94600000D03*
%TD*%
D23*
%TO.C,TP2*%
X95000000Y-147100000D03*
%TD*%
D12*
%TO.C,R39*%
X147453450Y-95040001D03*
X147453450Y-96060001D03*
%TD*%
D17*
%TO.C,C34*%
X148999997Y-77440000D03*
X149959997Y-77440000D03*
%TD*%
D19*
%TO.C,R24*%
X133884997Y-77149999D03*
X133884997Y-75499999D03*
%TD*%
D12*
%TO.C,R37*%
X151840000Y-75499999D03*
X151840000Y-76519999D03*
%TD*%
D13*
%TO.C,R15*%
X110500000Y-97460000D03*
X116425000Y-97460000D03*
%TD*%
D19*
%TO.C,R26*%
X140809997Y-77149999D03*
X140809997Y-75499999D03*
%TD*%
D36*
%TO.C,U1*%
X125650000Y-86899999D03*
X125650000Y-87399998D03*
X125650000Y-87899999D03*
X125650000Y-88399998D03*
X125650000Y-88900000D03*
X125650000Y-89399999D03*
X125650000Y-89899998D03*
X125650000Y-90399999D03*
X125650000Y-90899999D03*
X125650000Y-91400000D03*
X125650000Y-91899999D03*
X125650000Y-92399998D03*
X125650000Y-92900000D03*
X125650000Y-93399999D03*
X125650000Y-93900000D03*
X125650000Y-94399999D03*
D37*
X127599999Y-96349998D03*
X128099998Y-96349998D03*
X128599999Y-96349998D03*
X129099998Y-96349998D03*
X129600000Y-96349998D03*
X130099999Y-96349998D03*
X130599998Y-96349998D03*
X131099999Y-96349998D03*
X131599999Y-96349998D03*
X132100000Y-96349998D03*
X132599999Y-96349998D03*
X133099998Y-96349998D03*
X133600000Y-96349998D03*
X134099999Y-96349998D03*
X134600000Y-96349998D03*
X135099999Y-96349998D03*
D36*
X137049998Y-94399999D03*
X137049998Y-93900000D03*
X137049998Y-93399999D03*
X137049998Y-92900000D03*
X137049998Y-92399998D03*
X137049998Y-91899999D03*
X137049998Y-91400000D03*
X137049998Y-90899999D03*
X137049998Y-90399999D03*
X137049998Y-89899998D03*
X137049998Y-89399999D03*
X137049998Y-88900000D03*
X137049998Y-88399998D03*
X137049998Y-87899999D03*
X137049998Y-87399998D03*
X137049998Y-86899999D03*
D37*
X135099999Y-84950000D03*
X134600000Y-84950000D03*
X134099999Y-84950000D03*
X133600000Y-84950000D03*
X133099998Y-84950000D03*
X132599999Y-84950000D03*
X132100000Y-84950000D03*
X131599999Y-84950000D03*
X131099999Y-84950000D03*
X130599998Y-84950000D03*
X130099999Y-84950000D03*
X129600000Y-84950000D03*
X129099998Y-84950000D03*
X128599999Y-84950000D03*
X128099998Y-84950000D03*
X127599999Y-84950000D03*
D38*
X128099998Y-87399998D03*
X128099998Y-88699998D03*
X128099998Y-90000000D03*
X128099998Y-91300000D03*
X128099998Y-92600000D03*
X128099998Y-93900000D03*
X129399998Y-87399998D03*
X129399998Y-88699998D03*
X129399998Y-90000000D03*
X129399998Y-91300000D03*
X129399998Y-92600000D03*
X129399998Y-93900000D03*
X130699998Y-87399998D03*
X130699998Y-88699998D03*
X130699998Y-90000000D03*
X130699998Y-91300000D03*
X130699998Y-92600000D03*
X130699998Y-93900000D03*
X132000000Y-87399998D03*
X132000000Y-88699998D03*
X132000000Y-90000000D03*
X132000000Y-91300000D03*
X132000000Y-92600000D03*
X132000000Y-93900000D03*
X133300000Y-87399998D03*
X133300000Y-88699998D03*
X133300000Y-90000000D03*
X133300000Y-91300000D03*
X133300000Y-92600000D03*
X133300000Y-93900000D03*
X134600000Y-87399998D03*
X134600000Y-88699998D03*
X134600000Y-90000000D03*
X134600000Y-91300000D03*
X134600000Y-92600000D03*
X134600000Y-93900000D03*
%TD*%
D39*
%TO.C,C40*%
X148450000Y-85418501D03*
X148450000Y-86378501D03*
%TD*%
D32*
%TO.C,R22*%
X144782116Y-58287400D03*
X145802116Y-58287400D03*
%TD*%
D20*
%TO.C,FID1*%
X110500000Y-130650000D03*
%TD*%
D19*
%TO.C,R28*%
X147724997Y-77150000D03*
X147724997Y-75500000D03*
%TD*%
D24*
%TO.C,CR2*%
X151604100Y-83518499D03*
X151604100Y-85418501D03*
X153902800Y-84468500D03*
%TD*%
D17*
%TO.C,C30*%
X135160000Y-77470000D03*
X136120000Y-77470000D03*
%TD*%
D40*
%TO.C,Q1*%
X127500000Y-57750000D03*
D41*
X135869300Y-60030001D03*
X135869300Y-55469999D03*
%TD*%
D39*
%TO.C,C38*%
X148453450Y-96500002D03*
X148453450Y-97460002D03*
%TD*%
D18*
%TO.C,C41*%
X156133450Y-95550001D03*
X155173450Y-95550001D03*
%TD*%
D13*
%TO.C,R13*%
X110500000Y-92550000D03*
X116425000Y-92550000D03*
%TD*%
D15*
%TO.C,C26*%
X133525000Y-83149999D03*
X131975000Y-83149999D03*
%TD*%
%TO.C,C23*%
X145275000Y-96750000D03*
X143725000Y-96750000D03*
%TD*%
D18*
%TO.C,C42*%
X156180000Y-84468500D03*
X155220000Y-84468500D03*
%TD*%
%TO.C,C35*%
X151840000Y-77439999D03*
X150880000Y-77439999D03*
%TD*%
D11*
%TO.C,R4*%
X118000000Y-75250000D03*
X119650000Y-75250000D03*
%TD*%
D28*
%TO.C,H4*%
X103750000Y-68750000D03*
%TD*%
D29*
%TO.C,C9*%
X134975000Y-100500000D03*
X136525000Y-100500000D03*
%TD*%
D23*
%TO.C,TP3*%
X99050000Y-143050000D03*
%TD*%
D11*
%TO.C,R6*%
X118000000Y-80250000D03*
X119650000Y-80250000D03*
%TD*%
D32*
%TO.C,R42*%
X149343450Y-96500002D03*
X150363450Y-96500002D03*
%TD*%
D13*
%TO.C,R3*%
X110500000Y-67999998D03*
X116425000Y-67999998D03*
%TD*%
D23*
%TO.C,TP14*%
X88950000Y-145100000D03*
%TD*%
M02*
