%TF.GenerationSoftware,KiCad,Pcbnew,10.0.5-unknown-202607221313~667fa36054~ubuntu25.10.1*%
%TF.CreationDate,Date%
%TF.ProjectId,bms_slave,626d735f-736c-4617-9665-2e6b69636164,+ (Unreleased)*%
%TF.SameCoordinates,Original*%
%TF.FileFunction,Copper,L2,Inr*%
%TF.FilePolarity,Positive*%
%FSLAX46Y46*%
G04 Gerber Fmt 4.6, Leading zero omitted, Abs format (unit mm)*
G04 Created by KiCad*
%MOMM*%
%LPD*%
G01*
G04 APERTURE LIST*
%TA.AperFunction,ComponentPad*%
%ADD10C,1.574800*%
%TD*%
%TA.AperFunction,ComponentPad*%
%ADD11C,0.499999*%
%TD*%
G04 APERTURE END LIST*
D10*
%TO.N,/Project Architecture/Connectors/COML.N*%
%TO.C,J1*%
X170750000Y-93450000D03*
%TO.N,/Project Architecture/Connectors/COML.P*%
X170750000Y-96449999D03*
%TD*%
%TO.N,/Project Architecture/VMODULE*%
%TO.C,J4*%
X68750000Y-100999996D03*
%TO.N,unconnected-(J4-Pad2)*%
X68750000Y-97999997D03*
%TO.N,/Project Architecture/Cell Sense & Balance/TAP8*%
X68750000Y-94999998D03*
%TO.N,/Project Architecture/Cell Sense & Balance/TAP7*%
X68750000Y-91999999D03*
%TO.N,/Project Architecture/Cell Sense & Balance/TAP6*%
X68750000Y-89000000D03*
%TO.N,/Project Architecture/Cell Sense & Balance/TAP5*%
X68750000Y-86000001D03*
%TO.N,/Project Architecture/Cell Sense & Balance/TAP4*%
X68750000Y-83000002D03*
%TO.N,/Project Architecture/Cell Sense & Balance/TAP3*%
X68750000Y-80000003D03*
%TO.N,/Project Architecture/Cell Sense & Balance/TAP2*%
X68750000Y-77000004D03*
%TO.N,/Project Architecture/Cell Sense & Balance/TAP1*%
X68750000Y-74000005D03*
%TO.N,/Project Architecture/Cell Sense & Balance/TAP0*%
X68750000Y-71000006D03*
%TO.N,/Project Architecture/GND*%
X68750000Y-68000007D03*
%TD*%
%TO.N,/Project Architecture/Connectors/T_P8*%
%TO.C,J3*%
X145999998Y-71750000D03*
%TO.N,/Project Architecture/Connectors/T_P7*%
X142999999Y-71750000D03*
%TO.N,/Project Architecture/Connectors/T_P6*%
X140000000Y-71750000D03*
%TO.N,/Project Architecture/Connectors/T_P5*%
X137000000Y-71750000D03*
%TO.N,/Project Architecture/Connectors/T_P4*%
X134000001Y-71750000D03*
%TO.N,/Project Architecture/Connectors/T_P3*%
X131000002Y-71750000D03*
%TO.N,/Project Architecture/Connectors/T_P2*%
X128000003Y-71750000D03*
%TO.N,/Project Architecture/Connectors/T_P1*%
X125000004Y-71750000D03*
%TO.N,/Project Architecture/GND*%
X145999998Y-68750001D03*
X142999999Y-68750001D03*
X140000000Y-68750001D03*
X137000000Y-68750001D03*
X134000001Y-68750001D03*
X131000002Y-68750001D03*
X128000003Y-68750001D03*
X125000004Y-68750001D03*
%TD*%
%TO.N,/Project Architecture/VMODULE*%
%TO.C,J4*%
X24814301Y-137089598D03*
%TO.N,unconnected-(J4-Pad2)*%
X24814301Y-134089599D03*
%TO.N,/Project Architecture/Cell Sense & Balance/TAP8*%
X24814301Y-131089600D03*
%TO.N,/Project Architecture/Cell Sense & Balance/TAP7*%
X24814301Y-128089600D03*
%TO.N,/Project Architecture/Cell Sense & Balance/TAP6*%
X24814301Y-125089601D03*
%TO.N,/Project Architecture/Cell Sense & Balance/TAP5*%
X24814301Y-122089602D03*
%TO.N,/Project Architecture/Cell Sense & Balance/TAP4*%
X27814300Y-137089598D03*
%TO.N,/Project Architecture/Cell Sense & Balance/TAP3*%
X27814300Y-134089599D03*
%TO.N,/Project Architecture/Cell Sense & Balance/TAP2*%
X27814300Y-131089600D03*
%TO.N,/Project Architecture/Cell Sense & Balance/TAP1*%
X27814300Y-128089600D03*
%TO.N,/Project Architecture/Cell Sense & Balance/TAP0*%
X27814300Y-125089601D03*
%TO.N,/Project Architecture/GND*%
X27814300Y-122089602D03*
%TD*%
%TO.N,/Project Architecture/Connectors/COMH.P*%
%TO.C,J2*%
X170750000Y-81031500D03*
%TO.N,/Project Architecture/Connectors/COMH.N*%
X170750000Y-84031499D03*
%TD*%
D11*
%TO.N,/Project Architecture/GND*%
%TO.C,U1*%
X130374998Y-90624998D03*
X130374998Y-91924998D03*
X130374998Y-93225000D03*
X130374998Y-94525000D03*
X130374998Y-95825000D03*
X130374998Y-97125000D03*
X131674998Y-90624998D03*
X131674998Y-91924998D03*
X131674998Y-93225000D03*
X131674998Y-94525000D03*
X131674998Y-95825000D03*
X131674998Y-97125000D03*
X132974998Y-90624998D03*
X132974998Y-91924998D03*
X132974998Y-93225000D03*
X132974998Y-94525000D03*
X132974998Y-95825000D03*
X132974998Y-97125000D03*
X134275000Y-90624998D03*
X134275000Y-91924998D03*
X134275000Y-93225000D03*
X134275000Y-94525000D03*
X134275000Y-95825000D03*
X134275000Y-97125000D03*
X135575000Y-90624998D03*
X135575000Y-91924998D03*
X135575000Y-93225000D03*
X135575000Y-94525000D03*
X135575000Y-95825000D03*
X135575000Y-97125000D03*
X136875000Y-90624998D03*
X136875000Y-91924998D03*
X136875000Y-93225000D03*
X136875000Y-94525000D03*
X136875000Y-95825000D03*
X136875000Y-97125000D03*
%TD*%
M02*
