M48
; DRILL file KiCad 10.0.5-unknown-202607221313~667fa36054~ubuntu25.10.1 date 2026-09-28T01:48:24
; FORMAT={-:-/ absolute / metric / decimal}
; #@! TF.CreationDate,2026-09-28T01:48:24+00:00
; #@! TF.GenerationSoftware,Kicad,Pcbnew,10.0.5-unknown-202607221313~667fa36054~ubuntu25.10.1
; #@! TF.FileFunction,Plated,1,4,PTH
FMAT,2
METRIC
; #@! TA.AperFunction,Plated,PTH,ComponentDrill
T1C0.203
; #@! TA.AperFunction,Plated,PTH,ComponentDrill
T2C1.067
%
G90
G05
T1
X129.4Y-87.75
X129.4Y-89.05
X129.4Y-90.35
X129.4Y-91.65
X129.4Y-92.95
X129.4Y-94.25
X130.7Y-87.75
X130.7Y-89.05
X130.7Y-90.35
X130.7Y-91.65
X130.7Y-92.95
X130.7Y-94.25
X132.0Y-87.75
X132.0Y-89.05
X132.0Y-90.35
X132.0Y-91.65
X132.0Y-92.95
X132.0Y-94.25
X133.3Y-87.75
X133.3Y-89.05
X133.3Y-90.35
X133.3Y-91.65
X133.3Y-92.95
X133.3Y-94.25
X134.6Y-87.75
X134.6Y-89.05
X134.6Y-90.35
X134.6Y-91.65
X134.6Y-92.95
X134.6Y-94.25
X135.9Y-87.75
X135.9Y-89.05
X135.9Y-90.35
X135.9Y-91.65
X135.9Y-92.95
X135.9Y-94.25
T2
X86.473Y-41.84
X86.473Y-44.84
X86.473Y-47.84
X86.473Y-50.84
X86.473Y-53.84
X86.473Y-56.84
X86.473Y-59.84
X86.473Y-62.84
X86.473Y-65.84
X87.564Y-79.84
X87.564Y-82.84
X87.564Y-85.84
X87.564Y-88.84
X87.564Y-91.84
X87.564Y-94.84
X87.564Y-97.84
X87.564Y-100.84
X90.564Y-79.84
X90.564Y-82.84
X90.564Y-85.84
X90.564Y-88.84
X90.564Y-91.84
X90.564Y-94.84
X90.564Y-97.84
X90.564Y-100.84
X186.936Y-100.66
X189.777Y-82.16
X189.777Y-85.16
X189.936Y-100.66
M30
